<svg width="179" height="28" viewBox="0 0 179 28" fill="none" xmlns="http://www.w3.org/2000/svg">
<g id="Group 660">
<path id="Vector 150" d="M6.50036 28L15.621 21.342L24.7705 28L21.2204 17.3194L30.3892 10.647H19.0701L15.6547 0L12.1527 10.647H0.833618L10.0361 17.3194L6.50036 28Z" fill="#FF9F2F"/>
<path id="Vector 151" d="M43.4463 28L52.567 21.342L61.7165 28L58.1664 17.3194L67.3351 10.647H56.0161L52.6007 0L49.0986 10.647H37.7796L46.982 17.3194L43.4463 28Z" fill="#FF9F2F"/>
<path id="Vector 152" d="M80.3908 28L89.5114 21.342L98.6609 28L95.1108 17.3194L104.28 10.647H92.9605L89.5451 0L86.0431 10.647H74.724L83.9265 17.3194L80.3908 28Z" fill="#FF9F2F"/>
<path id="Vector 153" d="M117.333 28L126.453 21.342L135.603 28L132.053 17.3194L141.221 10.647H129.902L126.487 0L122.985 10.647H111.666L120.868 17.3194L117.333 28Z" fill="#FF9F2F"/>
<path id="Vector 154" d="M154.278 28L163.398 21.342L172.548 28L168.998 17.3194L178.166 10.647H166.847L163.432 0L159.93 10.647H148.611L157.813 17.3194L154.278 28Z" fill="#FF9F2F"/>
</g>
</svg>
