<svg width="132" height="40" viewBox="0 0 132 40" fill="none" xmlns="http://www.w3.org/2000/svg">
<g clip-path="url(#clip0_4423_29430)">
<path d="M121.488 1.72058e-06H10.5176C10.1131 1.72058e-06 9.71344 1.72059e-06 9.31001 0.00200173C8.9723 0.00400173 8.63728 0.00981175 8.29632 0.0147018C7.55562 0.0226036 6.81665 0.0816783 6.08585 0.191412C5.35607 0.303535 4.64915 0.514919 3.98901 0.818414C3.32967 1.12448 2.72721 1.52217 2.2035 1.99708C1.67703 2.47065 1.23818 3.01803 0.903815 3.61817C0.568532 4.21712 0.336045 4.85896 0.214385 5.5215C0.0915684 6.18321 0.0254795 6.85254 0.0167118 7.52351C0.00647513 7.83011 0.0053941 8.13773 0 8.44437V31.5587C0.0053941 31.8692 0.00647513 32.17 0.0167118 32.4806C0.0254822 33.1515 0.0915711 33.8208 0.214385 34.4825C0.335709 35.1454 0.56821 35.7876 0.903815 36.3868C1.23802 36.985 1.67694 37.5302 2.2035 38.0011C2.72523 38.4781 3.32807 38.8761 3.98901 39.1798C4.64915 39.4841 5.35599 39.6968 6.08585 39.8106C6.81677 39.9195 7.55566 39.9786 8.29632 39.9874C8.63728 39.9942 8.9723 39.9981 9.31001 39.9981C9.71343 40.0001 10.1131 40.0001 10.5176 40.0001H121.488C121.885 40.0001 122.288 40.0001 122.684 39.9981C123.02 39.9981 123.365 39.9942 123.701 39.9874C124.44 39.9791 125.178 39.92 125.907 39.8106C126.639 39.696 127.349 39.4834 128.012 39.1798C128.672 38.8759 129.275 38.478 129.796 38.0011C130.321 37.5283 130.761 36.9836 131.099 36.3868C131.433 35.7872 131.663 35.1451 131.782 34.4825C131.905 33.8207 131.974 33.1516 131.987 32.4806C131.991 32.17 131.991 31.8692 131.991 31.5587C132 31.1954 132 30.8341 132 30.4649V9.53616C132 9.16995 132 8.80667 131.991 8.44437C131.991 8.13773 131.991 7.83011 131.987 7.52347C131.974 6.85245 131.905 6.18326 131.782 5.52146C131.662 4.8593 131.432 4.21752 131.099 3.61813C130.419 2.41521 129.339 1.43603 128.012 0.818324C127.349 0.515571 126.639 0.304243 125.907 0.191322C125.178 0.0811048 124.44 0.0220096 123.701 0.0145618C123.365 0.00968175 123.02 0.00382173 122.684 0.00187173C122.288 -0.00012828 121.885 1.72058e-06 121.488 1.72058e-06Z" fill="#A6A6A6"/>
<path d="M9.31723 39.125C8.98114 39.125 8.65317 39.1211 8.31972 39.1143C7.62894 39.1061 6.93978 39.0516 6.25789 38.9512C5.62206 38.8519 5.00611 38.6673 4.43036 38.4033C3.85989 38.1415 3.33957 37.7983 2.88935 37.3867C2.4326 36.98 2.05234 36.5082 1.76363 35.9902C1.47175 35.4688 1.26974 34.9099 1.16466 34.333C1.05118 33.7131 0.989778 33.0863 0.980993 32.458C0.973999 32.2471 0.964844 31.5449 0.964844 31.5449V8.44434C0.964844 8.44434 0.974595 7.75293 0.981048 7.5498C0.98946 6.92248 1.0505 6.29665 1.16364 5.67773C1.26892 5.09925 1.47108 4.53875 1.76313 4.01563C2.05077 3.49794 2.42892 3.02586 2.88292 2.61768C3.3364 2.20562 3.85838 1.8606 4.42982 1.59521C5.00425 1.33209 5.61903 1.14873 6.25358 1.05127C6.93771 0.949836 7.62926 0.894996 8.32243 0.88721L9.31777 0.875H122.681L123.688 0.8877C124.375 0.895099 125.06 0.94945 125.738 1.05029C126.379 1.14898 127 1.33362 127.581 1.59814C128.726 2.13299 129.657 2.97916 130.245 4.01807C130.532 4.53758 130.731 5.09351 130.835 5.66699C130.95 6.29099 131.014 6.92174 131.027 7.5542C131.03 7.8374 131.03 8.1416 131.03 8.44434C131.039 8.81934 131.039 9.17627 131.039 9.53613V30.4648C131.039 30.8281 131.039 31.1826 131.03 31.54C131.03 31.8652 131.03 32.1631 131.026 32.4697C131.013 33.0909 130.95 33.7104 130.837 34.3232C130.734 34.9043 130.533 35.4675 130.242 35.9932C129.951 36.5056 129.573 36.9733 129.121 37.3789C128.671 37.7927 128.15 38.1379 127.578 38.4014C126.998 38.6674 126.378 38.8527 125.738 38.9512C125.056 39.0522 124.367 39.1067 123.676 39.1143C123.353 39.1211 123.014 39.125 122.686 39.125L121.49 39.127L9.31723 39.125Z" fill="black"/>
<path d="M20.01 13.0158C20.01 12.4899 19.5385 12.0635 18.9568 12.0635C18.3751 12.0635 17.9036 12.4899 17.9036 13.0158V20.1515L14.7273 17.6896C14.2857 17.3473 13.6208 17.3935 13.2423 17.7929C12.8637 18.1922 12.9149 18.7935 13.3565 19.1358L18.4999 23.1224C18.7628 23.3262 19.1508 23.3262 19.4137 23.1224L24.5571 19.1358C24.9987 18.7935 25.0499 18.1922 24.6713 17.7929C24.2928 17.3935 23.6279 17.3473 23.1863 17.6896L20.01 20.1515V13.0158Z" fill="white"/>
<path d="M11.5844 23.492C11.0028 23.492 10.5312 23.9184 10.5312 24.4444V26.0317C10.5312 26.733 11.16 27.3016 11.9355 27.3016H25.9781C26.7536 27.3016 27.3823 26.733 27.3823 26.0317V24.4444C27.3823 23.9184 26.9108 23.492 26.3291 23.492C25.7475 23.492 25.2759 23.9184 25.2759 24.4444V24.7619C25.2759 25.1125 24.9616 25.3968 24.5738 25.3968H13.3398C12.952 25.3968 12.6376 25.1125 12.6376 24.7619V24.4444C12.6376 23.9184 12.1661 23.492 11.5844 23.492Z" fill="white"/>
<path d="M39.0527 13.9683V7.64881H41.2174C42.1261 7.64881 42.8845 7.91357 43.4925 8.44308C44.1036 8.9726 44.4092 9.69453 44.4092 10.6089V11.0082C44.4092 11.9196 44.1036 12.6416 43.4925 13.174C42.8845 13.7035 42.1261 13.9683 41.2174 13.9683H39.0527ZM40.1567 13.1783H41.2078C41.8382 13.1783 42.3421 12.9902 42.7197 12.6141C43.0973 12.2379 43.2861 11.7055 43.2861 11.0169V10.6002C43.2861 9.91155 43.0973 9.37914 42.7197 9.00298C42.3421 8.62682 41.8382 8.43874 41.2078 8.43874H40.1567V13.1783Z" fill="white"/>
<path d="M45.3307 11.7504V11.6115C45.3307 10.9141 45.5547 10.3499 46.0027 9.91878C46.4539 9.48475 47.049 9.26774 47.7882 9.26774C48.5273 9.26774 49.1209 9.48475 49.5689 9.91878C50.0169 10.3499 50.2408 10.9141 50.2408 11.6115V11.7504C50.2408 12.4506 50.0169 13.0177 49.5689 13.4518C49.1209 13.8829 48.5273 14.0985 47.7882 14.0985C47.049 14.0985 46.4539 13.8829 46.0027 13.4518C45.5547 13.0177 45.3307 12.4506 45.3307 11.7504ZM46.4251 11.5898V11.7764C46.4251 12.2336 46.5403 12.6069 46.7707 12.8962C47.001 13.1856 47.3402 13.3302 47.7882 13.3302C48.233 13.3302 48.5705 13.1856 48.8009 12.8962C49.0313 12.6069 49.1465 12.2336 49.1465 11.7764V11.5898C49.1465 11.1326 49.0297 10.7593 48.7961 10.47C48.5657 10.1777 48.2298 10.0316 47.7882 10.0316C47.3434 10.0316 47.0042 10.1777 46.7707 10.47C46.5403 10.7593 46.4251 11.1326 46.4251 11.5898Z" fill="white"/>
<path d="M50.74 9.39795H51.7959L52.6647 12.2538C52.6999 12.3696 52.7271 12.468 52.7463 12.549C52.7687 12.6271 52.7911 12.724 52.8135 12.8398H52.8423C52.8647 12.724 52.8855 12.6271 52.9047 12.549C52.9239 12.468 52.9543 12.3696 52.9959 12.2538L54.0038 9.39795H54.9637L56.0053 12.2538C56.0501 12.3696 56.0821 12.468 56.1013 12.549C56.1237 12.6271 56.1461 12.724 56.1685 12.8398H56.1973C56.2197 12.724 56.2405 12.6271 56.2597 12.549C56.2789 12.468 56.3045 12.3696 56.3365 12.2538L57.186 9.39795H58.1459L56.6004 13.9683H55.6837L54.6518 11.1471C54.6134 11.0342 54.5766 10.9199 54.5414 10.8042C54.5094 10.6885 54.479 10.5742 54.4502 10.4613H54.4214C54.3926 10.5742 54.3606 10.6885 54.3254 10.8042C54.2934 10.9199 54.2582 11.0342 54.2198 11.1471L53.2071 13.9683H52.2855L50.74 9.39795Z" fill="white"/>
<path d="M58.9379 13.9683V9.39795H59.9266L59.965 9.95784H59.989C60.1554 9.76108 60.3698 9.60339 60.6322 9.48475C60.8946 9.36612 61.1842 9.3068 61.5009 9.3068C62.0129 9.3068 62.4241 9.4399 62.7345 9.70611C63.0448 9.96942 63.2 10.4165 63.2 11.0473V13.9683H62.1297V11.0299C62.1297 10.6913 62.0465 10.4512 61.8801 10.3094C61.7169 10.1647 61.4817 10.0924 61.1746 10.0924C60.9186 10.0924 60.6882 10.156 60.4834 10.2834C60.2786 10.4107 60.1202 10.5799 60.0082 10.7912V13.9683H58.9379Z" fill="white"/>
<path d="M64.5439 13.9683V7.31027H65.6143V13.9683H64.5439Z" fill="white"/>
<path d="M66.7182 11.7504V11.6115C66.7182 10.9141 66.9422 10.3499 67.3902 9.91878C67.8413 9.48475 68.4365 9.26774 69.1757 9.26774C69.9148 9.26774 70.5084 9.48475 70.9563 9.91878C71.4043 10.3499 71.6283 10.9141 71.6283 11.6115V11.7504C71.6283 12.4506 71.4043 13.0177 70.9563 13.4518C70.5084 13.8829 69.9148 14.0985 69.1757 14.0985C68.4365 14.0985 67.8413 13.8829 67.3902 13.4518C66.9422 13.0177 66.7182 12.4506 66.7182 11.7504ZM67.8125 11.5898V11.7764C67.8125 12.2336 67.9277 12.6069 68.1581 12.8962C68.3885 13.1856 68.7277 13.3302 69.1757 13.3302C69.6204 13.3302 69.958 13.1856 70.1884 12.8962C70.4188 12.6069 70.534 12.2336 70.534 11.7764V11.5898C70.534 11.1326 70.4172 10.7593 70.1836 10.47C69.9532 10.1777 69.6172 10.0316 69.1757 10.0316C68.7309 10.0316 68.3917 10.1777 68.1581 10.47C67.9277 10.7593 67.8125 11.1326 67.8125 11.5898Z" fill="white"/>
<path d="M72.4347 12.6228C72.4347 12.1424 72.6426 11.775 73.0586 11.5203C73.4746 11.2628 74.001 11.1326 74.6377 11.1297H75.7272V10.8389C75.7272 10.5872 75.6553 10.3832 75.5113 10.2269C75.3673 10.0678 75.1193 9.98822 74.7673 9.98822C74.4121 9.98822 74.1577 10.0533 74.0042 10.1835C73.8538 10.3137 73.7786 10.4671 73.7786 10.6436V10.6827H72.7178V10.6436C72.7178 10.2646 72.9066 9.94048 73.2842 9.67138C73.665 9.40229 74.1705 9.26774 74.8009 9.26774C75.4313 9.26774 75.9208 9.39795 76.2696 9.65836C76.6216 9.91878 76.7976 10.3123 76.7976 10.8389V12.9309C76.7976 13.119 76.8136 13.297 76.8456 13.4648C76.8808 13.6297 76.9288 13.7744 76.9896 13.8988V13.9683H75.9432C75.9016 13.8988 75.8632 13.8077 75.828 13.6948C75.7928 13.5791 75.7704 13.4662 75.7608 13.3563C75.6521 13.5386 75.4633 13.7006 75.1945 13.8424C74.9257 13.9842 74.5833 14.0551 74.1673 14.0551C73.6842 14.0551 73.2746 13.9335 72.9386 13.6905C72.6026 13.4474 72.4347 13.0915 72.4347 12.6228ZM73.505 12.5533C73.505 12.7935 73.5818 12.9845 73.7354 13.1262C73.889 13.2651 74.1306 13.3346 74.4601 13.3346C74.7929 13.3346 75.0873 13.2333 75.3433 13.0308C75.5993 12.8253 75.7272 12.6011 75.7272 12.358V11.7764H74.7673C74.3481 11.7764 74.033 11.8459 73.8218 11.9848C73.6106 12.1236 73.505 12.3132 73.505 12.5533Z" fill="white"/>
<path d="M77.8631 11.7504V11.6115C77.8631 10.9402 78.0583 10.389 78.4487 9.95784C78.8423 9.52671 79.3606 9.31114 80.0038 9.31114C80.343 9.31114 80.6341 9.36612 80.8773 9.47607C81.1205 9.58602 81.3125 9.7307 81.4533 9.9101V7.31027H82.5188V13.9683H81.5301L81.4965 13.3953H81.4677C81.3493 13.5805 81.1605 13.7368 80.9013 13.8641C80.6453 13.9914 80.3478 14.0551 80.0086 14.0551C79.3526 14.0551 78.8311 13.8395 78.4439 13.4084C78.0567 12.9743 77.8631 12.4217 77.8631 11.7504ZM78.9574 11.7721C78.9574 12.2061 79.0614 12.5678 79.2694 12.8571C79.4806 13.1465 79.8054 13.2912 80.2438 13.2912C80.5414 13.2912 80.7925 13.2188 80.9973 13.0742C81.2053 12.9266 81.3557 12.7559 81.4485 12.562V10.7999C81.3557 10.6089 81.2069 10.4411 81.0021 10.2964C80.8005 10.1488 80.5494 10.075 80.2486 10.075C79.8102 10.075 79.4854 10.2197 79.2742 10.5091C79.063 10.7984 78.9574 11.1601 78.9574 11.5941V11.7721Z" fill="white"/>
<path d="M37.8906 31.746L42.5614 19.9535H44.5759L49.2556 31.746H47.2144L43.8628 22.9359C43.7915 22.7478 43.7291 22.5705 43.6756 22.4039C43.6281 22.2373 43.5835 22.068 43.5419 21.8961H43.4706C43.429 22.068 43.3815 22.2373 43.328 22.4039C43.2805 22.5705 43.221 22.7478 43.1497 22.9359L39.7892 31.746H37.8906ZM40.1012 28.812L40.5915 27.4417H46.4835L46.9737 28.812H40.1012Z" fill="white"/>
<path d="M50.5303 31.746V20.0099H54.9158C56.3123 20.0099 57.379 20.3404 58.1159 21.0014C58.8587 21.657 59.2301 22.5382 59.2301 23.6452C59.2301 24.7522 58.8617 25.6389 58.1248 26.3052C57.3879 26.9715 56.3153 27.3047 54.9069 27.3047H52.4824V31.746H50.5303ZM52.4824 25.9183H54.7821C55.7092 25.9183 56.3539 25.7033 56.7164 25.2734C57.0849 24.8382 57.2691 24.2981 57.2691 23.6533C57.2691 23.0084 57.0849 22.4738 56.7164 22.0492C56.3539 21.6247 55.7092 21.4125 54.7821 21.4125H52.4824V25.9183Z" fill="white"/>
<path d="M61.0128 31.746V20.0099H62.9649V25.4669L68.1795 20.0099H70.399L62.9649 27.6432V31.746H61.0128ZM68.5093 31.746L63.785 25.7974L65.0329 24.5158L70.8714 31.746H68.5093Z" fill="white"/>
<path d="M76.1305 31.746V20.0099H83.8676V21.4366H78.0826V25.2412H83.1011V26.6437H78.0826V31.746H76.1305Z" fill="white"/>
<path d="M85.5167 31.746V23.5566H87.4242V31.746H85.5167ZM85.3117 20.9933C85.3117 20.7193 85.4097 20.4882 85.6058 20.3001C85.8079 20.1067 86.0961 20.0099 86.4705 20.0099C86.8448 20.0099 87.1301 20.1067 87.3262 20.3001C87.5223 20.4882 87.6203 20.7193 87.6203 20.9933C87.6203 21.2727 87.5193 21.5092 87.3173 21.7026C87.1212 21.8907 86.8359 21.9848 86.4615 21.9848C86.0931 21.9848 85.8079 21.8907 85.6058 21.7026C85.4097 21.5092 85.3117 21.2727 85.3117 20.9933Z" fill="white"/>
<path d="M89.8844 31.746V19.5505H91.783V31.746H89.8844Z" fill="white"/>
<path d="M93.6638 27.7803V27.5223C93.6638 26.2756 94.0531 25.2654 94.8315 24.4916C95.61 23.7178 96.6291 23.3309 97.8889 23.3309C99.1547 23.3309 100.132 23.6936 100.822 24.419C101.517 25.1391 101.864 26.1279 101.864 27.3853V28.0221H94.8315V26.8211H99.9748V26.6679C99.9748 26.1198 99.8024 25.6496 99.4578 25.2573C99.1131 24.8597 98.602 24.6608 97.9246 24.6608C97.1402 24.6608 96.5519 24.9242 96.1597 25.4508C95.7675 25.9774 95.5714 26.6464 95.5714 27.4578V27.8044C95.5714 28.632 95.7794 29.3118 96.1953 29.8438C96.6172 30.3704 97.2501 30.6337 98.094 30.6337C98.6407 30.6337 99.1101 30.5235 99.5023 30.3032C99.8945 30.0829 100.209 29.8169 100.447 29.5052L101.766 30.3032C101.487 30.7438 101.035 31.1334 100.412 31.472C99.7876 31.8051 99.021 31.9717 98.1118 31.9717C96.6915 31.9717 95.5951 31.5875 94.8226 30.8191C94.0501 30.0453 93.6638 29.0323 93.6638 27.7803Z" fill="white"/>
</g>
<defs>
<clipPath id="clip0_4423_29430">
<rect width="132" height="40" fill="white"/>
</clipPath>
</defs>
</svg>
