<svg width="200" height="200" viewBox="0 0 200 200" fill="none" xmlns="http://www.w3.org/2000/svg">
<rect width="200" height="200" rx="16" fill="#333333"/>
<path d="M84.1143 26C96.8129 26.0123 107.097 36.317 107.085 49.0156C107.08 53.8938 105.557 58.4161 102.962 62.1348C101.917 63.6322 102.897 66.0057 104.723 66.0078L128.062 66.0303C131.375 66.0336 134.058 68.7216 134.055 72.0342L134.032 95.3731C134.03 97.1991 136.403 98.1836 137.902 97.1416C141.626 94.5542 146.151 93.0392 151.029 93.044C163.728 93.0563 174.012 103.361 174 116.06C173.988 128.758 163.683 139.043 150.984 139.03C146.106 139.025 141.584 137.502 137.865 134.907C136.368 133.863 133.994 134.842 133.992 136.668L133.97 160.008C133.966 163.32 131.278 166.003 127.966 166L39.9922 165.915C36.6798 165.912 33.997 163.224 34 159.911L34.0225 136.571C34.0244 134.745 36.399 133.766 37.8965 134.811C41.6152 137.405 46.1374 138.929 51.0156 138.934C63.7141 138.946 74.018 128.661 74.0303 115.963C74.0426 103.264 63.7582 92.9595 51.0596 92.9473C46.1814 92.9426 41.6564 94.4575 37.9326 97.0449C36.4331 98.0869 34.0607 97.1024 34.0625 95.2764L34.085 71.9375C34.0882 68.625 36.7764 65.9423 40.0889 65.9453L63.4287 65.9678C65.2546 65.9693 66.2392 63.5972 65.1973 62.0977C62.6097 58.3739 61.0949 53.8491 61.0996 48.9707C61.1119 36.2721 71.4157 25.9878 84.1143 26Z" fill="#555555"/>
</svg>
