<svg width="232" height="272" viewBox="0 0 232 272" fill="none" xmlns="http://www.w3.org/2000/svg">
<rect y="-3.05176e-05" width="232" height="272" rx="16" fill="#333333"/>
<path d="M102.421 49.7023C116.938 49.7164 128.695 61.4963 128.681 76.0134C128.676 81.5904 126.934 86.7599 123.967 91.0113C122.773 92.7233 123.893 95.4374 125.981 95.4394L152.662 95.4652C156.449 95.4689 159.516 98.5419 159.513 102.329L159.487 129.01C159.485 131.098 162.197 132.224 163.911 131.032C168.168 128.074 173.341 126.342 178.918 126.348C193.435 126.362 205.192 138.142 205.178 152.659C205.164 167.176 193.384 178.933 178.867 178.919C173.29 178.914 168.121 177.172 163.869 174.205C162.157 173.011 159.443 174.131 159.441 176.219L159.415 202.9C159.412 206.687 156.339 209.755 152.552 209.751L51.9803 209.654C48.1932 209.65 45.1261 206.577 45.1298 202.79L45.1556 176.108C45.1576 174.021 47.8717 172.9 49.5837 174.095C53.835 177.061 59.0046 178.803 64.5815 178.809C79.0987 178.823 90.8786 167.066 90.8926 152.548C90.9067 138.031 79.1495 126.251 64.6324 126.237C59.0554 126.232 53.8825 127.964 49.6254 130.922C47.9111 132.113 45.1992 130.987 45.2012 128.9L45.227 102.218C45.2307 98.4314 48.3037 95.3643 52.0908 95.368L78.7723 95.3938C80.8599 95.3958 81.9855 92.6838 80.7942 90.9695C77.836 86.7125 76.1041 81.5396 76.1095 75.9626C76.1236 61.4454 87.9034 49.6883 102.421 49.7023Z" fill="#555555"/>
</svg>
