<svg width="232" height="232" viewBox="0 0 232 232" fill="none" xmlns="http://www.w3.org/2000/svg">
<rect width="232" height="232" rx="16" fill="#333333"/>
<path d="M102.422 28.7021C116.939 28.7161 128.696 40.496 128.682 55.0132C128.677 60.5902 126.935 65.7597 123.968 70.011C122.774 71.723 123.894 74.4371 125.982 74.4392L152.663 74.465C156.45 74.4686 159.517 77.5416 159.514 81.3287L159.488 108.01C159.486 110.098 162.198 111.223 163.912 110.032C168.169 107.074 173.342 105.342 178.919 105.347C193.436 105.362 205.193 117.141 205.179 131.659C205.165 146.176 193.385 157.933 178.868 157.919C173.291 157.913 168.122 156.172 163.87 153.205C162.158 152.011 159.444 153.131 159.442 155.219L159.416 181.9C159.413 185.687 156.34 188.754 152.553 188.751L51.9813 188.653C48.1942 188.65 45.1271 185.577 45.1308 181.79L45.1565 155.108C45.1586 153.021 47.8727 151.9 49.5847 153.095C53.836 156.061 59.0056 157.803 64.5825 157.808C79.0997 157.822 90.8796 146.065 90.8936 131.548C90.9077 117.031 79.1505 105.251 64.6333 105.237C59.0564 105.232 53.8835 106.963 49.6264 109.922C47.9121 111.113 45.2002 109.987 45.2022 107.9L45.228 81.2183C45.2316 77.4312 48.3046 74.3641 52.0917 74.3677L78.7733 74.3935C80.8608 74.3955 81.9864 71.6836 80.7952 69.9693C77.837 65.7122 76.1051 60.5393 76.1105 54.9624C76.1245 40.4452 87.9044 28.6881 102.422 28.7021Z" fill="#555555"/>
</svg>
