<svg width="277" height="63" viewBox="0 0 277 63" fill="none" xmlns="http://www.w3.org/2000/svg">
<path d="M39.3438 16.12H55.3438V0.12H39.3438V16.12ZM61.6735 9.16C61.6735 12.232 63.0015 13.432 65.1775 13.432C67.3535 13.432 68.6975 12.232 68.6975 9.16C68.6975 6.072 67.3535 4.888 65.1775 4.888C63.0015 4.888 61.6735 6.072 61.6735 9.16ZM59.6255 9.16C59.6255 5.176 61.4975 3.096 65.1775 3.096C68.8575 3.096 70.7295 5.176 70.7295 9.16C70.7295 13.128 68.8575 15.224 65.1775 15.224C61.4975 15.224 59.6255 13.128 59.6255 9.16ZM75.1979 15.224C73.5339 15.224 72.5099 14.52 72.3179 12.952C72.2539 12.52 72.2379 12.152 72.2379 11.464V6.6H74.1739V11.512C74.1739 12.744 74.5099 13.56 75.8859 13.56C77.0219 13.56 77.8379 12.792 77.8379 11.096V6.6H79.7739V15H77.9979L77.9339 13.736C77.5499 14.856 76.6219 15.224 75.1979 15.224ZM85.9813 6.376C86.2533 6.376 86.4453 6.376 86.6213 6.424V8.04C84.6693 7.848 83.7253 8.824 83.7253 11.336V15H81.7893V6.6H83.5653L83.6453 8.136C83.7893 6.936 84.7333 6.376 85.9813 6.376ZM99.5895 3.32V5.08H93.6055V8.232H99.2535V9.992H93.6055V13.24H99.7175V15H91.6215V3.32H99.5895ZM103.756 12.2C103.756 13.496 104.028 13.592 105.58 13.496V15.08C105.1 15.144 104.684 15.176 104.028 15.176C102.46 15.176 101.932 14.536 101.852 13.512C101.82 13.064 101.82 12.728 101.82 12.248V8.232H100.636V6.632H101.82V4.136H103.756V6.632H105.644V8.232H103.756V12.2ZM110.657 6.376C113.377 6.376 114.497 8.2 114.497 10.664C114.497 10.888 114.481 11.192 114.465 11.448H108.609C108.753 13 109.441 13.56 110.657 13.56C111.633 13.56 112.209 13.192 112.433 12.504H114.353C114.033 14.232 112.705 15.224 110.593 15.224C107.953 15.224 106.593 13.72 106.593 10.84C106.593 8.056 107.889 6.376 110.657 6.376ZM108.625 9.928H112.497C112.353 8.568 111.649 8.04 110.577 8.04C109.441 8.04 108.769 8.52 108.625 9.928ZM120.419 6.376C120.691 6.376 120.883 6.376 121.059 6.424V8.04C119.107 7.848 118.163 8.824 118.163 11.336V15H116.227V6.6H118.003L118.083 8.136C118.227 6.936 119.171 6.376 120.419 6.376ZM126.708 6.376C128.452 6.376 129.476 7.064 129.684 8.632C129.732 9.064 129.748 9.448 129.748 10.136V15H127.812V10.136C127.812 8.888 127.508 8.072 126.068 8.072C124.932 8.024 124.116 8.808 124.116 10.552V15H122.18V6.6H123.956L124.036 7.944C124.276 6.728 125.316 6.376 126.708 6.376ZM134.979 6.376C137.331 6.376 138.259 7.432 138.371 8.904C138.403 9.336 138.419 9.704 138.419 10.184V15H136.659L136.563 13.928C136.099 15.032 135.011 15.224 133.811 15.224C132.339 15.224 131.107 14.344 131.107 12.728C131.107 10.552 132.787 9.816 136.099 9.816H136.483V9.56C136.483 8.648 136.211 8.04 134.899 8.04C133.779 8.04 133.267 8.408 133.155 9.288H131.395C131.459 7.528 132.467 6.376 134.979 6.376ZM133.059 12.488C133.059 13.176 133.603 13.56 134.435 13.56C135.459 13.56 136.483 13 136.483 12.088V11.352C134.387 11.272 133.059 11.432 133.059 12.488ZM142.161 12.52C142.161 13.624 142.321 13.752 143.233 13.656V15.032C142.929 15.08 142.369 15.128 142.017 15.128C140.769 15.128 140.305 14.648 140.257 13.576C140.225 13.192 140.225 12.856 140.225 12.248V3.32H142.161V12.52ZM149.924 9.128C149.924 12.232 151.236 13.432 153.476 13.432C154.916 13.432 156.532 12.52 156.532 10.52V10.328H153.396V8.568H158.516V15H156.932L156.74 13.016C156.692 13.544 156.58 13.784 156.42 13.992C155.748 14.856 154.388 15.224 153.092 15.224C149.78 15.224 147.876 13.24 147.876 9.192C147.876 5.656 149.539 3.096 153.396 3.096C156.74 3.096 158.18 4.68 158.5 6.92H156.5C156.227 5.688 155.284 4.888 153.364 4.888C151.14 4.888 149.924 6.312 149.924 9.128ZM164.7 6.376C164.972 6.376 165.164 6.376 165.34 6.424V8.04C163.388 7.848 162.444 8.824 162.444 11.336V15H160.508V6.6H162.284L162.364 8.136C162.508 6.936 163.452 6.376 164.7 6.376ZM169.729 6.376C172.081 6.376 173.009 7.432 173.121 8.904C173.153 9.336 173.169 9.704 173.169 10.184V15H171.409L171.313 13.928C170.849 15.032 169.761 15.224 168.561 15.224C167.089 15.224 165.857 14.344 165.857 12.728C165.857 10.552 167.537 9.816 170.849 9.816H171.233V9.56C171.233 8.648 170.961 8.04 169.649 8.04C168.529 8.04 168.017 8.408 167.905 9.288H166.145C166.209 7.528 167.217 6.376 169.729 6.376ZM167.809 12.488C167.809 13.176 168.353 13.56 169.185 13.56C170.209 13.56 171.233 13 171.233 12.088V11.352C169.137 11.272 167.809 11.432 167.809 12.488ZM177.6 12.2C177.6 13.496 177.872 13.592 179.424 13.496V15.08C178.944 15.144 178.528 15.176 177.872 15.176C176.304 15.176 175.776 14.536 175.696 13.512C175.664 13.064 175.664 12.728 175.664 12.248V8.232H174.48V6.632H175.664V4.136H177.6V6.632H179.488V8.232H177.6V12.2ZM182.819 6.6V15H180.883V6.6H182.819ZM180.755 4.04C180.755 3.432 181.235 2.936 181.843 2.936C182.451 2.936 182.947 3.432 182.947 4.04C182.947 4.648 182.451 5.128 181.843 5.128C181.235 5.128 180.755 4.648 180.755 4.04ZM187.397 12.2C187.397 13.496 187.669 13.592 189.221 13.496V15.08C188.741 15.144 188.325 15.176 187.669 15.176C186.101 15.176 185.573 14.536 185.493 13.512C185.461 13.064 185.461 12.728 185.461 12.248V8.232H184.277V6.632H185.461V4.136H187.397V6.632H189.285V8.232H187.397V12.2ZM193.51 15.224C191.846 15.224 190.822 14.52 190.63 12.952C190.566 12.52 190.55 12.152 190.55 11.464V6.6H192.486V11.512C192.486 12.744 192.822 13.56 194.198 13.56C195.334 13.56 196.15 12.792 196.15 11.096V6.6H198.086V15H196.31L196.246 13.736C195.862 14.856 194.934 15.224 193.51 15.224ZM207.945 3.32V15H206.169L206.057 13.64C205.657 14.92 204.537 15.224 203.257 15.224C200.713 15.224 199.593 13.496 199.593 10.824C199.593 7.944 200.969 6.376 203.385 6.376C204.473 6.376 205.513 6.632 206.009 7.624V3.32H207.945ZM201.705 10.84C201.705 12.408 202.329 13.56 203.865 13.56C205.097 13.56 206.009 12.872 206.009 10.856V10.6C206.009 8.616 204.937 8.04 203.913 8.04C202.425 8.04 201.705 9.08 201.705 10.84ZM213.501 6.376C216.221 6.376 217.341 8.2 217.341 10.664C217.341 10.888 217.325 11.192 217.309 11.448H211.453C211.597 13 212.285 13.56 213.501 13.56C214.477 13.56 215.053 13.192 215.277 12.504H217.197C216.877 14.232 215.549 15.224 213.437 15.224C210.797 15.224 209.437 13.72 209.437 10.84C209.437 8.056 210.733 6.376 213.501 6.376ZM211.469 9.928H215.341C215.197 8.568 214.493 8.04 213.421 8.04C212.285 8.04 211.613 8.52 211.469 9.928ZM221.656 16.12H237.656V0.12H221.656V16.12Z" fill="white"/>
<path d="M14.122 26.05L11.407 37H9.57699L8.19699 31.66C7.83699 30.31 7.58199 28.945 7.32699 27.58C7.04199 28.945 6.75699 30.31 6.39699 31.66L4.91199 37H3.05199L0.501992 26.05H2.04699L3.12699 31.06C3.48699 32.68 3.77199 34.27 4.04199 35.86C4.37199 34.255 4.74699 32.68 5.19699 31.06L6.57699 26.2H8.12199L9.42699 31.06C9.86199 32.65 10.222 34.195 10.552 35.77C10.822 34.195 11.137 32.635 11.512 31.06L12.697 26.05H14.122ZM17.9696 28.975C20.3696 28.975 21.4046 30.625 21.4046 32.95C21.4046 33.115 21.4046 33.34 21.3896 33.565H15.7946C15.9146 35.335 16.6646 35.995 17.9696 35.995C19.0046 35.995 19.6796 35.545 19.9046 34.69H21.2996C20.9996 36.295 19.7996 37.21 17.9246 37.21C15.5546 37.21 14.3396 35.8 14.3396 33.115C14.3396 30.445 15.5546 28.975 17.9696 28.975ZM15.8096 32.44H19.9646C19.8596 30.805 19.0496 30.205 17.9096 30.205C16.6946 30.205 15.9296 30.775 15.8096 32.44ZM24.1213 25.945V26.32L23.2963 30.46H22.1113L22.8613 25.945H24.1213ZM26.8309 34.96C26.8309 36.01 26.9809 36.1 27.8359 36.01V37.03C27.5809 37.075 27.1609 37.105 26.8759 37.105C25.8709 37.105 25.4959 36.715 25.4509 35.83C25.4209 35.485 25.4209 35.185 25.4209 34.615V26.05H26.8309V34.96ZM30.5516 34.96C30.5516 36.01 30.7016 36.1 31.5566 36.01V37.03C31.3016 37.075 30.8816 37.105 30.5966 37.105C29.5916 37.105 29.2166 36.715 29.1716 35.83C29.1416 35.485 29.1416 35.185 29.1416 34.615V26.05H30.5516V34.96ZM40.0735 28.975C41.6785 28.975 42.6535 29.605 42.8335 31.09C42.8785 31.495 42.8935 31.825 42.8935 32.47V37H41.4835V32.41C41.4835 31.09 41.1985 30.22 39.6385 30.22C38.4835 30.19 37.6135 31 37.6135 32.755V37H36.2035V29.185H37.5085L37.5535 30.58C37.8085 29.41 38.8135 28.975 40.0735 28.975ZM47.9696 28.975C50.3696 28.975 51.4046 30.625 51.4046 32.95C51.4046 33.115 51.4046 33.34 51.3896 33.565H45.7946C45.9146 35.335 46.6646 35.995 47.9696 35.995C49.0046 35.995 49.6796 35.545 49.9046 34.69H51.2996C50.9996 36.295 49.7996 37.21 47.9246 37.21C45.5546 37.21 44.3396 35.8 44.3396 33.115C44.3396 30.445 45.5546 28.975 47.9696 28.975ZM45.8096 32.44H49.9646C49.8596 30.805 49.0496 30.205 47.9096 30.205C46.6946 30.205 45.9296 30.775 45.8096 32.44ZM59.9105 29.185L56.7155 37H55.1105L51.8705 29.185H53.4755L55.9505 35.755L58.3955 29.185H59.9105ZM64.0096 28.975C66.4096 28.975 67.4446 30.625 67.4446 32.95C67.4446 33.115 67.4446 33.34 67.4296 33.565H61.8346C61.9546 35.335 62.7046 35.995 64.0096 35.995C65.0446 35.995 65.7196 35.545 65.9446 34.69H67.3396C67.0396 36.295 65.8396 37.21 63.9646 37.21C61.5946 37.21 60.3796 35.8 60.3796 33.115C60.3796 30.445 61.5946 28.975 64.0096 28.975ZM61.8496 32.44H66.0046C65.8996 30.805 65.0896 30.205 63.9496 30.205C62.7346 30.205 61.9696 30.775 61.8496 32.44ZM72.6875 28.975C72.8975 28.975 73.0625 28.975 73.2125 29.02V30.205C71.4875 30.04 70.5725 30.97 70.5725 33.34V37H69.1625V29.185H70.4675L70.5125 30.7C70.6775 29.515 71.5775 28.975 72.6875 28.975ZM80.3115 25.84C80.6865 25.84 80.9415 25.855 81.2565 25.915V27.1C79.7865 26.89 79.4415 27.415 79.4415 28.33V29.23H81.0915V30.4H79.4415V37H78.0315V30.4H77.1165V29.23H78.0315V28.48C78.0315 28.255 78.0315 28.075 78.0465 27.79C78.1215 26.605 78.8265 25.84 80.3115 25.84ZM83.2657 33.085C83.2657 35.185 84.1207 35.995 85.5607 35.995C87.0007 35.995 87.8557 35.185 87.8557 33.085C87.8557 31 87.0007 30.205 85.5607 30.205C84.1207 30.205 83.2657 31 83.2657 33.085ZM81.7957 33.085C81.7957 30.295 83.1907 28.975 85.5607 28.975C87.9307 28.975 89.3407 30.295 89.3407 33.085C89.3407 35.89 87.9307 37.21 85.5607 37.21C83.1907 37.21 81.7957 35.89 81.7957 33.085ZM94.2793 28.975C94.4893 28.975 94.6543 28.975 94.8043 29.02V30.205C93.0793 30.04 92.1643 30.97 92.1643 33.34V37H90.7543V29.185H92.0593L92.1043 30.7C92.2693 29.515 93.1693 28.975 94.2793 28.975ZM102.638 34.87C102.638 35.845 102.638 36.355 102.623 36.835C102.548 38.935 101.288 40.06 99.0226 40.06C97.2076 40.06 95.6926 39.595 95.5276 37.435H96.9226C97.1176 38.575 97.9276 38.845 99.0226 38.845C100.598 38.845 101.228 37.93 101.228 36.7V35.215C101.018 36.445 100.148 36.94 98.6926 36.94C96.3676 36.94 95.3176 35.335 95.3176 32.965C95.3176 30.43 96.5776 28.975 98.7826 28.975C100.103 28.975 100.988 29.365 101.288 30.43L101.333 29.185H102.638V34.87ZM96.8476 32.965C96.8476 34.495 97.4476 35.71 98.9926 35.71C100.268 35.71 101.228 35.02 101.228 33.1V32.68C101.228 30.79 100.088 30.205 99.0376 30.205C97.5826 30.205 96.8476 31.285 96.8476 32.965ZM107.706 28.975C110.106 28.975 111.141 30.625 111.141 32.95C111.141 33.115 111.141 33.34 111.126 33.565H105.531C105.651 35.335 106.401 35.995 107.706 35.995C108.741 35.995 109.416 35.545 109.641 34.69H111.036C110.736 36.295 109.536 37.21 107.661 37.21C105.291 37.21 104.076 35.8 104.076 33.115C104.076 30.445 105.291 28.975 107.706 28.975ZM105.546 32.44H109.701C109.596 30.805 108.786 30.205 107.646 30.205C106.431 30.205 105.666 30.775 105.546 32.44ZM114.5 34.675C114.5 35.89 114.755 36.01 116.24 35.905V37.075C115.865 37.12 115.49 37.15 114.995 37.15C113.675 37.15 113.195 36.595 113.135 35.71C113.105 35.305 113.105 35.005 113.105 34.555V30.4H112.04V29.23H113.105V26.845H114.5V29.23H116.27V30.4H114.5V34.675ZM122.011 33.085C122.011 35.185 122.866 35.995 124.306 35.995C125.746 35.995 126.601 35.185 126.601 33.085C126.601 31 125.746 30.205 124.306 30.205C122.866 30.205 122.011 31 122.011 33.085ZM120.541 33.085C120.541 30.295 121.936 28.975 124.306 28.975C126.676 28.975 128.086 30.295 128.086 33.085C128.086 35.89 126.676 37.21 124.306 37.21C121.936 37.21 120.541 35.89 120.541 33.085ZM132.197 37.21C130.667 37.21 129.692 36.565 129.527 35.08C129.467 34.675 129.452 34.36 129.452 33.715V29.185H130.862V33.805C130.862 35.11 131.177 35.995 132.662 35.995C133.832 35.995 134.702 35.185 134.702 33.46V29.185H136.112V37H134.822L134.762 35.665C134.432 36.76 133.502 37.21 132.197 37.21ZM141.594 28.975C141.804 28.975 141.969 28.975 142.119 29.02V30.205C140.394 30.04 139.479 30.97 139.479 33.34V37H138.069V29.185H139.374L139.419 30.7C139.584 29.515 140.484 28.975 141.594 28.975ZM148.063 26.05V30.49C148.453 29.35 149.503 28.975 150.733 28.975C153.073 28.975 154.123 30.61 154.123 33.085C154.123 35.71 152.848 37.21 150.628 37.21C149.458 37.21 148.378 36.835 148.003 35.68L147.958 37H146.653V26.05H148.063ZM148.063 33.34C148.063 35.395 149.203 35.995 150.268 35.995C151.813 35.995 152.593 34.87 152.593 33.07C152.593 31.45 151.948 30.205 150.313 30.205C149.038 30.205 148.063 30.91 148.063 32.98V33.34ZM156.984 29.185V37H155.574V29.185H156.984ZM155.424 26.875C155.424 26.395 155.799 26.02 156.264 26.02C156.744 26.02 157.119 26.395 157.119 26.875C157.119 27.34 156.744 27.715 156.264 27.715C155.799 27.715 155.424 27.34 155.424 26.875ZM165.684 34.87C165.684 35.845 165.684 36.355 165.669 36.835C165.594 38.935 164.334 40.06 162.069 40.06C160.254 40.06 158.739 39.595 158.574 37.435H159.969C160.164 38.575 160.974 38.845 162.069 38.845C163.644 38.845 164.274 37.93 164.274 36.7V35.215C164.064 36.445 163.194 36.94 161.739 36.94C159.414 36.94 158.364 35.335 158.364 32.965C158.364 30.43 159.624 28.975 161.829 28.975C163.149 28.975 164.034 29.365 164.334 30.43L164.379 29.185H165.684V34.87ZM159.894 32.965C159.894 34.495 160.494 35.71 162.039 35.71C163.314 35.71 164.274 35.02 164.274 33.1V32.68C164.274 30.79 163.134 30.205 162.084 30.205C160.629 30.205 159.894 31.285 159.894 32.965ZM174.503 34.87C174.503 35.845 174.503 36.355 174.488 36.835C174.413 38.935 173.153 40.06 170.888 40.06C169.073 40.06 167.558 39.595 167.393 37.435H168.788C168.983 38.575 169.793 38.845 170.888 38.845C172.463 38.845 173.093 37.93 173.093 36.7V35.215C172.883 36.445 172.013 36.94 170.558 36.94C168.233 36.94 167.183 35.335 167.183 32.965C167.183 30.43 168.443 28.975 170.648 28.975C171.968 28.975 172.853 29.365 173.153 30.43L173.198 29.185H174.503V34.87ZM168.713 32.965C168.713 34.495 169.313 35.71 170.858 35.71C172.133 35.71 173.093 35.02 173.093 33.1V32.68C173.093 30.79 171.953 30.205 170.903 30.205C169.448 30.205 168.713 31.285 168.713 32.965ZM179.571 28.975C181.971 28.975 183.006 30.625 183.006 32.95C183.006 33.115 183.006 33.34 182.991 33.565H177.396C177.516 35.335 178.266 35.995 179.571 35.995C180.606 35.995 181.281 35.545 181.506 34.69H182.901C182.601 36.295 181.401 37.21 179.526 37.21C177.156 37.21 175.941 35.8 175.941 33.115C175.941 30.445 177.156 28.975 179.571 28.975ZM177.411 32.44H181.566C181.461 30.805 180.651 30.205 179.511 30.205C178.296 30.205 177.531 30.775 177.411 32.44ZM187.439 28.975C189.449 28.975 190.454 29.785 190.544 31.48H189.149C189.029 30.49 188.384 30.175 187.409 30.175C186.569 30.175 185.879 30.52 185.879 31.195C185.879 31.9 186.434 32.245 187.769 32.44C189.824 32.74 190.739 33.43 190.739 34.885C190.739 36.385 189.419 37.21 187.634 37.21C185.549 37.21 184.424 36.475 184.214 34.675H185.609C185.804 35.68 186.389 36.01 187.679 36.01C188.669 36.01 189.314 35.65 189.314 34.99C189.314 34.27 188.759 33.88 187.229 33.655C185.384 33.37 184.454 32.77 184.454 31.27C184.454 29.92 185.639 28.975 187.439 28.975ZM194.085 34.675C194.085 35.89 194.34 36.01 195.825 35.905V37.075C195.45 37.12 195.075 37.15 194.58 37.15C193.26 37.15 192.78 36.595 192.72 35.71C192.69 35.305 192.69 35.005 192.69 34.555V30.4H191.625V29.23H192.69V26.845H194.085V29.23H195.855V30.4H194.085V34.675ZM203.201 28.975C205.211 28.975 206.216 29.785 206.306 31.48H204.911C204.791 30.49 204.146 30.175 203.171 30.175C202.331 30.175 201.641 30.52 201.641 31.195C201.641 31.9 202.196 32.245 203.531 32.44C205.586 32.74 206.501 33.43 206.501 34.885C206.501 36.385 205.181 37.21 203.396 37.21C201.311 37.21 200.186 36.475 199.976 34.675H201.371C201.566 35.68 202.151 36.01 203.441 36.01C204.431 36.01 205.076 35.65 205.076 34.99C205.076 34.27 204.521 33.88 202.991 33.655C201.146 33.37 200.216 32.77 200.216 31.27C200.216 29.92 201.401 28.975 203.201 28.975ZM210.551 37.21C209.021 37.21 208.046 36.565 207.881 35.08C207.821 34.675 207.806 34.36 207.806 33.715V29.185H209.216V33.805C209.216 35.11 209.531 35.995 211.016 35.995C212.186 35.995 213.056 35.185 213.056 33.46V29.185H214.466V37H213.176L213.116 35.665C212.786 36.76 211.856 37.21 210.551 37.21ZM217.833 39.85H216.423V29.185H217.728L217.788 30.625C218.148 29.38 219.228 28.975 220.503 28.975C222.843 28.975 223.893 30.61 223.893 33.085C223.893 35.71 222.618 37.21 220.398 37.21C219.288 37.21 218.268 36.88 217.833 35.845V39.85ZM217.833 33.34C217.833 35.395 218.973 35.995 220.038 35.995C221.583 35.995 222.363 34.87 222.363 33.07C222.363 31.45 221.718 30.205 220.083 30.205C218.808 30.205 217.833 30.91 217.833 32.98V33.34ZM226.739 39.85H225.329V29.185H226.634L226.694 30.625C227.054 29.38 228.134 28.975 229.409 28.975C231.749 28.975 232.799 30.61 232.799 33.085C232.799 35.71 231.524 37.21 229.304 37.21C228.194 37.21 227.174 36.88 226.739 35.845V39.85ZM226.739 33.34C226.739 35.395 227.879 35.995 228.944 35.995C230.489 35.995 231.269 34.87 231.269 33.07C231.269 31.45 230.624 30.205 228.989 30.205C227.714 30.205 226.739 30.91 226.739 32.98V33.34ZM235.478 33.085C235.478 35.185 236.333 35.995 237.773 35.995C239.213 35.995 240.068 35.185 240.068 33.085C240.068 31 239.213 30.205 237.773 30.205C236.333 30.205 235.478 31 235.478 33.085ZM234.008 33.085C234.008 30.295 235.403 28.975 237.773 28.975C240.143 28.975 241.553 30.295 241.553 33.085C241.553 35.89 240.143 37.21 237.773 37.21C235.403 37.21 234.008 35.89 234.008 33.085ZM246.491 28.975C246.701 28.975 246.866 28.975 247.016 29.02V30.205C245.291 30.04 244.376 30.97 244.376 33.34V37H242.966V29.185H244.271L244.316 30.7C244.481 29.515 245.381 28.975 246.491 28.975ZM250.321 34.675C250.321 35.89 250.576 36.01 252.061 35.905V37.075C251.686 37.12 251.311 37.15 250.816 37.15C249.496 37.15 249.016 36.595 248.956 35.71C248.926 35.305 248.926 35.005 248.926 34.555V30.4H247.861V29.23H248.926V26.845H250.321V29.23H252.091V30.4H250.321V34.675ZM256.651 28.975C259.051 28.975 260.086 30.625 260.086 32.95C260.086 33.115 260.086 33.34 260.071 33.565H254.476C254.596 35.335 255.346 35.995 256.651 35.995C257.686 35.995 258.361 35.545 258.586 34.69H259.981C259.681 36.295 258.481 37.21 256.606 37.21C254.236 37.21 253.021 35.8 253.021 33.115C253.021 30.445 254.236 28.975 256.651 28.975ZM254.491 32.44H258.646C258.541 30.805 257.731 30.205 256.591 30.205C255.376 30.205 254.611 30.775 254.491 32.44ZM265.329 28.975C265.539 28.975 265.704 28.975 265.854 29.02V30.205C264.129 30.04 263.214 30.97 263.214 33.34V37H261.804V29.185H263.109L263.154 30.7C263.319 29.515 264.219 28.975 265.329 28.975ZM269.69 28.975C271.7 28.975 272.705 29.785 272.795 31.48H271.4C271.28 30.49 270.635 30.175 269.66 30.175C268.82 30.175 268.13 30.52 268.13 31.195C268.13 31.9 268.685 32.245 270.02 32.44C272.075 32.74 272.99 33.43 272.99 34.885C272.99 36.385 271.67 37.21 269.885 37.21C267.8 37.21 266.675 36.475 266.465 34.675H267.86C268.055 35.68 268.64 36.01 269.93 36.01C270.92 36.01 271.565 35.65 271.565 34.99C271.565 34.27 271.01 33.88 269.48 33.655C267.635 33.37 266.705 32.77 266.705 31.27C266.705 29.92 267.89 28.975 269.69 28.975ZM275.119 37.21C274.549 37.21 274.099 36.745 274.099 36.175C274.099 35.62 274.549 35.155 275.119 35.155C275.689 35.155 276.154 35.62 276.154 36.175C276.154 36.745 275.689 37.21 275.119 37.21ZM10.6476 48.05C11.2326 48.05 11.7126 48.065 12.2526 48.125C13.7076 48.305 15.0426 49.1 15.0426 51.2C15.0426 53.42 13.7076 54.335 12.2526 54.515C11.7126 54.575 11.2326 54.59 10.6476 54.59H8.60756V59H7.16756V48.05H10.6476ZM8.60756 53.3H10.7226C12.3126 53.3 13.5576 53.075 13.5576 51.29C13.5576 49.67 12.4026 49.34 10.7226 49.34H8.60756V53.3ZM19.6029 50.975C22.0029 50.975 23.0379 52.625 23.0379 54.95C23.0379 55.115 23.0379 55.34 23.0229 55.565H17.4279C17.5479 57.335 18.2979 57.995 19.6029 57.995C20.6379 57.995 21.3129 57.545 21.5379 56.69H22.9329C22.6329 58.295 21.4329 59.21 19.5579 59.21C17.1879 59.21 15.9729 57.8 15.9729 55.115C15.9729 52.445 17.1879 50.975 19.6029 50.975ZM17.4429 54.44H21.5979C21.4929 52.805 20.6829 52.205 19.5429 52.205C18.3279 52.205 17.5629 52.775 17.4429 54.44ZM25.8072 55.085C25.8072 57.185 26.6622 57.995 28.1022 57.995C29.5422 57.995 30.3972 57.185 30.3972 55.085C30.3972 53 29.5422 52.205 28.1022 52.205C26.6622 52.205 25.8072 53 25.8072 55.085ZM24.3372 55.085C24.3372 52.295 25.7322 50.975 28.1022 50.975C30.4722 50.975 31.8822 52.295 31.8822 55.085C31.8822 57.89 30.4722 59.21 28.1022 59.21C25.7322 59.21 24.3372 57.89 24.3372 55.085ZM34.7058 61.85H33.2958V51.185H34.6008L34.6608 52.625C35.0208 51.38 36.1008 50.975 37.3758 50.975C39.7158 50.975 40.7658 52.61 40.7658 55.085C40.7658 57.71 39.4908 59.21 37.2708 59.21C36.1608 59.21 35.1408 58.88 34.7058 57.845V61.85ZM34.7058 55.34C34.7058 57.395 35.8458 57.995 36.9108 57.995C38.4558 57.995 39.2358 56.87 39.2358 55.07C39.2358 53.45 38.5908 52.205 36.9558 52.205C35.6808 52.205 34.7058 52.91 34.7058 54.98V55.34ZM43.596 56.96C43.596 58.01 43.746 58.1 44.601 58.01V59.03C44.346 59.075 43.926 59.105 43.641 59.105C42.636 59.105 42.261 58.715 42.216 57.83C42.186 57.485 42.186 57.185 42.186 56.615V48.05H43.596V56.96ZM49.1049 50.975C51.5049 50.975 52.5399 52.625 52.5399 54.95C52.5399 55.115 52.5399 55.34 52.5249 55.565H46.9299C47.0499 57.335 47.7999 57.995 49.1049 57.995C50.1399 57.995 50.8149 57.545 51.0399 56.69H52.4349C52.1349 58.295 50.9349 59.21 49.0599 59.21C46.6899 59.21 45.4749 57.8 45.4749 55.115C45.4749 52.445 46.6899 50.975 49.1049 50.975ZM46.9449 54.44H51.0999C50.9949 52.805 50.1849 52.205 49.0449 52.205C47.8299 52.205 47.0649 52.775 46.9449 54.44ZM58.889 56.96C58.889 58.01 59.039 58.1 59.894 58.01V59.03C59.639 59.075 59.219 59.105 58.934 59.105C57.929 59.105 57.554 58.715 57.509 57.83C57.479 57.485 57.479 57.185 57.479 56.615V48.05H58.889V56.96ZM62.6697 51.185V59H61.2597V51.185H62.6697ZM61.1097 48.875C61.1097 48.395 61.4847 48.02 61.9497 48.02C62.4297 48.02 62.8047 48.395 62.8047 48.875C62.8047 49.34 62.4297 49.715 61.9497 49.715C61.4847 49.715 61.1097 49.34 61.1097 48.875ZM71.3045 51.185L68.3795 54.275L71.4545 59H69.7445L67.2845 55.145L66.0095 56.405V59H64.5995V48.05H66.0095V55.115L69.7295 51.185H71.3045ZM75.5013 50.975C77.9013 50.975 78.9363 52.625 78.9363 54.95C78.9363 55.115 78.9363 55.34 78.9213 55.565H73.3263C73.4463 57.335 74.1963 57.995 75.5013 57.995C76.5363 57.995 77.2113 57.545 77.4363 56.69H78.8313C78.5313 58.295 77.3313 59.21 75.4563 59.21C73.0863 59.21 71.8713 57.8 71.8713 55.115C71.8713 52.445 73.0863 50.975 75.5013 50.975ZM73.3413 54.44H77.4963C77.3913 52.805 76.5813 52.205 75.4413 52.205C74.2263 52.205 73.4613 52.775 73.3413 54.44ZM87.7004 59C86.6354 61.7 85.8854 62.15 84.3404 62.15C84.0554 62.15 83.8454 62.135 83.6054 62.075V60.89C83.8604 60.92 84.1304 60.935 84.4004 60.935C85.0454 60.935 85.5854 60.695 86.0054 59.645L86.1554 59.24L83.0204 51.185H84.6704L86.9354 57.8L89.3354 51.185H90.8354L87.7004 59ZM92.6919 55.085C92.6919 57.185 93.5469 57.995 94.9869 57.995C96.4269 57.995 97.2819 57.185 97.2819 55.085C97.2819 53 96.4269 52.205 94.9869 52.205C93.5469 52.205 92.6919 53 92.6919 55.085ZM91.2219 55.085C91.2219 52.295 92.6169 50.975 94.9869 50.975C97.3569 50.975 98.7669 52.295 98.7669 55.085C98.7669 57.89 97.3569 59.21 94.9869 59.21C92.6169 59.21 91.2219 57.89 91.2219 55.085ZM102.878 59.21C101.348 59.21 100.373 58.565 100.208 57.08C100.148 56.675 100.133 56.36 100.133 55.715V51.185H101.543V55.805C101.543 57.11 101.858 57.995 103.343 57.995C104.513 57.995 105.383 57.185 105.383 55.46V51.185H106.793V59H105.503L105.443 57.665C105.113 58.76 104.183 59.21 102.878 59.21ZM122.651 51.185L120.371 59H118.811C118.166 57.065 117.551 55.04 116.966 52.985C116.411 55.04 115.751 57.065 115.121 59H113.576L111.266 51.185H112.781C113.366 53.33 113.921 55.46 114.416 57.605C115.001 55.505 115.646 53.465 116.306 51.365H117.701C118.376 53.495 119.021 55.595 119.591 57.71C120.086 55.535 120.626 53.36 121.226 51.185H122.651ZM125.248 51.185V59H123.838V51.185H125.248ZM123.688 48.875C123.688 48.395 124.063 48.02 124.528 48.02C125.008 48.02 125.383 48.395 125.383 48.875C125.383 49.34 125.008 49.715 124.528 49.715C124.063 49.715 123.688 49.34 123.688 48.875ZM128.572 56.96C128.572 58.01 128.722 58.1 129.577 58.01V59.03C129.322 59.075 128.902 59.105 128.617 59.105C127.612 59.105 127.237 58.715 127.192 57.83C127.162 57.485 127.162 57.185 127.162 56.615V48.05H128.572V56.96ZM132.292 56.96C132.292 58.01 132.442 58.1 133.297 58.01V59.03C133.042 59.075 132.622 59.105 132.337 59.105C131.332 59.105 130.957 58.715 130.912 57.83C130.882 57.485 130.882 57.185 130.882 56.615V48.05H132.292V56.96ZM139.354 48.05V52.475C139.639 51.38 140.584 50.975 141.814 50.975C143.419 50.975 144.394 51.605 144.574 53.09C144.619 53.495 144.634 53.825 144.634 54.47V59H143.224V54.41C143.224 53.09 142.939 52.22 141.379 52.22C140.224 52.19 139.354 53 139.354 54.755V59H137.944V48.05H139.354ZM149.71 50.975C152.11 50.975 153.145 52.625 153.145 54.95C153.145 55.115 153.145 55.34 153.13 55.565H147.535C147.655 57.335 148.405 57.995 149.71 57.995C150.745 57.995 151.42 57.545 151.645 56.69H153.04C152.74 58.295 151.54 59.21 149.665 59.21C147.295 59.21 146.08 57.8 146.08 55.115C146.08 52.445 147.295 50.975 149.71 50.975ZM147.55 54.44H151.705C151.6 52.805 150.79 52.205 149.65 52.205C148.435 52.205 147.67 52.775 147.55 54.44ZM156.023 56.96C156.023 58.01 156.173 58.1 157.028 58.01V59.03C156.773 59.075 156.353 59.105 156.068 59.105C155.063 59.105 154.688 58.715 154.643 57.83C154.613 57.485 154.613 57.185 154.613 56.615V48.05H156.023V56.96ZM159.774 61.85H158.364V51.185H159.669L159.729 52.625C160.089 51.38 161.169 50.975 162.444 50.975C164.784 50.975 165.834 52.61 165.834 55.085C165.834 57.71 164.559 59.21 162.339 59.21C161.229 59.21 160.209 58.88 159.774 57.845V61.85ZM159.774 55.34C159.774 57.395 160.914 57.995 161.979 57.995C163.524 57.995 164.304 56.87 164.304 55.07C164.304 53.45 163.659 52.205 162.024 52.205C160.749 52.205 159.774 52.91 159.774 54.98V55.34ZM179.323 48.05V59H177.568L173.998 52.985C173.368 51.875 172.753 50.735 172.153 49.61C172.228 51.035 172.258 52.43 172.258 53.675V59H170.878V48.05H172.618L176.083 53.84C176.758 55.01 177.403 56.195 178.033 57.38C177.973 55.985 177.943 54.5 177.943 53.27V48.05H179.323ZM182.472 55.085C182.472 57.185 183.327 57.995 184.767 57.995C186.207 57.995 187.062 57.185 187.062 55.085C187.062 53 186.207 52.205 184.767 52.205C183.327 52.205 182.472 53 182.472 55.085ZM181.002 55.085C181.002 52.295 182.397 50.975 184.767 50.975C187.137 50.975 188.547 52.295 188.547 55.085C188.547 57.89 187.137 59.21 184.767 59.21C182.397 59.21 181.002 57.89 181.002 55.085ZM192.837 50.975C194.847 50.975 195.852 51.785 195.942 53.48H194.547C194.427 52.49 193.782 52.175 192.807 52.175C191.967 52.175 191.277 52.52 191.277 53.195C191.277 53.9 191.832 54.245 193.167 54.44C195.222 54.74 196.137 55.43 196.137 56.885C196.137 58.385 194.817 59.21 193.032 59.21C190.947 59.21 189.822 58.475 189.612 56.675H191.007C191.202 57.68 191.787 58.01 193.077 58.01C194.067 58.01 194.712 57.65 194.712 56.99C194.712 56.27 194.157 55.88 192.627 55.655C190.782 55.37 189.852 54.77 189.852 53.27C189.852 51.92 191.037 50.975 192.837 50.975ZM199.483 56.675C199.483 57.89 199.738 58.01 201.223 57.905V59.075C200.848 59.12 200.473 59.15 199.978 59.15C198.658 59.15 198.178 58.595 198.118 57.71C198.088 57.305 198.088 57.005 198.088 56.555V52.4H197.023V51.23H198.088V48.845H199.483V51.23H201.253V52.4H199.483V56.675ZM206.127 50.975C206.337 50.975 206.502 50.975 206.652 51.02V52.205C204.927 52.04 204.012 52.97 204.012 55.34V59H202.602V51.185H203.907L203.952 52.7C204.117 51.515 205.017 50.975 206.127 50.975ZM213.901 50.975C215.911 50.975 216.916 51.785 217.006 53.48H215.611C215.491 52.49 214.846 52.175 213.871 52.175C213.031 52.175 212.341 52.52 212.341 53.195C212.341 53.9 212.896 54.245 214.231 54.44C216.286 54.74 217.201 55.43 217.201 56.885C217.201 58.385 215.881 59.21 214.096 59.21C212.011 59.21 210.886 58.475 210.676 56.675H212.071C212.266 57.68 212.851 58.01 214.141 58.01C215.131 58.01 215.776 57.65 215.776 56.99C215.776 56.27 215.221 55.88 213.691 55.655C211.846 55.37 210.916 54.77 210.916 53.27C210.916 51.92 212.101 50.975 213.901 50.975ZM221.252 59.21C219.722 59.21 218.747 58.565 218.582 57.08C218.522 56.675 218.507 56.36 218.507 55.715V51.185H219.917V55.805C219.917 57.11 220.232 57.995 221.717 57.995C222.887 57.995 223.757 57.185 223.757 55.46V51.185H225.167V59H223.877L223.817 57.665C223.487 58.76 222.557 59.21 221.252 59.21ZM230.307 50.975C232.482 50.975 233.457 52.1 233.577 53.735H232.182C232.107 52.775 231.417 52.205 230.277 52.205C228.927 52.205 228.087 53.045 228.087 55.07C228.087 57.05 228.822 57.995 230.247 57.995C231.267 57.995 232.047 57.365 232.182 56.45H233.577C233.367 58.1 232.212 59.21 230.172 59.21C227.742 59.21 226.617 57.665 226.617 55.1C226.617 52.445 227.802 50.975 230.307 50.975ZM238.393 50.975C240.568 50.975 241.543 52.1 241.663 53.735H240.268C240.193 52.775 239.503 52.205 238.363 52.205C237.013 52.205 236.173 53.045 236.173 55.07C236.173 57.05 236.908 57.995 238.333 57.995C239.353 57.995 240.133 57.365 240.268 56.45H241.663C241.453 58.1 240.298 59.21 238.258 59.21C235.828 59.21 234.703 57.665 234.703 55.1C234.703 52.445 235.888 50.975 238.393 50.975ZM246.419 50.975C248.819 50.975 249.854 52.625 249.854 54.95C249.854 55.115 249.854 55.34 249.839 55.565H244.244C244.364 57.335 245.114 57.995 246.419 57.995C247.454 57.995 248.129 57.545 248.354 56.69H249.749C249.449 58.295 248.249 59.21 246.374 59.21C244.004 59.21 242.789 57.8 242.789 55.115C242.789 52.445 244.004 50.975 246.419 50.975ZM244.259 54.44H248.414C248.309 52.805 247.499 52.205 246.359 52.205C245.144 52.205 244.379 52.775 244.259 54.44ZM254.784 50.975C257.184 50.975 258.219 52.625 258.219 54.95C258.219 55.115 258.219 55.34 258.204 55.565H252.609C252.729 57.335 253.479 57.995 254.784 57.995C255.819 57.995 256.494 57.545 256.719 56.69H258.114C257.814 58.295 256.614 59.21 254.739 59.21C252.369 59.21 251.154 57.8 251.154 55.115C251.154 52.445 252.369 50.975 254.784 50.975ZM252.624 54.44H256.779C256.674 52.805 255.864 52.205 254.724 52.205C253.509 52.205 252.744 52.775 252.624 54.44ZM266.944 48.05V59H265.654L265.579 57.575C265.219 58.805 264.139 59.21 262.864 59.21C260.539 59.21 259.489 57.575 259.489 55.1C259.489 52.475 260.764 50.975 262.984 50.975C264.079 50.975 265.114 51.305 265.549 52.355V48.05H266.944ZM261.019 55.115C261.019 56.75 261.664 57.995 263.284 57.995C264.559 57.995 265.549 57.275 265.549 55.205V54.845C265.549 52.79 264.394 52.205 263.344 52.205C261.784 52.205 261.019 53.315 261.019 55.115ZM269.414 59.21C268.844 59.21 268.394 58.745 268.394 58.175C268.394 57.62 268.844 57.155 269.414 57.155C269.984 57.155 270.449 57.62 270.449 58.175C270.449 58.745 269.984 59.21 269.414 59.21Z" fill="#AAAAAA"/>
</svg>
