<svg width="200" height="208" viewBox="0 0 200 208" fill="none" xmlns="http://www.w3.org/2000/svg">
<rect width="200" height="208" rx="16" fill="#333333"/>
<circle cx="100" cy="102" r="64" fill="#555555"/>
<path fill-rule="evenodd" clip-rule="evenodd" d="M99.743 81.4286C104.572 81.4286 108.486 77.5271 108.486 72.7143C108.486 67.9016 104.571 64 99.743 64C94.9145 64.0001 91.0002 67.9016 91.0001 72.7143C91.0001 77.527 94.9145 81.4285 99.743 81.4286ZM99.743 139.524C104.572 139.524 108.486 135.622 108.486 130.81V97.8889C108.486 93.0762 104.571 89.1746 99.743 89.1746C94.9145 89.1747 91.0002 93.0763 91.0001 97.8889V130.81C91.0001 135.622 94.9145 139.524 99.743 139.524Z" fill="#333333"/>
</svg>
