<svg width="200" height="208" viewBox="0 0 200 208" fill="none" xmlns="http://www.w3.org/2000/svg">
<rect width="200" height="208" rx="16" fill="#333333"/>
<path fill-rule="evenodd" clip-rule="evenodd" d="M88.174 47.842C93.4027 38.7193 106.596 38.7193 111.825 47.842L166.185 142.684C171.374 151.736 164.817 163 154.359 163H45.6398C35.1821 163 28.6262 151.736 33.8147 142.684L88.174 47.842ZM100 129.111C95.1715 129.111 91.2572 133.013 91.2572 137.825C91.2572 142.638 95.1715 146.54 100 146.54C104.828 146.54 108.743 142.638 108.743 137.825C108.743 133.013 104.829 129.111 100 129.111ZM100 71.0158C95.1715 71.0158 91.2572 74.9173 91.2572 79.7301V112.651C91.2572 117.463 95.1715 121.365 100 121.365C104.828 121.365 108.743 117.463 108.743 112.651V79.7301C108.743 74.9174 104.829 71.0159 100 71.0158Z" fill="#555555"/>
</svg>
