<svg width="232" height="232" viewBox="0 0 232 232" fill="none" xmlns="http://www.w3.org/2000/svg">
<rect width="232" height="232" rx="16" fill="#333333"/>
<path fill-rule="evenodd" clip-rule="evenodd" d="M102.957 54.571C108.724 44.4763 123.275 44.4763 129.042 54.571L188.999 159.519C194.721 169.536 187.49 182 175.955 182H56.0439C44.5096 182 37.2789 169.536 43.0015 159.519L102.957 54.571ZM116 144.5C110.674 144.5 106.357 148.817 106.357 154.143C106.357 159.468 110.674 163.786 116 163.786C121.326 163.786 125.643 159.468 125.643 154.143C125.643 148.817 121.326 144.5 116 144.5ZM116 80.2142C110.674 80.2142 106.357 84.5314 106.357 89.8571V126.286C106.357 131.611 110.674 135.929 116 135.929C121.326 135.928 125.643 131.611 125.643 126.286V89.8571C125.643 84.5315 121.326 80.2143 116 80.2142Z" fill="#555555"/>
</svg>
