<svg width="232" height="272" viewBox="0 0 232 272" fill="none" xmlns="http://www.w3.org/2000/svg">
<rect width="232" height="272" rx="16" fill="#333333"/>
<path fill-rule="evenodd" clip-rule="evenodd" d="M102.957 70.571C108.724 60.4763 123.275 60.4763 129.042 70.571L188.999 175.519C194.721 185.536 187.49 198 175.955 198H56.0439C44.5096 198 37.2789 185.536 43.0015 175.519L102.957 70.571ZM116 160.5C110.674 160.5 106.357 164.817 106.357 170.143C106.357 175.468 110.674 179.786 116 179.786C121.326 179.786 125.643 175.468 125.643 170.143C125.643 164.817 121.326 160.5 116 160.5ZM116 96.2142C110.674 96.2142 106.357 100.531 106.357 105.857V142.286C106.357 147.611 110.674 151.929 116 151.929C121.326 151.928 125.643 147.611 125.643 142.286V105.857C125.643 100.532 121.326 96.2143 116 96.2142Z" fill="#555555"/>
</svg>
