<svg width="156" height="52" viewBox="0 0 156 52" fill="none" xmlns="http://www.w3.org/2000/svg">
<rect x="0.5" y="0.5" width="155" height="51" rx="6.5" fill="black"/>
<rect x="0.5" y="0.5" width="155" height="51" rx="6.5" stroke="#808080"/>
<path d="M53.796 24.86C54.516 24.86 55.074 24.878 55.722 24.95C57.486 25.166 59.232 26.12 59.232 28.766C59.232 31.592 57.486 32.69 55.722 32.906C55.074 32.978 54.516 32.996 53.796 32.996H51.564V38H49.332V24.86H53.796ZM51.564 31.016H53.85C55.596 31.016 56.928 30.8 56.928 28.91C56.928 27.11 55.524 26.84 53.85 26.84H51.564V31.016ZM65.4516 28.298C65.7576 28.298 65.9736 28.298 66.1716 28.352V30.17C63.9756 29.954 62.9136 31.052 62.9136 33.878V38H60.7356V28.55H62.7336L62.8236 30.278C62.9856 28.928 64.0476 28.298 65.4516 28.298ZM69.6284 28.55V38H67.4504V28.55H69.6284ZM67.3064 25.67C67.3064 24.986 67.8464 24.428 68.5304 24.428C69.2144 24.428 69.7724 24.986 69.7724 25.67C69.7724 26.354 69.2144 26.894 68.5304 26.894C67.8464 26.894 67.3064 26.354 67.3064 25.67ZM77.0281 28.298C78.3961 28.298 79.2421 28.91 79.6381 29.882C79.9621 28.532 81.4381 28.298 82.5901 28.298C84.5521 28.298 85.5961 29.324 85.7941 30.818C85.8661 31.304 85.8841 31.736 85.8841 32.33V38H83.7061V32.708C83.7061 31.286 83.4721 30.188 81.9781 30.188C80.6281 30.188 79.9621 31.07 79.9621 32.906V38H77.7841V32.69C77.7841 31.268 77.5681 30.17 76.0561 30.17C74.7061 30.17 74.0581 31.052 74.0581 32.888V38H71.8801V28.55H73.8781L73.9501 29.774C74.2741 28.604 75.5521 28.298 77.0281 28.298ZM91.7809 28.298C94.4269 28.298 95.4709 29.486 95.5969 31.142C95.6329 31.628 95.6509 32.042 95.6509 32.582V38H93.6709L93.5629 36.794C93.0409 38.036 91.8169 38.252 90.4669 38.252C88.8109 38.252 87.4249 37.262 87.4249 35.444C87.4249 32.996 89.3149 32.168 93.0409 32.168H93.4729V31.88C93.4729 30.854 93.1669 30.17 91.6909 30.17C90.4309 30.17 89.8549 30.584 89.7289 31.574H87.7489C87.8209 29.594 88.9549 28.298 91.7809 28.298ZM89.6209 35.174C89.6209 35.948 90.2329 36.38 91.1689 36.38C92.3209 36.38 93.4729 35.75 93.4729 34.724V33.896C91.1149 33.806 89.6209 33.986 89.6209 35.174ZM99.8611 35.21C99.8611 36.452 100.041 36.596 101.067 36.488V38.036C100.725 38.09 100.095 38.144 99.6991 38.144C98.2951 38.144 97.7731 37.604 97.7191 36.398C97.6831 35.966 97.6831 35.588 97.6831 34.904V24.86H99.8611V35.21ZM103.948 38.252C103.102 38.252 102.418 37.568 102.418 36.722C102.418 35.876 103.102 35.192 103.948 35.192C104.794 35.192 105.478 35.876 105.478 36.722C105.478 37.568 104.794 38.252 103.948 38.252ZM112.271 28.298C114.233 28.298 115.385 29.072 115.619 30.836C115.673 31.322 115.691 31.754 115.691 32.528V38H113.513V32.528C113.513 31.124 113.171 30.206 111.551 30.206C110.273 30.152 109.355 31.034 109.355 32.996V38H107.177V28.55H109.175L109.265 30.062C109.535 28.694 110.705 28.298 112.271 28.298ZM121.917 28.298C124.977 28.298 126.237 30.35 126.237 33.122C126.237 33.374 126.219 33.716 126.201 34.004H119.613C119.775 35.75 120.549 36.38 121.917 36.38C123.015 36.38 123.663 35.966 123.915 35.192H126.075C125.715 37.136 124.221 38.252 121.845 38.252C118.875 38.252 117.345 36.56 117.345 33.32C117.345 30.188 118.803 28.298 121.917 28.298ZM119.631 32.294H123.987C123.825 30.764 123.033 30.17 121.827 30.17C120.549 30.17 119.793 30.71 119.631 32.294ZM130.817 34.85C130.817 36.308 131.123 36.416 132.869 36.308V38.09C132.329 38.162 131.861 38.198 131.123 38.198C129.359 38.198 128.765 37.478 128.675 36.326C128.639 35.822 128.639 35.444 128.639 34.904V30.386H127.307V28.586H128.639V25.778H130.817V28.586H132.941V30.386H130.817V34.85Z" fill="white"/>
<path d="M51.81 11.56C53.69 11.56 54.64 12.54 54.85 13.88H53.86C53.67 13.03 53 12.44 51.81 12.44C50.31 12.44 49.44 13.46 49.44 15.32C49.44 17.45 50.44 18.26 51.86 18.26C53 18.26 53.69 17.7 53.88 16.82H54.85C54.62 18.26 53.57 19.14 51.83 19.14C49.67 19.14 48.45 17.84 48.45 15.36C48.45 13.15 49.54 11.56 51.81 11.56ZM56.6263 16.39C56.6263 17.79 57.1963 18.33 58.1563 18.33C59.1163 18.33 59.6863 17.79 59.6863 16.39C59.6863 15 59.1163 14.47 58.1563 14.47C57.1963 14.47 56.6263 15 56.6263 16.39ZM55.6463 16.39C55.6463 14.53 56.5763 13.65 58.1563 13.65C59.7363 13.65 60.6763 14.53 60.6763 16.39C60.6763 18.26 59.7363 19.14 58.1563 19.14C56.5763 19.14 55.6463 18.26 55.6463 16.39ZM64.3062 13.65C65.3762 13.65 66.0262 14.07 66.1462 15.06C66.1762 15.33 66.1862 15.55 66.1862 15.98V19H65.2462V15.94C65.2462 15.06 65.0562 14.48 64.0162 14.48C63.2462 14.46 62.6662 15 62.6662 16.17V19H61.7262V13.79H62.5962L62.6262 14.72C62.7962 13.94 63.4662 13.65 64.3062 13.65ZM68.68 17.45C68.68 18.26 68.85 18.34 69.84 18.27V19.05C69.59 19.08 69.34 19.1 69.01 19.1C68.13 19.1 67.81 18.73 67.77 18.14C67.75 17.87 67.75 17.67 67.75 17.37V14.6H67.04V13.82H67.75V12.23H68.68V13.82H69.86V14.6H68.68V17.45ZM71.6994 13.79V19H70.7594V13.79H71.6994ZM70.6594 12.25C70.6594 11.93 70.9094 11.68 71.2194 11.68C71.5394 11.68 71.7894 11.93 71.7894 12.25C71.7894 12.56 71.5394 12.81 71.2194 12.81C70.9094 12.81 70.6594 12.56 70.6594 12.25ZM75.5659 13.65C76.6359 13.65 77.2859 14.07 77.4059 15.06C77.4359 15.33 77.4459 15.55 77.4459 15.98V19H76.5059V15.94C76.5059 15.06 76.3159 14.48 75.2759 14.48C74.5059 14.46 73.9259 15 73.9259 16.17V19H72.9859V13.79H73.8559L73.8859 14.72C74.0559 13.94 74.7259 13.65 75.5659 13.65ZM80.4188 19.14C79.3988 19.14 78.7488 18.71 78.6388 17.72C78.5988 17.45 78.5888 17.24 78.5888 16.81V13.79H79.5288V16.87C79.5288 17.74 79.7388 18.33 80.7288 18.33C81.5088 18.33 82.0888 17.79 82.0888 16.64V13.79H83.0288V19H82.1688L82.1288 18.11C81.9088 18.84 81.2888 19.14 80.4188 19.14ZM86.4159 13.65C88.0159 13.65 88.7059 14.75 88.7059 16.3C88.7059 16.41 88.7059 16.56 88.6959 16.71H84.9659C85.0459 17.89 85.5459 18.33 86.4159 18.33C87.1059 18.33 87.5559 18.03 87.7059 17.46H88.6359C88.4359 18.53 87.6359 19.14 86.3859 19.14C84.8059 19.14 83.9959 18.2 83.9959 16.41C83.9959 14.63 84.8059 13.65 86.4159 13.65ZM84.9759 15.96H87.7459C87.6759 14.87 87.1359 14.47 86.3759 14.47C85.5659 14.47 85.0559 14.85 84.9759 15.96ZM92.7787 16.39C92.7787 17.79 93.3487 18.33 94.3087 18.33C95.2687 18.33 95.8387 17.79 95.8387 16.39C95.8387 15 95.2687 14.47 94.3087 14.47C93.3487 14.47 92.7787 15 92.7787 16.39ZM91.7987 16.39C91.7987 14.53 92.7287 13.65 94.3087 13.65C95.8887 13.65 96.8287 14.53 96.8287 16.39C96.8287 18.26 95.8887 19.14 94.3087 19.14C92.7287 19.14 91.7987 18.26 91.7987 16.39ZM100.459 13.65C101.529 13.65 102.179 14.07 102.299 15.06C102.329 15.33 102.339 15.55 102.339 15.98V19H101.399V15.94C101.399 15.06 101.209 14.48 100.169 14.48C99.3985 14.46 98.8185 15 98.8185 16.17V19H97.8785V13.79H98.7485L98.7785 14.72C98.9485 13.94 99.6185 13.65 100.459 13.65Z" fill="white"/>
<path d="M30.616 39.5412C29.6122 39.7601 28.5695 39.8754 27.4997 39.8754C24.5635 39.8754 21.8311 39.0064 19.5478 37.5126C18.981 36.7054 18.7267 36.261 18.5412 35.9369C18.4493 35.7762 18.3743 35.6451 18.2865 35.514C17.4216 34.129 16.969 32.3499 16.8704 30.2596C16.5647 23.7826 20.5179 19.6466 24.5564 18.9677C27.1164 18.5374 29.1509 18.9732 30.7113 19.8041C29.3317 19.422 27.6872 19.399 25.8125 19.9334C21.2677 21.3919 19.7527 25.8271 20.402 30.7385C21.5353 36.8927 27.5955 39.0985 30.616 39.5412Z" fill="url(#paint0_linear_5750_4)"/>
<path d="M17.6716 36.053C16.8262 34.5584 16.0607 32.3282 15.965 30.3019C15.6405 23.426 19.8606 18.842 24.4055 18.078C30.6006 17.0366 34.0448 20.6884 35.2322 23.3989C35.2818 23.3655 35.302 23.2995 35.2758 23.2427C33.3236 19.016 29.2859 16.1134 24.6218 16.1134C19.3258 16.1134 14.6003 19.8961 13 25.5179C13.0227 29.6836 14.8173 33.4318 17.6716 36.053Z" fill="url(#paint1_linear_5750_4)"/>
<path d="M35.6559 37.3765C34.61 38.0862 33.466 38.6633 32.2483 39.0834C31.6637 38.982 31.0159 38.8557 30.5598 38.7668C30.3437 38.7247 30.1705 38.691 30.0676 38.6723C27.3094 38.1706 22.3778 36.4009 21.2974 30.598C20.9921 28.2647 21.2108 26.1168 21.985 24.4131C22.7477 22.7346 24.064 21.4479 26.0715 20.7983C28.4047 20.1654 30.3382 20.479 31.7744 21.2471C31.4208 21.1728 31.0554 21.1339 30.6815 21.1339C27.5739 21.1339 25.0547 23.8215 25.0547 27.1368C25.0547 28.4606 25.4563 29.6843 26.1368 30.6768C26.1368 30.6768 28.0845 34.3402 33.3867 34.0127C38.1144 33.7208 40.5696 29.4983 40.8622 27.9387C41.0142 27.1281 41.0938 26.2922 41.0938 25.4377C41.0938 17.9623 35.0077 11.9024 27.5001 11.9024C21.8191 11.9024 16.952 15.3723 14.92 20.2997C14.2336 21.19 13.6426 22.177 13.1664 23.2443C14.2276 16.3115 20.2409 11 27.5001 11C35.5082 11 42 17.464 42 25.4377C42 30.4002 39.4855 34.7777 35.6559 37.3765Z" fill="url(#paint2_linear_5750_4)"/>
<defs>
<linearGradient id="paint0_linear_5750_4" x1="22.0553" y1="22.9613" x2="22.0334" y2="35.7929" gradientUnits="userSpaceOnUse">
<stop offset="0.0297309" stop-color="#F14949"/>
<stop offset="1" stop-color="#AE2B71"/>
</linearGradient>
<linearGradient id="paint1_linear_5750_4" x1="20.0812" y1="16.8674" x2="19.3693" y2="29.703" gradientUnits="userSpaceOnUse">
<stop stop-color="#FA9A43"/>
<stop offset="1" stop-color="#F14949"/>
</linearGradient>
<linearGradient id="paint2_linear_5750_4" x1="30.2187" y1="39.5746" x2="30.2581" y2="24.6858" gradientUnits="userSpaceOnUse">
<stop stop-color="#5B12A4"/>
<stop offset="1" stop-color="#AE2B71"/>
</linearGradient>
</defs>
</svg>
