<svg width="48" height="48" viewBox="0 0 48 48" fill="none" xmlns="http://www.w3.org/2000/svg">
<rect width="48" height="48" fill="black"/>
<circle cx="24" cy="24" r="11.5" fill="black" stroke="#AAAAAA"/>
<path d="M22.6037 30.7288C22.6037 31.0031 22.6909 31.2377 22.8652 31.4327C23.0475 31.6204 23.3091 31.7142 23.6499 31.7142C23.9827 31.7142 24.2363 31.6204 24.4107 31.4327C24.593 31.2377 24.6841 31.0031 24.6841 30.7288C24.6841 30.4617 24.593 30.2343 24.4107 30.0466C24.2363 29.8517 23.9788 29.7542 23.638 29.7542C23.3051 29.7542 23.0475 29.8517 22.8652 30.0466C22.6909 30.2343 22.6037 30.4617 22.6037 30.7288ZM19.7148 20.4548H21.1533V20.2165C21.1533 19.343 21.403 18.6608 21.9023 18.1699C22.4016 17.6717 23.1228 17.4227 24.0659 17.4227C25.0012 17.4227 25.6986 17.6609 26.1583 18.1374C26.618 18.6139 26.8478 19.2455 26.8478 20.0324C26.8478 20.8338 26.6655 21.4907 26.3009 22.0033C25.9443 22.5159 25.4291 23.0754 24.7555 23.6818C24.0263 24.3243 23.527 24.9415 23.2575 25.5335C22.9881 26.1183 22.8533 26.8402 22.8533 27.6993V27.8076H24.3037V27.6993C24.3037 27.129 24.3949 26.5839 24.5771 26.0641C24.7674 25.5371 25.2191 24.9668 25.9324 24.3532C26.5902 23.7756 27.145 23.1584 27.5968 22.5014C28.0564 21.8445 28.2863 21.0215 28.2863 20.0324C28.2863 18.9207 27.9138 18.0183 27.1688 17.3252C26.4317 16.6322 25.3935 16.2856 24.0541 16.2856C22.7146 16.2856 21.6566 16.643 20.8799 17.3577C20.1032 18.0724 19.7148 19.0181 19.7148 20.1949V20.4548Z" fill="#B5B5B5"/>
</svg>
