<svg width="20" height="20" viewBox="0 0 20 20" fill="none" xmlns="http://www.w3.org/2000/svg">
<path d="M6.5 9C7.32843 9 8 8.32843 8 7.5C8 6.67157 7.32843 6 6.5 6C5.67157 6 5 6.67157 5 7.5C5 8.32843 5.67157 9 6.5 9Z" fill="#666666"/>
<path fill-rule="evenodd" clip-rule="evenodd" d="M3 2C1.34315 2 0 3.34315 0 5V15C0 16.6569 1.34315 18 3 18H17C18.6569 18 20 16.6569 20 15V5C20 3.34315 18.6569 2 17 2H3ZM17 3.5H3C2.17157 3.5 1.5 4.17157 1.5 5V13.4286L3.37114 11.2901C3.96875 10.6071 5.03125 10.6071 5.62887 11.2901L7.20603 13.0926C7.61852 13.564 8.35792 13.5445 8.74492 13.0519L12.3205 8.50115C12.9211 7.7368 14.0789 7.7368 14.6795 8.50115L18.5 13.3636V5C18.5 4.17157 17.8284 3.5 17 3.5Z" fill="#666666"/>
</svg>
