<svg width="100" height="100" viewBox="0 0 100 100" fill="none" xmlns="http://www.w3.org/2000/svg">
<path d="M65.5988 33.9685C67.0127 32.4895 69.3764 32.4948 70.7837 33.9801C72.0952 35.3644 72.0912 37.5337 70.7745 38.913L42.7435 68.2764C42.4973 68.5343 42.0858 68.5343 41.8396 68.2764L29.2267 55.0641C27.9092 53.684 27.9053 51.5132 29.2175 50.1282C30.6245 48.6433 32.9872 48.6366 34.4025 50.1135L41.8396 57.8766C42.0858 58.1336 42.497 58.1333 42.7429 57.876L65.5988 33.9685Z" fill="white"/>
<path fill-rule="evenodd" clip-rule="evenodd" d="M50 0C77.6142 0 100 22.3858 100 50C100 77.6142 77.6142 100 50 100C22.3858 100 0 77.6142 0 50C0 22.3858 22.3858 0 50 0ZM50 6.25C25.8375 6.25 6.25 25.8375 6.25 50C6.25 74.1625 25.8375 93.75 50 93.75C74.1625 93.75 93.75 74.1625 93.75 50C93.75 25.8375 74.1625 6.25 50 6.25Z" fill="white"/>
</svg>
