<svg width="14" height="20" viewBox="0 0 14 20" fill="none" xmlns="http://www.w3.org/2000/svg">
<path fill-rule="evenodd" clip-rule="evenodd" d="M11.5294 2.14703H2.47059C2.01577 2.14703 1.64706 2.51573 1.64706 2.97055V17.0857L5.93144 14.0615C6.57205 13.6093 7.42795 13.6093 8.06856 14.0615L12.3529 17.0857V2.97055C12.3529 2.51573 11.9842 2.14703 11.5294 2.14703ZM2.47059 0.5C1.10612 0.5 0 1.6061 0 2.97055V18.675C0 19.3428 0.752928 19.7329 1.29845 19.3478L6.88127 15.4071C6.95245 15.3568 7.04755 15.3568 7.11873 15.4071L12.7016 19.3478C13.2471 19.7329 14 19.3428 14 18.675V2.97055C14 1.6061 12.8939 0.5 11.5294 0.5H2.47059Z" fill="#666666"/>
</svg>
