<svg width="20" height="20" viewBox="0 0 20 20" fill="none" xmlns="http://www.w3.org/2000/svg">
<path fill-rule="evenodd" clip-rule="evenodd" d="M9.34921 12.5822C9.7237 12.2612 10.2763 12.2612 10.6508 12.5822L15.5 16.7387V3C15.5 2.72386 15.2761 2.5 15 2.5H5C4.72386 2.5 4.5 2.72386 4.5 3V16.7387L9.34921 12.5822ZM10 14L4.65079 18.585C4.00212 19.141 3 18.6801 3 17.8258V3C3 1.89543 3.89543 1 5 1H15C16.1046 1 17 1.89543 17 3V17.8258C17 18.6801 15.9979 19.141 15.3492 18.585L10 14Z" fill="white"/>
</svg>
