<svg width="20" height="20" viewBox="0 0 20 20" fill="none" xmlns="http://www.w3.org/2000/svg">
<path d="M16.5407 2.46014C16.2478 2.75304 16.2507 3.22595 16.5168 3.54337C17.7547 5.01992 18.5 6.92336 18.5 9.00088C18.5 11.0784 17.7547 12.9818 16.5168 14.4584C16.2507 14.7758 16.2478 15.2487 16.5407 15.5416C16.8336 15.8345 17.3109 15.8362 17.5812 15.5223C19.0887 13.7715 20 11.4926 20 9.00088C20 6.50917 19.0887 4.2303 17.5812 2.47942C17.3109 2.16552 16.8336 2.16725 16.5407 2.46014Z" fill="white"/>
<path d="M2.41884 15.5223C2.68911 15.8362 3.16637 15.8345 3.45926 15.5416C3.75216 15.2487 3.74928 14.7758 3.48318 14.4584C2.24533 12.9818 1.5 11.0784 1.5 9.00088C1.5 6.92336 2.24533 5.01992 3.48318 3.54337C3.74928 3.22595 3.75216 2.75304 3.45926 2.46014C3.16637 2.16725 2.68911 2.16552 2.41884 2.47942C0.911322 4.2303 0 6.50917 0 9.00088C0 11.4926 0.911322 13.7715 2.41884 15.5223Z" fill="white"/>
<path d="M5.58058 13.4201C5.28769 13.713 4.80922 13.7152 4.54913 13.3929C3.58015 12.1918 3 10.664 3 9.00065C3 7.33732 3.58015 5.80948 4.54913 4.60845C4.80922 4.28608 5.28769 4.28834 5.58058 4.58124C5.87348 4.87413 5.8687 5.34637 5.61809 5.67617C4.91645 6.59956 4.5 7.75147 4.5 9.00065C4.5 10.2498 4.91645 11.4018 5.61809 12.3251C5.8687 12.6549 5.87348 13.1272 5.58058 13.4201Z" fill="white"/>
<path d="M14.4194 4.58124C14.1265 4.87413 14.1313 5.34637 14.3819 5.67617C15.0835 6.59956 15.5 7.75147 15.5 9.00065C15.5 10.2498 15.0835 11.4018 14.3819 12.3251C14.1313 12.6549 14.1265 13.1272 14.4194 13.4201C14.7123 13.713 15.1908 13.7152 15.4509 13.3929C16.4199 12.1918 17 10.664 17 9.00065C17 7.33732 16.4199 5.80948 15.4509 4.60845C15.1908 4.28608 14.7123 4.28834 14.4194 4.58124Z" fill="white"/>
<path fill-rule="evenodd" clip-rule="evenodd" d="M13.5 9C13.5 10.6756 12.3226 12.0761 10.75 12.4195V18.25C10.75 18.6642 10.4142 19 10 19C9.58579 19 9.25 18.6642 9.25 18.25V12.4195C7.67741 12.0761 6.5 10.6756 6.5 9C6.5 7.067 8.067 5.5 10 5.5C11.933 5.5 13.5 7.067 13.5 9ZM10 11C11.1046 11 12 10.1046 12 9C12 7.89543 11.1046 7 10 7C8.89543 7 8 7.89543 8 9C8 10.1046 8.89543 11 10 11Z" fill="white"/>
</svg>
