<svg width="24" height="24" viewBox="0 0 24 24" fill="none" xmlns="http://www.w3.org/2000/svg">
<path d="M4.98226 3.83732C4.66597 3.52093 4.15312 3.52093 3.83683 3.83732C3.52051 4.15361 3.52051 4.66646 3.83683 4.98275L10.8542 12L3.83683 19.0173C3.52054 19.3337 3.52054 19.8465 3.83683 20.1629C4.15314 20.4792 4.66599 20.4792 4.98228 20.1629L11.9996 13.1455L19.0169 20.1628C19.3332 20.4792 19.8461 20.4792 20.1624 20.1628C20.4787 19.8465 20.4787 19.3336 20.1624 19.0173L13.1451 12L20.1624 4.98275C20.4787 4.66646 20.4787 4.15361 20.1624 3.83732C19.8461 3.52102 19.3333 3.52102 19.0169 3.83732L11.9996 10.8546L4.98226 3.83732Z" fill="#AAAAAA"/>
</svg>
