<svg width="24" height="24" viewBox="0 0 24 24" fill="none" xmlns="http://www.w3.org/2000/svg">
<path fill-rule="evenodd" clip-rule="evenodd" d="M9.9298 7.75C9.57875 9.60065 7.95279 11 6 11C3.79086 11 2 9.20914 2 7C2 4.79086 3.79086 3 6 3C8.03981 3 9.723 4.52684 9.96905 6.5H21.375C21.7202 6.5 22 6.77982 22 7.125C22 7.47018 21.7202 7.75 21.375 7.75H9.9298ZM8.75 7C8.75 8.51878 7.51878 9.75 6 9.75C4.48122 9.75 3.25 8.51878 3.25 7C3.25 5.48122 4.48122 4.25 6 4.25C7.51878 4.25 8.75 5.48122 8.75 7Z" fill="#AAAAAA"/>
<path fill-rule="evenodd" clip-rule="evenodd" d="M3 17.125C3 16.7798 3.27982 16.5 3.625 16.5H14.0309C14.277 14.5268 15.9602 13 18 13C20.2091 13 22 14.7909 22 17C22 19.2091 20.2091 21 18 21C16.0472 21 14.4213 19.6006 14.0702 17.75H3.625C3.27982 17.75 3 17.4702 3 17.125ZM20.75 17C20.75 18.5188 19.5188 19.75 18 19.75C16.4812 19.75 15.25 18.5188 15.25 17C15.25 15.4812 16.4812 14.25 18 14.25C19.5188 14.25 20.75 15.4812 20.75 17Z" fill="#AAAAAA"/>
</svg>
