<svg width="20" height="20" viewBox="0 0 20 20" fill="none" xmlns="http://www.w3.org/2000/svg">
<g clip-path="url(#clip0_324_5)">
<path d="M14.7433 6.34414C14.3796 5.95964 13.7678 5.95892 13.4032 6.34258L8.33329 11.6781L6.59689 9.85242C6.23221 9.46898 5.62053 9.46983 5.25692 9.85429C4.91973 10.2108 4.92029 10.7688 5.25819 11.1246L7.9708 13.9812C8.16794 14.1888 8.49881 14.1888 8.69595 13.9812L14.742 7.61427C15.0798 7.25849 15.0804 6.7006 14.7433 6.34414Z" fill="white"/>
<path fill-rule="evenodd" clip-rule="evenodd" d="M0 10C0 4.47715 4.47715 0 10 0C15.5228 0 20 4.47715 20 10C20 15.5228 15.5228 20 10 20C4.47715 20 0 15.5228 0 10ZM10 18.5C5.30558 18.5 1.5 14.6944 1.5 10C1.5 5.30558 5.30558 1.5 10 1.5C14.6944 1.5 18.5 5.30558 18.5 10C18.5 14.6944 14.6944 18.5 10 18.5Z" fill="white"/>
</g>
<defs>
<clipPath id="clip0_324_5">
<rect width="20" height="20" fill="white"/>
</clipPath>
</defs>
</svg>
