<svg width="14" height="14" viewBox="0 0 14 14" fill="none" xmlns="http://www.w3.org/2000/svg">
<g clip-path="url(#clip0_1179_7418)">
<path d="M7.25 2.375C7.59518 2.375 7.875 2.65482 7.875 3V7.25C7.875 7.73325 7.48325 8.125 7 8.125H4.25C3.90482 8.125 3.625 7.84518 3.625 7.5C3.625 7.15482 3.90482 6.875 4.25 6.875H6.625V3C6.625 2.65482 6.90482 2.375 7.25 2.375Z" fill="#AAAAAA"/>
<path fill-rule="evenodd" clip-rule="evenodd" d="M7 0C10.866 0 14 3.13401 14 7C14 10.866 10.866 14 7 14C3.13401 14 0 10.866 0 7C0 3.13401 3.13401 0 7 0ZM7 1.0498C3.71391 1.0498 1.0498 3.71391 1.0498 7C1.0498 10.2861 3.71391 12.9502 7 12.9502C10.2861 12.9502 12.9502 10.2861 12.9502 7C12.9502 3.71391 10.2861 1.0498 7 1.0498Z" fill="#AAAAAA"/>
</g>
<defs>
<clipPath id="clip0_1179_7418">
<rect width="14" height="14" fill="white"/>
</clipPath>
</defs>
</svg>
