<svg width="16" height="16" viewBox="0 0 16 16" fill="none" xmlns="http://www.w3.org/2000/svg">
<path d="M1.75577 0.301324C1.35413 -0.100441 0.702893 -0.100441 0.301253 0.301324C-0.100418 0.702963 -0.100418 1.3542 0.301253 1.75584L6.54547 8.00002L0.301253 14.2442C-0.100386 14.646 -0.100386 15.2971 0.301253 15.6988C0.702924 16.1005 1.35416 16.1005 1.7558 15.6988L8.00004 9.45453L14.2442 15.6987C14.6459 16.1005 15.2971 16.1005 15.6987 15.6987C16.1004 15.2971 16.1004 14.6458 15.6987 14.2442L9.45456 8.00002L15.6988 1.75584C16.1004 1.3542 16.1004 0.702963 15.6988 0.301324C15.2971 -0.100316 14.6459 -0.100316 14.2442 0.301324L7.99998 6.5455L1.75577 0.301324Z" fill="#CCCCCC"/>
</svg>
