<svg width="160" height="160" viewBox="0 0 160 160" fill="none" xmlns="http://www.w3.org/2000/svg">
<circle cx="80" cy="80" r="75" stroke="#FA3C3C" stroke-width="10"/>
<path d="M103.058 50.4365C104.866 48.8028 107.657 48.8569 109.4 50.5996L109.563 50.7715C111.145 52.5215 111.145 55.1923 109.563 56.9424L109.4 57.1143L86.5146 79.999L109.4 102.885L109.563 103.057C111.145 104.807 111.145 107.478 109.563 109.229L109.4 109.4C107.657 111.144 104.865 111.198 103.057 109.563L102.885 109.4L79.999 86.5146L57.1143 109.4C55.3715 111.143 52.58 111.198 50.7715 109.564L50.5996 109.4C48.8007 107.601 48.8008 104.685 50.5996 102.886V102.885L73.4844 79.999L50.5996 57.1143C48.8005 55.3152 48.8005 52.3986 50.5996 50.5996L50.7715 50.4365C52.5798 48.8022 55.3714 48.8564 57.1143 50.5996L80 73.4854L102.886 50.5996L103.058 50.4365Z" fill="#FA3C3C" stroke="#FA3C3C" stroke-width="1.5"/>
</svg>
