<svg width="18" height="18" viewBox="0 0 18 18" fill="none" xmlns="http://www.w3.org/2000/svg">
<g clip-path="url(#clip0_2328_14593)">
<path fill-rule="evenodd" clip-rule="evenodd" d="M16.875 0.193079C17.1324 -0.0643598 17.5495 -0.0643598 17.8069 0.193079C18.0644 0.450518 18.0644 0.867891 17.8069 1.12501L16.9302 2.00199C18.3259 3.78563 18.3766 6.17927 16.9605 7.59511L15.0876 9.46832C14.5702 9.98536 13.7314 9.98536 13.2144 9.46832L8.53155 4.78547C8.01451 4.26843 8.01451 3.42964 8.53155 2.91259L10.4048 1.03939C11.8207 -0.376531 14.2145 -0.325976 15.9982 1.06988L16.875 0.193079ZM15.5558 2.44405C16.9896 3.87814 16.9281 5.75457 16.024 6.65867L14.6191 8.06333C14.4765 8.20626 14.285 8.27028 14.0985 8.25541C13.9468 8.24344 13.7987 8.17942 13.6826 8.06333L9.93653 4.31725C9.89773 4.27845 9.86475 4.23609 9.83759 4.19147C9.78779 4.10933 9.75772 4.01847 9.74705 3.92567C9.74317 3.89333 9.74188 3.861 9.74285 3.82866C9.74349 3.81152 9.74479 3.79439 9.74673 3.77725C9.76225 3.63238 9.82562 3.49172 9.93653 3.38081L11.3412 1.97583C12.2453 1.07173 14.1217 1.01029 15.5558 2.44405Z" fill="#AAAAAA"/>
<path fill-rule="evenodd" clip-rule="evenodd" d="M9.46832 15.0876C9.98536 14.5702 9.98536 13.7314 9.46832 13.2144L9.0001 12.7462L10.5548 11.1912C10.8134 10.9328 10.8134 10.5134 10.5548 10.2548C10.4759 10.1759 10.3824 10.1212 10.2828 10.0905C10.0558 10.0203 9.79778 10.075 9.61832 10.2548L8.06333 11.8097L6.19045 9.93653L7.74511 8.38155C8.0038 8.12319 8.0038 7.7038 7.74511 7.44511C7.48643 7.18643 7.06736 7.18643 6.80867 7.44511L5.25369 9.0001L4.78547 8.53155C4.26843 8.01451 3.42964 8.01451 2.91259 8.53155L1.03939 10.4048C-0.376531 11.8207 -0.325976 14.2145 1.06988 15.9982L0.193062 16.875C0.0733533 16.9947 0.00931532 17.1489 0.000948552 17.3053C-0.00870541 17.4858 0.0553325 17.6695 0.193062 17.8073C0.290889 17.9051 0.411564 17.9656 0.538031 17.9891C0.744304 18.0274 0.965379 17.9669 1.12499 17.8073L2.00183 16.9301C3.78549 18.3259 6.17923 18.3767 7.59511 16.9605L9.46832 15.0876ZM6.65867 16.024L8.06333 14.6191C8.32202 14.3607 8.32202 13.9413 8.06333 13.6826L4.31725 9.93653C4.20246 9.82174 4.05566 9.75772 3.90562 9.74479C3.71775 9.72894 3.52438 9.79264 3.38081 9.93653L1.97583 11.3412C1.07173 12.2453 1.01029 14.1221 2.44405 15.5558C3.87814 16.9896 5.75457 16.9281 6.65867 16.024Z" fill="#AAAAAA"/>
</g>
<defs>
<clipPath id="clip0_2328_14593">
<rect width="18" height="18" fill="white"/>
</clipPath>
</defs>
</svg>
