<svg width="20" height="20" viewBox="0 0 20 20" fill="none" xmlns="http://www.w3.org/2000/svg">
<path d="M16.442 10.7823C16.1351 11.0892 15.6114 11.081 15.2719 10.7415C14.9323 10.402 14.9242 9.87827 15.231 9.5714L16.3194 8.483C17.5754 7.22701 17.5044 5.13763 16.1834 3.8166C14.8624 2.49556 12.773 2.42455 11.517 3.68055L8.90484 6.2927C7.64885 7.54869 7.71986 9.63806 9.04089 10.9591C9.31809 11.2363 9.57533 11.4048 9.84012 11.4981C10.0446 11.5702 10.218 11.7275 10.3019 11.8975C10.3843 12.0644 10.3747 12.2239 10.2557 12.3429L9.96513 12.6335C9.76566 12.833 9.4647 12.9098 9.17381 12.8279C8.93158 12.7597 8.74107 12.6974 8.54959 12.5925C8.35852 12.4879 8.16085 12.3377 7.91159 12.0884C5.91153 10.0883 5.82417 6.95151 7.69392 5.08177L10.3061 2.46962C12.1758 0.599878 15.3126 0.687239 17.3127 2.6873C19.3128 4.68736 19.4001 7.82418 17.5304 9.69393L16.442 10.7823Z" fill="white"/>
<path d="M3.55802 9.21767C3.86489 8.91079 4.38861 8.91897 4.72813 9.25848C5.06764 9.598 5.07582 10.1217 4.76894 10.4286L3.68055 11.517C2.42455 12.773 2.49556 14.8624 3.8166 16.1834C5.13763 17.5044 7.22701 17.5754 8.483 16.3194L11.0951 13.7073C12.3511 12.4513 12.2801 10.3619 10.9591 9.04089C10.6819 8.76369 10.4247 8.59517 10.1599 8.50187C9.95536 8.42981 9.78198 8.27254 9.69804 8.10246C9.61568 7.93557 9.62525 7.77611 9.74428 7.65708L10.0349 7.3665C10.2343 7.16703 10.5353 7.09021 10.8262 7.17207C11.0684 7.24024 11.2589 7.30258 11.4504 7.40746C11.6415 7.51212 11.8391 7.66234 12.0884 7.91159C14.0885 9.91166 14.1758 13.0485 12.3061 14.9182L9.69393 17.5304C7.82418 19.4001 4.68736 19.3128 2.6873 17.3127C0.68724 15.3126 0.599878 12.1758 2.46962 10.3061L3.55802 9.21767Z" fill="white"/>
</svg>
