<svg width="20" height="20" viewBox="0 0 20 20" fill="none" xmlns="http://www.w3.org/2000/svg">
<path d="M13 1.5H2C1.72386 1.5 1.5 1.72386 1.5 2V13C1.5 13.2761 1.72386 13.5 2 13.5H3.25C3.66421 13.5 4 13.8358 4 14.25C4 14.6642 3.66421 15 3.25 15H2C0.89543 15 0 14.1046 0 13V2C0 0.89543 0.895431 0 2 0H13C14.1046 0 15 0.895431 15 2V3.25C15 3.66421 14.6642 4 14.25 4C13.8358 4 13.5 3.66421 13.5 3.25V2C13.5 1.72386 13.2761 1.5 13 1.5Z" fill="white"/>
<path fill-rule="evenodd" clip-rule="evenodd" d="M17.8929 12.8344C16.8761 13.8881 15.2035 14.0216 13.6782 13.3137L12.6148 14.4157C12.5688 14.4634 12.5041 14.4881 12.4376 14.483L10.7966 14.3558L10.9625 15.8294C10.9702 15.8974 10.9468 15.9603 10.9048 16.0057C10.8609 16.0537 10.7959 16.0818 10.7243 16.0762L9.24702 15.9617L9.41294 17.4353C9.42139 17.5114 9.39133 17.5811 9.33957 17.6272C9.29645 17.6655 9.23829 17.6872 9.17475 17.6822L6.40807 17.4678C6.15748 17.4484 5.9703 17.2272 5.99245 16.977L6.05154 16.3171C6.06945 16.1143 6.15617 15.9245 6.29691 15.7786L11.0895 10.8118C10.3293 9.31099 10.4042 7.63338 11.421 6.57964C12.7904 5.16048 15.3493 5.41043 17.1363 7.13751C18.9233 8.86458 19.2623 11.4152 17.8929 12.8344ZM14.347 10.0282C14.8833 10.5465 15.7341 10.535 16.2476 10.0028C16.761 9.47072 16.7428 8.61935 16.2066 8.10107C15.6703 7.58279 14.8195 7.5943 14.306 8.12642C13.7926 8.65855 13.8108 9.50992 14.347 10.0282Z" fill="white"/>
</svg>
