<svg width="20" height="20" viewBox="0 0 20 20" fill="none" xmlns="http://www.w3.org/2000/svg">
<path fill-rule="evenodd" clip-rule="evenodd" d="M16.8469 14.3984H13.7444L12.9991 19.0007C12.9292 19.4326 12.5563 19.75 12.1188 19.75C11.5693 19.75 11.1505 19.258 11.2384 18.7156L11.9375 14.3984H6.80407L6.05876 19.0007C5.98882 19.4326 5.6159 19.75 5.17838 19.75C4.62893 19.75 4.21016 19.258 4.298 18.7156L4.99712 14.3984H2.17218C1.6048 14.3984 1.17208 13.8908 1.26194 13.3306C1.33365 12.8835 1.7194 12.5547 2.17218 12.5547H5.2957L6.12312 7.44531H3.31927C2.75188 7.44531 2.31917 6.93766 2.40903 6.37744C2.48074 5.93037 2.86649 5.60156 3.31927 5.60156H6.42171L7.16701 0.99928C7.23695 0.567383 7.60987 0.25 8.04739 0.25C8.59684 0.25 9.01561 0.74204 8.92778 1.28442L8.22865 5.60156H13.3621L14.1074 0.99928C14.1773 0.567383 14.5502 0.25 14.9878 0.25C15.5372 0.25 15.956 0.742039 15.8681 1.28442L15.169 5.60156H17.994C18.5613 5.60156 18.9941 6.10921 18.9042 6.66944C18.8325 7.1165 18.4467 7.44531 17.994 7.44531H14.8704L14.043 12.5547H16.8469C17.4143 12.5547 17.847 13.0623 17.7571 13.6226C17.6854 14.0696 17.2997 14.3984 16.8469 14.3984ZM7.10265 12.5547H12.2361L13.0635 7.44531H7.93007L7.10265 12.5547Z" fill="white"/>
</svg>
