<svg width="20" height="20" viewBox="0 0 20 20" fill="none" xmlns="http://www.w3.org/2000/svg">
<g clip-path="url(#clip0_1716_1955)">
<path d="M13 1.5H2C1.72386 1.5 1.5 1.72386 1.5 2V13C1.5 13.2761 1.72386 13.5 2 13.5H2.25C2.66421 13.5 3 13.8358 3 14.25C3 14.6642 2.66421 15 2.25 15H2C0.89543 15 0 14.1046 0 13V2C0 0.89543 0.895431 0 2 0H13C14.1046 0 15 0.895431 15 2V2.25C15 2.66421 14.6642 3 14.25 3C13.8358 3 13.5 2.66421 13.5 2.25V2C13.5 1.72386 13.2761 1.5 13 1.5Z" fill="white"/>
<path d="M17.942 13.2256C17.6414 13.5261 17.1389 13.5109 16.8196 13.1916C16.5002 12.8722 16.485 12.3697 16.7856 12.0692L17.6925 11.1622C18.6944 10.1603 18.6436 8.48528 17.5792 7.42083C16.5147 6.35637 14.8397 6.30561 13.8378 7.30745L11.661 9.48424C10.6592 10.4861 10.7099 12.1611 11.7744 13.2256C11.9974 13.4486 12.1989 13.5789 12.4014 13.6502C12.7918 13.7878 13.0655 14.2473 12.7867 14.5261L12.5446 14.7682C12.3503 14.9625 12.06 15.0348 11.7833 14.9569C11.3761 14.8423 11.1109 14.7389 10.686 14.314C8.98288 12.6109 8.90167 9.93076 10.5046 8.32782L12.6814 6.15103C14.2843 4.54809 16.9644 4.6293 18.6676 6.33243C20.3707 8.03556 20.4519 10.7157 18.849 12.3186L17.942 13.2256Z" fill="white"/>
<path d="M7.05803 11.7744C7.35858 11.4739 7.8611 11.4891 8.18043 11.8084C8.49977 12.1278 8.515 12.6303 8.21445 12.9308L7.30745 13.8378C6.30561 14.8397 6.35637 16.5147 7.42083 17.5792C8.48528 18.6436 10.1603 18.6944 11.1622 17.6926L13.339 15.5158C14.3408 14.5139 14.2901 12.8389 13.2256 11.7744C13.0026 11.5514 12.8011 11.4211 12.5986 11.3498C12.2082 11.2122 11.9345 10.7527 12.2133 10.4739L12.4554 10.2318C12.6497 10.0375 12.94 9.96524 13.2167 10.0431C13.6239 10.1577 13.8891 10.2611 14.314 10.686C16.0171 12.3891 16.0983 15.0692 14.4954 16.6722L12.3186 18.849C10.7157 20.4519 8.03556 20.3707 6.33243 18.6676C4.6293 16.9644 4.54809 14.2843 6.15103 12.6814L7.05803 11.7744Z" fill="white"/>
</g>
<defs>
<clipPath id="clip0_1716_1955">
<rect width="20" height="20" fill="white"/>
</clipPath>
</defs>
</svg>
