<svg width="16" height="16" viewBox="0 0 16 16" fill="none" xmlns="http://www.w3.org/2000/svg">
<path fill-rule="evenodd" clip-rule="evenodd" d="M11 4V3C11 1.89543 10.1046 1 9 1H4C2.89543 1 2 1.89543 2 3V10C2 11.1046 2.89543 12 4 12H5V13C5 14.1046 5.89543 15 7 15H12C13.1046 15 14 14.1046 14 13V6C14 4.89543 13.1046 4 12 4H11ZM9 2.5H4C3.72386 2.5 3.5 2.72386 3.5 3V10C3.5 10.2761 3.72386 10.5 4 10.5H5V6C5 4.89543 5.89543 4 7 4H9.5V3C9.5 2.72386 9.27614 2.5 9 2.5ZM6.5 6C6.5 5.72386 6.72386 5.5 7 5.5H12C12.2761 5.5 12.5 5.72386 12.5 6V13C12.5 13.2761 12.2761 13.5 12 13.5H7C6.72386 13.5 6.5 13.2761 6.5 13V6Z" fill="white"/>
</svg>
