<svg width="16" height="16" viewBox="0 0 16 16" fill="none" xmlns="http://www.w3.org/2000/svg">
<g clip-path="url(#clip0_6181_960)">
<path d="M2 1.5H9C9.27614 1.5 9.5 1.72386 9.5 2V2.25C9.5 2.66421 9.83579 3 10.25 3C10.6642 3 11 2.66421 11 2.25V2C11 0.895431 10.1046 0 9 0H2C0.895431 0 0 0.89543 0 2V9C0 10.1046 0.895431 11 2 11H2.25C2.66421 11 3 10.6642 3 10.25C3 9.83579 2.66421 9.5 2.25 9.5H2C1.72386 9.5 1.5 9.27614 1.5 9V2C1.5 1.72386 1.72386 1.5 2 1.5Z" fill="#AAAAAA"/>
<path fill-rule="evenodd" clip-rule="evenodd" d="M5 7C5 5.89543 5.89543 5 7 5H14C15.1046 5 16 5.89543 16 7V14C16 15.1046 15.1046 16 14 16H7C5.89543 16 5 15.1046 5 14V7ZM7 6.5H14C14.2761 6.5 14.5 6.72386 14.5 7V14C14.5 14.2761 14.2761 14.5 14 14.5H7C6.72386 14.5 6.5 14.2761 6.5 14V7C6.5 6.72386 6.72386 6.5 7 6.5Z" fill="#AAAAAA"/>
</g>
<defs>
<clipPath id="clip0_6181_960">
<rect width="16" height="16" fill="white"/>
</clipPath>
</defs>
</svg>
