<svg width="20" height="20" viewBox="0 0 20 20" fill="none" xmlns="http://www.w3.org/2000/svg">
<path d="M13 1.5H2C1.72386 1.5 1.5 1.72386 1.5 2V13C1.5 13.2761 1.72386 13.5 2 13.5H3.25C3.66421 13.5 4 13.8358 4 14.25C4 14.6642 3.66421 15 3.25 15H2C0.89543 15 0 14.1046 0 13V2C0 0.89543 0.895431 0 2 0H13C14.1046 0 15 0.895431 15 2V2.25C15 2.66421 14.6642 3 14.25 3C13.8358 3 13.5 2.66421 13.5 2.25V2C13.5 1.72386 13.2761 1.5 13 1.5Z" fill="white"/>
<path fill-rule="evenodd" clip-rule="evenodd" d="M13.136 18.0729C13.0572 18.559 13.4325 19 13.925 19C14.3171 19 14.6513 18.7156 14.714 18.3285L15.2119 15.2539H17.2347C17.6376 15.2539 17.9808 14.9613 18.0446 14.5635C18.1246 14.065 17.7395 13.6133 17.2347 13.6133H15.4776L16.0001 10.3867H18.0376C18.4405 10.3867 18.7838 10.0941 18.8476 9.69632C18.9275 9.19782 18.5425 8.74609 18.0376 8.74609H16.2658L16.7223 5.92707C16.801 5.44098 16.4257 5 15.9333 5C15.5412 5 15.207 5.28444 15.1443 5.67152L14.6464 8.74609H11.4075L11.864 5.92707C11.9428 5.44098 11.5675 5 11.075 5C10.6829 5 10.3487 5.28444 10.286 5.67152L9.7881 8.74609H7.76534C7.36244 8.74609 7.01919 9.03868 6.95538 9.43649C6.87542 9.93499 7.26046 10.3867 7.76534 10.3867H9.52242L8.9999 13.6133H6.96238C6.55948 13.6133 6.21623 13.9059 6.15242 14.3037C6.07246 14.8022 6.4575 15.2539 6.96238 15.2539H8.73422L8.2777 18.0729C8.19898 18.559 8.57429 19 9.06672 19C9.45883 19 9.79305 18.7156 9.85573 18.3285L10.3536 15.2539H13.5925L13.136 18.0729ZM13.8582 13.6133L14.3807 10.3867H11.1418L10.6193 13.6133H13.8582Z" fill="white"/>
</svg>
