<svg width="20" height="20" viewBox="0 0 20 20" fill="none" xmlns="http://www.w3.org/2000/svg">
<path d="M15.1833 7.29451C14.4983 8.00439 13.3633 8.01974 12.6479 7.32833C11.9325 6.63692 11.9082 5.50113 12.5932 4.79125C13.2781 4.08136 14.4132 4.06601 15.1286 4.75742C15.844 5.44884 15.8683 6.58462 15.1833 7.29451Z" fill="white"/>
<path fill-rule="evenodd" clip-rule="evenodd" d="M7.55635 17.0443L7.53782 16.8798L7.69913 16.8923C8.26594 16.9362 8.79844 16.7114 9.15983 16.318C9.49488 15.954 9.6846 15.4438 9.62336 14.8996L9.60509 14.7374L9.98472 14.7668C10.5198 14.8082 11.0445 14.6086 11.4165 14.2231L12.1482 13.4648C14.346 14.1386 16.7922 13.8396 18.4577 12.1135C21.071 9.40515 20.1449 5.03521 17.4114 2.39337C14.6777 -0.248559 10.2795 -1.02334 7.66498 1.68618C5.99948 3.41224 5.78674 5.86894 6.53674 8.04303L0.829116 13.9582C0.403378 14.3994 0.141395 14.9733 0.0871247 15.585L0.00835283 16.4647L0.00821764 16.4662C-0.0949165 17.6314 0.774142 18.6583 1.94097 18.7488L5.62925 19.0345L5.63067 19.0346C6.13762 19.0744 6.61391 18.8985 6.96465 18.5865C7.38028 18.2168 7.62376 17.6512 7.55635 17.0443ZM5.96763 17.4658C6.03668 17.4044 6.07678 17.3113 6.06551 17.2099L5.84417 15.244L7.81501 15.3968C7.91053 15.4042 7.99723 15.3667 8.0557 15.3027C8.11177 15.242 8.14299 15.1582 8.13277 15.0675L7.91143 13.1016L10.1006 13.2713C10.1893 13.2781 10.2757 13.2452 10.337 13.1816L11.7557 11.7114C13.7904 12.6557 16.0218 12.4777 17.3783 11.0719C19.2051 9.1787 18.753 5.77599 16.369 3.47197C13.9849 1.16794 10.5712 0.834505 8.7444 2.72774C7.38797 4.1335 7.28805 6.37152 8.30211 8.37371L1.90854 14.9997C1.72079 15.1943 1.6051 15.4476 1.58121 15.7181L1.50238 16.5985C1.47284 16.9322 1.72254 17.2273 2.05684 17.2532L5.74775 17.5392C5.83252 17.5459 5.91012 17.517 5.96763 17.4658Z" fill="white"/>
</svg>
