<svg width="20" height="20" viewBox="0 0 20 20" fill="none" xmlns="http://www.w3.org/2000/svg">
<path d="M3.5541 8.44509C3.84708 8.15184 4.32245 8.15108 4.61562 8.44411C4.90868 8.73717 4.90866 9.21257 4.61562 9.50564L2.9496 11.1717C1.38786 12.7338 1.38763 15.2669 2.9496 16.8289C4.51153 18.3906 7.04378 18.3904 8.60585 16.8289L10.2719 15.1619C10.5647 14.869 11.0395 14.8691 11.3324 15.1619C11.6252 15.4547 11.6261 15.9296 11.3334 16.2224L9.6664 17.8894L9.46132 18.0847C7.30234 20.0348 3.96963 19.9698 1.88906 17.8894C-0.258707 15.7417 -0.258477 12.259 1.88906 10.1111L3.5541 8.44509Z" fill="white"/>
<path d="M11.9701 6.46951C12.263 6.17696 12.7379 6.17673 13.0307 6.46951C13.3233 6.76229 13.3232 7.23718 13.0307 7.53005L7.03066 13.5301C6.73781 13.8229 6.26302 13.8228 5.97011 13.5301C5.67722 13.2372 5.67722 12.7624 5.97011 12.4695L11.9701 6.46951Z" fill="white"/>
<path d="M9.6664 2.33279C11.8142 0.184997 15.2968 0.185186 17.4447 2.33279C19.5926 4.48067 19.5926 7.96322 17.4447 10.1111L15.9291 11.6267C15.6362 11.9192 15.1613 11.9195 14.8685 11.6267C14.5758 11.334 14.576 10.8591 14.8685 10.5662L16.3842 9.05056C17.9463 7.48846 17.9463 4.95543 16.3842 3.39333C14.8222 1.83166 12.29 1.83176 10.7279 3.39333L9.21132 4.90896C8.91838 5.20145 8.44353 5.20171 8.15078 4.90896C7.85808 4.61619 7.85831 4.14132 8.15078 3.84841L9.6664 2.33279Z" fill="white"/>
</svg>
