<svg width="20" height="20" viewBox="0 0 20 20" fill="none" xmlns="http://www.w3.org/2000/svg">
<path d="M13 1.5H2C1.72386 1.5 1.5 1.72386 1.5 2V13C1.5 13.2761 1.72386 13.5 2 13.5H7.25C7.66421 13.5 8 13.8358 8 14.25C8 14.6642 7.66421 15 7.25 15H2C0.89543 15 0 14.1046 0 13V2C0 0.89543 0.895431 0 2 0H13C14.1046 0 15 0.895431 15 2V2.25C15 2.66421 14.6642 3 14.25 3C13.8358 3 13.5 2.66421 13.5 2.25V2C13.5 1.72386 13.2761 1.5 13 1.5Z" fill="white"/>
<path d="M6.5 5C6.22386 5 6 5.22386 6 5.5V8.5C6 8.77614 6.22386 9 6.5 9C6.77614 9 7 8.77614 7 8.5V7.25C7 7.11193 7.11193 7 7.25 7H10.75C10.8881 7 11 7.11193 11 7.25V16.75C11 16.8881 10.8881 17 10.75 17H9.5C9.22386 17 9 17.2239 9 17.5C9 17.7761 9.22386 18 9.5 18H14.5C14.7761 18 15 17.7761 15 17.5C15 17.2239 14.7761 17 14.5 17H13.25C13.1119 17 13 16.8881 13 16.75V7.25C13 7.11193 13.1119 7 13.25 7H16.75C16.8881 7 17 7.11193 17 7.25V8.5C17 8.77614 17.2239 9 17.5 9C17.7761 9 18 8.77614 18 8.5V5.5C18 5.22386 17.7761 5 17.5 5H6.5Z" fill="white"/>
</svg>
