<svg width="20" height="20" viewBox="0 0 20 20" fill="none" xmlns="http://www.w3.org/2000/svg">
<path d="M2 1.5H13C13.2761 1.5 13.5 1.72386 13.5 2V2.25C13.5 2.66421 13.8358 3 14.25 3C14.6642 3 15 2.66421 15 2.25V2C15 0.895431 14.1046 0 13 0H2C0.895431 0 0 0.895431 0 2V13C0 14.1046 0.895431 15 2 15H3.25C3.66421 15 4 14.6642 4 14.25C4 13.8358 3.66421 13.5 3.25 13.5H2C1.72386 13.5 1.5 13.2761 1.5 13V2C1.5 1.72386 1.72386 1.5 2 1.5Z" fill="white"/>
<path d="M10 5C8.34315 5 7 6.34315 7 8V11H5.75C5.33579 11 5 11.3358 5 11.75C5 12.1642 5.33579 12.5 5.75 12.5H7V16C7 17.6569 8.34315 19 10 19H10.25C10.6642 19 11 18.6642 11 18.25C11 17.8358 10.6642 17.5 10.25 17.5H10C9.17157 17.5 8.5 16.8284 8.5 16V8C8.5 7.17157 9.17157 6.5 10 6.5H10.25C10.6642 6.5 11 6.16421 11 5.75C11 5.33579 10.6642 5 10.25 5H10Z" fill="white"/>
<path d="M15 5C16.6569 5 18 6.34315 18 8V11H19.25C19.6642 11 20 11.3358 20 11.75C20 12.1642 19.6642 12.5 19.25 12.5H18V16C18 17.6569 16.6569 19 15 19H14.75C14.3358 19 14 18.6642 14 18.25C14 17.8358 14.3358 17.5 14.75 17.5H15C15.8284 17.5 16.5 16.8284 16.5 16V8C16.5 7.17157 15.8284 6.5 15 6.5H14.75C14.3358 6.5 14 6.16421 14 5.75C14 5.33579 14.3358 5 14.75 5H15Z" fill="white"/>
</svg>
