<svg width="20" height="20" viewBox="0 0 20 20" fill="none" xmlns="http://www.w3.org/2000/svg">
<path d="M1 8.96429H2.91667V4.85714C2.91667 2.87346 4.58695 1.25 6.66667 1.25H7C7.42286 1.25 7.75 1.57829 7.75 1.96429C7.75 2.35028 7.42286 2.67857 7 2.67857H6.66667C5.43267 2.67857 4.41667 3.64546 4.41667 4.85714V15.1429C4.41667 16.3545 5.43267 17.3214 6.66667 17.3214H7C7.42286 17.3214 7.75 17.6497 7.75 18.0357C7.75 18.4217 7.42286 18.75 7 18.75H6.66667C4.58695 18.75 2.91667 17.1265 2.91667 15.1429V10.3929H1C0.577139 10.3929 0.25 10.0646 0.25 9.67857C0.25 9.29257 0.577139 8.96429 1 8.96429Z" fill="white"/>
<path d="M17.0833 4.85714V8.96429H19C19.4229 8.96429 19.75 9.29257 19.75 9.67857C19.75 10.0646 19.4229 10.3929 19 10.3929H17.0833V15.1429C17.0833 17.1265 15.413 18.75 13.3333 18.75H13C12.5771 18.75 12.25 18.4217 12.25 18.0357C12.25 17.6497 12.5771 17.3214 13 17.3214H13.3333C14.5673 17.3214 15.5833 16.3545 15.5833 15.1429V4.85714C15.5833 3.64546 14.5673 2.67857 13.3333 2.67857H13C12.5771 2.67857 12.25 2.35028 12.25 1.96429C12.25 1.57829 12.5771 1.25 13 1.25H13.3333C15.413 1.25 17.0833 2.87346 17.0833 4.85714Z" fill="white"/>
</svg>
