<svg width="20" height="20" viewBox="0 0 20 20" fill="none" xmlns="http://www.w3.org/2000/svg">
<path d="M2 1.69231C2 1.44638 2.19752 1.25 2.4375 1.25H17.5625C17.8025 1.25 18 1.44638 18 1.69231V5.84615C18 6.09208 17.8025 6.28846 17.5625 6.28846C17.3225 6.28846 17.125 6.09208 17.125 5.84615V4.11538C17.125 3.78778 16.8608 3.51923 16.5312 3.51923H11.7188C11.3892 3.51923 11.125 3.78778 11.125 4.11538V17.2692C11.125 17.5968 11.3892 17.8654 11.7188 17.8654H13.4375C13.6775 17.8654 13.875 18.0618 13.875 18.3077C13.875 18.5536 13.6775 18.75 13.4375 18.75H6.5625C6.32252 18.75 6.125 18.5536 6.125 18.3077C6.125 18.0618 6.32252 17.8654 6.5625 17.8654H8.28125C8.61081 17.8654 8.875 17.5968 8.875 17.2692V4.11538C8.875 3.78778 8.61081 3.51923 8.28125 3.51923H3.46875C3.13919 3.51923 2.875 3.78778 2.875 4.11538V5.84615C2.875 6.09208 2.67749 6.28846 2.4375 6.28846C2.19751 6.28846 2 6.09208 2 5.84615V1.69231Z" fill="white"/>
</svg>
