<svg width="52" height="52" viewBox="0 0 52 52" fill="none" xmlns="http://www.w3.org/2000/svg">
<g clip-path="url(#clip0_280_1893)">
<path fill-rule="evenodd" clip-rule="evenodd" d="M16.6465 48.109C13.1616 42.4438 6.85053 31.0555 6.90662 22.9589C6.9715 13.5939 11.5117 10.033 12.3538 9.37244L12.3906 9.34355C15.6435 6.782 19.899 5.48416 22.9531 6.90608C23.4667 6.97191 23.9446 7.02777 24.3902 7.07983C26.7669 7.35758 28.2227 7.52771 29.25 8.53103C29.7432 9.01275 30.0055 9.87619 30.2813 10.7838C30.6875 12.1209 31.1229 13.5539 32.3685 14.0034C33.2009 14.3037 34.0351 14.3669 34.9556 14.4366C36.3477 14.5419 39.562 15.0685 41.6406 16.0466C44.8061 17.5362 45.0938 19.0935 45.0938 19.0935C45.0938 19.0935 45.5 20.3779 45.0938 20.9873C44.6875 21.5966 43.875 21.531 42.8594 20.9216C41.2344 20.5153 36.5625 20.1092 36.5625 20.1092C36.5625 20.1092 32.7945 19.5435 31.0131 19.8215C29.9638 19.9852 29.0158 20.4836 28.0577 20.9872C27.3894 21.3386 26.7161 21.6925 26 21.9373C24.2574 22.533 21.4673 23.0383 19.899 23.0383C18.3306 23.0383 18.0982 26.5133 18.8921 28.1614C19.1283 28.6518 19.3131 29.1035 19.4975 29.5542C19.9327 30.6181 20.3657 31.6763 21.4673 33.2249C23.8916 36.6327 32.5723 43.9376 36.8233 47.4267C44.6408 43.47 50 35.3609 50 26C50 12.7452 39.2548 2 26 2C12.7452 2 2 12.7452 2 26C2 35.9367 8.03872 44.4629 16.6465 48.109ZM52 26C52 40.3594 40.3594 52 26 52C11.6406 52 0 40.3594 0 26C0 11.6406 11.6406 0 26 0C40.3594 0 52 11.6406 52 26ZM25.5523 12.5906C25.4912 13.2029 23.6587 14.0409 21.6712 13.8426C19.6837 13.6442 18.355 11.7781 18.355 11.0597C18.355 10.5622 20.1532 9.7545 22.1407 9.95287C24.1282 10.1512 25.5926 12.1872 25.5523 12.5906Z" fill="#444444"/>
</g>
<defs>
<clipPath id="clip0_280_1893">
<rect width="52" height="52" rx="26" fill="white"/>
</clipPath>
</defs>
</svg>
