<svg width="23" height="24" viewBox="0 0 23 24" fill="none" xmlns="http://www.w3.org/2000/svg">
<path d="M8.00293 2C8.00293 0.895431 8.89836 0 10.0029 0H12.0029C13.1075 0 14.0029 0.895431 14.0029 2H20.4029C21.2866 2 22.0029 2.71634 22.0029 3.6C22.0029 3.82091 21.8238 4 21.6029 4H0.402929C0.182015 4 0.00292969 3.82091 0.00292969 3.6C0.00292969 2.71634 0.719274 2 1.60293 2H8.00293Z" fill="#AAAAAA"/>
<path d="M7.50293 8C7.50293 7.44771 7.95064 7 8.50293 7C9.05521 7 9.50293 7.44772 9.50293 8V18C9.50293 18.5523 9.05521 19 8.50293 19C7.95064 19 7.50293 18.5523 7.50293 18V8Z" fill="#AAAAAA"/>
<path d="M13.5029 7C12.9506 7 12.5029 7.44771 12.5029 8V18C12.5029 18.5523 12.9506 19 13.5029 19C14.0552 19 14.5029 18.5523 14.5029 18V8C14.5029 7.44772 14.0552 7 13.5029 7Z" fill="#AAAAAA"/>
<path d="M3.00293 6C2.45064 6 2.00293 6.44772 2.00293 7V22C2.00293 23.1046 2.89836 24 4.00293 24H18.0029C19.1075 24 20.0029 23.1046 20.0029 22V7C20.0029 6.44772 19.5552 6 19.0029 6C18.4506 6 18.0029 6.44772 18.0029 7V21C18.0029 21.5523 17.5552 22 17.0029 22H5.00293C4.45064 22 4.00293 21.5523 4.00293 21V7C4.00293 6.44772 3.55521 6 3.00293 6Z" fill="#AAAAAA"/>
</svg>
