<svg width="6" height="6" viewBox="0 0 6 6" fill="none" xmlns="http://www.w3.org/2000/svg">
<path d="M3.2 5.384C2.76267 5.384 2.35733 5.28267 1.984 5.08C1.62133 4.86667 1.33333 4.57867 1.12 4.216C0.906667 3.85333 0.8 3.45333 0.8 3.016C0.8 2.568 0.906667 2.168 1.12 1.816C1.33333 1.45333 1.62133 1.17067 1.984 0.967999C2.35733 0.754666 2.76267 0.648 3.2 0.648C3.648 0.648 4.05333 0.754666 4.416 0.967999C4.77867 1.17067 5.06667 1.45333 5.28 1.816C5.504 2.168 5.616 2.568 5.616 3.016C5.616 3.45333 5.504 3.85333 5.28 4.216C5.06667 4.57867 4.77867 4.86667 4.416 5.08C4.05333 5.28267 3.648 5.384 3.2 5.384Z" fill="white"/>
</svg>
