<svg width="24" height="24" viewBox="0 0 24 24" fill="none" xmlns="http://www.w3.org/2000/svg">
<path fill-rule="evenodd" clip-rule="evenodd" d="M22.8099 1.18354C21.2232 -0.394514 18.6506 -0.394513 17.0638 1.18354L7.10389 11.089C6.45633 11.733 5.99591 12.5391 5.77136 13.4221L4.69129 17.6691C4.45551 18.5963 5.30133 19.4375 6.23359 19.203L10.504 18.1288C11.3918 17.9055 12.2024 17.4476 12.85 16.8036L22.8099 6.89818C24.3967 5.32012 24.3967 2.76159 22.8099 1.18354ZM18.5004 2.6122C19.2937 1.82317 20.58 1.82317 21.3734 2.6122C22.1668 3.40123 22.1668 4.68049 21.3734 5.46952L11.4135 15.3749C11.0249 15.7613 10.5386 16.0361 10.0059 16.1701L6.97411 16.9327L7.7409 13.9175C7.87563 13.3877 8.15188 12.904 8.54042 12.5176L18.5004 2.6122Z" fill="#AAAAAA"/>
<path d="M19.2998 13.8112C19.2998 13.5433 19.4068 13.2863 19.5973 13.0969L20.9845 11.7172C21.1125 11.5899 21.3313 11.6801 21.3313 11.8601V21.9796C21.3313 23.0954 20.4218 24 19.2998 24H2.03155C0.909558 24 0 23.0954 0 21.9796V4.80592C0 3.69007 0.909558 2.78549 2.03155 2.78549H12.2068C12.3877 2.78549 12.4784 3.00312 12.3504 3.1304L10.9632 4.51003C10.7727 4.69949 10.5143 4.80592 10.2449 4.80592H3.04733C2.48633 4.80592 2.03155 5.25821 2.03155 5.81613V20.9694C2.03155 21.5273 2.48633 21.9796 3.04733 21.9796H18.284C18.845 21.9796 19.2998 21.5273 19.2998 20.9694V13.8112Z" fill="#AAAAAA"/>
</svg>
