<svg width="20" height="20" viewBox="0 0 20 20" fill="none" xmlns="http://www.w3.org/2000/svg">
<path fill-rule="evenodd" clip-rule="evenodd" d="M2.04195 13.5553C2.25084 12.7293 2.67917 11.9752 3.28159 11.3728L12.5473 2.10711C14.0234 0.630965 16.4167 0.630964 17.8929 2.10711C19.369 3.58325 19.369 5.97655 17.8929 7.45269L8.62718 16.7184C8.02475 17.3208 7.27066 17.7492 6.44471 17.9581L2.47195 18.9628C1.60468 19.1822 0.817812 18.3953 1.03716 17.528L2.04195 13.5553ZM13.608 3.16777C14.4983 2.27741 15.9419 2.27741 16.8322 3.16777C17.7226 4.05812 17.7226 5.50168 16.8322 6.39203L15.4656 7.75866L12.2413 4.5344L13.608 3.16777ZM11.5342 5.24151L4.34225 12.4335C3.93108 12.8447 3.63873 13.3593 3.49616 13.9231L2.62246 17.3775L6.07692 16.5038C6.64065 16.3613 7.15534 16.0689 7.56652 15.6577L14.7585 8.46577L11.5342 5.24151Z" fill="white"/>
</svg>
