<svg width="20" height="20" viewBox="0 0 20 20" fill="none" xmlns="http://www.w3.org/2000/svg">
<path d="M4.73132 11.5834C4.6416 11.2842 4.87854 11 5.19092 11H14.8091C15.1215 11 15.3584 11.2842 15.2687 11.5834C14.5887 13.8491 12.4872 15.5 10 15.5C7.51282 15.5 5.41125 13.8491 4.73132 11.5834Z" fill="#666666"/>
<path d="M8.5 7.5C8.5 8.32843 7.94031 9 7.25 9C6.55969 9 6 8.32843 6 7.5C6 6.67157 6.55969 6 7.25 6C7.94031 6 8.5 6.67157 8.5 7.5Z" fill="#666666"/>
<path d="M12.75 9C13.4403 9 14 8.32843 14 7.5C14 6.67157 13.4403 6 12.75 6C12.0597 6 11.5 6.67157 11.5 7.5C11.5 8.32843 12.0597 9 12.75 9Z" fill="#666666"/>
<path fill-rule="evenodd" clip-rule="evenodd" d="M19 10C19 14.9706 14.9706 19 10 19C5.02942 19 1 14.9706 1 10C1 5.02945 5.02942 1 10 1C14.9706 1 19 5.02945 19 10ZM17.5 10C17.5 14.1422 14.1421 17.5 10 17.5C5.85791 17.5 2.5 14.1422 2.5 10C2.5 5.85785 5.85791 2.5 10 2.5C14.1421 2.5 17.5 5.85785 17.5 10Z" fill="#666666"/>
</svg>
