<svg width="24" height="24" viewBox="0 0 24 24" fill="none" xmlns="http://www.w3.org/2000/svg">
<path d="M13.4938 2.11081C13.798 2.15638 14.1102 2.07765 14.3436 1.87724L15.4764 0.904637C15.6237 0.778195 15.5766 0.54039 15.3904 0.485646C14.3153 0.169579 13.1774 0 12 0C5.37258 0 0 5.37258 0 12C0 15.4315 1.4403 18.5265 3.74935 20.7136C3.88812 20.8451 4.11408 20.7711 4.15413 20.5842L4.45454 19.1823C4.52168 18.869 4.43201 18.5445 4.23013 18.2957C2.8356 16.5767 2 14.386 2 12C2 6.47715 6.47715 2 12 2C12.5076 2 13.0064 2.03783 13.4938 2.11081Z" fill="#AAAAAA"/>
<path d="M10.43 21.8775C10.1139 21.8276 9.78862 21.9122 9.55115 22.1268L8.48577 23.0893C8.34397 23.2174 8.39276 23.45 8.57594 23.5044C9.66097 23.8269 10.8103 24 12 24C18.6274 24 24 18.6274 24 12C24 8.58099 22.5701 5.49595 20.2758 3.31023C20.1352 3.17632 19.9056 3.25445 19.8698 3.44524L19.5943 4.9102C19.5373 5.213 19.6256 5.52323 19.8179 5.76397C21.1836 7.47381 22 9.64156 22 12C22 17.5228 17.5228 22 12 22C11.4659 22 10.9415 21.9581 10.43 21.8775Z" fill="#AAAAAA"/>
<path fill-rule="evenodd" clip-rule="evenodd" d="M17.6959 1.63488C17.8844 1.47305 18.1742 1.64039 18.1283 1.88453L16.1675 12.312C15.9996 13.205 15.5443 14.0171 14.8702 14.6261L6.30901 22.3603C6.11977 22.5313 5.81953 22.3579 5.87297 22.1086L8.29046 10.8273C8.48081 9.93896 8.95648 9.13862 9.64584 8.54672L17.6959 1.63488ZM14.0002 12C14.0002 13.1046 13.1048 14 12.0002 14C10.8957 14 10.0002 13.1046 10.0002 12C10.0002 10.8955 10.8957 10 12.0002 10C13.1048 10 14.0002 10.8955 14.0002 12Z" fill="#AAAAAA"/>
</svg>
