<svg width="18" height="18" viewBox="0 0 18 18" fill="none" xmlns="http://www.w3.org/2000/svg">
<g clip-path="url(#clip0_646_2026)">
<path fill-rule="evenodd" clip-rule="evenodd" d="M17.5499 6.20776C17.9154 6.20776 18.128 6.60596 17.9155 6.89259L9.95579 17.6339C9.3989 18.3854 8.17142 17.8873 8.33986 16.9781L9.43657 11.0585H4.95016C4.57866 11.0585 4.36761 10.6486 4.59232 10.3635L12.4856 0.345895C13.0615 -0.38486 14.2663 0.135947 14.0831 1.03644L13.0311 6.20776H17.5499ZM1.8 4.38751C1.8 3.95256 2.15255 3.60001 2.5875 3.60001H5.9625C6.39745 3.60001 6.75 3.95256 6.75 4.38751C6.75 4.82246 6.39745 5.17501 5.9625 5.17501H2.5875C2.15255 5.17501 1.8 4.82246 1.8 4.38751ZM0.7875 8.10001C0.352551 8.10001 0 8.45256 0 8.88751C0 9.32246 0.352551 9.67501 0.7875 9.67501H2.8125C3.24745 9.67501 3.6 9.32246 3.6 8.88751C3.6 8.45256 3.24745 8.10001 2.8125 8.10001H0.7875ZM0.9 13.3875C0.9 12.9526 1.25255 12.6 1.6875 12.6H5.5125C5.94745 12.6 6.3 12.9526 6.3 13.3875C6.3 13.8225 5.94745 14.175 5.5125 14.175H1.6875C1.25255 14.175 0.9 13.8225 0.9 13.3875Z" fill="#FF9F2F"/>
</g>
<defs>
<clipPath id="clip0_646_2026">
<rect width="18" height="18" fill="white"/>
</clipPath>
</defs>
</svg>
