<svg width="18" height="18" viewBox="0 0 18 18" fill="none" xmlns="http://www.w3.org/2000/svg">
<path fill-rule="evenodd" clip-rule="evenodd" d="M3.64195 10.3968L3.64096 10.3959C3.6299 10.3859 3.61462 10.3721 3.59555 10.3545C3.55741 10.3193 3.50396 10.269 3.43843 10.2049C3.30754 10.0769 3.12738 9.89265 2.92406 9.66221C2.52078 9.20514 2.01025 8.54819 1.61729 7.77294C1.2261 7.00119 0.926547 6.06289 1.01587 5.0643C1.10751 4.0398 1.60141 3.0365 2.64203 2.15679C3.66536 1.29171 4.69384 0.94438 5.68 1.00716C6.6448 1.06858 7.45438 1.51546 8.07598 2.02034C8.5925 2.43987 9.01169 2.9253 9.3227 3.34212C9.6337 2.9253 10.0529 2.43987 10.5694 2.02035C11.1909 1.51546 12.0005 1.06858 12.9653 1.00716C13.9515 0.94438 14.98 1.2917 16.0034 2.15677C17.0039 3.00252 17.5602 3.89832 17.7734 4.79945C17.9858 5.69711 17.8394 6.52262 17.5721 7.20057C17.3069 7.87331 16.9157 8.42036 16.601 8.79284C16.4419 8.98108 16.298 9.12999 16.1918 9.23363C16.1385 9.28557 16.0944 9.32647 16.0622 9.35559C16.0495 9.3671 16.0386 9.37679 16.0297 9.38461L9.67385 15.6537C9.47915 15.8457 9.16631 15.8457 8.97162 15.6537L3.64195 10.3968Z" fill="#BC1870"/>
</svg>
