<svg width="24" height="24" viewBox="0 0 24 24" fill="none" xmlns="http://www.w3.org/2000/svg">
<path d="M9.16439 2.99988C8.70419 2.99988 8.33106 3.36622 8.33106 3.81806C8.33106 4.2699 8.70419 4.63624 9.16439 4.63624L14.8311 4.63624C15.2913 4.63624 15.6644 4.2699 15.6644 3.81806C15.6644 3.36622 15.2913 2.99988 14.8311 2.99988H9.16439Z" fill="white"/>
<path d="M5.83106 7.90897C5.83106 7.45713 6.20419 7.09079 6.66439 7.09079L17.3311 7.09079C17.7913 7.09079 18.1644 7.45713 18.1644 7.90897C18.1644 8.36081 17.7913 8.72715 17.3311 8.72715H6.66439C6.20419 8.72715 5.83106 8.36081 5.83106 7.90897Z" fill="white"/>
<path d="M4.99773 11.1817C3.61711 11.1817 2.49773 12.2807 2.49773 13.6362V15.8523C2.86343 15.97 3.20739 16.174 3.49771 16.4643C3.69792 16.2641 3.92363 16.1049 4.16439 15.9868V14.0453C4.16439 13.3674 4.72388 12.8181 5.41439 12.8181H18.5811C19.2716 12.8181 19.8311 13.3674 19.8311 14.0453V18.1362C19.8311 18.8142 19.2716 19.3635 18.5811 19.3635H7.49554C7.37911 19.5929 7.22501 19.8081 7.03324 19.9998C7.32358 20.2902 7.52758 20.6341 7.64524 20.9999L18.9977 20.9999C20.3783 20.9999 21.4977 19.9008 21.4977 18.5453L21.4977 13.6362C21.4977 12.2807 20.3783 11.1817 18.9977 11.1817L4.99773 11.1817Z" fill="white"/>
<path d="M1.02289 18.9393C0.632365 18.5488 0.632365 17.9156 1.02289 17.5251C1.41341 17.1345 2.04658 17.1345 2.4371 17.5251L3.49776 18.5857L4.55842 17.5251C4.94895 17.1345 5.58211 17.1345 5.97264 17.5251C6.36316 17.9156 6.36316 18.5488 5.97264 18.9393L4.91198 19.9999L5.97264 21.0606C6.36316 21.4511 6.36316 22.0843 5.97264 22.4748C5.58211 22.8653 4.94895 22.8653 4.55842 22.4748L3.49776 21.4142L2.4371 22.4748C2.04658 22.8653 1.41341 22.8653 1.02289 22.4748C0.632365 22.0843 0.632365 21.4511 1.02289 21.0606L2.08355 19.9999L1.02289 18.9393Z" fill="white"/>
</svg>
