<svg width="20" height="20" viewBox="0 0 20 20" fill="none" xmlns="http://www.w3.org/2000/svg">
<path d="M6.37827 6.99579C6.68928 7.24558 7.15 7.02327 7.15 6.62341V4.75435H14.75C16.324 4.75435 17.6 6.03538 17.6 7.61561V11.1969C17.6 11.5215 17.5462 11.8335 17.4469 12.1244C17.3742 12.3375 17.4232 12.5809 17.5984 12.7216L18.3812 13.3503C18.6043 13.5295 18.9353 13.4722 19.0562 13.2124C19.3409 12.6001 19.5 11.9172 19.5 11.1969V7.61561C19.5 4.98189 17.3734 2.84684 14.75 2.84684H7.15V0.977773C7.15 0.577908 6.68928 0.3556 6.37827 0.605394L2.86364 3.42821C2.62595 3.61912 2.62595 3.98206 2.86364 4.17297L6.37827 6.99579Z" fill="#52CE0A"/>
<path d="M1.61881 6.64968C1.39572 6.4705 1.06472 6.52776 0.943833 6.78764C0.659057 7.39986 0.5 8.08284 0.5 8.80311V12.3844C0.5 15.0181 2.62665 17.1532 5.25 17.1532H12.85V19.0222C12.85 19.4221 13.3107 19.6444 13.6217 19.3946L17.1364 16.5718C17.3741 16.3809 17.3741 16.0179 17.1364 15.827L13.6217 13.0042C13.3107 12.7544 12.85 12.9767 12.85 13.3766V15.2457H5.25C3.67599 15.2457 2.4 13.9646 2.4 12.3844V8.80311C2.4 8.47849 2.45385 8.16649 2.55307 7.87562C2.62576 7.66252 2.57677 7.41908 2.40157 7.27836L1.61881 6.64968Z" fill="#52CE0A"/>
</svg>
