<svg width="20" height="20" viewBox="0 0 20 20" fill="none" xmlns="http://www.w3.org/2000/svg">
<g clip-path="url(#clip0_4280_7)">
<path d="M8.1226 0.999878C7.67941 0.999878 7.32007 1.35268 7.32007 1.78781C7.32007 2.22295 7.67941 2.57575 8.1226 2.57575L13.5798 2.57575C14.023 2.57575 14.3823 2.22295 14.3823 1.78781C14.3823 1.35268 14.023 0.999878 13.5798 0.999878H8.1226Z" fill="white"/>
<path d="M4.91249 5.72749C4.91249 5.29236 5.27183 4.93956 5.71502 4.93956L15.9874 4.93956C16.4306 4.93956 16.7899 5.29236 16.7899 5.72749C16.7899 6.16263 16.4306 6.51543 15.9874 6.51543H5.71502C5.27182 6.51543 4.91249 6.16263 4.91249 5.72749Z" fill="white"/>
<path d="M4.10996 8.87923C2.78039 8.87923 1.70238 9.93764 1.70238 11.243V13.3772C2.05456 13.4905 2.38581 13.687 2.6654 13.9665C2.8582 13.7737 3.07558 13.6205 3.30744 13.5067V11.637C3.30744 10.9841 3.84624 10.4551 4.51123 10.4551H17.1912C17.8561 10.4551 18.3949 10.9841 18.3949 11.637V15.5767C18.3949 16.2296 17.8561 16.7586 17.1912 16.7586H6.51544C6.40331 16.9795 6.25491 17.1867 6.07023 17.3714C6.34984 17.651 6.5463 17.9823 6.6596 18.3345H17.5924C18.922 18.3345 20 17.2761 20 15.9707L20 11.243C20 9.93764 18.922 8.87923 17.5924 8.87923L4.10996 8.87923Z" fill="white"/>
<path d="M0.282066 16.35C-0.094022 15.974 -0.0940219 15.3642 0.282066 14.9881C0.658153 14.612 1.26791 14.612 1.644 14.9881L2.66545 16.0096L3.6869 14.9881C4.06299 14.612 4.67275 14.612 5.04883 14.9881C5.42492 15.3642 5.42492 15.974 5.04883 16.35L4.02738 17.3715L5.04883 18.3929C5.42492 18.769 5.42492 19.3788 5.04883 19.7549C4.67275 20.131 4.06299 20.131 3.6869 19.7549L2.66545 18.7334L1.644 19.7549C1.26791 20.131 0.658153 20.131 0.282066 19.7549C-0.0940219 19.3788 -0.0940218 18.769 0.282066 18.3929L1.30352 17.3715L0.282066 16.35Z" fill="white"/>
</g>
<defs>
<clipPath id="clip0_4280_7">
<rect width="20" height="20" fill="white"/>
</clipPath>
</defs>
</svg>
