<svg width="20" height="19" viewBox="0 0 20 19" fill="none" xmlns="http://www.w3.org/2000/svg">
<path fill-rule="evenodd" clip-rule="evenodd" d="M3.1312 11.6369L3.13003 11.6359C3.11691 11.6241 3.09881 11.6077 3.0762 11.5868C3.031 11.5451 2.96766 11.4855 2.88999 11.4095C2.73487 11.2578 2.52134 11.0394 2.28037 10.7663C1.8024 10.2246 1.19733 9.446 0.731598 8.52719C0.267965 7.61252 -0.087055 6.50047 0.0188101 5.31694C0.12742 4.10273 0.712781 2.91363 1.94612 1.87101C3.15894 0.845728 4.37788 0.43408 5.54667 0.508488C6.69013 0.581283 7.64964 1.11092 8.38635 1.70929C8.99851 2.20651 9.49533 2.78184 9.86394 3.27584C10.2325 2.78184 10.7293 2.20651 11.3415 1.7093C12.0782 1.11092 13.0377 0.581281 14.1811 0.508486C15.3499 0.43408 16.5689 0.845722 17.7818 1.87099C18.9676 2.87336 19.6269 3.93505 19.8796 5.00306C20.1313 6.06694 19.9579 7.04533 19.6411 7.84883C19.3267 8.64614 18.863 9.2945 18.49 9.73596C18.3016 9.95906 18.131 10.1355 18.0051 10.2584C17.942 10.3199 17.8897 10.3684 17.8515 10.4029C17.8364 10.4166 17.8235 10.428 17.813 10.4373L10.2151 17.9315C10.0204 18.1235 9.70755 18.1235 9.51286 17.9315L3.1312 11.6369Z" fill="#CA077C"/>
</svg>
