<svg width="18" height="18" viewBox="0 0 18 18" fill="none" xmlns="http://www.w3.org/2000/svg">
<path fill-rule="evenodd" clip-rule="evenodd" d="M10.0132 5.10756L9.78323 5.56125C9.5935 5.93552 9.05201 5.93553 8.86227 5.56127L8.63264 5.10834L8.62905 5.10143C8.62565 5.09494 8.61986 5.08399 8.61174 5.06899C8.59548 5.03897 8.56994 4.99284 8.5355 4.93374C8.46648 4.81526 8.36261 4.64621 8.22713 4.45121C7.9526 4.05606 7.56519 3.57896 7.09416 3.19637C6.62169 2.81262 6.11197 2.56128 5.58052 2.52745C5.07043 2.49497 4.42571 2.65536 3.64715 3.31352C2.8859 3.95706 2.60757 4.60405 2.55443 5.19819C2.49897 5.81822 2.68208 6.46687 2.99878 7.09167C3.31371 7.71297 3.7363 8.26217 4.08917 8.66209C4.26393 8.86016 4.4176 9.01714 4.52603 9.1232C4.58015 9.17615 4.62273 9.21614 4.65071 9.24195C4.66469 9.25485 4.67499 9.26418 4.68124 9.2698L4.68739 9.2753L4.68827 9.27608L4.70433 9.29016L8.97162 13.4992C9.16631 13.6912 9.47916 13.6912 9.67385 13.4992L14.9758 8.26966L14.9963 8.25233L14.9973 8.25146L14.9992 8.24979L15.0187 8.23239C15.0375 8.21538 15.0673 8.18784 15.1056 8.1505C15.1824 8.07559 15.2919 7.96263 15.4144 7.81758C15.6629 7.52349 15.9474 7.11831 16.1326 6.64841C16.3158 6.18372 16.3948 5.67619 16.2693 5.14565C16.1446 4.61858 15.7998 3.99103 14.9983 3.31354C14.2197 2.65536 13.5749 2.49497 13.0648 2.52745C12.5334 2.56128 12.0236 2.81262 11.5512 3.19636C11.0802 3.57895 10.6928 4.05604 10.4183 4.45119C10.2828 4.64619 10.179 4.81524 10.11 4.93371C10.0755 4.99281 10.05 5.03894 10.0337 5.06897C10.0256 5.08397 10.0198 5.09491 10.0164 5.1014L10.0132 5.10756ZM3.64195 10.3968L3.64096 10.3959C3.6299 10.3859 3.61462 10.3721 3.59555 10.3545C3.55741 10.3193 3.50396 10.269 3.43843 10.2049C3.30755 10.0769 3.12738 9.89265 2.92406 9.66221C2.52078 9.20514 2.01025 8.54819 1.61729 7.77294C1.2261 7.00119 0.926547 6.06289 1.01587 5.0643C1.10751 4.0398 1.60141 3.0365 2.64203 2.15679C3.66536 1.29171 4.69384 0.94438 5.68 1.00716C6.6448 1.06858 7.45438 1.51546 8.07598 2.02034C8.5925 2.43987 9.01169 2.9253 9.3227 3.34212C9.6337 2.9253 10.0529 2.43987 10.5694 2.02035C11.1909 1.51546 12.0005 1.06858 12.9653 1.00716C13.9515 0.94438 14.98 1.2917 16.0034 2.15677C17.0039 3.00252 17.5602 3.89832 17.7734 4.79945C17.9858 5.69711 17.8394 6.52262 17.5721 7.20057C17.3069 7.87331 16.9157 8.42036 16.601 8.79284C16.4419 8.98108 16.298 9.12999 16.1918 9.23363C16.1385 9.28557 16.0944 9.32647 16.0622 9.35559C16.0495 9.3671 16.0386 9.37679 16.0297 9.38461L9.67385 15.6537C9.47916 15.8457 9.16631 15.8457 8.97162 15.6537L3.64195 10.3968Z" fill="#666666"/>
</svg>
