<svg width="18" height="18" viewBox="0 0 18 18" fill="none" xmlns="http://www.w3.org/2000/svg">
<path d="M6.2595 5.81202C6.53778 6.03552 6.95 5.83661 6.95 5.47884V3.80652H13.75C15.1583 3.80652 16.3 4.95271 16.3 6.3666V9.5709C16.3 9.86135 16.2518 10.1405 16.163 10.4008C16.098 10.5914 16.1418 10.8092 16.2986 10.9352L16.999 11.4977C17.1986 11.658 17.4947 11.6067 17.6029 11.3742C17.8577 10.8264 18 10.2154 18 9.5709V6.3666C18 4.01011 16.0972 2.0998 13.75 2.0998H6.95V0.427481C6.95 0.069707 6.53778 -0.1292 6.2595 0.0942999L3.11484 2.61998C2.90216 2.79079 2.90216 3.11553 3.11484 3.28634L6.2595 5.81202Z" fill="#66E205"/>
<path d="M2.00104 5.50235C1.80143 5.34203 1.50528 5.39326 1.39711 5.62579C1.14231 6.17356 1 6.78464 1 7.4291V10.6334C1 12.9899 2.90279 14.9002 5.25 14.9002H12.05V16.5725C12.05 16.9303 12.4622 17.1292 12.7405 16.9057L15.8852 14.38C16.0978 14.2092 16.0978 13.8845 15.8852 13.7137L12.7405 11.188C12.4622 10.9645 12.05 11.1634 12.05 11.5212V13.1935H5.25C3.84167 13.1935 2.7 12.0473 2.7 10.6334V7.4291C2.7 7.13864 2.74818 6.85949 2.83695 6.59924C2.902 6.40857 2.85816 6.19075 2.7014 6.06485L2.00104 5.50235Z" fill="#66E205"/>
</svg>
