<svg width="18" height="18" viewBox="0 0 18 18" fill="none" xmlns="http://www.w3.org/2000/svg">
<g clip-path="url(#clip0_2584_7892)">
<path fill-rule="evenodd" clip-rule="evenodd" d="M4.0841 11.2595L3.78577 14.6592L7.20662 12.4102L7.81646 12.4814C8.20105 12.5264 8.59631 12.5498 9 12.5498C11.1503 12.5498 13.0338 11.8857 14.3431 10.891C15.6512 9.89724 16.3125 8.6471 16.3125 7.39992C16.3125 6.15274 15.6512 4.9026 14.3431 3.90884C13.0338 2.91415 11.1503 2.25 9 2.25C6.84965 2.25 4.96617 2.91415 3.65687 3.90884C2.34881 4.9026 1.6875 6.15274 1.6875 7.39992C1.6875 8.56858 2.26553 9.73351 3.41097 10.6947L4.0841 11.2595ZM2.77093 17.3459C2.37805 17.6042 1.86047 17.2951 1.90158 16.8267L2.32624 11.9874C0.880583 10.7743 0 9.16522 0 7.39992C0 3.62372 4.02944 0.5625 9 0.5625C13.9706 0.5625 18 3.62372 18 7.39992C18 11.1761 13.9706 14.2373 9 14.2373C8.53096 14.2373 8.07029 14.2101 7.62061 14.1575L2.77093 17.3459Z" fill="#666666"/>
</g>
<defs>
<clipPath id="clip0_2584_7892">
<rect width="18" height="18" fill="white"/>
</clipPath>
</defs>
</svg>
