<svg width="22" height="22" viewBox="0 0 22 22" fill="none" xmlns="http://www.w3.org/2000/svg">
<path fill-rule="evenodd" clip-rule="evenodd" d="M5.53788 14.0425L5.20641 17.8698L9.00735 15.3379L9.68496 15.4181C10.1123 15.4687 10.5515 15.4951 11 15.4951C13.3893 15.4951 15.482 14.7475 16.9368 13.6276C18.3902 12.5089 19.125 11.1015 19.125 9.69745C19.125 8.2934 18.3902 6.88601 16.9368 5.76726C15.482 4.64745 13.3893 3.89976 11 3.89976C8.61072 3.89976 6.51797 4.64745 5.06319 5.76726C3.60979 6.88601 2.875 8.2934 2.875 9.69745C2.875 11.0131 3.51725 12.3246 4.78997 13.4067L5.53788 14.0425ZM4.07881 20.8945C3.64227 21.1853 3.06719 20.8373 3.11286 20.31L3.58471 14.8619C1.97843 13.4962 1 11.6848 1 9.69745C1 5.44627 5.47715 2 11 2C16.5228 2 21 5.44627 21 9.69745C21 13.9486 16.5228 17.3949 11 17.3949C10.4788 17.3949 9.96699 17.3642 9.46734 17.3051L4.07881 20.8945Z" fill="#666666"/>
</svg>
