<svg width="20" height="20" viewBox="0 0 20 20" fill="none" xmlns="http://www.w3.org/2000/svg">
<path d="M8.52713 1C8.09903 1 7.75194 1.33954 7.75194 1.75832C7.75194 2.17709 8.09903 2.51663 8.52713 2.51663H13.7984C14.2265 2.51663 14.5736 2.17709 14.5736 1.75832C14.5736 1.33954 14.2265 1 13.7984 1H8.52713Z" fill="white"/>
<path d="M5.42636 5.54989C5.42636 5.13111 5.77345 4.79157 6.20155 4.79157H16.124C16.5521 4.79157 16.8992 5.13111 16.8992 5.54989C16.8992 5.96867 16.5521 6.3082 16.124 6.3082H6.20155C5.77345 6.3082 5.42636 5.96867 5.42636 5.54989Z" fill="white"/>
<path d="M4.65116 8.58315C3.36687 8.58315 2.32558 9.60176 2.32558 10.8581V12.3148C2.61045 12.1907 2.92507 12.122 3.25581 12.122C3.47058 12.122 3.67854 12.151 3.87597 12.2052V11.2373C3.87597 10.6089 4.39642 10.0998 5.03876 10.0998H17.2868C17.9292 10.0998 18.4496 10.6089 18.4496 11.2373V15.0288C18.4496 15.6572 17.9292 16.1663 17.2868 16.1663H7.83096C7.88056 16.3546 7.90698 16.5523 7.90698 16.7561C7.90698 17.0856 7.83793 17.3991 7.71347 17.6829H17.6744C18.9587 17.6829 20 16.6643 20 15.408V10.8581C20 9.60176 18.9587 8.58315 17.6744 8.58315H4.65116Z" fill="white"/>
<path d="M2.32558 14.439C2.32558 13.9272 2.74206 13.5122 3.25581 13.5122C3.76957 13.5122 4.18605 13.9272 4.18605 14.439V15.8293H5.5814C6.09515 15.8293 6.51163 16.2442 6.51163 16.7561C6.51163 17.268 6.09515 17.6829 5.5814 17.6829H4.18605V19.0732C4.18605 19.585 3.76957 20 3.25581 20C2.74206 20 2.32558 19.585 2.32558 19.0732V17.6829H0.930233C0.416479 17.6829 0 17.268 0 16.7561C0 16.2442 0.416479 15.8293 0.930233 15.8293H2.32558V14.439Z" fill="white"/>
</svg>
