<svg width="20" height="19" viewBox="0 0 20 19" fill="none" xmlns="http://www.w3.org/2000/svg">
<path fill-rule="evenodd" clip-rule="evenodd" d="M10.6823 5.36822L10.4098 5.90592C10.1849 6.3495 9.54313 6.34951 9.31824 5.90595L9.04609 5.36914L9.04183 5.36096C9.0378 5.35326 9.03095 5.34029 9.02132 5.32251C9.00205 5.28693 8.97178 5.23226 8.93097 5.16221C8.84915 5.02179 8.72605 4.82144 8.56549 4.59032C8.24012 4.122 7.78097 3.55655 7.2227 3.10311C6.66274 2.6483 6.05864 2.35041 5.42876 2.31031C4.82421 2.27182 4.0601 2.46191 3.13737 3.24195C2.23514 4.00466 1.90527 4.77147 1.84229 5.47563C1.77655 6.21048 1.99357 6.97926 2.36892 7.71976C2.74217 8.45611 3.24303 9.10701 3.66124 9.581C3.86836 9.81574 4.05049 10.0018 4.179 10.1275C4.24314 10.1902 4.29361 10.2376 4.32676 10.2682C4.34333 10.2835 4.35555 10.2946 4.36295 10.3012L4.37024 10.3078L4.37128 10.3087L4.39032 10.3254L9.51286 15.378C9.70755 15.57 10.0204 15.57 10.2151 15.378L16.5639 9.1159L16.5882 9.09535L16.5894 9.09432L16.5916 9.09235L16.6148 9.07172C16.6371 9.05157 16.6724 9.01892 16.7178 8.97467C16.8088 8.88589 16.9385 8.752 17.0837 8.5801C17.3782 8.23154 17.7154 7.75133 17.935 7.19441C18.1521 6.64366 18.2457 6.04215 18.0969 5.41336C17.9491 4.78869 17.5405 4.04493 16.5906 3.24198C15.6678 2.46191 14.9036 2.27182 14.299 2.31031C13.6692 2.35041 13.0651 2.64829 12.5051 3.1031C11.9469 3.55653 11.4878 4.12198 11.1624 4.5903C11.0019 4.82141 10.8788 5.02176 10.797 5.16218C10.7562 5.23222 10.7259 5.28689 10.7066 5.32248C10.697 5.34026 10.6902 5.35323 10.6861 5.36092L10.6823 5.36822ZM3.13121 11.6369L3.13003 11.6359C3.11691 11.6241 3.09881 11.6077 3.0762 11.5868C3.031 11.5451 2.96766 11.4855 2.88999 11.4095C2.73487 11.2578 2.52134 11.0394 2.28037 10.7663C1.8024 10.2246 1.19733 9.446 0.731598 8.52719C0.267965 7.61252 -0.087055 6.50047 0.0188101 5.31694C0.12742 4.10273 0.712781 2.91363 1.94612 1.87101C3.15894 0.845728 4.37788 0.43408 5.54667 0.508488C6.69013 0.581283 7.64964 1.11092 8.38635 1.70929C8.99852 2.20651 9.49533 2.78184 9.86395 3.27584C10.2325 2.78184 10.7293 2.20651 11.3415 1.7093C12.0782 1.11092 13.0377 0.581281 14.1811 0.508486C15.3499 0.43408 16.5689 0.845722 17.7818 1.87099C18.9676 2.87336 19.6269 3.93505 19.8796 5.00306C20.1313 6.06694 19.9579 7.04533 19.6411 7.84883C19.3267 8.64614 18.863 9.2945 18.49 9.73596C18.3016 9.95906 18.131 10.1355 18.0051 10.2584C17.942 10.3199 17.8897 10.3684 17.8515 10.4029C17.8364 10.4166 17.8235 10.428 17.813 10.4373L10.2151 17.9315C10.0204 18.1235 9.70755 18.1235 9.51286 17.9315L3.13121 11.6369Z" fill="#666666"/>
</svg>
