<?xml version="1.0" encoding="UTF-8" standalone="no"?>
<svg
   width="17"
   height="16"
   viewBox="0 0 17 16"
   fill="none"
   version="1.1"
   id="svg1"
   sodipodi:docname="feed_zap_fill_2.svg"
   inkscape:version="1.3.2 (091e20ef0f, 2023-11-25)"
   xmlns:inkscape="http://www.inkscape.org/namespaces/inkscape"
   xmlns:sodipodi="http://sodipodi.sourceforge.net/DTD/sodipodi-0.dtd"
   xmlns="http://www.w3.org/2000/svg"
   xmlns:svg="http://www.w3.org/2000/svg">
  <defs
     id="defs1">
    <inkscape:path-effect
       effect="powerstroke"
       id="path-effect23"
       is_visible="true"
       lpeversion="1.3"
       scale_width="1"
       interpolator_type="CentripetalCatmullRom"
       interpolator_beta="0.75"
       start_linecap_type="round"
       end_linecap_type="round"
       offset_points="59.83507,0.234375"
       linejoin_type="spiro"
       miter_limit="4"
       not_jump="true"
       sort_points="true"
       message="&lt;b&gt;Ctrl + click&lt;/b&gt; on existing node and move it" />
    <inkscape:path-effect
       effect="simplify"
       id="path-effect22"
       is_visible="true"
       lpeversion="1.3"
       threshold="0.012"
       steps="1"
       smooth_angles="0"
       helper_size="0"
       simplify_individual_paths="false"
       simplify_just_coalesce="false"
       step="1" />
    <inkscape:path-effect
       effect="powerstroke"
       id="path-effect21"
       is_visible="true"
       lpeversion="1.3"
       scale_width="1"
       interpolator_type="CentripetalCatmullRom"
       interpolator_beta="0.75"
       start_linecap_type="round"
       end_linecap_type="round"
       offset_points="6.3796197,0.234375"
       linejoin_type="spiro"
       miter_limit="4"
       not_jump="true"
       sort_points="true"
       message="&lt;b&gt;Ctrl + click&lt;/b&gt; on existing node and move it" />
    <inkscape:path-effect
       effect="simplify"
       id="path-effect20"
       is_visible="true"
       lpeversion="1.3"
       threshold="0.012"
       steps="1"
       smooth_angles="0"
       helper_size="0"
       simplify_individual_paths="false"
       simplify_just_coalesce="false"
       step="1" />
    <inkscape:path-effect
       effect="spiro"
       id="path-effect19"
       is_visible="true"
       lpeversion="1" />
    <inkscape:path-effect
       effect="powerstroke"
       id="path-effect18"
       is_visible="true"
       lpeversion="1.3"
       scale_width="1"
       interpolator_type="CentripetalCatmullRom"
       interpolator_beta="0.75"
       start_linecap_type="round"
       end_linecap_type="round"
       offset_points="5.8047401,0.234375"
       linejoin_type="spiro"
       miter_limit="4"
       not_jump="true"
       sort_points="true"
       message="&lt;b&gt;Ctrl + click&lt;/b&gt; on existing node and move it" />
    <inkscape:path-effect
       effect="simplify"
       id="path-effect17"
       is_visible="true"
       lpeversion="1.3"
       threshold="0.012"
       steps="1"
       smooth_angles="0"
       helper_size="0"
       simplify_individual_paths="false"
       simplify_just_coalesce="false"
       step="1" />
  </defs>
  <sodipodi:namedview
     id="namedview1"
     pagecolor="#ffffff"
     bordercolor="#000000"
     borderopacity="0.25"
     inkscape:showpageshadow="2"
     inkscape:pageopacity="0.0"
     inkscape:pagecheckerboard="0"
     inkscape:deskcolor="#d1d1d1"
     inkscape:zoom="64"
     inkscape:cx="7.7109375"
     inkscape:cy="6.984375"
     inkscape:window-width="1920"
     inkscape:window-height="1048"
     inkscape:window-x="0"
     inkscape:window-y="32"
     inkscape:window-maximized="1"
     inkscape:current-layer="svg1" />
  <g
     id="g23">
    <path
       fill-rule="evenodd"
       clip-rule="evenodd"
       d="M14.4249 6.12675C14.6137 5.87196 14.4248 5.51801 14.0999 5.51801H10.0832L11.0183 0.921281C11.1812 0.120841 10.1102 -0.342098 9.59833 0.307462L2.58206 9.21196C2.38232 9.46542 2.56992 9.82978 2.90014 9.82978H6.88806L5.91321 15.0917C5.76349 15.8998 6.85458 16.3425 7.34959 15.6746L14.4249 6.12675ZM9.14967 3.10463L8.38461 6.86542H12.1596L7.7564 12.8074L8.55767 8.48237H4.91231L9.14967 3.10463Z"
       fill="#666666"
       id="path1" />
  </g>
  <path
     style="fill:#666666;fill-opacity:1;stroke-width:0.0188235"
     d="m 7.7805841,12.715294 c 0.00776,-0.02732 0.6822997,-3.6579553 0.7772583,-4.1835293 l 0.011053,-0.061177 H 6.7581733 c -0.9958973,0 -1.8078988,-0.00712 -1.8044478,-0.015828 0.00894,-0.022552 4.1634926,-5.292057 4.1684241,-5.2870994 0.00297,0.00298 -0.6498505,3.2337418 -0.737747,3.6510715 l -0.010883,0.051674 1.8808124,0.0048 1.880813,0.0048 -2.1604707,2.9154867 C 8.7864155,11.39901 7.8042323,12.720422 7.7920452,12.731963 c -0.016719,0.01583 -0.019532,0.01174 -0.011461,-0.01666 z"
     id="path2" />
  <path
     style="fill:#666666;fill-opacity:1;stroke-width:0.0188235"
     d="m 7.7985239,12.668235 c 0.013592,-0.06067 0.3770223,-2.011369 0.6031998,-3.2376468 L 8.5770524,8.48 7.4555849,8.4685696 C 6.838778,8.4622827 6.0272804,8.4559298 5.652257,8.454452 L 4.9703964,8.4517647 5.3501231,7.9670588 C 5.8653763,7.3093591 7.5647853,5.1524542 8.2236136,4.32 8.5185835,3.9472941 8.8322616,3.5506702 8.9206756,3.4386135 9.0090897,3.3265567 9.0839475,3.2424307 9.0870263,3.2516668 c 0.00443,0.013301 -0.4542436,2.3094707 -0.6787251,3.397745 -0.025092,0.121647 -0.044637,0.2226097 -0.043432,0.2243614 0.0012,0.00175 0.8438718,0.0081 1.8725948,0.014118 l 1.870403,0.010933 -1.325395,1.7882353 C 7.7650935,12.75813 7.7840523,12.732835 7.7985239,12.668235 Z"
     id="path3" />
  <path
     style="fill:#666666;fill-opacity:1;stroke:none"
     d="M 9.2248716,3.0359321 8.0063505,4.5623274"
     id="path18"
     inkscape:path-effect="#path-effect19"
     inkscape:original-d="M 9.2248716,3.0359321 8.0063505,4.5623274" />
  <path
     d="m 5.0144688,8.697793 c 0.018325,-0.026913 0.031233,-0.052686 0.039999,-0.071174 0.01406,-0.029917 0.025235,-0.0582 0.034475,-0.081885 0.013521,-0.034709 0.022869,-0.060166 0.033964,-0.086016 0.0055,-0.012734 0.00916,-0.020202 0.011922,-0.025076 0.00249,-0.00431 1.37e-4,0.00353 -0.017253,0.019837 -0.00864,0.00797 -0.02382,0.0208 -0.047088,0.031765 0.042475,-0.020386 0.073723,-0.044843 0.091072,-0.058797 0.025949,-0.0211 0.047924,-0.041749 0.066775,-0.060253 0.029338,-0.028896 0.056337,-0.057895 0.08167,-0.085949 0.039778,-0.044134 0.077648,-0.088517 0.1147064,-0.1323994 0.039286,-0.046526 0.077636,-0.092707 0.1159838,-0.1375815 0.021076,-0.024617 0.041185,-0.047772 0.061328,-0.069617 0.00767,-0.00832 0.015336,-0.016345 0.023055,-0.024084 0.031582,-0.03312 0.049928,-0.062959 0.058077,-0.076182 0.015204,-0.024816 0.023151,-0.038984 0.024978,-0.04167 0.00137,-0.00198 -0.00529,0.011894 -0.032943,0.030956 0.048271,-0.035106 0.084823,-0.070244 0.1158343,-0.1047229 0.03505,-0.038995 0.064737,-0.078955 0.090357,-0.1159359 0.04712,-0.068083 0.084409,-0.1308852 0.1199307,-0.1825127 0.018496,-0.026845 0.035223,-0.049078 0.051855,-0.067865 0.00582,-0.00662 0.012489,-0.01352 0.023691,-0.024646 0.078656,-0.079268 0.1518685,-0.160719 0.2220587,-0.2441485 0.082873,-0.09856 0.1616581,-0.2000521 0.2378266,-0.3034126 0.093665,-0.1271601 0.183202,-0.2569584 0.2706696,-0.3884414 0.026027,-0.039131 0.051946,-0.078533 0.077869,-0.1182961 -0.0059,0.00899 -0.00963,0.01144 -9.19e-5,0.00219 0.011485,-0.011057 0.03544,-0.030695 0.066855,-0.063547 0.019548,-0.020394 0.043906,-0.048708 0.065296,-0.084852 0.029104,-0.047234 0.064836,-0.097706 0.1048158,-0.1505792 0.072989,-0.096482 0.1572007,-0.1961389 0.2412256,-0.3081773 0.044429,-0.059273 0.089831,-0.1236101 0.1316536,-0.1929758 0.010219,-0.016874 0.019831,-0.033715 0.028344,-0.04879 -0.00714,0.012152 -0.010184,0.01411 -0.00537,0.00948 0.00675,-0.00649 0.015655,-0.01374 0.03557,-0.029418 0.019396,-0.015247 0.05312,-0.041227 0.084577,-0.072227 0.021034,-0.020733 0.04424,-0.046698 0.065396,-0.078401 C 7.7494914,5.1935746 7.801053,5.125941 7.8572714,5.056728 7.9550264,4.9363769 8.0649555,4.8143565 8.1735266,4.6790813 8.228133,4.611034 8.2829904,4.5386542 8.3344508,4.4615954 c 0.011749,-0.017589 0.027582,-0.036868 0.049369,-0.06015 0.038133,-0.040728 0.090693,-0.087808 0.1482904,-0.1508101 0.030563,-0.033453 0.063919,-0.073487 0.093913,-0.120329 0.015882,-0.025172 0.03107,-0.048816 0.046473,-0.072244 0.067868,-0.1033121 0.140786,-0.2049215 0.2175191,-0.307179 0.088962,-0.1185536 0.1797726,-0.2338719 0.2743036,-0.3553683 0.00759,-0.00962 0.01244,-0.016028 0.013785,-0.017665 -0.00302,0.0036 0.00161,-0.00137 0.011912,-0.010964 0.014703,-0.013556 0.031531,-0.027967 0.051772,-0.045057 0.029595,-0.024962 0.062177,-0.051587 0.096582,-0.081172 0.014582,-0.01259 0.032518,-0.028232 0.050663,-0.045751 0.00644,-0.00632 0.031567,-0.029973 0.052951,-0.060969 0.00595,-0.00906 0.012606,-0.018369 0.021737,-0.037851 0.00887,-0.018935 0.020795,-0.050393 0.023065,-0.09108 0.00266,-0.047768 0.00439,-0.096584 -0.00918,-0.1424618 -0.013569,-0.045878 -0.043202,-0.087589 -0.084523,-0.111702 -0.041321,-0.024113 -0.092211,-0.029394 -0.1388321,-0.018654 -0.046621,0.01074 -0.088287,0.036231 -0.1285825,0.062021 -0.025668,0.016428 -0.042454,0.034041 -0.049722,0.042008 -0.00803,0.0088 -0.00949,0.010727 -0.00451,0.00513 l -0.00802,0.00952 c -0.02401,0.030055 -0.040729,0.05965 -0.051692,0.080389 -0.018409,0.035417 -0.034297,0.073771 -0.045469,0.1160344 -0.0089,0.033824 -0.015535,0.073021 -0.015549,0.1160307 4.1e-6,-0.00594 8.724e-4,-0.00663 -0.00105,0.00176 -0.00262,0.011343 -0.00667,0.024334 -0.01453,0.048687 -0.00749,0.023141 -0.018772,0.057338 -0.027592,0.093318 -0.00181,0.0074 -0.00358,0.015092 -0.00526,0.023047 -0.00685,0.032514 -0.012502,0.071367 -0.012494,0.1141914 -1.35e-5,0.088112 -0.00502,0.1781001 -0.014043,0.2702915 -0.0104,0.1059337 -0.02596,0.2131308 -0.045685,0.3221051 -0.022959,0.126686 -0.051271,0.2541601 -0.083915,0.3831214 -0.00671,0.026839 -0.012731,0.049064 -0.019286,0.075264 -0.016778,0.068001 -0.029673,0.1347229 -0.041385,0.1974662 -0.013088,0.070129 -0.024305,0.1336718 -0.03812,0.1967514 -0.00521,0.02376 -0.010727,0.046996 -0.016725,0.069691 -0.030823,0.11769 -0.065333,0.2332058 -0.1017914,0.3568523 -0.034894,0.1183681 -0.071361,0.2436757 -0.1025054,0.3713336 -0.00647,0.02661 -0.013506,0.056006 -0.019917,0.086316 -0.018975,0.089339 -0.032196,0.1780654 -0.043541,0.2630373 -0.015066,0.1128806 -0.026207,0.2133963 -0.043181,0.3157116 -0.00995,0.059961 -0.021487,0.1175747 -0.035996,0.1729352 -0.00353,0.013232 -0.00802,0.027983 -0.014048,0.047574 -0.015472,0.049953 -0.035592,0.1120271 -0.052311,0.1721269 -0.00718,0.025945 -0.015091,0.056041 -0.021623,0.088281 -0.0036,0.018105 -0.00847,0.044418 -0.010496,0.074399 -4.964e-4,0.00772 -8.461e-4,0.015891 -8.482e-4,0.024957 l 0.041339,-0.132869 c 0.00217,-0.00315 0.00163,-0.00236 -0.00175,0.00236 -0.00294,0.0041 -0.00992,0.013913 -0.017207,0.026686 -0.0058,0.00977 -0.020079,0.035682 -0.029017,0.070715 -0.010102,0.039596 -0.019739,0.07991 -0.018411,0.120752 0.00133,0.040842 0.014175,0.081722 0.039295,0.113954 0.02512,0.032231 0.061684,0.054677 0.1010676,0.065576 0.039384,0.010899 0.080876,0.010618 0.1217279,0.00963 0.027703,-6.717e-4 0.050526,-0.00551 0.06604,-0.00969 0.014732,-0.00397 0.026918,-0.00852 0.030659,-0.00991 0.00965,-0.00364 0.017272,-0.00688 0.023941,-0.00986 5.423e-4,-7.57e-5 0.00113,-1.541e-4 0.00175,-2.346e-4 0.010543,-0.00133 0.024653,-0.00206 0.044299,-0.00198 0.029087,1.697e-4 0.060399,0.00215 0.097678,0.0051 0.030418,0.0024 0.064119,0.00558 0.1013218,0.00806 0.020648,0.00135 0.045555,0.00267 0.072312,0.0025 0.1499125,6.24e-5 0.3018749,0.00365 0.4540226,0.011048 0.149906,0.00727 0.3002899,0.01825 0.4512386,0.032477 0.078907,0.00743 0.1580699,0.015742 0.2376173,0.024811 0.06865,0.00768 0.134902,0.00998 0.194915,0.011161 0.07421,0.00147 0.133116,0.00127 0.194849,0.00499 0.04293,0.00259 0.08148,0.00691 0.116825,0.013993 0.01328,0.00266 0.02602,0.00569 0.03826,0.00912 0.03439,0.00902 0.06407,0.011641 0.06908,0.012196 0.02826,0.00285 0.05292,0.00426 0.07401,0.00533 0.04333,0.00212 0.08558,0.00321 0.126454,0.00394 0.06599,0.00113 0.131725,0.00128 0.197395,6.748e-4 0.04996,-4.931e-4 0.100963,-0.00141 0.152546,-0.00328 0.02625,-9.859e-4 0.05505,-0.00224 0.08477,-0.00448 0.01026,-8.523e-4 0.03941,-0.00278 0.06887,-0.00868 0.02128,-0.00415 0.03959,-0.010701 0.05281,-0.016255 0.02687,-0.010385 0.05247,-0.019486 0.07589,-0.025708 0.0148,-0.00394 0.02951,-0.00684 0.04416,-0.0087 0.02076,-0.00266 0.04412,-0.00384 0.07204,-0.00385 0.04228,-2.211e-4 0.07733,-0.00729 0.09816,-0.01192 0.03429,-0.0078 0.06447,-0.017357 0.09026,-0.026339 0.023,-0.00805 0.04519,-0.016628 0.06689,-0.025715 -0.0049,0.00206 -0.0053,0.00128 0.003,1.276e-4 0.01071,-0.00148 0.02505,-0.00227 0.04937,-0.00255 0.02234,-2.584e-4 0.06861,2.941e-4 0.107864,-0.00191 0.02975,-0.00172 0.0686,-0.00536 0.110663,-0.01597 0.03126,-0.00781 0.06422,-0.019816 0.09658,-0.037172 0.0023,-0.00102 0.01059,-0.00476 0.01849,-0.00796 0.01003,-0.00397 0.0052,-0.00144 -0.0044,5.272e-4 -0.0049,9.525e-4 -0.01035,0.00221 -0.02252,0.00314 -0.01164,8.874e-4 -0.03177,0.00142 -0.05641,-0.00344 -0.02777,-0.00547 -0.05579,-0.012483 -0.07967,-0.027675 -0.02388,-0.015191 -0.04215,-0.03756 -0.059,-0.060303 -0.02089,-0.028213 -0.03082,-0.05637 -0.03548,-0.077546 -0.0046,-0.020696 -0.0048,-0.037658 -0.0043,-0.048342 0.0015,-0.029372 0.0076,-0.039131 0.0054,-0.033666 -0.001,0.00249 -0.0045,0.00969 -0.01309,0.024777 -5.27e-4,9.278e-4 -0.01585,0.026582 -0.02603,0.04797 -0.05599,0.1107576 -0.113597,0.2225973 -0.175336,0.3306101 -0.05145,0.09002 -0.105245,0.1763361 -0.163331,0.2578437 -0.0507,0.071178 -0.104701,0.1386495 -0.162504,0.2013719 -0.01664,0.018061 -0.0336,0.035749 -0.05091,0.053058 -0.0199,0.020718 -0.03731,0.042727 -0.03862,0.044316 -0.02519,0.031034 -0.04289,0.052987 -0.0614,0.073276 -0.008,0.00875 -0.01247,0.013099 -0.01517,0.015488 -0.0029,0.00253 0.0035,-0.00538 0.02655,-0.016718 0.0079,-0.00373 0.01918,-0.00892 0.03501,-0.013302 0.01629,-0.00451 0.04106,-0.00922 0.07141,-0.00723 0.03356,0.0022 0.06749,0.00491 0.09937,0.015626 0.03188,0.010719 0.06129,0.029669 0.08231,0.055928 0.02102,0.026259 0.03307,0.059111 0.03647,0.092573 0.0034,0.033461 -0.0015,0.067149 -0.0069,0.1003539 -0.0022,0.013912 -0.0055,0.023895 -0.0068,0.027622 -8.11e-4,0.00235 -0.002,0.0053 7.57e-4,-0.00169 0.0012,-0.00284 0.0048,-0.010662 0.01116,-0.02348 0.01182,-0.023843 0.02508,-0.04868 0.03998,-0.076151 0.0052,-0.00965 0.01232,-0.02223 0.02096,-0.038915 0.0076,-0.01463 0.01366,-0.029992 0.01808,-0.045864 0.01226,-0.044 0.0272,-0.088509 0.04436,-0.1339483 0.02153,-0.056902 0.04594,-0.113532 0.07279,-0.1698031 0.02719,-0.056905 0.0565,-0.1125932 0.08802,-0.1666672 0.02541,-0.043545 0.05174,-0.085196 0.07948,-0.1246328 0.0039,-0.00559 0.0079,-0.011187 0.01196,-0.016714 0.03428,-0.047092 0.06832,-0.096367 0.08165,-0.153071 0.0067,-0.028352 0.0081,-0.058047 0.003,-0.086714 -0.0051,-0.028667 -0.01692,-0.056167 -0.03446,-0.079423 -0.01753,-0.023255 -0.04073,-0.042142 -0.06688,-0.054972 -0.02615,-0.01283 -0.0551,-0.019605 -0.08419,-0.020982 -0.05818,-0.00275 -0.114907,0.016474 -0.169589,0.036544 -0.0197,0.00723 -0.03442,0.015455 -0.04131,0.019444 -0.0075,0.00437 -0.0095,0.00563 -0.0058,0.00349 -0.02623,0.016323 -0.04487,0.029584 -0.0587,0.039502 -0.03251,0.023457 -0.06366,0.047538 -0.09398,0.072563 -0.02984,0.024687 -0.06077,0.05182 -0.09116,0.081909 -0.02476,0.024399 -0.04533,0.049341 -0.06145,0.07005 -0.02574,0.033221 -0.04811,0.066211 -0.06804,0.097603 -0.02472,0.039049 -0.04757,0.078746 -0.06876,0.1191189 -0.0181,0.034586 -0.03598,0.071451 -0.05227,0.1105685 -0.01009,0.02438 -0.0212,0.053278 -0.03049,0.08543 -0.0057,0.020493 -0.0092,0.034326 -0.01203,0.044118 -0.02021,0.071225 -0.04505,0.1415618 -0.0736,0.2128178 -0.03426,0.085412 -0.0732,0.1704325 -0.115464,0.2560407 -0.05391,0.1091126 -0.112342,0.2173557 -0.173585,0.3267243 -0.067,0.1196408 -0.135302,0.2367385 -0.205589,0.3591256 -0.02496,0.043464 -0.0499,0.087217 -0.0747,0.1313331 -0.04626,0.081994 -0.09342,0.1631204 -0.142035,0.242795 -0.02078,0.03386 -0.04246,0.068235 -0.06467,0.1028117 -0.03503,0.054464 -0.07044,0.1078758 -0.106748,0.159978 -0.02502,0.035847 -0.04968,0.070003 -0.07482,0.102525 -0.01621,0.020913 -0.03113,0.039278 -0.04583,0.055724 -0.009,0.01004 -0.01517,0.016271 -0.01981,0.02046 -0.0049,0.00437 -2.19e-4,-0.00239 0.0213,-0.012795 0.0083,-0.00388 0.02058,-0.00935 0.03791,-0.013573 0.01787,-0.00436 0.04525,-0.00843 0.07835,-0.00387 0.03364,0.00463 0.06763,0.00989 0.09879,0.023391 0.03116,0.0135 0.05895,0.03537 0.07753,0.063795 0.01857,0.028425 0.02746,0.062586 0.02788,0.096539 4.15e-4,0.033953 -0.0073,0.067422 -0.0153,0.1004179 -0.0013,0.00553 -0.0053,0.017482 0.0011,-0.0016 0.0064,-0.018461 0.01423,-0.03999 0.02288,-0.06387 0.01658,-0.0457 0.01861,-0.050977 0.03522,-0.096765 0.003,-0.00832 0.0061,-0.01724 0.0082,-0.023387 -0.01243,0.032056 -0.01848,0.036436 -0.01168,0.027387 0.0048,-0.00627 0.01905,-0.022532 0.03851,-0.050619 0.01256,-0.018197 0.03651,-0.054848 0.05024,-0.1048668 0.0088,-0.027243 0.02175,-0.063479 0.03604,-0.1003567 0.0181,-0.046626 0.03775,-0.092597 0.05895,-0.1376164 0.01843,-0.039063 0.03754,-0.076376 0.05782,-0.1118023 0.01499,-0.02614 0.02976,-0.049755 0.04489,-0.071099 0.0056,-0.00785 0.0115,-0.015676 0.0207,-0.027865 0.01157,-0.015221 0.02166,-0.028202 0.03143,-0.039886 0.0087,-0.010195 0.0057,-0.00611 2.33e-4,-0.00124 -0.0085,0.00748 -0.01828,0.015224 -0.03117,0.022811 l 0.0477,-0.03674 c 0.02364,-0.02349 0.03707,-0.046501 0.04258,-0.056384 0.0061,-0.011023 0.0069,-0.012692 0.0024,-0.00458 0.01144,-0.022238 0.01806,-0.035778 0.02488,-0.049316 0.03683,-0.073549 0.07189,-0.1416669 0.109647,-0.2063724 0.009,-0.015482 0.01816,-0.030679 0.02744,-0.045604 -0.0091,0.014067 -0.01739,0.022438 -0.0035,0.00718 0.0016,-0.00174 0.02416,-0.025104 0.04139,-0.047703 0.0039,-0.00521 0.028,-0.035894 0.0427,-0.0788 0.01652,-0.048224 0.03232,-0.097897 0.03097,-0.1488551 -0.0013,-0.050958 -0.02102,-0.1019992 -0.05765,-0.1374526 -0.03663,-0.035453 -0.08819,-0.053469 -0.139164,-0.053668 -0.05098,-1.987e-4 -0.100384,0.016185 -0.148446,0.033173 -0.05216,0.018437 -0.08578,0.049722 -0.09348,0.056698 -0.03442,0.03236 -0.05547,0.063256 -0.06482,0.076942 -0.01395,0.020357 -0.02144,0.033481 -0.0242,0.037703 -0.0024,0.00365 -0.0087,0.011586 -0.02089,0.02352 -0.02276,0.022319 -0.03955,0.034887 -0.08008,0.0706 -0.02343,0.020628 -0.052,0.046946 -0.07971,0.078484 -0.03808,0.04311 -0.07093,0.08793 -0.09943,0.1299333 -0.04254,0.062759 -0.08141,0.128499 -0.114685,0.1832689 -0.02122,0.034918 -0.04066,0.066357 -0.06062,0.096026 -0.04561,0.068067 -0.094497,0.1344122 -0.1461912,0.199842 -0.065816,0.083342 -0.1358974,0.1649222 -0.2091263,0.2477626 -0.00732,0.00834 -0.025819,0.028742 -0.040328,0.0465 -0.029081,0.035402 -0.054762,0.071668 -0.077375,0.1057345 -0.031418,0.047443 -0.05969,0.094966 -0.085737,0.1410672 -0.037285,0.066097 -0.071697,0.1323931 -0.104255,0.1975071 -0.054609,0.109289 -0.1060126,0.219816 -0.1557882,0.326064 -0.022765,0.04852 -0.044683,0.09518 -0.067213,0.141132 -0.00729,0.01492 -0.014719,0.02966 -0.022425,0.0446 -0.02798,0.05443 -0.056224,0.108471 -0.084815,0.162465 -0.031475,0.05938 -0.062951,0.117913 -0.095032,0.175607 -0.018507,0.03322 -0.036458,0.06489 -0.054738,0.09547 -0.00948,0.01581 -0.017496,0.02879 -0.025262,0.04038 -0.00751,0.01098 -0.00456,0.006 0.00101,-1.18e-4 0.00391,-0.0042 0.01391,-0.01493 0.029488,-0.02633 0.043327,-0.03171 0.088516,-0.06318 0.1405204,-0.07652 0.026002,-0.0067 0.053274,-0.0088 0.079861,-0.0051 0.026587,0.0037 0.05238,0.01326 0.074762,0.02809 0.022382,0.01482 0.041249,0.03484 0.055048,0.05786 0.013799,0.02303 0.02252,0.04895 0.02656,0.07549 0.00808,0.05308 -0.00311,0.106986 -0.015242,0.159288 -0.00551,0.02374 -0.00982,0.02941 -0.0054,0.01915 0.00258,-0.0057 0.00742,-0.01543 0.014751,-0.0297 0.014259,-0.0276 0.029786,-0.05605 0.046441,-0.08609 0.018132,-0.03263 0.036558,-0.06518 0.05523,-0.09743 0.00286,-0.005 0.020576,-0.03441 0.03092,-0.05387 0.030254,-0.05596 0.054427,-0.114144 0.074015,-0.17022 0.00881,-0.02471 0.013412,-0.04002 0.014983,-0.04406 0.00742,-0.01938 0.016584,-0.03913 0.028388,-0.06184 0.016267,-0.0312 0.035096,-0.06313 0.056222,-0.09664 0.028802,-0.0456 0.060076,-0.09115 0.093333,-0.137434 0.052449,-0.07292 0.108016,-0.145011 0.1658293,-0.21796 0.028323,-0.03574 0.056868,-0.07122 0.086249,-0.10784 0.025361,-0.03169 0.041081,-0.06272 0.049216,-0.0793 0.01282,-0.02618 0.01833,-0.03789 0.01684,-0.03538 -0.0015,0.0025 -0.007,0.01221 -0.02159,0.02554 -0.045551,0.04153 -0.09366,0.08307 -0.1521811,0.102438 -0.029261,0.0097 -0.060531,0.0137 -0.091169,0.01034 -0.030638,-0.0034 -0.060483,-0.01416 -0.085929,-0.03155 -0.025446,-0.01739 -0.046345,-0.04127 -0.060639,-0.06858 -0.014294,-0.02731 -0.021985,-0.05787 -0.023733,-0.08864 -0.0035,-0.061543 0.017156,-0.1216057 0.038698,-0.179362 0.00518,-0.013892 0.010604,-0.023736 0.012473,-0.027064 0.00217,-0.00387 0.00167,-0.00298 -0.00159,0.00264 -0.00427,0.00687 -0.011674,0.017783 -0.023893,0.036112 -0.010673,0.015943 -0.025114,0.037184 -0.038189,0.057196 -0.012753,0.019615 -0.023979,0.038355 -0.034038,0.055776 -0.03285,0.057024 -0.061486,0.1156924 -0.085433,0.1637394 -0.00982,0.01973 -0.019189,0.03835 -0.028597,0.05647 -0.059304,0.1148 -0.1138205,0.227267 -0.1691049,0.335145 -0.047778,0.09324 -0.095564,0.182239 -0.14704,0.267042 -0.044325,0.07301 -0.090685,0.141677 -0.1407376,0.2051 -0.036705,0.0465 -0.075156,0.08987 -0.1156459,0.1295 -0.031835,0.03109 -0.067065,0.06177 -0.1060889,0.09423 -0.060148,0.04997 -0.1284229,0.103228 -0.1886651,0.153274 -0.051911,0.04304 -0.1063337,0.09014 -0.1589323,0.142236 -0.040262,0.0399 -0.080564,0.08383 -0.118195,0.132472 -0.019116,0.02489 -0.033996,0.0486 -0.044049,0.06484 -0.018569,0.03022 -0.035175,0.05957 -0.049761,0.08552 -0.026758,0.04765 -0.048505,0.08759 -0.072725,0.12894 -0.012585,0.02142 -0.023508,0.03929 -0.034326,0.05524 -0.00741,0.01082 -0.011559,0.01558 -0.010468,0.01441 -0.00199,0.002 0.00935,-0.0154 0.048707,-0.03481 0.012414,-0.0064 0.018534,-0.0074 0.012666,-0.0055 -0.00286,9.25e-4 -0.026343,0.008 -0.050579,0.02002 -0.031446,0.01518 -0.06417,0.03924 -0.091297,0.07216 -0.027401,0.03237 -0.048784,0.06488 -0.065318,0.092 -0.023814,0.03918 -0.046116,0.08184 -0.061406,0.109896 -0.016172,0.02967 -0.028371,0.05088 -0.040715,0.06881 -0.00943,0.01366 -0.015771,0.02057 -0.019308,0.02383 -0.00257,0.0023 -0.00195,0.0014 0.00164,-9.57e-4 0.045902,-0.03037 0.093746,-0.06041 0.1477056,-0.07125 0.026979,-0.0054 0.055029,-0.006 0.082014,-6.32e-4 0.026984,0.0054 0.052784,0.01683 0.074675,0.03351 0.021891,0.01668 0.039767,0.03851 0.052139,0.06309 0.012372,0.02458 0.019241,0.05178 0.021187,0.07923 0.00389,0.0549 -0.012331,0.109012 -0.029384,0.161342 -0.00412,0.01263 -0.0085,0.0215 -0.00999,0.02445 -0.00173,0.0034 -0.00122,0.0024 0.00166,-0.003 0.00275,-0.0048 0.012381,-0.01996 0.025442,-0.04299 0.011098,-0.01971 0.015216,-0.02876 0.014255,-0.02702 0.010343,-0.01926 0.021663,-0.03743 0.036387,-0.05948 0.013954,-0.02092 0.030506,-0.04475 0.048373,-0.07245 0.039806,-0.06738 0.074542,-0.126996 0.1088616,-0.187177 0.011813,-0.02061 0.018381,-0.03234 0.025806,-0.044 0.00825,-0.01296 0.016646,-0.02542 0.027794,-0.04216 0.060382,-0.09044 -0.027276,0.04084 0.033253,-0.04982 0.028764,-0.04344 0.053277,-0.08712 0.074765,-0.129946 0.030646,-0.06095 0.06074,-0.132415 0.08205,-0.179275 0.011425,-0.02512 0.022316,-0.04805 0.033461,-0.06957 0.012945,-0.02486 0.027886,-0.05075 0.044624,-0.07823 0.024242,-0.03974 0.050343,-0.07955 0.077914,-0.119835 0.033569,-0.04899 0.068476,-0.0974 0.1045032,-0.14515 0.027079,-0.03585 0.054253,-0.07064 0.081874,-0.104251 0.023033,-0.02958 0.030911,-0.04476 0.032578,-0.04744 0.019852,-0.03278 0.030385,-0.05087 0.042821,-0.06906 0.00836,-0.01205 0.00707,-0.009 0.00165,-0.0036 -0.00342,0.0033 -0.019352,0.02329 -0.063901,0.04106 -0.02912,0.01161 -0.059656,0.02175 -0.090979,0.0205 -0.031324,-0.0013 -0.060977,-0.0137 -0.089192,-0.02736 -0.01498,-0.0073 -0.031566,-0.01741 -0.047935,-0.03156 -0.016525,-0.01429 -0.033364,-0.03314 -0.047265,-0.05723 -0.011174,-0.01937 -0.019345,-0.04032 -0.024271,-0.06213 -0.00785,-0.03476 -0.00556,-0.06403 -0.00243,-0.08259 0.003,-0.01784 0.00763,-0.0306 0.00876,-0.03369 0.010558,-0.02723 0.016892,-0.03274 0.012104,-0.02625 -0.00243,0.0032 -0.00784,0.0097 -0.017033,0.01961 -0.012385,0.01336 -0.026635,0.02744 -0.043182,0.04304 0.00236,-0.0025 -2.851e-4,-5.07e-4 -0.011929,0.01192 -0.00565,0.006 -0.013957,0.01549 -0.02263,0.02806 -0.0025,0.0036 -0.00504,0.0075 -0.00756,0.01167 -0.044363,0.06865 -0.084295,0.138092 -0.1212636,0.20525 -0.050711,0.09213 -0.1010219,0.190189 -0.1517265,0.282312 -0.011809,0.02151 -0.023034,0.04149 -0.034324,0.06056 -0.04575,0.07755 -0.097482,0.152876 -0.1538111,0.227239 -0.067133,0.08866 -0.1399587,0.174978 -0.2167478,0.263376 -0.090939,0.10471 -0.1915033,0.216827 -0.2853306,0.331131 -0.070205,0.08553 -0.1395958,0.175824 -0.2037331,0.27205 -0.012237,0.01841 -0.025076,0.03802 -0.037839,0.05855 -0.013051,0.02196 -0.024121,0.04224 -0.03011,0.05293 -0.014547,0.02607 -0.026814,0.04785 -0.039353,0.0684 -0.00777,0.01261 -0.011068,0.01747 -0.013117,0.02016 3.81e-5,-1.18e-4 7.958e-4,-0.0014 0.00579,-0.007 0.00467,-0.0052 0.014815,-0.01585 0.030305,-0.02695 0.021507,-0.01541 0.044154,-0.03001 0.069648,-0.03708 0.025494,-0.0071 0.052416,-0.0063 0.078808,-0.0045 -0.010042,-7.02e-4 -0.014875,-5.97e-4 -0.015089,-6e-4 -2.14e-4,-2e-6 0.00421,-9.8e-5 0.013486,6.09e-4 0.00881,6.71e-4 0.024009,0.0023 0.04237,0.0073 0.019042,0.0052 0.04137,0.01395 0.064098,0.02863 0.037877,0.02447 0.076007,0.0501 0.1041235,0.08535 0.028117,0.03525 0.045035,0.08013 0.042904,0.12517 -0.00213,0.04504 -0.023266,0.08816 -0.054858,0.120334 -0.031592,0.03218 -0.072383,0.05342 -0.1127947,0.07343 -0.01052,0.0052 -0.023795,0.0094 -0.00549,0.0032 0.01011,-0.0033 0.028025,-0.0085 0.050807,-0.0161 0.030717,-0.01 0.05759,-0.0231 0.074461,-0.03165 0.029589,-0.01512 0.056167,-0.03078 0.079977,-0.04567 0.033318,-0.02091 0.065894,-0.04331 0.097663,-0.06759 0.023836,-0.01828 0.049743,-0.03946 0.075461,-0.06412 0.016169,-0.01561 0.037598,-0.03745 0.058111,-0.06529 0.012386,-0.01692 0.03018,-0.04362 0.043706,-0.07903 0.024424,-0.05969 0.047741,-0.124753 0.068573,-0.189698 0.025312,-0.07879 0.046969,-0.157384 0.066847,-0.232823 0.01101,-0.04177 0.029713,-0.114716 0.040725,-0.156496 0.014219,-0.05442 0.020488,-0.106949 0.022993,-0.154241 0.00292,-0.05586 8.736e-4,-0.109012 -0.00274,-0.157254 -0.00482,-0.0637 -0.012951,-0.125403 -0.020538,-0.180883 -0.00871,-0.06368 -0.016687,-0.118023 -0.022327,-0.173453 -0.00384,-0.038 -0.00607,-0.07189 -0.006,-0.103484 8.24e-5,-0.02591 0.00175,-0.04711 0.00488,-0.06491 0.00166,-0.0094 0.00366,-0.01721 0.00577,-0.02356 0.01806,-0.05577 0.028863,-0.108603 0.036178,-0.157051 0.00916,-0.0607 0.01374,-0.12081 0.017676,-0.170185 0.00415,-0.05208 0.00766,-0.09419 0.013895,-0.134466 0.00346,-0.02237 0.00757,-0.04242 0.012496,-0.06062 0.00762,-0.02847 0.017335,-0.05711 0.029078,-0.08672 0.014695,-0.03715 0.031736,-0.07397 0.052263,-0.118557 0.020137,-0.04375 0.043471,-0.09506 0.063551,-0.149786 0.011485,-0.03126 0.022138,-0.06413 0.031196,-0.09837 0.012377,-0.04734 0.019444,-0.09233 0.024076,-0.132749 0.00591,-0.05199 0.00841,-0.102066 0.00988,-0.147563 0.00282,-0.0892 0.00213,-0.1703712 0.0057,-0.2435532 0.00193,-0.038921 0.00484,-0.073587 0.00971,-0.1056837 0.00281,-0.018444 0.00616,-0.035016 0.01012,-0.05 0.01089,-0.042404 0.016678,-0.081514 0.020118,-0.1166771 0.00414,-0.041994 0.00482,-0.085656 0.00898,-0.1278179 0.0014,-0.014566 0.00318,-0.026976 0.00535,-0.037936 0.018014,-0.093531 0.032903,-0.175058 0.052373,-0.2561831 0.010112,-0.042095 0.020906,-0.081665 0.033192,-0.1192035 0.012173,-0.037313 0.019243,-0.072318 0.024017,-0.1009245 0.0069,-0.041804 0.010757,-0.081703 0.01372,-0.114852 0.00448,-0.050355 0.00682,-0.08555 0.011629,-0.1239093 0.00285,-0.022437 0.00577,-0.039124 0.0092,-0.052707 0.00566,-0.021168 0.010318,-0.044768 0.013642,-0.067526 0.00687,-0.046697 0.00854,-0.09333 0.00993,-0.1221297 0.00151,-0.031265 0.00286,-0.049426 0.00542,-0.064525 0.00156,-0.00923 0.00328,-0.015033 0.00453,-0.018368 0.014524,-0.041102 0.018804,-0.077187 0.019614,-0.082751 0.00377,-0.027603 0.00533,-0.046765 0.0068,-0.059461 8.318e-4,-0.00654 0.00117,-0.00263 -0.00277,0.01292 -0.013745,0.054211 -0.029243,0.1095393 -0.062715,0.1543436 -0.016736,0.022402 -0.037616,0.041837 -0.061778,0.055914 -0.024162,0.014076 -0.051532,0.022686 -0.07943,0.024599 -0.027898,0.00191 -0.056183,-0.00288 -0.082055,-0.013489 C 8.4668001,8.521787 8.4434248,8.5054546 8.4236882,8.4856451 8.384215,8.4460261 8.3607966,8.3936042 8.3391893,8.34202 c -0.00549,-0.013105 -0.0074,-0.020881 -0.00781,-0.022366 -4.087e-4,-0.00149 6.522e-4,0.00321 0.00396,0.013855 0.00486,0.017176 0.00919,0.031571 0.01382,0.048613 0.00855,0.03136 0.014474,0.057433 0.01793,0.081054 0.00231,0.015937 0.00285,0.026597 0.00265,0.033754 -1.884e-4,0.00612 -8.398e-4,0.0024 0.00218,-0.00672 0.0034,-0.010316 0.012192,-0.030525 0.033547,-0.050599 0.01263,-0.011914 0.027693,-0.021465 0.044283,-0.02797 0.02424,-0.00907 0.042539,-0.011552 0.056141,-0.012051 0.01348,-4.946e-4 0.023912,8.859e-4 0.030398,0.0021 0.012204,0.00229 0.015605,0.00462 0.012244,0.00307 -0.00407,-0.0019 -0.01157,-0.00602 -0.024117,-0.014264 -0.020422,-0.013452 -0.040505,-0.028892 -0.070268,-0.051505 -0.010745,-0.00811 -0.028549,-0.021733 -0.047994,-0.034619 -0.047058,-0.032313 -0.097482,-0.046492 -0.1238883,-0.05317 -0.034092,-0.00847 -0.065001,-0.012947 -0.09019,-0.015862 -0.03889,-0.00443 -0.075696,-0.00636 -0.1088238,-0.00738 -0.052268,-0.00155 -0.1029457,-9.66e-4 -0.1502862,1.605e-4 -0.043079,0.00103 -0.088477,0.00278 -0.1276172,0.00405 -0.022817,7.095e-4 -0.041458,0.00122 -0.059304,0.00113 -0.049594,-1.485e-4 -0.09942,-0.00148 -0.1507782,-0.00316 -0.082985,-0.00276 -0.1662504,-0.00642 -0.2508654,-0.0097 -0.099131,-0.00384 -0.1993333,-0.0073 -0.3003105,-0.00844 -0.067321,-7.269e-4 -0.135786,-4.791e-4 -0.2050498,0.0021 -0.048557,0.00185 -0.099001,0.00486 -0.150526,0.010479 -0.029103,0.0032 -0.059538,0.00735 -0.09082,0.01319 -0.059223,0.010778 -0.1215477,0.018061 -0.1859101,0.023052 -0.079359,0.00613 -0.1603137,0.00865 -0.2432355,0.00969 -0.081125,0.00102 -0.162622,5.627e-4 -0.2462549,5.624e-4 -0.02389,-6.9e-5 -0.049167,-7.438e-4 -0.076645,-0.00157 -0.055319,-0.00173 -0.1113307,-0.00406 -0.1678638,-0.00631 -0.1124533,-0.0045 -0.2252037,-0.00896 -0.3388197,-0.01128 -0.061511,-0.00122 -0.1236481,-0.00188 -0.1864007,-9.777e-4 -0.039998,6.16e-4 -0.08177,0.00183 -0.1245992,0.00479 -0.025818,0.00183 -0.055407,0.00444 -0.086733,0.00937 -0.017999,0.00295 -0.051345,0.00849 -0.087526,0.021812 -0.0449,0.017307 -0.076152,0.039342 -0.089572,0.048868 -0.020137,0.014289 -0.026669,0.018563 -0.019935,0.014693 0.00832,-0.00479 0.029081,-0.016317 0.066043,-0.018624 0.022666,-0.00172 0.042033,0.00197 0.053174,0.0048 0.011278,0.00286 0.01508,0.00484 0.013295,0.00411 6.304e-4,2.534e-4 -0.011597,-0.00612 -0.033942,-0.01734 -0.019646,-0.0099 -0.054614,-0.027202 -0.096911,-0.038985 -0.025676,-0.00709 -0.057883,-0.013335 -0.094848,-0.013339 a 0.234375,0.234375 90 0 0 -4.72e-5,0.46875 c -0.015603,-1.6e-6 -0.026387,-0.00261 -0.030415,-0.00372 -0.00502,-0.0014 -0.0044,-0.002 0.011553,0.00604 0.00404,0.00203 0.037771,0.02004 0.064031,0.031162 0.011022,0.00455 0.029354,0.011934 0.051962,0.017672 0.023535,0.00597 0.055659,0.011396 0.094282,0.0085 0.058783,-0.00365 0.1066423,-0.026057 0.1355166,-0.042673 0.033629,-0.019329 0.051796,-0.034698 0.057536,-0.038771 0.00595,-0.00422 0.00193,4.05e-4 -0.016338,0.00746 -0.012128,0.0045 -0.016553,0.00455 -0.00357,0.00242 0.010896,-0.00171 0.025556,-0.00319 0.04519,-0.00458 0.03065,-0.00212 0.063174,-0.00314 0.098835,-0.00369 0.05504,-7.926e-4 0.1112864,-2.341e-4 0.1699569,9.342e-4 0.1082366,0.00221 0.2165846,0.00648 0.3295902,0.011003 0.055391,0.0022 0.1140337,0.00464 0.1721349,0.00646 0.027999,8.457e-4 0.058867,0.0017 0.090396,0.00179 0.080816,1.3e-6 0.16776,4.667e-4 0.2528162,-5.984e-4 0.088024,-0.00111 0.180056,-0.00384 0.2735071,-0.011055 0.075864,-0.00588 0.1547386,-0.014863 0.2347233,-0.029423 0.017985,-0.00335 0.036382,-0.00596 0.056853,-0.00821 0.036789,-0.00401 0.075488,-0.00644 0.1171763,-0.00803 0.058948,-0.0022 0.1193419,-0.00248 0.182203,-0.0018 0.094147,0.00107 0.1890695,0.00431 0.2873492,0.00812 0.081211,0.00314 0.1689113,0.00698 0.2535598,0.00979 0.052812,0.00173 0.1081676,0.00324 0.1643278,0.00341 0.02691,1.387e-4 0.053435,-6.589e-4 0.07606,-0.00136 0.043877,-0.00142 0.083362,-0.00298 0.1239158,-0.00394 0.043718,-0.00104 0.084982,-0.00143 0.1249652,-2.421e-4 0.025764,7.936e-4 0.048586,0.00215 0.069522,0.00454 0.014266,0.00165 0.023458,0.00331 0.029711,0.00486 0.00574,0.00145 -0.00362,0.00125 -0.024202,-0.01287 0.0081,0.00541 0.01359,0.0095 0.027022,0.019642 0.024034,0.018261 0.058739,0.045125 0.095657,0.069442 0.02248,0.014771 0.051074,0.032321 0.084488,0.047882 0.02374,0.01097 0.057599,0.024733 0.098803,0.032463 0.020565,0.00384 0.045309,0.0066 0.072999,0.00558 0.027755,-0.00102 0.06012,-0.00591 0.094086,-0.018568 0.04288,-0.016777 0.078932,-0.039605 0.1096589,-0.068591 0.047827,-0.044961 0.075189,-0.098146 0.090189,-0.1436279 0.015749,-0.047602 0.020222,-0.092221 0.021272,-0.1264747 0.00122,-0.04296 -0.00254,-0.081971 -0.00733,-0.1150651 -0.00731,-0.049953 -0.018432,-0.096093 -0.029521,-0.1367506 -0.00564,-0.020748 -0.012427,-0.043678 -0.016966,-0.05953 -6.254e-4,-0.00221 0.00153,0.00562 -0.00104,-0.00376 -0.00129,-0.00469 -0.00508,-0.018473 -0.011889,-0.034733 -0.022003,-0.052529 -0.045939,-0.1059188 -0.086391,-0.1460069 -0.020226,-0.020044 -0.044179,-0.036477 -0.070631,-0.047019 -0.026452,-0.010542 -0.055313,-0.015097 -0.083698,-0.012827 -0.028385,0.00227 -0.056152,0.011349 -0.080613,0.025928 -0.024461,0.014578 -0.045546,0.034544 -0.062443,0.057465 -0.033794,0.045841 -0.04949,0.1021621 -0.063487,0.1573665 -0.00687,0.027115 -0.00782,0.042965 -0.00822,0.046117 -0.00285,0.024502 -0.00428,0.040579 -0.00559,0.050197 -0.00225,0.015399 -0.00119,0.00282 0.00397,-0.011818 -0.01201,0.031972 -0.020608,0.067415 -0.026143,0.1001866 -0.00775,0.045744 -0.00996,0.089368 -0.011438,0.1201471 -0.0018,0.037374 -0.00271,0.057639 -0.00551,0.07671 -0.00102,0.00697 -0.00222,0.012737 -0.00353,0.01764 -0.01076,0.042451 -0.016544,0.080025 -0.020588,0.1119149 -0.00625,0.04983 -0.010042,0.1025261 -0.01346,0.1409179 -0.00281,0.031488 -0.00544,0.056674 -0.00925,0.079736 -0.00265,0.015862 -0.00507,0.025696 -0.00716,0.032094 -0.017176,0.052479 -0.031262,0.1047402 -0.043421,0.1553547 -0.022649,0.094371 -0.040097,0.1898931 -0.056614,0.2756713 -0.00553,0.027856 -0.00933,0.056104 -0.01189,0.08275 -0.00414,0.042533 -0.00475,0.084332 -0.00892,0.1271541 -0.00181,0.018472 -0.00427,0.032807 -0.00722,0.044333 -0.00859,0.032472 -0.015088,0.065843 -0.019938,0.097727 -0.00813,0.053545 -0.012103,0.105334 -0.014467,0.1530678 -0.00447,0.091462 -0.00362,0.1754126 -0.00603,0.2516506 -0.00128,0.0399 -0.00327,0.0757 -0.00709,0.109348 -0.003,0.02617 -0.00679,0.04798 -0.011685,0.06668 -0.00463,0.01748 -0.010653,0.03633 -0.017896,0.05604 -0.013003,0.03544 -0.029193,0.07159 -0.049323,0.115331 -0.018974,0.04122 -0.041961,0.09061 -0.062255,0.141912 -0.017149,0.04323 -0.032988,0.08924 -0.045924,0.137547 -0.010187,0.03767 -0.017564,0.07508 -0.023079,0.110696 -0.00932,0.06017 -0.013983,0.119372 -0.017936,0.168963 -0.00423,0.05309 -0.00766,0.09608 -0.013907,0.137463 -0.00472,0.03126 -0.010609,0.05785 -0.01807,0.0809 -0.00966,0.02902 -0.016935,0.05941 -0.022066,0.08863 -0.00901,0.05134 -0.011793,0.100438 -0.011933,0.144666 -1.247e-4,0.05386 0.00365,0.105163 0.00838,0.152057 0.00672,0.06607 0.016388,0.132146 0.024261,0.189695 0.00753,0.05503 0.013894,0.104439 0.017538,0.152565 0.00271,0.03612 0.00359,0.06812 0.00206,0.09743 -0.00131,0.02467 -0.00424,0.04439 -0.00839,0.06026 -0.018105,0.06918 -0.02237,0.08637 -0.040498,0.155632 -0.019096,0.07247 -0.038302,0.1418 -0.059892,0.20901 -0.017616,0.05492 -0.036886,0.108551 -0.058197,0.160767 0.00509,-0.0135 0.013247,-0.02462 0.014453,-0.02627 0.00268,-0.0036 0.00123,-0.0013 -0.0053,0.005 -0.00875,0.0084 -0.020353,0.01817 -0.035444,0.02974 -0.019133,0.01462 -0.039775,0.02887 -0.06154,0.04252 -0.016009,0.01001 -0.030427,0.01835 -0.043793,0.02518 -0.00876,0.0044 -0.011934,0.0053 -0.00799,0.004 -0.013602,0.0045 -0.031034,0.0096 -0.053456,0.01698 -0.0052,0.0018 -0.023291,0.0062 -0.053677,0.02125 -0.040962,0.02028 -0.082311,0.0417 -0.1146818,0.07397 -0.032371,0.03227 -0.054569,0.07551 -0.057603,0.12112 -0.00303,0.04561 0.013293,0.09146 0.041406,0.127495 0.028113,0.03604 0.066747,0.06213 0.1051404,0.08693 0.023623,0.01526 0.046896,0.0244 0.066915,0.02987 0.019338,0.0053 0.035548,0.0071 0.045377,0.0078 0.010296,7.84e-4 0.015754,7.03e-4 0.016568,7.13e-4 8.13e-4,9e-6 -0.003,1.24e-4 -0.012045,-5.08e-4 l 0.15722,-0.04498 c 0.021014,-0.01506 0.036028,-0.03042 0.045224,-0.04064 0.0083,-0.0092 0.015587,-0.01864 0.015922,-0.01906 0.020134,-0.02638 0.033925,-0.04868 0.042534,-0.06266 0.018323,-0.03002 0.034633,-0.05913 0.048818,-0.08455 0.010134,-0.01808 0.015084,-0.02736 0.021796,-0.03871 0.00643,-0.01024 0.016305,-0.02536 0.027258,-0.04185 0.0527,-0.07907 0.1119066,-0.156482 0.1758237,-0.23435 0.088339,-0.107618 0.1791663,-0.208614 0.2769003,-0.321148 0.078974,-0.09091 0.1598977,-0.186549 0.2365382,-0.287764 0.064741,-0.08547 0.127107,-0.175865 0.1836854,-0.271766 0.014686,-0.02481 0.028589,-0.04962 0.041605,-0.07333 0.052202,-0.09495 0.099275,-0.186905 0.1515433,-0.281979 0.035136,-0.06383 0.070015,-0.124109 0.1070302,-0.181064 0.00862,-0.01327 0.015883,-0.02738 0.021663,-0.04212 -0.00737,0.01878 -0.016296,0.03426 -0.024711,0.04646 -0.00822,0.01192 -0.016015,0.02077 -0.021129,0.02622 -0.010561,0.01127 -0.011997,0.01224 -0.00339,0.0036 0.015649,-0.01461 0.038099,-0.03655 0.060443,-0.06065 0.014491,-0.01568 0.031924,-0.03532 0.049141,-0.05827 0.00934,-0.01265 0.033478,-0.04483 0.050378,-0.08815 0.0048,-0.013 0.011056,-0.03092 0.014933,-0.05399 0.004,-0.0238 0.00643,-0.05838 -0.0026,-0.09838 -0.00546,-0.02418 -0.014565,-0.0474 -0.026953,-0.06886 -0.015195,-0.02633 -0.033712,-0.04713 -0.052166,-0.06309 -0.018297,-0.01582 -0.037059,-0.02736 -0.05433,-0.03572 -0.030963,-0.01499 -0.063587,-0.0285 -0.097972,-0.0296 -0.034385,-0.0011 -0.067823,0.01019 -0.099779,0.02293 -0.05191,0.0207 -0.0852,0.05445 -0.089498,0.05855 -0.03165,0.03139 -0.051698,0.06061 -0.060774,0.07371 -0.022801,0.03334 -0.043025,0.06787 -0.056253,0.08973 -0.00939,0.01507 -0.00366,0.0057 6.266e-4,1.91e-4 -0.028349,0.03434 -0.059543,0.07433 -0.089616,0.114144 -0.040167,0.05323 -0.079264,0.107438 -0.1171604,0.162747 -0.030969,0.04525 -0.061759,0.09211 -0.091414,0.140717 -0.020171,0.03313 -0.040789,0.06857 -0.060352,0.106144 -0.016418,0.03169 -0.03095,0.06251 -0.044154,0.09154 -0.030552,0.06718 -0.048604,0.111967 -0.07424,0.162948 -0.014866,0.02963 -0.030186,0.05658 -0.046434,0.08112 -0.00568,0.0085 -0.026732,0.04002 -0.032707,0.049 -0.0094,0.01411 -0.021602,0.03224 -0.033167,0.0504 -0.014931,0.02344 -0.028706,0.04803 -0.037376,0.06316 -0.033188,0.05819 -0.066814,0.115915 -0.1009888,0.174114 -0.0071,0.01063 -0.022216,0.03249 -0.039187,0.05793 -0.018352,0.02748 -0.039034,0.05984 -0.058279,0.09574 -0.00857,0.01549 -0.012225,0.0233 -0.010597,0.02041 -0.0046,0.0081 -0.014657,0.02382 -0.027985,0.04758 -0.00196,0.0036 -0.0046,0.0081 -0.00921,0.01722 -0.00437,0.0086 -0.011381,0.02332 -0.017479,0.04204 -0.017422,0.05346 -0.033993,0.108749 -0.029996,0.164835 0.002,0.02804 0.00903,0.05583 0.021683,0.08094 0.012654,0.02511 0.030931,0.0474 0.053307,0.06442 0.022375,0.01702 0.04874,0.02869 0.076312,0.03419 0.027571,0.0055 0.056227,0.0049 0.083789,-6.84e-4 0.055123,-0.0111 0.1039986,-0.04179 0.1508934,-0.07282 0.023575,-0.0156 0.042736,-0.03186 0.057121,-0.04504 0.037713,-0.03485 0.066107,-0.07123 0.087856,-0.102747 0.027248,-0.03958 0.049214,-0.07907 0.066339,-0.110481 0.021223,-0.03894 0.034197,-0.06413 0.050222,-0.0905 0.010132,-0.01662 0.017443,-0.02675 0.023124,-0.03338 0.0023,-0.0027 0.00454,-0.0054 0.00672,-0.0082 -0.020002,0.0256 -0.044078,0.04336 -0.067711,0.05478 -0.012874,0.0064 -0.017858,0.0071 -0.010931,0.0048 0.00418,-0.0014 0.028188,-0.0087 0.053499,-0.02165 0.046705,-0.023 0.079207,-0.05973 0.081653,-0.06228 0.027,-0.02902 0.045484,-0.05546 0.056876,-0.07209 0.01991,-0.02935 0.036834,-0.05742 0.051311,-0.08206 0.027222,-0.04647 0.054056,-0.09552 0.077076,-0.136517 0.014437,-0.02568 0.027141,-0.04801 0.040082,-0.06908 0.00847,-0.01367 0.013,-0.02038 0.016341,-0.02473 0.021723,-0.02808 0.047522,-0.05658 0.076819,-0.08561 0.038598,-0.03823 0.081217,-0.07542 0.1282002,-0.114374 0.064802,-0.05372 0.1243214,-0.09993 0.1891283,-0.153659 0.043494,-0.03617 0.089392,-0.07583 0.1341382,-0.119519 0.05676,-0.05555 0.1084595,-0.114154 0.1559177,-0.174281 0.064611,-0.08187 0.1217488,-0.167055 0.1734785,-0.252258 0.059842,-0.09859 0.1134329,-0.198788 0.1635108,-0.296517 0.058438,-0.114031 0.1127455,-0.226039 0.1681782,-0.333347 0.011001,-0.02119 0.02174,-0.04257 0.031915,-0.063 0.026657,-0.05348 0.047953,-0.09696 0.071933,-0.138592 0.0073,-0.01264 0.014096,-0.02388 0.020691,-0.03402 0.010921,-0.01671 0.021462,-0.03215 0.035251,-0.05274 0.0094,-0.01409 0.02364,-0.03509 0.03675,-0.05653 -0.0017,0.0031 0.0066,-0.01123 0.0077,-0.01306 0.004,-0.0071 0.01134,-0.02075 0.01803,-0.03868 0.02173,-0.05826 0.0425,-0.1189158 0.03861,-0.1809745 -0.0019,-0.031029 -0.01,-0.061808 -0.02462,-0.089218 -0.01467,-0.027411 -0.03601,-0.05128 -0.06186,-0.068553 -0.02585,-0.017272 -0.056064,-0.027847 -0.086999,-0.03095 -0.030935,-0.0031 -0.062434,0.0012 -0.091892,0.011141 -0.058916,0.019884 -0.107357,0.061815 -0.1533049,0.1037105 -0.031978,0.029158 -0.052901,0.060039 -0.065991,0.082128 -0.02113,0.035761 -0.030297,0.059529 -0.034342,0.067787 -0.00329,0.0067 -0.00278,0.00333 0.0059,-0.00751 -0.028616,0.035664 -0.058383,0.072659 -0.087833,0.1098274 -0.060134,0.07588 -0.1206252,0.154245 -0.1790456,0.235464 -0.036957,0.05143 -0.073844,0.104997 -0.1091543,0.160905 -0.025652,0.04068 -0.05149,0.08414 -0.075574,0.130326 -0.017074,0.03284 -0.034624,0.06954 -0.049954,0.109608 -0.011188,0.02876 -0.01674,0.04853 -0.019691,0.05681 -0.013869,0.03969 -0.028532,0.07405 -0.045099,0.104702 -0.00396,0.0074 -0.011945,0.02045 -0.023796,0.04105 -0.019851,0.03429 -0.039636,0.06924 -0.05907,0.104213 -0.017497,0.03156 -0.035642,0.06473 -0.053336,0.09899 -0.00787,0.01532 -0.017783,0.03479 -0.027252,0.05598 -0.00266,0.0061 -0.01316,0.02523 -0.021986,0.06329 -0.012462,0.05375 -0.023951,0.109157 -0.015559,0.163687 0.0042,0.02726 0.013216,0.05389 0.027456,0.07751 0.014239,0.02363 0.033687,0.04414 0.056731,0.0593 0.023044,0.01516 0.049576,0.02491 0.076907,0.02865 0.027331,0.0037 0.055349,0.0015 0.082058,-0.0054 0.053418,-0.0138 0.099836,-0.04615 0.1443593,-0.07873 0.019202,-0.01405 0.032401,-0.02795 0.036838,-0.03264 0.023753,-0.0259 0.039731,-0.05016 0.044126,-0.0566 0.01552,-0.02315 0.028323,-0.04413 0.039122,-0.06213 0.022073,-0.03693 0.042689,-0.07337 0.062171,-0.10834 0.034264,-0.06162 0.067343,-0.123163 0.099658,-0.184123 0.029422,-0.05557 0.058549,-0.111289 0.087344,-0.167307 0.00886,-0.01717 0.017852,-0.035 0.026718,-0.05315 0.024426,-0.04982 0.047994,-0.100018 0.070604,-0.14821 0.050814,-0.108465 0.099333,-0.212754 0.150655,-0.315463 0.030478,-0.06095 0.061097,-0.119802 0.09316,-0.176642 0.022513,-0.03984 0.044916,-0.07729 0.068225,-0.1124854 0.01702,-0.025641 0.03313,-0.048015 0.0493,-0.067706 0.008,-0.0098 0.01319,-0.015175 0.02949,-0.033739 0.07512,-0.084983 0.151666,-0.1739124 0.2252,-0.2670273 0.05806,-0.073481 0.114338,-0.1497412 0.167513,-0.2290891 0.02611,-0.038808 0.05023,-0.077992 0.07206,-0.1139224 0.03751,-0.061737 0.068,-0.1133619 0.102026,-0.1635629 0.02177,-0.032082 0.04234,-0.059539 0.06324,-0.083204 0.0088,-0.010015 0.02025,-0.021126 0.03778,-0.036561 0.01922,-0.016931 0.06443,-0.054308 0.0985,-0.087718 0.02696,-0.026449 0.05725,-0.05976 0.08429,-0.1006027 0.01264,-0.019341 0.01854,-0.029291 0.01942,-0.030582 0.008,-0.011728 0.0049,-0.00568 -0.004,0.00269 -0.0062,0.00569 -0.02412,0.025309 -0.06835,0.040942 -0.04429,0.015656 -0.08994,0.030653 -0.13691,0.029838 -0.04697,-8.15e-4 -0.09417,-0.018538 -0.12714,-0.05201 -0.03297,-0.033472 -0.04998,-0.080841 -0.05059,-0.1278179 -6.11e-4,-0.046977 0.01405,-0.092652 0.02928,-0.1370965 0.01291,-0.037678 0.0267,-0.051798 0.0253,-0.049892 0.0027,-0.00356 0.0053,-0.00667 -0.0117,0.011817 -0.0024,0.00267 -0.02707,0.028119 -0.04659,0.058261 -0.01408,0.022587 -0.02547,0.041541 -0.03651,0.060467 -0.04564,0.078222 -0.08619,0.1574033 -0.123628,0.232158 -0.0065,0.012981 -0.01322,0.026631 -0.02001,0.04012 -0.0016,0.00244 -0.0023,0.00396 0.0021,-0.00401 0.0038,-0.00683 0.01533,-0.026922 0.03648,-0.047929 0.01345,-0.013366 0.02849,-0.025042 0.04483,-0.034665 -0.01757,0.010348 -0.03174,0.021374 -0.04267,0.03101 -0.02414,0.021676 -0.04201,0.043415 -0.047,0.049291 -0.01812,0.021659 -0.0335,0.041624 -0.04663,0.058909 -0.008,0.010623 -0.0189,0.02492 -0.02944,0.039793 -0.02605,0.036743 -0.04888,0.073724 -0.06919,0.1091347 -0.02774,0.048452 -0.05251,0.097071 -0.07512,0.1449967 -0.02612,0.055447 -0.05004,0.1114754 -0.07198,0.1679724 -0.01722,0.044433 -0.03361,0.090124 -0.04848,0.1371268 0.0049,-0.018628 0.01411,-0.029607 0.0137,-0.029017 -0.001,0.0015 -0.0104,0.012856 -0.0269,0.034573 -0.0086,0.011429 -0.035544,0.046081 -0.053844,0.092453 -0.00607,0.016858 -0.00773,0.021688 -0.00945,0.026405 -0.00915,0.02534 -0.026309,0.072086 -0.035229,0.096793 -0.00832,0.022961 -0.017454,0.048079 -0.026253,0.073532 -0.00113,0.00335 -0.00633,0.015671 -0.012497,0.041036 -0.00833,0.034282 -0.016197,0.069147 -0.015027,0.1044082 0.00117,0.035261 0.011703,0.070467 0.032088,0.099262 0.020385,0.0288 0.050008,0.05042 0.082667,0.06376 0.032659,0.01334 0.067945,0.01866 0.1028945,0.02347 0.03926,0.0054 0.07278,7.29e-4 0.09663,-0.0051 0.02331,-0.0057 0.04139,-0.01346 0.05122,-0.01799 0.04809,-0.02322 0.07962,-0.0515 0.09139,-0.06197 0.02326,-0.02101 0.04169,-0.0407 0.05614,-0.05679 0.02515,-0.02813 0.04748,-0.055918 0.06736,-0.081564 0.03156,-0.040822 0.06094,-0.081637 0.08863,-0.1213191 0.04051,-0.058139 0.07921,-0.1165521 0.116571,-0.1746467 0.02362,-0.036773 0.04708,-0.073936 0.0702,-0.1116132 0.05236,-0.08581 0.102271,-0.1717147 0.150631,-0.2574337 0.02407,-0.042822 0.0483,-0.08533 0.07275,-0.1278938 0.06822,-0.1187899 0.139459,-0.2409781 0.208097,-0.3635481 0.06338,-0.1131905 0.126053,-0.2291031 0.184891,-0.348199 0.04612,-0.093433 0.09037,-0.1897372 0.130257,-0.2891664 0.0332,-0.082861 0.06382,-0.1689519 0.08914,-0.2581822 0.0053,-0.018468 0.0093,-0.034233 0.01255,-0.045957 0.0018,-0.00617 0.0058,-0.017367 0.01225,-0.03289 0.0096,-0.023003 0.02118,-0.047198 0.03455,-0.07275 0.01538,-0.029304 0.03191,-0.05799 0.04947,-0.08573 0.01447,-0.02279 0.0284,-0.043045 0.04238,-0.061099 0.0094,-0.012062 0.01587,-0.019367 0.02064,-0.024066 0.01808,-0.0179 0.03793,-0.035514 0.06031,-0.054031 0.0224,-0.01849 0.04553,-0.036359 0.06912,-0.053383 0.01256,-0.009 0.02097,-0.01484 0.02829,-0.019425 0.0011,-5.343e-4 0.002,-0.00112 -0.0026,0.00154 -0.0039,0.00227 -0.01562,0.00892 -0.03211,0.014976 -0.05452,0.020009 -0.111062,0.039186 -0.169072,0.03648 -0.029,-0.00135 -0.05787,-0.00808 -0.08395,-0.020845 -0.02608,-0.012764 -0.04923,-0.031566 -0.06674,-0.05473 -0.01751,-0.023164 -0.02928,-0.050568 -0.03444,-0.079143 -0.0052,-0.028575 -0.0037,-0.058183 0.0029,-0.086454 0.01325,-0.056541 0.04718,-0.1056771 0.08136,-0.1526268 -0.0055,0.00761 -0.01099,0.015223 -0.01634,0.022823 -0.03678,0.052278 -0.07022,0.1054007 -0.101077,0.158277 -0.0384,0.065896 -0.07365,0.1329468 -0.106074,0.2007916 -0.032,0.067042 -0.06165,0.1357044 -0.08827,0.2060578 -0.01811,0.047955 -0.0351,0.097389 -0.05012,0.1483225 -0.0022,0.00403 -0.0046,0.0085 -0.0073,0.01342 -0.01502,0.027701 -0.03168,0.058771 -0.04776,0.091203 -0.0074,0.015076 -0.01695,0.034708 -0.02591,0.056514 -0.0015,0.00378 -0.0056,0.014008 -0.009,0.02377 -0.0038,0.011142 -0.0093,0.028654 -0.01275,0.050311 -0.0056,0.034819 -0.0108,0.070135 -0.0073,0.1052313 0.0035,0.035096 0.01597,0.069592 0.03789,0.097226 0.02192,0.027633 0.05267,0.047642 0.08608,0.058966 0.0334,0.011324 0.06899,0.01418 0.104182,0.016487 0.0347,0.00227 0.06374,-0.00307 0.08419,-0.00872 0.01999,-0.00553 0.03536,-0.012399 0.04311,-0.016032 0.04315,-0.021195 0.07119,-0.046136 0.07968,-0.053519 0.02217,-0.01964 0.03926,-0.037708 0.05176,-0.051334 0.03007,-0.032951 0.05721,-0.066812 0.07823,-0.09272 0.0097,-0.011699 0.01392,-0.016553 0.01099,-0.013488 0.01831,-0.01823 0.0397,-0.040536 0.06056,-0.063178 0.07266,-0.07884 0.1389,-0.1618755 0.199541,-0.2470035 0.0693,-0.097237 0.131447,-0.1973578 0.188534,-0.2972344 0.06807,-0.1190974 0.130198,-0.2399482 0.189246,-0.3569139 4.14e-4,-7.203e-4 0.0036,-0.00669 0.01262,-0.022559 0.01131,-0.019847 0.02706,-0.048465 0.04062,-0.081843 0.008,-0.020197 0.02486,-0.063594 0.02774,-0.1179526 9.54e-4,-0.020841 2.81e-4,-0.046467 -0.0061,-0.075452 -0.0065,-0.02948 -0.01961,-0.06556 -0.04562,-0.1006797 -0.01788,-0.024141 -0.03736,-0.04783 -0.06279,-0.06382 -0.02543,-0.01599 -0.0552,-0.023338 -0.08467,-0.029142 -0.02906,-0.00572 -0.05368,-0.00527 -0.06978,-0.00404 -0.01526,0.00116 -0.02784,0.00352 -0.03026,0.00395 -0.04032,0.00818 -0.06933,0.019826 -0.08152,0.02466 -0.0217,0.00878 -0.04097,0.017574 -0.05927,0.026676 -0.0013,5.865e-4 0.0025,-5.862e-4 0.0044,-0.00107 -0.0013,3.245e-4 -0.0089,0.00179 -0.02317,0.00262 -0.02529,0.00142 -0.04442,6.953e-4 -0.08671,0.00118 -0.0286,3.387e-4 -0.067,0.00127 -0.108219,0.00696 -0.03392,0.00472 -0.07585,0.01343 -0.119786,0.03184 -0.01358,0.00569 -0.02702,0.010868 -0.04032,0.015523 -0.01603,0.00559 -0.02839,0.00924 -0.03857,0.011556 -0.0092,0.00205 -0.0057,5.447e-4 0.0034,4.96e-4 -0.03892,1.3e-6 -0.08348,0.00163 -0.13017,0.00762 -0.03567,0.00454 -0.07094,0.011527 -0.105315,0.020691 -0.04905,0.013032 -0.09413,0.02978 -0.131219,0.044233 0.0024,-0.00108 0.01534,-0.00585 0.03219,-0.00914 0.0017,-3.371e-4 0.0035,-3.061e-4 -0.01521,0.00126 -0.01876,0.00141 -0.0405,0.0024 -0.06485,0.00332 -0.04577,0.00166 -0.09236,0.00251 -0.139726,0.00298 -0.06191,5.729e-4 -0.123507,4.223e-4 -0.18472,-6.245e-4 -0.03843,-6.87e-4 -0.07528,-0.00166 -0.111323,-0.00343 -0.01877,-9.517e-4 -0.03414,-0.00191 -0.04817,-0.00332 -0.01389,-0.00155 -0.0055,-0.00103 0.0042,0.00149 -0.02042,-0.00576 -0.04467,-0.01148 -0.06855,-0.016264 -0.06298,-0.012627 -0.124249,-0.018879 -0.180753,-0.022286 -0.07434,-0.00448 -0.152648,-0.00454 -0.213797,-0.00575 -0.05598,-0.0011 -0.105107,-0.00309 -0.151542,-0.00829 C 9.9731001,6.7865404 9.8908676,6.7779015 9.8086289,6.7701593 9.6512003,6.7553208 9.4936953,6.7438028 9.3361721,6.7361681 9.1762653,6.7283884 9.016762,6.7246337 8.8579511,6.7245736 c -0.011802,7.21e-5 -0.023775,-4.243e-4 -0.039967,-0.00148 -0.028469,-0.0019 -0.060326,-0.00487 -0.095346,-0.00763 -0.039674,-0.00313 -0.084937,-0.00627 -0.1321815,-0.00654 -0.031156,-1.328e-4 -0.067286,8.604e-4 -0.1058981,0.00573 -0.027921,0.00359 -0.063145,0.00983 -0.1009524,0.023053 -0.00882,0.00308 -0.017446,0.00669 -0.025835,0.010804 -0.010966,0.00538 -0.00805,0.00377 -0.00381,0.00216 -2.948e-4,1.012e-4 0.00279,-0.00128 0.011601,-0.00365 0.00845,-0.00227 0.024092,-0.0058 0.044478,-0.0063 0.036581,-8.869e-4 0.073694,-0.00123 0.1090814,0.00808 0.035387,0.00931 0.068514,0.028672 0.09165,0.057023 0.023136,0.02835 0.035447,0.064746 0.037098,0.1013006 0.00165,0.036555 -0.0069,0.072716 -0.015946,0.1081722 -0.00666,0.026116 -0.016837,0.043713 -0.019757,0.04866 -0.00342,0.00605 -0.00684,0.010599 -0.00732,0.011272 -4.85e-4,6.763e-4 0.00195,-0.0025 0.00692,-0.00972 0.013448,-0.01953 0.026294,-0.039851 0.033338,-0.062493 0.00704,-0.022642 0.008,-0.046664 0.008,-0.070376 -7e-7,0.00287 -1.102e-4,0.00487 -1.637e-4,0.00571 -1.456e-4,0.00218 2.708e-4,-0.00252 0.00234,-0.012902 0.00317,-0.015622 0.00774,-0.033561 0.013738,-0.055253 0.014196,-0.051029 0.030271,-0.1002672 0.048502,-0.1591284 0.00587,-0.019059 0.012944,-0.04204 0.019358,-0.06612 0.019422,-0.074095 0.033707,-0.1465045 0.045231,-0.2159683 0.018573,-0.1119535 0.032089,-0.230829 0.04538,-0.3304041 0.010803,-0.080916 0.02217,-0.1558084 0.037476,-0.2278706 0.0049,-0.023184 0.010528,-0.046815 0.016797,-0.072612 0.028179,-0.1155035 0.061766,-0.2312396 0.096678,-0.3496712 0.035621,-0.120806 0.072564,-0.2443904 0.1054988,-0.3701471 0.00788,-0.029831 0.014947,-0.059684 0.021293,-0.08865 0.015862,-0.072428 0.029078,-0.1470625 0.04102,-0.2110508 0.011522,-0.061727 0.022368,-0.117171 0.035559,-0.1706383 0.00576,-0.023083 0.013003,-0.050066 0.018895,-0.073701 0.034679,-0.1369972 0.065409,-0.2750659 0.090585,-0.4139797 0.021619,-0.1194385 0.039117,-0.2393468 0.050952,-0.3599054 0.010266,-0.1048648 0.016263,-0.2102574 0.01628,-0.3160376 -4e-7,-0.00198 2.864e-4,-0.00739 0.00244,-0.017632 5.202e-4,-0.00247 0.00112,-0.00512 0.00183,-0.008 0.00398,-0.016225 0.00946,-0.033288 0.018365,-0.060796 0.00683,-0.021161 0.017323,-0.053194 0.025278,-0.087611 0.00633,-0.027591 0.012981,-0.064472 0.01301,-0.1067219 -1.5e-6,0.00486 -7.293e-4,0.00624 5.01e-5,0.00327 9.803e-4,-0.00371 0.00315,-0.0098 0.0074,-0.017981 0.00442,-0.00835 0.00527,-0.00858 0.00274,-0.00541 -0.00259,0.00324 -0.00527,0.00642 -0.00802,0.00952 0.0067,-0.00753 0.00687,-0.00766 6.057e-4,-7.925e-4 -0.0055,0.00603 -0.020404,0.021844 -0.043866,0.03686 -0.040137,0.025688 -0.081641,0.051076 -0.1280824,0.061755 -0.046441,0.010679 -0.097129,0.00538 -0.1382693,-0.018663 -0.041141,-0.024047 -0.070626,-0.065612 -0.084124,-0.1113135 -0.013498,-0.045702 -0.011773,-0.094323 -0.00912,-0.141902 0.00208,-0.037366 0.01301,-0.065732 0.020509,-0.081733 0.00775,-0.016537 0.01264,-0.023062 0.012008,-0.02207 0.013236,-0.019477 0.021867,-0.026983 0.010483,-0.01577 -0.00651,0.00627 -0.016107,0.01477 -0.029376,0.026228 -0.028171,0.024224 -0.059615,0.049957 -0.092913,0.078043 -0.02078,0.017545 -0.044395,0.037639 -0.068013,0.059421 -0.012715,0.011829 -0.032984,0.030753 -0.052825,0.05402 -0.013584,0.016479 -0.020116,0.025351 -0.023306,0.029395 -0.09325,0.1198411 -0.1880537,0.2402548 -0.2802427,0.3631095 -0.080466,0.107232 -0.1594854,0.2171689 -0.2343168,0.331081 -0.017173,0.02612 -0.03397,0.052275 -0.050367,0.078275 -0.00984,0.015349 -0.024412,0.033736 -0.044308,0.055514 -0.036723,0.040169 -0.087931,0.086293 -0.144492,0.1467032 -0.03145,0.033607 -0.065814,0.073518 -0.096954,0.1201368 C 7.9031183,4.2634371 7.857135,4.3243954 7.807947,4.3856905 7.7105481,4.5070456 7.6011704,4.6285397 7.4934241,4.7611917 7.4317868,4.8370761 7.3705196,4.9170044 7.3136682,5.0021616 c 0.00105,-0.00158 -1.604e-4,4.436e-4 -0.00455,0.00477 -0.00912,0.00899 -0.020588,0.018195 -0.045352,0.037661 -0.016937,0.013333 -0.044366,0.034677 -0.070813,0.060104 -0.022933,0.022095 -0.051223,0.052929 -0.075274,0.093511 -0.010371,0.01826 -0.017172,0.030112 -0.023839,0.041121 -0.031071,0.051532 -0.066497,0.1021693 -0.1054972,0.1541991 -0.073067,0.097427 -0.1569516,0.1967713 -0.2400452,0.3066098 -0.045112,0.059661 -0.090431,0.1231525 -0.1322702,0.1911512 9.52e-4,-0.00168 0.00226,-0.00216 -0.00257,0.00288 -0.0075,0.00784 -0.026299,0.02396 -0.054005,0.050638 -0.015428,0.014961 -0.042515,0.041807 -0.066463,0.078306 -0.025604,0.039271 -0.050736,0.077475 -0.075865,0.1152568 C 6.33249,6.2655887 6.2473423,6.3889342 6.1593565,6.5083848 6.0877943,6.6054946 6.0152425,6.6988462 5.940182,6.788115 5.8765763,6.863718 5.8120306,6.9353774 5.7453201,7.0026152 c -0.011127,0.011042 -0.027398,0.027379 -0.043779,0.04604 -0.033473,0.037807 -0.062225,0.077049 -0.086316,0.1120138 -0.047559,0.069122 -0.084434,0.1312218 -0.1192245,0.18149 -0.019382,0.027977 -0.036593,0.050515 -0.053548,0.069378 -0.014638,0.016274 -0.02737,0.027761 -0.038397,0.035805 -0.043255,0.029714 -0.071803,0.070716 -0.082778,0.086667 -0.021308,0.03131 -0.032005,0.051998 -0.037506,0.060978 -0.00631,0.010243 -0.00312,0.00364 0.0055,-0.00543 -0.00862,0.00855 -0.020553,0.021062 -0.031881,0.03335 -0.026166,0.028376 -0.050819,0.056855 -0.072916,0.082665 -0.041391,0.048436 -0.080263,0.095262 -0.1179063,0.1398436 -0.036338,0.043029 -0.070237,0.082695 -0.1046103,0.1208331 -0.022088,0.02446 -0.04231,0.046038 -0.06228,0.065708 -0.01331,0.013065 -0.023733,0.022574 -0.032895,0.030025 -0.00988,0.00795 -0.007,0.00445 0.00234,-3.56e-5 -0.031741,0.014952 -0.055749,0.034441 -0.070631,0.048146 -0.038971,0.036527 -0.061212,0.074585 -0.070606,0.090892 -0.015983,0.028158 -0.027488,0.053741 -0.035543,0.072399 -0.015476,0.03606 -0.030667,0.076762 -0.040143,0.1010879 -0.00898,0.023008 -0.015226,0.03841 -0.021634,0.052046 -0.00407,0.00858 -0.00571,0.010598 -0.00356,0.00745 a 0.234375,0.234375 90 0 0 0.38746,0.2638206 z"
     id="path-1"
     inkscape:path-effect="#path-effect22;#path-effect23"
     inkscape:original-d="M 4.8207388,8.5658827 C 4.8712104,8.4922203 4.9125459,8.3005186 4.9705734,8.2732344 5.0804801,8.2215568 5.3334592,7.8767247 5.4577513,7.7524643 5.4873522,7.7228708 5.5085603,7.6609369 5.5404158,7.6379709 5.6906581,7.5296547 5.7700427,7.3091524 5.9017992,7.177619 6.1835894,6.8963058 6.4493316,6.5192145 6.6889477,6.1516848 6.7175554,6.1078054 6.7814744,6.0699221 6.813921,6.0169167 6.9603184,5.777759 7.1812799,5.5646191 7.3173847,5.3210354 7.3573602,5.2494921 7.4569317,5.2096821 7.5085955,5.1322961 7.6970983,4.8499418 7.9517704,4.61261 8.1395416,4.3314338 8.2197091,4.2113877 8.353397,4.1233279 8.4304609,4.0010619 8.5997276,3.7325115 8.7932072,3.4910797 8.9934044,3.2335067 c 0.04693,-0.060379 0.2593689,-0.2128408 0.2593689,-0.2415552 0,-0.00768 -0.067699,0.080749 -0.067699,0.1714391 0,0.082704 -0.060925,0.179233 -0.060925,0.2808867 0,0.3558174 -0.075009,0.7437329 -0.1642933,1.0854912 -0.040713,0.1558338 -0.061008,0.3294701 -0.101037,0.4829807 -0.068423,0.2623979 -0.1545627,0.5131554 -0.2149305,0.7724695 -0.060765,0.2610201 -0.064753,0.5357534 -0.1329766,0.7974601 -0.021341,0.081864 -0.092177,0.2755899 -0.092177,0.3499117 0,9.902e-4 -0.023123,0.026379 -0.011272,0.039648 0.00949,0.010624 0.051164,-0.012473 0.053492,-0.013291 0.1003297,-0.035257 0.2907949,0 0.3921528,0 0.4058818,0 0.7745978,0.024151 1.1734263,0.069581 0.196269,0.022356 0.395773,-0.00596 0.583815,0.046704 0.06991,0.019579 0.625622,0.017192 0.669527,0 0.10342,-0.040497 0.168101,-0.057496 0.28526,-0.057496 0.04639,0 0.121518,-0.027632 0.164793,-0.04578 0.101001,-0.042357 0.250621,0.00236 0.344068,-0.046222 0.01321,-0.00687 0.08893,-0.043595 0.09877,-0.030278 0.02519,0.034088 -0.03534,0.1240203 -0.04623,0.1456232 -0.166805,0.3307321 -0.336594,0.6503555 -0.601912,0.9156733 -0.02356,0.023563 -0.133277,0.1761959 -0.166614,0.1632328 -0.01551,-0.00603 0.08699,-0.1852293 0.08832,-0.1900282 0.06275,-0.2255818 0.198536,-0.5022309 0.332917,-0.6868162 0.0068,-0.00933 -0.12133,0.077093 -0.209154,0.1648321 -0.07953,0.079452 -0.193306,0.2817075 -0.220735,0.3867349 -0.116272,0.4452004 -0.433492,0.9455243 -0.668051,1.3623009 -0.04876,0.086648 -0.09841,0.1722153 -0.1494,0.2559347 -0.03008,0.049391 -0.350493,0.5692072 -0.415819,0.5228882 -0.0022,-0.00156 0.06594,-0.1840922 0.0725,-0.2043762 0.01155,-0.035723 0.06112,-0.0766 0.07254,-0.1130753 0.04846,-0.1547155 0.145031,-0.3794092 0.244107,-0.5123939 0.119011,-0.1597412 0.06201,-0.052331 0.105743,-0.1398049 0.04764,-0.095288 0.09556,-0.1886584 0.151786,-0.2791423 0.01693,-0.027245 0.08179,-0.078348 0.04995,-0.082254 -0.02182,-0.00268 -0.05684,0.057278 -0.06719,0.073715 -0.05081,0.080636 -0.138733,0.1310659 -0.202185,0.2021856 -0.09766,0.1094634 -0.173045,0.2595684 -0.25438,0.3815699 -0.120901,0.1813528 -0.254451,0.338709 -0.3967221,0.4990167 -0.1714311,0.193164 -0.3680085,0.6664142 -0.4891415,0.9086802 -0.018317,0.03663 -0.2937949,0.572396 -0.3171167,0.555864 -0.010997,-0.0078 0.1315759,-0.255621 0.1460981,-0.279656 0.037565,-0.06217 0.064983,-0.130149 0.085736,-0.194273 0.065985,-0.203881 0.3367799,-0.536414 0.4743051,-0.707903 0.025893,-0.03229 0.035918,-0.080856 0.064639,-0.1110251 0.031922,-0.033532 -0.047857,0.079273 -0.072546,0.1184381 -0.04854,0.077 -0.086642,0.161868 -0.128973,0.243655 -0.1762911,0.340609 -0.3357006,0.717807 -0.6087742,0.990509 -0.1673096,0.167081 -0.4091078,0.312354 -0.5603247,0.50788 -0.060784,0.07859 -0.1732038,0.323146 -0.2356987,0.375294 -0.01697,0.01416 -0.044752,0.01302 -0.059304,0.02965 -0.084432,0.09652 -0.1294123,0.265976 -0.2360992,0.340253 -0.02231,0.01553 0.02239,-0.04956 0.034548,-0.07388 0.030564,-0.06113 0.066055,-0.107289 0.1017341,-0.162558 0.161098,-0.274341 0.092664,-0.168616 0.1957484,-0.323244 0.077218,-0.115827 0.1126572,-0.228173 0.1737632,-0.349074 0.073877,-0.146168 0.2312345,-0.365068 0.3412829,-0.498869 0.01676,-0.02038 0.08885,-0.161414 0.1162014,-0.148085 0.04131,0.02013 -0.103261,0.15063 -0.1044398,0.152439 -0.1026735,0.157579 -0.188036,0.334773 -0.2793884,0.499141 -0.2540249,0.457061 -0.6578864,0.776656 -0.9256029,1.201418 -0.017713,0.0281 -0.095336,0.179065 -0.1152487,0.179065 -0.029052,0 0.053847,-0.02185 0.081041,-0.03207 0.071148,-0.02675 0.2475875,-0.143655 0.2743883,-0.209171 0.077261,-0.188869 0.118053,-0.361237 0.1692533,-0.556931 0.066545,-0.254341 -0.091996,-0.632994 -0.01425,-0.870492 0.052772,-0.161205 0.032691,-0.341551 0.075403,-0.505355 0.045434,-0.174241 0.1321408,-0.291801 0.1761608,-0.453757 0.052384,-0.192726 0.00647,-0.4765292 0.060128,-0.6818718 0.023957,-0.091683 0.013117,-0.1739554 0.031113,-0.2672157 0.025673,-0.1330473 0.050926,-0.2763456 0.093306,-0.4057684 0.033937,-0.1036405 0.025012,-0.2655074 0.054793,-0.3796625 0.025359,-0.097204 0.00468,-0.1985615 0.040528,-0.2945109 0.012159,-0.032543 0.012302,-0.135489 0.021486,-0.101984 0.021244,0.0775 0.1040774,0.3173845 -0.01812,0.3721771 -0.075102,0.033684 -0.211104,-0.09755 -0.2677237,-0.1321735 -0.089608,-0.054796 -0.3982753,-0.028541 -0.5192805,-0.028541 -0.2977729,0 -0.8435466,-0.048739 -1.1085081,0 -0.2267495,0.04171 -0.4798378,0.037777 -0.7187481,0.037777 -0.1957928,0 -0.8468953,-0.046261 -0.9860487,0 -0.041885,0.013925 -0.07368,0.06044 -0.1178188,0.06044 -0.042124,0 -0.1082512,-0.06044 -0.169754,-0.06044"
     style="fill:#666666;fill-opacity:1;fill-rule:nonzero;stroke:none" />
</svg>
