<svg width="24" height="24" viewBox="0 0 24 24" fill="none" xmlns="http://www.w3.org/2000/svg">
<path d="M9.16667 3C8.70646 3 8.33333 3.36634 8.33333 3.81818C8.33333 4.27002 8.70646 4.63636 9.16667 4.63636H14.8333C15.2935 4.63636 15.6667 4.27002 15.6667 3.81818C15.6667 3.36634 15.2935 3 14.8333 3H9.16667Z" fill="white"/>
<path d="M5.83333 7.90909C5.83333 7.45725 6.20646 7.09091 6.66667 7.09091H17.3333C17.7935 7.09091 18.1667 7.45725 18.1667 7.90909C18.1667 8.36093 17.7935 8.72727 17.3333 8.72727H6.66667C6.20646 8.72727 5.83333 8.36093 5.83333 7.90909Z" fill="white"/>
<path d="M5 11.1818C3.61938 11.1818 2.5 12.2809 2.5 13.6364V15.208C2.80623 15.0742 3.14445 15 3.5 15C3.73087 15 3.95443 15.0313 4.16667 15.0899V14.0455C4.16667 13.3675 4.72616 12.8182 5.41667 12.8182H18.5833C19.2738 12.8182 19.8333 13.3675 19.8333 14.0455V18.1364C19.8333 18.8143 19.2738 19.3636 18.5833 19.3636H8.41829C8.47161 19.5668 8.5 19.7801 8.5 20C8.5 20.3556 8.42578 20.6938 8.29198 21H19C20.3806 21 21.5 19.901 21.5 18.5455V13.6364C21.5 12.2809 20.3806 11.1818 19 11.1818H5Z" fill="white"/>
<path d="M2.5 17.5C2.5 16.9477 2.94772 16.5 3.5 16.5C4.05228 16.5 4.5 16.9477 4.5 17.5V19H6C6.55228 19 7 19.4477 7 20C7 20.5523 6.55228 21 6 21H4.5V22.5C4.5 23.0523 4.05228 23.5 3.5 23.5C2.94772 23.5 2.5 23.0523 2.5 22.5V21H1C0.447715 21 0 20.5523 0 20C0 19.4477 0.447715 19 1 19H2.5V17.5Z" fill="white"/>
</svg>
