<svg width="24" height="24" viewBox="0 0 24 24" fill="none" xmlns="http://www.w3.org/2000/svg">
<path d="M8 1C7.44775 1 7 1.44775 7 2C7 2.55225 7.44775 3 8 3H16C16.5522 3 17 2.55225 17 2C17 1.44775 16.5522 1 16 1H8Z" fill="#AAAAAA"/>
<path d="M4 7C4 6.44775 4.44775 6 5 6H19C19.5522 6 20 6.44775 20 7C20 7.55225 19.5522 8 19 8H5C4.44775 8 4 7.55225 4 7Z" fill="#AAAAAA"/>
<path fill-rule="evenodd" clip-rule="evenodd" d="M3 11C1.34326 11 0 12.3433 0 14V20C0 21.6567 1.34326 23 3 23H21C22.6567 23 24 21.6567 24 20V14C24 12.3433 22.6567 11 21 11H3ZM20.5 21C21.3286 21 22 20.3286 22 19.5V14.5C22 13.6714 21.3286 13 20.5 13H3.5C2.67139 13 2 13.6714 2 14.5V19.5C2 20.3286 2.67139 21 3.5 21H20.5Z" fill="#AAAAAA"/>
</svg>
