<svg width="64" height="64" viewBox="0 0 64 64" fill="none" xmlns="http://www.w3.org/2000/svg">
<g clip-path="url(#clip0_122_618)">
<path d="M11.4291 19.091C13.954 19.091 16.0006 17.0559 16.0006 14.5455C16.0006 12.0351 13.954 10 11.4291 10C8.90458 10 6.8577 12.0351 6.8577 14.5455C6.8577 17.0559 8.90458 19.091 11.4291 19.091Z" fill="url(#paint0_radial_122_618)"/>
<path d="M5.71429 46.3637H13.7143V35.0002C13.7146 31.3224 16.3175 28.4368 19.5525 26.5987C20.2877 26.181 21.0778 25.8023 21.9146 25.4661C20.1551 23.0521 16.1225 21.364 11.4286 21.364C5.11691 21.364 0.000279018 24.4168 0 28.1823V37.2729C0 38.528 1.02344 39.5456 2.28571 39.5456C2.91685 39.5456 3.42857 40.0543 3.42857 40.6819V44.091C3.42857 45.3462 4.45201 46.3637 5.71429 46.3637Z" fill="url(#paint1_radial_122_618)"/>
<path d="M47.9994 14.5455C47.9994 17.0559 50.046 19.091 52.5709 19.091C55.0957 19.091 57.1423 17.0559 57.1423 14.5455C57.1423 12.0351 55.0957 10 52.5709 10C50.046 10 47.9994 12.0351 47.9994 14.5455Z" fill="url(#paint2_radial_122_618)"/>
<path d="M50.2857 35.0119V46.3637H58.2857C59.5483 46.3637 60.5714 45.3462 60.5714 44.091V40.6819C60.5714 40.0543 61.0831 39.5456 61.7143 39.5456C62.9768 39.5456 64 38.528 64 37.2729V28.1823C63.9997 24.4168 58.8831 21.364 52.5714 21.364C47.8778 21.364 43.8449 23.0521 42.0857 25.466C42.2405 25.5283 42.394 25.592 42.5458 25.6572C42.6805 25.715 42.8136 25.7739 42.9456 25.8339C43.4682 26.0717 43.9696 26.3269 44.4478 26.5987C47.6828 28.4368 50.286 31.3223 50.286 35.0003L50.2857 35.0119Z" fill="url(#paint3_radial_122_618)"/>
<path d="M31.9997 23.6366C35.7868 23.6366 38.8569 20.584 38.8569 16.8184C38.8569 13.0528 35.7868 10.0001 31.9997 10.0001C28.2126 10.0001 25.1426 13.0528 25.1426 16.8184C25.1426 20.584 28.2126 23.6366 31.9997 23.6366Z" fill="url(#paint4_radial_122_618)"/>
<path d="M48.0003 35.0003L48 35.0545V49.036C48 50.7553 46.7123 52.2055 44.9967 52.4188L44.4297 52.4892C43.8577 52.5603 43.4286 53.0437 43.4286 53.6169V57.7273C43.4286 58.9825 42.4051 60 41.1429 60H22.8571C21.5949 60 20.5714 58.9825 20.5714 57.7273V53.6169C20.5714 53.0437 20.1423 52.5603 19.5703 52.4892L19.0033 52.4188C17.2877 52.2055 16 50.7553 16 49.036V35.0003C16.0003 29.9796 23.1635 25.9093 32 25.9093C40.8368 25.9093 48.0003 29.9795 48.0003 35.0003Z" fill="url(#paint5_radial_122_618)"/>
<path d="M61.9012 60.0241L62.4949 60.4824L64.2685 58.1851L62.4152 58.9853C63.308 58.153 64.1437 56.9548 64.5363 55.2596C65.0611 52.9938 64.532 50.9719 63.8956 49.5431C63.5764 48.8265 63.2256 48.2479 62.9532 47.8467C62.8168 47.6457 62.6992 47.488 62.614 47.3785C62.5713 47.3237 62.5367 47.2808 62.5117 47.2506C62.4993 47.2355 62.4892 47.2235 62.4817 47.2147L62.4726 47.2039L62.4695 47.2003L62.4683 47.199L62.4679 47.1984C62.4677 47.1982 62.4675 47.198 61.9012 47.6898L62.4675 47.198L60.6328 45.0855L61.1648 47.832L61.1649 47.8321L61.1649 47.8323L61.1649 47.8323L61.1649 47.8324L61.1654 47.8348L61.1677 47.8473L61.1772 47.9002C61.1855 47.9472 61.1971 48.0163 61.2102 48.1016C61.2364 48.2732 61.2675 48.5057 61.2881 48.7533C61.3089 49.0041 61.3173 49.2528 61.3038 49.462C61.2896 49.6823 61.2557 49.7716 61.2524 49.7802C61.2522 49.7807 61.2521 49.7809 61.2522 49.7808C61.0603 50.1122 60.8287 50.3121 60.6585 50.3908C60.5778 50.428 60.532 50.429 60.5186 50.4279C60.5132 50.4275 60.5066 50.4282 60.4869 50.4113C60.3431 50.2871 60.1611 50.0104 60.0134 49.6116C59.8705 49.2257 59.7945 48.8188 59.7945 48.5121C59.7945 48.3887 59.8386 48.149 59.9263 47.7105L59.9302 47.6912C60.0401 47.1414 60.1889 46.3976 60.214 45.6303C60.2394 44.8556 60.143 43.9787 59.6936 43.2025L59.0445 43.5783L59.6936 43.2025C59.5245 42.9104 59.2368 42.5816 58.9189 42.2563C58.5886 41.9183 58.1793 41.5381 57.7258 41.138C56.8181 40.3371 55.705 39.4314 54.6296 38.5835C53.5526 37.7344 52.5066 36.9376 51.7302 36.3535C51.3419 36.0614 51.0206 35.8221 50.7963 35.6557C50.6841 35.5726 50.5962 35.5076 50.5361 35.4633L50.4675 35.4128L50.4497 35.3997L50.4451 35.3964L50.444 35.3955L50.4436 35.3953C50.4435 35.3952 50.4435 35.3952 50 36L50.4435 35.3952L48.5455 34.0034L49.2883 36.2367L49.2883 36.2367L49.2883 36.2367L49.2884 36.237L49.2891 36.2389L49.2918 36.2471L49.303 36.2815C49.313 36.3121 49.3279 36.3579 49.3469 36.4174C49.3849 36.5364 49.4395 36.7101 49.5053 36.9266C49.6368 37.3599 49.8121 37.9628 49.9872 38.6405C50.3432 40.0187 50.6767 41.6265 50.6767 42.756C50.6767 43.7929 50.3014 44.0369 50.1106 44.1029C49.8223 44.2024 49.3815 44.1104 49.0602 43.833C48.6821 43.5064 48.5135 43.1994 48.4365 42.9999C48.3972 42.898 48.38 42.8195 48.3726 42.7749C48.3698 42.7578 48.3684 42.7457 48.3678 42.7394L48.3678 40.5572L47.0241 42.2977L47.6178 42.756C47.0241 42.2977 47.024 42.2979 47.0239 42.298L47.0236 42.2984L47.0229 42.2993L47.021 42.3018L47.0152 42.3095L46.9956 42.3354C46.9792 42.3574 46.9562 42.3886 46.9275 42.4284C46.8702 42.5079 46.7901 42.6221 46.6948 42.7661C46.5046 43.0535 46.2519 43.4628 45.9987 43.9546C45.5008 44.9221 44.9634 46.2815 44.9634 47.6898C44.9634 49.0223 45.2212 49.9534 45.5089 50.5746C45.6522 50.884 45.8007 51.1117 45.9231 51.2702C45.933 51.283 45.9426 51.2952 45.9521 51.3071C45.951 51.3747 45.9396 51.4422 45.9142 51.5002C45.8899 51.5557 45.8414 51.6319 45.7049 51.7046C45.5555 51.7842 45.2716 51.8735 44.7611 51.8735C44.4927 51.8735 44.1854 51.7521 43.942 51.5419C43.6909 51.325 43.6067 51.1046 43.6067 50.9789V48.5121V47.2149L42.4825 47.8621L42.8567 48.5121C42.4825 47.8621 42.4823 47.8622 42.482 47.8623L42.4815 47.8626L42.4803 47.8633L42.4771 47.8652L42.4676 47.8708L42.4366 47.8893C42.4109 47.9048 42.3751 47.9268 42.3308 47.9551C42.2422 48.0115 42.1189 48.0933 41.9722 48.1988C41.6803 48.4089 41.2894 48.718 40.896 49.1143C40.1277 49.8884 39.25 51.0973 39.25 52.6235L39.25 52.6715C39.25 53.8658 39.25 54.9385 39.3768 55.8145C39.506 56.7073 39.7845 57.5398 40.462 58.1249C40.8495 58.4595 41.4918 58.896 42.1311 59.305L39.5372 58.1851L41.3108 60.4824L41.9045 60.0241C41.3108 60.4824 41.3109 60.4826 41.3111 60.4828L41.3114 60.4832L41.3121 60.4842L41.3142 60.4869L41.3205 60.4949L41.3414 60.5211C41.359 60.5431 41.384 60.5739 41.4161 60.6124C41.4804 60.6893 41.5733 60.7974 41.6931 60.9285C41.9324 61.1902 42.2808 61.5456 42.7236 61.928C43.6027 62.6871 44.8878 63.582 46.4581 64.034C47.7867 64.4164 48.9183 64.627 49.7639 64.743L51.5412 64.9868L50.4663 63.5506C49.9877 62.9111 49.6293 62.0945 49.4796 61.175C49.3957 60.6595 49.4781 60.0115 49.6963 59.2829C49.9117 58.5638 50.2421 57.8224 50.5956 57.1443C50.9478 56.4686 51.3146 55.8716 51.594 55.4428C51.599 55.435 51.604 55.4273 51.609 55.4197C51.625 55.4332 51.6412 55.447 51.6577 55.461C52.0646 55.808 52.61 56.2966 53.1667 56.8647C53.7253 57.4349 54.2831 58.0728 54.7232 58.7179C55.1697 59.3725 55.4584 59.982 55.5428 60.5005C55.7153 61.5603 55.5759 62.543 55.231 63.313L54.6253 64.6647L56.0734 64.3528C56.4905 64.2629 56.9183 64.1576 57.3475 64.034C58.9179 63.582 60.203 62.6871 61.0821 61.928C61.5249 61.5456 61.8733 61.1902 62.1125 60.9285C62.2323 60.7974 62.3253 60.6893 62.3895 60.6124C62.4217 60.5739 62.4467 60.5431 62.4643 60.5211L62.4852 60.4949L62.4914 60.4869L62.4935 60.4842L62.4943 60.4832L62.4946 60.4828C62.4947 60.4826 62.4949 60.4824 61.9012 60.0241Z" fill="white"/>
<path d="M61.9012 60.0241L62.4949 60.4824L64.2685 58.1851L62.4152 58.9853C63.308 58.153 64.1437 56.9548 64.5363 55.2596C65.0611 52.9938 64.532 50.9719 63.8956 49.5431C63.5764 48.8265 63.2256 48.2479 62.9532 47.8467C62.8168 47.6457 62.6992 47.488 62.614 47.3785C62.5713 47.3237 62.5367 47.2808 62.5117 47.2506C62.4993 47.2355 62.4892 47.2235 62.4817 47.2147L62.4726 47.2039L62.4695 47.2003L62.4683 47.199L62.4679 47.1984C62.4677 47.1982 62.4675 47.198 61.9012 47.6898L62.4675 47.198L60.6328 45.0855L61.1648 47.832L61.1649 47.8321L61.1649 47.8323L61.1649 47.8323L61.1649 47.8324L61.1654 47.8348L61.1677 47.8473L61.1772 47.9002C61.1855 47.9472 61.1971 48.0163 61.2102 48.1016C61.2364 48.2732 61.2675 48.5057 61.2881 48.7533C61.3089 49.0041 61.3173 49.2528 61.3038 49.462C61.2896 49.6823 61.2557 49.7716 61.2524 49.7802C61.2522 49.7807 61.2521 49.7809 61.2522 49.7808C61.0603 50.1122 60.8287 50.3121 60.6585 50.3908C60.5778 50.428 60.532 50.429 60.5186 50.4279C60.5132 50.4275 60.5066 50.4282 60.4869 50.4113C60.3431 50.2871 60.1611 50.0104 60.0134 49.6116C59.8705 49.2257 59.7945 48.8188 59.7945 48.5121C59.7945 48.3887 59.8386 48.149 59.9263 47.7105L59.9302 47.6912C60.0401 47.1414 60.1889 46.3976 60.214 45.6303C60.2394 44.8556 60.143 43.9787 59.6936 43.2025L59.0445 43.5783L59.6936 43.2025C59.5245 42.9104 59.2368 42.5816 58.9189 42.2563C58.5886 41.9183 58.1793 41.5381 57.7258 41.138C56.8181 40.3371 55.705 39.4314 54.6296 38.5835C53.5526 37.7344 52.5066 36.9376 51.7302 36.3535C51.3419 36.0614 51.0206 35.8221 50.7963 35.6557C50.6841 35.5726 50.5962 35.5076 50.5361 35.4633L50.4675 35.4128L50.4497 35.3997L50.4451 35.3964L50.444 35.3955L50.4436 35.3953C50.4435 35.3952 50.4435 35.3952 50 36L50.4435 35.3952L48.5455 34.0034L49.2883 36.2367L49.2883 36.2367L49.2883 36.2367L49.2884 36.237L49.2891 36.2389L49.2918 36.2471L49.303 36.2815C49.313 36.3121 49.3279 36.3579 49.3469 36.4174C49.3849 36.5364 49.4395 36.7101 49.5053 36.9266C49.6368 37.3599 49.8121 37.9628 49.9872 38.6405C50.3432 40.0187 50.6767 41.6265 50.6767 42.756C50.6767 43.7929 50.3014 44.0369 50.1106 44.1029C49.8223 44.2024 49.3815 44.1104 49.0602 43.833C48.6821 43.5064 48.5135 43.1994 48.4365 42.9999C48.3972 42.898 48.38 42.8195 48.3726 42.7749C48.3698 42.7578 48.3684 42.7457 48.3678 42.7394L48.3678 40.5572L47.0241 42.2977L47.6178 42.756C47.0241 42.2977 47.024 42.2979 47.0239 42.298L47.0236 42.2984L47.0229 42.2993L47.021 42.3018L47.0152 42.3095L46.9956 42.3354C46.9792 42.3574 46.9562 42.3886 46.9275 42.4284C46.8702 42.5079 46.7901 42.6221 46.6948 42.7661C46.5046 43.0535 46.2519 43.4628 45.9987 43.9546C45.5008 44.9221 44.9634 46.2815 44.9634 47.6898C44.9634 49.0223 45.2212 49.9534 45.5089 50.5746C45.6522 50.884 45.8007 51.1117 45.9231 51.2702C45.933 51.283 45.9426 51.2952 45.9521 51.3071C45.951 51.3747 45.9396 51.4422 45.9142 51.5002C45.8899 51.5557 45.8414 51.6319 45.7049 51.7046C45.5555 51.7842 45.2716 51.8735 44.7611 51.8735C44.4927 51.8735 44.1854 51.7521 43.942 51.5419C43.6909 51.325 43.6067 51.1046 43.6067 50.9789V48.5121V47.2149L42.4825 47.8621L42.8567 48.5121C42.4825 47.8621 42.4823 47.8622 42.482 47.8623L42.4815 47.8626L42.4803 47.8633L42.4771 47.8652L42.4676 47.8708L42.4366 47.8893C42.4109 47.9048 42.3751 47.9268 42.3308 47.9551C42.2422 48.0115 42.1189 48.0933 41.9722 48.1988C41.6803 48.4089 41.2894 48.718 40.896 49.1143C40.1277 49.8884 39.25 51.0973 39.25 52.6235L39.25 52.6715C39.25 53.8658 39.25 54.9385 39.3768 55.8145C39.506 56.7073 39.7845 57.5398 40.462 58.1249C40.8495 58.4595 41.4918 58.896 42.1311 59.305L39.5372 58.1851L41.3108 60.4824L41.9045 60.0241C41.3108 60.4824 41.3109 60.4826 41.3111 60.4828L41.3114 60.4832L41.3121 60.4842L41.3142 60.4869L41.3205 60.4949L41.3414 60.5211C41.359 60.5431 41.384 60.5739 41.4161 60.6124C41.4804 60.6893 41.5733 60.7974 41.6931 60.9285C41.9324 61.1902 42.2808 61.5456 42.7236 61.928C43.6027 62.6871 44.8878 63.582 46.4581 64.034C47.7867 64.4164 48.9183 64.627 49.7639 64.743L51.5412 64.9868L50.4663 63.5506C49.9877 62.9111 49.6293 62.0945 49.4796 61.175C49.3957 60.6595 49.4781 60.0115 49.6963 59.2829C49.9117 58.5638 50.2421 57.8224 50.5956 57.1443C50.9478 56.4686 51.3146 55.8716 51.594 55.4428C51.599 55.435 51.604 55.4273 51.609 55.4197C51.625 55.4332 51.6412 55.447 51.6577 55.461C52.0646 55.808 52.61 56.2966 53.1667 56.8647C53.7253 57.4349 54.2831 58.0728 54.7232 58.7179C55.1697 59.3725 55.4584 59.982 55.5428 60.5005C55.7153 61.5603 55.5759 62.543 55.231 63.313L54.6253 64.6647L56.0734 64.3528C56.4905 64.2629 56.9183 64.1576 57.3475 64.034C58.9179 63.582 60.203 62.6871 61.0821 61.928C61.5249 61.5456 61.8733 61.1902 62.1125 60.9285C62.2323 60.7974 62.3253 60.6893 62.3895 60.6124C62.4217 60.5739 62.4467 60.5431 62.4643 60.5211L62.4852 60.4949L62.4914 60.4869L62.4935 60.4842L62.4943 60.4832L62.4946 60.4828C62.4947 60.4826 62.4949 60.4824 61.9012 60.0241Z" fill="url(#paint6_linear_122_618)" fill-opacity="0.9"/>
<path d="M61.9012 60.0241L62.4949 60.4824L64.2685 58.1851L62.4152 58.9853C63.308 58.153 64.1437 56.9548 64.5363 55.2596C65.0611 52.9938 64.532 50.9719 63.8956 49.5431C63.5764 48.8265 63.2256 48.2479 62.9532 47.8467C62.8168 47.6457 62.6992 47.488 62.614 47.3785C62.5713 47.3237 62.5367 47.2808 62.5117 47.2506C62.4993 47.2355 62.4892 47.2235 62.4817 47.2147L62.4726 47.2039L62.4695 47.2003L62.4683 47.199L62.4679 47.1984C62.4677 47.1982 62.4675 47.198 61.9012 47.6898L62.4675 47.198L60.6328 45.0855L61.1648 47.832L61.1649 47.8321L61.1649 47.8323L61.1649 47.8323L61.1649 47.8324L61.1654 47.8348L61.1677 47.8473L61.1772 47.9002C61.1855 47.9472 61.1971 48.0163 61.2102 48.1016C61.2364 48.2732 61.2675 48.5057 61.2881 48.7533C61.3089 49.0041 61.3173 49.2528 61.3038 49.462C61.2896 49.6823 61.2557 49.7716 61.2524 49.7802C61.2522 49.7807 61.2521 49.7809 61.2522 49.7808C61.0603 50.1122 60.8287 50.3121 60.6585 50.3908C60.5778 50.428 60.532 50.429 60.5186 50.4279C60.5132 50.4275 60.5066 50.4282 60.4869 50.4113C60.3431 50.2871 60.1611 50.0104 60.0134 49.6116C59.8705 49.2257 59.7945 48.8188 59.7945 48.5121C59.7945 48.3887 59.8386 48.149 59.9263 47.7105L59.9302 47.6912C60.0401 47.1414 60.1889 46.3976 60.214 45.6303C60.2394 44.8556 60.143 43.9787 59.6936 43.2025L59.0445 43.5783L59.6936 43.2025C59.5245 42.9104 59.2368 42.5816 58.9189 42.2563C58.5886 41.9183 58.1793 41.5381 57.7258 41.138C56.8181 40.3371 55.705 39.4314 54.6296 38.5835C53.5526 37.7344 52.5066 36.9376 51.7302 36.3535C51.3419 36.0614 51.0206 35.8221 50.7963 35.6557C50.6841 35.5726 50.5962 35.5076 50.5361 35.4633L50.4675 35.4128L50.4497 35.3997L50.4451 35.3964L50.444 35.3955L50.4436 35.3953C50.4435 35.3952 50.4435 35.3952 50 36L50.4435 35.3952L48.5455 34.0034L49.2883 36.2367L49.2883 36.2367L49.2883 36.2367L49.2884 36.237L49.2891 36.2389L49.2918 36.2471L49.303 36.2815C49.313 36.3121 49.3279 36.3579 49.3469 36.4174C49.3849 36.5364 49.4395 36.7101 49.5053 36.9266C49.6368 37.3599 49.8121 37.9628 49.9872 38.6405C50.3432 40.0187 50.6767 41.6265 50.6767 42.756C50.6767 43.7929 50.3014 44.0369 50.1106 44.1029C49.8223 44.2024 49.3815 44.1104 49.0602 43.833C48.6821 43.5064 48.5135 43.1994 48.4365 42.9999C48.3972 42.898 48.38 42.8195 48.3726 42.7749C48.3698 42.7578 48.3684 42.7457 48.3678 42.7394L48.3678 40.5572L47.0241 42.2977L47.6178 42.756C47.0241 42.2977 47.024 42.2979 47.0239 42.298L47.0236 42.2984L47.0229 42.2993L47.021 42.3018L47.0152 42.3095L46.9956 42.3354C46.9792 42.3574 46.9562 42.3886 46.9275 42.4284C46.8702 42.5079 46.7901 42.6221 46.6948 42.7661C46.5046 43.0535 46.2519 43.4628 45.9987 43.9546C45.5008 44.9221 44.9634 46.2815 44.9634 47.6898C44.9634 49.0223 45.2212 49.9534 45.5089 50.5746C45.6522 50.884 45.8007 51.1117 45.9231 51.2702C45.933 51.283 45.9426 51.2952 45.9521 51.3071C45.951 51.3747 45.9396 51.4422 45.9142 51.5002C45.8899 51.5557 45.8414 51.6319 45.7049 51.7046C45.5555 51.7842 45.2716 51.8735 44.7611 51.8735C44.4927 51.8735 44.1854 51.7521 43.942 51.5419C43.6909 51.325 43.6067 51.1046 43.6067 50.9789V48.5121V47.2149L42.4825 47.8621L42.8567 48.5121C42.4825 47.8621 42.4823 47.8622 42.482 47.8623L42.4815 47.8626L42.4803 47.8633L42.4771 47.8652L42.4676 47.8708L42.4366 47.8893C42.4109 47.9048 42.3751 47.9268 42.3308 47.9551C42.2422 48.0115 42.1189 48.0933 41.9722 48.1988C41.6803 48.4089 41.2894 48.718 40.896 49.1143C40.1277 49.8884 39.25 51.0973 39.25 52.6235L39.25 52.6715C39.25 53.8658 39.25 54.9385 39.3768 55.8145C39.506 56.7073 39.7845 57.5398 40.462 58.1249C40.8495 58.4595 41.4918 58.896 42.1311 59.305L39.5372 58.1851L41.3108 60.4824L41.9045 60.0241C41.3108 60.4824 41.3109 60.4826 41.3111 60.4828L41.3114 60.4832L41.3121 60.4842L41.3142 60.4869L41.3205 60.4949L41.3414 60.5211C41.359 60.5431 41.384 60.5739 41.4161 60.6124C41.4804 60.6893 41.5733 60.7974 41.6931 60.9285C41.9324 61.1902 42.2808 61.5456 42.7236 61.928C43.6027 62.6871 44.8878 63.582 46.4581 64.034C47.7867 64.4164 48.9183 64.627 49.7639 64.743L51.5412 64.9868L50.4663 63.5506C49.9877 62.9111 49.6293 62.0945 49.4796 61.175C49.3957 60.6595 49.4781 60.0115 49.6963 59.2829C49.9117 58.5638 50.2421 57.8224 50.5956 57.1443C50.9478 56.4686 51.3146 55.8716 51.594 55.4428C51.599 55.435 51.604 55.4273 51.609 55.4197C51.625 55.4332 51.6412 55.447 51.6577 55.461C52.0646 55.808 52.61 56.2966 53.1667 56.8647C53.7253 57.4349 54.2831 58.0728 54.7232 58.7179C55.1697 59.3725 55.4584 59.982 55.5428 60.5005C55.7153 61.5603 55.5759 62.543 55.231 63.313L54.6253 64.6647L56.0734 64.3528C56.4905 64.2629 56.9183 64.1576 57.3475 64.034C58.9179 63.582 60.203 62.6871 61.0821 61.928C61.5249 61.5456 61.8733 61.1902 62.1125 60.9285C62.2323 60.7974 62.3253 60.6893 62.3895 60.6124C62.4217 60.5739 62.4467 60.5431 62.4643 60.5211L62.4852 60.4949L62.4914 60.4869L62.4935 60.4842L62.4943 60.4832L62.4946 60.4828C62.4947 60.4826 62.4949 60.4824 61.9012 60.0241Z" stroke="white" stroke-width="1.5"/>
</g>
<defs>
<radialGradient id="paint0_radial_122_618" cx="0" cy="0" r="1" gradientUnits="userSpaceOnUse" gradientTransform="translate(32 26) rotate(90) scale(34 39.251)">
<stop stop-color="#888888"/>
<stop offset="1" stop-color="#444444"/>
</radialGradient>
<radialGradient id="paint1_radial_122_618" cx="0" cy="0" r="1" gradientUnits="userSpaceOnUse" gradientTransform="translate(32 26) rotate(90) scale(34 39.251)">
<stop stop-color="#888888"/>
<stop offset="1" stop-color="#444444"/>
</radialGradient>
<radialGradient id="paint2_radial_122_618" cx="0" cy="0" r="1" gradientUnits="userSpaceOnUse" gradientTransform="translate(32 26) rotate(90) scale(34 39.251)">
<stop stop-color="#888888"/>
<stop offset="1" stop-color="#444444"/>
</radialGradient>
<radialGradient id="paint3_radial_122_618" cx="0" cy="0" r="1" gradientUnits="userSpaceOnUse" gradientTransform="translate(32 26) rotate(90) scale(34 39.251)">
<stop stop-color="#888888"/>
<stop offset="1" stop-color="#444444"/>
</radialGradient>
<radialGradient id="paint4_radial_122_618" cx="0" cy="0" r="1" gradientUnits="userSpaceOnUse" gradientTransform="translate(32 26) rotate(90) scale(34 39.251)">
<stop stop-color="#888888"/>
<stop offset="1" stop-color="#444444"/>
</radialGradient>
<radialGradient id="paint5_radial_122_618" cx="0" cy="0" r="1" gradientUnits="userSpaceOnUse" gradientTransform="translate(32 26) rotate(90) scale(34 39.251)">
<stop stop-color="#888888"/>
<stop offset="1" stop-color="#444444"/>
</radialGradient>
<linearGradient id="paint6_linear_122_618" x1="49.7705" y1="37" x2="53.6937" y2="85.7898" gradientUnits="userSpaceOnUse">
<stop stop-color="#FA9A43"/>
<stop offset="0.323575" stop-color="#F14949"/>
<stop offset="1" stop-color="#5B12A4"/>
</linearGradient>
<clipPath id="clip0_122_618">
<rect width="64" height="64" fill="white"/>
</clipPath>
</defs>
</svg>
