<svg width="64" height="64" viewBox="0 0 64 64" fill="none" xmlns="http://www.w3.org/2000/svg">
<g clip-path="url(#clip0_122_611)">
<path d="M11.4291 19.091C13.954 19.091 16.0006 17.0559 16.0006 14.5455C16.0006 12.0351 13.954 10 11.4291 10C8.90458 10 6.8577 12.0351 6.8577 14.5455C6.8577 17.0559 8.90458 19.091 11.4291 19.091Z" fill="url(#paint0_radial_122_611)"/>
<path d="M5.71429 46.3637H13.7143V35.0002C13.7146 31.3224 16.3175 28.4368 19.5525 26.5987C20.2877 26.181 21.0778 25.8023 21.9146 25.4661C20.1551 23.0521 16.1225 21.364 11.4286 21.364C5.11691 21.364 0.000279018 24.4168 0 28.1823V37.2729C0 38.528 1.02344 39.5456 2.28571 39.5456C2.91685 39.5456 3.42857 40.0543 3.42857 40.6819V44.091C3.42857 45.3462 4.45201 46.3637 5.71429 46.3637Z" fill="url(#paint1_radial_122_611)"/>
<path d="M47.9994 14.5455C47.9994 17.0559 50.046 19.091 52.5709 19.091C55.0957 19.091 57.1423 17.0559 57.1423 14.5455C57.1423 12.0351 55.0957 10 52.5709 10C50.046 10 47.9994 12.0351 47.9994 14.5455Z" fill="url(#paint2_radial_122_611)"/>
<path d="M50.2857 35.0119V46.3637H58.2857C59.5483 46.3637 60.5714 45.3462 60.5714 44.091V40.6819C60.5714 40.0543 61.0831 39.5456 61.7143 39.5456C62.9768 39.5456 64 38.528 64 37.2729V28.1823C63.9997 24.4168 58.8831 21.364 52.5714 21.364C47.8778 21.364 43.8449 23.0521 42.0857 25.466C42.2405 25.5283 42.394 25.592 42.5458 25.6572C42.6805 25.715 42.8136 25.7739 42.9456 25.8339C43.4682 26.0717 43.9696 26.3269 44.4478 26.5987C47.6828 28.4368 50.286 31.3223 50.286 35.0003L50.2857 35.0119Z" fill="url(#paint3_radial_122_611)"/>
<path d="M31.9997 23.6366C35.7868 23.6366 38.8569 20.584 38.8569 16.8184C38.8569 13.0528 35.7868 10.0001 31.9997 10.0001C28.2126 10.0001 25.1426 13.0528 25.1426 16.8184C25.1426 20.584 28.2126 23.6366 31.9997 23.6366Z" fill="url(#paint4_radial_122_611)"/>
<path d="M48.0003 35.0003L48 35.0545V49.036C48 50.7553 46.7123 52.2055 44.9967 52.4188L44.4297 52.4892C43.8577 52.5603 43.4286 53.0437 43.4286 53.6169V57.7273C43.4286 58.9825 42.4051 60 41.1429 60H22.8571C21.5949 60 20.5714 58.9825 20.5714 57.7273V53.6169C20.5714 53.0437 20.1423 52.5603 19.5703 52.4892L19.0033 52.4188C17.2877 52.2055 16 50.7553 16 49.036V35.0003C16.0003 29.9796 23.1635 25.9093 32 25.9093C40.8368 25.9093 48.0003 29.9795 48.0003 35.0003Z" fill="url(#paint5_radial_122_611)"/>
<circle cx="52" cy="52" r="12.75" fill="url(#paint6_linear_122_611)"/>
<circle cx="52" cy="52" r="12.75" fill="url(#paint7_linear_122_611)"/>
<circle cx="52" cy="52" r="12.75" stroke="white" stroke-width="1.5"/>
<rect x="51" y="42" width="2" height="11" rx="1" fill="white"/>
<rect x="51" y="51" width="9" height="2" rx="1" fill="white"/>
</g>
<defs>
<radialGradient id="paint0_radial_122_611" cx="0" cy="0" r="1" gradientUnits="userSpaceOnUse" gradientTransform="translate(32 26) rotate(90) scale(34 39.251)">
<stop stop-color="#888888"/>
<stop offset="1" stop-color="#444444"/>
</radialGradient>
<radialGradient id="paint1_radial_122_611" cx="0" cy="0" r="1" gradientUnits="userSpaceOnUse" gradientTransform="translate(32 26) rotate(90) scale(34 39.251)">
<stop stop-color="#888888"/>
<stop offset="1" stop-color="#444444"/>
</radialGradient>
<radialGradient id="paint2_radial_122_611" cx="0" cy="0" r="1" gradientUnits="userSpaceOnUse" gradientTransform="translate(32 26) rotate(90) scale(34 39.251)">
<stop stop-color="#888888"/>
<stop offset="1" stop-color="#444444"/>
</radialGradient>
<radialGradient id="paint3_radial_122_611" cx="0" cy="0" r="1" gradientUnits="userSpaceOnUse" gradientTransform="translate(32 26) rotate(90) scale(34 39.251)">
<stop stop-color="#888888"/>
<stop offset="1" stop-color="#444444"/>
</radialGradient>
<radialGradient id="paint4_radial_122_611" cx="0" cy="0" r="1" gradientUnits="userSpaceOnUse" gradientTransform="translate(32 26) rotate(90) scale(34 39.251)">
<stop stop-color="#888888"/>
<stop offset="1" stop-color="#444444"/>
</radialGradient>
<radialGradient id="paint5_radial_122_611" cx="0" cy="0" r="1" gradientUnits="userSpaceOnUse" gradientTransform="translate(32 26) rotate(90) scale(34 39.251)">
<stop stop-color="#888888"/>
<stop offset="1" stop-color="#444444"/>
</radialGradient>
<linearGradient id="paint6_linear_122_611" x1="52" y1="40" x2="52" y2="64" gradientUnits="userSpaceOnUse">
<stop stop-color="#EEEEEE"/>
<stop offset="1" stop-color="#AAAAAA"/>
</linearGradient>
<linearGradient id="paint7_linear_122_611" x1="52" y1="40" x2="52" y2="64" gradientUnits="userSpaceOnUse">
<stop stop-color="#666666"/>
<stop offset="1" stop-color="#333333"/>
</linearGradient>
<clipPath id="clip0_122_611">
<rect width="64" height="64" fill="white"/>
</clipPath>
</defs>
</svg>
