<svg width="117" height="36" viewBox="0 0 117 36" fill="none" xmlns="http://www.w3.org/2000/svg">
<rect width="117" height="36" rx="6" fill="url(#paint0_linear_549_6448)" fill-opacity="0.85"/>
<rect width="117" height="36" rx="6" fill="url(#paint1_linear_549_6448)"/>
<path d="M17.0469 25.2812C17.4427 25.6042 17.9427 25.8724 18.5469 26.0859C19.1562 26.3047 19.8203 26.4141 20.5391 26.4141C21.7266 26.4141 22.7083 26.0729 23.4844 25.3906C24.2604 24.7083 24.6484 23.7292 24.6484 22.4531V14.8047H22.4219L22.375 15.75H22.3359C22.1589 15.4323 21.8646 15.1693 21.4531 14.9609C21.0417 14.7526 20.5807 14.6484 20.0703 14.6484C19.013 14.6484 18.1615 15.026 17.5156 15.7812C16.875 16.5312 16.5547 17.5312 16.5547 18.7812V19.0312C16.5547 20.2708 16.8776 21.2682 17.5234 22.0234C18.1693 22.7734 19.0182 23.1484 20.0703 23.1484C20.5964 23.1484 21.0521 23.0599 21.4375 22.8828C21.8229 22.7057 22.1172 22.4583 22.3203 22.1406V22.5391C22.3203 23.2578 22.1406 23.7917 21.7812 24.1406C21.4271 24.4948 20.9661 24.6719 20.3984 24.6719C19.8828 24.6719 19.4062 24.5807 18.9688 24.3984C18.5312 24.2214 18.2188 24.0365 18.0312 23.8438L17.0469 25.2812ZM18.9453 19.1328V18.6719C18.9453 18 19.0885 17.4557 19.375 17.0391C19.6667 16.6172 20.1016 16.4062 20.6797 16.4062C21.0807 16.4062 21.4219 16.5156 21.7031 16.7344C21.9844 16.9531 22.1875 17.2344 22.3125 17.5781V20.2734C22.1979 20.5651 22 20.8255 21.7188 21.0547C21.4427 21.2839 21.1094 21.3984 20.7188 21.3984C20.1198 21.3984 19.6745 21.1901 19.3828 20.7734C19.0911 20.3568 18.9453 19.8099 18.9453 19.1328ZM26.5309 19.0234C26.5309 20.2943 26.9111 21.3151 27.6716 22.0859C28.432 22.8516 29.4762 23.2344 30.8044 23.2344C31.6533 23.2344 32.3877 23.0703 33.0075 22.7422C33.6273 22.4141 34.0674 21.9974 34.3278 21.4922L32.6716 20.4453C32.4736 20.7266 32.2158 20.974 31.8981 21.1875C31.5804 21.401 31.2028 21.5078 30.7653 21.5078C30.1403 21.5078 29.6664 21.2969 29.3434 20.875C29.0205 20.4479 28.8591 19.8698 28.8591 19.1406V18.6406C28.8591 17.9062 29.0075 17.3255 29.3044 16.8984C29.6065 16.4661 30.044 16.25 30.6169 16.25C31.1117 16.25 31.4919 16.4062 31.7575 16.7188C32.0283 17.026 32.1637 17.4036 32.1637 17.8516V18.0234H28.1091V19.4688H34.4684V18.6406C34.4684 17.3698 34.1273 16.375 33.445 15.6562C32.7627 14.9323 31.82 14.5703 30.6169 14.5703C29.4242 14.5703 28.445 14.9557 27.6794 15.7266C26.9137 16.4922 26.5309 17.5078 26.5309 18.7734V19.0234ZM35.2572 16.5078H40.3353V14.8047H35.2572V16.5078ZM36.4759 20.5547C36.4759 21.4766 36.7103 22.1536 37.1791 22.5859C37.6478 23.013 38.2702 23.2266 39.0462 23.2266C39.3119 23.2266 39.5567 23.2031 39.7806 23.1562C40.0046 23.1094 40.1791 23.0547 40.3041 22.9922V21.3203C40.1895 21.3672 40.0723 21.4062 39.9525 21.4375C39.8327 21.4635 39.7129 21.4766 39.5931 21.4766C39.3431 21.4766 39.1478 21.4062 39.0072 21.2656C38.8718 21.1198 38.8041 20.8568 38.8041 20.4766V12.8438H36.4837V15.4375L36.4759 15.6641V20.5547ZM45.7019 20.4141V20.5C45.7019 21.375 46.0274 22.0495 46.6784 22.5234C47.3295 22.9974 48.2488 23.2344 49.4363 23.2344C50.6342 23.2344 51.543 22.9974 52.1628 22.5234C52.7878 22.0495 53.1003 21.3932 53.1003 20.5547C53.1003 19.8516 52.8738 19.2995 52.4206 18.8984C51.9727 18.4974 51.2696 18.2005 50.3113 18.0078C49.4102 17.8255 48.8373 17.6641 48.5925 17.5234C48.3477 17.3828 48.2253 17.1927 48.2253 16.9531C48.2253 16.7135 48.3191 16.5234 48.5066 16.3828C48.6993 16.237 49.0066 16.1641 49.4284 16.1641C49.8555 16.1641 50.1706 16.2526 50.3738 16.4297C50.5821 16.6068 50.6863 16.8542 50.6863 17.1719V17.2969H52.9597V17.2031C52.9597 16.3906 52.6394 15.75 51.9988 15.2812C51.3581 14.8073 50.504 14.5703 49.4363 14.5703C48.3685 14.5703 47.5196 14.7969 46.8894 15.25C46.2592 15.7031 45.9441 16.3229 45.9441 17.1094C45.9441 17.7656 46.1654 18.2995 46.6081 18.7109C47.0508 19.1224 47.754 19.4271 48.7175 19.625C49.6133 19.8073 50.181 19.9661 50.4206 20.1016C50.6602 20.237 50.78 20.4453 50.78 20.7266C50.78 21.0078 50.6654 21.2318 50.4363 21.3984C50.2071 21.5651 49.8685 21.6484 49.4206 21.6484C48.9779 21.6484 48.6264 21.5625 48.3659 21.3906C48.1107 21.2135 47.9831 20.9323 47.9831 20.5469V20.4219L45.7019 20.4141ZM53.9828 16.5078H59.0609V14.8047H53.9828V16.5078ZM55.2016 20.5547C55.2016 21.4766 55.4359 22.1536 55.9047 22.5859C56.3734 23.013 56.9958 23.2266 57.7719 23.2266C58.0375 23.2266 58.2823 23.2031 58.5062 23.1562C58.7302 23.1094 58.9047 23.0547 59.0297 22.9922V21.3203C58.9151 21.3672 58.7979 21.4062 58.6781 21.4375C58.5583 21.4635 58.4385 21.4766 58.3187 21.4766C58.0687 21.4766 57.8734 21.4062 57.7328 21.2656C57.5974 21.1198 57.5297 20.8568 57.5297 20.4766V12.8438H55.2094V15.4375L55.2016 15.6641V20.5547ZM60.2872 20.5938C60.2872 21.4479 60.558 22.0885 61.0997 22.5156C61.6414 22.9375 62.3158 23.1484 63.1231 23.1484C63.795 23.1484 64.3549 23.0286 64.8028 22.7891C65.2559 22.5443 65.5606 22.2682 65.7169 21.9609C65.7377 22.1432 65.7716 22.3333 65.8184 22.5312C65.8653 22.724 65.92 22.8802 65.9825 23H68.2794V22.875C68.1804 22.6667 68.0997 22.4115 68.0372 22.1094C67.9747 21.8073 67.9434 21.4922 67.9434 21.1641V17.3984C67.9434 16.4349 67.6335 15.724 67.0137 15.2656C66.394 14.8073 65.532 14.5781 64.4278 14.5781C63.3341 14.5781 62.4434 14.8177 61.7559 15.2969C61.0684 15.776 60.7247 16.3854 60.7247 17.125V17.2422H63.0216V17.125C63.0216 16.849 63.1205 16.6172 63.3184 16.4297C63.5164 16.2422 63.8549 16.1484 64.3341 16.1484C64.808 16.1484 65.1387 16.263 65.3262 16.4922C65.5137 16.7161 65.6075 17.013 65.6075 17.3828V17.8438H64.0059C62.933 17.849 62.045 18.0807 61.3419 18.5391C60.6387 18.9922 60.2872 19.6771 60.2872 20.5938ZM62.6309 20.3828C62.6309 20.0182 62.7716 19.737 63.0528 19.5391C63.3341 19.3411 63.7664 19.2422 64.3497 19.2422H65.6075V20.0234C65.6075 20.4453 65.4486 20.8099 65.1309 21.1172C64.8132 21.4245 64.4122 21.5781 63.9278 21.5781C63.4799 21.5781 63.1518 21.4688 62.9434 21.25C62.7351 21.0312 62.6309 20.7422 62.6309 20.3828ZM70.3025 23H72.6463V17.75C72.7765 17.4219 72.9822 17.1536 73.2634 16.9453C73.5499 16.7318 73.8728 16.625 74.2322 16.625C74.3572 16.625 74.4718 16.6328 74.5759 16.6484C74.6801 16.6589 74.7765 16.6745 74.865 16.6953V14.6953C74.8181 14.6745 74.7374 14.651 74.6228 14.625C74.5134 14.599 74.4041 14.5859 74.2947 14.5859C73.9301 14.5859 73.602 14.6979 73.3103 14.9219C73.0186 15.1406 72.7895 15.4036 72.6228 15.7109H72.5838L72.5369 14.8047H70.3025V23ZM75.8334 16.5078H80.9116V14.8047H75.8334V16.5078ZM77.0522 20.5547C77.0522 21.4766 77.2866 22.1536 77.7553 22.5859C78.2241 23.013 78.8465 23.2266 79.6225 23.2266C79.8881 23.2266 80.1329 23.2031 80.3569 23.1562C80.5808 23.1094 80.7553 23.0547 80.8803 22.9922V21.3203C80.7657 21.3672 80.6485 21.4062 80.5288 21.4375C80.409 21.4635 80.2892 21.4766 80.1694 21.4766C79.9194 21.4766 79.7241 21.4062 79.5834 21.2656C79.448 21.1198 79.3803 20.8568 79.3803 20.4766V12.8438H77.06V15.4375L77.0522 15.6641V20.5547ZM82.1066 19.0234C82.1066 20.2943 82.4868 21.3151 83.2472 22.0859C84.0076 22.8516 85.0519 23.2344 86.38 23.2344C87.229 23.2344 87.9633 23.0703 88.5831 22.7422C89.2029 22.4141 89.643 21.9974 89.9034 21.4922L88.2472 20.4453C88.0493 20.7266 87.7915 20.974 87.4737 21.1875C87.156 21.401 86.7784 21.5078 86.3409 21.5078C85.7159 21.5078 85.242 21.2969 84.9191 20.875C84.5961 20.4479 84.4347 19.8698 84.4347 19.1406V18.6406C84.4347 17.9062 84.5831 17.3255 84.88 16.8984C85.1821 16.4661 85.6196 16.25 86.1925 16.25C86.6873 16.25 87.0675 16.4062 87.3331 16.7188C87.604 17.026 87.7394 17.4036 87.7394 17.8516V18.0234H83.6847V19.4688H90.0441V18.6406C90.0441 17.3698 89.7029 16.375 89.0206 15.6562C88.3383 14.9323 87.3956 14.5703 86.1925 14.5703C84.9998 14.5703 84.0206 14.9557 83.255 15.7266C82.4894 16.4922 82.1066 17.5078 82.1066 18.7734V19.0234ZM91.3797 19.0312C91.3797 20.25 91.6974 21.2422 92.3328 22.0078C92.9682 22.7734 93.8406 23.1562 94.95 23.1562C95.4656 23.1562 95.9214 23.0521 96.3172 22.8438C96.7182 22.6302 97.0047 22.3646 97.1766 22.0469H97.2156L97.2625 23H99.4812V11.0625H97.1531V15.6484C96.95 15.3516 96.6583 15.112 96.2781 14.9297C95.9031 14.7422 95.4578 14.6484 94.9422 14.6484C93.8849 14.6484 93.0255 15.0312 92.3641 15.7969C91.7078 16.5625 91.3797 17.5573 91.3797 18.7812V19.0312ZM93.7703 19.1328V18.6719C93.7703 18 93.9187 17.4557 94.2156 17.0391C94.5125 16.6172 94.9474 16.4062 95.5203 16.4062C95.937 16.4062 96.2781 16.513 96.5437 16.7266C96.8146 16.9401 97.0151 17.1979 97.1453 17.5V20.2969C97.0099 20.599 96.8042 20.8594 96.5281 21.0781C96.2521 21.2917 95.9135 21.3984 95.5125 21.3984C94.9344 21.3984 94.4995 21.1901 94.2078 20.7734C93.9161 20.3568 93.7703 19.8099 93.7703 19.1328Z" fill="white" fill-opacity="0.75"/>
<defs>
<linearGradient id="paint0_linear_549_6448" x1="0" y1="0" x2="7.05173" y2="44.8654" gradientUnits="userSpaceOnUse">
<stop stop-color="#EB06B8"/>
<stop offset="1" stop-color="#7012A4"/>
</linearGradient>
<linearGradient id="paint1_linear_549_6448" x1="0" y1="0" x2="7.05173" y2="44.8654" gradientUnits="userSpaceOnUse">
<stop stop-color="#FA4343"/>
<stop offset="1" stop-color="#5B12A4"/>
</linearGradient>
</defs>
</svg>
