<svg width="64" height="64" viewBox="0 0 64 64" fill="none" xmlns="http://www.w3.org/2000/svg">
<g clip-path="url(#clip0_122_656)">
<path fill-rule="evenodd" clip-rule="evenodd" d="M63.1598 39.3162C62.9488 40.2182 62.6997 41.1055 62.4142 41.9764C62.3847 42.0666 62.3547 42.1567 62.3243 42.2466C58.9447 52.2521 50.752 60.0409 40.5009 62.8585C39.2012 63.2158 37.8684 63.4931 36.5081 63.6849C35.3572 63.8472 34.1868 63.9482 33 63.9847L32.9288 63.9868C32.6203 63.9956 32.3107 64 32 64C31.6654 64 31.3321 63.9949 31 63.9847C29.8786 63.9503 28.7718 63.8581 27.6823 63.7112C26.3377 63.5298 25.0196 63.265 23.7333 62.922C13.3729 60.1593 5.08102 52.3282 1.67567 42.2466C1.37653 41.3609 1.1151 40.458 0.893285 39.5395C0.875326 39.4652 0.857626 39.3907 0.840187 39.3162C0.363679 37.2788 0.081831 35.1665 0.0153279 33L0.0127262 32.9113C0.0101109 32.8178 0.00789686 32.7241 0.00608579 32.6304C0.00464015 32.5556 0.00345128 32.4807 0.00252001 32.4058C0.00084165 32.2707 0 32.1355 0 32C0 31.8308 0.00131264 31.662 0.00392829 31.4934C0.00497795 31.4258 0.00623745 31.3582 0.00770616 31.2907C0.00930179 31.2173 0.0111443 31.144 0.013233 31.0708L0.0153275 31C0.0818305 28.8335 0.363679 26.7212 0.840187 24.6839C1.05116 23.7818 1.30028 22.8945 1.58577 22.0236C1.61535 21.9334 1.64532 21.8433 1.67567 21.7534C5.05532 11.7479 13.248 3.95907 23.499 1.14145C23.669 1.09472 23.8396 1.04935 24.0108 1.00537C24.1641 0.965964 24.3179 0.927667 24.4721 0.890487C25.5229 0.637113 26.5939 0.435584 27.6823 0.288788C28.7718 0.141848 29.8786 0.04975 31 0.0153279C31.3321 0.00513503 31.6654 0 32 0H32.0028C32.3364 2.89687e-05 32.6689 0.00515571 33 0.0153198C34.1214 0.049742 35.2282 0.141866 36.3177 0.288806C36.7701 0.349826 37.2195 0.420296 37.6657 0.50002C38.5457 0.657238 39.4132 0.850427 40.2667 1.07801C40.3449 1.09887 40.423 1.11999 40.5009 1.14143C50.752 3.95905 58.9447 11.7479 62.3243 21.7534C62.6275 22.6509 62.8919 23.5663 63.1156 24.4975C63.1305 24.5595 63.1453 24.6217 63.1598 24.6838C63.6363 26.7212 63.9182 28.8335 63.9847 31L63.9873 31.0887C63.9957 31.3914 64 31.6952 64 32C64 32.3346 63.9949 32.6679 63.9847 33C63.9182 35.1665 63.6363 37.2788 63.1598 39.3162ZM31 48.9942V61.9836C28.7859 61.9111 26.6326 61.5987 24.565 61.0715C23.3203 59.6893 22.1353 57.943 21.0507 55.834C19.8498 53.4991 18.8184 50.7962 18.0065 47.8102C22.0442 48.5261 26.4214 48.9413 31 48.9942ZM33 48.9942V61.9836C35.2141 61.9111 37.3674 61.5987 39.435 61.0715C40.6797 59.6893 41.8647 57.943 42.9493 55.834C44.1502 53.4991 45.1816 50.7962 45.9935 47.8102C41.9558 48.5261 37.5786 48.9413 33 48.9942ZM46.5244 45.679C42.3753 46.4709 37.8122 46.9372 33 46.9941V33H47.9926C47.9254 37.5251 47.4038 41.8059 46.5244 45.679ZM48.1714 47.3882C46.9147 52.3721 45.0666 56.6897 42.8049 59.9953C50.3942 57.0643 56.4926 51.1361 59.6489 43.662C56.3978 45.2041 52.5091 46.4743 48.1714 47.3882ZM60.6589 40.8964C59.8519 41.3454 58.9826 41.7794 58.0533 42.1952C55.34 43.409 52.1748 44.4403 48.6691 45.2325C49.4658 41.4419 49.9305 37.3188 49.9928 33H61.9836C61.8939 35.741 61.4364 38.3891 60.6589 40.8964ZM59.6489 20.338C56.4926 12.8639 50.3942 6.93575 42.805 4.00469C45.0666 7.31027 46.9147 11.6279 48.1714 16.6118C52.5091 17.5257 56.3978 18.7959 59.6489 20.338ZM48.6691 18.7675C52.1748 19.5597 55.34 20.591 58.0533 21.8048C58.9826 22.2205 59.8519 22.6546 60.6589 23.1036C61.4364 25.6109 61.8939 28.259 61.9836 31H49.9928C49.9305 26.6812 49.4658 22.5581 48.6691 18.7675ZM45.9935 16.1898C45.1816 13.2038 44.1502 10.5009 42.9493 8.16595C41.8647 6.05695 40.6797 4.31072 39.435 2.92848C37.3675 2.4013 35.2141 2.08887 33 2.01635V15.0058C37.5787 15.0587 41.9558 15.4739 45.9935 16.1898ZM33 17.0059C37.8122 17.0628 42.3753 17.5291 46.5244 18.321C47.4038 22.1941 47.9254 26.4749 47.9926 31H33V17.0059ZM31 15.0058V2.01635C28.7859 2.08887 26.6325 2.4013 24.565 2.92848C23.3203 4.31072 22.1353 6.05695 21.0507 8.16595C19.8498 10.5009 18.8184 13.2038 18.0065 16.1898C22.0442 15.4739 26.4213 15.0587 31 15.0058ZM17.4756 18.321C21.6247 17.5291 26.1878 17.0628 31 17.0059V31H16.0074C16.0746 26.4749 16.5962 22.1941 17.4756 18.321ZM15.8286 16.6118C17.0853 11.6279 18.9334 7.31027 21.195 4.00469C13.6058 6.93575 7.50741 12.8639 4.35107 20.338C7.60223 18.7959 11.4909 17.5257 15.8286 16.6118ZM3.34106 23.1036C4.14812 22.6546 5.0174 22.2205 5.94668 21.8048C8.66004 20.591 11.8252 19.5597 15.3309 18.7675C14.5342 22.5581 14.0695 26.6812 14.0072 31H2.01635C2.10613 28.259 2.56361 25.6109 3.34106 23.1036ZM4.35107 43.662C7.50741 51.1361 13.6058 57.0643 21.1951 59.9953C18.9334 56.6897 17.0853 52.3721 15.8286 47.3882C11.4909 46.4743 7.60223 45.2041 4.35107 43.662ZM15.3309 45.2325C11.8252 44.4403 8.66004 43.409 5.94668 42.1952C5.0174 41.7794 4.14812 41.3454 3.34106 40.8964C2.56361 38.3891 2.10613 35.741 2.01635 33H14.0072C14.0695 37.3188 14.5342 41.4419 15.3309 45.2325ZM17.4756 45.679C16.5962 41.8059 16.0746 37.5251 16.0074 33H31V46.9941C26.1878 46.9372 21.6247 46.4709 17.4756 45.679Z" fill="url(#paint0_radial_122_656)"/>
<circle cx="52" cy="52" r="12.75" fill="url(#paint1_linear_122_656)"/>
<circle cx="52" cy="52" r="12.75" fill="url(#paint2_linear_122_656)"/>
<circle cx="52" cy="52" r="12.75" stroke="white" stroke-width="1.5"/>
<rect x="51" y="42" width="2" height="11" rx="1" fill="white"/>
<rect x="51" y="51" width="9" height="2" rx="1" fill="white"/>
</g>
<defs>
<radialGradient id="paint0_radial_122_656" cx="0" cy="0" r="1" gradientUnits="userSpaceOnUse" gradientTransform="translate(31.9997 32) rotate(90) scale(34.3529 29.2)">
<stop offset="0.423448" stop-color="#888888"/>
<stop offset="1" stop-color="#444444"/>
</radialGradient>
<linearGradient id="paint1_linear_122_656" x1="52" y1="40" x2="52" y2="64" gradientUnits="userSpaceOnUse">
<stop stop-color="#EEEEEE"/>
<stop offset="1" stop-color="#AAAAAA"/>
</linearGradient>
<linearGradient id="paint2_linear_122_656" x1="52" y1="40" x2="52" y2="64" gradientUnits="userSpaceOnUse">
<stop stop-color="#666666"/>
<stop offset="1" stop-color="#333333"/>
</linearGradient>
<clipPath id="clip0_122_656">
<rect width="64" height="64" fill="white"/>
</clipPath>
</defs>
</svg>
