<svg width="32" height="32" viewBox="0 0 32 32" fill="none" xmlns="http://www.w3.org/2000/svg">
<path fill-rule="evenodd" clip-rule="evenodd" d="M31.5799 19.6581C31.4744 20.1091 31.3499 20.5528 31.2071 20.9882C31.1923 21.0333 31.1773 21.0783 31.1622 21.1233C29.4723 26.126 25.376 30.0205 20.2505 31.4293C19.6006 31.6079 18.9342 31.7466 18.254 31.8425C17.6786 31.9236 17.0934 31.9741 16.5 31.9923L16.4644 31.9934C16.3101 31.9978 16.1553 32 16 32C15.8327 32 15.666 31.9974 15.5 31.9923C14.9393 31.9751 14.3859 31.9291 13.8412 31.8556C13.1689 31.7649 12.5098 31.6325 11.8667 31.461C6.68645 30.0797 2.54051 26.1641 0.837837 21.1233C0.688267 20.6805 0.55755 20.229 0.446642 19.7698C0.437663 19.7326 0.428813 19.6954 0.420094 19.6581C0.181839 18.6394 0.0409155 17.5832 0.00766395 16.5L0.00636312 16.4556C0.00505545 16.4089 0.00394843 16.3621 0.0030429 16.3152C0.00232008 16.2778 0.00172564 16.2404 0.00126 16.2029C0.000420825 16.1354 0 16.0677 0 16C0 15.9154 0.00065632 15.831 0.00196414 15.7467C0.00248897 15.7129 0.00311872 15.6791 0.00385308 15.6453C0.00465089 15.6087 0.00557217 15.572 0.00661652 15.5354L0.00766373 15.5C0.0409153 14.4168 0.181839 13.3606 0.420094 12.3419C0.525578 11.8909 0.65014 11.4472 0.792884 11.0118C0.807674 10.9667 0.822658 10.9217 0.837837 10.8767C2.52766 5.87397 6.62399 1.97954 11.7495 0.570724C11.8345 0.547359 11.9198 0.524675 12.0054 0.502685C12.082 0.482982 12.1589 0.463834 12.236 0.445243C12.7614 0.318557 13.297 0.217792 13.8412 0.144394C14.3859 0.0709238 14.9393 0.024875 15.5 0.00766395C15.666 0.00256752 15.8327 0 16 0H16.0014C16.1682 1.44843e-05 16.3344 0.00257785 16.5 0.00765991C17.0607 0.024871 17.6141 0.0709328 18.1588 0.144403C18.3851 0.174913 18.6098 0.210148 18.8329 0.25001C19.2728 0.328619 19.7066 0.425213 20.1333 0.539005C20.1724 0.549433 20.2115 0.559997 20.2505 0.570714C25.376 1.97953 29.4723 5.87397 31.1622 10.8767C31.3137 11.3255 31.446 11.7831 31.5578 12.2487C31.5653 12.2798 31.5726 12.3108 31.5799 12.3419C31.8182 13.3606 31.9591 14.4168 31.9923 15.5L31.9936 15.5444C31.9979 15.6957 32 15.8476 32 16C32 16.1673 31.9974 16.334 31.9923 16.5C31.9591 17.5832 31.8182 18.6394 31.5799 19.6581ZM15.5 24.4971V30.9918C14.393 30.9556 13.3163 30.7994 12.2825 30.5358C11.6601 29.8446 11.0676 28.9715 10.5253 27.917C9.92492 26.7495 9.40921 25.3981 9.00327 23.9051C11.0221 24.263 13.2107 24.4707 15.5 24.4971ZM16.5 24.4971V30.9918C17.607 30.9556 18.6837 30.7994 19.7175 30.5358C20.3399 29.8446 20.9324 28.9715 21.4747 27.917C22.0751 26.7495 22.5908 25.3981 22.9967 23.9051C20.9779 24.263 18.7893 24.4707 16.5 24.4971ZM23.2622 22.8395C21.1877 23.2355 18.9061 23.4686 16.5 23.497V16.5H23.9963C23.9627 18.7626 23.7019 20.9029 23.2622 22.8395ZM24.0857 23.6941C23.4574 26.186 22.5333 28.3449 21.4025 29.9977C25.1971 28.5321 28.2463 25.568 29.8245 21.831C28.1989 22.6021 26.2546 23.2372 24.0857 23.6941ZM30.3295 20.4482C29.9259 20.6727 29.4913 20.8897 29.0267 21.0976C27.67 21.7045 26.0874 22.2202 24.3345 22.6163C24.7329 20.7209 24.9652 18.6594 24.9964 16.5H30.9918C30.9469 17.8705 30.7182 19.1945 30.3295 20.4482ZM29.8245 10.169C28.2463 6.43197 25.1971 3.46788 21.4025 2.00235C22.5333 3.65514 23.4574 5.81397 24.0857 8.30589C26.2546 8.76285 28.1989 9.39793 29.8245 10.169ZM24.3345 9.38373C26.0874 9.77985 27.67 10.2955 29.0267 10.9024C29.4913 11.1103 29.9259 11.3273 30.3295 11.5518C30.7182 12.8055 30.9469 14.1295 30.9918 15.5H24.9964C24.9652 13.3406 24.7329 11.2791 24.3345 9.38373ZM22.9967 8.09488C22.5908 6.60188 22.0751 5.25044 21.4747 4.08297C20.9324 3.02847 20.3399 2.15536 19.7175 1.46424C18.6837 1.20065 17.607 1.04443 16.5 1.00818V7.50289C18.7893 7.52934 20.9779 7.73696 22.9967 8.09488ZM16.5 8.50295C18.9061 8.53141 21.1877 8.76454 23.2622 9.1605C23.7019 11.0971 23.9627 13.2374 23.9963 15.5H16.5V8.50295ZM15.5 7.50289V1.00818C14.393 1.04443 13.3163 1.20065 12.2825 1.46424C11.6601 2.15536 11.0676 3.02847 10.5253 4.08297C9.92491 5.25044 9.4092 6.60188 9.00326 8.09488C11.0221 7.73696 13.2107 7.52934 15.5 7.50289ZM8.73782 9.1605C10.8123 8.76454 13.0939 8.53141 15.5 8.50295V15.5H8.00371C8.03731 13.2374 8.2981 11.0971 8.73782 9.1605ZM7.91428 8.30589C8.54263 5.81397 9.46669 3.65514 10.5975 2.00235C6.80291 3.46788 3.7537 6.43196 2.17554 10.169C3.80111 9.39793 5.74544 8.76285 7.91428 8.30589ZM1.67053 11.5518C2.07406 11.3273 2.5087 11.1103 2.97334 10.9024C4.33002 10.2955 5.91259 9.77985 7.66545 9.38373C7.26709 11.2791 7.03476 13.3406 7.0036 15.5H1.00818C1.05306 14.1295 1.2818 12.8055 1.67053 11.5518ZM2.17554 21.831C3.75371 25.568 6.80291 28.5321 10.5975 29.9977C9.4667 28.3449 8.54263 26.186 7.91428 23.6941C5.74545 23.2372 3.80111 22.6021 2.17554 21.831ZM7.66546 22.6163C5.91259 22.2202 4.33002 21.7045 2.97334 21.0976C2.5087 20.8897 2.07406 20.6727 1.67053 20.4482C1.2818 19.1945 1.05306 17.8705 1.00818 16.5H7.0036C7.03476 18.6594 7.26709 20.7209 7.66546 22.6163ZM8.73782 22.8395C8.2981 20.9029 8.03731 18.7626 8.00371 16.5H15.5V23.497C13.0939 23.4686 10.8123 23.2355 8.73782 22.8395Z" fill="url(#paint0_radial_144_213)"/>
<defs>
<radialGradient id="paint0_radial_144_213" cx="0" cy="0" r="1" gradientUnits="userSpaceOnUse" gradientTransform="translate(15.9999 16) rotate(90) scale(17.1765 14.6)">
<stop offset="0.423448" stop-color="#888888"/>
<stop offset="1" stop-color="#444444"/>
</radialGradient>
</defs>
</svg>
