<svg width="32" height="32" viewBox="0 0 32 32" fill="none" xmlns="http://www.w3.org/2000/svg">
<g clip-path="url(#clip0_114_76)">
<rect width="32" height="32" fill="black"/>
<circle cx="16" cy="16" r="16" fill="url(#paint0_radial_114_76)"/>
<path fill-rule="evenodd" clip-rule="evenodd" d="M18.2378 31.8448C17.5068 31.9471 16.7593 32 16 32C15.793 32 15.5864 31.9961 15.3813 31.9883C14.7827 31.9655 14.1934 31.9099 13.6133 31.8232C13.2085 31.7626 12.8081 31.6868 12.4136 31.5964C12.4048 31.5944 12.3955 31.5924 12.3867 31.5903C7.14307 30.3799 2.88477 26.5907 1.01904 21.6316C0.935059 21.4079 0.856445 21.1835 0.782227 20.9551C0.760742 20.8896 0.739746 20.8238 0.719238 20.7579C0.251953 19.2549 0 17.6569 0 16C0 15.8327 0.00292969 15.666 0.0078125 15.5C0.0112305 15.3919 0.015625 15.2841 0.0209961 15.1766C0.09375 13.7414 0.355469 12.3559 0.782227 11.0449C0.922852 10.6122 1.08154 10.1877 1.25732 9.77208C3.23438 5.09784 7.36963 1.55869 12.4136 0.403564C12.8564 0.302147 13.3062 0.219048 13.7622 0.155228C14.3325 0.0754471 14.9121 0.0257111 15.5 0.00766754C15.666 0.00257111 15.8325 0 16 0C16.811 0 17.6079 0.0603638 18.3867 0.176842C18.7915 0.237419 19.1919 0.313232 19.5864 0.403564C19.5952 0.405624 19.6045 0.407639 19.6133 0.409714C24.8569 1.62013 29.1152 5.40933 30.981 10.3684C31.0649 10.5921 31.1436 10.8165 31.2178 11.0449C31.2393 11.1104 31.2603 11.1762 31.2808 11.2421C31.7007 12.5925 31.9468 14.0195 31.9922 15.497V15.5C31.9971 15.666 32 15.8327 32 16C32 17.7291 31.7251 19.3953 31.2178 20.9551C31.0767 21.3881 30.9185 21.812 30.7427 22.2279C28.7656 26.9022 24.6304 30.4413 19.5864 31.5964C19.1436 31.6979 18.6938 31.781 18.2378 31.8448ZM23.4546 23.8899C23.0444 25.3336 22.5264 26.6458 21.9219 27.7869C21.2729 29.0131 20.5371 30.0219 19.7441 30.787C18.5459 31.0894 17.292 31.25 16 31.25V24.5C18.6348 24.5 21.1509 24.2834 23.4546 23.8899ZM2.00732 22.0732C3.7417 26.064 7.1333 29.1679 11.3135 30.5164C9.90869 28.8949 8.75781 26.5663 7.99902 23.7926C5.75781 23.3763 3.73047 22.7905 2.00732 22.0732ZM10.0781 27.7869C10.7271 29.0131 11.4629 30.0219 12.2559 30.787C13.2988 31.0502 14.3843 31.206 15.5 31.242V24.4974C13.0469 24.4718 10.7031 24.2585 8.54541 23.8899C8.95557 25.3336 9.47363 26.6458 10.0781 27.7869ZM1.91895 21.4924L1.73877 21.4134C1.09961 19.7311 0.75 17.9064 0.75 16H7C7 18.5961 7.30811 21.0563 7.85889 23.2572C5.67725 22.8377 3.71338 22.2557 2.05322 21.5502L1.91895 21.4924ZM7.00391 15.5H0.757812C0.813477 13.7744 1.15576 12.1213 1.73877 10.5866L1.90381 10.514L2.05322 10.4498C3.71338 9.74431 5.67725 9.16226 7.85889 8.74278C7.34375 10.8019 7.04053 13.088 7.00391 15.5ZM7.99902 8.20744C5.75781 8.6237 3.73047 9.20953 2.00732 9.92675C3.7417 5.93602 7.1333 2.83207 11.3135 1.48359C9.90869 3.1051 8.75781 5.43372 7.99902 8.20744ZM10.0781 4.21313C10.7271 2.98688 11.4629 1.97813 12.2559 1.21295C13.2988 0.949768 14.3843 0.793983 15.5 0.758041V7.5026C13.0469 7.52819 10.7031 7.74153 8.54541 8.11009C8.95557 6.66638 9.47363 5.3542 10.0781 4.21313ZM16 7.5V0.75C17.292 0.75 18.5459 0.910614 19.7441 1.21295C20.5371 1.97813 21.2729 2.98688 21.9219 4.21313C22.5264 5.3542 23.0444 6.66638 23.4546 8.11009C21.1509 7.71656 18.6348 7.5 16 7.5ZM24.001 8.20744C23.2422 5.43372 22.0913 3.1051 20.6865 1.48359C24.8667 2.83207 28.2583 5.93602 29.9927 9.92675C28.2695 9.20953 26.2422 8.6237 24.001 8.20744ZM29.9468 10.4498C30.0527 10.4949 30.1577 10.5405 30.2612 10.5866C30.8442 12.1213 31.1865 13.7744 31.2422 15.5H24.9961C24.9595 13.088 24.6562 10.8019 24.1411 8.74278C26.3228 9.16226 28.2866 9.74431 29.9468 10.4498ZM25 16H31.25C31.25 17.9064 30.9004 19.7311 30.2612 21.4134C30.1577 21.4595 30.0527 21.5051 29.9468 21.5502C28.2866 22.2557 26.3228 22.8377 24.1411 23.2572C24.6919 21.0563 25 18.5961 25 16ZM24.001 23.7926C26.2422 23.3763 28.2695 22.7905 29.9927 22.0732C28.2583 26.064 24.8667 29.1679 20.6865 30.5164C22.0913 28.8949 23.2422 26.5663 24.001 23.7926ZM16 24C18.6987 24 21.2656 23.7705 23.5996 23.3572C24.1743 21.1453 24.5 18.6484 24.5 16H16V24ZM16 15.5H24.4961C24.458 13.0373 24.1382 10.715 23.5996 8.64279C21.2656 8.22951 18.6987 8 16 8V15.5ZM15.5 8.00263V15.5H7.50391C7.54199 13.0373 7.86182 10.715 8.40039 8.64279C10.5898 8.2551 12.9844 8.02914 15.5 8.00263ZM15.5 16V23.9974C12.9844 23.9709 10.5898 23.7449 8.40039 23.3572C7.82568 21.1453 7.5 18.6484 7.5 16H15.5Z" fill="url(#paint1_radial_114_76)"/>
</g>
<defs>
<radialGradient id="paint0_radial_114_76" cx="0" cy="0" r="1" gradientUnits="userSpaceOnUse" gradientTransform="translate(16 16) rotate(90) scale(16)">
<stop stop-color="white" stop-opacity="0.3"/>
<stop offset="1" stop-color="white" stop-opacity="0"/>
</radialGradient>
<radialGradient id="paint1_radial_114_76" cx="0" cy="0" r="1" gradientUnits="userSpaceOnUse" gradientTransform="translate(16 16) rotate(90) scale(15.25 16.1813)">
<stop stop-color="#AAAAAA"/>
<stop offset="1" stop-color="#666666"/>
</radialGradient>
<clipPath id="clip0_114_76">
<rect width="32" height="32" fill="white"/>
</clipPath>
</defs>
</svg>
