<svg width="64" height="64" viewBox="0 0 64 64" fill="none" xmlns="http://www.w3.org/2000/svg">
<g clip-path="url(#clip0_107_47)">
<rect width="64" height="64" fill="black"/>
<circle cx="32" cy="32" r="32" fill="url(#paint0_radial_107_47)"/>
<path fill-rule="evenodd" clip-rule="evenodd" d="M36.4756 63.6895C35.0137 63.8942 33.5186 64 32 64C31.5859 64 31.1729 63.9921 30.7627 63.9765C29.5654 63.931 28.3867 63.8198 27.2266 63.6463C26.417 63.5252 25.6162 63.3735 24.8271 63.1929C24.8096 63.1888 24.791 63.1847 24.7734 63.1806C14.2861 60.7597 5.76953 53.1813 2.03809 43.2632C1.87012 42.8158 1.71289 42.3669 1.56445 41.9102C1.52148 41.7792 1.47949 41.6476 1.43848 41.5158C0.503906 38.5098 0 35.3137 0 32C0 31.6654 0.00585938 31.3321 0.015625 31C0.0224609 30.7839 0.03125 30.5683 0.0419922 30.3533C0.1875 27.4827 0.710938 24.7118 1.56445 22.0898C1.8457 21.2244 2.16309 20.3754 2.51465 19.5442C6.46875 10.1957 14.7393 3.11739 24.8271 0.807129C25.7129 0.604294 26.6123 0.438095 27.5244 0.310455C28.665 0.150894 29.8242 0.0514221 31 0.0153351C31.332 0.00514221 31.665 0 32 0C33.6221 0 35.2158 0.120728 36.7734 0.353683C37.583 0.474838 38.3838 0.626465 39.1729 0.807129C39.1904 0.811249 39.209 0.815277 39.2266 0.819427C49.7139 3.24026 58.2305 10.8187 61.9619 20.7368C62.1299 21.1842 62.2871 21.6331 62.4355 22.0898C62.4785 22.2208 62.5205 22.3524 62.5615 22.4842C63.4014 25.1849 63.8936 28.039 63.9844 30.9941V31C63.9941 31.3321 64 31.6654 64 32C64 35.4583 63.4502 38.7905 62.4355 41.9102C62.1533 42.7763 61.8369 43.624 61.4854 44.4558C57.5312 53.8043 49.2607 60.8826 39.1729 63.1929C38.2871 63.3957 37.3877 63.5619 36.4756 63.6895ZM46.9092 47.7798C46.0889 50.6672 45.0527 53.2916 43.8438 55.5737C42.5459 58.0262 41.0742 60.0437 39.4883 61.5741C37.0918 62.1788 34.584 62.5 32 62.5V49C37.2695 49 42.3018 48.5669 46.9092 47.7798ZM4.01465 44.1465C7.4834 52.128 14.2666 58.3359 22.627 61.0328C19.8174 57.7898 17.5156 53.1326 15.998 47.5851C11.5156 46.7526 7.46094 45.5809 4.01465 44.1465ZM20.1562 55.5737C21.4541 58.0262 22.9258 60.0437 24.5117 61.5741C26.5977 62.1005 28.7686 62.412 31 62.4839V48.9948C26.0938 48.9436 21.4062 48.5169 17.0908 47.7798C17.9111 50.6672 18.9473 53.2916 20.1562 55.5737ZM3.83789 42.9849L3.47754 42.8268C2.19922 39.4622 1.5 35.8128 1.5 32H14C14 37.1922 14.6162 42.1126 15.7178 46.5144C11.3545 45.6755 7.42676 44.5114 4.10645 43.1005L3.83789 42.9849ZM14.0078 31H1.51562C1.62695 27.5488 2.31152 24.2425 3.47754 21.1732L3.80762 21.0281L4.10645 20.8995C7.42676 19.4886 11.3545 18.3245 15.7178 17.4856C14.6875 21.6039 14.0811 26.176 14.0078 31ZM15.998 16.4149C11.5156 17.2474 7.46094 18.4191 4.01465 19.8535C7.4834 11.872 14.2666 5.66414 22.627 2.96718C19.8174 6.21021 17.5156 10.8674 15.998 16.4149ZM20.1562 8.42625C21.4541 5.97375 22.9258 3.95627 24.5117 2.4259C26.5977 1.89954 28.7686 1.58797 31 1.51608V15.0052C26.0938 15.0564 21.4062 15.4831 17.0908 16.2202C17.9111 13.3328 18.9473 10.7084 20.1562 8.42625ZM32 15V1.5C34.584 1.5 37.0918 1.82123 39.4883 2.4259C41.0742 3.95627 42.5459 5.97375 43.8438 8.42625C45.0527 10.7084 46.0889 13.3328 46.9092 16.2202C42.3018 15.4331 37.2695 15 32 15ZM48.002 16.4149C46.4844 10.8674 44.1826 6.21021 41.373 2.96718C49.7334 5.66414 56.5166 11.872 59.9854 19.8535C56.5391 18.4191 52.4844 17.2474 48.002 16.4149ZM59.8936 20.8995C60.1055 20.9898 60.3154 21.0811 60.5225 21.1732C61.6885 24.2425 62.373 27.5488 62.4844 31H49.9922C49.9189 26.176 49.3125 21.6039 48.2822 17.4856C52.6455 18.3245 56.5732 19.4886 59.8936 20.8995ZM50 32H62.5C62.5 35.8128 61.8008 39.4622 60.5225 42.8268C60.3154 42.9189 60.1055 43.0102 59.8936 43.1005C56.5732 44.5114 52.6455 45.6755 48.2822 46.5144C49.3838 42.1126 50 37.1922 50 32ZM48.002 47.5851C52.4844 46.7526 56.5391 45.5809 59.9854 44.1465C56.5166 52.128 49.7334 58.3359 41.373 61.0328C44.1826 57.7898 46.4844 53.1326 48.002 47.5851ZM32 48C37.3975 48 42.5312 47.541 47.1992 46.7144C48.3486 42.2906 49 37.2968 49 32H32V48ZM32 31H48.9922C48.916 26.0746 48.2764 21.43 47.1992 17.2856C42.5312 16.459 37.3975 16 32 16V31ZM31 16.0053V31H15.0078C15.084 26.0746 15.7236 21.43 16.8008 17.2856C21.1797 16.5102 25.9688 16.0583 31 16.0053ZM31 32V47.9947C25.9688 47.9417 21.1797 47.4898 16.8008 46.7144C15.6514 42.2906 15 37.2968 15 32H31Z" fill="#D9D9D9"/>
<path fill-rule="evenodd" clip-rule="evenodd" d="M36.4756 63.6895C35.0137 63.8942 33.5186 64 32 64C31.5859 64 31.1729 63.9921 30.7627 63.9765C29.5654 63.931 28.3867 63.8198 27.2266 63.6463C26.417 63.5252 25.6162 63.3735 24.8271 63.1929C24.8096 63.1888 24.791 63.1847 24.7734 63.1806C14.2861 60.7597 5.76953 53.1813 2.03809 43.2632C1.87012 42.8158 1.71289 42.3669 1.56445 41.9102C1.52148 41.7792 1.47949 41.6476 1.43848 41.5158C0.503906 38.5098 0 35.3137 0 32C0 31.6654 0.00585938 31.3321 0.015625 31C0.0224609 30.7839 0.03125 30.5683 0.0419922 30.3533C0.1875 27.4827 0.710938 24.7118 1.56445 22.0898C1.8457 21.2244 2.16309 20.3754 2.51465 19.5442C6.46875 10.1957 14.7393 3.11739 24.8271 0.807129C25.7129 0.604294 26.6123 0.438095 27.5244 0.310455C28.665 0.150894 29.8242 0.0514221 31 0.0153351C31.332 0.00514221 31.665 0 32 0C33.6221 0 35.2158 0.120728 36.7734 0.353683C37.583 0.474838 38.3838 0.626465 39.1729 0.807129C39.1904 0.811249 39.209 0.815277 39.2266 0.819427C49.7139 3.24026 58.2305 10.8187 61.9619 20.7368C62.1299 21.1842 62.2871 21.6331 62.4355 22.0898C62.4785 22.2208 62.5205 22.3524 62.5615 22.4842C63.4014 25.1849 63.8936 28.039 63.9844 30.9941V31C63.9941 31.3321 64 31.6654 64 32C64 35.4583 63.4502 38.7905 62.4355 41.9102C62.1533 42.7763 61.8369 43.624 61.4854 44.4558C57.5312 53.8043 49.2607 60.8826 39.1729 63.1929C38.2871 63.3957 37.3877 63.5619 36.4756 63.6895ZM46.9092 47.7798C46.0889 50.6672 45.0527 53.2916 43.8438 55.5737C42.5459 58.0262 41.0742 60.0437 39.4883 61.5741C37.0918 62.1788 34.584 62.5 32 62.5V49C37.2695 49 42.3018 48.5669 46.9092 47.7798ZM4.01465 44.1465C7.4834 52.128 14.2666 58.3359 22.627 61.0328C19.8174 57.7898 17.5156 53.1326 15.998 47.5851C11.5156 46.7526 7.46094 45.5809 4.01465 44.1465ZM20.1562 55.5737C21.4541 58.0262 22.9258 60.0437 24.5117 61.5741C26.5977 62.1005 28.7686 62.412 31 62.4839V48.9948C26.0938 48.9436 21.4062 48.5169 17.0908 47.7798C17.9111 50.6672 18.9473 53.2916 20.1562 55.5737ZM3.83789 42.9849L3.47754 42.8268C2.19922 39.4622 1.5 35.8128 1.5 32H14C14 37.1922 14.6162 42.1126 15.7178 46.5144C11.3545 45.6755 7.42676 44.5114 4.10645 43.1005L3.83789 42.9849ZM14.0078 31H1.51562C1.62695 27.5488 2.31152 24.2425 3.47754 21.1732L3.80762 21.0281L4.10645 20.8995C7.42676 19.4886 11.3545 18.3245 15.7178 17.4856C14.6875 21.6039 14.0811 26.176 14.0078 31ZM15.998 16.4149C11.5156 17.2474 7.46094 18.4191 4.01465 19.8535C7.4834 11.872 14.2666 5.66414 22.627 2.96718C19.8174 6.21021 17.5156 10.8674 15.998 16.4149ZM20.1562 8.42625C21.4541 5.97375 22.9258 3.95627 24.5117 2.4259C26.5977 1.89954 28.7686 1.58797 31 1.51608V15.0052C26.0938 15.0564 21.4062 15.4831 17.0908 16.2202C17.9111 13.3328 18.9473 10.7084 20.1562 8.42625ZM32 15V1.5C34.584 1.5 37.0918 1.82123 39.4883 2.4259C41.0742 3.95627 42.5459 5.97375 43.8438 8.42625C45.0527 10.7084 46.0889 13.3328 46.9092 16.2202C42.3018 15.4331 37.2695 15 32 15ZM48.002 16.4149C46.4844 10.8674 44.1826 6.21021 41.373 2.96718C49.7334 5.66414 56.5166 11.872 59.9854 19.8535C56.5391 18.4191 52.4844 17.2474 48.002 16.4149ZM59.8936 20.8995C60.1055 20.9898 60.3154 21.0811 60.5225 21.1732C61.6885 24.2425 62.373 27.5488 62.4844 31H49.9922C49.9189 26.176 49.3125 21.6039 48.2822 17.4856C52.6455 18.3245 56.5732 19.4886 59.8936 20.8995ZM50 32H62.5C62.5 35.8128 61.8008 39.4622 60.5225 42.8268C60.3154 42.9189 60.1055 43.0102 59.8936 43.1005C56.5732 44.5114 52.6455 45.6755 48.2822 46.5144C49.3838 42.1126 50 37.1922 50 32ZM48.002 47.5851C52.4844 46.7526 56.5391 45.5809 59.9854 44.1465C56.5166 52.128 49.7334 58.3359 41.373 61.0328C44.1826 57.7898 46.4844 53.1326 48.002 47.5851ZM32 48C37.3975 48 42.5312 47.541 47.1992 46.7144C48.3486 42.2906 49 37.2968 49 32H32V48ZM32 31H48.9922C48.916 26.0746 48.2764 21.43 47.1992 17.2856C42.5312 16.459 37.3975 16 32 16V31ZM31 16.0053V31H15.0078C15.084 26.0746 15.7236 21.43 16.8008 17.2856C21.1797 16.5102 25.9688 16.0583 31 16.0053ZM31 32V47.9947C25.9688 47.9417 21.1797 47.4898 16.8008 46.7144C15.6514 42.2906 15 37.2968 15 32H31Z" fill="url(#paint1_radial_107_47)"/>
<circle cx="52" cy="52" r="12.75" fill="#D9D9D9"/>
<circle cx="52" cy="52" r="12.75" fill="url(#paint2_linear_107_47)" fill-opacity="0.9"/>
<circle cx="52" cy="52" r="12.75" fill="url(#paint3_linear_107_47)"/>
<circle cx="52" cy="52" r="12.75" stroke="black" stroke-width="1.5"/>
<rect x="51" y="42" width="2" height="11" rx="1" fill="black"/>
<rect x="51" y="51" width="9" height="2" rx="1" fill="black"/>
</g>
<defs>
<radialGradient id="paint0_radial_107_47" cx="0" cy="0" r="1" gradientUnits="userSpaceOnUse" gradientTransform="translate(32 32) rotate(90) scale(32)">
<stop stop-color="white" stop-opacity="0.3"/>
<stop offset="1" stop-color="white" stop-opacity="0"/>
</radialGradient>
<radialGradient id="paint1_radial_107_47" cx="0" cy="0" r="1" gradientUnits="userSpaceOnUse" gradientTransform="translate(32 32) rotate(90) scale(30.5 32.3625)">
<stop stop-color="#AAAAAA"/>
<stop offset="1" stop-color="#666666"/>
</radialGradient>
<linearGradient id="paint2_linear_107_47" x1="54.1937" y1="64.4198" x2="54.2602" y2="40.0002" gradientUnits="userSpaceOnUse">
<stop stop-color="#5B12A4"/>
<stop offset="1" stop-color="#AE2B71"/>
</linearGradient>
<linearGradient id="paint3_linear_107_47" x1="52" y1="40" x2="52" y2="64" gradientUnits="userSpaceOnUse">
<stop stop-color="#EEEEEE"/>
<stop offset="1" stop-color="#AAAAAA"/>
</linearGradient>
<clipPath id="clip0_107_47">
<rect width="64" height="64" fill="white"/>
</clipPath>
</defs>
</svg>
