<svg width="64" height="64" viewBox="0 0 64 64" fill="none" xmlns="http://www.w3.org/2000/svg">
<g clip-path="url(#clip0_122_663)">
<path fill-rule="evenodd" clip-rule="evenodd" d="M63.1598 39.3162C62.9488 40.2182 62.6997 41.1055 62.4142 41.9764C62.3847 42.0666 62.3547 42.1567 62.3243 42.2466C58.9447 52.2521 50.752 60.0409 40.5009 62.8585C39.2012 63.2158 37.8684 63.4931 36.5081 63.6849C35.3572 63.8472 34.1868 63.9482 33 63.9847L32.9288 63.9868C32.6203 63.9956 32.3107 64 32 64C31.6654 64 31.3321 63.9949 31 63.9847C29.8786 63.9503 28.7718 63.8581 27.6823 63.7112C26.3377 63.5298 25.0196 63.265 23.7333 62.922C13.3729 60.1593 5.08102 52.3282 1.67567 42.2466C1.37653 41.3609 1.1151 40.458 0.893285 39.5395C0.875326 39.4652 0.857626 39.3907 0.840187 39.3162C0.363679 37.2788 0.081831 35.1665 0.0153279 33L0.0127262 32.9113C0.0101109 32.8178 0.00789686 32.7241 0.00608579 32.6304C0.00464015 32.5556 0.00345128 32.4807 0.00252001 32.4058C0.00084165 32.2707 0 32.1355 0 32C0 31.8308 0.00131264 31.662 0.00392829 31.4934C0.00497795 31.4258 0.00623745 31.3582 0.00770616 31.2907C0.00930179 31.2173 0.0111443 31.144 0.013233 31.0708L0.0153275 31C0.0818305 28.8335 0.363679 26.7212 0.840187 24.6839C1.05116 23.7818 1.30028 22.8945 1.58577 22.0236C1.61535 21.9334 1.64532 21.8433 1.67567 21.7534C5.05532 11.7479 13.248 3.95907 23.499 1.14145C23.669 1.09472 23.8396 1.04935 24.0108 1.00537C24.1641 0.965964 24.3179 0.927667 24.4721 0.890487C25.5229 0.637113 26.5939 0.435584 27.6823 0.288788C28.7718 0.141848 29.8786 0.04975 31 0.0153279C31.3321 0.00513503 31.6654 0 32 0H32.0028C32.3364 2.89687e-05 32.6689 0.00515571 33 0.0153198C34.1214 0.049742 35.2282 0.141866 36.3177 0.288806C36.7701 0.349826 37.2195 0.420296 37.6657 0.50002C38.5457 0.657238 39.4132 0.850427 40.2667 1.07801C40.3449 1.09887 40.423 1.11999 40.5009 1.14143C50.752 3.95905 58.9447 11.7479 62.3243 21.7534C62.6275 22.6509 62.8919 23.5663 63.1156 24.4975C63.1305 24.5595 63.1453 24.6217 63.1598 24.6838C63.6363 26.7212 63.9182 28.8335 63.9847 31L63.9873 31.0887C63.9957 31.3914 64 31.6952 64 32C64 32.3346 63.9949 32.6679 63.9847 33C63.9182 35.1665 63.6363 37.2788 63.1598 39.3162ZM31 48.9942V61.9836C28.7859 61.9111 26.6326 61.5987 24.565 61.0715C23.3203 59.6893 22.1353 57.943 21.0507 55.834C19.8498 53.4991 18.8184 50.7962 18.0065 47.8102C22.0442 48.5261 26.4214 48.9413 31 48.9942ZM33 48.9942V61.9836C35.2141 61.9111 37.3674 61.5987 39.435 61.0715C40.6797 59.6893 41.8647 57.943 42.9493 55.834C44.1502 53.4991 45.1816 50.7962 45.9935 47.8102C41.9558 48.5261 37.5786 48.9413 33 48.9942ZM46.5244 45.679C42.3753 46.4709 37.8122 46.9372 33 46.9941V33H47.9926C47.9254 37.5251 47.4038 41.8059 46.5244 45.679ZM48.1714 47.3882C46.9147 52.3721 45.0666 56.6897 42.8049 59.9953C50.3942 57.0643 56.4926 51.1361 59.6489 43.662C56.3978 45.2041 52.5091 46.4743 48.1714 47.3882ZM60.6589 40.8964C59.8519 41.3454 58.9826 41.7794 58.0533 42.1952C55.34 43.409 52.1748 44.4403 48.6691 45.2325C49.4658 41.4419 49.9305 37.3188 49.9928 33H61.9836C61.8939 35.741 61.4364 38.3891 60.6589 40.8964ZM59.6489 20.338C56.4926 12.8639 50.3942 6.93575 42.805 4.00469C45.0666 7.31027 46.9147 11.6279 48.1714 16.6118C52.5091 17.5257 56.3978 18.7959 59.6489 20.338ZM48.6691 18.7675C52.1748 19.5597 55.34 20.591 58.0533 21.8048C58.9826 22.2205 59.8519 22.6546 60.6589 23.1036C61.4364 25.6109 61.8939 28.259 61.9836 31H49.9928C49.9305 26.6812 49.4658 22.5581 48.6691 18.7675ZM45.9935 16.1898C45.1816 13.2038 44.1502 10.5009 42.9493 8.16595C41.8647 6.05695 40.6797 4.31072 39.435 2.92848C37.3675 2.4013 35.2141 2.08887 33 2.01635V15.0058C37.5787 15.0587 41.9558 15.4739 45.9935 16.1898ZM33 17.0059C37.8122 17.0628 42.3753 17.5291 46.5244 18.321C47.4038 22.1941 47.9254 26.4749 47.9926 31H33V17.0059ZM31 15.0058V2.01635C28.7859 2.08887 26.6325 2.4013 24.565 2.92848C23.3203 4.31072 22.1353 6.05695 21.0507 8.16595C19.8498 10.5009 18.8184 13.2038 18.0065 16.1898C22.0442 15.4739 26.4213 15.0587 31 15.0058ZM17.4756 18.321C21.6247 17.5291 26.1878 17.0628 31 17.0059V31H16.0074C16.0746 26.4749 16.5962 22.1941 17.4756 18.321ZM15.8286 16.6118C17.0853 11.6279 18.9334 7.31027 21.195 4.00469C13.6058 6.93575 7.50741 12.8639 4.35107 20.338C7.60223 18.7959 11.4909 17.5257 15.8286 16.6118ZM3.34106 23.1036C4.14812 22.6546 5.0174 22.2205 5.94668 21.8048C8.66004 20.591 11.8252 19.5597 15.3309 18.7675C14.5342 22.5581 14.0695 26.6812 14.0072 31H2.01635C2.10613 28.259 2.56361 25.6109 3.34106 23.1036ZM4.35107 43.662C7.50741 51.1361 13.6058 57.0643 21.1951 59.9953C18.9334 56.6897 17.0853 52.3721 15.8286 47.3882C11.4909 46.4743 7.60223 45.2041 4.35107 43.662ZM15.3309 45.2325C11.8252 44.4403 8.66004 43.409 5.94668 42.1952C5.0174 41.7794 4.14812 41.3454 3.34106 40.8964C2.56361 38.3891 2.10613 35.741 2.01635 33H14.0072C14.0695 37.3188 14.5342 41.4419 15.3309 45.2325ZM17.4756 45.679C16.5962 41.8059 16.0746 37.5251 16.0074 33H31V46.9941C26.1878 46.9372 21.6247 46.4709 17.4756 45.679Z" fill="url(#paint0_radial_122_663)"/>
<path d="M61.9012 60.0241L62.4949 60.4824L64.2685 58.1851L62.4152 58.9853C63.308 58.153 64.1437 56.9548 64.5363 55.2596C65.0611 52.9938 64.532 50.9719 63.8956 49.5431C63.5764 48.8265 63.2256 48.2479 62.9532 47.8467C62.8168 47.6457 62.6992 47.488 62.614 47.3785C62.5713 47.3237 62.5367 47.2808 62.5117 47.2506C62.4993 47.2355 62.4892 47.2235 62.4817 47.2147L62.4726 47.2039L62.4695 47.2003L62.4683 47.199L62.4679 47.1984C62.4677 47.1982 62.4675 47.198 61.9012 47.6898L62.4675 47.198L60.6328 45.0855L61.1648 47.832L61.1649 47.8321L61.1649 47.8323L61.1649 47.8323L61.1649 47.8324L61.1654 47.8348L61.1677 47.8473L61.1772 47.9002C61.1855 47.9472 61.1971 48.0163 61.2102 48.1016C61.2364 48.2732 61.2675 48.5057 61.2881 48.7533C61.3089 49.0041 61.3173 49.2528 61.3038 49.462C61.2896 49.6823 61.2557 49.7716 61.2524 49.7802C61.2522 49.7807 61.2521 49.7809 61.2522 49.7808C61.0603 50.1122 60.8287 50.3121 60.6585 50.3908C60.5778 50.428 60.532 50.429 60.5186 50.4279C60.5132 50.4275 60.5066 50.4282 60.4869 50.4113C60.3431 50.2871 60.1611 50.0104 60.0134 49.6116C59.8705 49.2257 59.7945 48.8188 59.7945 48.5121C59.7945 48.3887 59.8386 48.149 59.9263 47.7105L59.9302 47.6912C60.0401 47.1414 60.1889 46.3976 60.214 45.6303C60.2394 44.8556 60.143 43.9787 59.6936 43.2025L59.0445 43.5783L59.6936 43.2025C59.5245 42.9104 59.2368 42.5816 58.9189 42.2563C58.5886 41.9183 58.1793 41.5381 57.7258 41.138C56.8181 40.3371 55.705 39.4314 54.6296 38.5835C53.5526 37.7344 52.5066 36.9376 51.7302 36.3535C51.3419 36.0614 51.0206 35.8221 50.7963 35.6557C50.6841 35.5726 50.5962 35.5076 50.5361 35.4633L50.4675 35.4128L50.4497 35.3997L50.4451 35.3964L50.444 35.3955L50.4436 35.3953C50.4435 35.3952 50.4435 35.3952 50 36L50.4435 35.3952L48.5455 34.0034L49.2883 36.2367L49.2883 36.2367L49.2883 36.2367L49.2884 36.237L49.2891 36.2389L49.2918 36.2471L49.303 36.2815C49.313 36.3121 49.3279 36.3579 49.3469 36.4174C49.3849 36.5364 49.4395 36.7101 49.5053 36.9266C49.6368 37.3599 49.8121 37.9628 49.9872 38.6405C50.3432 40.0187 50.6767 41.6265 50.6767 42.756C50.6767 43.7929 50.3014 44.0369 50.1106 44.1029C49.8223 44.2024 49.3815 44.1104 49.0602 43.833C48.6821 43.5064 48.5135 43.1994 48.4365 42.9999C48.3972 42.898 48.38 42.8195 48.3726 42.7749C48.3698 42.7578 48.3684 42.7457 48.3678 42.7394L48.3678 40.5572L47.0241 42.2977L47.6178 42.756C47.0241 42.2977 47.024 42.2979 47.0239 42.298L47.0236 42.2984L47.0229 42.2993L47.021 42.3018L47.0152 42.3095L46.9956 42.3354C46.9792 42.3574 46.9562 42.3886 46.9275 42.4284C46.8702 42.5079 46.7901 42.6221 46.6948 42.7661C46.5046 43.0535 46.2519 43.4628 45.9987 43.9546C45.5008 44.9221 44.9634 46.2815 44.9634 47.6898C44.9634 49.0223 45.2212 49.9534 45.5089 50.5746C45.6522 50.884 45.8007 51.1117 45.9231 51.2702C45.933 51.283 45.9426 51.2952 45.9521 51.3071C45.951 51.3747 45.9396 51.4422 45.9142 51.5002C45.8899 51.5557 45.8414 51.6319 45.7049 51.7046C45.5555 51.7842 45.2716 51.8735 44.7611 51.8735C44.4927 51.8735 44.1854 51.7521 43.942 51.5419C43.6909 51.325 43.6067 51.1046 43.6067 50.9789V48.5121V47.2149L42.4825 47.8621L42.8567 48.5121C42.4825 47.8621 42.4823 47.8622 42.482 47.8623L42.4815 47.8626L42.4803 47.8633L42.4771 47.8652L42.4676 47.8708L42.4366 47.8893C42.4109 47.9048 42.3751 47.9268 42.3308 47.9551C42.2422 48.0115 42.1189 48.0933 41.9722 48.1988C41.6803 48.4089 41.2894 48.718 40.896 49.1143C40.1277 49.8884 39.25 51.0973 39.25 52.6235L39.25 52.6715C39.25 53.8658 39.25 54.9385 39.3768 55.8145C39.506 56.7073 39.7845 57.5398 40.462 58.1249C40.8495 58.4595 41.4918 58.896 42.1311 59.305L39.5372 58.1851L41.3108 60.4824L41.9045 60.0241C41.3108 60.4824 41.3109 60.4826 41.3111 60.4828L41.3114 60.4832L41.3121 60.4842L41.3142 60.4869L41.3205 60.4949L41.3414 60.5211C41.359 60.5431 41.384 60.5739 41.4161 60.6124C41.4804 60.6893 41.5733 60.7974 41.6931 60.9285C41.9324 61.1902 42.2808 61.5456 42.7236 61.928C43.6027 62.6871 44.8878 63.582 46.4581 64.034C47.7867 64.4164 48.9183 64.627 49.7639 64.743L51.5412 64.9868L50.4663 63.5506C49.9877 62.9111 49.6293 62.0945 49.4796 61.175C49.3957 60.6595 49.4781 60.0115 49.6963 59.2829C49.9117 58.5638 50.2421 57.8224 50.5956 57.1443C50.9478 56.4686 51.3146 55.8716 51.594 55.4428C51.599 55.435 51.604 55.4273 51.609 55.4197C51.625 55.4332 51.6412 55.447 51.6577 55.461C52.0646 55.808 52.61 56.2966 53.1667 56.8647C53.7253 57.4349 54.2831 58.0728 54.7232 58.7179C55.1697 59.3725 55.4584 59.982 55.5428 60.5005C55.7153 61.5603 55.5759 62.543 55.231 63.313L54.6253 64.6647L56.0734 64.3528C56.4905 64.2629 56.9183 64.1576 57.3475 64.034C58.9179 63.582 60.203 62.6871 61.0821 61.928C61.5249 61.5456 61.8733 61.1902 62.1125 60.9285C62.2323 60.7974 62.3253 60.6893 62.3895 60.6124C62.4217 60.5739 62.4467 60.5431 62.4643 60.5211L62.4852 60.4949L62.4914 60.4869L62.4935 60.4842L62.4943 60.4832L62.4946 60.4828C62.4947 60.4826 62.4949 60.4824 61.9012 60.0241Z" fill="white"/>
<path d="M61.9012 60.0241L62.4949 60.4824L64.2685 58.1851L62.4152 58.9853C63.308 58.153 64.1437 56.9548 64.5363 55.2596C65.0611 52.9938 64.532 50.9719 63.8956 49.5431C63.5764 48.8265 63.2256 48.2479 62.9532 47.8467C62.8168 47.6457 62.6992 47.488 62.614 47.3785C62.5713 47.3237 62.5367 47.2808 62.5117 47.2506C62.4993 47.2355 62.4892 47.2235 62.4817 47.2147L62.4726 47.2039L62.4695 47.2003L62.4683 47.199L62.4679 47.1984C62.4677 47.1982 62.4675 47.198 61.9012 47.6898L62.4675 47.198L60.6328 45.0855L61.1648 47.832L61.1649 47.8321L61.1649 47.8323L61.1649 47.8323L61.1649 47.8324L61.1654 47.8348L61.1677 47.8473L61.1772 47.9002C61.1855 47.9472 61.1971 48.0163 61.2102 48.1016C61.2364 48.2732 61.2675 48.5057 61.2881 48.7533C61.3089 49.0041 61.3173 49.2528 61.3038 49.462C61.2896 49.6823 61.2557 49.7716 61.2524 49.7802C61.2522 49.7807 61.2521 49.7809 61.2522 49.7808C61.0603 50.1122 60.8287 50.3121 60.6585 50.3908C60.5778 50.428 60.532 50.429 60.5186 50.4279C60.5132 50.4275 60.5066 50.4282 60.4869 50.4113C60.3431 50.2871 60.1611 50.0104 60.0134 49.6116C59.8705 49.2257 59.7945 48.8188 59.7945 48.5121C59.7945 48.3887 59.8386 48.149 59.9263 47.7105L59.9302 47.6912C60.0401 47.1414 60.1889 46.3976 60.214 45.6303C60.2394 44.8556 60.143 43.9787 59.6936 43.2025L59.0445 43.5783L59.6936 43.2025C59.5245 42.9104 59.2368 42.5816 58.9189 42.2563C58.5886 41.9183 58.1793 41.5381 57.7258 41.138C56.8181 40.3371 55.705 39.4314 54.6296 38.5835C53.5526 37.7344 52.5066 36.9376 51.7302 36.3535C51.3419 36.0614 51.0206 35.8221 50.7963 35.6557C50.6841 35.5726 50.5962 35.5076 50.5361 35.4633L50.4675 35.4128L50.4497 35.3997L50.4451 35.3964L50.444 35.3955L50.4436 35.3953C50.4435 35.3952 50.4435 35.3952 50 36L50.4435 35.3952L48.5455 34.0034L49.2883 36.2367L49.2883 36.2367L49.2883 36.2367L49.2884 36.237L49.2891 36.2389L49.2918 36.2471L49.303 36.2815C49.313 36.3121 49.3279 36.3579 49.3469 36.4174C49.3849 36.5364 49.4395 36.7101 49.5053 36.9266C49.6368 37.3599 49.8121 37.9628 49.9872 38.6405C50.3432 40.0187 50.6767 41.6265 50.6767 42.756C50.6767 43.7929 50.3014 44.0369 50.1106 44.1029C49.8223 44.2024 49.3815 44.1104 49.0602 43.833C48.6821 43.5064 48.5135 43.1994 48.4365 42.9999C48.3972 42.898 48.38 42.8195 48.3726 42.7749C48.3698 42.7578 48.3684 42.7457 48.3678 42.7394L48.3678 40.5572L47.0241 42.2977L47.6178 42.756C47.0241 42.2977 47.024 42.2979 47.0239 42.298L47.0236 42.2984L47.0229 42.2993L47.021 42.3018L47.0152 42.3095L46.9956 42.3354C46.9792 42.3574 46.9562 42.3886 46.9275 42.4284C46.8702 42.5079 46.7901 42.6221 46.6948 42.7661C46.5046 43.0535 46.2519 43.4628 45.9987 43.9546C45.5008 44.9221 44.9634 46.2815 44.9634 47.6898C44.9634 49.0223 45.2212 49.9534 45.5089 50.5746C45.6522 50.884 45.8007 51.1117 45.9231 51.2702C45.933 51.283 45.9426 51.2952 45.9521 51.3071C45.951 51.3747 45.9396 51.4422 45.9142 51.5002C45.8899 51.5557 45.8414 51.6319 45.7049 51.7046C45.5555 51.7842 45.2716 51.8735 44.7611 51.8735C44.4927 51.8735 44.1854 51.7521 43.942 51.5419C43.6909 51.325 43.6067 51.1046 43.6067 50.9789V48.5121V47.2149L42.4825 47.8621L42.8567 48.5121C42.4825 47.8621 42.4823 47.8622 42.482 47.8623L42.4815 47.8626L42.4803 47.8633L42.4771 47.8652L42.4676 47.8708L42.4366 47.8893C42.4109 47.9048 42.3751 47.9268 42.3308 47.9551C42.2422 48.0115 42.1189 48.0933 41.9722 48.1988C41.6803 48.4089 41.2894 48.718 40.896 49.1143C40.1277 49.8884 39.25 51.0973 39.25 52.6235L39.25 52.6715C39.25 53.8658 39.25 54.9385 39.3768 55.8145C39.506 56.7073 39.7845 57.5398 40.462 58.1249C40.8495 58.4595 41.4918 58.896 42.1311 59.305L39.5372 58.1851L41.3108 60.4824L41.9045 60.0241C41.3108 60.4824 41.3109 60.4826 41.3111 60.4828L41.3114 60.4832L41.3121 60.4842L41.3142 60.4869L41.3205 60.4949L41.3414 60.5211C41.359 60.5431 41.384 60.5739 41.4161 60.6124C41.4804 60.6893 41.5733 60.7974 41.6931 60.9285C41.9324 61.1902 42.2808 61.5456 42.7236 61.928C43.6027 62.6871 44.8878 63.582 46.4581 64.034C47.7867 64.4164 48.9183 64.627 49.7639 64.743L51.5412 64.9868L50.4663 63.5506C49.9877 62.9111 49.6293 62.0945 49.4796 61.175C49.3957 60.6595 49.4781 60.0115 49.6963 59.2829C49.9117 58.5638 50.2421 57.8224 50.5956 57.1443C50.9478 56.4686 51.3146 55.8716 51.594 55.4428C51.599 55.435 51.604 55.4273 51.609 55.4197C51.625 55.4332 51.6412 55.447 51.6577 55.461C52.0646 55.808 52.61 56.2966 53.1667 56.8647C53.7253 57.4349 54.2831 58.0728 54.7232 58.7179C55.1697 59.3725 55.4584 59.982 55.5428 60.5005C55.7153 61.5603 55.5759 62.543 55.231 63.313L54.6253 64.6647L56.0734 64.3528C56.4905 64.2629 56.9183 64.1576 57.3475 64.034C58.9179 63.582 60.203 62.6871 61.0821 61.928C61.5249 61.5456 61.8733 61.1902 62.1125 60.9285C62.2323 60.7974 62.3253 60.6893 62.3895 60.6124C62.4217 60.5739 62.4467 60.5431 62.4643 60.5211L62.4852 60.4949L62.4914 60.4869L62.4935 60.4842L62.4943 60.4832L62.4946 60.4828C62.4947 60.4826 62.4949 60.4824 61.9012 60.0241Z" fill="url(#paint1_linear_122_663)" fill-opacity="0.9"/>
<path d="M61.9012 60.0241L62.4949 60.4824L64.2685 58.1851L62.4152 58.9853C63.308 58.153 64.1437 56.9548 64.5363 55.2596C65.0611 52.9938 64.532 50.9719 63.8956 49.5431C63.5764 48.8265 63.2256 48.2479 62.9532 47.8467C62.8168 47.6457 62.6992 47.488 62.614 47.3785C62.5713 47.3237 62.5367 47.2808 62.5117 47.2506C62.4993 47.2355 62.4892 47.2235 62.4817 47.2147L62.4726 47.2039L62.4695 47.2003L62.4683 47.199L62.4679 47.1984C62.4677 47.1982 62.4675 47.198 61.9012 47.6898L62.4675 47.198L60.6328 45.0855L61.1648 47.832L61.1649 47.8321L61.1649 47.8323L61.1649 47.8323L61.1649 47.8324L61.1654 47.8348L61.1677 47.8473L61.1772 47.9002C61.1855 47.9472 61.1971 48.0163 61.2102 48.1016C61.2364 48.2732 61.2675 48.5057 61.2881 48.7533C61.3089 49.0041 61.3173 49.2528 61.3038 49.462C61.2896 49.6823 61.2557 49.7716 61.2524 49.7802C61.2522 49.7807 61.2521 49.7809 61.2522 49.7808C61.0603 50.1122 60.8287 50.3121 60.6585 50.3908C60.5778 50.428 60.532 50.429 60.5186 50.4279C60.5132 50.4275 60.5066 50.4282 60.4869 50.4113C60.3431 50.2871 60.1611 50.0104 60.0134 49.6116C59.8705 49.2257 59.7945 48.8188 59.7945 48.5121C59.7945 48.3887 59.8386 48.149 59.9263 47.7105L59.9302 47.6912C60.0401 47.1414 60.1889 46.3976 60.214 45.6303C60.2394 44.8556 60.143 43.9787 59.6936 43.2025L59.0445 43.5783L59.6936 43.2025C59.5245 42.9104 59.2368 42.5816 58.9189 42.2563C58.5886 41.9183 58.1793 41.5381 57.7258 41.138C56.8181 40.3371 55.705 39.4314 54.6296 38.5835C53.5526 37.7344 52.5066 36.9376 51.7302 36.3535C51.3419 36.0614 51.0206 35.8221 50.7963 35.6557C50.6841 35.5726 50.5962 35.5076 50.5361 35.4633L50.4675 35.4128L50.4497 35.3997L50.4451 35.3964L50.444 35.3955L50.4436 35.3953C50.4435 35.3952 50.4435 35.3952 50 36L50.4435 35.3952L48.5455 34.0034L49.2883 36.2367L49.2883 36.2367L49.2883 36.2367L49.2884 36.237L49.2891 36.2389L49.2918 36.2471L49.303 36.2815C49.313 36.3121 49.3279 36.3579 49.3469 36.4174C49.3849 36.5364 49.4395 36.7101 49.5053 36.9266C49.6368 37.3599 49.8121 37.9628 49.9872 38.6405C50.3432 40.0187 50.6767 41.6265 50.6767 42.756C50.6767 43.7929 50.3014 44.0369 50.1106 44.1029C49.8223 44.2024 49.3815 44.1104 49.0602 43.833C48.6821 43.5064 48.5135 43.1994 48.4365 42.9999C48.3972 42.898 48.38 42.8195 48.3726 42.7749C48.3698 42.7578 48.3684 42.7457 48.3678 42.7394L48.3678 40.5572L47.0241 42.2977L47.6178 42.756C47.0241 42.2977 47.024 42.2979 47.0239 42.298L47.0236 42.2984L47.0229 42.2993L47.021 42.3018L47.0152 42.3095L46.9956 42.3354C46.9792 42.3574 46.9562 42.3886 46.9275 42.4284C46.8702 42.5079 46.7901 42.6221 46.6948 42.7661C46.5046 43.0535 46.2519 43.4628 45.9987 43.9546C45.5008 44.9221 44.9634 46.2815 44.9634 47.6898C44.9634 49.0223 45.2212 49.9534 45.5089 50.5746C45.6522 50.884 45.8007 51.1117 45.9231 51.2702C45.933 51.283 45.9426 51.2952 45.9521 51.3071C45.951 51.3747 45.9396 51.4422 45.9142 51.5002C45.8899 51.5557 45.8414 51.6319 45.7049 51.7046C45.5555 51.7842 45.2716 51.8735 44.7611 51.8735C44.4927 51.8735 44.1854 51.7521 43.942 51.5419C43.6909 51.325 43.6067 51.1046 43.6067 50.9789V48.5121V47.2149L42.4825 47.8621L42.8567 48.5121C42.4825 47.8621 42.4823 47.8622 42.482 47.8623L42.4815 47.8626L42.4803 47.8633L42.4771 47.8652L42.4676 47.8708L42.4366 47.8893C42.4109 47.9048 42.3751 47.9268 42.3308 47.9551C42.2422 48.0115 42.1189 48.0933 41.9722 48.1988C41.6803 48.4089 41.2894 48.718 40.896 49.1143C40.1277 49.8884 39.25 51.0973 39.25 52.6235L39.25 52.6715C39.25 53.8658 39.25 54.9385 39.3768 55.8145C39.506 56.7073 39.7845 57.5398 40.462 58.1249C40.8495 58.4595 41.4918 58.896 42.1311 59.305L39.5372 58.1851L41.3108 60.4824L41.9045 60.0241C41.3108 60.4824 41.3109 60.4826 41.3111 60.4828L41.3114 60.4832L41.3121 60.4842L41.3142 60.4869L41.3205 60.4949L41.3414 60.5211C41.359 60.5431 41.384 60.5739 41.4161 60.6124C41.4804 60.6893 41.5733 60.7974 41.6931 60.9285C41.9324 61.1902 42.2808 61.5456 42.7236 61.928C43.6027 62.6871 44.8878 63.582 46.4581 64.034C47.7867 64.4164 48.9183 64.627 49.7639 64.743L51.5412 64.9868L50.4663 63.5506C49.9877 62.9111 49.6293 62.0945 49.4796 61.175C49.3957 60.6595 49.4781 60.0115 49.6963 59.2829C49.9117 58.5638 50.2421 57.8224 50.5956 57.1443C50.9478 56.4686 51.3146 55.8716 51.594 55.4428C51.599 55.435 51.604 55.4273 51.609 55.4197C51.625 55.4332 51.6412 55.447 51.6577 55.461C52.0646 55.808 52.61 56.2966 53.1667 56.8647C53.7253 57.4349 54.2831 58.0728 54.7232 58.7179C55.1697 59.3725 55.4584 59.982 55.5428 60.5005C55.7153 61.5603 55.5759 62.543 55.231 63.313L54.6253 64.6647L56.0734 64.3528C56.4905 64.2629 56.9183 64.1576 57.3475 64.034C58.9179 63.582 60.203 62.6871 61.0821 61.928C61.5249 61.5456 61.8733 61.1902 62.1125 60.9285C62.2323 60.7974 62.3253 60.6893 62.3895 60.6124C62.4217 60.5739 62.4467 60.5431 62.4643 60.5211L62.4852 60.4949L62.4914 60.4869L62.4935 60.4842L62.4943 60.4832L62.4946 60.4828C62.4947 60.4826 62.4949 60.4824 61.9012 60.0241Z" stroke="white" stroke-width="1.5"/>
</g>
<defs>
<radialGradient id="paint0_radial_122_663" cx="0" cy="0" r="1" gradientUnits="userSpaceOnUse" gradientTransform="translate(31.9997 32) rotate(90) scale(34.3529 29.2)">
<stop offset="0.423448" stop-color="#888888"/>
<stop offset="1" stop-color="#444444"/>
</radialGradient>
<linearGradient id="paint1_linear_122_663" x1="49.7705" y1="37" x2="53.6937" y2="85.7898" gradientUnits="userSpaceOnUse">
<stop stop-color="#FA9A43"/>
<stop offset="0.323575" stop-color="#F14949"/>
<stop offset="1" stop-color="#5B12A4"/>
</linearGradient>
<clipPath id="clip0_122_663">
<rect width="64" height="64" fill="white"/>
</clipPath>
</defs>
</svg>
