<svg width="64" height="64" viewBox="0 0 64 64" fill="none" xmlns="http://www.w3.org/2000/svg">
<g clip-path="url(#clip0_107_54)">
<rect width="64" height="64" fill="black"/>
<circle cx="32" cy="32" r="32" fill="url(#paint0_radial_107_54)"/>
<path fill-rule="evenodd" clip-rule="evenodd" d="M36.4756 63.6895C35.0137 63.8942 33.5186 64 32 64C31.5859 64 31.1729 63.9921 30.7627 63.9765C29.5654 63.931 28.3867 63.8198 27.2266 63.6463C26.417 63.5252 25.6162 63.3735 24.8271 63.1929C24.8096 63.1888 24.791 63.1847 24.7734 63.1806C14.2861 60.7597 5.76953 53.1813 2.03809 43.2632C1.87012 42.8158 1.71289 42.3669 1.56445 41.9102C1.52148 41.7792 1.47949 41.6476 1.43848 41.5158C0.503906 38.5098 0 35.3137 0 32C0 31.6654 0.00585938 31.3321 0.015625 31C0.0224609 30.7839 0.03125 30.5683 0.0419922 30.3533C0.1875 27.4827 0.710938 24.7118 1.56445 22.0898C1.8457 21.2244 2.16309 20.3754 2.51465 19.5442C6.46875 10.1957 14.7393 3.11739 24.8271 0.807129C25.7129 0.604294 26.6123 0.438095 27.5244 0.310455C28.665 0.150894 29.8242 0.0514221 31 0.0153351C31.332 0.00514221 31.665 0 32 0C33.6221 0 35.2158 0.120728 36.7734 0.353683C37.583 0.474838 38.3838 0.626465 39.1729 0.807129C39.1904 0.811249 39.209 0.815277 39.2266 0.819427C49.7139 3.24026 58.2305 10.8187 61.9619 20.7368C62.1299 21.1842 62.2871 21.6331 62.4355 22.0898C62.4785 22.2208 62.5205 22.3524 62.5615 22.4842C63.4014 25.1849 63.8936 28.039 63.9844 30.9941V31C63.9941 31.3321 64 31.6654 64 32C64 35.4583 63.4502 38.7905 62.4355 41.9102C62.1533 42.7763 61.8369 43.624 61.4854 44.4558C57.5312 53.8043 49.2607 60.8826 39.1729 63.1929C38.2871 63.3957 37.3877 63.5619 36.4756 63.6895ZM46.9092 47.7798C46.0889 50.6672 45.0527 53.2916 43.8438 55.5737C42.5459 58.0262 41.0742 60.0437 39.4883 61.5741C37.0918 62.1788 34.584 62.5 32 62.5V49C37.2695 49 42.3018 48.5669 46.9092 47.7798ZM4.01465 44.1465C7.4834 52.128 14.2666 58.3359 22.627 61.0328C19.8174 57.7898 17.5156 53.1326 15.998 47.5851C11.5156 46.7526 7.46094 45.5809 4.01465 44.1465ZM20.1562 55.5737C21.4541 58.0262 22.9258 60.0437 24.5117 61.5741C26.5977 62.1005 28.7686 62.412 31 62.4839V48.9948C26.0938 48.9436 21.4062 48.5169 17.0908 47.7798C17.9111 50.6672 18.9473 53.2916 20.1562 55.5737ZM3.83789 42.9849L3.47754 42.8268C2.19922 39.4622 1.5 35.8128 1.5 32H14C14 37.1922 14.6162 42.1126 15.7178 46.5144C11.3545 45.6755 7.42676 44.5114 4.10645 43.1005L3.83789 42.9849ZM14.0078 31H1.51562C1.62695 27.5488 2.31152 24.2425 3.47754 21.1732L3.80762 21.0281L4.10645 20.8995C7.42676 19.4886 11.3545 18.3245 15.7178 17.4856C14.6875 21.6039 14.0811 26.176 14.0078 31ZM15.998 16.4149C11.5156 17.2474 7.46094 18.4191 4.01465 19.8535C7.4834 11.872 14.2666 5.66414 22.627 2.96718C19.8174 6.21021 17.5156 10.8674 15.998 16.4149ZM20.1562 8.42625C21.4541 5.97375 22.9258 3.95627 24.5117 2.4259C26.5977 1.89954 28.7686 1.58797 31 1.51608V15.0052C26.0938 15.0564 21.4062 15.4831 17.0908 16.2202C17.9111 13.3328 18.9473 10.7084 20.1562 8.42625ZM32 15V1.5C34.584 1.5 37.0918 1.82123 39.4883 2.4259C41.0742 3.95627 42.5459 5.97375 43.8438 8.42625C45.0527 10.7084 46.0889 13.3328 46.9092 16.2202C42.3018 15.4331 37.2695 15 32 15ZM48.002 16.4149C46.4844 10.8674 44.1826 6.21021 41.373 2.96718C49.7334 5.66414 56.5166 11.872 59.9854 19.8535C56.5391 18.4191 52.4844 17.2474 48.002 16.4149ZM59.8936 20.8995C60.1055 20.9898 60.3154 21.0811 60.5225 21.1732C61.6885 24.2425 62.373 27.5488 62.4844 31H49.9922C49.9189 26.176 49.3125 21.6039 48.2822 17.4856C52.6455 18.3245 56.5732 19.4886 59.8936 20.8995ZM50 32H62.5C62.5 35.8128 61.8008 39.4622 60.5225 42.8268C60.3154 42.9189 60.1055 43.0102 59.8936 43.1005C56.5732 44.5114 52.6455 45.6755 48.2822 46.5144C49.3838 42.1126 50 37.1922 50 32ZM48.002 47.5851C52.4844 46.7526 56.5391 45.5809 59.9854 44.1465C56.5166 52.128 49.7334 58.3359 41.373 61.0328C44.1826 57.7898 46.4844 53.1326 48.002 47.5851ZM32 48C37.3975 48 42.5312 47.541 47.1992 46.7144C48.3486 42.2906 49 37.2968 49 32H32V48ZM32 31H48.9922C48.916 26.0746 48.2764 21.43 47.1992 17.2856C42.5312 16.459 37.3975 16 32 16V31ZM31 16.0053V31H15.0078C15.084 26.0746 15.7236 21.43 16.8008 17.2856C21.1797 16.5102 25.9688 16.0583 31 16.0053ZM31 32V47.9947C25.9688 47.9417 21.1797 47.4898 16.8008 46.7144C15.6514 42.2906 15 37.2968 15 32H31Z" fill="#D9D9D9"/>
<path fill-rule="evenodd" clip-rule="evenodd" d="M36.4756 63.6895C35.0137 63.8942 33.5186 64 32 64C31.5859 64 31.1729 63.9921 30.7627 63.9765C29.5654 63.931 28.3867 63.8198 27.2266 63.6463C26.417 63.5252 25.6162 63.3735 24.8271 63.1929C24.8096 63.1888 24.791 63.1847 24.7734 63.1806C14.2861 60.7597 5.76953 53.1813 2.03809 43.2632C1.87012 42.8158 1.71289 42.3669 1.56445 41.9102C1.52148 41.7792 1.47949 41.6476 1.43848 41.5158C0.503906 38.5098 0 35.3137 0 32C0 31.6654 0.00585938 31.3321 0.015625 31C0.0224609 30.7839 0.03125 30.5683 0.0419922 30.3533C0.1875 27.4827 0.710938 24.7118 1.56445 22.0898C1.8457 21.2244 2.16309 20.3754 2.51465 19.5442C6.46875 10.1957 14.7393 3.11739 24.8271 0.807129C25.7129 0.604294 26.6123 0.438095 27.5244 0.310455C28.665 0.150894 29.8242 0.0514221 31 0.0153351C31.332 0.00514221 31.665 0 32 0C33.6221 0 35.2158 0.120728 36.7734 0.353683C37.583 0.474838 38.3838 0.626465 39.1729 0.807129C39.1904 0.811249 39.209 0.815277 39.2266 0.819427C49.7139 3.24026 58.2305 10.8187 61.9619 20.7368C62.1299 21.1842 62.2871 21.6331 62.4355 22.0898C62.4785 22.2208 62.5205 22.3524 62.5615 22.4842C63.4014 25.1849 63.8936 28.039 63.9844 30.9941V31C63.9941 31.3321 64 31.6654 64 32C64 35.4583 63.4502 38.7905 62.4355 41.9102C62.1533 42.7763 61.8369 43.624 61.4854 44.4558C57.5312 53.8043 49.2607 60.8826 39.1729 63.1929C38.2871 63.3957 37.3877 63.5619 36.4756 63.6895ZM46.9092 47.7798C46.0889 50.6672 45.0527 53.2916 43.8438 55.5737C42.5459 58.0262 41.0742 60.0437 39.4883 61.5741C37.0918 62.1788 34.584 62.5 32 62.5V49C37.2695 49 42.3018 48.5669 46.9092 47.7798ZM4.01465 44.1465C7.4834 52.128 14.2666 58.3359 22.627 61.0328C19.8174 57.7898 17.5156 53.1326 15.998 47.5851C11.5156 46.7526 7.46094 45.5809 4.01465 44.1465ZM20.1562 55.5737C21.4541 58.0262 22.9258 60.0437 24.5117 61.5741C26.5977 62.1005 28.7686 62.412 31 62.4839V48.9948C26.0938 48.9436 21.4062 48.5169 17.0908 47.7798C17.9111 50.6672 18.9473 53.2916 20.1562 55.5737ZM3.83789 42.9849L3.47754 42.8268C2.19922 39.4622 1.5 35.8128 1.5 32H14C14 37.1922 14.6162 42.1126 15.7178 46.5144C11.3545 45.6755 7.42676 44.5114 4.10645 43.1005L3.83789 42.9849ZM14.0078 31H1.51562C1.62695 27.5488 2.31152 24.2425 3.47754 21.1732L3.80762 21.0281L4.10645 20.8995C7.42676 19.4886 11.3545 18.3245 15.7178 17.4856C14.6875 21.6039 14.0811 26.176 14.0078 31ZM15.998 16.4149C11.5156 17.2474 7.46094 18.4191 4.01465 19.8535C7.4834 11.872 14.2666 5.66414 22.627 2.96718C19.8174 6.21021 17.5156 10.8674 15.998 16.4149ZM20.1562 8.42625C21.4541 5.97375 22.9258 3.95627 24.5117 2.4259C26.5977 1.89954 28.7686 1.58797 31 1.51608V15.0052C26.0938 15.0564 21.4062 15.4831 17.0908 16.2202C17.9111 13.3328 18.9473 10.7084 20.1562 8.42625ZM32 15V1.5C34.584 1.5 37.0918 1.82123 39.4883 2.4259C41.0742 3.95627 42.5459 5.97375 43.8438 8.42625C45.0527 10.7084 46.0889 13.3328 46.9092 16.2202C42.3018 15.4331 37.2695 15 32 15ZM48.002 16.4149C46.4844 10.8674 44.1826 6.21021 41.373 2.96718C49.7334 5.66414 56.5166 11.872 59.9854 19.8535C56.5391 18.4191 52.4844 17.2474 48.002 16.4149ZM59.8936 20.8995C60.1055 20.9898 60.3154 21.0811 60.5225 21.1732C61.6885 24.2425 62.373 27.5488 62.4844 31H49.9922C49.9189 26.176 49.3125 21.6039 48.2822 17.4856C52.6455 18.3245 56.5732 19.4886 59.8936 20.8995ZM50 32H62.5C62.5 35.8128 61.8008 39.4622 60.5225 42.8268C60.3154 42.9189 60.1055 43.0102 59.8936 43.1005C56.5732 44.5114 52.6455 45.6755 48.2822 46.5144C49.3838 42.1126 50 37.1922 50 32ZM48.002 47.5851C52.4844 46.7526 56.5391 45.5809 59.9854 44.1465C56.5166 52.128 49.7334 58.3359 41.373 61.0328C44.1826 57.7898 46.4844 53.1326 48.002 47.5851ZM32 48C37.3975 48 42.5312 47.541 47.1992 46.7144C48.3486 42.2906 49 37.2968 49 32H32V48ZM32 31H48.9922C48.916 26.0746 48.2764 21.43 47.1992 17.2856C42.5312 16.459 37.3975 16 32 16V31ZM31 16.0053V31H15.0078C15.084 26.0746 15.7236 21.43 16.8008 17.2856C21.1797 16.5102 25.9688 16.0583 31 16.0053ZM31 32V47.9947C25.9688 47.9417 21.1797 47.4898 16.8008 46.7144C15.6514 42.2906 15 37.2968 15 32H31Z" fill="url(#paint1_radial_107_54)"/>
<path d="M61.9012 60.0241L62.4949 60.4824L64.2685 58.1851L62.4152 58.9853C63.308 58.153 64.1437 56.9548 64.5363 55.2596C65.0611 52.9938 64.532 50.9719 63.8956 49.5431C63.5764 48.8265 63.2256 48.2479 62.9532 47.8467C62.8168 47.6457 62.6992 47.488 62.614 47.3785C62.5713 47.3237 62.5367 47.2808 62.5117 47.2506C62.4993 47.2355 62.4892 47.2235 62.4817 47.2147L62.4726 47.2039L62.4695 47.2003L62.4683 47.199L62.4679 47.1984C62.4677 47.1982 62.4675 47.198 61.9012 47.6898L62.4675 47.198L60.6328 45.0855L61.1648 47.832L61.1649 47.8321L61.1649 47.8323L61.1649 47.8323L61.1649 47.8324L61.1654 47.8348L61.1677 47.8473L61.1772 47.9002C61.1855 47.9472 61.1971 48.0163 61.2102 48.1016C61.2364 48.2732 61.2675 48.5057 61.2881 48.7533C61.3089 49.0041 61.3173 49.2528 61.3038 49.462C61.2896 49.6823 61.2557 49.7716 61.2524 49.7802C61.2522 49.7807 61.2521 49.7809 61.2522 49.7808C61.0603 50.1122 60.8287 50.3121 60.6585 50.3908C60.5778 50.428 60.532 50.429 60.5186 50.4279C60.5132 50.4275 60.5066 50.4282 60.4869 50.4113C60.3431 50.2871 60.1611 50.0104 60.0134 49.6116C59.8705 49.2257 59.7945 48.8188 59.7945 48.5121C59.7945 48.3887 59.8386 48.149 59.9263 47.7105L59.9302 47.6912C60.0401 47.1414 60.1889 46.3976 60.214 45.6303C60.2394 44.8556 60.143 43.9787 59.6936 43.2025L59.0445 43.5783L59.6936 43.2025C59.5245 42.9104 59.2368 42.5816 58.9189 42.2563C58.5886 41.9183 58.1793 41.5381 57.7258 41.138C56.8181 40.3371 55.705 39.4314 54.6296 38.5835C53.5526 37.7344 52.5066 36.9376 51.7302 36.3535C51.3419 36.0614 51.0206 35.8221 50.7963 35.6557C50.6841 35.5726 50.5962 35.5076 50.5361 35.4633L50.4675 35.4128L50.4497 35.3997L50.4451 35.3964L50.444 35.3955L50.4436 35.3953C50.4435 35.3952 50.4435 35.3952 50 36L50.4435 35.3952L48.5455 34.0034L49.2883 36.2367L49.2883 36.2367L49.2883 36.2367L49.2884 36.237L49.2891 36.2389L49.2918 36.2471L49.303 36.2815C49.313 36.3121 49.3279 36.3579 49.3469 36.4174C49.3849 36.5364 49.4395 36.7101 49.5053 36.9266C49.6368 37.3599 49.8121 37.9628 49.9872 38.6405C50.3432 40.0187 50.6767 41.6265 50.6767 42.756C50.6767 43.7929 50.3014 44.0369 50.1106 44.1029C49.8223 44.2024 49.3815 44.1104 49.0602 43.833C48.6821 43.5064 48.5135 43.1994 48.4365 42.9999C48.3972 42.898 48.38 42.8195 48.3726 42.7749C48.3698 42.7578 48.3684 42.7457 48.3678 42.7394L48.3678 40.5572L47.0241 42.2977L47.6178 42.756C47.0241 42.2977 47.024 42.2979 47.0239 42.298L47.0236 42.2984L47.0229 42.2993L47.021 42.3018L47.0152 42.3095L46.9956 42.3354C46.9792 42.3574 46.9562 42.3886 46.9275 42.4284C46.8702 42.5079 46.7901 42.6221 46.6948 42.7661C46.5046 43.0535 46.2519 43.4628 45.9987 43.9546C45.5008 44.9221 44.9634 46.2815 44.9634 47.6898C44.9634 49.0223 45.2212 49.9534 45.5089 50.5746C45.6522 50.884 45.8007 51.1117 45.9231 51.2702C45.933 51.283 45.9426 51.2952 45.9521 51.3071C45.951 51.3747 45.9396 51.4422 45.9142 51.5002C45.8899 51.5557 45.8414 51.6319 45.7049 51.7046C45.5555 51.7842 45.2716 51.8735 44.7611 51.8735C44.4927 51.8735 44.1854 51.7521 43.942 51.5419C43.6909 51.325 43.6067 51.1046 43.6067 50.9789V48.5121V47.2149L42.4825 47.8621L42.8567 48.5121C42.4825 47.8621 42.4823 47.8622 42.482 47.8623L42.4815 47.8626L42.4803 47.8633L42.4771 47.8652L42.4676 47.8708L42.4366 47.8893C42.4109 47.9048 42.3751 47.9268 42.3308 47.9551C42.2422 48.0115 42.1189 48.0933 41.9722 48.1988C41.6803 48.4089 41.2894 48.718 40.896 49.1143C40.1277 49.8884 39.25 51.0973 39.25 52.6235L39.25 52.6715C39.25 53.8658 39.25 54.9385 39.3768 55.8145C39.506 56.7073 39.7845 57.5398 40.462 58.1249C40.8495 58.4595 41.4918 58.896 42.1311 59.305L39.5372 58.1851L41.3108 60.4824L41.9045 60.0241C41.3108 60.4824 41.3109 60.4826 41.3111 60.4828L41.3114 60.4832L41.3121 60.4842L41.3142 60.4869L41.3205 60.4949L41.3414 60.5211C41.359 60.5431 41.384 60.5739 41.4161 60.6124C41.4804 60.6893 41.5733 60.7974 41.6931 60.9285C41.9324 61.1902 42.2808 61.5456 42.7236 61.928C43.6027 62.6871 44.8878 63.582 46.4581 64.034C47.7867 64.4164 48.9183 64.627 49.7639 64.743L51.5412 64.9868L50.4663 63.5506C49.9877 62.9111 49.6293 62.0945 49.4796 61.175C49.3957 60.6595 49.4781 60.0115 49.6963 59.2829C49.9117 58.5638 50.2421 57.8224 50.5956 57.1443C50.9478 56.4686 51.3146 55.8716 51.594 55.4428C51.599 55.435 51.604 55.4273 51.609 55.4197C51.625 55.4332 51.6412 55.447 51.6577 55.461C52.0646 55.808 52.61 56.2966 53.1667 56.8647C53.7253 57.4349 54.2831 58.0728 54.7232 58.7179C55.1697 59.3725 55.4584 59.982 55.5428 60.5005C55.7153 61.5603 55.5759 62.543 55.231 63.313L54.6253 64.6647L56.0734 64.3528C56.4905 64.2629 56.9183 64.1576 57.3475 64.034C58.9179 63.582 60.203 62.6871 61.0821 61.928C61.5249 61.5456 61.8733 61.1902 62.1125 60.9285C62.2323 60.7974 62.3253 60.6893 62.3895 60.6124C62.4217 60.5739 62.4467 60.5431 62.4643 60.5211L62.4852 60.4949L62.4914 60.4869L62.4935 60.4842L62.4943 60.4832L62.4946 60.4828C62.4947 60.4826 62.4949 60.4824 61.9012 60.0241Z" fill="black"/>
<path d="M61.9012 60.0241L62.4949 60.4824L64.2685 58.1851L62.4152 58.9853C63.308 58.153 64.1437 56.9548 64.5363 55.2596C65.0611 52.9938 64.532 50.9719 63.8956 49.5431C63.5764 48.8265 63.2256 48.2479 62.9532 47.8467C62.8168 47.6457 62.6992 47.488 62.614 47.3785C62.5713 47.3237 62.5367 47.2808 62.5117 47.2506C62.4993 47.2355 62.4892 47.2235 62.4817 47.2147L62.4726 47.2039L62.4695 47.2003L62.4683 47.199L62.4679 47.1984C62.4677 47.1982 62.4675 47.198 61.9012 47.6898L62.4675 47.198L60.6328 45.0855L61.1648 47.832L61.1649 47.8321L61.1649 47.8323L61.1649 47.8323L61.1649 47.8324L61.1654 47.8348L61.1677 47.8473L61.1772 47.9002C61.1855 47.9472 61.1971 48.0163 61.2102 48.1016C61.2364 48.2732 61.2675 48.5057 61.2881 48.7533C61.3089 49.0041 61.3173 49.2528 61.3038 49.462C61.2896 49.6823 61.2557 49.7716 61.2524 49.7802C61.2522 49.7807 61.2521 49.7809 61.2522 49.7808C61.0603 50.1122 60.8287 50.3121 60.6585 50.3908C60.5778 50.428 60.532 50.429 60.5186 50.4279C60.5132 50.4275 60.5066 50.4282 60.4869 50.4113C60.3431 50.2871 60.1611 50.0104 60.0134 49.6116C59.8705 49.2257 59.7945 48.8188 59.7945 48.5121C59.7945 48.3887 59.8386 48.149 59.9263 47.7105L59.9302 47.6912C60.0401 47.1414 60.1889 46.3976 60.214 45.6303C60.2394 44.8556 60.143 43.9787 59.6936 43.2025L59.0445 43.5783L59.6936 43.2025C59.5245 42.9104 59.2368 42.5816 58.9189 42.2563C58.5886 41.9183 58.1793 41.5381 57.7258 41.138C56.8181 40.3371 55.705 39.4314 54.6296 38.5835C53.5526 37.7344 52.5066 36.9376 51.7302 36.3535C51.3419 36.0614 51.0206 35.8221 50.7963 35.6557C50.6841 35.5726 50.5962 35.5076 50.5361 35.4633L50.4675 35.4128L50.4497 35.3997L50.4451 35.3964L50.444 35.3955L50.4436 35.3953C50.4435 35.3952 50.4435 35.3952 50 36L50.4435 35.3952L48.5455 34.0034L49.2883 36.2367L49.2883 36.2367L49.2883 36.2367L49.2884 36.237L49.2891 36.2389L49.2918 36.2471L49.303 36.2815C49.313 36.3121 49.3279 36.3579 49.3469 36.4174C49.3849 36.5364 49.4395 36.7101 49.5053 36.9266C49.6368 37.3599 49.8121 37.9628 49.9872 38.6405C50.3432 40.0187 50.6767 41.6265 50.6767 42.756C50.6767 43.7929 50.3014 44.0369 50.1106 44.1029C49.8223 44.2024 49.3815 44.1104 49.0602 43.833C48.6821 43.5064 48.5135 43.1994 48.4365 42.9999C48.3972 42.898 48.38 42.8195 48.3726 42.7749C48.3698 42.7578 48.3684 42.7457 48.3678 42.7394L48.3678 40.5572L47.0241 42.2977L47.6178 42.756C47.0241 42.2977 47.024 42.2979 47.0239 42.298L47.0236 42.2984L47.0229 42.2993L47.021 42.3018L47.0152 42.3095L46.9956 42.3354C46.9792 42.3574 46.9562 42.3886 46.9275 42.4284C46.8702 42.5079 46.7901 42.6221 46.6948 42.7661C46.5046 43.0535 46.2519 43.4628 45.9987 43.9546C45.5008 44.9221 44.9634 46.2815 44.9634 47.6898C44.9634 49.0223 45.2212 49.9534 45.5089 50.5746C45.6522 50.884 45.8007 51.1117 45.9231 51.2702C45.933 51.283 45.9426 51.2952 45.9521 51.3071C45.951 51.3747 45.9396 51.4422 45.9142 51.5002C45.8899 51.5557 45.8414 51.6319 45.7049 51.7046C45.5555 51.7842 45.2716 51.8735 44.7611 51.8735C44.4927 51.8735 44.1854 51.7521 43.942 51.5419C43.6909 51.325 43.6067 51.1046 43.6067 50.9789V48.5121V47.2149L42.4825 47.8621L42.8567 48.5121C42.4825 47.8621 42.4823 47.8622 42.482 47.8623L42.4815 47.8626L42.4803 47.8633L42.4771 47.8652L42.4676 47.8708L42.4366 47.8893C42.4109 47.9048 42.3751 47.9268 42.3308 47.9551C42.2422 48.0115 42.1189 48.0933 41.9722 48.1988C41.6803 48.4089 41.2894 48.718 40.896 49.1143C40.1277 49.8884 39.25 51.0973 39.25 52.6235L39.25 52.6715C39.25 53.8658 39.25 54.9385 39.3768 55.8145C39.506 56.7073 39.7845 57.5398 40.462 58.1249C40.8495 58.4595 41.4918 58.896 42.1311 59.305L39.5372 58.1851L41.3108 60.4824L41.9045 60.0241C41.3108 60.4824 41.3109 60.4826 41.3111 60.4828L41.3114 60.4832L41.3121 60.4842L41.3142 60.4869L41.3205 60.4949L41.3414 60.5211C41.359 60.5431 41.384 60.5739 41.4161 60.6124C41.4804 60.6893 41.5733 60.7974 41.6931 60.9285C41.9324 61.1902 42.2808 61.5456 42.7236 61.928C43.6027 62.6871 44.8878 63.582 46.4581 64.034C47.7867 64.4164 48.9183 64.627 49.7639 64.743L51.5412 64.9868L50.4663 63.5506C49.9877 62.9111 49.6293 62.0945 49.4796 61.175C49.3957 60.6595 49.4781 60.0115 49.6963 59.2829C49.9117 58.5638 50.2421 57.8224 50.5956 57.1443C50.9478 56.4686 51.3146 55.8716 51.594 55.4428C51.599 55.435 51.604 55.4273 51.609 55.4197C51.625 55.4332 51.6412 55.447 51.6577 55.461C52.0646 55.808 52.61 56.2966 53.1667 56.8647C53.7253 57.4349 54.2831 58.0728 54.7232 58.7179C55.1697 59.3725 55.4584 59.982 55.5428 60.5005C55.7153 61.5603 55.5759 62.543 55.231 63.313L54.6253 64.6647L56.0734 64.3528C56.4905 64.2629 56.9183 64.1576 57.3475 64.034C58.9179 63.582 60.203 62.6871 61.0821 61.928C61.5249 61.5456 61.8733 61.1902 62.1125 60.9285C62.2323 60.7974 62.3253 60.6893 62.3895 60.6124C62.4217 60.5739 62.4467 60.5431 62.4643 60.5211L62.4852 60.4949L62.4914 60.4869L62.4935 60.4842L62.4943 60.4832L62.4946 60.4828C62.4947 60.4826 62.4949 60.4824 61.9012 60.0241Z" fill="url(#paint2_linear_107_54)" fill-opacity="0.8"/>
<path d="M61.9012 60.0241L62.4949 60.4824L64.2685 58.1851L62.4152 58.9853C63.308 58.153 64.1437 56.9548 64.5363 55.2596C65.0611 52.9938 64.532 50.9719 63.8956 49.5431C63.5764 48.8265 63.2256 48.2479 62.9532 47.8467C62.8168 47.6457 62.6992 47.488 62.614 47.3785C62.5713 47.3237 62.5367 47.2808 62.5117 47.2506C62.4993 47.2355 62.4892 47.2235 62.4817 47.2147L62.4726 47.2039L62.4695 47.2003L62.4683 47.199L62.4679 47.1984C62.4677 47.1982 62.4675 47.198 61.9012 47.6898L62.4675 47.198L60.6328 45.0855L61.1648 47.832L61.1649 47.8321L61.1649 47.8323L61.1649 47.8323L61.1649 47.8324L61.1654 47.8348L61.1677 47.8473L61.1772 47.9002C61.1855 47.9472 61.1971 48.0163 61.2102 48.1016C61.2364 48.2732 61.2675 48.5057 61.2881 48.7533C61.3089 49.0041 61.3173 49.2528 61.3038 49.462C61.2896 49.6823 61.2557 49.7716 61.2524 49.7802C61.2522 49.7807 61.2521 49.7809 61.2522 49.7808C61.0603 50.1122 60.8287 50.3121 60.6585 50.3908C60.5778 50.428 60.532 50.429 60.5186 50.4279C60.5132 50.4275 60.5066 50.4282 60.4869 50.4113C60.3431 50.2871 60.1611 50.0104 60.0134 49.6116C59.8705 49.2257 59.7945 48.8188 59.7945 48.5121C59.7945 48.3887 59.8386 48.149 59.9263 47.7105L59.9302 47.6912C60.0401 47.1414 60.1889 46.3976 60.214 45.6303C60.2394 44.8556 60.143 43.9787 59.6936 43.2025L59.0445 43.5783L59.6936 43.2025C59.5245 42.9104 59.2368 42.5816 58.9189 42.2563C58.5886 41.9183 58.1793 41.5381 57.7258 41.138C56.8181 40.3371 55.705 39.4314 54.6296 38.5835C53.5526 37.7344 52.5066 36.9376 51.7302 36.3535C51.3419 36.0614 51.0206 35.8221 50.7963 35.6557C50.6841 35.5726 50.5962 35.5076 50.5361 35.4633L50.4675 35.4128L50.4497 35.3997L50.4451 35.3964L50.444 35.3955L50.4436 35.3953C50.4435 35.3952 50.4435 35.3952 50 36L50.4435 35.3952L48.5455 34.0034L49.2883 36.2367L49.2883 36.2367L49.2883 36.2367L49.2884 36.237L49.2891 36.2389L49.2918 36.2471L49.303 36.2815C49.313 36.3121 49.3279 36.3579 49.3469 36.4174C49.3849 36.5364 49.4395 36.7101 49.5053 36.9266C49.6368 37.3599 49.8121 37.9628 49.9872 38.6405C50.3432 40.0187 50.6767 41.6265 50.6767 42.756C50.6767 43.7929 50.3014 44.0369 50.1106 44.1029C49.8223 44.2024 49.3815 44.1104 49.0602 43.833C48.6821 43.5064 48.5135 43.1994 48.4365 42.9999C48.3972 42.898 48.38 42.8195 48.3726 42.7749C48.3698 42.7578 48.3684 42.7457 48.3678 42.7394L48.3678 40.5572L47.0241 42.2977L47.6178 42.756C47.0241 42.2977 47.024 42.2979 47.0239 42.298L47.0236 42.2984L47.0229 42.2993L47.021 42.3018L47.0152 42.3095L46.9956 42.3354C46.9792 42.3574 46.9562 42.3886 46.9275 42.4284C46.8702 42.5079 46.7901 42.6221 46.6948 42.7661C46.5046 43.0535 46.2519 43.4628 45.9987 43.9546C45.5008 44.9221 44.9634 46.2815 44.9634 47.6898C44.9634 49.0223 45.2212 49.9534 45.5089 50.5746C45.6522 50.884 45.8007 51.1117 45.9231 51.2702C45.933 51.283 45.9426 51.2952 45.9521 51.3071C45.951 51.3747 45.9396 51.4422 45.9142 51.5002C45.8899 51.5557 45.8414 51.6319 45.7049 51.7046C45.5555 51.7842 45.2716 51.8735 44.7611 51.8735C44.4927 51.8735 44.1854 51.7521 43.942 51.5419C43.6909 51.325 43.6067 51.1046 43.6067 50.9789V48.5121V47.2149L42.4825 47.8621L42.8567 48.5121C42.4825 47.8621 42.4823 47.8622 42.482 47.8623L42.4815 47.8626L42.4803 47.8633L42.4771 47.8652L42.4676 47.8708L42.4366 47.8893C42.4109 47.9048 42.3751 47.9268 42.3308 47.9551C42.2422 48.0115 42.1189 48.0933 41.9722 48.1988C41.6803 48.4089 41.2894 48.718 40.896 49.1143C40.1277 49.8884 39.25 51.0973 39.25 52.6235L39.25 52.6715C39.25 53.8658 39.25 54.9385 39.3768 55.8145C39.506 56.7073 39.7845 57.5398 40.462 58.1249C40.8495 58.4595 41.4918 58.896 42.1311 59.305L39.5372 58.1851L41.3108 60.4824L41.9045 60.0241C41.3108 60.4824 41.3109 60.4826 41.3111 60.4828L41.3114 60.4832L41.3121 60.4842L41.3142 60.4869L41.3205 60.4949L41.3414 60.5211C41.359 60.5431 41.384 60.5739 41.4161 60.6124C41.4804 60.6893 41.5733 60.7974 41.6931 60.9285C41.9324 61.1902 42.2808 61.5456 42.7236 61.928C43.6027 62.6871 44.8878 63.582 46.4581 64.034C47.7867 64.4164 48.9183 64.627 49.7639 64.743L51.5412 64.9868L50.4663 63.5506C49.9877 62.9111 49.6293 62.0945 49.4796 61.175C49.3957 60.6595 49.4781 60.0115 49.6963 59.2829C49.9117 58.5638 50.2421 57.8224 50.5956 57.1443C50.9478 56.4686 51.3146 55.8716 51.594 55.4428C51.599 55.435 51.604 55.4273 51.609 55.4197C51.625 55.4332 51.6412 55.447 51.6577 55.461C52.0646 55.808 52.61 56.2966 53.1667 56.8647C53.7253 57.4349 54.2831 58.0728 54.7232 58.7179C55.1697 59.3725 55.4584 59.982 55.5428 60.5005C55.7153 61.5603 55.5759 62.543 55.231 63.313L54.6253 64.6647L56.0734 64.3528C56.4905 64.2629 56.9183 64.1576 57.3475 64.034C58.9179 63.582 60.203 62.6871 61.0821 61.928C61.5249 61.5456 61.8733 61.1902 62.1125 60.9285C62.2323 60.7974 62.3253 60.6893 62.3895 60.6124C62.4217 60.5739 62.4467 60.5431 62.4643 60.5211L62.4852 60.4949L62.4914 60.4869L62.4935 60.4842L62.4943 60.4832L62.4946 60.4828C62.4947 60.4826 62.4949 60.4824 61.9012 60.0241Z" stroke="black" stroke-width="1.5"/>
</g>
<defs>
<radialGradient id="paint0_radial_107_54" cx="0" cy="0" r="1" gradientUnits="userSpaceOnUse" gradientTransform="translate(32 32) rotate(90) scale(32)">
<stop stop-color="white" stop-opacity="0.3"/>
<stop offset="1" stop-color="white" stop-opacity="0"/>
</radialGradient>
<radialGradient id="paint1_radial_107_54" cx="0" cy="0" r="1" gradientUnits="userSpaceOnUse" gradientTransform="translate(32 32) rotate(90) scale(30.5 32.3625)">
<stop stop-color="#AAAAAA"/>
<stop offset="1" stop-color="#666666"/>
</radialGradient>
<linearGradient id="paint2_linear_107_54" x1="49.7705" y1="37" x2="53.6937" y2="85.7898" gradientUnits="userSpaceOnUse">
<stop stop-color="#FA9A43"/>
<stop offset="0.323575" stop-color="#F14949"/>
<stop offset="1" stop-color="#5B12A4"/>
</linearGradient>
<clipPath id="clip0_107_54">
<rect width="64" height="64" fill="white"/>
</clipPath>
</defs>
</svg>
