<svg width="22" height="20" viewBox="0 0 22 20" fill="none" xmlns="http://www.w3.org/2000/svg">
<path fill-rule="evenodd" clip-rule="evenodd" d="M11.7506 5.35504L11.4507 5.94651C11.2034 6.43445 10.4974 6.43446 10.2501 5.94654L9.95069 5.35606L9.94602 5.34705C9.94159 5.33859 9.93404 5.32432 9.92345 5.30476C9.90226 5.26562 9.86896 5.20548 9.82407 5.12843C9.73407 4.97397 9.59866 4.75358 9.42204 4.49936C9.06413 3.9842 8.55907 3.3622 7.94497 2.86342C7.32902 2.36313 6.6645 2.03545 5.97164 1.99134C5.30664 1.949 4.46611 2.1581 3.4511 3.01615C2.45866 3.85513 2.0958 4.69862 2.02652 5.47319C1.95421 6.28153 2.19293 7.12718 2.60581 7.94173C3.01639 8.75172 3.56733 9.46771 4.02736 9.9891C4.25519 10.2473 4.45554 10.452 4.5969 10.5903C4.66746 10.6593 4.72297 10.7114 4.75944 10.7451C4.77767 10.7619 4.7911 10.774 4.79925 10.7814L4.80726 10.7885L4.80841 10.7896L4.82935 10.8079L10.3926 16.2952C10.6464 16.5456 11.0543 16.5456 11.3081 16.2952L18.2202 9.47749L18.247 9.45488L18.2483 9.45375L18.2508 9.45158L18.2763 9.42889C18.3008 9.40672 18.3397 9.37081 18.3896 9.32213C18.4897 9.22447 18.6324 9.0772 18.7921 8.88811C19.116 8.5047 19.4869 7.97646 19.7285 7.36385C19.9673 6.75803 20.0702 6.09637 19.9066 5.4047C19.744 4.71756 19.2946 3.89942 18.2497 3.01617C17.2346 2.15811 16.394 1.949 15.729 1.99134C15.0361 2.03545 14.3716 2.36312 13.7556 2.86341C13.1416 3.36219 12.6366 3.98417 12.2787 4.49933C12.1021 4.75355 11.9667 4.97394 11.8767 5.12839C11.8318 5.20545 11.7985 5.26558 11.7773 5.30473C11.7667 5.32428 11.7592 5.33855 11.7548 5.34701L11.7506 5.35504ZM3.44433 12.2506L3.44303 12.2494C3.42861 12.2365 3.4087 12.2184 3.38383 12.1955C3.3341 12.1496 3.26443 12.0841 3.17899 12.0005C3.00836 11.8336 2.77348 11.5934 2.50841 11.293C1.98264 10.6971 1.31707 9.8406 0.804758 8.82991C0.294761 7.82377 -0.0957605 6.60051 0.0206911 5.29864C0.140163 3.963 0.784059 2.65499 2.14073 1.50811C3.47484 0.380301 4.81567 -0.0725116 6.10133 0.00933642C7.35914 0.089411 8.4146 0.672009 9.22498 1.33022C9.89837 1.87716 10.4449 2.51002 10.8503 3.05343C11.2558 2.51002 11.8023 1.87717 12.4756 1.33023C13.286 0.672008 14.3414 0.0894093 15.5993 0.00933508C16.8849 -0.0725117 18.2258 0.380294 19.56 1.50808C20.8644 2.6107 21.5896 3.77855 21.8675 4.95336C22.1444 6.12363 21.9536 7.19987 21.6052 8.08371C21.2594 8.96076 20.7493 9.67395 20.3391 10.1596C20.1317 10.405 19.9441 10.5991 19.8056 10.7342C19.7362 10.8019 19.6787 10.8552 19.6367 10.8932C19.6201 10.9082 19.6058 10.9209 19.5942 10.931L11.3081 19.1041C11.0543 19.3544 10.6464 19.3544 10.3926 19.1041L3.44433 12.2506Z" fill="#AAAAAA"/>
</svg>
