<svg width="24" height="24" viewBox="0 0 24 24" fill="none" xmlns="http://www.w3.org/2000/svg">
<path d="M10.627 14.836C10.5311 14.836 10.4535 14.7584 10.4535 14.6625C10.4581 13.8573 10.5372 13.2167 10.6908 12.7407C10.8491 12.2647 11.0725 11.8821 11.3611 11.5929C11.6497 11.2993 12.0012 11.0302 12.4154 10.7855C12.6994 10.6165 12.9531 10.4318 13.1765 10.2316C13.4046 10.027 13.5838 9.80013 13.7141 9.551C13.8445 9.29743 13.9096 9.01494 13.9096 8.70353C13.9096 8.35208 13.8235 8.04735 13.6513 7.78932C13.4791 7.5313 13.2463 7.33111 12.9531 7.18875C12.6645 7.04639 12.341 6.97521 11.9825 6.97521C11.6521 6.97521 11.3379 7.04417 11.04 7.18208C10.7467 7.31554 10.5023 7.52018 10.3068 7.796C10.153 8.01467 10.0537 8.28101 10.0087 8.59501C9.98987 8.72634 9.88185 8.83032 9.74917 8.83032H7.75698C7.61621 8.83032 7.50251 8.71398 7.51326 8.57363C7.56939 7.84088 7.77909 7.2191 8.14236 6.70829C8.55198 6.13886 9.09193 5.71179 9.76222 5.42707C10.4372 5.14236 11.1819 5 11.9965 5C12.8856 5 13.6676 5.14903 14.3425 5.44709C15.0221 5.74515 15.5504 6.17 15.9275 6.72164C16.3092 7.26883 16.5 7.91834 16.5 8.67016C16.5 9.17731 16.4139 9.63108 16.2417 10.0315C16.0741 10.4318 15.8344 10.7877 15.5225 11.0991C15.2106 11.4106 14.8406 11.6886 14.4123 11.9333C14.0353 12.1557 13.7258 12.387 13.4837 12.6273C13.2463 12.8675 13.0694 13.15 12.9531 13.4747C12.8413 13.795 12.7832 14.191 12.7785 14.6625C12.7785 14.7584 12.7008 14.836 12.605 14.836H10.627Z" fill="#AAAAAA"/>
<path d="M11.6683 19C11.2494 19 10.8887 18.8576 10.5861 18.5729C10.2836 18.2882 10.1323 17.9412 10.1323 17.5319C10.1323 17.1316 10.2836 16.789 10.5861 16.5043C10.8887 16.2196 11.2494 16.0772 11.6683 16.0772C12.0826 16.0772 12.441 16.2196 12.7436 16.5043C13.0508 16.789 13.2044 17.1316 13.2044 17.5319C13.2044 17.8033 13.1323 18.0502 12.988 18.2726C12.8483 18.4951 12.6621 18.673 12.4294 18.8065C12.2013 18.9355 11.9476 19 11.6683 19Z" fill="#AAAAAA"/>
<path fill-rule="evenodd" clip-rule="evenodd" d="M12 24C18.6274 24 24 18.6274 24 12C24 5.37258 18.6274 0 12 0C5.37258 0 0 5.37258 0 12C0 18.6274 5.37258 24 12 24ZM12 22C17.5228 22 22 17.5228 22 12C22 6.47715 17.5228 2 12 2C6.47715 2 2 6.47715 2 12C2 17.5228 6.47715 22 12 22Z" fill="#AAAAAA"/>
</svg>
