<svg width="20" height="20" viewBox="0 0 20 20" fill="none" xmlns="http://www.w3.org/2000/svg">
<path d="M15.9484 11.9986L19.2532 7.37085C20.4027 5.76131 20.2074 3.5752 18.7901 2.18595C17.3728 0.796706 15.1425 0.605292 13.5004 1.73197L8.86337 4.91361L15.9484 11.9986Z" fill="white"/>
<path d="M4.66971 7.79102L3.38659 8.67142C1.62122 9.8827 1.39968 12.3627 2.92343 13.8563L6.88389 17.7383C8.40764 19.2319 10.9378 19.0147 12.1736 17.2843L13.0024 16.1237L10.7655 13.8868C9.67166 14.4646 8.27786 14.3007 7.35412 13.3953C6.41609 12.4758 6.25823 11.0812 6.88055 10.0019L4.66971 7.79102Z" fill="white"/>
<path d="M5.72025 18.1993L2.45286 14.9967L0.340665 17.067C-0.387067 17.7803 0.12834 19 1.15751 19L4.42491 19C4.73128 19 5.02511 18.8807 5.24176 18.6684L5.72025 18.1993Z" fill="white"/>
<path d="M1.70711 1.29289C1.31658 1.68342 1.31658 2.31658 1.70711 2.70711L17.9706 18.9706C18.3611 19.3611 18.9943 19.3611 19.3848 18.9706C19.7753 18.58 19.7753 17.9469 19.3848 17.5563L3.12132 1.29289C2.7308 0.902369 2.09763 0.902369 1.70711 1.29289Z" fill="white"/>
</svg>
