<svg width="20" height="20" viewBox="0 0 20 20" fill="none" xmlns="http://www.w3.org/2000/svg">
<path fill-rule="evenodd" clip-rule="evenodd" d="M13.5004 1.73197C15.1425 0.605292 17.3728 0.796706 18.7901 2.18595C20.2074 3.5752 20.4027 5.76131 19.2532 7.37085L12.1736 17.2843C10.9378 19.0147 8.40764 19.2319 6.88389 17.7383L2.92343 13.8563C1.39968 12.3627 1.62122 9.8827 3.38659 8.67142L13.5004 1.73197ZM11.4384 13.3953C10.3105 14.5008 8.48196 14.5008 7.35412 13.3953C6.22629 12.2898 6.22629 10.4974 7.35412 9.39194C8.48196 8.28645 10.3105 8.28645 11.4384 9.39194C12.5662 10.4974 12.5662 12.2898 11.4384 13.3953Z" fill="white"/>
<path d="M5.72025 18.1993L2.45286 14.9967L0.340665 17.067C-0.387067 17.7803 0.12834 19 1.15751 19L4.42491 19C4.73128 19 5.02511 18.8807 5.24176 18.6684L5.72025 18.1993Z" fill="white"/>
</svg>
