<svg width="20" height="20" viewBox="0 0 20 20" fill="none" xmlns="http://www.w3.org/2000/svg">
<g clip-path="url(#clip0_4002_37)">
<path d="M2 1.5H13C13.2761 1.5 13.5 1.72386 13.5 2V2.25C13.5 2.66421 13.8358 3 14.25 3C14.6642 3 15 2.66421 15 2.25V2C15 0.895431 14.1046 0 13 0H2C0.895431 0 0 0.89543 0 2V13C0 14.1046 0.895431 15 2 15H2.25C2.66421 15 3 14.6642 3 14.25C3 13.8358 2.66421 13.5 2.25 13.5H2C1.72386 13.5 1.5 13.2761 1.5 13V2C1.5 1.72386 1.72386 1.5 2 1.5Z" fill="white"/>
<path fill-rule="evenodd" clip-rule="evenodd" d="M5 7C5 5.89543 5.89543 5 7 5H18C19.1046 5 20 5.89543 20 7V18C20 19.1046 19.1046 20 18 20H7C5.89543 20 5 19.1046 5 18V7ZM7 6.5H18C18.2761 6.5 18.5 6.72386 18.5 7V18C18.5 18.2761 18.2761 18.5 18 18.5H7C6.72386 18.5 6.5 18.2761 6.5 18V7C6.5 6.72386 6.72386 6.5 7 6.5Z" fill="white"/>
</g>
<defs>
<clipPath id="clip0_4002_37">
<rect width="20" height="20" fill="white"/>
</clipPath>
</defs>
</svg>
