<svg width="24" height="22" viewBox="0 0 24 22" fill="none" xmlns="http://www.w3.org/2000/svg">
<path fill-rule="evenodd" clip-rule="evenodd" d="M23.5881 8.47872L12.6018 0.201315C12.2455 -0.0671053 11.7545 -0.067105 11.3982 0.201316L0.411896 8.47872C-0.0347535 8.81524 -0.133503 9.46314 0.191333 9.92585C0.51617 10.3886 1.14158 10.4909 1.58823 10.1543L3.0001 9.09061L4.0001 19.7479C4.0001 20.8525 4.89554 21.7479 6.00011 21.7479H18C19.1046 21.7479 20 20.8525 20 19.7479L21 9.09068L22.4118 10.1543C22.8584 10.4909 23.4838 10.3886 23.8087 9.92585C24.1335 9.46314 24.0348 8.81524 23.5881 8.47872ZM19 7.58384L12.6017 2.76323C12.2455 2.4948 11.7545 2.49481 11.3983 2.76323L5.00009 7.58376L6.00009 18.676C6.00009 19.2283 6.44781 19.676 7.00009 19.676H17C17.5523 19.676 18 19.2283 18 18.676L19 7.58384Z" fill="#AAAAAA"/>
</svg>
