<svg width="24" height="23" viewBox="0 0 24 23" fill="none" xmlns="http://www.w3.org/2000/svg">
<path d="M12.8823 0.405304C12.3564 0.0227762 11.6438 0.0227762 11.1178 0.405304L0.411899 8.19142C-0.0347537 8.51626 -0.133504 9.14168 0.191334 9.58833C0.516173 10.035 1.14159 10.1337 1.58824 9.8089L11.1178 2.8783C11.6438 2.49577 12.3564 2.49577 12.8823 2.8783L22.4119 9.8089C22.8586 10.1337 23.484 10.035 23.8088 9.58833C24.1336 9.14168 24.0349 8.51626 23.5882 8.19142L12.8823 0.405304Z" fill="#AAAAAA"/>
<path d="M4.4 10.7C4.14819 10.8888 4 11.1852 4 11.5V21C4 22.1046 4.89543 23 6 23H18C19.1046 23 20 22.1046 20 21V11.5C20 11.1852 19.8518 10.8888 19.6 10.7L18.4 9.79999C18.2352 9.67638 18 9.79398 18 9.99999V20C18 20.5523 17.5523 21 17 21H7C6.44771 21 6 20.5523 6 20V9.99999C6 9.79398 5.76481 9.67638 5.6 9.79999L4.4 10.7Z" fill="#AAAAAA"/>
</svg>
