<svg width="10" height="16" viewBox="0 0 10 16" fill="none" xmlns="http://www.w3.org/2000/svg">
<g clip-path="url(#clip0_367_1817)">
<path fill-rule="evenodd" clip-rule="evenodd" d="M7.06473 7.26753C8.81924 6.65104 10.0285 5.28879 9.99949 3.72711C9.96037 1.62387 7.69013 -0.0443238 4.92918 0.000898112C2.16823 0.04612 -0.0386036 1.78764 0.000512054 3.89088C0.029556 5.45256 1.28876 6.77438 3.06514 7.33304L3.20203 14.694C3.20605 14.9102 3.2871 15.1188 3.43231 15.2852L3.90441 15.8276C4.08355 16.033 4.40441 16.0586 4.61654 15.8843L6.95866 13.9592C7.01254 13.9151 7.04121 13.8548 7.04495 13.7934C7.04944 13.7196 7.01825 13.6443 6.95186 13.5933L5.66373 12.607L6.9144 11.5791C6.97501 11.5293 7.00398 11.4591 7.00074 11.3898C6.99805 11.3239 6.96705 11.2588 6.90759 11.2133L5.61946 10.227L7.00867 9.0852C7.06495 9.03894 7.09642 8.97146 7.0951 8.9008L7.06473 7.26753ZM6.48214 2.8324C6.49681 3.62103 5.83738 4.27143 5.00885 4.28501C4.18032 4.29858 3.49711 3.67016 3.48245 2.88154C3.46778 2.09291 4.12721 1.44251 4.95574 1.42893C5.78426 1.41536 6.46747 2.04378 6.48214 2.8324Z" fill="white"/>
</g>
<defs>
<clipPath id="clip0_367_1817">
<rect width="10" height="16" fill="white"/>
</clipPath>
</defs>
</svg>
