<svg width="24" height="24" viewBox="0 0 24 24" fill="none" xmlns="http://www.w3.org/2000/svg">
<path fill-rule="evenodd" clip-rule="evenodd" d="M22.8002 12.0002C22.8002 17.9649 17.9649 22.8002 12.0002 22.8002C6.0355 22.8002 1.2002 17.9649 1.2002 12.0002C1.2002 6.03553 6.0355 1.2002 12.0002 1.2002C17.9649 1.2002 22.8002 6.03553 22.8002 12.0002ZM21.0002 12.0002C21.0002 16.9708 16.9707 21.0002 12.0002 21.0002C7.02969 21.0002 3.0002 16.9708 3.0002 12.0002C3.0002 7.02961 7.02969 3.0002 12.0002 3.0002C16.9707 3.0002 21.0002 7.02961 21.0002 12.0002Z" fill="white"/>
<rect x="11" y="5" width="2" height="8" rx="1" fill="white"/>
<rect x="11" y="11" width="6" height="2" rx="1" fill="white"/>
</svg>
