<svg width="14" height="20" viewBox="0 0 14 20" fill="none" xmlns="http://www.w3.org/2000/svg">
<path fill-rule="evenodd" clip-rule="evenodd" d="M13.9211 7.71733C14.1194 7.45376 13.921 7.0876 13.5799 7.0876H8.66235L9.6442 0.953049C9.81526 0.125008 8.6907 -0.353895 8.15325 0.318065L0.0861641 11.5986C-0.123564 11.8608 0.07342 12.2377 0.420148 12.2377H5.30747L4.28387 19.0603C4.12666 19.8963 5.27231 20.3544 5.79207 19.6633L13.9211 7.71733Z" fill="url(#paint0_linear_6273_8209)"/>
<path fill-rule="evenodd" clip-rule="evenodd" d="M13.9211 7.71733C14.1194 7.45376 13.921 7.0876 13.5799 7.0876H8.66235L9.6442 0.953049C9.81526 0.125008 8.6907 -0.353895 8.15325 0.318065L0.0861641 11.5986C-0.123564 11.8608 0.07342 12.2377 0.420148 12.2377H5.30747L4.28387 19.0603C4.12666 19.8963 5.27231 20.3544 5.79207 19.6633L13.9211 7.71733Z" fill="white"/>
<defs>
<linearGradient id="paint0_linear_6273_8209" x1="4.55" y1="1.37931" x2="10.0011" y2="18.3238" gradientUnits="userSpaceOnUse">
<stop offset="0.078125" stop-color="#FFD12F"/>
<stop offset="0.860784" stop-color="#FF9F2F"/>
</linearGradient>
</defs>
</svg>
