<svg width="16" height="16" viewBox="0 0 16 16" fill="none" xmlns="http://www.w3.org/2000/svg">
<path d="M7.74752 13.8406C7.74752 13.8406 7.74765 13.8407 8 13.4553C8.25235 13.8407 8.25248 13.8406 8.25248 13.8406L8 14L7.74752 13.8406Z" fill="black"/>
<path d="M7.74752 13.8406L8 13.4553L8.25248 13.8406L8.25543 13.8388L8.2632 13.8338L8.29235 13.8152C8.31768 13.799 8.35462 13.7751 8.40197 13.7442C8.49667 13.6824 8.63307 13.5922 8.80157 13.4776C9.13837 13.2487 9.60444 12.9218 10.1225 12.5294C11.1512 11.7502 12.4144 10.6907 13.2684 9.61269C14.5847 7.95098 14.8998 6.28707 14.9756 5.57634C14.9917 5.45514 15 5.33205 15 5.20748C15 3.37231 13.2584 2 11.2667 2C10.384 2 9.58291 2.47544 8.96793 3.03404C8.59243 3.37512 8.26273 3.76812 8 4.15624C7.73727 3.76812 7.40757 3.37512 7.03207 3.03404C6.41709 2.47544 5.61602 2 4.73333 2C2.74155 2 1 3.37231 1 5.20748C1 5.33204 1.00827 5.45514 1.0244 5.57633C1.10024 6.28706 1.41534 7.95097 2.73164 9.61269C3.58558 10.6907 4.8488 11.7502 5.87746 12.5294C6.39556 12.9218 6.86163 13.2487 7.19843 13.4776C7.36693 13.5922 7.50333 13.6824 7.59803 13.7442C7.64538 13.7751 7.68232 13.799 7.70765 13.8152L7.7368 13.8338L7.74457 13.8388L7.74752 13.8406Z" fill="black"/>
</svg>
