<svg width="20" height="20" viewBox="0 0 20 20" fill="none" xmlns="http://www.w3.org/2000/svg">
<g clip-path="url(#clip0_2210_5364)">
<path d="M16.5304 10.8707C16.1697 11.2314 15.5667 11.2131 15.1835 10.8299C14.8003 10.4467 14.782 9.84367 15.1427 9.48301L16.2311 8.39462C17.4333 7.19241 17.3724 5.18234 16.095 3.90499C14.8177 2.62765 12.8076 2.56673 11.6054 3.76894L8.99323 6.38109C7.79103 7.58329 7.85194 9.59337 9.12928 10.8707C9.39686 11.1383 9.63873 11.2946 9.88167 11.3802C10.3502 11.5453 10.6787 12.0967 10.3441 12.4313L10.0535 12.7219C9.82041 12.955 9.47205 13.0417 9.13995 12.9482C8.65128 12.8107 8.33312 12.6867 7.82321 12.1768C5.77946 10.133 5.682 6.91692 7.60553 4.99339L10.2177 2.38124C12.1412 0.457707 15.3573 0.555165 17.4011 2.59892C19.4448 4.64267 19.5423 7.85879 17.6188 9.78232L16.5304 10.8707Z" fill="white"/>
<path d="M3.46963 9.12928C3.83029 8.76862 4.43332 8.7869 4.81652 9.1701C5.19972 9.5533 5.218 10.1563 4.85734 10.517L3.76894 11.6054C2.56673 12.8076 2.62765 14.8177 3.90499 16.095C5.18234 17.3724 7.19241 17.4333 8.39462 16.2311L11.0068 13.6189C12.209 12.4167 12.1481 10.4066 10.8707 9.12928C10.6031 8.86171 10.3613 8.70537 10.1183 8.61977C9.6498 8.45468 9.32134 7.90325 9.6559 7.56869L9.94647 7.27812C10.1796 7.04501 10.528 6.95829 10.86 7.05175C11.3487 7.18927 11.6669 7.3133 12.1768 7.82321C14.2205 9.86696 14.318 13.0831 12.3945 15.0066L9.78232 17.6188C7.85879 19.5423 4.64267 19.4448 2.59892 17.4011C0.555165 15.3573 0.457707 12.1412 2.38124 10.2177L3.46963 9.12928Z" fill="white"/>
<path d="M16.5304 10.8707C16.1697 11.2314 15.5667 11.2131 15.1835 10.8299C14.8003 10.4467 14.782 9.84367 15.1427 9.48301L16.2311 8.39462C17.4333 7.19241 17.3724 5.18234 16.095 3.90499C14.8177 2.62765 12.8076 2.56673 11.6054 3.76894L8.99323 6.38109C7.79103 7.58329 7.85194 9.59337 9.12928 10.8707C9.39686 11.1383 9.63873 11.2946 9.88167 11.3802C10.3502 11.5453 10.6787 12.0967 10.3441 12.4313L10.0535 12.7219C9.82041 12.955 9.47205 13.0417 9.13995 12.9482C8.65128 12.8107 8.33312 12.6867 7.82321 12.1768C5.77946 10.133 5.682 6.91692 7.60553 4.99339L10.2177 2.38124C12.1412 0.457707 15.3573 0.555165 17.4011 2.59892C19.4448 4.64267 19.5423 7.85879 17.6188 9.78232L16.5304 10.8707Z" stroke="#222222" stroke-width="0.25"/>
<path d="M3.46963 9.12928C3.83029 8.76862 4.43332 8.7869 4.81652 9.1701C5.19972 9.5533 5.218 10.1563 4.85734 10.517L3.76894 11.6054C2.56673 12.8076 2.62765 14.8177 3.90499 16.095C5.18234 17.3724 7.19241 17.4333 8.39462 16.2311L11.0068 13.6189C12.209 12.4167 12.1481 10.4066 10.8707 9.12928C10.6031 8.86171 10.3613 8.70537 10.1183 8.61977C9.6498 8.45468 9.32134 7.90325 9.6559 7.56869L9.94647 7.27812C10.1796 7.04501 10.528 6.95829 10.86 7.05175C11.3487 7.18927 11.6669 7.3133 12.1768 7.82321C14.2205 9.86696 14.318 13.0831 12.3945 15.0066L9.78232 17.6188C7.85879 19.5423 4.64267 19.4448 2.59892 17.4011C0.555165 15.3573 0.457707 12.1412 2.38124 10.2177L3.46963 9.12928Z" stroke="#222222" stroke-width="0.25"/>
</g>
<defs>
<clipPath id="clip0_2210_5364">
<rect width="20" height="20" fill="white"/>
</clipPath>
</defs>
</svg>
