<svg width="10" height="16" viewBox="0 0 10 16" fill="none" xmlns="http://www.w3.org/2000/svg">
<path d="M1.75 10.3529C1.33579 10.3529 1 10.669 1 11.0588L1 12.2353C1 14.3145 2.79086 16 5 16C7.20914 16 9 14.3145 9 12.2353V9.41177C9 7.33258 7.20914 5.64706 5 5.64706C4.44882 5.64706 4.20984 5.75198 3.87141 5.94176C3.64141 6.07074 3.5 6.30588 3.5 6.55786L3.5 6.87194C3.5 7.23358 3.97554 7.35408 4.31799 7.19008C4.49555 7.10505 4.71077 7.05882 5 7.05882C6.38071 7.05882 7.5 8.11227 7.5 9.41177L7.5 12.2353C7.5 13.5348 6.38071 14.5882 5 14.5882C3.61929 14.5882 2.5 13.5348 2.5 12.2353V11.0588C2.5 10.669 2.16421 10.3529 1.75 10.3529Z" fill="white"/>
<path d="M8.25 5.64706C8.66421 5.64706 9 5.33102 9 4.94118V3.76471C9 1.68552 7.20914 0 5 0C2.79086 0 1 1.68552 1 3.76471L1 6.58824C1 8.66743 2.79086 10.3529 5 10.3529C5.55118 10.3529 5.79016 10.248 6.12859 10.0582C6.35859 9.92926 6.5 9.69412 6.5 9.44214V9.12806C6.5 8.76642 6.02446 8.64592 5.68201 8.80992C5.50445 8.89495 5.28923 8.94118 5 8.94118C3.61929 8.94118 2.5 7.88773 2.5 6.58824L2.5 3.76471C2.5 2.46521 3.61929 1.41176 5 1.41176C6.38071 1.41176 7.5 2.46521 7.5 3.76471V4.94118C7.5 5.33102 7.83579 5.64706 8.25 5.64706Z" fill="white"/>
</svg>
