<svg width="20" height="20" viewBox="0 0 20 20" fill="none" xmlns="http://www.w3.org/2000/svg">
<path d="M1.875 6.25C2.91053 6.25 3.75 5.41053 3.75 4.375C3.75 3.33947 2.91053 2.5 1.875 2.5C0.839466 2.5 0 3.33947 0 4.375C0 5.41053 0.839466 6.25 1.875 6.25Z" fill="#AAAAAA"/>
<path d="M19.5 4.375C19.5 4.02982 19.2202 3.75 18.875 3.75H6.875C6.52982 3.75 6.25 4.02982 6.25 4.375C6.25 4.72018 6.52982 5 6.875 5H18.875C19.2202 5 19.5 4.72018 19.5 4.375Z" fill="#AAAAAA"/>
<path d="M19.5 10.625C19.5 10.2798 19.2202 10 18.875 10H6.875C6.52982 10 6.25 10.2798 6.25 10.625C6.25 10.9702 6.52982 11.25 6.875 11.25H18.875C19.2202 11.25 19.5 10.9702 19.5 10.625Z" fill="#AAAAAA"/>
<path d="M6.25 16.875C6.25 16.5298 6.52982 16.25 6.875 16.25H18.875C19.2202 16.25 19.5 16.5298 19.5 16.875C19.5 17.2202 19.2202 17.5 18.875 17.5H6.875C6.52982 17.5 6.25 17.2202 6.25 16.875Z" fill="#AAAAAA"/>
<path d="M3.75 10.625C3.75 11.6605 2.91053 12.5 1.875 12.5C0.839466 12.5 0 11.6605 0 10.625C0 9.58947 0.839466 8.75 1.875 8.75C2.91053 8.75 3.75 9.58947 3.75 10.625Z" fill="#AAAAAA"/>
<path d="M1.875 18.75C2.91053 18.75 3.75 17.9105 3.75 16.875C3.75 15.8395 2.91053 15 1.875 15C0.839466 15 0 15.8395 0 16.875C0 17.9105 0.839466 18.75 1.875 18.75Z" fill="#AAAAAA"/>
</svg>
