<svg width="60" height="60" viewBox="0 0 60 60" fill="none" xmlns="http://www.w3.org/2000/svg">
<g clip-path="url(#clip0_2898_24688)">
<path d="M23.9102 16.5557C29.2066 15.6616 33.4162 16.5675 36.6445 18.2939C33.7903 17.5 30.3876 17.4521 26.5088 18.5625C17.1058 21.5932 13.971 30.8093 15.3145 41.0146C17.6592 53.8023 30.1979 58.3858 36.4473 59.3057C34.3706 59.7605 32.2132 60 30 60C23.925 60 18.2709 58.1948 13.5469 55.0908C12.3744 53.4137 11.8486 52.4899 11.4648 51.8164C11.2747 51.4827 11.1191 51.2099 10.9375 50.9375C9.14802 48.0595 8.21201 44.3629 8.00781 40.0195C7.37535 26.5611 15.5545 17.9663 23.9102 16.5557ZM30 0C46.5685 0 60 13.4315 60 30C60 40.3116 54.7974 49.4078 46.874 54.8076C44.7102 56.2824 42.3434 57.4817 39.8242 58.3545C38.6147 58.1439 37.2747 57.881 36.3311 57.6963C35.8839 57.6088 35.5253 57.5389 35.3125 57.5C29.6058 56.4576 19.4024 52.7804 17.167 40.7227C16.5354 35.8743 16.988 31.4113 18.5898 27.8711C20.1679 24.3834 22.8915 21.7092 27.0449 20.3594C31.8721 19.0444 35.8725 19.6962 38.8438 21.292C38.1124 21.1378 37.3565 21.0576 36.583 21.0576C30.1535 21.0576 24.9405 26.6416 24.9404 33.5303C24.9404 36.2809 25.772 38.8235 27.1797 40.8857C27.1797 40.8857 31.2095 48.4987 42.1797 47.8184C51.9611 47.2117 57.0411 38.4371 57.6465 35.1963C57.961 33.5122 58.125 31.7753 58.125 30C58.125 14.467 45.533 1.875 30 1.875C18.2463 1.8751 8.17682 9.08564 3.97266 19.3242C2.55267 21.1741 1.33 23.2248 0.344727 25.4424C2.54036 11.0369 14.981 0.000124984 30 0ZM24.0449 10.625C33.6947 10.625 42.0489 16.6567 46.0879 25.4395C46.1419 25.5574 46.1006 25.6944 45.998 25.7637C43.5415 20.1316 36.4153 12.5431 23.5977 14.707C14.1945 16.2945 5.46334 25.8199 6.13477 40.1074C6.33273 44.3179 7.91605 48.952 9.66504 52.0576C3.75972 46.6109 0.0470234 38.822 0 30.166C3.3111 18.4849 13.088 10.6251 24.0449 10.625Z" fill="url(#paint0_linear_2898_24688)"/>
</g>
<defs>
<linearGradient id="paint0_linear_2898_24688" x1="30" y1="0" x2="30" y2="60" gradientUnits="userSpaceOnUse">
<stop stop-color="#FFB700"/>
<stop offset="0.49" stop-color="#FFB700"/>
<stop offset="0.5" stop-color="#CB721E"/>
<stop offset="1" stop-color="#FFB700"/>
</linearGradient>
<clipPath id="clip0_2898_24688">
<rect width="60" height="60" fill="white"/>
</clipPath>
</defs>
</svg>
