<svg width="16" height="16" viewBox="0 0 16 16" fill="none" xmlns="http://www.w3.org/2000/svg">
<g clip-path="url(#clip0_888_16682)">
<path d="M9.71919 15.8148C9.16537 15.9361 8.59008 16 7.99986 16C6.37986 16 4.87233 15.5185 3.61258 14.6908C3.29987 14.2435 3.15957 13.9972 3.05722 13.8176C3.00651 13.7286 2.96512 13.656 2.91669 13.5833C2.43948 12.8159 2.18979 11.8301 2.13535 10.6718C1.96669 7.08289 4.1478 4.7911 6.37597 4.41494C7.78838 4.17648 8.91084 4.41797 9.77175 4.87836C9.01062 4.66664 8.10331 4.65391 7.06895 4.95002C4.56149 5.75821 3.72561 8.21575 4.08387 10.9372C4.70913 14.3473 8.05268 15.5695 9.71919 15.8148Z" fill="url(#paint0_linear_888_16682)"/>
<path d="M2.57743 13.882C2.11102 13.0538 1.68866 11.8181 1.63588 10.6953C1.45683 6.88526 3.78519 4.34525 6.29271 3.92192C9.71074 3.34487 11.611 5.36837 12.2661 6.87026C12.2935 6.85178 12.3046 6.81521 12.2901 6.78373C11.2131 4.44167 8.98534 2.83334 6.41206 2.83334C3.49014 2.83334 0.882939 4.92935 0 8.04439C0.0125396 10.3527 1.00267 12.4295 2.57743 13.882Z" fill="url(#paint1_linear_888_16682)"/>
<path d="M12.4998 14.6153C11.9228 15.0086 11.2916 15.3284 10.6198 15.5611C10.2972 15.505 9.93983 15.435 9.6882 15.3857C9.56897 15.3624 9.47343 15.3437 9.41667 15.3333C7.89488 15.0554 5.17399 14.0748 4.5779 10.8594C4.40948 9.56646 4.53009 8.37631 4.95725 7.43226C5.37807 6.5022 6.10431 5.78924 7.21189 5.42928C8.4992 5.07857 9.56596 5.25239 10.3583 5.67796C10.1633 5.63682 9.96166 5.61526 9.75536 5.61526C8.04081 5.61526 6.65088 7.10445 6.65088 8.94146C6.65088 9.67498 6.87249 10.353 7.2479 10.903C7.2479 10.903 8.32252 12.9329 11.2479 12.7515C13.8563 12.5897 15.2109 10.25 15.3723 9.38579C15.4562 8.93667 15.5001 8.47346 15.5001 8C15.5001 3.85786 12.1422 0.5 8.00007 0.5C4.86571 0.5 2.18042 2.4227 1.0593 5.15301C0.680618 5.64633 0.354545 6.19324 0.0917969 6.78462C0.677298 2.94313 3.99498 0 8.00007 0C12.4183 0 16.0001 3.58172 16.0001 8C16.0001 10.7498 14.6127 13.1754 12.4998 14.6153Z" fill="url(#paint2_linear_888_16682)"/>
</g>
<defs>
<linearGradient id="paint0_linear_888_16682" x1="4.99602" y1="6.62779" x2="4.98382" y2="13.7378" gradientUnits="userSpaceOnUse">
<stop offset="0.0297309" stop-color="#F14949"/>
<stop offset="1" stop-color="#AE2B71"/>
</linearGradient>
<linearGradient id="paint1_linear_888_16682" x1="3.90688" y1="3.25112" x2="3.51075" y2="10.3632" gradientUnits="userSpaceOnUse">
<stop stop-color="#FA9A43"/>
<stop offset="1" stop-color="#F14949"/>
</linearGradient>
<linearGradient id="paint2_linear_888_16682" x1="9.49999" y1="15.8333" x2="9.52196" y2="7.58339" gradientUnits="userSpaceOnUse">
<stop stop-color="#5B12A4"/>
<stop offset="1" stop-color="#AE2B71"/>
</linearGradient>
<clipPath id="clip0_888_16682">
<rect width="16" height="16" fill="white"/>
</clipPath>
</defs>
</svg>
