<svg width="48" height="47" viewBox="0 0 48 47" fill="none" xmlns="http://www.w3.org/2000/svg">
<path d="M35.5454 45.0456C42.969 40.9645 48 33.0698 48 24C48 10.7452 37.2548 0 24 0C10.7452 0 0 10.7452 0 24C0 34.8442 7.19216 44.0086 17.0667 46.9833C14.7877 43.5391 6.31345 30.1256 6.37534 21.193C6.43467 12.6284 10.3705 9.56112 11.1939 8.91939C11.2146 8.90325 11.2333 8.88865 11.25 8.87554C14.2527 6.51103 18 6.1875 20.8705 6.95094C21.7788 7.1925 22.632 7.36377 23.4097 7.51989C25.0899 7.85719 26.4178 8.12375 27.1875 8.87554C27.6379 9.31548 27.8497 9.94021 28.0653 10.5761C28.3887 11.5297 28.7205 12.5085 29.8786 12.9264C30.81 13.2624 31.6998 13.3297 32.7648 13.4102C33.907 13.4965 35.2508 13.598 37.0637 14.0628C40.5668 14.9609 41.8894 18.8101 41.8894 18.8101C41.8894 18.8101 42.2826 20.3498 41.5856 20.6981C41.3415 20.82 40.4469 20.6094 39.3872 20.2843C38.851 18.9934 34.8831 18.6818 34.8831 18.6818C34.8831 18.6818 30.2718 18.0403 28.6275 18.2969C27.6588 18.4481 26.7838 18.9081 25.8994 19.373C25.2825 19.6973 24.661 20.0241 24 20.25C22.3914 20.7999 19.816 21.2663 18.3683 21.2663C16.9205 21.2663 17.0652 24.6156 17.4389 25.9953C17.8125 27.375 18.3683 28.6343 19.816 30.6693C22.4199 34.3297 32.8438 42.8611 35.5454 45.0456Z" fill="url(#paint0_linear_549_6414)"/>
<path d="M35.5454 45.0456C42.969 40.9645 48 33.0698 48 24C48 10.7452 37.2548 0 24 0C10.7452 0 0 10.7452 0 24C0 34.8442 7.19216 44.0086 17.0667 46.9833C14.7877 43.5391 6.31345 30.1256 6.37534 21.193C6.43467 12.6284 10.3705 9.56112 11.1939 8.91939C11.2146 8.90325 11.2333 8.88865 11.25 8.87554C14.2527 6.51103 18 6.1875 20.8705 6.95094C21.7788 7.1925 22.632 7.36377 23.4097 7.51989C25.0899 7.85719 26.4178 8.12375 27.1875 8.87554C27.6379 9.31548 27.8497 9.94021 28.0653 10.5761C28.3887 11.5297 28.7205 12.5085 29.8786 12.9264C30.81 13.2624 31.6998 13.3297 32.7648 13.4102C33.907 13.4965 35.2508 13.598 37.0637 14.0628C40.5668 14.9609 41.8894 18.8101 41.8894 18.8101C41.8894 18.8101 42.2826 20.3498 41.5856 20.6981C41.3415 20.82 40.4469 20.6094 39.3872 20.2843C38.851 18.9934 34.8831 18.6818 34.8831 18.6818C34.8831 18.6818 30.2718 18.0403 28.6275 18.2969C27.6588 18.4481 26.7838 18.9081 25.8994 19.373C25.2825 19.6973 24.661 20.0241 24 20.25C22.3914 20.7999 19.816 21.2663 18.3683 21.2663C16.9205 21.2663 17.0652 24.6156 17.4389 25.9953C17.8125 27.375 18.3683 28.6343 19.816 30.6693C22.4199 34.3297 32.8438 42.8611 35.5454 45.0456Z" fill="url(#paint1_linear_549_6414)"/>
<path d="M18.572 10.3894C17.6046 10.678 16.125 10.3894 16.125 10.3894L18.0788 11.2912C18.0788 11.2912 19.9946 12.8782 21.7967 13.0946C23.049 13.245 23.7763 12.757 24.25 12.4392C24.4579 12.2997 24.6169 12.193 24.75 12.1875C25.1863 12.1694 25.6875 12.375 25.6875 12.375C25.6875 12.375 25.4197 11.9043 24.9645 11.4535C24.9019 11.3915 24.836 11.3194 24.7638 11.2404C24.3114 10.7453 23.613 9.98102 21.9375 9.75C20.5092 9.55307 19.8849 9.83531 19.2701 10.1133C19.0485 10.2134 18.8282 10.313 18.572 10.3894Z" fill="url(#paint2_linear_549_6414)"/>
<path d="M18.572 10.3894C17.6046 10.678 16.125 10.3894 16.125 10.3894L18.0788 11.2912C18.0788 11.2912 19.9946 12.8782 21.7967 13.0946C23.049 13.245 23.7763 12.757 24.25 12.4392C24.4579 12.2997 24.6169 12.193 24.75 12.1875C25.1863 12.1694 25.6875 12.375 25.6875 12.375C25.6875 12.375 25.4197 11.9043 24.9645 11.4535C24.9019 11.3915 24.836 11.3194 24.7638 11.2404C24.3114 10.7453 23.613 9.98102 21.9375 9.75C20.5092 9.55307 19.8849 9.83531 19.2701 10.1133C19.0485 10.2134 18.8282 10.313 18.572 10.3894Z" fill="url(#paint3_linear_549_6414)"/>
<defs>
<linearGradient id="paint0_linear_549_6414" x1="0" y1="0" x2="24" y2="48" gradientUnits="userSpaceOnUse">
<stop stop-color="#EB06B8"/>
<stop offset="1" stop-color="#7012A4"/>
</linearGradient>
<linearGradient id="paint1_linear_549_6414" x1="0" y1="0" x2="24" y2="48" gradientUnits="userSpaceOnUse">
<stop stop-color="#FA4343"/>
<stop offset="1" stop-color="#5B12A4"/>
</linearGradient>
<linearGradient id="paint2_linear_549_6414" x1="0" y1="0" x2="24" y2="48" gradientUnits="userSpaceOnUse">
<stop stop-color="#EB06B8"/>
<stop offset="1" stop-color="#7012A4"/>
</linearGradient>
<linearGradient id="paint3_linear_549_6414" x1="0" y1="0" x2="24" y2="48" gradientUnits="userSpaceOnUse">
<stop stop-color="#FA4343"/>
<stop offset="1" stop-color="#5B12A4"/>
</linearGradient>
</defs>
</svg>
