<svg width="25" height="20" viewBox="0 0 25 20" fill="none" xmlns="http://www.w3.org/2000/svg">
<path fill-rule="evenodd" clip-rule="evenodd" d="M0.00292969 2C0.00292969 0.895431 0.89836 0 2.00293 0H22.0029C23.1075 0 24.0029 0.895431 24.0029 2V18C24.0029 19.1046 23.1075 20 22.0029 20H2.00293C0.89836 20 0.00292969 19.1046 0.00292969 18V2ZM2.54295 2.44324C2.36149 2.2943 2.46681 2 2.70156 2H21.3043C21.5391 2 21.6444 2.2943 21.4629 2.44324L13.2718 9.16644C12.5342 9.77186 11.4716 9.77186 10.734 9.16644L2.54295 2.44324ZM2.81955 5.27839C2.49308 5.01128 2.00293 5.24355 2.00293 5.66536V17C2.00293 17.5523 2.45064 18 3.00293 18H21.0029C21.5552 18 22.0029 17.5523 22.0029 17V5.66536C22.0029 5.24355 21.5128 5.01128 21.1863 5.27839L13.2694 11.7559C12.5327 12.3586 11.4732 12.3586 10.7365 11.7559L2.81955 5.27839Z" fill="#AAAAAA"/>
</svg>
