<svg width="24" height="24" viewBox="0 0 24 24" fill="none" xmlns="http://www.w3.org/2000/svg">
<path d="M0.398299 6.69353C0.233233 6.5719 0 6.68976 0 6.8948V18C0 20.2091 1.79086 22 4 22H20C22.2091 22 24 20.2091 24 18V6.8948C24 6.68976 23.7668 6.5719 23.6017 6.69353L13.1864 14.368C12.4809 14.8878 11.5191 14.8878 10.8136 14.368L0.398299 6.69353Z" fill="white"/>
<path d="M23.2462 4.47121C23.4416 4.32719 23.5082 4.06152 23.3779 3.85665C22.6682 2.74054 21.4206 2 20 2H4C2.57942 2 1.33179 2.74054 0.622116 3.85665C0.491845 4.06152 0.558382 4.32719 0.753839 4.47121L11.4068 12.3208C11.7596 12.5807 12.2404 12.5807 12.5932 12.3208L23.2462 4.47121Z" fill="white"/>
</svg>
