<svg width="64" height="44" viewBox="0 0 64 44" fill="none" xmlns="http://www.w3.org/2000/svg">
<rect width="64" height="44" rx="2" fill="#1A1A1A"/>
<path d="M29 20.75C29.8284 20.75 30.5 20.0784 30.5 19.25C30.5 18.4216 29.8284 17.75 29 17.75C28.1716 17.75 27.5 18.4216 27.5 19.25C27.5 20.0784 28.1716 20.75 29 20.75Z" fill="white"/>
<path d="M29 20.75C29.8284 20.75 30.5 20.0784 30.5 19.25C30.5 18.4216 29.8284 17.75 29 17.75C28.1716 17.75 27.5 18.4216 27.5 19.25C27.5 20.0784 28.1716 20.75 29 20.75Z" fill="url(#paint0_linear_1088_5017)"/>
<path d="M29 20.75C29.8284 20.75 30.5 20.0784 30.5 19.25C30.5 18.4216 29.8284 17.75 29 17.75C28.1716 17.75 27.5 18.4216 27.5 19.25C27.5 20.0784 28.1716 20.75 29 20.75Z" fill="#666666"/>
<path fill-rule="evenodd" clip-rule="evenodd" d="M25.25 14C24.0074 14 23 15.0074 23 16.25V26.75C23 27.9926 24.0074 29 25.25 29H38.75C39.9926 29 41 27.9926 41 26.75V16.25C41 15.0074 39.9926 14 38.75 14H25.25ZM38.75 15.5H25.25C24.8358 15.5 24.5 15.8358 24.5 16.25V25.0785L26.5072 23.1861C27.07 22.6554 27.9442 22.6398 28.5256 23.15L29.7182 24.1966C30.0466 24.4848 30.5508 24.4324 30.8129 24.0829L33.8 20.1C34.4 19.3 35.6 19.3 36.2 20.1L39.5 24.5V16.25C39.5 15.8358 39.1642 15.5 38.75 15.5Z" fill="white"/>
<path fill-rule="evenodd" clip-rule="evenodd" d="M25.25 14C24.0074 14 23 15.0074 23 16.25V26.75C23 27.9926 24.0074 29 25.25 29H38.75C39.9926 29 41 27.9926 41 26.75V16.25C41 15.0074 39.9926 14 38.75 14H25.25ZM38.75 15.5H25.25C24.8358 15.5 24.5 15.8358 24.5 16.25V25.0785L26.5072 23.1861C27.07 22.6554 27.9442 22.6398 28.5256 23.15L29.7182 24.1966C30.0466 24.4848 30.5508 24.4324 30.8129 24.0829L33.8 20.1C34.4 19.3 35.6 19.3 36.2 20.1L39.5 24.5V16.25C39.5 15.8358 39.1642 15.5 38.75 15.5Z" fill="url(#paint1_linear_1088_5017)"/>
<path fill-rule="evenodd" clip-rule="evenodd" d="M25.25 14C24.0074 14 23 15.0074 23 16.25V26.75C23 27.9926 24.0074 29 25.25 29H38.75C39.9926 29 41 27.9926 41 26.75V16.25C41 15.0074 39.9926 14 38.75 14H25.25ZM38.75 15.5H25.25C24.8358 15.5 24.5 15.8358 24.5 16.25V25.0785L26.5072 23.1861C27.07 22.6554 27.9442 22.6398 28.5256 23.15L29.7182 24.1966C30.0466 24.4848 30.5508 24.4324 30.8129 24.0829L33.8 20.1C34.4 19.3 35.6 19.3 36.2 20.1L39.5 24.5V16.25C39.5 15.8358 39.1642 15.5 38.75 15.5Z" fill="#666666"/>
<defs>
<linearGradient id="paint0_linear_1088_5017" x1="23" y1="14" x2="37.9006" y2="34.954" gradientUnits="userSpaceOnUse">
<stop stop-color="#FA4343"/>
<stop offset="1" stop-color="#5B12A4"/>
</linearGradient>
<linearGradient id="paint1_linear_1088_5017" x1="23" y1="14" x2="37.9006" y2="34.954" gradientUnits="userSpaceOnUse">
<stop stop-color="#FA4343"/>
<stop offset="1" stop-color="#5B12A4"/>
</linearGradient>
</defs>
</svg>
