<svg width="19" height="20" viewBox="0 0 19 20" fill="none" xmlns="http://www.w3.org/2000/svg">
<path d="M18.749 0.528765C19.0837 0.858786 19.0837 1.39385 18.749 1.72388L1.46323 18.752C1.1285 19.0821 0.585786 19.0821 0.251051 18.752C-0.0836838 18.422 -0.0836838 17.887 0.251051 17.5569L17.5368 0.528765C17.8715 0.198745 18.4142 0.198745 18.749 0.528765Z" fill="#FA3C3C"/>
<path d="M14.2353 1C14.4838 1 14.7267 1.02808 14.9617 1.08165L13.5231 2.5H3.76471C2.722 2.5 1.5 3.5694 1.5 5.39029V10.7993C1.5 11.9458 1.98447 12.7944 2.60361 13.2657L1.52535 14.3288C0.599877 13.5289 0 12.2458 0 10.7993V5.39029C0 2.9656 1.68552 1 3.76471 1H14.2353Z" fill="#FA3C3C"/>
<path d="M17.9262 4.52095L16.5 5.92707V10.7993C16.5 12.6202 15.278 13.6896 14.2353 13.6896H12.7353V16.6417L10.2943 13.6896H8.62661L7.10518 15.1896H9.58823L13.4319 19.8382C13.7284 20.1839 14.2353 19.939 14.2353 19.4501V15.1896C16.3145 15.1896 18 13.224 18 10.7993V5.39029C18 5.09267 17.9746 4.80196 17.9262 4.52095Z" fill="#FA3C3C"/>
</svg>
