<svg width="20" height="20" viewBox="0 0 20 20" fill="none" xmlns="http://www.w3.org/2000/svg">
<g clip-path="url(#clip0_1716_1918)">
<path d="M14.2266 2.78678C13.5409 1.15102 11.9067 0 9.99993 0C7.4752 0 5.4285 2.01787 5.4285 4.50704C5.4285 6.387 6.59596 7.99813 8.25509 8.67415L9.64626 7.30258C8.23518 7.13082 7.14279 5.94471 7.14279 4.50704C7.14279 2.95131 8.42198 1.69014 9.99993 1.69014C11.4581 1.69014 12.6612 2.76715 12.8354 4.15835L14.2266 2.78678Z" fill="#FA3C3C"/>
<path d="M0.902902 15.9228C1.26095 12.9206 3.67654 10.539 6.72162 10.186L0.902902 15.9228Z" fill="#FA3C3C"/>
<path d="M16.6493 19.1549H4.08956L5.80385 17.4648H16.6493C17.0796 17.4648 17.4285 17.1208 17.4285 16.6965C17.4285 14.0094 15.219 11.831 12.4934 11.831H11.5181L13.1958 10.177C16.538 10.5229 19.1428 13.3098 19.1428 16.6965C19.1428 18.0543 18.0264 19.1549 16.6493 19.1549Z" fill="#FA3C3C"/>
<path d="M19.749 1.72432C20.0837 1.3943 20.0837 0.859226 19.749 0.529206C19.4142 0.199185 18.8715 0.199185 18.5368 0.529206L0.251051 18.5574C-0.0836838 18.8874 -0.0836838 19.4225 0.251051 19.7525C0.585786 20.0825 1.1285 20.0825 1.46323 19.7525L19.749 1.72432Z" fill="#FA3C3C"/>
</g>
<defs>
<clipPath id="clip0_1716_1918">
<rect width="20" height="20" fill="white"/>
</clipPath>
</defs>
</svg>
