<svg width="64" height="64" viewBox="0 0 64 64" fill="none" xmlns="http://www.w3.org/2000/svg">
<g clip-path="url(#clip0_107_32)">
<path d="M33.837 4.43623C34.8519 3.42138 34.8519 1.77598 33.837 0.761136C32.8222 -0.253712 31.1768 -0.253712 30.1619 0.761136C29.1471 1.77598 29.1471 3.42138 30.1619 4.43623C30.5425 4.81684 31.0118 5.0547 31.5033 5.14982V12.2979C31.0118 12.393 30.5425 12.6309 30.1619 13.0115C29.1471 14.0264 29.1471 15.6718 30.1619 16.6866C30.5425 17.0672 31.0118 17.3051 31.5033 17.4002V26.8258C30.4996 26.9215 29.5184 27.3084 28.6967 27.9864L21.9072 21.1968C22.5863 20.1865 22.4792 18.8049 21.586 17.9117C21.2072 17.5329 20.7406 17.2955 20.2517 17.1995V8.82355C20.7406 8.72753 21.2072 8.49012 21.586 8.11133C22.6009 7.09648 22.6009 5.45108 21.586 4.43624C20.5712 3.42139 18.9258 3.42139 17.9109 4.43624C16.8961 5.45108 16.8961 7.09648 17.9109 8.11133C18.2914 8.49178 18.7605 8.7296 19.2517 8.8248V17.1982C18.7605 17.2934 18.2914 17.5312 17.9109 17.9117C17.5313 18.2913 17.2937 18.7591 17.1981 19.2491H8.82564C8.73002 18.7591 8.49241 18.2913 8.11281 17.9117C7.09797 16.8968 5.45257 16.8968 4.43772 17.9117C3.42288 18.9265 3.42288 20.5719 4.43772 21.5868C5.45257 22.6016 7.09797 22.6016 8.11281 21.5868C8.49247 21.2071 8.73009 20.7392 8.82569 20.2491H17.1981C17.2937 20.7392 17.5313 21.2071 17.9109 21.5868C18.8056 22.4814 20.1902 22.5874 21.2009 21.9047L27.9894 28.6932C27.3106 29.5145 26.923 30.4956 26.8266 31.4994H17.4C17.3044 31.0093 17.0668 30.5415 16.6872 30.1619C15.6724 29.1471 14.027 29.1471 13.0121 30.1619C12.6325 30.5415 12.3949 31.0093 12.2993 31.4994H5.14906C5.05343 31.0093 4.81582 30.5415 4.43623 30.1619C3.42138 29.1471 1.77598 29.1471 0.761136 30.1619C-0.253712 31.1768 -0.253712 32.8222 0.761136 33.837C1.77598 34.8519 3.42138 34.8519 4.43623 33.837C4.81588 33.4574 5.0535 32.9895 5.1491 32.4994H12.2993C12.3949 32.9895 12.6325 33.4574 13.0121 33.837C14.027 34.8519 15.6724 34.8519 16.6872 33.837C17.0669 33.4574 17.3045 32.9895 17.4001 32.4994H26.8265C26.923 33.5031 27.3105 34.4842 27.9893 35.3056L21.2008 42.0941C20.19 41.4116 18.8055 41.5176 17.9109 42.4122C17.5313 42.7918 17.2937 43.2596 17.1981 43.7496H8.82564C8.73002 43.2596 8.4924 42.7918 8.11281 42.4122C7.09797 41.3973 5.45257 41.3973 4.43772 42.4122C3.42288 43.427 3.42288 45.0724 4.43772 46.0873C5.45257 47.1021 7.09797 47.1021 8.11281 46.0873C8.49247 45.7076 8.73009 45.2397 8.82569 44.7496H17.1981C17.2937 45.2397 17.5313 45.7076 17.9109 46.0873C18.2914 46.4677 18.7605 46.7055 19.2517 46.8007V55.1741C18.7605 55.2693 18.2914 55.5072 17.9109 55.8876C16.8961 56.9025 16.8961 58.5479 17.9109 59.5627C18.9258 60.5776 20.5712 60.5776 21.586 59.5627C22.6009 58.5479 22.6009 56.9025 21.586 55.8876C21.2072 55.5088 20.7406 55.2714 20.2517 55.1754V46.7995C20.7406 46.7035 21.2072 46.4661 21.586 46.0873C22.4793 45.194 22.5863 43.8123 21.9071 42.802L28.6966 36.0125C29.5183 36.6905 30.4995 37.0774 31.5033 37.1732V46.5988C31.0118 46.6939 30.5425 46.9317 30.1619 47.3124C29.1471 48.3272 29.1471 49.9726 30.1619 50.9874C30.5425 51.3681 31.0118 51.6059 31.5033 51.701V58.849C31.0118 58.9441 30.5425 59.182 30.1619 59.5626C29.1471 60.5774 29.1471 62.2228 30.1619 63.2377C31.1768 64.2525 32.8222 64.2525 33.837 63.2377C34.8519 62.2228 34.8519 60.5774 33.837 59.5626C33.4584 59.184 32.992 58.9466 32.5033 58.8505V51.6995C32.992 51.6034 33.4584 51.3661 33.837 50.9874C34.8519 49.9726 34.8519 48.3272 33.837 47.3124C33.4584 46.9337 32.992 46.6964 32.5033 46.6003V37.1726C33.5059 37.0756 34.4858 36.6881 35.3062 36.0101L42.0938 42.7976C41.4113 43.8083 41.5174 45.1927 42.4119 46.0873C42.7926 46.4679 43.262 46.7058 43.7535 46.8009V55.174C43.262 55.2691 42.7926 55.507 42.4119 55.8876C41.3971 56.9025 41.3971 58.5479 42.4119 59.5627C43.4268 60.5776 45.0722 60.5776 46.087 59.5627C47.1019 58.5479 47.1019 56.9025 46.087 55.8876C45.7084 55.509 45.2421 55.2717 44.7535 55.1756V46.7993C45.2421 46.7032 45.7084 46.4658 46.087 46.0873C46.4666 45.7077 46.7042 45.2399 46.7999 44.7498H55.1763C55.2719 45.2399 55.5095 45.7077 55.8891 46.0873C56.904 47.1021 58.5494 47.1021 59.5642 46.0873C60.5791 45.0724 60.5791 43.427 59.5642 42.4122C58.5494 41.3973 56.904 41.3973 55.8891 42.4122C55.5095 42.7918 55.2718 43.2597 55.1762 43.7498H46.7999C46.7043 43.2597 46.4667 42.7918 46.087 42.4122C45.1937 41.5189 43.8119 41.4119 42.8016 42.0912L36.0131 35.3027C36.6903 34.4819 37.0771 33.502 37.1734 32.4994H46.6008C46.6964 32.9895 46.9341 33.4574 47.3137 33.837C48.3286 34.8519 49.974 34.8519 50.9888 33.837C51.3685 33.4574 51.6061 32.9895 51.7017 32.4994H58.8508C58.9464 32.9895 59.1841 33.4574 59.5637 33.837C60.5786 34.8519 62.224 34.8519 63.2388 33.837C64.2537 32.8222 64.2537 31.1768 63.2388 30.1619C62.224 29.1471 60.5786 29.1471 59.5637 30.1619C59.1841 30.5415 58.9465 31.0093 58.8509 31.4994H51.7016C51.606 31.0093 51.3684 30.5415 50.9888 30.1619C49.974 29.1471 48.3286 29.1471 47.3137 30.1619C46.9341 30.5415 46.6965 31.0093 46.6009 31.4994H37.1734C37.077 30.4968 36.6902 29.5169 36.013 28.6961L42.8014 21.9077C43.8118 22.5871 45.1937 22.4801 46.087 21.5868C46.4667 21.2071 46.7043 20.7392 46.7999 20.2491H55.1762C55.2718 20.7392 55.5095 21.2071 55.8891 21.5868C56.904 22.6016 58.5494 22.6016 59.5642 21.5868C60.5791 20.5719 60.5791 18.9265 59.5642 17.9117C58.5494 16.8968 56.904 16.8968 55.8891 17.9117C55.5095 18.2913 55.2719 18.7591 55.1763 19.2491H46.7999C46.7042 18.7591 46.4666 18.2913 46.087 17.9117C45.7084 17.5331 45.2421 17.2958 44.7535 17.1996V8.82339C45.2421 8.72725 45.7084 8.4899 46.087 8.11133C47.1019 7.09648 47.1019 5.45108 46.087 4.43624C45.0722 3.42139 43.4268 3.42139 42.4119 4.43624C41.3971 5.45108 41.3971 7.09648 42.4119 8.11133C42.7926 8.49199 43.262 8.72987 43.7535 8.82497V17.198C43.262 17.2931 42.7926 17.531 42.4119 17.9117C41.5174 18.8062 41.4114 20.1905 42.0937 21.2012L35.3061 27.9888C34.4857 27.3108 33.5059 26.9234 32.5033 26.8264V17.3987C32.992 17.3026 33.4584 17.0652 33.837 16.6866C34.8519 15.6718 34.8519 14.0264 33.837 13.0115C33.4584 12.6329 32.992 12.3955 32.5033 12.2994V5.14833C32.992 5.05223 33.4584 4.81486 33.837 4.43623Z" fill="url(#paint0_radial_107_32)"/>
<circle cx="52" cy="52" r="12.75" fill="url(#paint1_linear_107_32)" stroke="black" stroke-width="1.5"/>
<rect x="51" y="42" width="2" height="11" rx="1" fill="black"/>
<rect x="51" y="51" width="9" height="2" rx="1" fill="black"/>
</g>
<defs>
<radialGradient id="paint0_radial_107_32" cx="0" cy="0" r="1" gradientUnits="userSpaceOnUse" gradientTransform="translate(32 31.9994) rotate(90) scale(28.7054 25.89)">
<stop stop-color="#AAAAAA"/>
<stop offset="1" stop-color="#666666"/>
</radialGradient>
<linearGradient id="paint1_linear_107_32" x1="52" y1="40" x2="52" y2="64" gradientUnits="userSpaceOnUse">
<stop stop-color="#EEEEEE"/>
<stop offset="1" stop-color="#AAAAAA"/>
</linearGradient>
<clipPath id="clip0_107_32">
<rect width="64" height="64" fill="white"/>
</clipPath>
</defs>
</svg>
