<svg width="32" height="32" viewBox="0 0 32 32" fill="none" xmlns="http://www.w3.org/2000/svg">
<path d="M16.9184 2.21812C17.4258 1.71069 17.4258 0.887993 16.9184 0.380568C16.411 -0.126856 15.5883 -0.126856 15.0809 0.380568C14.5734 0.887993 14.5734 1.71069 15.0809 2.21812C15.2388 2.37603 15.4272 2.4848 15.6272 2.54443V6.17944C15.4272 6.23906 15.2388 6.34783 15.0809 6.50575C14.5734 7.01317 14.5734 7.83587 15.0809 8.34329C15.2388 8.50121 15.4272 8.60998 15.6272 8.6696V13.4277C15.2086 13.488 14.8018 13.6505 14.4473 13.9151L11.0199 10.4878C11.2832 9.99606 11.2075 9.37063 10.7927 8.95585C10.6361 8.79921 10.4494 8.69093 10.2512 8.631L10.2512 4.38055C10.4494 4.32062 10.6361 4.21234 10.7927 4.0557C11.3001 3.54827 11.3001 2.72557 10.7927 2.21815C10.2853 1.71072 9.46257 1.71072 8.95514 2.21815C8.44772 2.72557 8.44772 3.54827 8.95514 4.0557C9.11298 4.21353 9.30132 4.32228 9.50119 4.38192V8.62963C9.30132 8.68927 9.11298 8.79801 8.95514 8.95585C8.79791 9.11309 8.6894 9.30059 8.62961 9.4996H4.38207C4.32228 9.30059 4.21377 9.11309 4.05654 8.95585C3.54911 8.44843 2.72642 8.44843 2.21899 8.95585C1.71157 9.46328 1.71157 10.286 2.21899 10.7934C2.72642 11.3008 3.54911 11.3008 4.05654 10.7934C4.21378 10.6362 4.3223 10.4486 4.38209 10.2496H8.62959C8.68938 10.4486 8.7979 10.6362 8.95514 10.7934C9.37083 11.2091 9.99811 11.2842 10.4903 11.0188L13.9166 14.4452C13.6515 14.7995 13.4885 15.2061 13.4278 15.6247H8.66901C8.60921 15.4257 8.5007 15.2382 8.34347 15.081C7.83605 14.5736 7.01335 14.5736 6.50592 15.081C6.34869 15.2382 6.24018 15.4257 6.18039 15.6247H2.54365C2.48386 15.4257 2.37535 15.2382 2.21812 15.081C1.71069 14.5736 0.887993 14.5736 0.380568 15.081C-0.126856 15.5884 -0.126856 16.4111 0.380568 16.9185C0.887993 17.426 1.71069 17.426 2.21812 16.9185C2.37536 16.7613 2.48388 16.5738 2.54366 16.3747H6.18037C6.24016 16.5738 6.34868 16.7613 6.50592 16.9185C7.01335 17.426 7.83605 17.426 8.34347 16.9185C8.50072 16.7613 8.60923 16.5738 8.66902 16.3747H13.4278C13.4885 16.7933 13.6515 17.2 13.9166 17.5543L10.4903 20.9807C9.99809 20.7153 9.37082 20.7904 8.95514 21.2061C8.79791 21.3634 8.6894 21.5509 8.62961 21.7499H4.38207C4.32228 21.5509 4.21377 21.3634 4.05654 21.2061C3.54911 20.6987 2.72642 20.6987 2.21899 21.2061C1.71157 21.7135 1.71157 22.5362 2.21899 23.0437C2.72642 23.5511 3.54911 23.5511 4.05654 23.0437C4.21378 22.8864 4.3223 22.6989 4.38209 22.4999H8.62959C8.68938 22.6989 8.7979 22.8864 8.95514 23.0437C9.11298 23.2015 9.30132 23.3102 9.50119 23.3699V27.6176C9.30132 27.6772 9.11298 27.786 8.95514 27.9438C8.44772 28.4512 8.44772 29.2739 8.95514 29.7814C9.46257 30.2888 10.2853 30.2888 10.7927 29.7814C11.3001 29.2739 11.3001 28.4512 10.7927 27.9438C10.6361 27.7872 10.4494 27.6789 10.2512 27.619L10.2512 23.3685C10.4494 23.3086 10.6361 23.2003 10.7927 23.0437C11.2075 22.6289 11.2832 22.0034 11.0199 21.5117L14.4472 18.0844C14.8018 18.3491 15.2086 18.5115 15.6272 18.5718V23.3299C15.4272 23.3895 15.2388 23.4983 15.0809 23.6562C14.5734 24.1636 14.5734 24.9863 15.0809 25.4937C15.2388 25.6516 15.4272 25.7604 15.6272 25.82V29.455C15.4272 29.5146 15.2388 29.6234 15.0809 29.7813C14.5734 30.2887 14.5734 31.1114 15.0809 31.6189C15.5883 32.1263 16.411 32.1263 16.9184 31.6189C17.4258 31.1114 17.4258 30.2887 16.9184 29.7813C16.7618 29.6248 16.5753 29.5165 16.3772 29.4565V25.8185C16.5753 25.7585 16.7618 25.6503 16.9184 25.4937C17.4258 24.9863 17.4258 24.1636 16.9184 23.6562C16.7618 23.4996 16.5753 23.3914 16.3772 23.3314V18.571C16.7948 18.51 17.2005 18.3472 17.554 18.0826L20.9802 21.5088C20.715 22.0009 20.7902 22.6281 21.2059 23.0437C21.3637 23.2015 21.552 23.3102 21.7518 23.3699V27.6176C21.552 27.6773 21.3637 27.786 21.2059 27.9438C20.6984 28.4512 20.6984 29.2739 21.2059 29.7814C21.7133 30.2888 22.536 30.2888 23.0434 29.7814C23.5508 29.2739 23.5508 28.4512 23.0434 27.9438C22.8867 27.7872 22.7 27.6789 22.5018 27.6189V23.3685C22.7 23.3086 22.8867 23.2003 23.0434 23.0437C23.2006 22.8864 23.3091 22.699 23.3689 22.5H27.619C27.6788 22.699 27.7873 22.8864 27.9445 23.0437C28.4519 23.5511 29.2746 23.5511 29.782 23.0437C30.2895 22.5362 30.2895 21.7135 29.782 21.2061C29.2746 20.6987 28.4519 20.6987 27.9445 21.2061C27.7872 21.3634 27.6787 21.5509 27.6189 21.75H23.369C23.3092 21.5509 23.2007 21.3634 23.0434 21.2061C22.6285 20.7913 22.0029 20.7156 21.5112 20.9791L18.0841 17.552C18.3482 17.1982 18.5105 16.7924 18.5711 16.3747H23.3313C23.3911 16.5738 23.4996 16.7613 23.6568 16.9185C24.1643 17.426 24.987 17.426 25.4944 16.9185C25.6516 16.7613 25.7602 16.5738 25.8199 16.3747H29.4563C29.5161 16.5738 29.6246 16.7613 29.7818 16.9185C30.2893 17.426 31.112 17.426 31.6194 16.9185C32.1268 16.4111 32.1268 15.5884 31.6194 15.081C31.112 14.5736 30.2893 14.5736 29.7818 15.081C29.6246 15.2382 29.5161 15.4257 29.4563 15.6247H25.8199C25.7601 15.4257 25.6516 15.2382 25.4944 15.081C24.987 14.5736 24.1643 14.5736 23.6568 15.081C23.4996 15.2382 23.3911 15.4257 23.3313 15.6247H18.5711C18.5105 15.2071 18.3482 14.8013 18.0841 14.4475L21.5112 11.0204C22.0029 11.2839 22.6285 11.2083 23.0434 10.7934C23.2006 10.6362 23.3091 10.4487 23.3689 10.2496L27.6189 10.2496C27.6787 10.4487 27.7873 10.6362 27.9445 10.7934C28.4519 11.3008 29.2746 11.3008 29.782 10.7934C30.2895 10.286 30.2895 9.46328 29.782 8.95585C29.2746 8.44843 28.4519 8.44843 27.9445 8.95585C27.7872 9.11309 27.6787 9.30061 27.6189 9.49964H23.3689C23.3092 9.30061 23.2006 9.11309 23.0434 8.95585C22.8867 8.79919 22.7 8.6909 22.5018 8.63097V4.38058C22.7 4.32065 22.8867 4.21236 23.0434 4.0557C23.5508 3.54827 23.5508 2.72557 23.0434 2.21815C22.536 1.71072 21.7133 1.71072 21.2059 2.21815C20.6984 2.72557 20.6984 3.54827 21.2059 4.0557C21.3637 4.21351 21.552 4.32225 21.7518 4.3819V8.62965C21.552 8.6893 21.3637 8.79804 21.2059 8.95585C20.7903 9.37145 20.715 9.99855 20.9802 10.4907L17.554 13.9169C17.2005 13.6523 16.7948 13.4895 16.3772 13.4285V8.66806C16.5753 8.60811 16.7618 8.49986 16.9184 8.34329C17.4258 7.83587 17.4258 7.01317 16.9184 6.50575C16.7618 6.34918 16.5753 6.24093 16.3772 6.18098V2.54288C16.5753 2.48293 16.7618 2.37468 16.9184 2.21812Z" fill="#D9D9D9"/>
<path d="M16.9184 2.21812C17.4258 1.71069 17.4258 0.887993 16.9184 0.380568C16.411 -0.126856 15.5883 -0.126856 15.0809 0.380568C14.5734 0.887993 14.5734 1.71069 15.0809 2.21812C15.2388 2.37603 15.4272 2.4848 15.6272 2.54443V6.17944C15.4272 6.23906 15.2388 6.34783 15.0809 6.50575C14.5734 7.01317 14.5734 7.83587 15.0809 8.34329C15.2388 8.50121 15.4272 8.60998 15.6272 8.6696V13.4277C15.2086 13.488 14.8018 13.6505 14.4473 13.9151L11.0199 10.4878C11.2832 9.99606 11.2075 9.37063 10.7927 8.95585C10.6361 8.79921 10.4494 8.69093 10.2512 8.631L10.2512 4.38055C10.4494 4.32062 10.6361 4.21234 10.7927 4.0557C11.3001 3.54827 11.3001 2.72557 10.7927 2.21815C10.2853 1.71072 9.46257 1.71072 8.95514 2.21815C8.44772 2.72557 8.44772 3.54827 8.95514 4.0557C9.11298 4.21353 9.30132 4.32228 9.50119 4.38192V8.62963C9.30132 8.68927 9.11298 8.79801 8.95514 8.95585C8.79791 9.11309 8.6894 9.30059 8.62961 9.4996H4.38207C4.32228 9.30059 4.21377 9.11309 4.05654 8.95585C3.54911 8.44843 2.72642 8.44843 2.21899 8.95585C1.71157 9.46328 1.71157 10.286 2.21899 10.7934C2.72642 11.3008 3.54911 11.3008 4.05654 10.7934C4.21378 10.6362 4.3223 10.4486 4.38209 10.2496H8.62959C8.68938 10.4486 8.7979 10.6362 8.95514 10.7934C9.37083 11.2091 9.99811 11.2842 10.4903 11.0188L13.9166 14.4452C13.6515 14.7995 13.4885 15.2061 13.4278 15.6247H8.66901C8.60921 15.4257 8.5007 15.2382 8.34347 15.081C7.83605 14.5736 7.01335 14.5736 6.50592 15.081C6.34869 15.2382 6.24018 15.4257 6.18039 15.6247H2.54365C2.48386 15.4257 2.37535 15.2382 2.21812 15.081C1.71069 14.5736 0.887993 14.5736 0.380568 15.081C-0.126856 15.5884 -0.126856 16.4111 0.380568 16.9185C0.887993 17.426 1.71069 17.426 2.21812 16.9185C2.37536 16.7613 2.48388 16.5738 2.54366 16.3747H6.18037C6.24016 16.5738 6.34868 16.7613 6.50592 16.9185C7.01335 17.426 7.83605 17.426 8.34347 16.9185C8.50072 16.7613 8.60923 16.5738 8.66902 16.3747H13.4278C13.4885 16.7933 13.6515 17.2 13.9166 17.5543L10.4903 20.9807C9.99809 20.7153 9.37082 20.7904 8.95514 21.2061C8.79791 21.3634 8.6894 21.5509 8.62961 21.7499H4.38207C4.32228 21.5509 4.21377 21.3634 4.05654 21.2061C3.54911 20.6987 2.72642 20.6987 2.21899 21.2061C1.71157 21.7135 1.71157 22.5362 2.21899 23.0437C2.72642 23.5511 3.54911 23.5511 4.05654 23.0437C4.21378 22.8864 4.3223 22.6989 4.38209 22.4999H8.62959C8.68938 22.6989 8.7979 22.8864 8.95514 23.0437C9.11298 23.2015 9.30132 23.3102 9.50119 23.3699V27.6176C9.30132 27.6772 9.11298 27.786 8.95514 27.9438C8.44772 28.4512 8.44772 29.2739 8.95514 29.7814C9.46257 30.2888 10.2853 30.2888 10.7927 29.7814C11.3001 29.2739 11.3001 28.4512 10.7927 27.9438C10.6361 27.7872 10.4494 27.6789 10.2512 27.619L10.2512 23.3685C10.4494 23.3086 10.6361 23.2003 10.7927 23.0437C11.2075 22.6289 11.2832 22.0034 11.0199 21.5117L14.4472 18.0844C14.8018 18.3491 15.2086 18.5115 15.6272 18.5718V23.3299C15.4272 23.3895 15.2388 23.4983 15.0809 23.6562C14.5734 24.1636 14.5734 24.9863 15.0809 25.4937C15.2388 25.6516 15.4272 25.7604 15.6272 25.82V29.455C15.4272 29.5146 15.2388 29.6234 15.0809 29.7813C14.5734 30.2887 14.5734 31.1114 15.0809 31.6189C15.5883 32.1263 16.411 32.1263 16.9184 31.6189C17.4258 31.1114 17.4258 30.2887 16.9184 29.7813C16.7618 29.6248 16.5753 29.5165 16.3772 29.4565V25.8185C16.5753 25.7585 16.7618 25.6503 16.9184 25.4937C17.4258 24.9863 17.4258 24.1636 16.9184 23.6562C16.7618 23.4996 16.5753 23.3914 16.3772 23.3314V18.571C16.7948 18.51 17.2005 18.3472 17.554 18.0826L20.9802 21.5088C20.715 22.0009 20.7902 22.6281 21.2059 23.0437C21.3637 23.2015 21.552 23.3102 21.7518 23.3699V27.6176C21.552 27.6773 21.3637 27.786 21.2059 27.9438C20.6984 28.4512 20.6984 29.2739 21.2059 29.7814C21.7133 30.2888 22.536 30.2888 23.0434 29.7814C23.5508 29.2739 23.5508 28.4512 23.0434 27.9438C22.8867 27.7872 22.7 27.6789 22.5018 27.6189V23.3685C22.7 23.3086 22.8867 23.2003 23.0434 23.0437C23.2006 22.8864 23.3091 22.699 23.3689 22.5H27.619C27.6788 22.699 27.7873 22.8864 27.9445 23.0437C28.4519 23.5511 29.2746 23.5511 29.782 23.0437C30.2895 22.5362 30.2895 21.7135 29.782 21.2061C29.2746 20.6987 28.4519 20.6987 27.9445 21.2061C27.7872 21.3634 27.6787 21.5509 27.6189 21.75H23.369C23.3092 21.5509 23.2007 21.3634 23.0434 21.2061C22.6285 20.7913 22.0029 20.7156 21.5112 20.9791L18.0841 17.552C18.3482 17.1982 18.5105 16.7924 18.5711 16.3747H23.3313C23.3911 16.5738 23.4996 16.7613 23.6568 16.9185C24.1643 17.426 24.987 17.426 25.4944 16.9185C25.6516 16.7613 25.7602 16.5738 25.8199 16.3747H29.4563C29.5161 16.5738 29.6246 16.7613 29.7818 16.9185C30.2893 17.426 31.112 17.426 31.6194 16.9185C32.1268 16.4111 32.1268 15.5884 31.6194 15.081C31.112 14.5736 30.2893 14.5736 29.7818 15.081C29.6246 15.2382 29.5161 15.4257 29.4563 15.6247H25.8199C25.7601 15.4257 25.6516 15.2382 25.4944 15.081C24.987 14.5736 24.1643 14.5736 23.6568 15.081C23.4996 15.2382 23.3911 15.4257 23.3313 15.6247H18.5711C18.5105 15.2071 18.3482 14.8013 18.0841 14.4475L21.5112 11.0204C22.0029 11.2839 22.6285 11.2083 23.0434 10.7934C23.2006 10.6362 23.3091 10.4487 23.3689 10.2496L27.6189 10.2496C27.6787 10.4487 27.7873 10.6362 27.9445 10.7934C28.4519 11.3008 29.2746 11.3008 29.782 10.7934C30.2895 10.286 30.2895 9.46328 29.782 8.95585C29.2746 8.44843 28.4519 8.44843 27.9445 8.95585C27.7872 9.11309 27.6787 9.30061 27.6189 9.49964H23.3689C23.3092 9.30061 23.2006 9.11309 23.0434 8.95585C22.8867 8.79919 22.7 8.6909 22.5018 8.63097V4.38058C22.7 4.32065 22.8867 4.21236 23.0434 4.0557C23.5508 3.54827 23.5508 2.72557 23.0434 2.21815C22.536 1.71072 21.7133 1.71072 21.2059 2.21815C20.6984 2.72557 20.6984 3.54827 21.2059 4.0557C21.3637 4.21351 21.552 4.32225 21.7518 4.3819V8.62965C21.552 8.6893 21.3637 8.79804 21.2059 8.95585C20.7903 9.37145 20.715 9.99855 20.9802 10.4907L17.554 13.9169C17.2005 13.6523 16.7948 13.4895 16.3772 13.4285V8.66806C16.5753 8.60811 16.7618 8.49986 16.9184 8.34329C17.4258 7.83587 17.4258 7.01317 16.9184 6.50575C16.7618 6.34918 16.5753 6.24093 16.3772 6.18098V2.54288C16.5753 2.48293 16.7618 2.37468 16.9184 2.21812Z" fill="url(#paint0_radial_114_91)"/>
<defs>
<radialGradient id="paint0_radial_114_91" cx="0" cy="0" r="1" gradientUnits="userSpaceOnUse" gradientTransform="translate(16 15.9997) rotate(90) scale(14.3527 12.945)">
<stop stop-color="#AAAAAA"/>
<stop offset="1" stop-color="#666666"/>
</radialGradient>
</defs>
</svg>
