<svg width="24" height="24" viewBox="0 0 24 24" fill="none" xmlns="http://www.w3.org/2000/svg">
<path fill-rule="evenodd" clip-rule="evenodd" d="M7.00296 19H1.47999C0.772526 19 0.288768 18.2855 0.551513 17.6286L1.57382 15.0729C1.85731 14.3641 2.00296 13.6078 2.00296 12.8445V10C2.00296 4.47715 6.48011 0 12.003 0C17.5258 0 22.003 4.47715 22.003 10V12.8445C22.003 13.6078 22.1486 14.3641 22.4321 15.0728L23.4544 17.6286C23.7171 18.2855 23.2334 19 22.5259 19H17.003C17.003 21.7614 14.7644 24 12.003 24C9.24153 24 7.00296 21.7614 7.00296 19ZM20.5751 15.8156L21.0489 17H2.95702L3.43077 15.8156C3.80876 14.8707 4.00296 13.8623 4.00296 12.8445V10C4.00296 5.58172 7.58468 2 12.003 2C16.4212 2 20.003 5.58172 20.003 10V12.8445C20.003 13.8623 20.1972 14.8707 20.5751 15.8156ZM15.003 19H9.00296C9.00296 20.6569 10.3461 22 12.003 22C13.6598 22 15.003 20.6569 15.003 19Z" fill="#AAAAAA"/>
</svg>
