<svg width="74" height="26" viewBox="0 0 74 26" fill="none" xmlns="http://www.w3.org/2000/svg">
<g opacity="0.9">
<path d="M30.1792 13.1797H32.0845C33.5396 13.1797 34.6494 13 34.6494 11.4248C34.6494 9.9248 33.4795 9.69971 32.0845 9.69971H30.1792V13.1797Z" fill="white"/>
<path d="M21.0552 17.5298C19.0151 17.5298 17.77 16.4048 17.77 13.5249C17.77 10.6299 19.0151 9.52002 21.0552 9.52002C23.0952 9.52002 24.355 10.6299 24.355 13.5249C24.355 16.4048 23.0952 17.5298 21.0552 17.5298Z" fill="white"/>
<path fill-rule="evenodd" clip-rule="evenodd" d="M0 13C0 5.82031 5.82031 0 13 0H61C68.1797 0 74 5.82031 74 13C74 20.1797 68.1797 26 61 26H13C5.82031 26 0 20.1797 0 13ZM54.9092 8.0498H56.6792V19H54.459L51.2344 13.3599C50.6489 12.2949 50.0942 11.1997 49.5542 10.1196C49.644 11.5 49.6592 12.79 49.6592 13.96V19H47.8892V8.0498H50.0942L53.229 13.4497C53.4512 13.8413 53.668 14.2344 53.8804 14.6289C54.1631 15.1538 54.438 15.6812 54.708 16.209L55.0142 16.8096C54.939 15.4746 54.9092 14.0796 54.9092 12.9248V8.0498ZM45.7573 9.69971V8.0498H38.2871V19H45.877V17.3496H40.147V14.3047H45.4419V12.6548H40.147V9.69971H45.7573ZM32.8823 8.06592C33.1348 8.07715 33.3809 8.0957 33.6445 8.125C35.1143 8.30469 36.5693 9.09961 36.5693 11.3047C36.5693 13.6597 35.1143 14.5747 33.6445 14.7549C33.1045 14.8149 32.6392 14.8296 32.0396 14.8296H30.1792V19H28.3193V8.0498H32.0396C32.3462 8.0498 32.6177 8.05371 32.8823 8.06592ZM21.0552 7.83984C17.605 7.83984 15.8501 9.79004 15.8501 13.5249C15.8501 17.2446 17.605 19.21 21.0552 19.21C24.5049 19.21 26.2603 17.2446 26.2603 13.5249C26.2603 9.79004 24.5049 7.83984 21.0552 7.83984Z" fill="white"/>
</g>
</svg>
