<svg width="172" height="164" viewBox="0 0 172 164" fill="none" xmlns="http://www.w3.org/2000/svg">
<g filter="url(#filter0_d_5533_5745)">
<path d="M116.613 42.4918C115.857 42.3745 115.203 41.9045 114.85 41.2263L106.574 25.2945C105.969 24.1308 104.543 23.6675 103.369 24.2538L87.0682 32.4007C86.3923 32.7385 85.5967 32.7385 84.9208 32.4006L68.6359 24.2614C67.4626 23.675 66.0357 24.1384 65.4312 25.3021L57.159 41.2276C56.8067 41.9058 56.1525 42.3758 55.3971 42.4932L37.3966 45.2925C36.0811 45.4971 35.1833 46.7325 35.3953 48.0464L38.2306 65.6155C38.3546 66.3842 38.0979 67.1653 37.542 67.7107L24.7192 80.2906C23.7602 81.2315 23.7603 82.776 24.7195 83.7168L37.5437 96.2946C38.0999 96.8401 38.3567 97.6215 38.2324 98.3904L35.3946 115.958C35.1823 117.272 36.0806 118.508 37.3965 118.712L55.4065 121.508C56.1623 121.625 56.8169 122.095 57.1692 122.774L65.4392 138.701C66.0437 139.865 67.4709 140.329 68.6444 139.742L84.9203 131.604C85.5963 131.266 86.3921 131.266 87.0681 131.604L103.359 139.746C104.532 140.333 105.959 139.869 106.564 138.705L114.839 122.774C115.192 122.095 115.846 121.625 116.602 121.508L134.603 118.713C135.919 118.509 136.817 117.273 136.605 115.959L133.769 98.3905C133.645 97.6217 133.902 96.8406 134.458 96.2952L147.281 83.7154C148.24 82.7745 148.24 81.2299 147.281 80.2892L134.456 67.7115C133.9 67.1659 133.643 66.3844 133.768 65.6154L136.608 48.0414C136.821 46.7272 135.923 45.4913 134.607 45.2869L116.613 42.4918Z" fill="url(#paint0_linear_5533_5745)"/>
<path d="M116.613 42.4918C115.857 42.3745 115.203 41.9045 114.85 41.2263L106.574 25.2945C105.969 24.1308 104.543 23.6675 103.369 24.2538L87.0682 32.4007C86.3923 32.7385 85.5967 32.7385 84.9208 32.4006L68.6359 24.2614C67.4626 23.675 66.0357 24.1384 65.4312 25.3021L57.159 41.2276C56.8067 41.9058 56.1525 42.3758 55.3971 42.4932L37.3966 45.2925C36.0811 45.4971 35.1833 46.7325 35.3953 48.0464L38.2306 65.6155C38.3546 66.3842 38.0979 67.1653 37.542 67.7107L24.7192 80.2906C23.7602 81.2315 23.7603 82.776 24.7195 83.7168L37.5437 96.2946C38.0999 96.8401 38.3567 97.6215 38.2324 98.3904L35.3946 115.958C35.1823 117.272 36.0806 118.508 37.3965 118.712L55.4065 121.508C56.1623 121.625 56.8169 122.095 57.1692 122.774L65.4392 138.701C66.0437 139.865 67.4709 140.329 68.6444 139.742L84.9203 131.604C85.5963 131.266 86.3921 131.266 87.0681 131.604L103.359 139.746C104.532 140.333 105.959 139.869 106.564 138.705L114.839 122.774C115.192 122.095 115.846 121.625 116.602 121.508L134.603 118.713C135.919 118.509 136.817 117.273 136.605 115.959L133.769 98.3905C133.645 97.6217 133.902 96.8406 134.458 96.2952L147.281 83.7154C148.24 82.7745 148.24 81.2299 147.281 80.2892L134.456 67.7115C133.9 67.1659 133.643 66.3844 133.768 65.6154L136.608 48.0414C136.821 46.7272 135.923 45.4913 134.607 45.2869L116.613 42.4918Z" fill="url(#paint1_linear_5533_5745)"/>
<path d="M74.8743 109.437L58.6131 92.8862C56.3223 90.5547 56.3223 86.8186 58.6131 84.4871C60.9629 82.0954 64.8182 82.0955 67.1681 84.4871L75.496 92.9632L104.833 63.1041C107.183 60.7125 111.038 60.7125 113.388 63.1041C115.679 65.4356 115.679 69.1717 113.388 71.5032L76.1176 109.437C75.7761 109.784 75.2158 109.784 74.8743 109.437Z" fill="white"/>
</g>
<defs>
<filter id="filter0_d_5533_5745" x="0" y="0" width="172" height="164" filterUnits="userSpaceOnUse" color-interpolation-filters="sRGB">
<feFlood flood-opacity="0" result="BackgroundImageFix"/>
<feColorMatrix in="SourceAlpha" type="matrix" values="0 0 0 0 0 0 0 0 0 0 0 0 0 0 0 0 0 0 127 0" result="hardAlpha"/>
<feOffset/>
<feGaussianBlur stdDeviation="12"/>
<feComposite in2="hardAlpha" operator="out"/>
<feColorMatrix type="matrix" values="0 0 0 0 0 0 0 0 0 0 0 0 0 0 0 0 0 0 0.3 0"/>
<feBlend mode="normal" in2="BackgroundImageFix" result="effect1_dropShadow_5533_5745"/>
<feBlend mode="normal" in="SourceGraphic" in2="effect1_dropShadow_5533_5745" result="shape"/>
</filter>
<linearGradient id="paint0_linear_5533_5745" x1="40.9807" y1="23.1969" x2="133.874" y2="147.101" gradientUnits="userSpaceOnUse">
<stop stop-color="#EF404A"/>
<stop offset="1" stop-color="#5B12A4"/>
</linearGradient>
<linearGradient id="paint1_linear_5533_5745" x1="39.7802" y1="18.9966" x2="109.309" y2="123.849" gradientUnits="userSpaceOnUse">
<stop stop-color="#FF9F2F"/>
<stop offset="1" stop-color="#FA3C3C"/>
</linearGradient>
</defs>
</svg>
