<svg width="20" height="20" viewBox="0 0 20 20" fill="none" xmlns="http://www.w3.org/2000/svg">
<path fill-rule="evenodd" clip-rule="evenodd" d="M8.50561 14.8451C9.14935 14.6696 9.73554 14.3292 10.2071 13.8576L19.1579 4.90679C20.2807 3.78429 20.2807 1.96437 19.1579 0.841874C18.0356 -0.280625 16.2157 -0.280625 15.0934 0.841874L6.14213 9.79267C5.67055 10.2642 5.33044 10.8508 5.155 11.4942L4.00881 15.6972C3.95969 15.876 4.1239 16.0401 4.30261 15.9913L8.50561 14.8451ZM9.5297 13.1801L18.4805 4.22931C19.229 3.48096 19.229 2.2677 18.4805 1.51935C17.7324 0.770998 16.5189 0.770998 15.7708 1.51935L6.82002 10.4701C6.46633 10.8238 6.2109 11.2638 6.07944 11.7463L5.26401 14.7361L8.25345 13.9207C8.73626 13.7891 9.17602 13.5338 9.5297 13.1801Z" fill="black"/>
<path d="M4.28571 1C1.91878 1 0 2.91878 0 5.28571V15.7143C0 18.0812 1.91878 20 4.28571 20H14.7143C17.0812 20 19 18.0812 19 15.7143V9.09524C19 8.83224 18.7868 8.61905 18.5238 8.61905C18.2608 8.61905 18.0476 8.83224 18.0476 9.09524V15.7143C18.0476 17.5552 16.5552 19.0476 14.7143 19.0476H4.28571C2.44477 19.0476 0.952381 17.5552 0.952381 15.7143V5.28571C0.952381 3.44477 2.44477 1.95238 4.28571 1.95238H10.9048C11.1678 1.95238 11.381 1.73918 11.381 1.47619C11.381 1.2132 11.1678 1 10.9048 1H4.28571Z" fill="black"/>
</svg>
