<svg width="300" height="300" viewBox="0 0 300 300" fill="none" xmlns="http://www.w3.org/2000/svg">
<g clip-path="url(#clip0_5681_6464)">
<circle cx="150" cy="150" r="150" fill="white"/>
<path d="M178.506 276.036C169.645 277.976 160.44 278.999 150.997 278.999C125.077 278.999 100.957 271.295 80.8008 258.051C75.7974 250.894 73.5525 246.955 71.915 244.081C71.1036 242.657 70.4413 241.495 69.6665 240.332C62.0311 228.053 58.0362 212.28 57.1651 193.748C54.4666 136.326 89.3642 99.6573 125.015 93.6387C147.613 89.8235 165.572 93.6872 179.347 101.053C167.169 97.666 152.652 97.4623 136.102 102.2C95.9831 115.131 82.6091 154.451 88.3414 197.994C98.3453 252.555 151.842 272.111 178.506 276.036Z" fill="url(#paint0_linear_5681_6464)"/>
<path d="M64.2387 245.111C56.7762 231.86 50.0184 212.088 49.1739 194.123C46.3092 133.164 83.5628 92.5235 123.683 85.7503C178.371 76.5175 208.775 108.893 219.256 132.923C219.695 132.628 219.873 132.043 219.641 131.539C202.408 94.0662 166.765 68.3331 125.592 68.3331C78.8419 68.3331 37.127 101.869 23 151.71C23.2006 188.642 39.0426 221.871 64.2387 245.111Z" fill="url(#paint1_linear_5681_6464)"/>
<path d="M222.997 256.844C213.764 263.137 203.665 268.253 192.916 271.977C187.755 271.078 182.037 269.959 178.011 269.171C176.103 268.797 174.574 268.498 173.666 268.332C149.318 263.885 105.783 248.195 96.246 196.749C93.5513 176.063 95.4812 157.02 102.316 141.916C109.049 127.035 120.669 115.628 138.39 109.868C158.987 104.257 176.055 107.038 188.732 113.847C185.612 113.189 182.386 112.844 179.085 112.844C151.652 112.844 129.414 136.671 129.414 166.063C129.414 177.799 132.959 188.648 138.966 197.447C138.966 197.447 156.16 229.926 202.966 227.023C244.7 224.434 266.373 186.999 268.956 173.172C270.298 165.986 271 158.575 271 150.999C271 84.7256 217.274 31 151.001 31C100.851 31 57.8866 61.7631 39.9488 105.448C33.8898 113.341 28.6727 122.091 24.4688 131.554C33.8367 70.0899 86.9194 23 151.001 23C221.693 23 279 80.3073 279 150.999C279 194.996 256.803 233.805 222.997 256.844Z" fill="url(#paint2_linear_5681_6464)"/>
<path d="M178.506 276.036C169.645 277.976 160.44 278.999 150.997 278.999C125.077 278.999 100.957 271.295 80.8008 258.051C75.7974 250.894 73.5525 246.955 71.915 244.081C71.1036 242.657 70.4413 241.495 69.6665 240.332C62.0311 228.053 58.0362 212.28 57.1651 193.748C54.4666 136.326 89.3642 99.6573 125.015 93.6387C147.613 89.8235 165.572 93.6872 179.347 101.053C167.169 97.666 152.652 97.4623 136.102 102.2C95.9831 115.131 82.6091 154.451 88.3414 197.994C98.3453 252.555 151.842 272.111 178.506 276.036Z" fill="url(#paint3_linear_5681_6464)"/>
<path d="M64.2387 245.111C56.7762 231.86 50.0184 212.088 49.1739 194.123C46.3092 133.164 83.5628 92.5235 123.683 85.7503C178.371 76.5175 208.775 108.893 219.256 132.923C219.695 132.628 219.873 132.043 219.641 131.539C202.408 94.0662 166.765 68.3331 125.592 68.3331C78.8419 68.3331 37.127 101.869 23 151.71C23.2006 188.642 39.0426 221.871 64.2387 245.111Z" fill="url(#paint4_linear_5681_6464)"/>
<path d="M222.997 256.844C213.764 263.137 203.665 268.253 192.916 271.977C187.755 271.078 182.037 269.959 178.011 269.171C176.103 268.797 174.574 268.498 173.666 268.332C149.318 263.885 105.783 248.195 96.246 196.749C93.5513 176.063 95.4812 157.02 102.316 141.916C109.049 127.035 120.669 115.628 138.39 109.868C158.987 104.257 176.055 107.038 188.732 113.847C185.612 113.189 182.386 112.844 179.085 112.844C151.652 112.844 129.414 136.671 129.414 166.063C129.414 177.799 132.959 188.648 138.966 197.447C138.966 197.447 156.16 229.926 202.966 227.023C244.7 224.434 266.373 186.999 268.956 173.172C270.298 165.986 271 158.575 271 150.999C271 84.7256 217.274 31 151.001 31C100.851 31 57.8866 61.7631 39.9488 105.448C33.8898 113.341 28.6727 122.091 24.4688 131.554C33.8367 70.0899 86.9194 23 151.001 23C221.693 23 279 80.3073 279 150.999C279 194.996 256.803 233.805 222.997 256.844Z" fill="url(#paint5_linear_5681_6464)"/>
<path d="M222.997 256.844C213.764 263.137 203.665 268.253 192.916 271.977C187.755 271.078 182.037 269.959 178.011 269.171C176.103 268.797 174.574 268.498 173.666 268.332C149.318 263.885 105.783 248.195 96.246 196.749C93.5513 176.063 95.4812 157.02 102.316 141.916C109.049 127.035 120.669 115.628 138.39 109.868C158.987 104.257 176.055 107.038 188.732 113.847C185.612 113.189 182.386 112.844 179.085 112.844C151.652 112.844 129.414 136.671 129.414 166.063C129.414 177.799 132.959 188.648 138.966 197.447C138.966 197.447 156.16 229.926 202.966 227.023C244.7 224.434 266.373 186.999 268.956 173.172C270.298 165.986 271 158.575 271 150.999C271 84.7256 217.274 31 151.001 31C100.851 31 57.8866 61.7631 39.9488 105.448C33.8898 113.341 28.6727 122.091 24.4688 131.554C33.8367 70.0899 86.9194 23 151.001 23C221.693 23 279 80.3073 279 150.999C279 194.996 256.803 233.805 222.997 256.844Z" fill="url(#paint6_linear_5681_6464)"/>
</g>
<defs>
<linearGradient id="paint0_linear_5681_6464" x1="102.936" y1="129.044" x2="102.74" y2="242.805" gradientUnits="userSpaceOnUse">
<stop offset="0.0297309" stop-color="#FA3C3C"/>
<stop offset="1" stop-color="#BC1870"/>
</linearGradient>
<linearGradient id="paint1_linear_5681_6464" x1="85.5099" y1="75.0175" x2="79.1717" y2="188.81" gradientUnits="userSpaceOnUse">
<stop stop-color="#FF9F2F"/>
<stop offset="1" stop-color="#FA3C3C"/>
</linearGradient>
<linearGradient id="paint2_linear_5681_6464" x1="174.999" y1="276.332" x2="175.351" y2="144.334" gradientUnits="userSpaceOnUse">
<stop stop-color="#5B09AD"/>
<stop offset="1" stop-color="#BC1870"/>
</linearGradient>
<linearGradient id="paint3_linear_5681_6464" x1="102.936" y1="129.044" x2="102.74" y2="242.805" gradientUnits="userSpaceOnUse">
<stop offset="0.0297309" stop-color="#2394EF"/>
<stop offset="1" stop-color="#3861E4"/>
</linearGradient>
<linearGradient id="paint4_linear_5681_6464" x1="85.5099" y1="75.0175" x2="79.1717" y2="188.81" gradientUnits="userSpaceOnUse">
<stop stop-color="#02E1FF"/>
<stop offset="1" stop-color="#2394EF"/>
</linearGradient>
<linearGradient id="paint5_linear_5681_6464" x1="138.487" y1="280.993" x2="138.932" y2="114.109" gradientUnits="userSpaceOnUse">
<stop stop-color="#5A10D2"/>
<stop offset="1" stop-color="#3861E4"/>
</linearGradient>
<linearGradient id="paint6_linear_5681_6464" x1="174.999" y1="276.332" x2="175.351" y2="144.334" gradientUnits="userSpaceOnUse">
<stop stop-color="#5B12A4"/>
<stop offset="1" stop-color="#3861E4"/>
</linearGradient>
<clipPath id="clip0_5681_6464">
<rect width="300" height="300" fill="white"/>
</clipPath>
</defs>
</svg>
