<svg width="183" height="62" viewBox="0 0 183 62" fill="none" xmlns="http://www.w3.org/2000/svg">
<path d="M0.334473 61.6676H11.426V44.6123C12.4235 45.7385 13.6487 46.6481 15.1015 47.3411C16.5761 48.0342 18.4192 48.3807 20.631 48.3807C24.4475 48.3807 27.5483 47.0054 29.9336 44.2549C32.3189 41.5044 33.5115 37.7901 33.5115 33.1121V32.0726C33.5115 27.3079 32.3514 23.6153 30.0312 20.9947C27.711 18.3742 24.6318 17.0639 20.7937 17.0639C18.6035 17.0639 16.6736 17.4862 15.0039 18.3308C13.3342 19.1755 12.0982 20.2259 11.2959 21.482H11.1983V17.8436H0.334473V61.6676ZM11.426 37.1729V28.3691C11.7947 27.3945 12.4343 26.5499 13.3451 25.8352C14.2558 25.0988 15.3834 24.7306 16.7278 24.7306C18.5927 24.7306 19.9805 25.3695 20.8912 26.6473C21.8237 27.9035 22.2899 29.6252 22.2899 31.8127V33.5344C22.2899 35.6785 21.8237 37.4436 20.8912 38.8297C19.9805 40.1941 18.571 40.8763 16.6628 40.8763C15.3834 40.8763 14.2884 40.5082 13.3776 39.7718C12.4669 39.0138 11.8163 38.1475 11.426 37.1729Z" fill="#333333"/>
<path d="M37.4798 47.7309H48.8966V30.2533C49.7206 28.7589 50.8265 27.5678 52.2143 26.6798C53.6021 25.7702 55.0007 25.3154 56.4102 25.3154C57.1258 25.3154 57.7763 25.3587 58.3618 25.4453C58.9473 25.5103 59.4352 25.6294 59.8255 25.8027V17.6811C59.6087 17.5945 59.2075 17.5187 58.622 17.4537C58.0366 17.3671 57.4185 17.3238 56.768 17.3238C55.0116 17.3238 53.4503 17.7569 52.0842 18.6232C50.7398 19.4895 49.6339 20.6157 48.7665 22.0018H48.734V17.8436H37.4798V47.7309Z" fill="#333333"/>
<path d="M62.818 47.7309H74.1372V17.8436H62.818V47.7309ZM62.265 7.35048C62.265 8.90982 62.7963 10.2526 63.8588 11.3788C64.9213 12.4833 66.4501 13.0356 68.445 13.0356C70.44 13.0356 71.9796 12.4833 73.0638 11.3788C74.1697 10.2526 74.7227 8.89899 74.7227 7.31799C74.7227 5.71533 74.1914 4.38339 73.1289 3.32217C72.0663 2.26096 70.5267 1.73035 68.5101 1.73035C66.5151 1.73035 64.9755 2.27178 63.8913 3.35466C62.8071 4.41588 62.265 5.74782 62.265 7.35048Z" fill="#333333"/>
<path d="M79.6992 47.7309H90.8233V28.9539C91.322 27.8926 91.9617 27.0155 92.7424 26.3225C93.5447 25.6078 94.4988 25.2504 95.6047 25.2504C96.8407 25.2504 97.7948 25.5861 98.467 26.2575C99.1609 26.9289 99.5079 28.1092 99.5079 29.7985V47.7309H110.664V28.9539C111.163 27.871 111.814 26.983 112.616 26.29C113.418 25.5969 114.373 25.2504 115.478 25.2504C116.714 25.2504 117.669 25.5861 118.341 26.2575C119.013 26.9072 119.349 28.0876 119.349 29.7985V47.7309H130.506V27.9143C130.506 24.0159 129.606 21.233 127.806 19.5653C126.006 17.876 123.61 17.0314 120.618 17.0314C118.254 17.0314 116.118 17.5187 114.21 18.4933C112.302 19.4462 110.773 20.7673 109.624 22.4566H109.559C108.973 20.6807 107.889 19.3379 106.306 18.4283C104.723 17.5187 102.836 17.0639 100.646 17.0639C98.3912 17.0639 96.4287 17.5295 94.759 18.4608C93.0893 19.3921 91.734 20.659 90.6932 22.2617H90.5956V17.876H79.6992V47.7309Z" fill="#333333"/>
<path d="M134.344 39.1546C134.344 42.1 135.265 44.3415 137.109 45.8792C138.973 47.3953 141.532 48.1533 144.785 48.1533C147.517 48.1533 149.783 47.6876 151.583 46.7564C153.404 45.8034 154.684 44.7422 155.421 43.5727C155.508 44.374 155.638 45.132 155.811 45.8467C156.006 46.5614 156.278 47.1895 156.624 47.7309H167.586V47.2761C167.152 46.4532 166.827 45.4894 166.61 44.3849C166.393 43.2803 166.285 42.1 166.285 40.8439V27.8493C166.285 24.0593 165.092 21.3196 162.707 19.6303C160.322 17.9194 156.7 17.0639 151.843 17.0639C147.051 17.0639 143.278 17.941 140.524 19.6953C137.792 21.4279 136.426 23.7344 136.426 26.6149V27.427L146.541 27.4595V26.7773C146.541 25.6511 146.921 24.7848 147.68 24.1784C148.46 23.5503 149.577 23.2363 151.03 23.2363C152.504 23.2363 153.567 23.5936 154.218 24.3083C154.868 25.023 155.193 26.0518 155.193 27.3945V29.3112H147.55C143.538 29.3112 140.329 30.21 137.922 32.0076C135.536 33.7835 134.344 36.1658 134.344 39.1546ZM145.305 38.3424C145.305 37.0213 145.782 36.09 146.736 35.5486C147.691 35.0071 149.154 34.7364 151.128 34.7364H155.193V37.043C155.193 38.3424 154.597 39.5119 153.404 40.5515C152.233 41.591 150.922 42.1108 149.469 42.1108C148.124 42.1108 147.094 41.7968 146.379 41.1687C145.663 40.5406 145.305 39.5985 145.305 38.3424Z" fill="#333333"/>
<path d="M171.782 47.7309H183.004V0.333435H171.782V47.7309Z" fill="#333333"/>
</svg>
