<svg width="30" height="30" viewBox="0 0 30 30" fill="none" xmlns="http://www.w3.org/2000/svg">
<g clip-path="url(#clip0_4459_6777)">
<path d="M18.2232 29.6526C17.1848 29.88 16.1061 29.9999 14.9995 29.9999C11.962 29.9999 9.13538 29.097 6.77336 27.5451C6.18703 26.7064 5.92396 26.2447 5.73206 25.9079C5.63697 25.741 5.55936 25.6048 5.46856 25.4686C4.57379 24.0296 4.10564 22.1813 4.00356 20.0095C3.68733 13.2803 7.77689 8.9832 11.9547 8.27789C14.6029 7.83079 16.7076 8.28357 18.3218 9.14681C16.8946 8.74984 15.1934 8.72597 13.254 9.28117C8.55255 10.7965 6.98528 15.4044 7.65703 20.5071C8.82937 26.901 15.0985 29.1927 18.2232 29.6526Z" fill="white"/>
<path d="M4.83265 26.0287C3.95815 24.4759 3.16622 22.1589 3.06726 20.0536C2.73155 12.9099 7.0972 8.14732 11.7988 7.35358C18.2076 6.27161 21.7705 10.0657 22.9988 12.8817C23.0502 12.8471 23.071 12.7785 23.0439 12.7195C21.0244 8.32811 16.8474 5.3125 12.0226 5.3125C6.54398 5.3125 1.6555 9.24251 0 15.0832C0.0235117 19.4112 1.87999 23.3053 4.83265 26.0287Z" fill="white"/>
<path d="M23.4369 27.4037C22.3549 28.1411 21.1714 28.7407 19.9118 29.1771C19.307 29.0718 18.6369 28.9406 18.1651 28.8483C17.9415 28.8045 17.7624 28.7694 17.6559 28.75C14.8026 28.2288 9.70094 26.3902 8.58327 20.3613C8.26749 17.9371 8.49365 15.7056 9.29455 13.9355C10.0836 12.1916 11.4453 10.8548 13.522 10.1799C15.9357 9.52231 17.9359 9.84822 19.4215 10.6462C19.0558 10.569 18.6778 10.5286 18.291 10.5286C15.0762 10.5286 12.4701 13.3208 12.4701 16.7652C12.4701 18.1406 12.8856 19.412 13.5895 20.4431C13.5895 20.4431 15.6044 24.2492 21.0895 23.909C25.9802 23.6057 28.52 19.2188 28.8227 17.5984C28.98 16.7563 29.0623 15.8877 29.0623 15C29.0623 7.2335 22.7663 0.9375 14.9998 0.9375C9.12292 0.9375 4.08803 4.54257 1.98594 9.6619C1.27591 10.5869 0.664526 11.6123 0.171875 12.7212C1.26968 5.51837 7.49031 0 14.9998 0C23.2841 0 29.9998 6.71573 29.9998 15C29.9998 20.1558 27.3985 24.7038 23.4369 27.4037Z" fill="white"/>
</g>
<defs>
<clipPath id="clip0_4459_6777">
<rect width="30" height="30" rx="15" fill="white"/>
</clipPath>
</defs>
</svg>
