<?xml version="1.0" encoding="UTF-8" standalone="no"?>
<svg
   width="23.999987"
   height="22.000034"
   viewBox="0 0 23.999987 22.000034"
   fill="none"
   version="1.1"
   id="svg4"
   sodipodi:docname="purple_check.svg"
   xmlns:inkscape="http://www.inkscape.org/namespaces/inkscape"
   xmlns:sodipodi="http://sodipodi.sourceforge.net/DTD/sodipodi-0.dtd"
   xmlns="http://www.w3.org/2000/svg"
   xmlns:svg="http://www.w3.org/2000/svg">
  <sodipodi:namedview
     id="namedview4"
     pagecolor="#ffffff"
     bordercolor="#000000"
     borderopacity="0.25"
     inkscape:showpageshadow="2"
     inkscape:pageopacity="0.0"
     inkscape:pagecheckerboard="0"
     inkscape:deskcolor="#d1d1d1">
    <inkscape:page
       x="0"
       y="0"
       width="23.999987"
       height="22.000034"
       id="page2"
       margin="0"
       bleed="0" />
  </sodipodi:namedview>
  <path
     d="M 17.925,3.50707 C 17.7788,3.48482 17.6521,3.39569 17.5839,3.26706 L 15.982,0.245506 C 15.865,0.0248151 15.5889,-0.0630608 15.3618,0.0481424 L 12.2068,1.59323 C 12.0759,1.6573 11.9219,1.65729 11.7911,1.59322 L 8.6392,0.0495695 C 8.41212,-0.0616453 8.13594,0.0262392 8.01895,0.246947 L 6.41786,3.26731 C 6.34968,3.39593 6.22306,3.48506 6.07687,3.50733 L 2.59289,4.03824 C 2.33828,4.07704 2.16451,4.31134 2.20554,4.56052 L 2.7543,7.89259 C 2.77831,8.03838 2.72863,8.18652 2.62103,8.28996 L 0.13920698,10.6758 c -0.185627,0.1784 -0.1856066,0.4714 4.5e-5,0.6498 L 2.62136,13.711 c 0.10765,0.1035 0.15735,0.2517 0.13331,0.3975 l -0.54926,3.3318 c -0.04109,0.2493 0.13276,0.4837 0.38747,0.5224 l 3.4858,0.5302 c 0.14627,0.0222 0.27297,0.1114 0.34116,0.2401 l 1.60065,3.0206 c 0.11699,0.2208 0.39324,0.3087 0.62036,0.1974 L 11.791,20.4076 c 0.1309,-0.0641 0.2849,-0.0641 0.4157,0 l 3.1531,1.5443 c 0.2271,0.1112 0.5033,0.0233 0.6203,-0.1974 l 1.6017,-3.0215 c 0.0682,-0.1287 0.1949,-0.2178 0.3411,-0.2401 l 3.4841,-0.5301 c 0.2546,-0.0387 0.4285,-0.2731 0.3874,-0.5223 l -0.5487,-3.332 c -0.024,-0.1458 0.0257,-0.2939 0.1333,-0.3973 l 2.4818,-2.3859 c 0.1856,-0.1784 0.1856,-0.4713 -10e-5,-0.6498 L 21.3787,8.2901 C 21.271,8.18664 21.2213,8.03842 21.2454,7.89257 L 21.7952,4.55958 C 21.8363,4.31034 21.6625,4.07594 21.4078,4.03717 Z"
     fill="url(#paint0_linear_294_4061)"
     id="path1"
     style="fill:url(#paint0_linear_294_4061)" />
  <path
     d="M 17.925,3.50707 C 17.7788,3.48482 17.6521,3.39569 17.5839,3.26706 L 15.982,0.245506 C 15.865,0.0248151 15.5889,-0.0630608 15.3618,0.0481424 L 12.2068,1.59323 C 12.0759,1.6573 11.9219,1.65729 11.7911,1.59322 L 8.6392,0.0495695 C 8.41212,-0.0616453 8.13594,0.0262392 8.01895,0.246947 L 6.41786,3.26731 C 6.34968,3.39593 6.22306,3.48506 6.07687,3.50733 L 2.59289,4.03824 C 2.33828,4.07704 2.16451,4.31134 2.20554,4.56052 L 2.7543,7.89259 C 2.77831,8.03838 2.72863,8.18652 2.62103,8.28996 L 0.13920698,10.6758 c -0.185627,0.1784 -0.1856066,0.4714 4.5e-5,0.6498 L 2.62136,13.711 c 0.10765,0.1035 0.15735,0.2517 0.13331,0.3975 l -0.54926,3.3318 c -0.04109,0.2493 0.13276,0.4837 0.38747,0.5224 l 3.4858,0.5302 c 0.14627,0.0222 0.27297,0.1114 0.34116,0.2401 l 1.60065,3.0206 c 0.11699,0.2208 0.39324,0.3087 0.62036,0.1974 L 11.791,20.4076 c 0.1309,-0.0641 0.2849,-0.0641 0.4157,0 l 3.1531,1.5443 c 0.2271,0.1112 0.5033,0.0233 0.6203,-0.1974 l 1.6017,-3.0215 c 0.0682,-0.1287 0.1949,-0.2178 0.3411,-0.2401 l 3.4841,-0.5301 c 0.2546,-0.0387 0.4285,-0.2731 0.3874,-0.5223 l -0.5487,-3.332 c -0.024,-0.1458 0.0257,-0.2939 0.1333,-0.3973 l 2.4818,-2.3859 c 0.1856,-0.1784 0.1856,-0.4713 -10e-5,-0.6498 L 21.3787,8.2901 C 21.271,8.18664 21.2213,8.03842 21.2454,7.89257 L 21.7952,4.55958 C 21.8363,4.31034 21.6625,4.07594 21.4078,4.03717 Z"
     fill="#CA077C"
     id="path2"
     style="fill:#e47c00;fill-opacity:1" />
  <path
     d="M 9.84657,16.0513 6.69922,12.9124 c -0.44336,-0.4422 -0.44336,-1.1508 0,-1.5929 0.45481,-0.4536 1.20101,-0.4536 1.65581,0 L 9.96688,12.927 15.645,7.26406 c 0.4548,-0.45359 1.201,-0.45359 1.6558,0 0.4434,0.44218 0.4434,1.15076 0,1.59293 l -7.2136,7.19431 c -0.0661,0.0659 -0.17454,0.0659 -0.24063,0 z"
     fill="#ffffff"
     id="path3" />
  <defs
     id="defs4">
    <linearGradient
       id="paint0_linear_294_4061"
       x1="3.2865801"
       y1="-0.15231299"
       x2="20.8009"
       y2="23.6884"
       gradientUnits="userSpaceOnUse">
      <stop
         stop-color="#EF404A"
         id="stop3" />
      <stop
         offset="1"
         stop-color="#5B12A4"
         id="stop4" />
    </linearGradient>
  </defs>
</svg>
