<svg width="24" height="22" viewBox="0 0 24 22" fill="none" xmlns="http://www.w3.org/2000/svg">
<path d="M17.925 3.50707C17.7788 3.48482 17.6521 3.39569 17.5839 3.26706L15.982 0.245506C15.865 0.0248151 15.5889 -0.0630608 15.3618 0.0481424L12.2068 1.59323C12.0759 1.6573 11.9219 1.65729 11.7911 1.59322L8.6392 0.0495695C8.41212 -0.0616453 8.13594 0.0262392 8.01895 0.246947L6.41786 3.26731C6.34968 3.39593 6.22306 3.48506 6.07687 3.50733L2.59289 4.03824C2.33828 4.07704 2.16451 4.31134 2.20554 4.56052L2.7543 7.89259C2.77831 8.03838 2.72863 8.18652 2.62103 8.28996L0.139207 10.6758C-0.04642 10.8542 -0.0463996 11.1472 0.139252 11.3256L2.62136 13.711C2.72901 13.8145 2.77871 13.9627 2.75467 14.1085L2.20541 17.4403C2.16432 17.6896 2.33817 17.924 2.59288 17.9627L6.07868 18.4929C6.22495 18.5151 6.35165 18.6043 6.41984 18.733L8.02049 21.7536C8.13748 21.9744 8.41373 22.0623 8.64085 21.951L11.791 20.4076C11.9219 20.3435 12.0759 20.3435 12.2067 20.4076L15.3598 21.9519C15.5869 22.0631 15.8631 21.9752 15.9801 21.7545L17.5818 18.733C17.65 18.6043 17.7767 18.5152 17.9229 18.4929L21.407 17.9628C21.6616 17.9241 21.8355 17.6897 21.7944 17.4405L21.2457 14.1085C21.2217 13.9627 21.2714 13.8146 21.379 13.7112L23.8608 11.3253C24.0464 11.1469 24.0464 10.854 23.8607 10.6755L21.3787 8.2901C21.271 8.18664 21.2213 8.03842 21.2454 7.89257L21.7952 4.55958C21.8363 4.31034 21.6625 4.07594 21.4078 4.03717L17.925 3.50707Z" fill="url(#paint0_linear_294_4061)"/>
<path d="M17.925 3.50707C17.7788 3.48482 17.6521 3.39569 17.5839 3.26706L15.982 0.245506C15.865 0.0248151 15.5889 -0.0630608 15.3618 0.0481424L12.2068 1.59323C12.0759 1.6573 11.9219 1.65729 11.7911 1.59322L8.6392 0.0495695C8.41212 -0.0616453 8.13594 0.0262392 8.01895 0.246947L6.41786 3.26731C6.34968 3.39593 6.22306 3.48506 6.07687 3.50733L2.59289 4.03824C2.33828 4.07704 2.16451 4.31134 2.20554 4.56052L2.7543 7.89259C2.77831 8.03838 2.72863 8.18652 2.62103 8.28996L0.139207 10.6758C-0.04642 10.8542 -0.0463996 11.1472 0.139252 11.3256L2.62136 13.711C2.72901 13.8145 2.77871 13.9627 2.75467 14.1085L2.20541 17.4403C2.16432 17.6896 2.33817 17.924 2.59288 17.9627L6.07868 18.4929C6.22495 18.5151 6.35165 18.6043 6.41984 18.733L8.02049 21.7536C8.13748 21.9744 8.41373 22.0623 8.64085 21.951L11.791 20.4076C11.9219 20.3435 12.0759 20.3435 12.2067 20.4076L15.3598 21.9519C15.5869 22.0631 15.8631 21.9752 15.9801 21.7545L17.5818 18.733C17.65 18.6043 17.7767 18.5152 17.9229 18.4929L21.407 17.9628C21.6616 17.9241 21.8355 17.6897 21.7944 17.4405L21.2457 14.1085C21.2217 13.9627 21.2714 13.8146 21.379 13.7112L23.8608 11.3253C24.0464 11.1469 24.0464 10.854 23.8607 10.6755L21.3787 8.2901C21.271 8.18664 21.2213 8.03842 21.2454 7.89257L21.7952 4.55958C21.8363 4.31034 21.6625 4.07594 21.4078 4.03717L17.925 3.50707Z" fill="#CA077C"/>
<path d="M9.84657 16.0513L6.69922 12.9124C6.25586 12.4702 6.25586 11.7616 6.69922 11.3195C7.15403 10.8659 7.90023 10.8659 8.35503 11.3195L9.96688 12.927L15.645 7.26406C16.0998 6.81047 16.846 6.81047 17.3008 7.26406C17.7442 7.70624 17.7442 8.41482 17.3008 8.85699L10.0872 16.0513C10.0211 16.1172 9.91266 16.1172 9.84657 16.0513Z" fill="white"/>
<defs>
<linearGradient id="paint0_linear_294_4061" x1="3.28658" y1="-0.152313" x2="20.8009" y2="23.6884" gradientUnits="userSpaceOnUse">
<stop stop-color="#EF404A"/>
<stop offset="1" stop-color="#5B12A4"/>
</linearGradient>
</defs>
</svg>
