<svg width="96" height="109" viewBox="0 0 96 109" fill="none" xmlns="http://www.w3.org/2000/svg">
<path d="M74.2309 34.628C74.7505 34.8462 75.2615 34.9921 75.6989 34.9921C76.0583 34.9921 76.368 34.8962 76.7308 34.7837C77.244 34.6247 77.8635 34.4327 78.8798 34.4327C80.0025 34.4327 80.5803 34.5003 81.1752 34.5698C81.8061 34.6436 82.4562 34.7196 83.7957 34.7196C90.1575 33.2849 90.4467 27.8331 90.4467 27.8331C90.4467 22.8761 89.0025 21.5845 87.3339 20.0924C87.0271 19.818 86.7127 19.5369 86.3983 19.2249C82.3499 16.3555 79.7473 13.7731 78.8798 10.6167C77.4905 5.56197 78.8798 3.44327 79.4582 2.58245C79.5408 2.45948 79.6234 2.31894 79.7119 2.16836C80.243 1.26487 80.9866 0 83.2174 0C84.9325 0 86.3964 1.12154 87.6092 2.05066C88.2367 2.53141 88.797 2.96064 89.29 3.15633C89.8672 3.38542 90.9973 3.66022 92.1654 3.94425C93.9234 4.37174 95.7673 4.82011 95.941 5.16491C96.113 5.3356 95.8757 5.60783 95.6552 5.8608C95.505 6.03308 95.3626 6.19642 95.3626 6.31266C95.3626 6.43152 95.4619 6.5996 95.5781 6.79652C95.7425 7.07502 95.941 7.41119 95.941 7.74736C95.941 8.12777 93.1456 8.00385 91.1766 7.91656C90.1752 7.87217 89.3875 7.83726 89.29 7.88298C89.2273 7.91237 89.0017 7.93613 88.6808 7.96992C87.5208 8.09205 85.1163 8.34523 84.6633 9.46899C84.3741 10.9037 85.2416 11.7645 85.5308 12.0514C85.5863 12.1066 85.7913 12.257 86.1068 12.4885C87.4333 13.4621 90.7131 15.8693 93.0493 18.651C95.702 21.8097 95.6779 24.7269 95.6558 27.4027C95.6538 27.6438 95.6518 27.8829 95.6518 28.12C95.6518 30.9894 93.9168 34.1458 92.1817 36.7282C90.4467 39.3107 87.555 42.467 83.7957 44.1886C80.6149 45.6233 80.904 47.058 80.904 47.058V50.7882L80.8922 50.7927C80.5976 57.9726 74.7595 63.7005 61.2403 63.7005C61.1433 63.7005 61.0466 63.7 60.9503 63.6989L60.9511 63.7005L60.8288 63.6972C60.6448 63.6943 60.462 63.6894 60.2803 63.6825L59.0558 63.6497C58.5279 63.8222 58.0464 64.1045 57.7702 64.5613C56.9027 65.996 54.8785 67.1438 54.8785 67.1438C54.8785 67.1438 54.011 67.4307 53.4326 68.0046C52.8543 68.5785 51.4084 70.874 51.6976 71.1609C51.9868 71.4479 62.1078 68.0046 62.1078 68.0046C62.1078 68.0046 69.3371 65.4221 71.6505 65.4221C71.7309 65.4221 71.8188 65.4197 71.913 65.417C72.8348 65.3911 74.3604 65.3483 75.4097 67.4307C76.2772 68.8654 78.8798 72.5956 78.8798 72.5956C78.8798 72.5956 80.6149 74.8911 79.7473 75.7519C79.1689 76.0389 77.1448 75.1781 76.2773 74.3172C75.9881 74.0303 75.6989 73.6477 75.4097 73.2651C74.8314 72.5 74.2531 71.7348 73.6747 71.7348C73.4128 71.8647 73.5067 72.4065 73.6073 72.9871C73.7288 73.6887 73.8602 74.4472 73.3855 74.6042C73.3566 74.6042 73.3248 74.6071 73.2898 74.6102C72.9749 74.6386 72.4024 74.6903 71.3613 72.8826C71.0721 72.3087 71.0721 71.8065 71.0721 71.412C71.0722 71.0174 71.0722 70.7305 70.783 70.587C69.9155 70.1566 65.5779 71.4479 65.5779 71.4479C65.5779 71.4479 52.8543 75.465 52.276 75.7519C52.1822 75.7984 52.0315 75.9008 51.8368 76.033C50.8295 76.7168 48.6441 78.2006 47.0708 76.8997C45.4224 75.5367 45.8621 73.3966 46.1582 71.956C46.1737 71.8804 46.1889 71.8063 46.2033 71.7348C46.4925 70.3001 48.5167 66.5699 48.5167 66.5699V65.5279L43.3116 67.4307C43.3116 67.4307 34.3473 74.0303 34.0581 74.6042C33.9698 74.7793 33.8816 75.0346 33.7769 75.3374C33.5386 76.027 33.215 76.963 32.6122 77.7605C31.7447 78.9083 29.1422 79.4822 29.1422 79.4822L16.7077 95.8377C16.7077 95.8377 14.6836 99.281 14.1052 100.142C13.5268 101.003 11.2134 103.011 11.2134 103.011C11.2134 103.011 9.18924 105.307 8.03257 107.889C8.03257 107.889 6.87586 110.185 6.29753 108.176C5.71916 105.307 6.87588 102.724 7.45422 101.576C7.70511 101.079 8.06484 100.689 8.36815 100.36C8.76402 99.9308 9.06379 99.6059 8.90006 99.281C8.63064 99.0136 8.2357 99.2444 7.8322 99.4803C7.36954 99.7507 6.89562 100.028 6.58671 99.5679C6.5164 99.4632 6.00836 98.1332 8.03257 96.2186C8.03257 96.2186 8.90008 94.9769 12.081 94.403C13.816 93.8291 14.6835 92.1075 14.6835 92.1075C14.6835 92.1075 25.0937 77.7605 25.3829 77.1866C25.476 77.002 25.5091 76.6391 25.5498 76.1935C25.6357 75.2544 25.7551 73.9479 26.5396 73.1695C27.5938 72.1235 28.8016 71.8401 29.6029 71.6521C29.9005 71.5823 30.1422 71.5256 30.2988 71.4479C30.8772 71.1609 37.5282 65.1352 37.5282 65.1352L39.5524 62.5527L39.2976 61.6682C37.5725 61.3602 36.0758 61.0641 35.2148 60.8311C32.0358 59.9708 27.1238 58.5373 23.3655 55.6714C22.2061 55.5914 20.5136 55.6529 18.4428 56.2399C18.4428 56.2399 14.6835 56.814 11.2135 59.3963C11.2108 59.3982 11.2055 59.4029 11.1978 59.4097C11.0521 59.5382 10.0422 60.4287 9.7676 58.2487C9.7676 58.1507 9.75916 58.0443 9.74949 57.9224C9.70256 57.3306 9.6266 56.3728 10.3459 54.2313C10.3459 53.9443 10.1545 53.2731 7.74339 55.666C7.48656 55.9209 7.2428 56.2261 7.00049 56.5295C6.42433 57.2509 5.85642 57.9619 5.14084 57.9616C4.85167 57.9614 3.98415 57.6749 3.98415 55.6662C3.98415 54.5528 4.42839 53.4394 4.77513 52.5704C5.05394 51.8717 5.26973 51.3309 5.14084 51.075C5.00237 50.8001 4.00188 51.2491 2.93319 51.7287C1.77014 52.2507 0.526309 52.8089 0.22491 52.5097C-0.0642553 52.2226 -0.642614 50.5013 2.82746 45.6233C3.69498 44.4754 6.5867 41.0322 11.2135 40.4583C15.2254 39.9607 15.976 40.5417 16.6702 41.0791C16.7765 41.1614 16.8817 41.2428 16.9969 41.3191C17.352 41.554 17.9008 41.5967 18.4253 41.5651C18.3042 41.2763 17.5998 39.549 17.8644 39.0237C18.0334 38.6883 18.7951 38.745 20.207 38.85C21.211 38.9246 22.5439 39.0237 24.2262 39.0237C28.2746 39.0237 32.0339 37.3021 32.0339 37.3021L43.5993 31.8373C47.2437 29.8752 51.9405 28.6939 57.0667 28.6939C64.302 28.6939 70.5543 31.0473 74.2309 34.628Z" fill="#CA077C"/>
</svg>
