<svg width="20" height="20" viewBox="0 0 20 20" fill="none" xmlns="http://www.w3.org/2000/svg">
<path d="M3.18182 3.68176C3.18182 3.40562 3.40568 3.18176 3.68182 3.18176H5.4091C5.68524 3.18176 5.9091 3.40562 5.9091 3.68176V5.40904C5.9091 5.68518 5.68524 5.90904 5.4091 5.90904H3.68182C3.40568 5.90904 3.18182 5.68518 3.18182 5.40904V3.68176Z" fill="#AAAAAA"/>
<path fill-rule="evenodd" clip-rule="evenodd" d="M1.81818 0C0.814028 0 0 0.814028 0 1.81818V7.27273C0 8.27688 0.814028 9.09091 1.81818 9.09091H7.27273C8.27688 9.09091 9.09091 8.27688 9.09091 7.27273V1.81818C9.09091 0.814028 8.27688 0 7.27273 0H1.81818ZM7.27273 1.36364H1.81818C1.56714 1.36364 1.36364 1.56714 1.36364 1.81818V7.27273C1.36364 7.52377 1.56714 7.72727 1.81818 7.72727H7.27273C7.52377 7.72727 7.72727 7.52377 7.72727 7.27273V1.81818C7.72727 1.56714 7.52377 1.36364 7.27273 1.36364Z" fill="#AAAAAA"/>
<path d="M14.0909 3.68176C14.0909 3.40562 14.3148 3.18176 14.5909 3.18176H16.3182C16.5943 3.18176 16.8182 3.40562 16.8182 3.68176V5.40904C16.8182 5.68518 16.5943 5.90904 16.3182 5.90904H14.5909C14.3148 5.90904 14.0909 5.68518 14.0909 5.40904V3.68176Z" fill="#AAAAAA"/>
<path fill-rule="evenodd" clip-rule="evenodd" d="M10.9091 1.81818C10.9091 0.814028 11.7231 0 12.7273 0H18.1818C19.186 0 20 0.814028 20 1.81818V7.27273C20 8.27688 19.186 9.09091 18.1818 9.09091H12.7273C11.7231 9.09091 10.9091 8.27688 10.9091 7.27273V1.81818ZM12.7273 1.36364H18.1818C18.4329 1.36364 18.6364 1.56714 18.6364 1.81818V7.27273C18.6364 7.52377 18.4329 7.72727 18.1818 7.72727H12.7273C12.4762 7.72727 12.2727 7.52377 12.2727 7.27273V1.81818C12.2727 1.56714 12.4762 1.36364 12.7273 1.36364Z" fill="#AAAAAA"/>
<path d="M3.18182 14.5909C3.18182 14.3148 3.40568 14.0909 3.68182 14.0909H5.4091C5.68524 14.0909 5.9091 14.3148 5.9091 14.5909V16.3182C5.9091 16.5944 5.68524 16.8182 5.4091 16.8182H3.68182C3.40568 16.8182 3.18182 16.5944 3.18182 16.3182V14.5909Z" fill="#AAAAAA"/>
<path fill-rule="evenodd" clip-rule="evenodd" d="M0 12.7272C0 11.7231 0.814028 10.9091 1.81818 10.9091H7.27273C8.27688 10.9091 9.09091 11.7231 9.09091 12.7272V18.1818C9.09091 19.1859 8.27688 20 7.27273 20H1.81818C0.814028 20 0 19.1859 0 18.1818V12.7272ZM1.81818 12.2727H7.27273C7.52377 12.2727 7.72727 12.4762 7.72727 12.7272V18.1818C7.72727 18.4328 7.52377 18.6363 7.27273 18.6363H1.81818C1.56714 18.6363 1.36364 18.4328 1.36364 18.1818V12.7272C1.36364 12.4762 1.56714 12.2727 1.81818 12.2727Z" fill="#AAAAAA"/>
<path d="M11.4091 10.9091C11.1329 10.9091 10.9091 11.1329 10.9091 11.4091V13.1363C10.9091 13.4125 11.1329 13.6363 11.4091 13.6363H13.1364C13.4125 13.6363 13.6364 13.4125 13.6364 13.1363V11.4091C13.6364 11.1329 13.4125 10.9091 13.1364 10.9091H11.4091Z" fill="#AAAAAA"/>
<path d="M14.0909 14.5909C14.0909 14.3148 14.3148 14.0909 14.5909 14.0909H16.3182C16.5943 14.0909 16.8182 14.3148 16.8182 14.5909V16.3182C16.8182 16.5944 16.5943 16.8182 16.3182 16.8182H14.5909C14.3148 16.8182 14.0909 16.5944 14.0909 16.3182V14.5909Z" fill="#AAAAAA"/>
<path d="M17.7727 17.2727C17.4966 17.2727 17.2727 17.4966 17.2727 17.7727V19.5C17.2727 19.7761 17.4966 20 17.7727 20H19.5C19.7761 20 20 19.7761 20 19.5V17.7727C20 17.4966 19.7761 17.2727 19.5 17.2727H17.7727Z" fill="#AAAAAA"/>
<path d="M10.9091 17.7727C10.9091 17.4966 11.1329 17.2727 11.4091 17.2727H13.1364C13.4125 17.2727 13.6364 17.4966 13.6364 17.7727V19.5C13.6364 19.7761 13.4125 20 13.1364 20H11.4091C11.1329 20 10.9091 19.7761 10.9091 19.5V17.7727Z" fill="#AAAAAA"/>
<path d="M17.7727 10.9091C17.4966 10.9091 17.2727 11.1329 17.2727 11.4091V13.1363C17.2727 13.4125 17.4966 13.6363 17.7727 13.6363H19.5C19.7761 13.6363 20 13.4125 20 13.1363V11.4091C20 11.1329 19.7761 10.9091 19.5 10.9091H17.7727Z" fill="#AAAAAA"/>
</svg>
