<svg width="68" height="68" viewBox="0 0 68 68" fill="none" xmlns="http://www.w3.org/2000/svg">
<circle cx="34" cy="34" r="34" fill="white"/>
<circle cx="34" cy="34" r="30" fill="black"/>
<path d="M42.869 27.8014C43.0326 27.8695 43.1934 27.915 43.3311 27.915C43.4443 27.915 43.5418 27.885 43.656 27.85C43.8176 27.8004 44.0126 27.7405 44.3325 27.7405C44.686 27.7405 44.8679 27.7616 45.0551 27.7833C45.2538 27.8063 45.4584 27.83 45.8801 27.83C47.8829 27.3825 47.974 25.6819 47.974 25.6819C47.974 24.1357 47.5193 23.7328 46.994 23.2674C46.8974 23.1818 46.7984 23.0941 46.6995 22.9968C45.425 22.1017 44.6056 21.2962 44.3325 20.3116C43.8952 18.7349 44.3325 18.074 44.5146 17.8055C44.5406 17.7672 44.5666 17.7233 44.5945 17.6764C44.7617 17.3945 44.9958 17 45.6981 17C46.238 17 46.6989 17.3498 47.0807 17.6397C47.2782 17.7896 47.4546 17.9235 47.6098 17.9845C47.7915 18.056 48.1473 18.1417 48.515 18.2303C49.0685 18.3637 49.6489 18.5035 49.7036 18.6111C49.7578 18.6643 49.6831 18.7492 49.6137 18.8281C49.5664 18.8819 49.5216 18.9328 49.5216 18.9691C49.5216 19.0062 49.5528 19.0586 49.5894 19.12C49.6412 19.2069 49.7036 19.3117 49.7036 19.4166C49.7036 19.5353 48.8236 19.4966 48.2037 19.4694C47.8885 19.4555 47.6405 19.4446 47.6098 19.4589C47.5901 19.4681 47.5191 19.4755 47.418 19.486C47.0529 19.5241 46.2959 19.6031 46.1532 19.9536C46.0622 20.4012 46.3353 20.6697 46.4264 20.7592C46.4438 20.7764 46.5084 20.8233 46.6077 20.8955C47.0253 21.1992 48.0578 21.9501 48.7933 22.8178C49.6284 23.803 49.6208 24.713 49.6139 25.5476C49.6132 25.6228 49.6126 25.6974 49.6126 25.7714C49.6126 26.6664 49.0664 27.651 48.5202 28.4565C47.974 29.262 47.0636 30.2466 45.8801 30.7836C44.8787 31.2311 44.9698 31.6786 44.9698 31.6786V32.8422L44.9661 32.8436C44.8733 35.0832 43.0354 36.8699 38.7794 36.8699C38.7488 36.8699 38.7184 36.8697 38.688 36.8694L38.6883 36.8699L38.6498 36.8689C38.5919 36.8679 38.5343 36.8664 38.4771 36.8643L38.0916 36.854C37.9254 36.9079 37.7739 36.9959 37.6869 37.1384C37.4138 37.5859 36.7766 37.9439 36.7766 37.9439C36.7766 37.9439 36.5035 38.0334 36.3214 38.2124C36.1393 38.3914 35.6841 39.1075 35.7752 39.197C35.8662 39.2865 39.0525 38.2124 39.0525 38.2124C39.0525 38.2124 41.3284 37.4069 42.0566 37.4069C42.082 37.4069 42.1096 37.4061 42.1393 37.4053C42.4295 37.3972 42.9098 37.3839 43.2401 38.0334C43.5132 38.4809 44.3325 39.6445 44.3325 39.6445C44.3325 39.6445 44.8787 40.3605 44.6056 40.629C44.4236 40.7185 43.7863 40.45 43.5132 40.1815C43.4222 40.092 43.3311 39.9727 43.2401 39.8533C43.058 39.6147 42.876 39.376 42.6939 39.376C42.6114 39.4165 42.641 39.5855 42.6727 39.7666C42.7109 39.9855 42.7523 40.2221 42.6028 40.271C42.5937 40.271 42.5837 40.2719 42.5727 40.2729C42.4736 40.2818 42.2933 40.2979 41.9656 39.734C41.8746 39.555 41.8746 39.3984 41.8746 39.2753C41.8746 39.1522 41.8746 39.0627 41.7835 39.018C41.5104 38.8837 40.1449 39.2865 40.1449 39.2865C40.1449 39.2865 36.1393 40.5395 35.9572 40.629C35.9277 40.6435 35.8803 40.6755 35.819 40.7167C35.5019 40.93 34.8139 41.3928 34.3186 40.9871C33.7997 40.5619 33.9381 39.8944 34.0313 39.445C34.0362 39.4214 34.0409 39.3983 34.0455 39.376C34.1365 38.9285 34.7738 37.7649 34.7738 37.7649V37.4399L33.1351 38.0334C33.1351 38.0334 30.313 40.092 30.222 40.271C30.1942 40.3257 30.1664 40.4053 30.1335 40.4997C30.0584 40.7148 29.9566 41.0068 29.7668 41.2556C29.4937 41.6136 28.6744 41.7926 28.6744 41.7926L24.7598 46.8943C24.7598 46.8943 24.1226 47.9684 23.9405 48.2369C23.7584 48.5054 23.0302 49.1319 23.0302 49.1319C23.0302 49.1319 22.3929 49.848 22.0288 50.6535C22.0288 50.6535 21.6646 51.3695 21.4826 50.743C21.3005 49.848 21.6646 49.0424 21.8467 48.6844C21.9257 48.5291 22.0389 48.4075 22.1344 48.3049C22.259 48.1711 22.3534 48.0697 22.3019 47.9684C22.2171 47.885 22.0927 47.957 21.9657 48.0305C21.82 48.1149 21.6708 48.2013 21.5736 48.0579C21.5515 48.0252 21.3915 47.6104 22.0288 47.0131C22.0288 47.0131 22.3019 46.6258 23.3033 46.4468C23.8495 46.2678 24.1226 45.7308 24.1226 45.7308C24.1226 45.7308 27.3999 41.2556 27.4909 41.0766C27.5202 41.019 27.5307 40.9058 27.5435 40.7668C27.5705 40.4738 27.6081 40.0663 27.8551 39.8235C28.1869 39.4972 28.5672 39.4088 28.8194 39.3502C28.9131 39.3284 28.9892 39.3107 29.0385 39.2865C29.2206 39.197 31.3144 37.3174 31.3144 37.3174L31.9517 36.5119L31.8715 36.2359C31.3284 36.1399 30.8572 36.0475 30.5861 35.9748C29.5853 35.7065 28.039 35.2593 26.8558 34.3654C26.4908 34.3404 25.958 34.3596 25.3061 34.5427C25.3061 34.5427 24.1226 34.7218 23.0302 35.5273C23.0293 35.5279 23.0277 35.5293 23.0252 35.5315C22.9794 35.5716 22.6614 35.8493 22.575 35.1693C22.575 35.1387 22.5723 35.1056 22.5693 35.0675C22.5545 34.8829 22.5306 34.5842 22.7571 33.9162C22.7571 33.8266 22.6968 33.6173 21.9377 34.3637C21.8569 34.4432 21.7801 34.5384 21.7039 34.6331C21.5225 34.8581 21.3437 35.0799 21.1184 35.0798C21.0274 35.0797 20.7543 34.9903 20.7543 34.3638C20.7543 34.0165 20.8941 33.6692 21.0033 33.3981C21.0911 33.1801 21.159 33.0115 21.1184 32.9317C21.0748 32.8459 20.7599 32.986 20.4234 33.1356C20.0573 33.2984 19.6657 33.4725 19.5708 33.3792C19.4798 33.2896 19.2977 32.7527 20.3901 31.2311C20.6632 30.8731 21.5736 29.799 23.0302 29.62C24.2932 29.4648 24.5295 29.646 24.748 29.8137C24.7815 29.8394 24.8146 29.8647 24.8509 29.8885C24.9627 29.9618 25.1354 29.9751 25.3006 29.9653C25.2624 29.8752 25.0407 29.3364 25.124 29.1725C25.1772 29.0679 25.417 29.0856 25.8615 29.1183C26.1775 29.1416 26.5972 29.1725 27.1268 29.1725C28.4013 29.1725 29.5847 28.6355 29.5847 28.6355L33.2257 26.9309C34.373 26.3189 35.8516 25.9504 37.4654 25.9504C39.7432 25.9504 41.7115 26.6845 42.869 27.8014Z" fill="white"/>
</svg>
