<svg width="18" height="15" viewBox="0 0 18 15" fill="none" xmlns="http://www.w3.org/2000/svg">
<path d="M13.2556 7.13211C12.2648 7.0189 11.5217 6.6038 11.0263 5.88682C10.5309 5.16984 10.2832 4.37739 10.2832 3.50946C10.2832 2.6038 10.588 1.79248 11.1978 1.0755C11.7694 0.358521 12.6268 3.05176e-05 13.77 3.05176e-05C14.2273 3.05176e-05 14.7037 0.0755024 15.1991 0.226446C15.6945 0.415125 16.1518 0.717012 16.571 1.13211C16.9901 1.5472 17.3331 2.11324 17.5999 2.83022C17.8666 3.5472 18 4.45286 18 5.5472C18 7.58494 17.4093 9.41513 16.228 11.0378C15.2129 12.4645 13.9586 13.6405 12.4651 14.5657C12.0414 14.8282 11.4932 14.7009 11.1987 14.2987L10.7358 13.6664C10.3763 13.1753 10.5384 12.4819 11.0347 12.1297C11.6449 11.6967 12.2137 11.1818 12.7411 10.5849C13.5033 9.71701 14.0177 8.62267 14.2845 7.30192L13.2556 7.13211ZM3.20105 7.13211C2.21025 7.0189 1.46715 6.6038 0.971746 5.88682C0.476345 5.16984 0.228647 4.37739 0.228647 3.50946C0.228647 2.6038 0.533506 1.79248 1.14323 1.0755C1.71485 0.358521 2.57227 3.05176e-05 3.7155 3.05176e-05C4.1728 3.05176e-05 4.64914 0.0755024 5.14454 0.226446C5.63994 0.415125 6.09723 0.717012 6.51642 1.13211C6.93561 1.5472 7.27857 2.11324 7.54533 2.83022C7.81208 3.5472 7.94546 4.45286 7.94546 5.5472C7.94546 7.58494 7.35479 9.41513 6.17345 11.0378C5.15834 12.4645 3.90405 13.6405 2.41059 14.5657C1.98681 14.8282 1.43866 14.7009 1.14417 14.2987L0.68128 13.6664C0.321733 13.1753 0.483829 12.4819 0.980198 12.1297C1.59038 11.6967 2.15917 11.1818 2.68659 10.5849C3.44875 9.71701 3.9632 8.62267 4.22996 7.30192L3.20105 7.13211Z" fill="#E01E93"/>
</svg>
