<svg width="20" height="20" viewBox="0 0 20 20" fill="none" xmlns="http://www.w3.org/2000/svg">
<path d="M6.13324 2.89905C6.40738 2.63309 6.76404 2.5 7.133 2.5H7.78165C7.94907 2.5 8.04904 2.70807 7.95541 2.85782C7.34644 3.83536 5.75 6.66779 5.7504 9.5H7.375C8.2724 9.5 9 10.2836 9 11.25V14.75C9 15.7164 8.2724 16.5 7.375 16.5H5.75C3.9552 16.5 2.5 14.9331 2.5 13L2.5004 9.5C2.5004 6.70645 5.08826 3.9129 6.13324 2.89905Z" fill="white"/>
<path d="M14.6332 2.89905C14.9074 2.63309 15.264 2.5 15.633 2.5H16.2816C16.4491 2.5 16.549 2.70807 16.4554 2.85782C15.8464 3.83536 14.25 6.66779 14.2504 9.5H15.875C16.7724 9.5 17.5 10.2836 17.5 11.25V14.75C17.5 15.7164 16.7724 16.5 15.875 16.5H14.25C12.4552 16.5 11 14.9331 11 13L11.0004 9.5C11.0004 6.70645 13.5883 3.9129 14.6332 2.89905Z" fill="white"/>
</svg>
