<svg width="18" height="15" viewBox="0 0 18 15" fill="none" xmlns="http://www.w3.org/2000/svg">
<path d="M4.74441 7.86795C5.73521 7.98116 6.47831 8.39625 6.97371 9.11324C7.46911 9.83022 7.71681 10.6227 7.71681 11.4906C7.71681 12.3963 7.41195 13.2076 6.80223 13.9246C6.23061 14.6415 5.37319 15 4.22996 15C3.77267 15 3.29632 14.9246 2.80092 14.7736C2.30552 14.5849 1.84822 14.283 1.42904 13.868C1.00985 13.4529 0.666885 12.8868 0.400131 12.1698C0.133377 11.4529 0 10.5472 0 9.45286C0 7.41512 0.59067 5.58493 1.77201 3.96229C2.78712 2.53554 4.04141 1.35957 5.53487 0.434363C5.95864 0.171833 6.5068 0.299181 6.80129 0.701404L7.26418 1.33365C7.62373 1.82474 7.46163 2.51812 6.96526 2.87034C6.35508 3.30331 5.78628 3.81824 5.25887 4.41512C4.49671 5.28305 3.98226 6.37739 3.7155 7.69814L4.74441 7.86795ZM14.799 7.86795C15.7898 7.98116 16.5329 8.39625 17.0283 9.11324C17.5237 9.83022 17.7714 10.6227 17.7714 11.4906C17.7714 12.3963 17.4665 13.2076 16.8568 13.9246C16.2852 14.6415 15.4277 15 14.2845 15C13.8272 15 13.3509 14.9246 12.8555 14.7736C12.3601 14.5849 11.9028 14.283 11.4836 13.868C11.0644 13.4529 10.7214 12.8868 10.4547 12.1698C10.1879 11.4529 10.0545 10.5472 10.0545 9.45286C10.0545 7.41512 10.6452 5.58493 11.8265 3.96229C12.8417 2.53554 14.096 1.35957 15.5894 0.434363C16.0132 0.171833 16.5613 0.299181 16.8558 0.701405L17.3187 1.33365C17.6783 1.82474 17.5162 2.51812 17.0198 2.87034C16.4096 3.30331 15.8408 3.81824 15.3134 4.41512C14.5513 5.28305 14.0368 6.37739 13.77 7.69814L14.799 7.86795Z" fill="#E01E93"/>
</svg>
