<svg width="40" height="40" viewBox="0 0 40 40" fill="none" xmlns="http://www.w3.org/2000/svg">
<g clip-path="url(#clip0_1_11)">
<mask id="mask0_1_11" style="mask-type:luminance" maskUnits="userSpaceOnUse" x="0" y="0" width="40" height="40">
<path d="M40 0H0V40H40V0Z" fill="white"/>
</mask>
<g mask="url(#mask0_1_11)">
<g opacity="0.1">
<path d="M40 20C40 8.9543 31.0457 0 20 0C8.9543 0 0 8.9543 0 20C0 31.0457 8.9543 40 20 40C31.0457 40 40 31.0457 40 20Z" fill="#86EFA4"/>
</g>
<path d="M20.7625 11.0006C20.7628 10.5863 20.4272 10.2503 20.013 10.25C19.5988 10.2497 19.2628 10.5853 19.2625 10.9995L19.2511 27.1927L13.5299 21.4816C13.2367 21.189 12.7618 21.1894 12.4692 21.4826C12.1766 21.7757 12.177 22.2506 12.4701 22.5433L19.4701 29.5308C19.7629 29.823 20.2371 29.823 20.5299 29.5308L27.5299 22.5433C27.823 22.2506 27.8234 21.7757 27.5308 21.4826C27.2382 21.1894 26.7633 21.189 26.4701 21.4816L20.7511 27.1905L20.7625 11.0006Z" fill="#86EFA4"/>
</g>
</g>
<defs>
<clipPath id="clip0_1_11">
<rect width="40" height="40" fill="white"/>
</clipPath>
</defs>
</svg>
