<svg width="16" height="16" viewBox="0 0 16 16" fill="none" xmlns="http://www.w3.org/2000/svg">
<path fill-rule="evenodd" clip-rule="evenodd" d="M8.32998 0.137832C8.51223 0.321608 8.51223 0.619568 8.32998 0.803344L6.32663 2.82353H12.6667C13.9553 2.82353 15 3.87698 15 5.17647V11.7647C15 12.5444 14.3732 13.1765 13.6 13.1765C13.3423 13.1765 13.1333 12.9658 13.1333 12.7059C13.1333 12.446 13.3423 12.2353 13.6 12.2353C13.8577 12.2353 14.0667 12.0246 14.0667 11.7647V5.17647C14.0667 4.39677 13.4399 3.76471 12.6667 3.76471H6.32663L8.32998 5.78489C8.51223 5.96867 8.51223 6.26663 8.32998 6.4504C8.14774 6.63418 7.85226 6.63418 7.67002 6.4504L4.54003 3.29412L7.67002 0.137832C7.85226 -0.045944 8.14774 -0.045944 8.32998 0.137832ZM2.4 3.76471C2.14227 3.76471 1.93333 3.9754 1.93333 4.23529V10.8235C1.93333 11.6032 2.56013 12.2353 3.33333 12.2353H9.67337L7.67002 10.2151C7.48777 10.0313 7.48777 9.73337 7.67002 9.5496C7.85226 9.36582 8.14774 9.36582 8.32998 9.5496L11.46 12.7059L8.32998 15.8622C8.14774 16.0459 7.85226 16.0459 7.67002 15.8622C7.48777 15.6784 7.48777 15.3804 7.67002 15.1967L9.67337 13.1765H3.33333C2.04467 13.1765 1 12.123 1 10.8235V4.23529C1 3.4556 1.6268 2.82353 2.4 2.82353C2.65773 2.82353 2.86667 3.03422 2.86667 3.29412C2.86667 3.55402 2.65773 3.76471 2.4 3.76471Z" fill="black"/>
</svg>
