<svg width="20" height="20" viewBox="0 0 20 20" fill="none" xmlns="http://www.w3.org/2000/svg">
<path d="M11.1111 14.4444C11.1111 15.0581 10.6137 15.5556 10 15.5556C9.38635 15.5556 8.88889 15.0581 8.88889 14.4444C8.88889 13.8308 9.38635 13.3333 10 13.3333C10.6137 13.3333 11.1111 13.8308 11.1111 14.4444Z" fill="#FA3C3C"/>
<path d="M10 4.44444C9.38635 4.44444 8.88889 4.94191 8.88889 5.55556V11.1111C8.88889 11.7248 9.38635 12.2222 10 12.2222C10.6137 12.2222 11.1111 11.7248 11.1111 11.1111V5.55556C11.1111 4.94191 10.6137 4.44444 10 4.44444Z" fill="#FA3C3C"/>
<path fill-rule="evenodd" clip-rule="evenodd" d="M10 20C15.5228 20 20 15.5228 20 10C20 4.47715 15.5228 0 10 0C4.47715 0 0 4.47715 0 10C0 15.5228 4.47715 20 10 20ZM10 18.3333C14.6024 18.3333 18.3333 14.6024 18.3333 10C18.3333 5.39763 14.6024 1.66667 10 1.66667C5.39763 1.66667 1.66667 5.39763 1.66667 10C1.66667 14.6024 5.39763 18.3333 10 18.3333Z" fill="#FA3C3C"/>
</svg>
