<svg width="28" height="28" viewBox="0 0 28 28" fill="none" xmlns="http://www.w3.org/2000/svg">
<path fill-rule="evenodd" clip-rule="evenodd" d="M17.2131 18.8362C15.5068 20.1908 13.3479 21 11 21C5.47715 21 1 16.5228 1 11C1 5.47715 5.47715 1 11 1C16.5228 1 21 5.47715 21 11C21 13.3479 20.1908 15.5068 18.8362 17.2131L26.1885 24.5654C26.6367 25.0136 26.6367 25.7403 26.1885 26.1885V26.1885C25.7403 26.6367 25.0136 26.6367 24.5654 26.1885L17.2131 18.8362ZM20 11C20 15.9706 15.9706 20 11 20C6.02944 20 2 15.9706 2 11C2 6.02944 6.02944 2 11 2C15.9706 2 20 6.02944 20 11Z" fill="black"/>
</svg>
