<svg width="24" height="24" viewBox="0 0 24 24" fill="none" xmlns="http://www.w3.org/2000/svg">
<g clip-path="url(#clip0_3074_1417)">
<path fill-rule="evenodd" clip-rule="evenodd" d="M14.7554 17.4135C13.2502 18.4152 11.443 18.9988 9.49942 18.9988C4.25304 18.9988 0 14.7458 0 9.49942C0 4.25304 4.25304 0 9.49942 0C14.7458 0 18.9988 4.25304 18.9988 9.49942C18.9988 11.443 18.4152 13.2502 17.4135 14.7554L22.6695 20.0114C23.4035 20.7454 23.4035 21.9355 22.6695 22.6695C21.9355 23.4035 20.7454 23.4035 20.0114 22.6695L14.7554 17.4135ZM16.999 9.49942C16.999 13.6413 13.6413 16.999 9.49942 16.999C5.35754 16.999 1.99988 13.6413 1.99988 9.49942C1.99988 5.35754 5.35754 1.99988 9.49942 1.99988C13.6413 1.99988 16.999 5.35754 16.999 9.49942Z" fill="white"/>
<path d="M15.839 9.49992C15.839 13.0009 13.0009 15.839 9.49992 15.839C5.99896 15.839 3.16086 13.0009 3.16086 9.49992C3.16086 5.99896 5.99896 3.16086 9.49992 3.16086C13.0009 3.16086 15.839 5.99896 15.839 9.49992Z" fill="white"/>
</g>
<defs>
<clipPath id="clip0_3074_1417">
<rect width="24" height="24" fill="white"/>
</clipPath>
</defs>
</svg>
