<svg width="22" height="22" viewBox="0 0 22 22" fill="none" xmlns="http://www.w3.org/2000/svg">
<rect x="0.625" y="0.625" width="20.75" height="20.75" rx="10.375" stroke="#AAAAAA" stroke-width="1.25"/>
<path d="M11.7353 16.1791C11.7353 16.6325 11.4061 17 11 17C10.5939 17 10.2647 16.6325 10.2647 16.1791V7.59805L7.21383 10.4142C6.9055 10.7093 6.44131 10.6694 6.17703 10.3252C5.91275 9.98095 5.94846 9.46271 6.25678 9.16766L10.5109 5.20009C10.7897 4.9333 11.2103 4.93331 11.4891 5.20009L15.7432 9.16766C16.0515 9.46271 16.0873 9.98095 15.823 10.3252C15.5587 10.6694 15.0945 10.7093 14.7862 10.4142L11.7353 7.59805V16.1791Z" fill="#AAAAAA"/>
</svg>
