<svg width="40" height="40" viewBox="0 0 40 40" fill="none" xmlns="http://www.w3.org/2000/svg">
<g clip-path="url(#clip0_1_3)">
<mask id="mask0_1_3" style="mask-type:luminance" maskUnits="userSpaceOnUse" x="0" y="0" width="40" height="40">
<path d="M40 0H0V40H40V0Z" fill="white"/>
</mask>
<g mask="url(#mask0_1_3)">
<g opacity="0.05">
<path d="M40 20C40 8.9543 31.0457 0 20 0C8.9543 0 0 8.9543 0 20C0 31.0457 8.9543 40 20 40C31.0457 40 40 31.0457 40 20Z" fill="#DC2626"/>
</g>
<path d="M13.5299 18.5183C13.2367 18.811 12.7618 18.8106 12.4692 18.5174C12.1766 18.2242 12.177 17.7494 12.4701 17.4567L19.4701 10.4692C19.7629 10.177 20.2371 10.177 20.5299 10.4692L27.5299 17.4567C27.823 17.7494 27.8234 18.2242 27.5308 18.5174C27.2382 18.8106 26.7633 18.811 26.4701 18.5183L20.7511 12.8095L20.7625 28.9994C20.7628 29.4137 20.4272 29.7497 20.013 29.75C19.5988 29.7503 19.2628 29.4147 19.2625 29.0005L19.2511 12.8073L13.5299 18.5183Z" fill="#DC2626"/>
</g>
</g>
<defs>
<clipPath id="clip0_1_3">
<rect width="40" height="40" fill="white"/>
</clipPath>
</defs>
</svg>
