<svg width="20" height="20" viewBox="0 0 20 20" fill="none" xmlns="http://www.w3.org/2000/svg">
<path d="M10 14.7172C10.4602 14.7172 10.8333 14.3294 10.8333 13.851V3.74139L14.291 6.71289C14.6404 7.02423 15.1665 6.98218 15.466 6.61896C15.7656 6.25574 15.7251 5.70892 15.3756 5.39758L10.5544 1.21112C10.2384 0.929626 9.7616 0.929626 9.44565 1.21112L4.62433 5.39758C4.2749 5.70892 4.23444 6.25574 4.53394 6.61896C4.83347 6.98218 5.35956 7.02423 5.70898 6.71289L9.16666 3.74139V13.851C9.16666 14.3294 9.53976 14.7172 10 14.7172Z" fill="white"/>
<path d="M0 11.8333C0 11.3731 0.373108 11 0.833344 11C1.29358 11 1.66666 11.3731 1.66666 11.8333V17.5C1.66666 17.9603 2.03976 18.3333 2.5 18.3333H17.5C17.9602 18.3333 18.3333 17.9603 18.3333 17.5V11.8333C18.3333 11.3731 18.7064 11 19.1667 11C19.6269 11 20 11.3731 20 11.8333V18.3333C20 19.2538 19.2538 20 18.3333 20H1.66666C0.746185 20 0 19.2538 0 18.3333V11.8333Z" fill="white"/>
</svg>
