<svg width="64" height="64" viewBox="0 0 64 64" fill="none" xmlns="http://www.w3.org/2000/svg">
<g clip-path="url(#clip0_107_24)">
<path d="M8.57125 2.55681C8.57125 3.96889 7.42 5.11363 5.99984 5.11363C4.57969 5.11363 3.42844 3.96889 3.42844 2.55681C3.42844 1.14473 4.57969 0 5.99984 0C7.42 0 8.57125 1.14473 8.57125 2.55681Z" fill="url(#paint0_radial_107_24)"/>
<path d="M11.9999 9.39531L12 9.37497C12 7.49218 9.31371 5.96589 5.99995 5.96589C2.68629 5.96589 0.000104631 7.49223 0 9.37497V13.8883C0 14.533 0.482871 15.0769 1.12625 15.1568L1.33886 15.1833C1.55335 15.2099 1.71427 15.3912 1.71427 15.6061V17.1475C1.71427 17.6182 2.09806 17.9998 2.57141 17.9998H9.42849C9.90184 17.9998 10.2856 17.6182 10.2856 17.1475V15.6061C10.2856 15.3912 10.4465 15.2099 10.661 15.1833L10.8736 15.1568C11.517 15.0769 11.9999 14.533 11.9999 13.8883V9.39531Z" fill="url(#paint1_radial_107_24)"/>
<path d="M31.9997 24.5227C34.3667 24.5227 36.2854 22.6148 36.2854 20.2614C36.2854 17.9079 34.3667 16 31.9997 16C29.6328 16 27.7141 17.9079 27.7141 20.2614C27.7141 22.6148 29.6328 24.5227 31.9997 24.5227Z" fill="url(#paint2_radial_107_24)"/>
<path d="M42 31.625L41.9998 31.6588V39.1472C41.9998 40.2218 41.195 41.1281 40.1227 41.2614L39.7684 41.3055C39.4109 41.3499 39.1427 41.652 39.1427 42.0102V44.5792C39.1427 45.3637 38.5031 45.9997 37.7141 45.9997H26.2857C25.4968 45.9997 24.8571 45.3637 24.8571 44.5792V42.0102C24.8571 41.652 24.5889 41.3499 24.2314 41.3055L23.8771 41.2614C22.8048 41.1281 22 40.2218 22 39.1472V31.625C22.0002 28.4871 26.4771 25.9432 31.9999 25.9432C37.5228 25.9432 42 28.487 42 31.625Z" fill="url(#paint3_radial_107_24)"/>
<path d="M5.99984 50.1136C7.42 50.1136 8.57125 48.9689 8.57125 47.5568C8.57125 46.1447 7.42 45 5.99984 45C4.57969 45 3.42844 46.1447 3.42844 47.5568C3.42844 48.9689 4.57969 50.1136 5.99984 50.1136Z" fill="url(#paint4_radial_107_24)"/>
<path d="M12 54.375L11.9999 54.3953V58.8883C11.9999 59.5331 11.517 60.0769 10.8736 60.1568L10.661 60.1833C10.4465 60.2099 10.2856 60.3912 10.2856 60.6061V62.1475C10.2856 62.6182 9.90184 62.9998 9.42849 62.9998H2.57141C2.09806 62.9998 1.71427 62.6182 1.71427 62.1475V60.6061C1.71427 60.3912 1.55335 60.2099 1.33886 60.1833L1.12625 60.1568C0.482871 60.0769 0 59.5331 0 58.8883V54.375C0.000104631 52.4922 2.68629 50.9659 5.99995 50.9659C9.31371 50.9659 12 52.4922 12 54.375Z" fill="url(#paint5_radial_107_24)"/>
<path d="M57.9998 5.11363C59.42 5.11363 60.5712 3.96889 60.5712 2.55681C60.5712 1.14473 59.42 0 57.9998 0C56.5797 0 55.4284 1.14473 55.4284 2.55681C55.4284 3.96889 56.5797 5.11363 57.9998 5.11363Z" fill="url(#paint6_radial_107_24)"/>
<path d="M64 9.37497L63.9999 9.39531V13.8883C63.9999 14.533 63.517 15.0769 62.8736 15.1568L62.661 15.1833C62.4465 15.2099 62.2856 15.3912 62.2856 15.6061V17.1475C62.2856 17.6182 61.9018 17.9998 61.4285 17.9998H54.5714C54.0981 17.9998 53.7143 17.6182 53.7143 17.1475V15.6061C53.7143 15.3912 53.5533 15.2099 53.3389 15.1833L53.1262 15.1568C52.4829 15.0769 52 14.533 52 13.8883V9.37497C52.0001 7.49223 54.6863 5.96589 57.9999 5.96589C61.3137 5.96589 64 7.49218 64 9.37497Z" fill="url(#paint7_radial_107_24)"/>
<path d="M12.625 20.375V17C12.625 16.7929 12.7929 16.625 13 16.625H16.375C16.5821 16.625 16.75 16.7929 16.75 17C16.75 17.2071 16.5821 17.375 16.375 17.375H13.9053L21.625 25.0947V22.625C21.625 22.4179 21.7929 22.25 22 22.25C22.2071 22.25 22.375 22.4179 22.375 22.625V26C22.375 26.2071 22.2071 26.375 22 26.375H18.625C18.4179 26.375 18.25 26.2071 18.25 26C18.25 25.7929 18.4179 25.625 18.625 25.625H21.0947L13.375 17.9053V20.375C13.375 20.5821 13.2071 20.75 13 20.75C12.7929 20.75 12.625 20.5821 12.625 20.375Z" fill="url(#paint8_radial_107_24)"/>
<path d="M12.625 48.625V52C12.625 52.2071 12.7929 52.375 13 52.375H16.375C16.5821 52.375 16.75 52.2071 16.75 52C16.75 51.7929 16.5821 51.625 16.375 51.625H13.9053L21.625 43.9053V46.375C21.625 46.5821 21.7929 46.75 22 46.75C22.2071 46.75 22.375 46.5821 22.375 46.375V43C22.375 42.7929 22.2071 42.625 22 42.625H18.625C18.4179 42.625 18.25 42.7929 18.25 43C18.25 43.2071 18.4179 43.375 18.625 43.375H21.0947L13.375 51.0947V48.625C13.375 48.4179 13.2071 48.25 13 48.25C12.7929 48.25 12.625 48.4179 12.625 48.625Z" fill="url(#paint9_radial_107_24)"/>
<path d="M51.375 20.375V17C51.375 16.7929 51.2071 16.625 51 16.625H47.625C47.4179 16.625 47.25 16.7929 47.25 17C47.25 17.2071 47.4179 17.375 47.625 17.375H50.0947L42.375 25.0947V22.625C42.375 22.4179 42.2071 22.25 42 22.25C41.7929 22.25 41.625 22.4179 41.625 22.625V26C41.625 26.2071 41.7929 26.375 42 26.375H45.375C45.5821 26.375 45.75 26.2071 45.75 26C45.75 25.7929 45.5821 25.625 45.375 25.625H42.9053L50.625 17.9053V20.375C50.625 20.5821 50.7929 20.75 51 20.75C51.2071 20.75 51.375 20.5821 51.375 20.375Z" fill="url(#paint10_radial_107_24)"/>
<path d="M61.9012 60.0241L62.4949 60.4824L64.2685 58.1851L62.4152 58.9853C63.308 58.153 64.1437 56.9548 64.5363 55.2596C65.0611 52.9938 64.532 50.9719 63.8956 49.5431C63.5764 48.8265 63.2256 48.2479 62.9532 47.8467C62.8168 47.6457 62.6992 47.488 62.614 47.3785C62.5713 47.3237 62.5367 47.2808 62.5117 47.2506C62.4993 47.2355 62.4892 47.2235 62.4817 47.2147L62.4726 47.2039L62.4695 47.2003L62.4683 47.199L62.4679 47.1984C62.4677 47.1982 62.4675 47.198 61.9012 47.6898L62.4675 47.198L60.6328 45.0855L61.1648 47.832L61.1649 47.8321L61.1649 47.8323L61.1649 47.8323L61.1649 47.8324L61.1654 47.8348L61.1677 47.8473L61.1772 47.9002C61.1855 47.9472 61.1971 48.0163 61.2102 48.1016C61.2364 48.2732 61.2675 48.5057 61.2881 48.7533C61.3089 49.0041 61.3173 49.2528 61.3038 49.462C61.2896 49.6823 61.2557 49.7716 61.2524 49.7802C61.2522 49.7807 61.2521 49.7809 61.2522 49.7808C61.0603 50.1122 60.8287 50.3121 60.6585 50.3908C60.5778 50.428 60.532 50.429 60.5186 50.4279C60.5132 50.4275 60.5066 50.4282 60.4869 50.4113C60.3431 50.2871 60.1611 50.0104 60.0134 49.6116C59.8705 49.2257 59.7945 48.8188 59.7945 48.5121C59.7945 48.3887 59.8386 48.149 59.9263 47.7105L59.9302 47.6912C60.0401 47.1414 60.1889 46.3976 60.214 45.6303C60.2394 44.8556 60.143 43.9787 59.6936 43.2025L59.0445 43.5783L59.6936 43.2025C59.5245 42.9104 59.2368 42.5816 58.9189 42.2563C58.5886 41.9183 58.1793 41.5381 57.7258 41.138C56.8181 40.3371 55.705 39.4314 54.6296 38.5835C53.5526 37.7344 52.5066 36.9376 51.7302 36.3535C51.3419 36.0614 51.0206 35.8221 50.7963 35.6557C50.6841 35.5726 50.5962 35.5076 50.5361 35.4633L50.4675 35.4128L50.4497 35.3997L50.4451 35.3964L50.444 35.3955L50.4436 35.3953C50.4435 35.3952 50.4435 35.3952 50 36L50.4435 35.3952L48.5455 34.0034L49.2883 36.2367L49.2883 36.2367L49.2883 36.2367L49.2884 36.237L49.2891 36.2389L49.2918 36.2471L49.303 36.2815C49.313 36.3121 49.3279 36.3579 49.3469 36.4174C49.3849 36.5364 49.4395 36.7101 49.5053 36.9266C49.6368 37.3599 49.8121 37.9628 49.9872 38.6405C50.3432 40.0187 50.6767 41.6265 50.6767 42.756C50.6767 43.7929 50.3014 44.0369 50.1106 44.1029C49.8223 44.2024 49.3815 44.1104 49.0602 43.833C48.6821 43.5064 48.5135 43.1994 48.4365 42.9999C48.3972 42.898 48.38 42.8195 48.3726 42.7749C48.3698 42.7578 48.3684 42.7457 48.3678 42.7394L48.3678 40.5572L47.0241 42.2977L47.6178 42.756C47.0241 42.2977 47.024 42.2979 47.0239 42.298L47.0236 42.2984L47.0229 42.2993L47.021 42.3018L47.0152 42.3095L46.9956 42.3354C46.9792 42.3574 46.9562 42.3886 46.9275 42.4284C46.8702 42.5079 46.7901 42.6221 46.6948 42.7661C46.5046 43.0535 46.2519 43.4628 45.9987 43.9546C45.5008 44.9221 44.9634 46.2815 44.9634 47.6898C44.9634 49.0223 45.2212 49.9534 45.5089 50.5746C45.6522 50.884 45.8007 51.1117 45.9231 51.2702C45.933 51.283 45.9426 51.2952 45.9521 51.3071C45.951 51.3747 45.9396 51.4422 45.9142 51.5002C45.8899 51.5557 45.8414 51.6319 45.7049 51.7046C45.5555 51.7842 45.2716 51.8735 44.7611 51.8735C44.4927 51.8735 44.1854 51.7521 43.942 51.5419C43.6909 51.325 43.6067 51.1046 43.6067 50.9789V48.5121V47.2149L42.4825 47.8621L42.8567 48.5121C42.4825 47.8621 42.4823 47.8622 42.482 47.8623L42.4815 47.8626L42.4803 47.8633L42.4771 47.8652L42.4676 47.8708L42.4366 47.8893C42.4109 47.9048 42.3751 47.9268 42.3308 47.9551C42.2422 48.0115 42.1189 48.0933 41.9722 48.1988C41.6803 48.4089 41.2894 48.718 40.896 49.1143C40.1277 49.8884 39.25 51.0973 39.25 52.6235L39.25 52.6715C39.25 53.8658 39.25 54.9385 39.3768 55.8145C39.506 56.7073 39.7845 57.5398 40.462 58.1249C40.8495 58.4595 41.4918 58.896 42.1311 59.305L39.5372 58.1851L41.3108 60.4824L41.9045 60.0241C41.3108 60.4824 41.3109 60.4826 41.3111 60.4828L41.3114 60.4832L41.3121 60.4842L41.3142 60.4869L41.3205 60.4949L41.3414 60.5211C41.359 60.5431 41.384 60.5739 41.4161 60.6124C41.4804 60.6893 41.5733 60.7974 41.6931 60.9285C41.9324 61.1902 42.2808 61.5456 42.7236 61.928C43.6027 62.6871 44.8878 63.582 46.4581 64.034C47.7867 64.4164 48.9183 64.627 49.7639 64.743L51.5412 64.9868L50.4663 63.5506C49.9877 62.9111 49.6293 62.0945 49.4796 61.175C49.3957 60.6595 49.4781 60.0115 49.6963 59.2829C49.9117 58.5638 50.2421 57.8224 50.5956 57.1443C50.9478 56.4686 51.3146 55.8716 51.594 55.4428C51.599 55.435 51.604 55.4273 51.609 55.4197C51.625 55.4332 51.6412 55.447 51.6577 55.461C52.0646 55.808 52.61 56.2966 53.1667 56.8647C53.7253 57.4349 54.2831 58.0728 54.7232 58.7179C55.1697 59.3725 55.4584 59.982 55.5428 60.5005C55.7153 61.5603 55.5759 62.543 55.231 63.313L54.6253 64.6647L56.0734 64.3528C56.4905 64.2629 56.9183 64.1576 57.3475 64.034C58.9179 63.582 60.203 62.6871 61.0821 61.928C61.5249 61.5456 61.8733 61.1902 62.1125 60.9285C62.2323 60.7974 62.3253 60.6893 62.3895 60.6124C62.4217 60.5739 62.4467 60.5431 62.4643 60.5211L62.4852 60.4949L62.4914 60.4869L62.4935 60.4842L62.4943 60.4832L62.4946 60.4828C62.4947 60.4826 62.4949 60.4824 61.9012 60.0241Z" fill="black"/>
<path d="M61.9012 60.0241L62.4949 60.4824L64.2685 58.1851L62.4152 58.9853C63.308 58.153 64.1437 56.9548 64.5363 55.2596C65.0611 52.9938 64.532 50.9719 63.8956 49.5431C63.5764 48.8265 63.2256 48.2479 62.9532 47.8467C62.8168 47.6457 62.6992 47.488 62.614 47.3785C62.5713 47.3237 62.5367 47.2808 62.5117 47.2506C62.4993 47.2355 62.4892 47.2235 62.4817 47.2147L62.4726 47.2039L62.4695 47.2003L62.4683 47.199L62.4679 47.1984C62.4677 47.1982 62.4675 47.198 61.9012 47.6898L62.4675 47.198L60.6328 45.0855L61.1648 47.832L61.1649 47.8321L61.1649 47.8323L61.1649 47.8323L61.1649 47.8324L61.1654 47.8348L61.1677 47.8473L61.1772 47.9002C61.1855 47.9472 61.1971 48.0163 61.2102 48.1016C61.2364 48.2732 61.2675 48.5057 61.2881 48.7533C61.3089 49.0041 61.3173 49.2528 61.3038 49.462C61.2896 49.6823 61.2557 49.7716 61.2524 49.7802C61.2522 49.7807 61.2521 49.7809 61.2522 49.7808C61.0603 50.1122 60.8287 50.3121 60.6585 50.3908C60.5778 50.428 60.532 50.429 60.5186 50.4279C60.5132 50.4275 60.5066 50.4282 60.4869 50.4113C60.3431 50.2871 60.1611 50.0104 60.0134 49.6116C59.8705 49.2257 59.7945 48.8188 59.7945 48.5121C59.7945 48.3887 59.8386 48.149 59.9263 47.7105L59.9302 47.6912C60.0401 47.1414 60.1889 46.3976 60.214 45.6303C60.2394 44.8556 60.143 43.9787 59.6936 43.2025L59.0445 43.5783L59.6936 43.2025C59.5245 42.9104 59.2368 42.5816 58.9189 42.2563C58.5886 41.9183 58.1793 41.5381 57.7258 41.138C56.8181 40.3371 55.705 39.4314 54.6296 38.5835C53.5526 37.7344 52.5066 36.9376 51.7302 36.3535C51.3419 36.0614 51.0206 35.8221 50.7963 35.6557C50.6841 35.5726 50.5962 35.5076 50.5361 35.4633L50.4675 35.4128L50.4497 35.3997L50.4451 35.3964L50.444 35.3955L50.4436 35.3953C50.4435 35.3952 50.4435 35.3952 50 36L50.4435 35.3952L48.5455 34.0034L49.2883 36.2367L49.2883 36.2367L49.2883 36.2367L49.2884 36.237L49.2891 36.2389L49.2918 36.2471L49.303 36.2815C49.313 36.3121 49.3279 36.3579 49.3469 36.4174C49.3849 36.5364 49.4395 36.7101 49.5053 36.9266C49.6368 37.3599 49.8121 37.9628 49.9872 38.6405C50.3432 40.0187 50.6767 41.6265 50.6767 42.756C50.6767 43.7929 50.3014 44.0369 50.1106 44.1029C49.8223 44.2024 49.3815 44.1104 49.0602 43.833C48.6821 43.5064 48.5135 43.1994 48.4365 42.9999C48.3972 42.898 48.38 42.8195 48.3726 42.7749C48.3698 42.7578 48.3684 42.7457 48.3678 42.7394L48.3678 40.5572L47.0241 42.2977L47.6178 42.756C47.0241 42.2977 47.024 42.2979 47.0239 42.298L47.0236 42.2984L47.0229 42.2993L47.021 42.3018L47.0152 42.3095L46.9956 42.3354C46.9792 42.3574 46.9562 42.3886 46.9275 42.4284C46.8702 42.5079 46.7901 42.6221 46.6948 42.7661C46.5046 43.0535 46.2519 43.4628 45.9987 43.9546C45.5008 44.9221 44.9634 46.2815 44.9634 47.6898C44.9634 49.0223 45.2212 49.9534 45.5089 50.5746C45.6522 50.884 45.8007 51.1117 45.9231 51.2702C45.933 51.283 45.9426 51.2952 45.9521 51.3071C45.951 51.3747 45.9396 51.4422 45.9142 51.5002C45.8899 51.5557 45.8414 51.6319 45.7049 51.7046C45.5555 51.7842 45.2716 51.8735 44.7611 51.8735C44.4927 51.8735 44.1854 51.7521 43.942 51.5419C43.6909 51.325 43.6067 51.1046 43.6067 50.9789V48.5121V47.2149L42.4825 47.8621L42.8567 48.5121C42.4825 47.8621 42.4823 47.8622 42.482 47.8623L42.4815 47.8626L42.4803 47.8633L42.4771 47.8652L42.4676 47.8708L42.4366 47.8893C42.4109 47.9048 42.3751 47.9268 42.3308 47.9551C42.2422 48.0115 42.1189 48.0933 41.9722 48.1988C41.6803 48.4089 41.2894 48.718 40.896 49.1143C40.1277 49.8884 39.25 51.0973 39.25 52.6235L39.25 52.6715C39.25 53.8658 39.25 54.9385 39.3768 55.8145C39.506 56.7073 39.7845 57.5398 40.462 58.1249C40.8495 58.4595 41.4918 58.896 42.1311 59.305L39.5372 58.1851L41.3108 60.4824L41.9045 60.0241C41.3108 60.4824 41.3109 60.4826 41.3111 60.4828L41.3114 60.4832L41.3121 60.4842L41.3142 60.4869L41.3205 60.4949L41.3414 60.5211C41.359 60.5431 41.384 60.5739 41.4161 60.6124C41.4804 60.6893 41.5733 60.7974 41.6931 60.9285C41.9324 61.1902 42.2808 61.5456 42.7236 61.928C43.6027 62.6871 44.8878 63.582 46.4581 64.034C47.7867 64.4164 48.9183 64.627 49.7639 64.743L51.5412 64.9868L50.4663 63.5506C49.9877 62.9111 49.6293 62.0945 49.4796 61.175C49.3957 60.6595 49.4781 60.0115 49.6963 59.2829C49.9117 58.5638 50.2421 57.8224 50.5956 57.1443C50.9478 56.4686 51.3146 55.8716 51.594 55.4428C51.599 55.435 51.604 55.4273 51.609 55.4197C51.625 55.4332 51.6412 55.447 51.6577 55.461C52.0646 55.808 52.61 56.2966 53.1667 56.8647C53.7253 57.4349 54.2831 58.0728 54.7232 58.7179C55.1697 59.3725 55.4584 59.982 55.5428 60.5005C55.7153 61.5603 55.5759 62.543 55.231 63.313L54.6253 64.6647L56.0734 64.3528C56.4905 64.2629 56.9183 64.1576 57.3475 64.034C58.9179 63.582 60.203 62.6871 61.0821 61.928C61.5249 61.5456 61.8733 61.1902 62.1125 60.9285C62.2323 60.7974 62.3253 60.6893 62.3895 60.6124C62.4217 60.5739 62.4467 60.5431 62.4643 60.5211L62.4852 60.4949L62.4914 60.4869L62.4935 60.4842L62.4943 60.4832L62.4946 60.4828C62.4947 60.4826 62.4949 60.4824 61.9012 60.0241Z" fill="url(#paint11_linear_107_24)" fill-opacity="0.8"/>
<path d="M61.9012 60.0241L62.4949 60.4824L64.2685 58.1851L62.4152 58.9853C63.308 58.153 64.1437 56.9548 64.5363 55.2596C65.0611 52.9938 64.532 50.9719 63.8956 49.5431C63.5764 48.8265 63.2256 48.2479 62.9532 47.8467C62.8168 47.6457 62.6992 47.488 62.614 47.3785C62.5713 47.3237 62.5367 47.2808 62.5117 47.2506C62.4993 47.2355 62.4892 47.2235 62.4817 47.2147L62.4726 47.2039L62.4695 47.2003L62.4683 47.199L62.4679 47.1984C62.4677 47.1982 62.4675 47.198 61.9012 47.6898L62.4675 47.198L60.6328 45.0855L61.1648 47.832L61.1649 47.8321L61.1649 47.8323L61.1649 47.8323L61.1649 47.8324L61.1654 47.8348L61.1677 47.8473L61.1772 47.9002C61.1855 47.9472 61.1971 48.0163 61.2102 48.1016C61.2364 48.2732 61.2675 48.5057 61.2881 48.7533C61.3089 49.0041 61.3173 49.2528 61.3038 49.462C61.2896 49.6823 61.2557 49.7716 61.2524 49.7802C61.2522 49.7807 61.2521 49.7809 61.2522 49.7808C61.0603 50.1122 60.8287 50.3121 60.6585 50.3908C60.5778 50.428 60.532 50.429 60.5186 50.4279C60.5132 50.4275 60.5066 50.4282 60.4869 50.4113C60.3431 50.2871 60.1611 50.0104 60.0134 49.6116C59.8705 49.2257 59.7945 48.8188 59.7945 48.5121C59.7945 48.3887 59.8386 48.149 59.9263 47.7105L59.9302 47.6912C60.0401 47.1414 60.1889 46.3976 60.214 45.6303C60.2394 44.8556 60.143 43.9787 59.6936 43.2025L59.0445 43.5783L59.6936 43.2025C59.5245 42.9104 59.2368 42.5816 58.9189 42.2563C58.5886 41.9183 58.1793 41.5381 57.7258 41.138C56.8181 40.3371 55.705 39.4314 54.6296 38.5835C53.5526 37.7344 52.5066 36.9376 51.7302 36.3535C51.3419 36.0614 51.0206 35.8221 50.7963 35.6557C50.6841 35.5726 50.5962 35.5076 50.5361 35.4633L50.4675 35.4128L50.4497 35.3997L50.4451 35.3964L50.444 35.3955L50.4436 35.3953C50.4435 35.3952 50.4435 35.3952 50 36L50.4435 35.3952L48.5455 34.0034L49.2883 36.2367L49.2883 36.2367L49.2883 36.2367L49.2884 36.237L49.2891 36.2389L49.2918 36.2471L49.303 36.2815C49.313 36.3121 49.3279 36.3579 49.3469 36.4174C49.3849 36.5364 49.4395 36.7101 49.5053 36.9266C49.6368 37.3599 49.8121 37.9628 49.9872 38.6405C50.3432 40.0187 50.6767 41.6265 50.6767 42.756C50.6767 43.7929 50.3014 44.0369 50.1106 44.1029C49.8223 44.2024 49.3815 44.1104 49.0602 43.833C48.6821 43.5064 48.5135 43.1994 48.4365 42.9999C48.3972 42.898 48.38 42.8195 48.3726 42.7749C48.3698 42.7578 48.3684 42.7457 48.3678 42.7394L48.3678 40.5572L47.0241 42.2977L47.6178 42.756C47.0241 42.2977 47.024 42.2979 47.0239 42.298L47.0236 42.2984L47.0229 42.2993L47.021 42.3018L47.0152 42.3095L46.9956 42.3354C46.9792 42.3574 46.9562 42.3886 46.9275 42.4284C46.8702 42.5079 46.7901 42.6221 46.6948 42.7661C46.5046 43.0535 46.2519 43.4628 45.9987 43.9546C45.5008 44.9221 44.9634 46.2815 44.9634 47.6898C44.9634 49.0223 45.2212 49.9534 45.5089 50.5746C45.6522 50.884 45.8007 51.1117 45.9231 51.2702C45.933 51.283 45.9426 51.2952 45.9521 51.3071C45.951 51.3747 45.9396 51.4422 45.9142 51.5002C45.8899 51.5557 45.8414 51.6319 45.7049 51.7046C45.5555 51.7842 45.2716 51.8735 44.7611 51.8735C44.4927 51.8735 44.1854 51.7521 43.942 51.5419C43.6909 51.325 43.6067 51.1046 43.6067 50.9789V48.5121V47.2149L42.4825 47.8621L42.8567 48.5121C42.4825 47.8621 42.4823 47.8622 42.482 47.8623L42.4815 47.8626L42.4803 47.8633L42.4771 47.8652L42.4676 47.8708L42.4366 47.8893C42.4109 47.9048 42.3751 47.9268 42.3308 47.9551C42.2422 48.0115 42.1189 48.0933 41.9722 48.1988C41.6803 48.4089 41.2894 48.718 40.896 49.1143C40.1277 49.8884 39.25 51.0973 39.25 52.6235L39.25 52.6715C39.25 53.8658 39.25 54.9385 39.3768 55.8145C39.506 56.7073 39.7845 57.5398 40.462 58.1249C40.8495 58.4595 41.4918 58.896 42.1311 59.305L39.5372 58.1851L41.3108 60.4824L41.9045 60.0241C41.3108 60.4824 41.3109 60.4826 41.3111 60.4828L41.3114 60.4832L41.3121 60.4842L41.3142 60.4869L41.3205 60.4949L41.3414 60.5211C41.359 60.5431 41.384 60.5739 41.4161 60.6124C41.4804 60.6893 41.5733 60.7974 41.6931 60.9285C41.9324 61.1902 42.2808 61.5456 42.7236 61.928C43.6027 62.6871 44.8878 63.582 46.4581 64.034C47.7867 64.4164 48.9183 64.627 49.7639 64.743L51.5412 64.9868L50.4663 63.5506C49.9877 62.9111 49.6293 62.0945 49.4796 61.175C49.3957 60.6595 49.4781 60.0115 49.6963 59.2829C49.9117 58.5638 50.2421 57.8224 50.5956 57.1443C50.9478 56.4686 51.3146 55.8716 51.594 55.4428C51.599 55.435 51.604 55.4273 51.609 55.4197C51.625 55.4332 51.6412 55.447 51.6577 55.461C52.0646 55.808 52.61 56.2966 53.1667 56.8647C53.7253 57.4349 54.2831 58.0728 54.7232 58.7179C55.1697 59.3725 55.4584 59.982 55.5428 60.5005C55.7153 61.5603 55.5759 62.543 55.231 63.313L54.6253 64.6647L56.0734 64.3528C56.4905 64.2629 56.9183 64.1576 57.3475 64.034C58.9179 63.582 60.203 62.6871 61.0821 61.928C61.5249 61.5456 61.8733 61.1902 62.1125 60.9285C62.2323 60.7974 62.3253 60.6893 62.3895 60.6124C62.4217 60.5739 62.4467 60.5431 62.4643 60.5211L62.4852 60.4949L62.4914 60.4869L62.4935 60.4842L62.4943 60.4832L62.4946 60.4828C62.4947 60.4826 62.4949 60.4824 61.9012 60.0241Z" stroke="black" stroke-width="1.5"/>
</g>
<defs>
<radialGradient id="paint0_radial_107_24" cx="0" cy="0" r="1" gradientUnits="userSpaceOnUse" gradientTransform="translate(31.9997 8.20328) rotate(90) scale(57.4217 101.012)">
<stop stop-color="#AAAAAA"/>
<stop offset="1" stop-color="#666666"/>
</radialGradient>
<radialGradient id="paint1_radial_107_24" cx="0" cy="0" r="1" gradientUnits="userSpaceOnUse" gradientTransform="translate(31.9997 8.20328) rotate(90) scale(57.4217 101.012)">
<stop stop-color="#AAAAAA"/>
<stop offset="1" stop-color="#666666"/>
</radialGradient>
<radialGradient id="paint2_radial_107_24" cx="0" cy="0" r="1" gradientUnits="userSpaceOnUse" gradientTransform="translate(31.9997 8.20328) rotate(90) scale(57.4217 101.012)">
<stop stop-color="#AAAAAA"/>
<stop offset="1" stop-color="#666666"/>
</radialGradient>
<radialGradient id="paint3_radial_107_24" cx="0" cy="0" r="1" gradientUnits="userSpaceOnUse" gradientTransform="translate(31.9997 8.20328) rotate(90) scale(57.4217 101.012)">
<stop stop-color="#AAAAAA"/>
<stop offset="1" stop-color="#666666"/>
</radialGradient>
<radialGradient id="paint4_radial_107_24" cx="0" cy="0" r="1" gradientUnits="userSpaceOnUse" gradientTransform="translate(31.9997 8.20328) rotate(90) scale(57.4217 101.012)">
<stop stop-color="#AAAAAA"/>
<stop offset="1" stop-color="#666666"/>
</radialGradient>
<radialGradient id="paint5_radial_107_24" cx="0" cy="0" r="1" gradientUnits="userSpaceOnUse" gradientTransform="translate(31.9997 8.20328) rotate(90) scale(57.4217 101.012)">
<stop stop-color="#AAAAAA"/>
<stop offset="1" stop-color="#666666"/>
</radialGradient>
<radialGradient id="paint6_radial_107_24" cx="0" cy="0" r="1" gradientUnits="userSpaceOnUse" gradientTransform="translate(31.9997 8.20328) rotate(90) scale(57.4217 101.012)">
<stop stop-color="#AAAAAA"/>
<stop offset="1" stop-color="#666666"/>
</radialGradient>
<radialGradient id="paint7_radial_107_24" cx="0" cy="0" r="1" gradientUnits="userSpaceOnUse" gradientTransform="translate(31.9997 8.20328) rotate(90) scale(57.4217 101.012)">
<stop stop-color="#AAAAAA"/>
<stop offset="1" stop-color="#666666"/>
</radialGradient>
<radialGradient id="paint8_radial_107_24" cx="0" cy="0" r="1" gradientUnits="userSpaceOnUse" gradientTransform="translate(31.9997 8.20328) rotate(90) scale(57.4217 101.012)">
<stop stop-color="#AAAAAA"/>
<stop offset="1" stop-color="#666666"/>
</radialGradient>
<radialGradient id="paint9_radial_107_24" cx="0" cy="0" r="1" gradientUnits="userSpaceOnUse" gradientTransform="translate(31.9997 8.20328) rotate(90) scale(57.4217 101.012)">
<stop stop-color="#AAAAAA"/>
<stop offset="1" stop-color="#666666"/>
</radialGradient>
<radialGradient id="paint10_radial_107_24" cx="0" cy="0" r="1" gradientUnits="userSpaceOnUse" gradientTransform="translate(31.9997 8.20328) rotate(90) scale(57.4217 101.012)">
<stop stop-color="#AAAAAA"/>
<stop offset="1" stop-color="#666666"/>
</radialGradient>
<linearGradient id="paint11_linear_107_24" x1="49.7705" y1="37" x2="53.6937" y2="85.7898" gradientUnits="userSpaceOnUse">
<stop stop-color="#FA9A43"/>
<stop offset="0.323575" stop-color="#F14949"/>
<stop offset="1" stop-color="#5B12A4"/>
</linearGradient>
<clipPath id="clip0_107_24">
<rect width="64" height="64" fill="white"/>
</clipPath>
</defs>
</svg>
