<svg width="32" height="32" viewBox="0 0 32 32" fill="none" xmlns="http://www.w3.org/2000/svg">
<path d="M15.9999 12.2614C17.1833 12.2614 18.1427 11.3074 18.1427 10.1307C18.1427 8.95395 17.1833 8 15.9999 8C14.8164 8 13.857 8.95395 13.857 10.1307C13.857 11.3074 14.8164 12.2614 15.9999 12.2614Z" fill="url(#paint0_radial_114_89)"/>
<path d="M21 15.8125L20.9999 15.8294V19.5736C20.9999 20.1109 20.5975 20.5641 20.0614 20.6307L19.8842 20.6527C19.7055 20.6749 19.5714 20.826 19.5714 21.0051V22.2896C19.5714 22.6818 19.2515 22.9998 18.8571 22.9998H13.1428C12.7484 22.9998 12.4286 22.6818 12.4286 22.2896V21.0051C12.4286 20.826 12.2945 20.6749 12.1157 20.6527L11.9385 20.6307C11.4024 20.5641 11 20.1109 11 19.5736V15.8125C11.0001 14.2435 13.2386 12.9716 16 12.9716C18.7614 12.9716 21 14.2435 21 15.8125Z" fill="url(#paint1_radial_114_89)"/>
<path d="M2.99992 25.0568C3.71 25.0568 4.28562 24.4844 4.28562 23.7784C4.28562 23.0724 3.71 22.5 2.99992 22.5C2.28984 22.5 1.71422 23.0724 1.71422 23.7784C1.71422 24.4844 2.28984 25.0568 2.99992 25.0568Z" fill="url(#paint2_radial_114_89)"/>
<path d="M6 27.1875L5.99995 27.1977V29.4442C5.99995 29.7665 5.75851 30.0384 5.43682 30.0784L5.33052 30.0916C5.22327 30.105 5.14281 30.1956 5.14281 30.3031V31.0738C5.14281 31.3091 4.95092 31.4999 4.71424 31.4999H1.2857C1.04903 31.4999 0.857136 31.3091 0.857136 31.0738V30.3031C0.857136 30.1956 0.776674 30.105 0.669428 30.0916L0.563123 30.0784C0.241436 30.0384 0 29.7665 0 29.4442V27.1875C5.23154e-05 26.2461 1.34315 25.4829 2.99997 25.4829C4.65685 25.4829 6 26.2461 6 27.1875Z" fill="url(#paint3_radial_114_89)"/>
<path d="M2.99992 2.55681C3.71 2.55681 4.28562 1.98445 4.28562 1.27841C4.28562 0.572367 3.71 0 2.99992 0C2.28984 0 1.71422 0.572367 1.71422 1.27841C1.71422 1.98445 2.28984 2.55681 2.99992 2.55681Z" fill="url(#paint4_radial_114_89)"/>
<path d="M6 4.68748L5.99995 4.69765V6.94417C5.99995 7.26653 5.75851 7.53844 5.43682 7.57842L5.33052 7.59164C5.22327 7.60497 5.14281 7.69561 5.14281 7.80306V8.57376C5.14281 8.8091 4.95092 8.99989 4.71424 8.99989H1.2857C1.04903 8.99989 0.857136 8.8091 0.857136 8.57376V7.80306C0.857136 7.69561 0.776674 7.60497 0.669428 7.59164L0.563123 7.57842C0.241436 7.53844 0 7.26653 0 6.94417V4.68748C5.23154e-05 3.74611 1.34315 2.98295 2.99997 2.98295C4.65685 2.98295 6 3.74609 6 4.68748Z" fill="url(#paint5_radial_114_89)"/>
<path d="M28.9999 25.0568C29.71 25.0568 30.2856 24.4844 30.2856 23.7784C30.2856 23.0724 29.71 22.5 28.9999 22.5C28.2898 22.5 27.7142 23.0724 27.7142 23.7784C27.7142 24.4844 28.2898 25.0568 28.9999 25.0568Z" fill="url(#paint6_radial_114_89)"/>
<path d="M32 27.1875L31.9999 27.1977V29.4442C31.9999 29.7665 31.7585 30.0384 31.4368 30.0784L31.3305 30.0916C31.2233 30.105 31.1428 30.1956 31.1428 30.3031V31.0738C31.1428 31.3091 30.9509 31.4999 30.7142 31.4999H27.2857C27.049 31.4999 26.8571 31.3091 26.8571 31.0738V30.3031C26.8571 30.1956 26.7767 30.105 26.6694 30.0916L26.5631 30.0784C26.2414 30.0384 26 29.7665 26 29.4442V27.1875C26.0001 26.2461 27.3431 25.4829 29 25.4829C30.6569 25.4829 32 26.2461 32 27.1875Z" fill="url(#paint7_radial_114_89)"/>
<path d="M28.9999 2.55681C29.71 2.55681 30.2856 1.98445 30.2856 1.27841C30.2856 0.572367 29.71 0 28.9999 0C28.2898 0 27.7142 0.572367 27.7142 1.27841C27.7142 1.98445 28.2898 2.55681 28.9999 2.55681Z" fill="url(#paint8_radial_114_89)"/>
<path d="M32 4.68748L31.9999 4.69765V6.94417C31.9999 7.26653 31.7585 7.53844 31.4368 7.57842L31.3305 7.59164C31.2233 7.60497 31.1428 7.69561 31.1428 7.80306V8.57376C31.1428 8.8091 30.9509 8.99989 30.7142 8.99989H27.2857C27.049 8.99989 26.8571 8.8091 26.8571 8.57376V7.80306C26.8571 7.69561 26.7767 7.60497 26.6694 7.59164L26.5631 7.57842C26.2414 7.53844 26 7.26653 26 6.94417V4.68748C26.0001 3.74611 27.3431 2.98295 29 2.98295C30.6569 2.98295 32 3.74609 32 4.68748Z" fill="url(#paint9_radial_114_89)"/>
<path d="M6.25 8.5V10.75C6.25 10.8881 6.36193 11 6.5 11C6.63807 11 6.75 10.8881 6.75 10.75V9.10355L10.3964 12.75H8.75C8.61193 12.75 8.5 12.8619 8.5 13C8.5 13.1381 8.61193 13.25 8.75 13.25H11C11.1381 13.25 11.25 13.1381 11.25 13V10.75C11.25 10.6119 11.1381 10.5 11 10.5C10.8619 10.5 10.75 10.6119 10.75 10.75V12.3964L7.10355 8.75H8.75C8.88807 8.75 9 8.63807 9 8.5C9 8.36193 8.88807 8.25 8.75 8.25H6.5C6.36193 8.25 6.25 8.36193 6.25 8.5Z" fill="url(#paint10_radial_114_89)"/>
<path d="M6.25 26V23.75C6.25 23.6119 6.36193 23.5 6.5 23.5C6.63807 23.5 6.75 23.6119 6.75 23.75V25.3964L10.3964 21.75H8.75C8.61193 21.75 8.5 21.6381 8.5 21.5C8.5 21.3619 8.61193 21.25 8.75 21.25H11C11.1381 21.25 11.25 21.3619 11.25 21.5V23.75C11.25 23.8881 11.1381 24 11 24C10.8619 24 10.75 23.8881 10.75 23.75V22.1036L7.10355 25.75H8.75C8.88807 25.75 9 25.8619 9 26C9 26.1381 8.88807 26.25 8.75 26.25H6.5C6.36193 26.25 6.25 26.1381 6.25 26Z" fill="url(#paint11_radial_114_89)"/>
<path d="M25.75 10.75V8.5C25.75 8.36193 25.6381 8.25 25.5 8.25H23.25C23.1119 8.25 23 8.36193 23 8.5C23 8.63807 23.1119 8.75 23.25 8.75H24.8964L21.25 12.3964V10.75C21.25 10.6119 21.1381 10.5 21 10.5C20.8619 10.5 20.75 10.6119 20.75 10.75V13C20.75 13.1381 20.8619 13.25 21 13.25H23.25C23.3881 13.25 23.5 13.1381 23.5 13C23.5 12.8619 23.3881 12.75 23.25 12.75H21.6036L25.25 9.10355V10.75C25.25 10.8881 25.3619 11 25.5 11C25.6381 11 25.75 10.8881 25.75 10.75Z" fill="url(#paint12_radial_114_89)"/>
<path d="M25.75 26V23.75C25.75 23.6119 25.6381 23.5 25.5 23.5C25.3619 23.5 25.25 23.6119 25.25 23.75V25.3964L21.6036 21.75H23.25C23.3881 21.75 23.5 21.6381 23.5 21.5C23.5 21.3619 23.3881 21.25 23.25 21.25H21C20.8619 21.25 20.75 21.3619 20.75 21.5V23.75C20.75 23.8881 20.8619 24 21 24C21.1381 24 21.25 23.8881 21.25 23.75V22.1036L24.8964 25.75H23.25C23.1119 25.75 23 25.8619 23 26C23 26.1381 23.1119 26.25 23.25 26.25H25.5C25.6381 26.25 25.75 26.1381 25.75 26Z" fill="url(#paint13_radial_114_89)"/>
<defs>
<radialGradient id="paint0_radial_114_89" cx="0" cy="0" r="1" gradientUnits="userSpaceOnUse" gradientTransform="translate(16 3.93756) rotate(90) scale(27.5623 25.2533)">
<stop stop-color="#AAAAAA"/>
<stop offset="1" stop-color="#666666"/>
</radialGradient>
<radialGradient id="paint1_radial_114_89" cx="0" cy="0" r="1" gradientUnits="userSpaceOnUse" gradientTransform="translate(16 3.93756) rotate(90) scale(27.5623 25.2533)">
<stop stop-color="#AAAAAA"/>
<stop offset="1" stop-color="#666666"/>
</radialGradient>
<radialGradient id="paint2_radial_114_89" cx="0" cy="0" r="1" gradientUnits="userSpaceOnUse" gradientTransform="translate(16 3.93756) rotate(90) scale(27.5623 25.2533)">
<stop stop-color="#AAAAAA"/>
<stop offset="1" stop-color="#666666"/>
</radialGradient>
<radialGradient id="paint3_radial_114_89" cx="0" cy="0" r="1" gradientUnits="userSpaceOnUse" gradientTransform="translate(16 3.93756) rotate(90) scale(27.5623 25.2533)">
<stop stop-color="#AAAAAA"/>
<stop offset="1" stop-color="#666666"/>
</radialGradient>
<radialGradient id="paint4_radial_114_89" cx="0" cy="0" r="1" gradientUnits="userSpaceOnUse" gradientTransform="translate(16 3.93756) rotate(90) scale(27.5623 25.2533)">
<stop stop-color="#AAAAAA"/>
<stop offset="1" stop-color="#666666"/>
</radialGradient>
<radialGradient id="paint5_radial_114_89" cx="0" cy="0" r="1" gradientUnits="userSpaceOnUse" gradientTransform="translate(16 3.93756) rotate(90) scale(27.5623 25.2533)">
<stop stop-color="#AAAAAA"/>
<stop offset="1" stop-color="#666666"/>
</radialGradient>
<radialGradient id="paint6_radial_114_89" cx="0" cy="0" r="1" gradientUnits="userSpaceOnUse" gradientTransform="translate(16 3.93756) rotate(90) scale(27.5623 25.2533)">
<stop stop-color="#AAAAAA"/>
<stop offset="1" stop-color="#666666"/>
</radialGradient>
<radialGradient id="paint7_radial_114_89" cx="0" cy="0" r="1" gradientUnits="userSpaceOnUse" gradientTransform="translate(16 3.93756) rotate(90) scale(27.5623 25.2533)">
<stop stop-color="#AAAAAA"/>
<stop offset="1" stop-color="#666666"/>
</radialGradient>
<radialGradient id="paint8_radial_114_89" cx="0" cy="0" r="1" gradientUnits="userSpaceOnUse" gradientTransform="translate(16 3.93756) rotate(90) scale(27.5623 25.2533)">
<stop stop-color="#AAAAAA"/>
<stop offset="1" stop-color="#666666"/>
</radialGradient>
<radialGradient id="paint9_radial_114_89" cx="0" cy="0" r="1" gradientUnits="userSpaceOnUse" gradientTransform="translate(16 3.93756) rotate(90) scale(27.5623 25.2533)">
<stop stop-color="#AAAAAA"/>
<stop offset="1" stop-color="#666666"/>
</radialGradient>
<radialGradient id="paint10_radial_114_89" cx="0" cy="0" r="1" gradientUnits="userSpaceOnUse" gradientTransform="translate(16 3.93756) rotate(90) scale(27.5623 25.2533)">
<stop stop-color="#AAAAAA"/>
<stop offset="1" stop-color="#666666"/>
</radialGradient>
<radialGradient id="paint11_radial_114_89" cx="0" cy="0" r="1" gradientUnits="userSpaceOnUse" gradientTransform="translate(16 3.93756) rotate(90) scale(27.5623 25.2533)">
<stop stop-color="#AAAAAA"/>
<stop offset="1" stop-color="#666666"/>
</radialGradient>
<radialGradient id="paint12_radial_114_89" cx="0" cy="0" r="1" gradientUnits="userSpaceOnUse" gradientTransform="translate(16 3.93756) rotate(90) scale(27.5623 25.2533)">
<stop stop-color="#AAAAAA"/>
<stop offset="1" stop-color="#666666"/>
</radialGradient>
<radialGradient id="paint13_radial_114_89" cx="0" cy="0" r="1" gradientUnits="userSpaceOnUse" gradientTransform="translate(16 3.93756) rotate(90) scale(27.5623 25.2533)">
<stop stop-color="#AAAAAA"/>
<stop offset="1" stop-color="#666666"/>
</radialGradient>
</defs>
</svg>
