<svg width="20" height="20" viewBox="0 0 20 20" fill="none" xmlns="http://www.w3.org/2000/svg">
<path fill-rule="evenodd" clip-rule="evenodd" d="M19.5 10C19.5 15.2467 15.2467 19.5 10 19.5C4.75329 19.5 0.5 15.2467 0.5 10C0.5 4.75329 4.75329 0.5 10 0.5C15.2467 0.5 19.5 4.75329 19.5 10ZM17.9167 10C17.9167 14.3723 14.3723 17.9167 10 17.9167C8.09008 17.9167 6.33813 17.2403 4.97058 16.1141L16.2193 5.10115C17.2823 6.44883 17.9167 8.15034 17.9167 10ZM15.0285 3.88515C13.6611 2.75937 11.9095 2.08333 10 2.08333C5.62775 2.08333 2.08333 5.62775 2.08333 10C2.08333 11.8492 2.71738 13.5504 3.77993 14.8979L15.0285 3.88515Z" fill="#FA3C3C"/>
</svg>
