<svg width="16" height="16" viewBox="0 0 16 16" fill="none" xmlns="http://www.w3.org/2000/svg">
<path d="M8 11.5379C7.65454 11.5379 7.375 11.2471 7.375 10.8883V2.55603L4.03149 5.5347C3.77026 5.7682 3.37476 5.73665 3.15015 5.46424C2.92554 5.19184 2.95605 4.78172 3.21851 4.54822L7.58374 0.658329C7.82178 0.447224 8.17822 0.447224 8.41626 0.658329L12.7815 4.54822C13.0439 4.78172 13.0745 5.19184 12.8499 5.46424C12.6252 5.73665 12.2297 5.7682 11.9685 5.5347L8.625 2.55603V10.8883C8.625 11.2471 8.34546 11.5379 8 11.5379Z" fill="#AAAAAA"/>
<path d="M0.5 12.375C0.5 12.0298 0.779541 11.75 1.125 11.75C1.47046 11.75 1.75 12.0298 1.75 12.375V13.625C1.75 13.9702 2.02954 14.25 2.375 14.25H13.625C13.9705 14.25 14.25 13.9702 14.25 13.625V12.375C14.25 12.0298 14.5295 11.75 14.875 11.75C15.2205 11.75 15.5 12.0298 15.5 12.375V14.25C15.5 14.9403 14.9409 15.5 14.25 15.5H1.75C1.05908 15.5 0.5 14.9403 0.5 14.25V12.375Z" fill="#AAAAAA"/>
</svg>
