<svg width="22" height="22" viewBox="0 0 22 22" fill="none" xmlns="http://www.w3.org/2000/svg">
<g id="Frame 969">
<rect id="Rectangle 590" x="4.25" y="6.5" width="12.375" height="10.125" fill="black"/>
<g id="Subtract" filter="url(#filter0_d_514_7142)">
<path fill-rule="evenodd" clip-rule="evenodd" d="M5 2.75C3.34308 2.75 2 4.09308 2 5.75V16.25C2 17.9069 3.34308 19.25 5 19.25H17C18.6569 19.25 20 17.9069 20 16.25V5.75C20 4.09308 18.6569 2.75 17 2.75H5ZM14.3049 10.28L9.16547 7.71106C8.63007 7.44336 8 7.83264 8 8.43103V13.569C8 14.1674 8.63007 14.5566 9.16547 14.2889L14.3049 11.72C14.8983 11.4233 14.8983 10.5767 14.3049 10.28Z" fill="white"/>
</g>
</g>
<defs>
<filter id="filter0_d_514_7142" x="0" y="0.75" width="22" height="20.5" filterUnits="userSpaceOnUse" color-interpolation-filters="sRGB">
<feFlood flood-opacity="0" result="BackgroundImageFix"/>
<feColorMatrix in="SourceAlpha" type="matrix" values="0 0 0 0 0 0 0 0 0 0 0 0 0 0 0 0 0 0 127 0" result="hardAlpha"/>
<feOffset/>
<feGaussianBlur stdDeviation="1"/>
<feComposite in2="hardAlpha" operator="out"/>
<feColorMatrix type="matrix" values="0 0 0 0 0 0 0 0 0 0 0 0 0 0 0 0 0 0 0.5 0"/>
<feBlend mode="normal" in2="BackgroundImageFix" result="effect1_dropShadow_514_7142"/>
<feBlend mode="normal" in="SourceGraphic" in2="effect1_dropShadow_514_7142" result="shape"/>
</filter>
</defs>
</svg>
