<?xml version="1.0" encoding="UTF-8"?>
<svg id="Layer_1" data-name="Layer 1" xmlns="http://www.w3.org/2000/svg" viewBox="0 0 64.02 95.98">
  <path d="M30.95,95.98c-.98,0-1.98-.22-2.94-.66-3.11-1.38-4.7-4.86-3.72-8.12l7.02-23.21H10.01c-3.2,0-6.12-1.47-8.03-4.04-1.9-2.57-2.47-5.79-1.54-8.85L12.52,7.15C13.77,2.9,17.68,0,22.11,0h17.49C44.24,0,48,3.76,47.99,8.4c0,1-.18,2-.53,2.93l-8.64,24.66h15.18c3.77,0,7.07,1.99,8.83,5.32,1.77,3.26,1.55,7.24-.56,10.29l-25.64,41.24c-1.35,2.04-3.47,3.14-5.68,3.14h0ZM22.11,4c-2.66,0-4.97,1.71-5.74,4.26L4.28,52.2c-.57,1.88-.23,3.82.91,5.36s2.9,2.42,4.82,2.42h23.99c1.1,0,2,.9,2,2,0,.19-.03.39-.08.57l-7.79,25.76c-.49,1.71.48,2.86,1.56,3.36s2.58.5,3.58-1.01l25.64-41.25c1.31-1.94,1.44-4.24.38-6.24s-3.03-3.18-5.3-3.18h-18c-1.11,0-2-.9-2-2.01,0-.22.04-.44.11-.66l9.59-27.35c.53-1.36.35-2.89-.49-4.08-.81-1.2-2.16-1.9-3.61-1.89h-17.48Z"/>
</svg>
