<svg width="24" height="24" viewBox="0 0 24 24" fill="none" xmlns="http://www.w3.org/2000/svg">
<path d="M11.1429 0.857143C11.1429 0.383756 11.5266 0 12 0C12.4734 0 12.8571 0.383756 12.8571 0.857143V2.57143C12.8571 3.04482 12.4734 3.42857 12 3.42857C11.5266 3.42857 11.1429 3.04482 11.1429 2.57143V0.857143Z" fill="#AAAAAA"/>
<path fill-rule="evenodd" clip-rule="evenodd" d="M12 18.8571C15.7871 18.8571 18.8571 15.7871 18.8571 12C18.8571 8.2129 15.7871 5.14286 12 5.14286C8.2129 5.14286 5.14286 8.2129 5.14286 12C5.14286 15.7871 8.2129 18.8571 12 18.8571ZM12 17.1429C14.8403 17.1429 17.1429 14.8403 17.1429 12C17.1429 9.15968 14.8403 6.85714 12 6.85714C9.15968 6.85714 6.85714 9.15968 6.85714 12C6.85714 14.8403 9.15968 17.1429 12 17.1429Z" fill="#AAAAAA"/>
<path d="M12 20.5714C11.5266 20.5714 11.1429 20.9552 11.1429 21.4286V23.1429C11.1429 23.6162 11.5266 24 12 24C12.4734 24 12.8571 23.6162 12.8571 23.1429V21.4286C12.8571 20.9552 12.4734 20.5714 12 20.5714Z" fill="#AAAAAA"/>
<path d="M19.2731 3.51472C19.6078 3.17999 20.1505 3.17999 20.4853 3.51472C20.82 3.84946 20.82 4.39217 20.4853 4.7269L19.2731 5.93909C18.9384 6.27382 18.3956 6.27382 18.0609 5.93909C17.7262 5.60435 17.7262 5.06164 18.0609 4.7269L19.2731 3.51472Z" fill="#AAAAAA"/>
<path d="M5.93908 18.0609C5.60435 17.7262 5.06163 17.7262 4.7269 18.0609L3.51471 19.2731C3.17998 19.6078 3.17998 20.1505 3.51471 20.4853C3.84945 20.82 4.39216 20.82 4.7269 20.4853L5.93908 19.2731C6.27382 18.9384 6.27382 18.3957 5.93908 18.0609Z" fill="#AAAAAA"/>
<path d="M0.857143 12.8571C0.383756 12.8571 0 12.4734 0 12C0 11.5266 0.383756 11.1429 0.857143 11.1429H2.57143C3.04482 11.1429 3.42857 11.5266 3.42857 12C3.42857 12.4734 3.04482 12.8571 2.57143 12.8571H0.857143Z" fill="#AAAAAA"/>
<path d="M20.5714 12C20.5714 12.4734 20.9552 12.8571 21.4286 12.8571H23.1429C23.6162 12.8571 24 12.4734 24 12C24 11.5266 23.6162 11.1429 23.1429 11.1429H21.4286C20.9552 11.1429 20.5714 11.5266 20.5714 12Z" fill="#AAAAAA"/>
<path d="M3.51472 4.72691C3.17999 4.39217 3.17999 3.84946 3.51472 3.51472C3.84946 3.17999 4.39217 3.17999 4.7269 3.51472L5.93909 4.72691C6.27382 5.06164 6.27382 5.60435 5.93909 5.93909C5.60435 6.27382 5.06164 6.27382 4.7269 5.93909L3.51472 4.72691Z" fill="#AAAAAA"/>
<path d="M18.0609 18.0609C17.7262 18.3957 17.7262 18.9384 18.0609 19.2731L19.2731 20.4853C19.6078 20.82 20.1505 20.82 20.4853 20.4853C20.82 20.1506 20.82 19.6078 20.4853 19.2731L19.2731 18.0609C18.9384 17.7262 18.3957 17.7262 18.0609 18.0609Z" fill="#AAAAAA"/>
</svg>
