<svg width="28" height="28" viewBox="0 0 28 28" fill="none" xmlns="http://www.w3.org/2000/svg">
<g clip-path="url(#clip0_596_10291)">
<path fill-rule="evenodd" clip-rule="evenodd" d="M0 3C0 1.34315 1.34315 0 3 0H25C26.6569 0 28 1.34315 28 3V17C28 18.6569 26.6569 20 25 20H24V28L16 20H3C1.34315 20 0 18.6569 0 17V3ZM5 5C4.44772 5 4 5.44772 4 6C4 6.55228 4.44772 7 5 7H23C23.5523 7 24 6.55228 24 6C24 5.44772 23.5523 5 23 5H5ZM4 10C4 9.44771 4.44772 9 5 9H23C23.5523 9 24 9.44771 24 10C24 10.5523 23.5523 11 23 11H5C4.44772 11 4 10.5523 4 10ZM5 13C4.44772 13 4 13.4477 4 14C4 14.5523 4.44772 15 5 15H13C13.5523 15 14 14.5523 14 14C14 13.4477 13.5523 13 13 13H5Z" fill="black"/>
</g>
<defs>
<clipPath id="clip0_596_10291">
<rect width="28" height="28" fill="white"/>
</clipPath>
</defs>
</svg>
