<svg width="28" height="28" viewBox="0 0 28 28" fill="none" xmlns="http://www.w3.org/2000/svg">
<path fill-rule="evenodd" clip-rule="evenodd" d="M23.7379 15.1833C23.7379 16.3679 24.0794 17.5259 24.7192 18.5115L26.8761 21.834C27.1997 22.3324 26.8517 23 26.2684 23H18.3823V23.5C18.3823 25.9853 16.4204 28 14.0002 28C11.5801 28 9.61815 25.9853 9.61815 23.5V23H1.73157C1.14825 23 0.80032 22.3324 1.12389 21.834L3.28079 18.5115C3.92064 17.5259 4.26208 16.3679 4.26208 15.1833V10C4.26208 4.47715 8.62189 0 14 0C19.3781 0 23.7379 4.47715 23.7379 10V15.1833ZM10.5919 23H17.4085V23.5C17.4085 25.433 15.8826 27 14.0002 27C12.1179 27 10.5919 25.433 10.5919 23.5V23ZM22.764 10V15.1833C22.764 16.5653 23.1623 17.9164 23.9088 19.0662L25.8134 22H2.18633L4.09091 19.0662C4.8374 17.9164 5.23575 16.5653 5.23575 15.1833V10C5.23575 5.02944 9.15958 1 13.9999 1C18.8402 1 22.764 5.02944 22.764 10Z" fill="black"/>
</svg>
