<svg width="28" height="28" viewBox="0 0 28 28" fill="none" xmlns="http://www.w3.org/2000/svg">
<g clip-path="url(#clip0_596_10325)">
<path fill-rule="evenodd" clip-rule="evenodd" d="M17.2954 4.69519L16.6245 0L10.6245 0L9.95361 4.69519C9.02832 5.06055 8.17041 5.55994 7.4043 6.16956L3 4.40186L0 9.59802L3.73193 12.5276C3.66113 13.0081 3.62451 13.4998 3.62451 14C3.62451 14.5002 3.66113 14.9919 3.73193 15.4724L0 18.4019L3 23.598L7.40381 21.8303C8.16992 22.4399 9.02832 22.9395 9.95361 23.3048L10.6245 28H16.6245L17.2954 23.3048C18.2207 22.9395 19.0786 22.4401 19.8447 21.8304L24.2485 23.598L27.2485 18.4019L23.5166 15.4727C23.5874 14.9921 23.6245 14.5004 23.6245 14C23.6245 13.4996 23.5874 13.0079 23.5166 12.5272L27.2485 9.59802L24.2485 4.40186L19.8447 6.16956C19.0786 5.56006 18.2207 5.06055 17.2954 4.69519ZM23.8162 5.65297L19.6774 7.31428L19.2221 6.95211C18.5323 6.40329 17.7602 5.95386 16.9281 5.62531L16.3877 5.41189L15.7572 1L11.4918 1L10.8614 5.41189L10.3209 5.62531C9.48873 5.95388 8.71671 6.40319 8.02695 6.95205L7.57172 7.31429L3.43239 5.65294L1.29966 9.34695L4.80584 12.0993L4.72125 12.6734C4.65755 13.1056 4.62451 13.5486 4.62451 14C4.62451 14.4514 4.65755 14.8944 4.72125 15.3266L4.80585 15.9007L1.29967 18.6529L3.43237 22.3469L7.57121 20.6856L8.02646 21.0478C8.71614 21.5966 9.48864 22.0461 10.3209 22.3747L10.8614 22.5881L11.4918 27H15.7572L16.3877 22.5881L16.9281 22.3747C17.7603 22.0461 18.5323 21.5968 19.2221 21.0479L19.6773 20.6857L23.8162 22.3469L25.9489 18.653L22.4427 15.901L22.5273 15.3269C22.5911 14.8938 22.6245 14.4508 22.6245 14C22.6245 13.5492 22.5911 13.1062 22.5273 12.6729L22.4427 12.0989L25.9489 9.3469L23.8162 5.65297ZM18.6245 14C18.6245 16.7614 16.3858 19 13.6245 19C10.8633 19 8.62451 16.7614 8.62451 14C8.62451 11.2386 10.8633 9 13.6245 9C16.3858 9 18.6245 11.2386 18.6245 14ZM17.6245 14C17.6245 16.2091 15.8335 18 13.6245 18C11.4155 18 9.62451 16.2091 9.62451 14C9.62451 11.7909 11.4155 10 13.6245 10C15.8335 10 17.6245 11.7909 17.6245 14Z" fill="black"/>
</g>
<defs>
<clipPath id="clip0_596_10325">
<rect width="28" height="28" fill="white"/>
</clipPath>
</defs>
</svg>
