<svg width="28" height="28" viewBox="0 0 28 28" fill="none" xmlns="http://www.w3.org/2000/svg">
<path d="M15 1C15 0.447715 14.5523 0 14 0C13.4477 0 13 0.447715 13 1V18.5858L6.70711 12.2929C6.31658 11.9024 5.68342 11.9024 5.29289 12.2929C4.90237 12.6834 4.90237 13.3166 5.29289 13.7071L13.9596 22.3738L23.6644 13.7474C24.0771 13.3805 24.1143 12.7484 23.7474 12.3356C23.3805 11.9229 22.7484 11.8857 22.3356 12.2526L15 18.7732V1Z" fill="black"/>
<path d="M2 21C2 20.4477 1.55228 20 1 20C0.447715 20 0 20.4477 0 21V24C0 26.2091 1.79086 28 4 28H24C26.2091 28 28 26.2091 28 24V21C28 20.4477 27.5523 20 27 20C26.4477 20 26 20.4477 26 21V24C26 25.1046 25.1046 26 24 26H4C2.89543 26 2 25.1046 2 24V21Z" fill="black"/>
</svg>
