<svg width="28" height="28" viewBox="0 0 28 28" fill="none" xmlns="http://www.w3.org/2000/svg">
<g clip-path="url(#clip0_596_10327)">
<path fill-rule="evenodd" clip-rule="evenodd" d="M14 28C21.732 28 28 21.732 28 14C28 6.26801 21.732 0 14 0C6.26801 0 0 6.26801 0 14C0 21.732 6.26801 28 14 28ZM12.6755 22.6715C12.472 22.4441 12.3703 22.1704 12.3703 21.8503C12.3703 21.5387 12.472 21.2734 12.6755 21.0544C12.8881 20.827 13.1886 20.7133 13.577 20.7133C13.9746 20.7133 14.2751 20.827 14.4785 21.0544C14.6912 21.2734 14.7975 21.5387 14.7975 21.8503C14.7975 22.1704 14.6912 22.4441 14.4785 22.6715C14.2751 22.8905 13.9792 23 13.5908 23C13.1932 23 12.8881 22.8905 12.6755 22.6715ZM10.6782 9.86397H9V9.56076C9 8.1879 9.45307 7.08456 10.3592 6.25074C11.2654 5.41691 12.4998 5 14.0624 5C15.6251 5 16.8363 5.40428 17.6963 6.21283C18.5654 7.02139 19 8.0742 19 9.37126C19 10.5251 18.7319 11.4853 18.1956 12.2517C17.6685 13.0182 17.0213 13.7383 16.2538 14.4121C15.4216 15.128 14.8946 15.7934 14.6727 16.4082C14.46 17.0146 14.3537 17.6505 14.3537 18.3159V18.4422H12.6616V18.3159C12.6616 17.3136 12.8188 16.4714 13.1331 15.7892C13.4475 15.0985 14.0301 14.3784 14.8807 13.6288C15.6667 12.9213 16.2677 12.2686 16.6838 11.6706C17.1091 11.0726 17.3218 10.3061 17.3218 9.37126C17.3218 8.45321 17.0536 7.71624 16.5173 7.16036C15.981 6.60448 15.1674 6.32654 14.0763 6.32654C12.976 6.32654 12.1345 6.61711 11.552 7.19826C10.9695 7.77099 10.6782 8.56691 10.6782 9.58603V9.86397Z" fill="black"/>
</g>
<defs>
<clipPath id="clip0_596_10327">
<rect width="28" height="28" fill="white"/>
</clipPath>
</defs>
</svg>
