<svg width="24" height="20" viewBox="0 0 24 20" fill="none" xmlns="http://www.w3.org/2000/svg">
<path d="M4.86364 11.1111V10.6111H4.36364H1.27593L11.6603 0.995962C11.852 0.818469 12.148 0.818469 12.3397 0.995962L22.7241 10.6111L19.6364 10.6111H19.1364V11.1111V14.4444V19C19.1364 19.2761 18.9125 19.5 18.6364 19.5H15.1818C14.9057 19.5 14.6818 19.2761 14.6818 19V14.3333C14.6818 13.5049 14.0102 12.8333 13.1818 12.8333H12H10.8182C9.98975 12.8333 9.31818 13.5049 9.31818 14.3333V19C9.31818 19.2761 9.09433 19.5 8.81818 19.5H5.36364C5.08749 19.5 4.86364 19.2761 4.86364 19V14.4444V11.1111Z" fill="#AAAAAA" stroke="#AAAAAA"/>
</svg>
