<svg width="48" height="48" viewBox="0 0 48 48" fill="none" xmlns="http://www.w3.org/2000/svg">
<rect width="48" height="48" fill="black"/>
<mask id="path-1-inside-1_549_6667" fill="white">
<path fill-rule="evenodd" clip-rule="evenodd" d="M13 11C11.3431 11 10 12.3431 10 14V28C10 29.6569 11.3431 31 13 31H26L34 39V31H35C36.6569 31 38 29.6569 38 28V14C38 12.3431 36.6569 11 35 11H13Z"/>
</mask>
<path d="M26 31L26.7071 30.2929L26.4142 30H26V31ZM34 39L33.2929 39.7071L35 41.4142V39H34ZM34 31V30H33V31H34ZM11 14C11 12.8954 11.8954 12 13 12V10C10.7909 10 9 11.7909 9 14H11ZM11 28V14H9V28H11ZM13 30C11.8954 30 11 29.1046 11 28H9C9 30.2091 10.7909 32 13 32V30ZM26 30H13V32H26V30ZM34.7071 38.2929L26.7071 30.2929L25.2929 31.7071L33.2929 39.7071L34.7071 38.2929ZM33 31V39H35V31H33ZM35 30H34V32H35V30ZM37 28C37 29.1046 36.1046 30 35 30V32C37.2091 32 39 30.2091 39 28H37ZM37 14V28H39V14H37ZM35 12C36.1046 12 37 12.8954 37 14H39C39 11.7909 37.2091 10 35 10V12ZM13 12H35V10H13V12Z" fill="#AAAAAA" mask="url(#path-1-inside-1_549_6667)"/>
<rect x="14" y="16" width="20" height="2" rx="1" fill="#AAAAAA"/>
<rect x="14" y="20" width="20" height="2" rx="1" fill="#AAAAAA"/>
<rect x="14" y="24" width="10" height="2" rx="1" fill="#AAAAAA"/>
</svg>
