<svg width="28" height="28" viewBox="0 0 28 28" fill="none" xmlns="http://www.w3.org/2000/svg">
<path d="M23.7379 15.1833V10C23.7379 4.47715 19.3781 0 14 0C8.6219 0 4.26208 4.47715 4.26208 10V15.1833C4.26208 16.3679 3.92064 17.5259 3.28079 18.5115L1.12389 21.834C0.80032 22.3324 1.14825 23 1.73157 23H26.2684C26.8517 23 27.1997 22.3324 26.8761 21.834L24.7192 18.5115C24.0794 17.5259 23.7379 16.3679 23.7379 15.1833Z" fill="black"/>
<path d="M14.0002 28C11.849 28 10.1051 26.2091 10.1051 24H17.8954C17.8954 26.2091 16.1515 28 14.0002 28Z" fill="black"/>
</svg>
