<svg width="48" height="48" viewBox="0 0 48 48" fill="none" xmlns="http://www.w3.org/2000/svg">
<rect width="48" height="48" fill="black"/>
<path d="M26.2624 16.0949L26.3033 16.3822L26.5731 16.4892C27.3159 16.7838 28.0049 17.1868 28.6205 17.6788L28.8487 17.8612L29.1196 17.7519L32.4736 16.3995L34.6013 20.1016L31.7561 22.345L31.529 22.524L31.571 22.8102C31.6279 23.1985 31.6578 23.5958 31.6578 24C31.6578 24.4042 31.6279 24.8014 31.571 25.1897L31.529 25.4759L31.7561 25.6549L34.6013 27.8983L32.4736 31.6004L29.1196 30.2481L28.8487 30.1388L28.6205 30.3213C28.0049 30.8133 27.3159 31.2161 26.5731 31.5108L26.3033 31.6178L26.2624 31.9051L25.7511 35.5H21.4993L20.988 31.9051L20.9471 31.6178L20.6773 31.5108C19.9345 31.2161 19.245 30.8132 18.6295 30.3211L18.4013 30.1387L18.1304 30.248L14.7764 31.6004L12.6487 27.8983L15.4939 25.6547L15.721 25.4756L15.679 25.1895C15.6221 24.8017 15.5926 24.4045 15.5926 24C15.5926 23.5955 15.6221 23.1983 15.679 22.8105L15.721 22.5244L15.4939 22.3453L12.6487 20.1016L14.7764 16.3995L18.1308 17.7519L18.4018 17.8612L18.63 17.6787C19.2455 17.1867 19.9345 16.7839 20.6773 16.4892L20.9471 16.3822L20.988 16.0949L21.4993 12.5H25.7511L26.2624 16.0949ZM23.6252 27.9286C25.7883 27.9286 27.5382 26.1675 27.5382 24C27.5382 21.8325 25.7883 20.0714 23.6252 20.0714C21.4621 20.0714 19.7122 21.8325 19.7122 24C19.7122 26.1675 21.4621 27.9286 23.6252 27.9286Z" fill="black" stroke="#AAAAAA"/>
</svg>
