<svg width="28" height="28" viewBox="0 0 28 28" fill="none" xmlns="http://www.w3.org/2000/svg">
<path d="M14.5 1C14.5 0.723858 14.2761 0.5 14 0.5C13.7239 0.5 13.5 0.723858 13.5 1V19.7929L6.35355 12.6464C6.15829 12.4512 5.84171 12.4512 5.64645 12.6464C5.45118 12.8417 5.45118 13.1583 5.64645 13.3536L13.9798 21.6869L23.3322 13.3737C23.5386 13.1902 23.5572 12.8742 23.3737 12.6678C23.1902 12.4614 22.8742 12.4428 22.6678 12.6263L14.5 19.8866V1Z" fill="black"/>
<path d="M1.5 21C1.5 20.7239 1.27614 20.5 1 20.5C0.723858 20.5 0.5 20.7239 0.5 21V24C0.5 25.933 2.067 27.5 4 27.5H24C25.933 27.5 27.5 25.933 27.5 24V21C27.5 20.7239 27.2761 20.5 27 20.5C26.7239 20.5 26.5 20.7239 26.5 21V24C26.5 25.3807 25.3807 26.5 24 26.5H4C2.61929 26.5 1.5 25.3807 1.5 24V21Z" fill="black"/>
</svg>
