<svg width="28" height="28" viewBox="0 0 28 28" fill="none" xmlns="http://www.w3.org/2000/svg">
<g clip-path="url(#clip0_596_10277)">
<path d="M15.9998 14C15.9998 15.1046 15.1043 16 13.9998 16C12.8952 16 11.9998 15.1046 11.9998 14C11.9998 12.8954 12.8952 12 13.9998 12C15.1043 12 15.9998 12.8954 15.9998 14Z" fill="black"/>
<path fill-rule="evenodd" clip-rule="evenodd" d="M14 28C21.732 28 28 21.732 28 14C28 6.26801 21.732 0 14 0C6.26801 0 0 6.26801 0 14C0 21.732 6.26801 28 14 28ZM19.4561 4.07752C19.6354 3.92261 19.9096 4.08088 19.8651 4.31365L17.9648 14.2553C17.8021 15.1066 17.3672 15.8821 16.7257 16.465L8.57826 23.8669C8.39817 24.0306 8.1142 23.8666 8.16585 23.6288L10.5024 12.872C10.6864 12.0249 11.1406 11.2606 11.7965 10.694L19.4561 4.07752Z" fill="black"/>
</g>
<defs>
<clipPath id="clip0_596_10277">
<rect width="28" height="28" fill="white"/>
</clipPath>
</defs>
</svg>
