<svg width="28" height="28" viewBox="0 0 28 28" fill="none" xmlns="http://www.w3.org/2000/svg">
<path d="M1.25003 15.3334C0.798674 15.3334 0.578359 14.7826 0.905202 14.4713L13.3104 2.65684C13.6966 2.28903 14.3035 2.28903 14.6897 2.65684L27.0949 14.4713C27.4217 14.7826 27.2014 15.3334 26.75 15.3334H22.9091V19.3334V25C22.9091 25.5523 22.4614 26 21.9091 26H17.5455C16.9932 26 16.5455 25.5523 16.5455 25V19C16.5455 18.4477 16.0978 18 15.5455 18H14H12.4546C11.9023 18 11.4546 18.4477 11.4546 19V25C11.4546 25.5523 11.0069 26 10.4546 26H6.09094C5.53865 26 5.09094 25.5523 5.09094 25V19.3334V15.3334H1.25003Z" fill="black"/>
</svg>
