<svg width="16" height="16" viewBox="0 0 16 16" fill="none" xmlns="http://www.w3.org/2000/svg">
<path fill-rule="evenodd" clip-rule="evenodd" d="M4.73333 2.91642C3.11685 2.91642 1.93333 4.00588 1.93333 5.20748C1.93333 5.29374 1.93916 5.37869 1.95048 5.46215L1.95138 5.46876L1.95208 5.4754C2.01558 6.07723 2.29005 7.56254 3.46836 9.05006C4.24775 10.034 5.43453 11.0364 6.44754 11.8038C6.95027 12.1845 7.40296 12.502 7.72969 12.7241C7.8334 12.7946 7.92432 12.8555 8 12.9056C8.07568 12.8555 8.1666 12.7946 8.27031 12.7241C8.59704 12.502 9.04973 12.1845 9.55246 11.8038C10.5655 11.0364 11.7522 10.034 12.5316 9.05006C13.7099 7.56254 13.9844 6.07723 14.0479 5.4754L14.0486 5.46876L14.0495 5.46215C14.0608 5.37869 14.0667 5.29374 14.0667 5.20748C14.0667 4.00588 12.8831 2.91642 11.2667 2.91642C10.722 2.91642 10.1388 3.21895 9.60174 3.70675C9.07165 4.18825 8.64827 4.79574 8.4247 5.27777L8 6.1934L7.5753 5.27777C7.35173 4.79574 6.92835 4.18825 6.39826 3.70675C5.86124 3.21895 5.27798 2.91642 4.73333 2.91642ZM8 13.4553C7.74765 13.8407 7.74752 13.8406 7.74752 13.8406L7.74457 13.8388L7.7368 13.8338L7.70765 13.8152C7.68232 13.799 7.64538 13.7751 7.59803 13.7442C7.50333 13.6824 7.36693 13.5922 7.19843 13.4776C6.86163 13.2487 6.39556 12.9218 5.87746 12.5294C4.8488 11.7502 3.58558 10.6907 2.73164 9.61269C1.41534 7.95097 1.10024 6.28706 1.0244 5.57633C1.00827 5.45514 1 5.33204 1 5.20748C1 3.37231 2.74155 2 4.73333 2C5.61603 2 6.41709 2.47544 7.03207 3.03404C7.40757 3.37512 7.73727 3.76812 8 4.15624C8.26273 3.76812 8.59243 3.37512 8.96793 3.03404C9.58291 2.47544 10.384 2 11.2667 2C13.2584 2 15 3.37231 15 5.20748C15 5.33205 14.9917 5.45514 14.9756 5.57634C14.8998 6.28707 14.5847 7.95098 13.2684 9.61269C12.4144 10.6907 11.1512 11.7502 10.1225 12.5294C9.60444 12.9218 9.13837 13.2487 8.80157 13.4776C8.63307 13.5922 8.49667 13.6824 8.40197 13.7442C8.35462 13.7751 8.31768 13.799 8.29235 13.8152L8.2632 13.8338L8.25543 13.8388L8.25248 13.8406C8.25248 13.8406 8.25235 13.8407 8 13.4553ZM8 13.4553L8.25248 13.8406L8 14L7.74752 13.8406L8 13.4553Z" fill="black"/>
</svg>
