<svg width="28" height="28" viewBox="0 0 28 28" fill="none" xmlns="http://www.w3.org/2000/svg">
<g clip-path="url(#clip0_596_10282)">
<path d="M4 6C4 5.44772 4.44772 5 5 5H23C23.5523 5 24 5.44772 24 6C24 6.55228 23.5523 7 23 7H5C4.44772 7 4 6.55228 4 6Z" fill="black"/>
<path d="M4 10C4 9.44771 4.44772 9 5 9H23C23.5523 9 24 9.44771 24 10C24 10.5523 23.5523 11 23 11H5C4.44772 11 4 10.5523 4 10Z" fill="black"/>
<path d="M4 14C4 13.4477 4.44772 13 5 13H13C13.5523 13 14 13.4477 14 14C14 14.5523 13.5523 15 13 15H5C4.44772 15 4 14.5523 4 14Z" fill="black"/>
<path fill-rule="evenodd" clip-rule="evenodd" d="M16 20L24 28V20H25C26.6569 20 28 18.6569 28 17V3C28 1.34315 26.6569 0 25 0H3C1.34315 0 0 1.34315 0 3V17C0 18.6569 1.34315 20 3 20H16ZM23 25.5858L16.4142 19H3C1.89543 19 1 18.1046 1 17V3C1 1.89543 1.89543 1 3 1H25C26.1046 1 27 1.89543 27 3V17C27 18.1046 26.1046 19 25 19H23V25.5858Z" fill="black"/>
</g>
<defs>
<clipPath id="clip0_596_10282">
<rect width="28" height="28" fill="white"/>
</clipPath>
</defs>
</svg>
