<svg width="28" height="28" viewBox="0 0 28 28" fill="none" xmlns="http://www.w3.org/2000/svg">
<path d="M19 11C19 15.4183 15.4183 19 11 19C6.58172 19 3 15.4183 3 11C3 6.58172 6.58172 3 11 3C15.4183 3 19 6.58172 19 11Z" fill="black"/>
<path fill-rule="evenodd" clip-rule="evenodd" d="M18.8362 17.2131C20.1908 15.5068 21 13.3479 21 11C21 5.47715 16.5228 1 11 1C5.47715 1 1 5.47715 1 11C1 16.5228 5.47715 21 11 21C13.3479 21 15.5068 20.1908 17.2131 18.8362L24.5654 26.1885C25.0136 26.6367 25.7403 26.6367 26.1885 26.1885V26.1885C26.6367 25.7403 26.6367 25.0136 26.1885 24.5654L18.8362 17.2131ZM11 20C15.9706 20 20 15.9706 20 11C20 6.02944 15.9706 2 11 2C6.02944 2 2 6.02944 2 11C2 15.9706 6.02944 20 11 20Z" fill="black"/>
</svg>
