<svg width="28" height="28" viewBox="0 0 28 28" fill="none" xmlns="http://www.w3.org/2000/svg">
<g clip-path="url(#clip0_596_10322)">
<path fill-rule="evenodd" clip-rule="evenodd" d="M10.6245 0L16.6245 0L17.2954 4.69519C18.2207 5.06055 19.0786 5.56006 19.8447 6.16956L24.2485 4.40186L27.2485 9.59802L23.5166 12.5272C23.5874 13.0079 23.6245 13.4996 23.6245 14C23.6245 14.5004 23.5874 14.9921 23.5166 15.4727L27.2485 18.4019L24.2485 23.598L19.8447 21.8304C19.0786 22.4401 18.2207 22.9395 17.2954 23.3048L16.6245 28H10.6245L9.95361 23.3048C9.02832 22.9395 8.16992 22.4399 7.40381 21.8303L3 23.598L0 18.4019L3.73193 15.4724C3.66113 14.9919 3.62451 14.5002 3.62451 14C3.62451 13.4998 3.66113 13.0081 3.73193 12.5276L0 9.59802L3 4.40186L7.4043 6.16956C8.17041 5.55994 9.02832 5.06055 9.95361 4.69519L10.6245 0ZM13.6245 18C15.8335 18 17.6245 16.2091 17.6245 14C17.6245 11.7909 15.8335 10 13.6245 10C11.4155 10 9.62451 11.7909 9.62451 14C9.62451 16.2091 11.4155 18 13.6245 18Z" fill="black"/>
</g>
<defs>
<clipPath id="clip0_596_10322">
<rect width="28" height="28" fill="white"/>
</clipPath>
</defs>
</svg>
