<svg width="24" height="24" viewBox="0 0 24 24" fill="none" xmlns="http://www.w3.org/2000/svg">
<path fill-rule="evenodd" clip-rule="evenodd" d="M17.5 2.08046H6.5C5.94772 2.08046 5.5 2.54619 5.5 3.12069V20.9504L10.7025 17.1303C11.4804 16.5591 12.5197 16.5591 13.2975 17.1303L18.5 20.9504V3.12069C18.5 2.54619 18.0523 2.08046 17.5 2.08046ZM6.5 0C4.84315 0 3.5 1.39718 3.5 3.12069V22.958C3.5 23.8014 4.41427 24.2942 5.07668 23.8078L11.8558 18.83C11.9423 18.7665 12.0577 18.7665 12.1442 18.83L18.9233 23.8078C19.5857 24.2942 20.5 23.8014 20.5 22.958V3.12069C20.5 1.39718 19.1569 0 17.5 0H6.5Z" fill="white"/>
</svg>
