<svg width="24" height="24" viewBox="0 0 24 24" fill="none" xmlns="http://www.w3.org/2000/svg">
<path fill-rule="evenodd" clip-rule="evenodd" d="M3.75 3.12069C3.75 1.52587 4.99042 0.25 6.5 0.25H17.5C19.0096 0.25 20.25 1.52587 20.25 3.12069V22.958C20.25 23.6156 19.5534 23.9603 19.0713 23.6063L12.2921 18.6285C12.1177 18.5004 11.8823 18.5004 11.7079 18.6285L4.92872 23.6063C4.44657 23.9603 3.75 23.6156 3.75 22.958V3.12069ZM6.5 1.83046C5.80044 1.83046 5.25 2.4175 5.25 3.12069V21.4441L10.8504 17.3318C11.5403 16.8253 12.4597 16.8253 13.1496 17.3318L18.75 21.4441V3.12069C18.75 2.4175 18.1996 1.83046 17.5 1.83046H6.5Z" fill="#AAAAAA"/>
</svg>
