<svg width="24" height="24" viewBox="0 0 24 24" fill="none" xmlns="http://www.w3.org/2000/svg">
<path d="M11.25 1.03944C11.25 0.594241 11.5948 0.25 12 0.25C12.4052 0.25 12.75 0.594241 12.75 1.03944V14.9286L18.5155 9.79183C18.8279 9.51355 19.2963 9.54937 19.5664 9.87696C19.8412 10.2102 19.8025 10.7136 19.4845 10.9969L12.4989 17.2207C12.2146 17.474 11.7855 17.474 11.5011 17.2207L4.51553 10.9969C4.1975 10.7136 4.15886 10.2102 4.43364 9.87696C4.70378 9.54937 5.17217 9.51355 5.4845 9.79183L11.25 14.9286V1.03944Z" fill="#AAAAAA"/>
<path d="M0.25 19C0.25 18.5858 0.585787 18.25 1 18.25C1.41421 18.25 1.75 18.5858 1.75 19V21C1.75 21.6904 2.30964 22.25 3 22.25H21C21.6904 22.25 22.25 21.6904 22.25 21V19C22.25 18.5858 22.5858 18.25 23 18.25C23.4142 18.25 23.75 18.5858 23.75 19V22C23.75 22.9665 22.9665 23.75 22 23.75H2C1.0335 23.75 0.25 22.9665 0.25 22V19Z" fill="#AAAAAA"/>
</svg>
