<svg width="24" height="24" viewBox="0 0 24 24" fill="none" xmlns="http://www.w3.org/2000/svg">
<path d="M13 1.03944C13 0.465371 12.5523 0 12 0C11.4477 0 11 0.465371 11 1.03944V14.371L5.65081 9.60516C5.23148 9.23157 4.60018 9.28204 4.24076 9.71791C3.88134 10.1538 3.9299 10.81 4.34923 11.1836L11.3348 17.4073C11.714 17.7451 12.2861 17.7451 12.6652 17.4073L19.6508 11.1836C20.0701 10.81 20.1187 10.1538 19.7593 9.71791C19.3999 9.28204 18.7686 9.23157 18.3492 9.60516L13 14.371V1.03944Z" fill="white"/>
<path d="M1 18C0.447715 18 0 18.4477 0 19V22C0 23.1046 0.89543 24 2 24H22C23.1046 24 24 23.1046 24 22V19C24 18.4477 23.5523 18 23 18C22.4477 18 22 18.4477 22 19V21C22 21.5523 21.5523 22 21 22H3C2.44772 22 2 21.5523 2 21V19C2 18.4477 1.55228 18 1 18Z" fill="white"/>
</svg>
