<svg width="20" height="20" viewBox="0 0 20 20" fill="none" xmlns="http://www.w3.org/2000/svg">
<path fill-rule="evenodd" clip-rule="evenodd" d="M14.5246 4.75877C14.9217 4.54498 15.3541 4.97745 15.1403 5.37448L11.9925 11.2205C11.8238 11.5338 11.5669 11.7907 11.2536 11.9594L5.40761 15.1072C5.01058 15.321 4.57811 14.8885 4.79189 14.4915L7.93975 8.64548C8.10843 8.33221 8.36533 8.07531 8.67861 7.90662L14.5246 4.75877ZM11.1364 9.99994C11.1364 10.6275 10.6276 11.1363 10 11.1363C9.3724 11.1363 8.86363 10.6275 8.86363 9.99994C8.86363 9.37234 9.3724 8.86358 10 8.86358C10.6276 8.86358 11.1364 9.37234 11.1364 9.99994Z" fill="#AAAAAA"/>
<path fill-rule="evenodd" clip-rule="evenodd" d="M20 10C20 15.5228 15.5228 20 10 20C4.47715 20 0 15.5228 0 10C0 4.47715 4.47715 0 10 0C15.5228 0 20 4.47715 20 10ZM18.8636 10C18.8636 14.8953 14.8953 18.8636 10 18.8636C5.10475 18.8636 1.13636 14.8953 1.13636 10C1.13636 5.10475 5.10475 1.13636 10 1.13636C14.8953 1.13636 18.8636 5.10475 18.8636 10Z" fill="#AAAAAA"/>
</svg>
