<svg width="24" height="24" viewBox="0 0 24 24" fill="none" xmlns="http://www.w3.org/2000/svg">
<path fill-rule="evenodd" clip-rule="evenodd" d="M11.5487 1.40099C11.8159 1.19967 12.1842 1.19967 12.4514 1.40099L23.4377 9.67839C23.7747 9.93233 23.8529 10.4278 23.6041 10.7822C23.3589 11.1314 22.8938 11.2045 22.5622 10.9547L20.7929 9.62164L19.75 20.7362V20.7479C19.75 21.7144 18.9665 22.4979 18 22.4979H6.00014C5.03365 22.4979 4.25014 21.7144 4.25014 20.7479V20.7362L3.20723 9.62157L1.43783 10.9547C1.10624 11.2045 0.641152 11.1314 0.395985 10.7822C0.147197 10.4278 0.22533 9.93233 0.562373 9.67839L11.5487 1.40099ZM12.7522 3.56355C12.3069 3.22803 11.6932 3.22803 11.2479 3.56355L4.73866 8.46775L5.75019 19.6879C5.75655 20.3728 6.31373 20.926 7.00013 20.926H17C17.6864 20.926 18.2436 20.3728 18.25 19.6879L19.2615 8.46783L12.7522 3.56355Z" fill="#AAAAAA"/>
</svg>
