<svg width="24" height="24" viewBox="0 0 24 24" fill="none" xmlns="http://www.w3.org/2000/svg">
<path d="M0.75 3C0.75 2.58579 1.08579 2.25 1.5 2.25H22.5C22.9142 2.25 23.25 2.58579 23.25 3C23.25 3.41421 22.9142 3.75 22.5 3.75H1.5C1.08579 3.75 0.75 3.41421 0.75 3Z" fill="#AAAAAA"/>
<path d="M0.75 9C0.75 8.58579 1.08579 8.25 1.5 8.25H22.5C22.9142 8.25 23.25 8.58579 23.25 9C23.25 9.41421 22.9142 9.75 22.5 9.75H1.5C1.08579 9.75 0.75 9.41421 0.75 9Z" fill="#AAAAAA"/>
<path d="M0.75 15C0.75 14.5858 1.08579 14.25 1.5 14.25H22.5C22.9142 14.25 23.25 14.5858 23.25 15C23.25 15.4142 22.9142 15.75 22.5 15.75H1.5C1.08579 15.75 0.75 15.4142 0.75 15Z" fill="#AAAAAA"/>
<path d="M0.75 21C0.75 20.5858 1.08579 20.25 1.5 20.25H14.5C14.9142 20.25 15.25 20.5858 15.25 21C15.25 21.4142 14.9142 21.75 14.5 21.75H1.5C1.08579 21.75 0.75 21.4142 0.75 21Z" fill="#AAAAAA"/>
</svg>
