<svg width="24" height="24" viewBox="0 0 24 24" fill="none" xmlns="http://www.w3.org/2000/svg">
<path d="M1.5 2C0.947715 2 0.5 2.44772 0.5 3C0.5 3.55228 0.947716 4 1.5 4H22.5C23.0523 4 23.5 3.55228 23.5 3C23.5 2.44772 23.0523 2 22.5 2H1.5Z" fill="white"/>
<path d="M1.5 8C0.947715 8 0.5 8.44772 0.5 9C0.5 9.55228 0.947716 10 1.5 10H22.5C23.0523 10 23.5 9.55228 23.5 9C23.5 8.44772 23.0523 8 22.5 8H1.5Z" fill="white"/>
<path d="M0.5 15C0.5 14.4477 0.947715 14 1.5 14H22.5C23.0523 14 23.5 14.4477 23.5 15C23.5 15.5523 23.0523 16 22.5 16H1.5C0.947716 16 0.5 15.5523 0.5 15Z" fill="white"/>
<path d="M1.5 20C0.947715 20 0.5 20.4477 0.5 21C0.5 21.5523 0.947715 22 1.5 22H14.5C15.0523 22 15.5 21.5523 15.5 21C15.5 20.4477 15.0523 20 14.5 20H1.5Z" fill="white"/>
</svg>
