<svg width="24" height="24" viewBox="0 0 24 24" fill="none" xmlns="http://www.w3.org/2000/svg">
<path fill-rule="evenodd" clip-rule="evenodd" d="M0.25 6C0.25 3.92893 1.92893 2.25 4 2.25H20C22.0711 2.25 23.75 3.92893 23.75 6V18C23.75 20.0711 22.0711 21.75 20 21.75H4C1.92893 21.75 0.25 20.0711 0.25 18V6ZM4 3.75C3.47378 3.75 2.98914 3.93095 2.60588 4.23385C2.42273 4.37859 2.35191 4.59023 2.3731 4.7907C2.39379 4.98647 2.50074 5.17163 2.66852 5.29444L11.2617 11.5841C11.7013 11.9059 12.2987 11.9059 12.7383 11.5841L21.3315 5.29444C21.4993 5.17164 21.6062 4.98648 21.6269 4.79071C21.6481 4.59024 21.5773 4.37861 21.3941 4.23386C21.0109 3.93096 20.5262 3.75 20 3.75H4ZM2.54296 7.03896C2.21233 6.7999 1.75 7.03614 1.75 7.44415V18C1.75 19.2426 2.75736 20.25 4 20.25H20C21.2426 20.25 22.25 19.2426 22.25 18V7.44416C22.25 7.03615 21.7877 6.79992 21.457 7.03898L13.0254 13.1354C12.4134 13.5779 11.5866 13.5779 10.9746 13.1354L2.54296 7.03896Z" fill="#AAAAAA"/>
</svg>
