<svg width="24" height="24" viewBox="0 0 24 24" fill="none" xmlns="http://www.w3.org/2000/svg">
<path fill-rule="evenodd" clip-rule="evenodd" d="M0 6C0 3.79086 1.79086 2 4 2H20C22.2091 2 24 3.79086 24 6V18C24 20.2091 22.2091 22 20 22H4C1.79086 22 0 20.2091 0 18V6ZM4 4H20C20.468 4 20.8984 4.16073 21.2391 4.43C21.4584 4.60331 21.4094 4.92762 21.1838 5.09271L12.5906 11.3824C12.239 11.6398 11.7611 11.6398 11.4094 11.3824L2.81618 5.0927C2.59063 4.92761 2.5416 4.6033 2.76089 4.42999C3.10159 4.16073 3.53203 4 4 4ZM2.39648 7.24156C2.23116 7.12202 2 7.24014 2 7.44415V18C2 19.1046 2.89543 20 4 20H20C21.1046 20 22 19.1046 22 18V7.44416C22 7.24016 21.7688 7.12204 21.6035 7.24157L13.1719 13.338C12.4725 13.8437 11.5276 13.8437 10.8282 13.338L2.39648 7.24156Z" fill="white"/>
</svg>
