<svg width="24" height="24" viewBox="0 0 24 24" fill="none" xmlns="http://www.w3.org/2000/svg">
<path fill-rule="evenodd" clip-rule="evenodd" d="M2.2532 10C2.2532 4.61522 6.61842 0.25 12.0032 0.25C17.388 0.25 21.7532 4.61522 21.7532 10V12.8445C21.7532 13.6396 21.9049 14.4274 22.2002 15.1657L23.2225 17.7215C23.4196 18.2141 23.0568 18.75 22.5262 18.75H16.7532V19C16.7532 21.6234 14.6266 23.75 12.0032 23.75C9.37985 23.75 7.2532 21.6234 7.2532 19V18.75H1.48023C0.949634 18.75 0.586815 18.2141 0.783874 17.7215L1.80618 15.1657C2.10148 14.4274 2.2532 13.6396 2.2532 12.8445V10ZM12.0032 1.75C7.44685 1.75 3.7532 5.44365 3.7532 10V12.8445C3.7532 13.8305 3.56507 14.8074 3.19889 15.7228L2.58801 17.25H21.4184L20.8075 15.7228C20.4413 14.8074 20.2532 13.8305 20.2532 12.8445V10C20.2532 5.44365 16.5595 1.75 12.0032 1.75ZM15.2532 19V18.75H8.7532V19C8.7532 20.7949 10.2083 22.25 12.0032 22.25C13.7981 22.25 15.2532 20.7949 15.2532 19Z" fill="#AAAAAA"/>
</svg>
