<svg width="20" height="20" viewBox="0 0 20 20" fill="none" xmlns="http://www.w3.org/2000/svg">
<path d="M13.4526 8.44469C13.6906 8.19691 13.681 7.80474 13.431 7.56875C13.1811 7.33277 12.7855 7.34233 12.5474 7.59012L8.71429 11.5799L7.45259 10.2666C7.21453 10.0189 6.81892 10.0093 6.56897 10.2453C6.31901 10.4813 6.30936 10.8734 6.54741 11.1212L8.71429 13.3766L13.4526 8.44469Z" fill="#AAAAAA"/>
<path fill-rule="evenodd" clip-rule="evenodd" d="M0.123004 9.70516L2.32136 7.51327L1.83534 4.45247C1.79907 4.22406 1.95647 4.0097 2.18723 3.97322L5.25426 3.48849L6.66338 0.731462C6.76948 0.523864 7.02608 0.441373 7.23524 0.54762L9.99911 1.95154L12.7656 0.546383C12.9747 0.440147 13.2313 0.522631 13.3374 0.730212L14.7473 3.48829L17.8133 3.97231C18.0441 4.00875 18.2016 4.2232 18.1653 4.45167L17.6783 7.51334L19.877 9.70493C20.041 9.86845 20.041 10.1323 19.877 10.2958L17.6786 12.4877L18.1646 15.5484C18.2009 15.7769 18.0435 15.9912 17.8127 16.0277L14.7455 16.5117L13.3358 19.2698C13.2297 19.4774 12.9731 19.5599 12.764 19.4536L9.99906 18.0492L7.23662 19.4529C7.02743 19.5592 6.77076 19.4767 6.66467 19.269L5.25589 16.5117L2.18724 16.0276C1.9564 15.9912 1.79892 15.7767 1.83524 15.5483L2.32171 12.4876L0.123046 10.296C-0.0409992 10.1325 -0.0410176 9.8687 0.123004 9.70516ZM16.8019 5.06738L16.3448 7.94136L18.4105 10.0005L16.3453 12.0597L16.8015 14.9325L13.9188 15.3874L12.5959 17.9759L9.99895 16.6568L7.40472 17.975L6.08265 15.3874L3.19854 14.9324L3.65517 12.0596L1.58946 10.0005L3.65472 7.94132L3.1985 5.06818L6.08101 4.6126L7.40335 2.02535L9.99909 3.34387L12.5975 2.02408L13.9206 4.61254L16.8019 5.06738Z" fill="#AAAAAA"/>
</svg>
