<svg width="24" height="24" viewBox="0 0 24 24" fill="none" xmlns="http://www.w3.org/2000/svg">
<path fill-rule="evenodd" clip-rule="evenodd" d="M0.25 9.5C0.25 4.39137 4.39137 0.25 9.5 0.25C14.6086 0.25 18.75 4.39137 18.75 9.5C18.75 11.3929 18.1817 13.1523 17.2064 14.6178L17.093 14.7883L22.4941 20.1894C23.1305 20.8258 23.1305 21.8577 22.4941 22.4941C21.8577 23.1305 20.8258 23.1305 20.1894 22.4941L14.7883 17.093L14.6178 17.2064C13.1523 18.1817 11.3929 18.75 9.5 18.75C4.39137 18.75 0.25 14.6086 0.25 9.5ZM9.5 1.75C5.21979 1.75 1.75 5.21979 1.75 9.5C1.75 13.7802 5.21979 17.25 9.5 17.25C13.7802 17.25 17.25 13.7802 17.25 9.5C17.25 5.21979 13.7802 1.75 9.5 1.75Z" fill="#AAAAAA"/>
</svg>
