<svg width="24" height="24" viewBox="0 0 24 24" fill="none" xmlns="http://www.w3.org/2000/svg">
<path fill-rule="evenodd" clip-rule="evenodd" d="M14.7563 17.4146C13.251 18.4163 11.4437 19 9.5 19C4.25329 19 0 14.7467 0 9.5C0 4.25329 4.25329 0 9.5 0C14.7467 0 19 4.25329 19 9.5C19 11.4437 18.4163 13.251 17.4146 14.7563L22.6709 20.0126C23.4049 20.7467 23.4049 21.9368 22.6709 22.6709C21.9368 23.4049 20.7467 23.4049 20.0126 22.6709L14.7563 17.4146ZM17 9.5C17 13.6421 13.6421 17 9.5 17C5.35786 17 2 13.6421 2 9.5C2 5.35786 5.35786 2 9.5 2C13.6421 2 17 5.35786 17 9.5Z" fill="white"/>
</svg>
