<svg width="24" height="24" viewBox="0 0 24 24" fill="none" xmlns="http://www.w3.org/2000/svg">
<path fill-rule="evenodd" clip-rule="evenodd" d="M7.66237 12C7.66237 9.85005 9.4054 8.10714 11.5552 8.10714C13.7051 8.10714 15.4481 9.85005 15.4481 12C15.4481 14.15 13.7051 15.8929 11.5552 15.8929C9.4054 15.8929 7.66237 14.15 7.66237 12ZM11.5552 9.60714C10.2338 9.60714 9.16237 10.6785 9.16237 12C9.16237 13.3215 10.2338 14.3929 11.5552 14.3929C12.8767 14.3929 13.9481 13.3215 13.9481 12C13.9481 10.6785 12.8767 9.60714 11.5552 9.60714Z" fill="#AAAAAA"/>
<path fill-rule="evenodd" clip-rule="evenodd" d="M8.39429 1.32318C8.48228 0.707389 9.00967 0.25 9.63172 0.25H13.4787C14.1008 0.25 14.6282 0.707391 14.7162 1.32318L15.122 4.16335L15.2433 4.22093C15.6644 4.42093 16.0666 4.65405 16.4465 4.91687L16.5571 4.99337L19.2208 3.92412C19.7981 3.69239 20.458 3.92043 20.769 4.45916L22.6925 7.79074C23.0035 8.32948 22.8711 9.01494 22.3818 9.39903L20.1238 11.1713L20.1345 11.3051C20.1529 11.5343 20.1624 11.766 20.1624 12C20.1624 12.2339 20.1529 12.4657 20.1345 12.6948L20.1238 12.8286L22.3818 14.6009C22.8711 14.985 23.0035 15.6704 22.6925 16.2092L20.769 19.5408C20.458 20.0795 19.7982 20.3075 19.2209 20.0758L16.5571 19.0066L16.4465 19.0831C16.0666 19.346 15.6644 19.5791 15.2433 19.7791L15.122 19.8367L14.7162 22.6768C14.6282 23.2926 14.1008 23.75 13.4787 23.75H9.63172C9.00967 23.75 8.48228 23.2926 8.39429 22.6768L7.98845 19.8367L7.86719 19.7791C7.44599 19.5791 7.04359 19.3459 6.66356 19.083L6.55298 19.0065L3.88922 20.0758C3.31193 20.3075 2.65208 20.0795 2.34105 19.5407L0.417555 16.2091C0.106527 15.6704 0.238952 14.985 0.728265 14.6009L2.98635 12.8284L2.97568 12.6947C2.95739 12.4654 2.94808 12.2337 2.94808 12C2.94808 11.7663 2.95739 11.5346 2.97569 11.3053L2.98636 11.1716L0.728241 9.399C0.238943 9.01491 0.106527 8.32948 0.41755 7.79077L2.34106 4.45914C2.65208 3.92043 3.3119 3.69239 3.88919 3.92409L6.55333 4.99337L6.66391 4.91686C7.04383 4.65401 7.44607 4.4209 7.86719 4.22093L7.98845 4.16334L8.39429 1.32318ZM13.2619 1.75H9.84853L9.37231 5.08279C9.3596 5.17171 9.30018 5.24697 9.21664 5.27996L8.9464 5.38667C8.28924 5.64615 7.67959 6.00096 7.13491 6.43438L6.90729 6.6155C6.83694 6.67148 6.74195 6.68537 6.65851 6.65189L3.53169 5.39691L1.825 8.35299L4.47381 10.4323C4.54437 10.4877 4.57985 10.5767 4.56677 10.6654L4.52448 10.9524C4.47417 11.2938 4.44808 11.6436 4.44808 12C4.44808 12.3564 4.47417 12.7062 4.52448 13.0476L4.56677 13.3346C4.57985 13.4234 4.54437 13.5123 4.47381 13.5677L1.825 15.6469L3.53168 18.603L6.65811 17.348C6.74154 17.3145 6.83654 17.3284 6.9069 17.3844L7.13452 17.5655C7.67914 17.9989 8.28918 18.3538 8.9464 18.6133L9.21664 18.72C9.30018 18.753 9.3596 18.8283 9.37231 18.9172L9.84853 22.25H13.2619L13.7381 18.9172C13.7508 18.8283 13.8103 18.753 13.8938 18.72L14.1641 18.6133C14.8212 18.3539 15.4309 17.999 15.9755 17.5656L16.2032 17.3845C16.2735 17.3285 16.3685 17.3146 16.452 17.3481L19.5784 18.603L21.2851 15.6469L18.6363 13.5679C18.5657 13.5125 18.5302 13.4236 18.5433 13.3348L18.5856 13.0478C18.636 12.7058 18.6624 12.356 18.6624 12C18.6624 11.644 18.636 11.2942 18.5856 10.9521L18.5433 10.6651C18.5302 10.5763 18.5657 10.4874 18.6363 10.432L21.2851 8.35296L19.5784 5.39693L16.452 6.65188C16.3686 6.68537 16.2736 6.67148 16.2032 6.61551L15.9756 6.43443C15.4309 6.00104 14.8212 5.64613 14.1641 5.38667L13.8938 5.27996C13.8103 5.24697 13.7508 5.17171 13.7381 5.08279L13.2619 1.75Z" fill="#AAAAAA"/>
</svg>
