<svg width="24" height="24" viewBox="0 0 24 24" fill="none" xmlns="http://www.w3.org/2000/svg">
<path fill-rule="evenodd" clip-rule="evenodd" d="M8.14682 1.28782C8.25241 0.548867 8.88528 0 9.63173 0H13.4788C14.2252 0 14.8581 0.548869 14.9637 1.28782L15.3505 3.99511C15.7839 4.20093 16.1978 4.44084 16.5887 4.71127L19.1277 3.69212C19.8205 3.41404 20.6123 3.68768 20.9855 4.33416L22.909 7.66574C23.2823 8.31223 23.1233 9.13478 22.5361 9.59569L20.3838 11.2851C20.4027 11.5209 20.4124 11.7593 20.4124 12C20.4124 12.2406 20.4027 12.479 20.3838 12.7148L22.5361 14.4042C23.1233 14.8651 23.2823 15.6877 22.909 16.3342L20.9855 19.6658C20.6123 20.3122 19.8205 20.5859 19.1278 20.3078L16.5888 19.2887C16.1978 19.5592 15.7839 19.7991 15.3505 20.0049L14.9637 22.7122C14.8581 23.4511 14.2252 24 13.4788 24H9.63173C8.88528 24 8.25241 23.4511 8.14682 22.7122L7.75997 20.0049C7.3265 19.7991 6.9124 19.5592 6.52134 19.2886L3.98237 20.3078C3.28961 20.5859 2.4978 20.3122 2.12456 19.6657L0.201065 16.3341C-0.172169 15.6877 -0.0132584 14.8652 0.573917 14.4042L2.72649 12.7145C2.70767 12.4787 2.6981 12.2403 2.6981 12C2.6981 11.7597 2.70767 11.5213 2.72649 11.2854L0.573889 9.59565C-0.0132678 9.13473 -0.172168 8.31222 0.20106 7.66577L2.12457 4.33414C2.4978 3.68769 3.28957 3.41404 3.98232 3.69208L6.52169 4.71127C6.91263 4.44079 7.32657 4.2009 7.75997 3.99509L8.14682 1.28782ZM10.0654 2L9.61981 5.11816C9.5944 5.29599 9.47555 5.44652 9.30847 5.51249L9.03823 5.6192C8.40436 5.86948 7.81618 6.21178 7.29059 6.63L7.06297 6.81112C6.92227 6.92309 6.73228 6.95087 6.56541 6.8839L3.6398 5.70968L2.14993 8.29023L4.6282 10.2357C4.76932 10.3464 4.84027 10.5244 4.81412 10.7019L4.77182 10.9889C4.72329 11.3182 4.6981 11.6558 4.6981 12C4.6981 12.3442 4.72329 12.6818 4.77182 13.0111L4.81412 13.2982C4.84028 13.4757 4.76932 13.6536 4.62819 13.7643L2.14994 15.7097L3.63979 18.2902L6.56499 17.116C6.73187 17.049 6.92187 17.0768 7.06258 17.1888L7.2902 17.3699C7.81572 17.7881 8.40427 18.1305 9.03823 18.3808L9.30847 18.4875C9.47555 18.5535 9.5944 18.704 9.61981 18.8818L10.0654 22H13.0451L13.4907 18.8818C13.5161 18.704 13.6349 18.5535 13.802 18.4875L14.0723 18.3808C14.7061 18.1305 15.2943 17.7882 15.8199 17.37L16.0475 17.1889C16.1882 17.0769 16.3782 17.0491 16.5451 17.1161L19.4703 18.2902L20.9601 15.7097L18.4819 13.7646C18.3408 13.6538 18.2698 13.4759 18.296 13.2984L18.3383 13.0113C18.3869 12.6813 18.4124 12.3436 18.4124 12C18.4124 11.6564 18.3869 11.3187 18.3383 10.9885L18.296 10.7015C18.2699 10.524 18.3408 10.3461 18.4819 10.2353L20.9601 8.29018L19.4703 5.70971L16.5451 6.88388C16.3783 6.95086 16.1883 6.92309 16.0476 6.81115L15.82 6.63006C15.2943 6.21184 14.7061 5.86946 14.0723 5.6192L13.802 5.51249C13.6349 5.44652 13.5161 5.29599 13.4907 5.11816L13.0451 2H10.0654ZM11.5552 9.85714C10.3719 9.85714 9.41239 10.8166 9.41239 12C9.41239 13.1834 10.3719 14.1429 11.5552 14.1429C12.7386 14.1429 13.6981 13.1834 13.6981 12C13.6981 10.8166 12.7386 9.85714 11.5552 9.85714ZM7.41239 12C7.41239 9.71197 9.26735 7.85714 11.5552 7.85714C13.8431 7.85714 15.6981 9.71197 15.6981 12C15.6981 14.288 13.8431 16.1429 11.5552 16.1429C9.26735 16.1429 7.41239 14.288 7.41239 12Z" fill="white"/>
</svg>
