<svg width="24" height="24" viewBox="0 0 19.66 19.79" xmlns="http://www.w3.org/2000/svg">
  <path d="M19.66,5.09c0-.37-.29-.65-.66-.65-.03,0-.99,0-2.42,0V.66c0-.37-.29-.65-.66-.65H3.26c-.07,0-.14,0-.21,0C1.45,0,.11,1.25,0,2.87v11.23c0,2.42.51,4.11,1.52,5.02.43.41,1,.65,1.69.67h15.79c.37,0,.66-.29.66-.65V5.1h0s0-.01,0-.01ZM1.8,1.85c.33-.34.77-.53,1.24-.53h12.21v3.14h-3.09c-2.72.02-5.62.03-7.38.03-3.19,0-3.46-1.26-3.48-1.39,0-.47.17-.91.49-1.25ZM18.36,18.47H3.16c-.29,0-.57-.12-.77-.35-.49-.45-1.07-1.51-1.07-4.01V5.04c.83.5,2,.75,3.48.75,2.02,0,5.53-.01,8.56-.02,2.14,0,4.04-.01,4.99-.02v12.72Z" fill="#AAAAAA"/>
</svg>
