<svg width="19" height="22" viewBox="0 0 19 22" fill="none" xmlns="http://www.w3.org/2000/svg">
<path d="M15.0769 18.7604C15.0769 18.7604 18.0923 18.0904 18.8462 14.7403C19.6 11.3902 17.3385 8.71018 17.3385 8.71018C17.3385 8.71018 17.622 10.2163 17.3385 10.7202C16.9448 11.4199 16.2752 11.7853 15.8308 11.3902C15.3863 10.9952 15.0769 10.0502 15.0769 9.3802C15.0769 9.20347 15.1294 8.93352 15.1928 8.60723C15.3697 7.69645 15.6319 6.34669 15.0769 5.36011C14.3231 4.02008 7.53846 0 7.53846 0C7.53846 0 10.0938 3.48996 10.0938 5.5C10.0938 7.51004 7.67252 7.39224 6.91868 6.72222C6.16483 6.05221 6.03077 4.6901 6.03077 4.6901C6.03077 4.6901 4.52308 6.70014 4.52308 8.71018C4.52308 10.7202 5.27692 11.3902 5.27692 11.3902C5.27692 11.3902 5.64347 12.7303 3.76923 12.7303C3.01538 12.7303 2.26154 12.0603 2.26154 11.3902V9.3802C2.26154 9.3802 0 10.7202 0 12.7303C0 14.7403 0 16.0803 0.753846 16.7504C1.50769 17.4204 3.76923 18.7604 3.76923 18.7604C3.31904 19.1605 2.63129 19.2597 2.06184 19.0067L1.50769 18.7604C1.50769 18.7604 3.01539 20.7704 5.27692 21.4405C6.29837 21.7431 7.16603 21.909 7.81046 22C7.37274 21.398 7.0521 20.6401 6.91868 19.7964C6.57102 17.5977 9.5 15.2778 9.5 15.2778C9.5 15.2778 12.5431 16.8517 12.8908 19.0504C13.0444 20.0219 12.9241 20.9448 12.5997 21.6901C12.9184 21.6194 13.2438 21.5369 13.5692 21.4405C15.8308 20.7704 17.3385 18.7604 17.3385 18.7604L16.7843 19.0067C16.2149 19.2597 15.5271 19.1605 15.0769 18.7604Z" fill="#757575"/>
</svg>
