<svg width="36" height="28" viewBox="0 0 36 28" fill="none" xmlns="http://www.w3.org/2000/svg">
<path d="M6.42889 5.09093C7.8491 5.09093 9.00031 3.95128 9.00031 2.54549C9.00031 1.13966 7.8491 0 6.42889 0C5.00882 0 3.85746 1.13966 3.85746 2.54549C3.85746 3.95128 5.00882 5.09093 6.42889 5.09093Z" fill="#AAAAAA"/>
<path d="M3.21429 20.3637H7.71429V14.0001C7.71444 11.9405 9.17861 10.3246 10.9983 9.2953C11.4118 9.06136 11.8563 8.84929 12.327 8.66099C11.3373 7.30915 9.0689 6.36385 6.42857 6.36385C2.87826 6.36385 0.000156948 8.07341 0 10.1821V15.2728C0 15.9757 0.575684 16.5455 1.28571 16.5455C1.64073 16.5455 1.92857 16.8304 1.92857 17.1819V19.091C1.92857 19.7939 2.50426 20.3637 3.21429 20.3637Z" fill="#AAAAAA"/>
<path d="M26.9997 2.54549C26.9997 3.95128 28.1509 5.09093 29.5711 5.09093C30.9913 5.09093 32.1425 3.95128 32.1425 2.54549C32.1425 1.13966 30.9913 0 29.5711 0C28.1509 0 26.9997 1.13966 26.9997 2.54549Z" fill="#AAAAAA"/>
<path d="M28.2857 14.0067V20.3637H32.7857C33.4959 20.3637 34.0714 19.7939 34.0714 19.091V17.1819C34.0714 16.8304 34.3593 16.5455 34.7143 16.5455C35.4245 16.5455 36 15.9757 36 15.2728V10.1821C35.9998 8.07341 33.1217 6.36385 29.5714 6.36385C26.9313 6.36385 24.6627 7.30915 23.6732 8.66095C23.7603 8.69583 23.8466 8.73153 23.932 8.76804C24.0078 8.80039 24.0827 8.83337 24.1569 8.867C24.4509 9.00015 24.7329 9.14308 25.0019 9.2953C26.8216 10.3246 28.2859 11.9405 28.2859 14.0002L28.2857 14.0067Z" fill="#AAAAAA"/>
<path d="M17.9998 7.6365C20.1301 7.6365 21.857 5.92701 21.857 3.81829C21.857 1.70956 20.1301 7.76809e-05 17.9998 7.76809e-05C15.8696 7.76809e-05 14.1427 1.70956 14.1427 3.81829C14.1427 5.92701 15.8696 7.6365 17.9998 7.6365Z" fill="#AAAAAA"/>
<path d="M27.0002 14.0002L27 14.0305V21.8602C27 22.823 26.2757 23.6351 25.3106 23.7545L24.9917 23.794C24.67 23.8338 24.4286 24.1045 24.4286 24.4254V26.7273C24.4286 27.4302 23.8529 28 23.1429 28H12.8571C12.1471 28 11.5714 27.4302 11.5714 26.7273V24.4254C11.5714 24.1045 11.33 23.8338 11.0083 23.794L10.6894 23.7545C9.72431 23.6351 9 22.823 9 21.8602V14.0002C9.00016 11.1886 13.0295 8.90922 18 8.90922C22.9707 8.90922 27.0002 11.1885 27.0002 14.0002Z" fill="#AAAAAA"/>
</svg>
