<svg width="36" height="36" viewBox="0 0 36 36" fill="none" xmlns="http://www.w3.org/2000/svg">
<path fill-rule="evenodd" clip-rule="evenodd" d="M35.5274 22.1153C35.4087 22.6227 35.2686 23.1219 35.108 23.6117C35.0914 23.6625 35.0745 23.7131 35.0574 23.7637C33.1564 29.3918 28.548 33.773 22.7818 35.3579C22.0507 35.5589 21.301 35.7149 20.5358 35.8228C19.8885 35.9141 19.2301 35.9709 18.5625 35.9914L18.5225 35.9926C18.3489 35.9975 18.1747 36 18 36C17.8118 36 17.6243 35.9971 17.4375 35.9914C16.8067 35.972 16.1841 35.9202 15.5713 35.8375C14.815 35.7355 14.0735 35.5866 13.35 35.3936C7.52225 33.8396 2.85808 29.4346 0.942566 23.7637C0.7743 23.2655 0.627244 22.7576 0.502473 22.241C0.492371 22.1992 0.482415 22.1573 0.472605 22.1153C0.204569 20.9693 0.0460299 19.7811 0.00862194 18.5625L0.00715851 18.5126C0.00568738 18.46 0.00444198 18.4073 0.00342326 18.3546C0.00261009 18.3125 0.00194134 18.2704 0.0014175 18.2282C0.000473428 18.1523 0 18.0762 0 18C0 17.9048 0.00073836 17.8099 0.00220966 17.7151C0.0028001 17.677 0.00350856 17.639 0.00433472 17.601C0.00523226 17.5597 0.0062687 17.5185 0.00744359 17.4773L0.00862169 17.4375C0.0460297 16.2189 0.204569 15.0307 0.472605 13.8847C0.591275 13.3773 0.731408 12.8781 0.891995 12.3883C0.908633 12.3375 0.92549 12.2869 0.942567 12.2363C2.84362 6.60821 7.45199 2.22698 13.2182 0.642064C13.3138 0.615779 13.4098 0.59026 13.5061 0.56552C13.5923 0.543355 13.6788 0.521813 13.7655 0.500899C14.3566 0.358376 14.9591 0.245016 15.5713 0.162443C16.1841 0.0797893 16.8067 0.0279844 17.4375 0.00862195C17.6243 0.00288845 17.8118 0 18 0H18.0016C18.1892 1.62949e-05 18.3762 0.00290009 18.5625 0.0086174C19.1933 0.0279799 19.8159 0.0797994 20.4287 0.162454C20.6832 0.196777 20.936 0.236417 21.187 0.281261C21.682 0.369697 22.1699 0.478365 22.65 0.60638C22.694 0.618113 22.7379 0.629996 22.7818 0.642053C28.548 2.22697 33.1564 6.60821 35.0574 12.2363C35.228 12.7412 35.3767 13.256 35.5025 13.7798C35.5109 13.8147 35.5192 13.8497 35.5274 13.8847C35.7954 15.0307 35.954 16.2189 35.9914 17.4375L35.9928 17.4874C35.9976 17.6577 36 17.8286 36 18C36 18.1882 35.9971 18.3757 35.9914 18.5625C35.954 19.7812 35.7954 20.9693 35.5274 22.1153ZM17.4375 27.5593V34.8658C16.1921 34.825 14.9808 34.6493 13.8178 34.3527C13.1177 33.5752 12.4511 32.593 11.841 31.4066C11.1655 30.0932 10.5854 28.5729 10.1287 26.8933C12.3999 27.2959 14.862 27.5295 17.4375 27.5593ZM18.5625 27.5593V34.8658C19.8079 34.825 21.0192 34.6493 22.1822 34.3527C22.8823 33.5752 23.5489 32.593 24.159 31.4066C24.8345 30.0932 25.4146 28.5729 25.8713 26.8933C23.6001 27.2959 21.138 27.5295 18.5625 27.5593ZM26.17 25.6944C23.8361 26.1399 21.2694 26.4022 18.5625 26.4342V18.5625H26.9958C26.958 21.1079 26.6646 23.5158 26.17 25.6944ZM27.0964 26.6559C26.3895 29.4593 25.35 31.888 24.0778 33.7474C28.3467 32.0986 31.7771 28.764 33.5525 24.5599C31.7237 25.4273 29.5364 26.1418 27.0964 26.6559ZM34.1207 23.0042C33.6667 23.2568 33.1777 23.5009 32.655 23.7348C31.1287 24.4176 29.3483 24.9977 27.3764 25.4433C27.8245 23.311 28.0859 20.9918 28.1209 18.5625H34.8658C34.8153 20.1043 34.558 21.5939 34.1207 23.0042ZM33.5525 11.4401C31.7771 7.23596 28.3467 3.90136 24.0778 2.25264C25.35 4.11203 26.3895 6.54071 27.0964 9.34413C29.5364 9.8582 31.7237 10.5727 33.5525 11.4401ZM27.3764 10.5567C29.3483 11.0023 31.1287 11.5824 32.655 12.2652C33.1777 12.4991 33.6667 12.7432 34.1207 12.9958C34.558 14.4061 34.8153 15.8957 34.8658 17.4375H28.1209C28.0859 15.0082 27.8245 12.689 27.3764 10.5567ZM25.8713 9.10674C25.4146 7.42711 24.8345 5.90674 24.159 4.59334C23.5489 3.40703 22.8824 2.42478 22.1822 1.64727C21.0192 1.35073 19.8079 1.17499 18.5625 1.1342V8.44075C21.138 8.47051 23.6001 8.70408 25.8713 9.10674ZM18.5625 9.56582C21.2694 9.59784 23.8361 9.86011 26.17 10.3056C26.6646 12.4842 26.958 14.8921 26.9958 17.4375H18.5625V9.56582ZM17.4375 8.44075V1.1342C16.1921 1.17499 14.9808 1.35073 13.8178 1.64727C13.1176 2.42478 12.4511 3.40703 11.841 4.59334C11.1655 5.90674 10.5854 7.42711 10.1287 9.10674C12.3999 8.70408 14.862 8.47051 17.4375 8.44075ZM9.83005 10.3056C12.1639 9.86011 14.7306 9.59784 17.4375 9.56582V17.4375H9.00417C9.04197 14.8921 9.33536 12.4842 9.83005 10.3056ZM8.90356 9.34413C9.61046 6.54071 10.65 4.11203 11.9222 2.25264C7.65327 3.90136 4.22292 7.23596 2.44748 11.4401C4.27625 10.5727 6.46362 9.8582 8.90356 9.34413ZM1.87935 12.9958C2.33332 12.7432 2.82229 12.4991 3.34501 12.2652C4.87127 11.5824 6.65167 11.0023 8.62364 10.5567C8.17548 12.689 7.9141 15.0082 7.87905 17.4375H1.1342C1.1847 15.8957 1.44203 14.4061 1.87935 12.9958ZM2.44748 24.5599C4.22292 28.764 7.65328 32.0986 11.9222 33.7474C10.65 31.888 9.61046 29.4593 8.90357 26.6559C6.46363 26.1418 4.27625 25.4273 2.44748 24.5599ZM8.62364 25.4433C6.65167 24.9977 4.87127 24.4176 3.34501 23.7348C2.82229 23.5009 2.33332 23.2568 1.87935 23.0042C1.44203 21.5939 1.1847 20.1043 1.1342 18.5625H7.87905C7.9141 20.9918 8.17548 23.311 8.62364 25.4433ZM9.83005 25.6944C9.33537 23.5158 9.04197 21.1079 9.00417 18.5625H17.4375V26.4342C14.7306 26.4022 12.1639 26.1399 9.83005 25.6944Z" fill="#AAAAAA"/>
</svg>
