<svg width="20" height="18" viewBox="0 0 20 18" fill="none" xmlns="http://www.w3.org/2000/svg">
<path d="M9.63932 17.761C9.63932 17.761 9.6395 17.7611 10 17.1829C10.3605 17.7611 10.3607 17.761 10.3607 17.761L10 18L9.63932 17.761Z" fill="#757575"/>
<path d="M9.63932 17.761L10 17.1829L10.3607 17.761L10.3649 17.7581L10.376 17.7507L10.4176 17.7228C10.4538 17.6984 10.5066 17.6627 10.5742 17.6163C10.7095 17.5235 10.9044 17.3882 11.1451 17.2164C11.6262 16.873 12.2921 16.3827 13.0322 15.794C14.5017 14.6253 16.3063 13.0361 17.5262 11.419C19.4067 8.92647 19.8568 6.4306 19.9651 5.36451C19.9882 5.18272 20 4.99807 20 4.81122C20 2.05847 17.5121 0 14.6667 0C13.4057 0 12.2613 0.713155 11.3828 1.55106C10.8463 2.06267 10.3753 2.65218 10 3.23437C9.62468 2.65218 9.15367 2.06267 8.61724 1.55106C7.73871 0.713155 6.59432 0 5.33333 0C2.48793 0 0 2.05847 0 4.81122C0 4.99807 0.0118143 5.18271 0.0348585 5.36449C0.143199 6.43058 0.593338 8.92646 2.47377 11.419C3.69369 13.0361 5.49829 14.6253 6.9678 15.794C7.70795 16.3827 8.37375 16.873 8.8549 17.2164C9.09562 17.3882 9.29048 17.5235 9.42575 17.6163C9.4934 17.6627 9.54618 17.6984 9.58236 17.7228L9.624 17.7507L9.6351 17.7581L9.63932 17.761Z" fill="#757575"/>
</svg>
