<svg width="36" height="36" viewBox="0 0 36 36" fill="none" xmlns="http://www.w3.org/2000/svg">
<path d="M19.0332 2.49538C19.604 1.92453 19.604 0.998992 19.0332 0.42814C18.4623 -0.142713 17.5368 -0.142713 16.9659 0.42814C16.3951 0.998992 16.3951 1.92453 16.9659 2.49538C17.1559 2.68535 17.3852 2.8121 17.6275 2.87563V6.93885C17.3852 7.00239 17.1559 7.12914 16.9659 7.3191C16.3951 7.88996 16.3951 8.81549 16.9659 9.38634C17.1559 9.57631 17.3852 9.70306 17.6275 9.76659V15.0999C17.1252 15.1639 16.6363 15.3583 16.2157 15.6831L12.3738 11.8412C12.6979 11.282 12.6206 10.5539 12.1419 10.0752C11.9534 9.8867 11.7261 9.76044 11.4858 9.69643L11.4858 4.94155C11.7261 4.87755 11.9534 4.75129 12.1419 4.56275C12.7127 3.9919 12.7127 3.06637 12.1419 2.49551C11.571 1.92466 10.6455 1.92466 10.0746 2.49551C9.50379 3.06637 9.50379 3.9919 10.0746 4.56275C10.2645 4.7526 10.4936 4.87931 10.7358 4.94288L10.7358 9.6951C10.4936 9.75868 10.2645 9.88539 10.0746 10.0752C9.88545 10.2644 9.75896 10.4926 9.69517 10.7339H4.94296C4.87917 10.4926 4.75269 10.2645 4.56351 10.0753C3.99266 9.50447 3.06713 9.50447 2.49627 10.0753C1.92542 10.6462 1.92542 11.5717 2.49627 12.1426C3.06713 12.7134 3.99266 12.7134 4.56351 12.1426C4.75272 11.9533 4.87922 11.7252 4.943 11.4839H9.69518C9.75897 11.7251 9.88545 11.9533 10.0746 12.1425C10.5543 12.6222 11.2845 12.6988 11.8442 12.3723L15.685 16.2131C15.3595 16.6335 15.1645 17.1224 15.0998 17.6247H9.76596C9.70217 17.3835 9.57568 17.1554 9.38651 16.9662C8.81566 16.3953 7.89012 16.3953 7.31927 16.9662C7.1301 17.1554 7.00362 17.3835 6.93982 17.6247H2.87483C2.81103 17.3835 2.68455 17.1554 2.49538 16.9662C1.92453 16.3953 0.998992 16.3953 0.42814 16.9662C-0.142713 17.5371 -0.142713 18.4626 0.42814 19.0334C0.998992 19.6043 1.92453 19.6043 2.49538 19.0334C2.68459 18.8442 2.81109 18.6161 2.87487 18.3747H6.93978C7.00357 18.6161 7.13006 18.8442 7.31927 19.0334C7.89012 19.6043 8.81566 19.6043 9.38651 19.0334C9.57572 18.8442 9.70222 18.6161 9.766 18.3747H15.0998C15.1644 18.8771 15.3594 19.3659 15.6848 19.7864L11.8441 23.627C11.2845 23.3005 10.5543 23.3771 10.0746 23.8568C9.88547 24.046 9.75899 24.2741 9.69519 24.5154H4.94296C4.87917 24.2741 4.75268 24.046 4.56351 23.8568C3.99266 23.286 3.06713 23.286 2.49627 23.8568C1.92542 24.4277 1.92542 25.3532 2.49627 25.9241C3.06713 26.4949 3.99266 26.4949 4.56351 25.9241C4.75272 25.7349 4.87922 25.5067 4.943 25.2654H9.69515C9.75894 25.5067 9.88543 25.7349 10.0746 25.9241C10.2645 26.1139 10.4936 26.2406 10.7358 26.3042L10.7358 31.0567C10.4936 31.1202 10.2645 31.247 10.0746 31.4368C9.50379 32.0076 9.50379 32.9332 10.0746 33.504C10.6455 34.0749 11.571 34.0749 12.1419 33.504C12.7127 32.9332 12.7127 32.0076 12.1419 31.4368C11.9534 31.2483 11.7261 31.122 11.4858 31.058L11.4858 26.3029C11.7261 26.2389 11.9534 26.1126 12.1419 25.9241C12.6206 25.4454 12.6979 24.7173 12.3737 24.1581L16.2154 20.3164C16.6362 20.6412 17.1251 20.8357 17.6275 20.8997V26.233C17.3852 26.2966 17.1559 26.4233 16.9659 26.6133C16.3951 27.1841 16.3951 28.1097 16.9659 28.6805C17.1559 28.8705 17.3852 28.9972 17.6275 29.0608V33.1237C17.3852 33.1872 17.1559 33.314 16.9659 33.5039C16.3951 34.0748 16.3951 35.0003 16.9659 35.5712C17.5368 36.142 18.4623 36.142 19.0332 35.5712C19.604 35.0003 19.604 34.0748 19.0332 33.5039C18.8448 33.3155 18.6177 33.1893 18.3775 33.1252V29.0592C18.6177 28.9952 18.8448 28.8689 19.0332 28.6805C19.604 28.1097 19.604 27.1841 19.0332 26.6133C18.8448 26.4249 18.6177 26.2987 18.3775 26.2346V20.8989C18.8788 20.8339 19.3665 20.639 19.7861 20.3142L23.6267 24.1547C23.3003 24.7144 23.3769 25.4444 23.8566 25.9241C24.0464 26.1139 24.2755 26.2407 24.5178 26.3042V31.0566C24.2755 31.1202 24.0464 31.2469 23.8566 31.4368C23.2857 32.0077 23.2857 32.9332 23.8566 33.504C24.4274 34.0749 25.353 34.0749 25.9238 33.504C26.4947 32.9332 26.4947 32.0077 25.9238 31.4368C25.7353 31.2483 25.5081 31.122 25.2678 31.058V26.3028C25.5081 26.2388 25.7353 26.1126 25.9238 25.9241C26.113 25.7349 26.2395 25.5068 26.3033 25.2655H31.058C31.1218 25.5068 31.2483 25.7349 31.4375 25.9241C32.0083 26.4949 32.9339 26.4949 33.5047 25.9241C34.0756 25.3532 34.0756 24.4277 33.5047 23.8568C32.9339 23.286 32.0083 23.286 31.4375 23.8568C31.2483 24.046 31.1218 24.2742 31.058 24.5155H26.3033C26.2395 24.2742 26.113 24.046 25.9238 23.8568C25.4451 23.3781 24.7169 23.3008 24.1576 23.6251L20.3161 19.7835C20.6402 19.3637 20.8344 18.876 20.8989 18.3747H26.2345C26.2983 18.6161 26.4248 18.8442 26.614 19.0334C27.1848 19.6043 28.1104 19.6043 28.6812 19.0334C28.8704 18.8442 28.9969 18.6161 29.0607 18.3747H33.1251C33.1889 18.6161 33.3154 18.8442 33.5046 19.0334C34.0754 19.6043 35.001 19.6043 35.5718 19.0334C36.1427 18.4626 36.1427 17.5371 35.5718 16.9662C35.001 16.3953 34.0754 16.3953 33.5046 16.9662C33.3154 17.1554 33.1889 17.3835 33.1251 17.6247H29.0607C28.9969 17.3835 28.8704 17.1554 28.6812 16.9662C28.1104 16.3953 27.1848 16.3953 26.614 16.9662C26.4248 17.1554 26.2983 17.3835 26.2345 17.6247H20.8988C20.8344 17.1235 20.6401 16.6357 20.3159 16.2159L24.1575 12.3743C24.7168 12.6986 25.445 12.6213 25.9238 12.1426C26.113 11.9534 26.2395 11.7252 26.3033 11.484L31.058 11.484C31.1218 11.7252 31.2483 11.9533 31.4375 12.1425C32.0083 12.7133 32.9339 12.7133 33.5047 12.1425C34.0756 11.5716 34.0756 10.6461 33.5047 10.0752C32.9339 9.50438 32.0083 9.50438 31.4375 10.0752C31.2483 10.2645 31.1218 10.4926 31.058 10.734L26.3033 10.734C26.2395 10.4927 26.113 10.2645 25.9238 10.0753C25.7353 9.88681 25.5081 9.76055 25.2678 9.69654V4.94153C25.5081 4.87752 25.7353 4.75127 25.9238 4.56275C26.4947 3.9919 26.4947 3.06637 25.9238 2.49551C25.353 1.92466 24.4274 1.92466 23.8566 2.49551C23.2857 3.06637 23.2857 3.9919 23.8566 4.56275C24.0464 4.75262 24.2755 4.87934 24.5178 4.94291V9.69517C24.2755 9.75873 24.0464 9.88545 23.8566 10.0753C23.377 10.5549 23.3003 11.2849 23.6266 11.8446L19.7859 15.6853C19.3663 15.3606 18.8787 15.1657 18.3775 15.1007V9.76502C18.6177 9.70098 18.8448 9.57476 19.0332 9.38634C19.604 8.81549 19.604 7.88996 19.0332 7.3191C18.8448 7.13069 18.6177 7.00446 18.3775 6.94042V2.87406C18.6177 2.81002 18.8448 2.68379 19.0332 2.49538Z" fill="#AAAAAA"/>
</svg>
