<svg width="36" height="36" viewBox="0 0 36 36" fill="none" xmlns="http://www.w3.org/2000/svg">
<path d="M4.82133 1.46104C4.82133 2.26795 4.17375 2.92208 3.37491 2.92208C2.57607 2.92208 1.9285 2.26795 1.9285 1.46104C1.9285 0.654136 2.57607 0 3.37491 0C4.17375 0 4.82133 0.654136 4.82133 1.46104Z" fill="#AAAAAA"/>
<path d="M6.74994 5.36877L6.75 5.35714C6.75 4.28126 5.23896 3.40909 3.37497 3.40909C1.51104 3.40909 5.88548e-05 4.28129 0 5.35714V7.93622C0 8.30463 0.271615 8.61539 0.633513 8.66109L0.753106 8.67619C0.873758 8.69142 0.964277 8.79501 0.964277 8.91782V9.79862C0.964277 10.0676 1.18016 10.2856 1.44642 10.2856H5.30352C5.56978 10.2856 5.78566 10.0676 5.78566 9.79862V8.91782C5.78566 8.79501 5.87618 8.69142 5.99683 8.67619L6.11643 8.66109C6.47833 8.61539 6.74994 8.30463 6.74994 7.93622V5.36877Z" fill="#AAAAAA"/>
<path d="M17.9999 14.0131C19.3312 14.0131 20.4105 12.9229 20.4105 11.5781C20.4105 10.2332 19.3312 9.143 17.9999 9.143C16.6685 9.143 15.5892 10.2332 15.5892 11.5781C15.5892 12.9229 16.6685 14.0131 17.9999 14.0131Z" fill="#AAAAAA"/>
<path d="M23.625 18.0716L23.6249 18.0909V22.37C23.6249 22.9841 23.1722 23.502 22.569 23.5781L22.3697 23.6033C22.1686 23.6287 22.0178 23.8014 22.0178 24.006V25.474C22.0178 25.9223 21.658 26.2857 21.2142 26.2857H14.7857C14.3419 26.2857 13.9821 25.9223 13.9821 25.474V24.006C13.9821 23.8014 13.8313 23.6287 13.6302 23.6033L13.4309 23.5781C12.8277 23.502 12.375 22.9841 12.375 22.37V18.0716C12.3751 16.2785 14.8934 14.8248 18 14.8248C21.1066 14.8248 23.625 16.2784 23.625 18.0716Z" fill="#AAAAAA"/>
<path d="M3.37491 28.6364C4.17375 28.6364 4.82133 27.9823 4.82133 27.1753C4.82133 26.3684 4.17375 25.7143 3.37491 25.7143C2.57607 25.7143 1.9285 26.3684 1.9285 27.1753C1.9285 27.9823 2.57607 28.6364 3.37491 28.6364Z" fill="#AAAAAA"/>
<path d="M6.75 31.0714L6.74994 31.0831V33.6505C6.74994 34.0189 6.47833 34.3297 6.11643 34.3754L5.99683 34.3905C5.87618 34.4057 5.78566 34.5093 5.78566 34.6321V35.5129C5.78566 35.7819 5.56978 35.9999 5.30352 35.9999H1.44642C1.18016 35.9999 0.964277 35.7819 0.964277 35.5129V34.6321C0.964277 34.5093 0.873758 34.4057 0.753106 34.3905L0.633513 34.3754C0.271615 34.3297 0 34.0189 0 33.6505V31.0714C5.88548e-05 29.9956 1.51104 29.1234 3.37497 29.1234C5.23896 29.1234 6.75 29.9956 6.75 31.0714Z" fill="#AAAAAA"/>
<path d="M32.6249 28.6364C33.4237 28.6364 34.0713 27.9823 34.0713 27.1753C34.0713 26.3684 33.4237 25.7143 32.6249 25.7143C31.8261 25.7143 31.1785 26.3684 31.1785 27.1753C31.1785 27.9823 31.8261 28.6364 32.6249 28.6364Z" fill="#AAAAAA"/>
<path d="M36 31.0714L35.9999 31.0831V33.6505C35.9999 34.0189 35.7283 34.3297 35.3664 34.3754L35.2468 34.3905C35.1262 34.4057 35.0357 34.5093 35.0357 34.6321V35.5129C35.0357 35.7819 34.8198 35.9999 34.5535 35.9999H30.6964C30.4302 35.9999 30.2143 35.7819 30.2143 35.5129V34.6321C30.2143 34.5093 30.1238 34.4057 30.0031 34.3905L29.8835 34.3754C29.5216 34.3297 29.25 34.0189 29.25 33.6505V31.0714C29.2501 29.9956 30.761 29.1234 32.625 29.1234C34.489 29.1234 36 29.9956 36 31.0714Z" fill="#AAAAAA"/>
<path d="M34.0713 1.46104C34.0713 2.26795 33.4237 2.92208 32.6249 2.92208C31.8261 2.92208 31.1785 2.26795 31.1785 1.46104C31.1785 0.654136 31.8261 0 32.6249 0C33.4237 0 34.0713 0.654136 34.0713 1.46104Z" fill="#AAAAAA"/>
<path d="M35.9999 5.36877L36 5.35714C36 4.28126 34.489 3.40909 32.625 3.40909C30.761 3.40909 29.2501 4.28129 29.25 5.35714V7.93622C29.25 8.30463 29.5216 8.61539 29.8835 8.66109L30.0031 8.67619C30.1238 8.69142 30.2143 8.79501 30.2143 8.91782V9.79862C30.2143 10.0676 30.4302 10.2856 30.6964 10.2856H34.5535C34.8198 10.2856 35.0357 10.0676 35.0357 9.79862V8.91782C35.0357 8.79501 35.1262 8.69142 35.2468 8.67619L35.3664 8.66109C35.7283 8.61539 35.9999 8.30463 35.9999 7.93622V5.36877Z" fill="#AAAAAA"/>
<path d="M7.06251 9.71244C7.0636 9.57437 7.1764 9.46333 7.31447 9.46442L9.5644 9.48214C9.70247 9.48322 9.81351 9.59603 9.81242 9.7341C9.81133 9.87216 9.69853 9.98321 9.56046 9.98212L7.91407 9.96915L12.1298 14.2518L12.1427 12.6054C12.1438 12.4673 12.2566 12.3563 12.3947 12.3574C12.5328 12.3584 12.6438 12.4713 12.6427 12.6093L12.625 14.8593C12.6239 14.9973 12.5111 15.1084 12.373 15.1073L10.1231 15.0896C9.98503 15.0885 9.87399 14.9757 9.87508 14.8376C9.87616 14.6995 9.98897 14.5885 10.127 14.5896L11.7734 14.6025L7.55774 10.3199L7.54477 11.9663C7.54368 12.1044 7.43088 12.2154 7.29281 12.2143C7.15474 12.2132 7.0437 12.1004 7.04479 11.9624L7.06251 9.71244Z" fill="#AAAAAA"/>
<path d="M7.31447 29.9644C7.1764 29.9655 7.0636 29.8544 7.06251 29.7164L7.04479 27.4664C7.0437 27.3284 7.15474 27.2156 7.29281 27.2145C7.43088 27.2134 7.54368 27.3244 7.54477 27.4625L7.55774 29.1089L11.7734 24.8263L10.127 24.8392C9.98897 24.8403 9.87616 24.7293 9.87508 24.5912C9.87399 24.4531 9.98503 24.3403 10.1231 24.3392L12.373 24.3215C12.5111 24.3204 12.6239 24.4315 12.625 24.5696L12.6427 26.8195C12.6438 26.9576 12.5328 27.0704 12.3947 27.0714C12.2566 27.0725 12.1438 26.9615 12.1427 26.8234L12.1298 25.177L7.91407 29.4597L9.56046 29.4467C9.69853 29.4456 9.81133 29.5566 9.81242 29.6947C9.81351 29.8328 9.70247 29.9456 9.5644 29.9467L7.31447 29.9644Z" fill="#AAAAAA"/>
<path d="M28.9375 9.71244C28.9364 9.57437 28.8236 9.46333 28.6855 9.46442L26.4356 9.48214C26.2975 9.48322 26.1865 9.59603 26.1876 9.7341C26.1887 9.87216 26.3015 9.98321 26.4395 9.98212L28.0859 9.96915L23.8702 14.2518L23.8573 12.6054C23.8562 12.4673 23.7434 12.3563 23.6053 12.3574C23.4672 12.3584 23.3562 12.4713 23.3573 12.6093L23.375 14.8593C23.3761 14.9973 23.4889 15.1084 23.627 15.1073L25.8769 15.0896C26.015 15.0885 26.126 14.9757 26.1249 14.8376C26.1238 14.6995 26.011 14.5885 25.873 14.5896L24.2266 14.6025L28.4423 10.3199L28.4552 11.9663C28.4563 12.1044 28.5691 12.2154 28.7072 12.2143C28.8453 12.2132 28.9563 12.1004 28.9552 11.9624L28.9375 9.71244Z" fill="#AAAAAA"/>
<path d="M28.6855 29.9644C28.8236 29.9655 28.9364 29.8544 28.9375 29.7164L28.9552 27.4664C28.9563 27.3284 28.8453 27.2156 28.7072 27.2145C28.5691 27.2134 28.4563 27.3244 28.4552 27.4625L28.4423 29.1089L24.2266 24.8263L25.873 24.8392C26.011 24.8403 26.1238 24.7293 26.1249 24.5912C26.126 24.4531 26.015 24.3403 25.8769 24.3392L23.627 24.3215C23.4889 24.3204 23.3761 24.4315 23.375 24.5696L23.3573 26.8195C23.3562 26.9576 23.4672 27.0704 23.6053 27.0714C23.7434 27.0725 23.8562 26.9615 23.8573 26.8234L23.8702 25.177L28.0859 29.4597L26.4395 29.4467C26.3015 29.4456 26.1887 29.5566 26.1876 29.6947C26.1865 29.8328 26.2975 29.9456 26.4356 29.9467L28.6855 29.9644Z" fill="#AAAAAA"/>
</svg>
