<svg width="48" height="48" viewBox="0 0 48 48" fill="none" xmlns="http://www.w3.org/2000/svg">
<rect width="48" height="48" fill="black"/>
<mask id="path-1-inside-1_549_7650" fill="white">
<path fill-rule="evenodd" clip-rule="evenodd" d="M32.8056 20.6306C32.8057 20.6109 32.8058 20.5912 32.8058 20.5714C32.8058 15.8376 28.9984 12 24.3019 12C19.6053 12 15.7979 15.8376 15.7979 20.5714C15.7979 20.5715 15.7979 20.5715 15.7979 20.5715H15.7977V24.847C15.7977 25.9739 15.4804 27.078 14.882 28.0329L13.1157 30.8517C12.8027 31.3512 13.1617 32 13.7512 32H34.8521C35.4416 32 35.8006 31.3512 35.4876 30.8517L33.7213 28.0329C33.1229 27.078 32.8056 25.9739 32.8056 24.847V20.6306Z"/>
</mask>
<path fill-rule="evenodd" clip-rule="evenodd" d="M32.8056 20.6306C32.8057 20.6109 32.8058 20.5912 32.8058 20.5714C32.8058 15.8376 28.9984 12 24.3019 12C19.6053 12 15.7979 15.8376 15.7979 20.5714C15.7979 20.5715 15.7979 20.5715 15.7979 20.5715H15.7977V24.847C15.7977 25.9739 15.4804 27.078 14.882 28.0329L13.1157 30.8517C12.8027 31.3512 13.1617 32 13.7512 32H34.8521C35.4416 32 35.8006 31.3512 35.4876 30.8517L33.7213 28.0329C33.1229 27.078 32.8056 25.9739 32.8056 24.847V20.6306Z" fill="black"/>
<path d="M32.8056 20.6306L31.8056 20.6239V20.6306H32.8056ZM15.7979 20.5715V21.5715H16.7979V20.5715H15.7979ZM15.7977 20.5715V19.5715H14.7977V20.5715H15.7977ZM14.882 28.0329L14.0346 27.5019L14.882 28.0329ZM13.1157 30.8517L13.963 31.3827H13.963L13.1157 30.8517ZM35.4876 30.8517L34.6403 31.3827L34.6403 31.3827L35.4876 30.8517ZM33.7213 28.0329L34.5687 27.5019V27.5019L33.7213 28.0329ZM31.8058 20.5714C31.8058 20.5889 31.8057 20.6064 31.8056 20.6239L33.8056 20.6373C33.8057 20.6154 33.8058 20.5934 33.8058 20.5714H31.8058ZM24.3019 13C28.4387 13 31.8058 16.3824 31.8058 20.5714H33.8058C33.8058 15.2928 29.5582 11 24.3019 11V13ZM16.7979 20.5714C16.7979 16.3824 20.165 13 24.3019 13V11C19.0455 11 14.7979 15.2928 14.7979 20.5714H16.7979ZM16.7979 20.5715V20.5715C16.7979 20.5715 16.7979 20.5715 16.7979 20.5715C16.7979 20.5715 16.7979 20.5715 16.7979 20.5715C16.7979 20.5715 16.7979 20.5715 16.7979 20.5715C16.7979 20.5715 16.7979 20.5715 16.7979 20.5715C16.7979 20.5715 16.7979 20.5715 16.7979 20.5715C16.7979 20.5715 16.7979 20.5715 16.7979 20.5715V20.5715V20.5715V20.5715V20.5715C16.7979 20.5715 16.7979 20.5715 16.7979 20.5715C16.7979 20.5715 16.7979 20.5715 16.7979 20.5715C16.7979 20.5715 16.7979 20.5715 16.7979 20.5715C16.7979 20.5715 16.7979 20.5715 16.7979 20.5715C16.7979 20.5715 16.7979 20.5715 16.7979 20.5715C16.7979 20.5715 16.7979 20.5715 16.7979 20.5715V20.5715V20.5715C16.7979 20.5715 16.7979 20.5715 16.7979 20.5715C16.7979 20.5715 16.7979 20.5715 16.7979 20.5715C16.7979 20.5715 16.7979 20.5715 16.7979 20.5715C16.7979 20.5715 16.7979 20.5715 16.7979 20.5715C16.7979 20.5715 16.7979 20.5715 16.7979 20.5715C16.7979 20.5715 16.7979 20.5715 16.7979 20.5715V20.5715V20.5715V20.5715V20.5715C16.7979 20.5715 16.7979 20.5715 16.7979 20.5715C16.7979 20.5715 16.7979 20.5715 16.7979 20.5715C16.7979 20.5715 16.7979 20.5715 16.7979 20.5715C16.7979 20.5715 16.7979 20.5715 16.7979 20.5715C16.7979 20.5715 16.7979 20.5715 16.7979 20.5715C16.7979 20.5715 16.7979 20.5715 16.7979 20.5715V20.5715V20.5715C16.7979 20.5715 16.7979 20.5715 16.7979 20.5715C16.7979 20.5715 16.7979 20.5715 16.7979 20.5715C16.7979 20.5715 16.7979 20.5715 16.7979 20.5715C16.7979 20.5715 16.7979 20.5715 16.7979 20.5715C16.7979 20.5715 16.7979 20.5715 16.7979 20.5715C16.7979 20.5715 16.7979 20.5715 16.7979 20.5715V20.5715V20.5715V20.5715V20.5715C16.7979 20.5715 16.7979 20.5715 16.7979 20.5715C16.7979 20.5715 16.7979 20.5715 16.7979 20.5715C16.7979 20.5715 16.7979 20.5715 16.7979 20.5715C16.7979 20.5715 16.7979 20.5715 16.7979 20.5715C16.7979 20.5715 16.7979 20.5715 16.7979 20.5715C16.7979 20.5715 16.7979 20.5715 16.7979 20.5715V20.5715V20.5715C16.7979 20.5715 16.7979 20.5715 16.7979 20.5715C16.7979 20.5715 16.7979 20.5715 16.7979 20.5715C16.7979 20.5715 16.7979 20.5715 16.7979 20.5715C16.7979 20.5715 16.7979 20.5715 16.7979 20.5715C16.7979 20.5715 16.7979 20.5715 16.7979 20.5715C16.7979 20.5715 16.7979 20.5715 16.7979 20.5715V20.5715V20.5714V20.5714V20.5714C16.7979 20.5714 16.7979 20.5714 16.7979 20.5714C16.7979 20.5714 16.7979 20.5714 16.7979 20.5714C16.7979 20.5714 16.7979 20.5714 16.7979 20.5714C16.7979 20.5714 16.7979 20.5714 16.7979 20.5714C16.7979 20.5714 16.7979 20.5714 16.7979 20.5714C16.7979 20.5714 16.7979 20.5714 16.7979 20.5714V20.5714H14.7979V20.5714C14.7979 20.5714 14.7979 20.5714 14.7979 20.5714C14.7979 20.5714 14.7979 20.5714 14.7979 20.5714C14.7979 20.5714 14.7979 20.5714 14.7979 20.5714C14.7979 20.5714 14.7979 20.5714 14.7979 20.5714C14.7979 20.5714 14.7979 20.5714 14.7979 20.5714C14.7979 20.5714 14.7979 20.5714 14.7979 20.5714V20.5714V20.5714V20.5715V20.5715C14.7979 20.5715 14.7979 20.5715 14.7979 20.5715C14.7979 20.5715 14.7979 20.5715 14.7979 20.5715C14.7979 20.5715 14.7979 20.5715 14.7979 20.5715C14.7979 20.5715 14.7979 20.5715 14.7979 20.5715C14.7979 20.5715 14.7979 20.5715 14.7979 20.5715C14.7979 20.5715 14.7979 20.5715 14.7979 20.5715V20.5715V20.5715C14.7979 20.5715 14.7979 20.5715 14.7979 20.5715C14.7979 20.5715 14.7979 20.5715 14.7979 20.5715C14.7979 20.5715 14.7979 20.5715 14.7979 20.5715C14.7979 20.5715 14.7979 20.5715 14.7979 20.5715C14.7979 20.5715 14.7979 20.5715 14.7979 20.5715C14.7979 20.5715 14.7979 20.5715 14.7979 20.5715V20.5715V20.5715V20.5715V20.5715C14.7979 20.5715 14.7979 20.5715 14.7979 20.5715C14.7979 20.5715 14.7979 20.5715 14.7979 20.5715C14.7979 20.5715 14.7979 20.5715 14.7979 20.5715C14.7979 20.5715 14.7979 20.5715 14.7979 20.5715C14.7979 20.5715 14.7979 20.5715 14.7979 20.5715C14.7979 20.5715 14.7979 20.5715 14.7979 20.5715V20.5715V20.5715C14.7979 20.5715 14.7979 20.5715 14.7979 20.5715C14.7979 20.5715 14.7979 20.5715 14.7979 20.5715C14.7979 20.5715 14.7979 20.5715 14.7979 20.5715C14.7979 20.5715 14.7979 20.5715 14.7979 20.5715C14.7979 20.5715 14.7979 20.5715 14.7979 20.5715C14.7979 20.5715 14.7979 20.5715 14.7979 20.5715V20.5715V20.5715V20.5715V20.5715C14.7979 20.5715 14.7979 20.5715 14.7979 20.5715C14.7979 20.5715 14.7979 20.5715 14.7979 20.5715C14.7979 20.5715 14.7979 20.5715 14.7979 20.5715C14.7979 20.5715 14.7979 20.5715 14.7979 20.5715C14.7979 20.5715 14.7979 20.5715 14.7979 20.5715C14.7979 20.5715 14.7979 20.5715 14.7979 20.5715V20.5715V20.5715C14.7979 20.5715 14.7979 20.5715 14.7979 20.5715C14.7979 20.5715 14.7979 20.5715 14.7979 20.5715C14.7979 20.5715 14.7979 20.5715 14.7979 20.5715C14.7979 20.5715 14.7979 20.5715 14.7979 20.5715C14.7979 20.5715 14.7979 20.5715 14.7979 20.5715C14.7979 20.5715 14.7979 20.5715 14.7979 20.5715V20.5715V20.5715V20.5715V20.5715C14.7979 20.5715 14.7979 20.5715 14.7979 20.5715C14.7979 20.5715 14.7979 20.5715 14.7979 20.5715C14.7979 20.5715 14.7979 20.5715 14.7979 20.5715C14.7979 20.5715 14.7979 20.5715 14.7979 20.5715C14.7979 20.5715 14.7979 20.5715 14.7979 20.5715C14.7979 20.5715 14.7979 20.5715 14.7979 20.5715V20.5715H16.7979ZM15.7977 21.5715H15.7979V19.5715H15.7977V21.5715ZM16.7977 24.847V20.5715H14.7977V24.847H16.7977ZM15.7294 28.5639C16.4275 27.4498 16.7977 26.1617 16.7977 24.847H14.7977C14.7977 25.786 14.5333 26.7061 14.0346 27.5019L15.7294 28.5639ZM13.963 31.3827L15.7294 28.5639L14.0346 27.5019L12.2683 30.3208L13.963 31.3827ZM13.7512 31C13.9477 31 14.0674 31.2162 13.963 31.3827L12.2683 30.3208C11.538 31.4863 12.3758 33 13.7512 33V31ZM34.8521 31H13.7512V33H34.8521V31ZM34.6403 31.3827C34.5359 31.2162 34.6556 31 34.8521 31V33C36.2275 33 37.0654 31.4863 36.335 30.3208L34.6403 31.3827ZM32.8739 28.5639L34.6403 31.3827L36.335 30.3208L34.5687 27.5019L32.8739 28.5639ZM31.8056 24.847C31.8056 26.1617 32.1758 27.4498 32.8739 28.5639L34.5687 27.5019C34.07 26.7061 33.8056 25.786 33.8056 24.847H31.8056ZM31.8056 20.6306V24.847H33.8056V20.6306H31.8056Z" fill="#AAAAAA" mask="url(#path-1-inside-1_549_7650)"/>
<path d="M24.3015 36C26.1801 36 27.703 34.465 27.703 32.5714V31.2857" stroke="#AAAAAA"/>
<path d="M24.3015 36C22.4228 36 20.8999 34.465 20.8999 32.5714V31.2857" stroke="#AAAAAA"/>
<rect x="17" y="32" width="13" height="1" fill="black"/>
</svg>
