<svg width="36" height="36" viewBox="0 0 36 36" fill="none" xmlns="http://www.w3.org/2000/svg">
<path d="M11.1758 16.1758C12.0041 16.1759 12.6758 16.8474 12.6758 17.6758C12.6756 18.504 12.004 19.1756 11.1758 19.1758C10.3474 19.1758 9.67591 18.5041 9.67578 17.6758C9.67578 16.8474 10.3474 16.1758 11.1758 16.1758Z" fill="white"/>
<path d="M17.6758 16.1758C18.5041 16.1759 19.1758 16.8474 19.1758 17.6758C19.1756 18.504 18.504 19.1756 17.6758 19.1758C16.8474 19.1758 16.1759 18.5041 16.1758 17.6758C16.1758 16.8474 16.8474 16.1758 17.6758 16.1758Z" fill="white"/>
<path d="M24.1758 16.1758C25.0041 16.1759 25.6758 16.8474 25.6758 17.6758C25.6756 18.504 25.004 19.1756 24.1758 19.1758C23.3474 19.1758 22.6759 18.5041 22.6758 17.6758C22.6758 16.8474 23.3474 16.1758 24.1758 16.1758Z" fill="white"/>
</svg>
