<svg width="36" height="36" viewBox="0 0 36 36" fill="none" xmlns="http://www.w3.org/2000/svg">
<path d="M8.75 21C9.16421 21 9.5 21.3358 9.5 21.75V24C9.5 24.8284 10.1716 25.5 11 25.5H14.25C14.6642 25.5 15 25.8358 15 26.25C15 26.6642 14.6642 27 14.25 27H11C9.39489 27 8.08421 25.7394 8.00391 24.1543L8 24V21.75C8 21.3358 8.33579 21 8.75 21Z" fill="white"/>
<path d="M28 24C28 25.6569 26.6569 27 25 27H21.75C21.3358 27 21 26.6642 21 26.25C21 25.8358 21.3358 25.5 21.75 25.5H25C25.8284 25.5 26.5 24.8284 26.5 24V21.75C26.5 21.3358 26.8358 21 27.25 21C27.6642 21 28 21.3358 28 21.75V24Z" fill="white"/>
<path d="M25 9C26.6569 9 28 10.3431 28 12V14.25C28 14.6642 27.6642 15 27.25 15C26.8358 15 26.5 14.6642 26.5 14.25V12C26.5 11.1716 25.8284 10.5 25 10.5H21.75C21.3358 10.5 21 10.1642 21 9.75C21 9.33579 21.3358 9 21.75 9H25Z" fill="white"/>
<path d="M15 9.75C15 10.1642 14.6642 10.5 14.25 10.5H11C10.1716 10.5 9.5 11.1716 9.5 12V14.25C9.5 14.6642 9.16421 15 8.75 15C8.33579 15 8 14.6642 8 14.25V12C8 10.3431 9.34315 9 11 9H14.25C14.6642 9 15 9.33579 15 9.75Z" fill="white"/>
</svg>
