<svg width="16" height="15" viewBox="0 0 16 15" fill="none" xmlns="http://www.w3.org/2000/svg">
<path d="M3 4.23031L7.59383 0.555252C7.75752 0.4243 8 0.540843 8 0.750469V14.7102C8 14.9198 7.75752 15.0363 7.59383 14.9054L3 11.2303L1 11.2303C0.447715 11.2303 0 10.7826 0 10.2303V5.23031C0 4.67803 0.447715 4.23031 1 4.23031H3Z" fill="white"/>
<path d="M12.3988 2.48169C12.1237 2.17642 12.1207 1.72161 12.4235 1.43993C12.7263 1.15824 13.2198 1.15658 13.4992 1.45846C15.0578 3.14233 16 5.33397 16 7.73031C16 10.1267 15.0578 12.3183 13.4992 14.0022C13.2198 14.304 12.7263 14.3024 12.4235 14.0207C12.1207 13.739 12.1237 13.2842 12.3988 12.9789C13.6786 11.5589 14.4492 9.72831 14.4492 7.73031C14.4492 5.73231 13.6786 3.90173 12.3988 2.48169Z" fill="white"/>
<path d="M10.1915 4.53286C9.93242 4.21568 9.92748 3.76152 10.2303 3.47983C10.5331 3.19815 11.0278 3.19597 11.2967 3.50601C12.2985 4.66107 12.8983 6.13042 12.8983 7.7301C12.8983 9.32977 12.2985 10.7991 11.2967 11.9542C11.0278 12.2642 10.5331 12.262 10.2303 11.9804C9.92748 11.6987 9.93242 11.2445 10.1915 10.9273C10.9169 10.0393 11.3475 8.93146 11.3475 7.7301C11.3475 6.52873 10.9169 5.4209 10.1915 4.53286Z" fill="white"/>
</svg>
