<svg width="16" height="16" viewBox="0 0 16 16" fill="none" xmlns="http://www.w3.org/2000/svg">
<path d="M1.53033 0.71967C1.23744 0.426777 0.762563 0.426777 0.46967 0.71967C0.176777 1.01256 0.176777 1.48744 0.46967 1.78033L14.4697 15.7803C14.7626 16.0732 15.2374 16.0732 15.5303 15.7803C15.8232 15.4874 15.8232 15.0126 15.5303 14.7197L1.53033 0.71967Z" fill="white"/>
<path d="M5.1269 2.54832L8 5.42142V0.77C8 0.560374 7.75752 0.443831 7.59383 0.574783L5.1269 2.54832Z" fill="white"/>
<path d="M14.8108 12.2322L13.6793 11.1007C14.174 10.0782 14.4492 8.9439 14.4492 7.74984C14.4492 5.75184 13.6786 3.92126 12.3988 2.50122C12.1237 2.19595 12.1207 1.74114 12.4235 1.45946C12.7263 1.17777 13.2198 1.17611 13.4992 1.47799C15.0578 3.16186 16 5.3535 16 7.74984C16 9.36848 15.5701 10.8937 14.8108 12.2322Z" fill="white"/>
<path d="M11.2596 8.68104L12.5099 9.93127C12.7617 9.24709 12.8983 8.5132 12.8983 7.74963C12.8983 6.14995 12.2985 4.6806 11.2967 3.52554C11.0278 3.2155 10.5331 3.21768 10.2303 3.49937C9.92748 3.78105 9.93242 4.23521 10.1915 4.55239C10.9169 5.44043 11.3475 6.54826 11.3475 7.74963C11.3475 8.06742 11.3174 8.37868 11.2596 8.68104Z" fill="white"/>
<path d="M1 4.24984H1.17157L8 11.0783V14.7297C8 14.9393 7.75752 15.0559 7.59383 14.9249L3 11.2498L1 11.2498C0.447715 11.2498 0 10.8021 0 10.2498V5.24984C0 4.69756 0.447715 4.24984 1 4.24984Z" fill="white"/>
</svg>
