<svg width="20" height="20" viewBox="0 0 20 20" fill="none" xmlns="http://www.w3.org/2000/svg">
<path fill-rule="evenodd" clip-rule="evenodd" d="M17.204 1.01074C18.2127 1.113 18.9999 1.96435 18.9999 3V17L18.9892 17.2041C18.8937 18.1456 18.1456 18.8938 17.204 18.9893L16.9999 19H13.9999L13.7958 18.9893C12.8544 18.8937 12.1061 18.1455 12.0107 17.2041L11.9999 17V3C11.9999 1.96446 12.7873 1.11315 13.7958 1.01074L13.9999 1H16.9999L17.204 1.01074ZM13.9999 2.5C13.7239 2.50017 13.4999 2.72396 13.4999 3V17C13.4999 17.276 13.7239 17.4998 13.9999 17.5H16.9999C17.2761 17.5 17.4999 17.2761 17.4999 17V3C17.4999 2.72386 17.2761 2.5 16.9999 2.5H13.9999Z" fill="white"/>
<path d="M5.34464 5.41797C5.63614 5.17772 6.06698 5.19532 6.33878 5.46973C6.61057 5.74433 6.62741 6.17905 6.38956 6.47363L6.33878 6.53027L3.63663 9.25H10.2577C10.6676 9.25007 10.9999 9.58587 10.9999 10C10.9999 10.4142 10.6676 10.7499 10.2577 10.75H3.63663L6.33878 13.4697C6.62866 13.7626 6.62863 14.2374 6.33878 14.5303C6.04887 14.823 5.57882 14.8231 5.28898 14.5303L1.14445 10.3535C0.951717 10.1583 0.95166 9.84163 1.14445 9.64648L5.28898 5.46973L5.34464 5.41797Z" fill="white"/>
</svg>
