<svg width="20" height="20" viewBox="0 0 20 20" fill="none" xmlns="http://www.w3.org/2000/svg">
<path fill-rule="evenodd" clip-rule="evenodd" d="M6.2041 1.01074C7.21278 1.113 8 1.96435 8 3V17L7.98926 17.2041C7.8938 18.1457 7.14565 18.8938 6.2041 18.9893L6 19H3L2.7959 18.9893C1.85435 18.8938 1.1062 18.1457 1.01074 17.2041L1 17V3C1 1.96435 1.78722 1.113 2.7959 1.01074L3 1H6L6.2041 1.01074ZM3 2.5C2.72386 2.5 2.5 2.72386 2.5 3V17C2.5 17.2761 2.72386 17.5 3 17.5H6C6.27614 17.5 6.5 17.2761 6.5 17V3C6.5 2.72386 6.27614 2.5 6 2.5H3Z" fill="white"/>
<path d="M13.6611 5.46973C13.9329 5.19516 14.3637 5.17767 14.6553 5.41797L14.7109 5.46973L18.8555 9.64648C19.0485 9.84167 19.0484 10.1583 18.8555 10.3535L14.7109 14.5303C14.421 14.8232 13.951 14.8232 13.6611 14.5303C13.3713 14.2374 13.3713 13.7626 13.6611 13.4697L16.3633 10.75H9.74219C9.33228 10.7499 9 10.4142 9 10C9.00005 9.58587 9.3323 9.25007 9.74219 9.25H16.3633L13.6611 6.53027L13.6104 6.47363C13.3725 6.17905 13.3893 5.74433 13.6611 5.46973Z" fill="white"/>
</svg>
