<svg width="20" height="20" viewBox="0 0 20 20" fill="none" xmlns="http://www.w3.org/2000/svg">
<path fill-rule="evenodd" clip-rule="evenodd" d="M11.7041 1.01074C12.6457 1.1062 13.3938 1.85435 13.4893 2.7959L13.5 3V17C13.5 18.0357 12.7128 18.887 11.7041 18.9893L11.5 19H8.5L8.2959 18.9893C7.28722 18.887 6.5 18.0357 6.5 17V3L6.51074 2.7959C6.6062 1.85435 7.35435 1.1062 8.2959 1.01074L8.5 1H11.5L11.7041 1.01074ZM8.5 2.5C8.22386 2.5 8 2.72386 8 3V17C8 17.2761 8.22386 17.5 8.5 17.5H11.5C11.7761 17.5 12 17.2761 12 17V3C12 2.72386 11.7761 2.5 11.5 2.5H8.5Z" fill="#FA3C3C"/>
<path d="M8.5 1C7.56829 1 6.78765 1.63768 6.56543 2.5H3C2.72386 2.5 2.5 2.72386 2.5 3V7H6.5V8H2.5V12H6.5V13H2.5V17C2.5 17.2761 2.72386 17.5 3 17.5H6.56543C6.78765 18.3623 7.56829 19 8.5 19H3L2.7959 18.9893C1.78722 18.887 1 18.0357 1 17V3L1.01074 2.7959C1.1062 1.85435 1.85435 1.1062 2.7959 1.01074L3 1H8.5Z" fill="#808080"/>
<path d="M17.2041 1.01074C18.1457 1.1062 18.8938 1.85435 18.9893 2.7959L19 3V17C19 18.0357 18.2128 18.887 17.2041 18.9893L17 19H11.5C12.4316 19 13.2113 18.3622 13.4336 17.5H17C17.2761 17.5 17.5 17.2761 17.5 17V13H13.5V12H17.5V8H13.5V7H17.5V3C17.5 2.72386 17.2761 2.5 17 2.5H13.4336C13.2113 1.6378 12.4316 1 11.5 1H17L17.2041 1.01074Z" fill="#808080"/>
</svg>
