<svg width="20" height="20" viewBox="0 0 20 20" fill="none" xmlns="http://www.w3.org/2000/svg">
<path d="M7.7522 2.5C7.7522 1.67157 8.42377 1 9.2522 1H10.7522C11.5806 1 12.2522 1.67157 12.2522 2.5H17.0522C17.7149 2.5 18.2522 3.03726 18.2522 3.7C18.2522 3.86569 18.1179 4 17.9522 4H2.0522C1.88651 4 1.7522 3.86569 1.7522 3.7C1.7522 3.03726 2.28946 2.5 2.9522 2.5H7.7522Z" fill="#FA3C3C"/>
<path d="M7.3772 7C7.3772 6.58579 7.71298 6.25 8.1272 6.25C8.54141 6.25 8.8772 6.58579 8.8772 7V14.5C8.8772 14.9142 8.54141 15.25 8.1272 15.25C7.71298 15.25 7.3772 14.9142 7.3772 14.5V7Z" fill="#FA3C3C"/>
<path d="M11.8772 6.25C11.463 6.25 11.1272 6.58579 11.1272 7V14.5C11.1272 14.9142 11.463 15.25 11.8772 15.25C12.2914 15.25 12.6272 14.9142 12.6272 14.5V7C12.6272 6.58579 12.2914 6.25 11.8772 6.25Z" fill="#FA3C3C"/>
<path d="M4.0022 5.5C3.58798 5.5 3.2522 5.83579 3.2522 6.25V17.5C3.2522 18.3284 3.92377 19 4.7522 19H15.2522C16.0806 19 16.7522 18.3284 16.7522 17.5V6.25C16.7522 5.83579 16.4164 5.5 16.0022 5.5C15.588 5.5 15.2522 5.83579 15.2522 6.25V16.75C15.2522 17.1642 14.9164 17.5 14.5022 17.5H5.5022C5.08798 17.5 4.7522 17.1642 4.7522 16.75V6.25C4.7522 5.83579 4.41641 5.5 4.0022 5.5Z" fill="#FA3C3C"/>
</svg>
