<svg width="20" height="20" viewBox="0 0 20 20" fill="none" xmlns="http://www.w3.org/2000/svg">
<path d="M19 17L18.9893 17.2041C18.8938 18.1457 18.1457 18.8938 17.2041 18.9893L17 19H3C1.96435 19 1.113 18.2128 1.01074 17.2041L1 17V11.5C1 12.4316 1.6378 13.2113 2.5 13.4336V17C2.5 17.2761 2.72386 17.5 3 17.5H7V13.5H8V17.5H12V13.5H13V17.5H17C17.2761 17.5 17.5 17.2761 17.5 17V13.4336C18.3622 13.2113 19 12.4316 19 11.5V17Z" fill="#808080"/>
<path d="M17.2041 1.01074C18.1457 1.1062 18.8938 1.85435 18.9893 2.7959L19 3V8.5C19 7.56829 18.3623 6.78765 17.5 6.56543V3C17.5 2.72386 17.2761 2.5 17 2.5H13V6.5H12V2.5H8V6.5H7V2.5H3C2.72386 2.5 2.5 2.72386 2.5 3V6.56543C1.63768 6.78765 1 7.56829 1 8.5V3L1.01074 2.7959C1.113 1.78722 1.96435 1 3 1H17L17.2041 1.01074Z" fill="#808080"/>
<path fill-rule="evenodd" clip-rule="evenodd" d="M19 11.5L18.9893 11.7041C18.8938 12.6457 18.1457 13.3938 17.2041 13.4893L17 13.5H3C1.96435 13.5 1.113 12.7128 1.01074 11.7041L1 11.5V8.5L1.01074 8.2959C1.113 7.28722 1.96435 6.5 3 6.5H17L17.2041 6.51074C18.1457 6.6062 18.8938 7.35435 18.9893 8.2959L19 8.5V11.5ZM17.5 8.5C17.5 8.22386 17.2761 8 17 8H3C2.72386 8 2.5 8.22386 2.5 8.5V11.5C2.5 11.7761 2.72386 12 3 12H17C17.2761 12 17.5 11.7761 17.5 11.5V8.5Z" fill="#FA3C3C"/>
</svg>
