<svg width="18" height="18" viewBox="0 0 18 18" fill="none" xmlns="http://www.w3.org/2000/svg">
<path fill-rule="evenodd" clip-rule="evenodd" d="M0.0107422 1.7959C0.113005 0.787223 0.964349 7.55085e-09 2 0H16L16.2041 0.0107422C17.1457 0.106199 17.8938 0.854346 17.9893 1.7959L18 2V16L17.9893 16.2041C17.8938 17.1457 17.1457 17.8938 16.2041 17.9893L16 18H2C0.964349 18 0.113005 17.2128 0.0107422 16.2041L0 16V2L0.0107422 1.7959ZM16 16.5C16.2761 16.5 16.5 16.2761 16.5 16V12H12V16.5H16ZM16.5 6V2C16.5 1.72386 16.2761 1.5 16 1.5H12V6H16.5ZM16.5 11V7H12V11H16.5ZM11 16.5V12H7V16.5H11ZM11 6V1.5H7V6H11ZM11 11V7H7V11H11ZM1.5 16C1.5 16.2761 1.72386 16.5 2 16.5H6V12H1.5V16ZM6 11V7H1.5V11H6Z" fill="white"/>
</svg>
