<svg width="20" height="20" viewBox="0 0 20 20" fill="none" xmlns="http://www.w3.org/2000/svg">
<path fill-rule="evenodd" clip-rule="evenodd" d="M17.2041 12.0106C18.1456 12.1061 18.8937 12.8543 18.9893 13.7958L19 13.9999V16.9999L18.9893 17.204C18.8938 18.1455 18.1457 18.8937 17.2041 18.9891L17 18.9999H3C1.9644 18.9998 1.113 18.2126 1.01074 17.204L1 16.9999V13.9999L1.01074 13.7958C1.1131 12.7872 1.96448 11.9999 3 11.9999H17L17.2041 12.0106ZM3 13.4999C2.72399 13.4999 2.50012 13.7239 2.5 13.9999V16.9999C2.5 17.276 2.72391 17.4998 3 17.4999H17C17.2761 17.4999 17.5 17.276 17.5 16.9999V13.9999C17.4999 13.7238 17.2761 13.4999 17 13.4999H3Z" fill="white"/>
<path d="M9.64648 1.1444C9.84162 0.951514 10.1583 0.951652 10.3535 1.1444L14.5303 5.28893C14.8231 5.5788 14.8231 6.04883 14.5303 6.33873C14.2374 6.62858 13.7626 6.62861 13.4697 6.33873L10.75 3.63658V10.2577C10.7499 10.6676 10.4142 10.9999 10 10.9999C9.58593 10.9998 9.25007 10.6675 9.25 10.2577V3.63658L6.53027 6.33873L6.47363 6.38951C6.17905 6.62736 5.74433 6.61052 5.46973 6.33873C5.19533 6.06693 5.17773 5.63608 5.41797 5.34459L5.46973 5.28893L9.64648 1.1444Z" fill="white"/>
</svg>
