<svg width="20" height="20" viewBox="0 0 20 20" fill="none" xmlns="http://www.w3.org/2000/svg">
<path d="M10 9C10.4142 9 10.7499 9.33228 10.75 9.74219V16.3633L13.4697 13.6611C13.7626 13.3713 14.2374 13.3713 14.5303 13.6611C14.8232 13.951 14.8232 14.421 14.5303 14.7109L10.3535 18.8555C10.1583 19.0483 9.84163 19.0484 9.64648 18.8555L5.46973 14.7109L5.41797 14.6553C5.17771 14.3638 5.19527 13.9329 5.46973 13.6611C5.74432 13.3893 6.17905 13.3725 6.47363 13.6104L6.53027 13.6611L9.25 16.3633V9.74219C9.25007 9.33235 9.58593 9.00011 10 9Z" fill="white"/>
<path fill-rule="evenodd" clip-rule="evenodd" d="M17.2041 1.01074C18.1457 1.1062 18.8938 1.85435 18.9893 2.7959L19 3V6L18.9893 6.2041C18.8938 7.14561 18.1456 7.8938 17.2041 7.98926L17 8H3C1.96443 7.99994 1.11304 7.2127 1.01074 6.2041L1 6V3L1.01074 2.7959C1.113 1.78726 1.9644 1.00006 3 1H17L17.2041 1.01074ZM3 2.5C2.72391 2.50007 2.5 2.7239 2.5 3V6C2.50005 6.27606 2.72394 6.49993 3 6.5H17C17.2761 6.5 17.5 6.2761 17.5 6V3C17.5 2.72386 17.2761 2.5 17 2.5H3Z" fill="white"/>
</svg>
