<svg width="20" height="20" viewBox="0 0 20 20" fill="none" xmlns="http://www.w3.org/2000/svg">
<rect x="1.25" y="12.25" width="16.5" height="0.5" fill="white" stroke="white" stroke-width="0.5"/>
<rect x="1.25" y="7.25" width="16.5" height="0.5" fill="white" stroke="white" stroke-width="0.5"/>
<path fill-rule="evenodd" clip-rule="evenodd" d="M17.2041 1.01074C18.2128 1.113 19 1.96435 19 3V17L18.9893 17.2041C18.8938 18.1457 18.1457 18.8938 17.2041 18.9893L17 19H3L2.7959 18.9893C1.85435 18.8938 1.1062 18.1457 1.01074 17.2041L1 17V3C1 1.96435 1.78722 1.113 2.7959 1.01074L3 1H17L17.2041 1.01074ZM2.5 17C2.5 17.2761 2.72386 17.5 3 17.5H17C17.2761 17.5 17.5 17.2761 17.5 17V13.5H2.5V17ZM10.5 12H17.5V8H10.5V12ZM2.5 12H9.5V8H2.5V12ZM3 2.5C2.72386 2.5 2.5 2.72386 2.5 3V6.5H17.5V3C17.5 2.72386 17.2761 2.5 17 2.5H3Z" fill="white"/>
</svg>
