<svg width="16" height="16" viewBox="0 0 16 16" fill="none" xmlns="http://www.w3.org/2000/svg">
<path fill-rule="evenodd" clip-rule="evenodd" d="M3.5 1.75C3.105 1.75 2.75 2.0501 2.75 2.46154C2.75 2.87297 3.105 3.17308 3.5 3.17308H4.75V12.8269H3.5C3.105 12.8269 2.75 13.127 2.75 13.5385C2.75 13.9499 3.105 14.25 3.5 14.25H9.5C11.5519 14.25 13.25 12.7101 13.25 10.7692C13.25 9.63406 12.6659 8.63268 11.7724 8C12.6659 7.36732 13.25 6.36594 13.25 5.23077C13.25 3.28993 11.5519 1.75 9.5 1.75H3.5ZM6.25 7.28846V3.17308H9.5C10.7619 3.17308 11.75 4.1128 11.75 5.23077C11.75 6.34874 10.7619 7.28846 9.5 7.28846H6.25ZM6.25 12.8269V8.71154H9.5C10.7619 8.71154 11.75 9.65126 11.75 10.7692C11.75 11.8872 10.7619 12.8269 9.5 12.8269H6.25Z" fill="#AAAAAA"/>
</svg>
