<svg width="16" height="16" viewBox="0 0 16 16" fill="none" xmlns="http://www.w3.org/2000/svg">
<path d="M2.5 5C3.32843 5 4 4.32843 4 3.5C4 2.67157 3.32843 2 2.5 2C1.67157 2 1 2.67157 1 3.5C1 4.32843 1.67157 5 2.5 5Z" fill="#AAAAAA"/>
<path d="M15 3.5C15 3.22386 14.7761 3 14.5 3H6.5C6.22386 3 6 3.22386 6 3.5C6 3.77614 6.22386 4 6.5 4H14.5C14.7761 4 15 3.77614 15 3.5Z" fill="#AAAAAA"/>
<path d="M15 8.5C15 8.22386 14.7761 8 14.5 8H6.5C6.22386 8 6 8.22386 6 8.5C6 8.77614 6.22386 9 6.5 9H14.5C14.7761 9 15 8.77614 15 8.5Z" fill="#AAAAAA"/>
<path d="M6 13.5C6 13.2239 6.22386 13 6.5 13H14.5C14.7761 13 15 13.2239 15 13.5C15 13.7761 14.7761 14 14.5 14H6.5C6.22386 14 6 13.7761 6 13.5Z" fill="#AAAAAA"/>
<path d="M4 8.5C4 9.32843 3.32843 10 2.5 10C1.67157 10 1 9.32843 1 8.5C1 7.67157 1.67157 7 2.5 7C3.32843 7 4 7.67157 4 8.5Z" fill="#AAAAAA"/>
<path d="M2.5 15C3.32843 15 4 14.3284 4 13.5C4 12.6716 3.32843 12 2.5 12C1.67157 12 1 12.6716 1 13.5C1 14.3284 1.67157 15 2.5 15Z" fill="#AAAAAA"/>
</svg>
