<svg width="16" height="16" viewBox="0 0 16 16" fill="none" xmlns="http://www.w3.org/2000/svg">
<path d="M5.525 7.125C6.22916 7.125 6.8 6.53737 6.8 5.8125C6.8 5.08763 6.22916 4.5 5.525 4.5C4.82084 4.5 4.25 5.08763 4.25 5.8125C4.25 6.53737 4.82084 7.125 5.525 7.125Z" fill="#AAAAAA"/>
<path fill-rule="evenodd" clip-rule="evenodd" d="M2.55 1C1.14167 1 0 2.17525 0 3.625V12.375C0 13.8247 1.14167 15 2.55 15H13.45C14.8583 15 16 13.8247 16 12.375V3.625C16 2.17525 14.8583 1 13.45 1H2.55ZM13.45 2.3125H2.55C1.84584 2.3125 1.275 2.90013 1.275 3.625V11L2.86547 9.12886C3.37344 8.53125 4.27656 8.53125 4.78454 9.12887L6.12512 10.706C6.47574 11.1185 7.10423 11.1014 7.43318 10.6704L10.4724 6.68851C10.9829 6.0197 11.9671 6.0197 12.4776 6.68851L14.725 9.94318V3.625C14.725 2.90013 14.1542 2.3125 13.45 2.3125Z" fill="#AAAAAA"/>
</svg>
