<svg width="16" height="16" viewBox="0 0 16 16" fill="none" xmlns="http://www.w3.org/2000/svg">
<g clip-path="url(#clip0_2204_10)">
<path d="M8.72727 4C8.72727 4.60249 8.23886 5.09091 7.63636 5.09091C7.03387 5.09091 6.54545 4.60249 6.54545 4C6.54545 3.39751 7.03387 2.90909 7.63636 2.90909C8.23886 2.90909 8.72727 3.39751 8.72727 4Z" fill="#AAAAAA"/>
<path d="M8.36364 5.81818C8.56447 5.81818 8.72727 5.98099 8.72727 6.18182V10.9091H9.45455C9.85621 10.9091 10.1818 11.2347 10.1818 11.6364C10.1818 12.038 9.85621 12.3636 9.45455 12.3636H6.54545C6.14379 12.3636 5.81818 12.038 5.81818 11.6364C5.81818 11.2347 6.14379 10.9091 6.54545 10.9091H7.27273V7.27273H6.54545C6.14379 7.27273 5.81818 6.94712 5.81818 6.54545C5.81818 6.14379 6.14379 5.81818 6.54545 5.81818H8.36364Z" fill="#AAAAAA"/>
<path fill-rule="evenodd" clip-rule="evenodd" d="M16 8C16 12.4183 12.4183 16 8 16C3.58172 16 0 12.4183 0 8C0 3.58172 3.58172 0 8 0C12.4183 0 16 3.58172 16 8ZM14.5455 8C14.5455 11.615 11.615 14.5455 8 14.5455C4.38505 14.5455 1.45455 11.615 1.45455 8C1.45455 4.38505 4.38505 1.45455 8 1.45455C11.615 1.45455 14.5455 4.38505 14.5455 8Z" fill="#AAAAAA"/>
</g>
<defs>
<clipPath id="clip0_2204_10">
<rect width="16" height="16" fill="white"/>
</clipPath>
</defs>
</svg>
