<svg width="16" height="16" viewBox="0 0 16 16" fill="none" xmlns="http://www.w3.org/2000/svg">
<path d="M5.49451 1.75C5.08333 1.75 4.75 2.08333 4.75 2.49451C4.75 2.90568 5.08333 3.23901 5.49451 3.23901H8.1642L5.31388 12.761H2.49451C2.08333 12.761 1.75 13.0943 1.75 13.5055C1.75 13.9167 2.08333 14.25 2.49451 14.25H9.50549C9.91667 14.25 10.25 13.9167 10.25 13.5055C10.25 13.0943 9.91667 12.761 9.50549 12.761H6.8358L9.68613 3.23901H12.5055C12.9167 3.23901 13.25 2.90568 13.25 2.49451C13.25 2.08333 12.9167 1.75 12.5055 1.75H5.49451Z" fill="#AAAAAA"/>
</svg>
