<svg width="16" height="16" viewBox="0 0 16 16" fill="none" xmlns="http://www.w3.org/2000/svg">
<g clip-path="url(#clip0_2204_17)">
<path d="M13.4439 8.66112C13.1846 8.92045 12.742 8.91355 12.4551 8.62663C12.1682 8.33972 12.1613 7.89713 12.4206 7.6378L13.3404 6.71803C14.4018 5.65662 14.3418 3.89095 13.2254 2.77457C12.1091 1.6582 10.3434 1.59819 9.28197 2.6596L7.07451 4.86706C6.01311 5.92847 6.07311 7.69414 7.18949 8.81051C7.42374 9.04477 7.64112 9.18718 7.86489 9.26603C8.03772 9.32692 8.18423 9.45983 8.25517 9.60356C8.32477 9.74459 8.31669 9.87934 8.21609 9.97994L7.97054 10.2255C7.80197 10.3941 7.54763 10.459 7.30181 10.3898C7.09711 10.3322 6.93612 10.2795 6.7743 10.1909C6.61283 10.1024 6.44579 9.97549 6.23515 9.76485C4.54495 8.07465 4.47112 5.42381 6.05119 3.84374L8.25865 1.63628C9.83872 0.0562073 12.4896 0.130034 14.1798 1.82023C15.87 3.51043 15.9438 6.16128 14.3637 7.74135L13.4439 8.66112Z" fill="#AAAAAA"/>
<path d="M2.55605 7.33888C2.81538 7.07954 3.25797 7.08645 3.54488 7.37337C3.8318 7.66028 3.83871 8.10287 3.57937 8.3622L2.6596 9.28197C1.59819 10.3434 1.6582 12.1091 2.77457 13.2254C3.89095 14.3418 5.65662 14.4018 6.71803 13.3404L8.92548 11.1329C9.98689 10.0715 9.92689 8.30586 8.81051 7.18949C8.57626 6.95523 8.35887 6.81282 8.1351 6.73397C7.96228 6.67308 7.81576 6.54017 7.74483 6.39644C7.67522 6.25541 7.68331 6.12066 7.7839 6.02006L8.02946 5.7745C8.19803 5.60594 8.45236 5.54102 8.69818 5.6102C8.90289 5.6678 9.06388 5.72049 9.2257 5.80912C9.38717 5.89756 9.55421 6.02451 9.76485 6.23515C11.4551 7.92535 11.5289 10.5762 9.94881 12.1563L7.74135 14.3637C6.16128 15.9438 3.51043 15.87 1.82023 14.1798C0.130034 12.4896 0.0562071 9.83872 1.63628 8.25865L2.55605 7.33888Z" fill="#AAAAAA"/>
</g>
<defs>
<clipPath id="clip0_2204_17">
<rect width="16" height="16" fill="white"/>
</clipPath>
</defs>
</svg>
