<svg width="16" height="16" viewBox="0 0 16 16" fill="none" xmlns="http://www.w3.org/2000/svg">
<g clip-path="url(#clip0_2463_1599)">
<path d="M2.86827 6.57455C3.14972 6.38833 3.53324 6.41836 3.78136 6.66635L3.87413 6.78061C4.03342 7.022 4.03352 7.3381 3.87413 7.57943L3.78136 7.69272L2.44835 9.02572C1.24775 10.2266 1.24763 12.1736 2.44835 13.3744L2.56261 13.4837C3.76952 14.5741 5.63264 14.5372 6.796 13.3744L8.12901 12.0413L8.24327 11.9476C8.5246 11.7622 8.90685 11.7939 9.1544 12.0413L9.24718 12.1546C9.40649 12.3957 9.40723 12.7112 9.24815 12.9525L9.15538 13.0658L7.81944 14.4017L7.65538 14.558L7.65343 14.5609C5.93248 16.1153 3.3048 16.1131 1.58604 14.555L1.42296 14.3997C-0.34404 12.6327 -0.343856 9.76746 1.42296 8.00033L2.75499 6.66733L2.86827 6.57455Z" fill="#AAAAAA"/>
<path d="M9.60167 4.99447C9.88301 4.80893 10.2651 4.83959 10.5128 5.08725L10.6056 5.20053C10.7649 5.44171 10.7647 5.75711 10.6056 5.99838L10.5128 6.11264L5.713 10.9124C5.46534 11.16 5.08319 11.1907 4.80186 11.0052L4.6876 10.9124C4.40454 10.6293 4.40457 10.1702 4.6876 9.88705L9.48741 5.08725L9.60167 4.99447Z" fill="#AAAAAA"/>
<path d="M7.81358 1.61752C9.58978 0.012634 12.3321 0.0661045 14.0441 1.77768L14.2052 1.94662C15.8098 3.72291 15.7558 6.46527 14.0441 8.17709L12.8321 9.38998C12.5844 9.63735 12.2014 9.6685 11.92 9.48276L11.8067 9.38998C11.5237 9.10691 11.5241 8.64765 11.8067 8.36459L13.0187 7.1517C14.182 5.98829 14.2188 4.12441 13.128 2.91733L13.0187 2.80307C11.8554 1.64021 9.99226 1.6035 8.78526 2.69369L8.671 2.80307L7.45714 4.01498C7.20948 4.26188 6.8272 4.29421 6.546 4.10873L6.43272 4.01498C6.14974 3.7319 6.15009 3.27363 6.43272 2.99057L7.64464 1.77768L7.81358 1.61752Z" fill="#AAAAAA"/>
</g>
<defs>
<clipPath id="clip0_2463_1599">
<rect width="16" height="16" fill="white"/>
</clipPath>
</defs>
</svg>
