<svg width="16" height="16" viewBox="0 0 16 16" fill="none" xmlns="http://www.w3.org/2000/svg">
<path fill-rule="evenodd" clip-rule="evenodd" d="M5.01409 15.0002C5.99408 15.3334 7.11699 15.5 8.38281 15.5C8.85647 15.5 9.33626 15.4647 9.82217 15.3942C10.3122 15.3236 10.7654 15.2334 11.1819 15.1237C11.3329 15.0843 11.4731 15.0446 11.6025 15.0047C11.9466 14.8986 12.1101 14.5411 12.0001 14.2106L11.9901 14.1805C11.8663 13.8088 11.4447 13.6047 11.0539 13.7116L10.9859 13.7301C10.6429 13.8281 10.2509 13.9143 9.80992 13.9888C9.36893 14.0672 8.91976 14.1064 8.46243 14.1064C7.43344 14.1064 6.52491 13.9712 5.73683 13.7007C4.94875 13.4341 4.28726 13.0421 3.75235 12.5247C3.21744 12.0073 2.81319 11.3722 2.53961 10.6196C2.26603 9.863 2.12924 8.99667 2.12924 8.02058C2.12924 7.08369 2.26194 6.23893 2.52736 5.48628C2.79686 4.72971 3.19089 4.08095 3.70947 3.53998C4.23214 2.99902 4.87321 2.58546 5.63271 2.29929C6.3922 2.00921 7.2599 1.86417 8.23581 1.86417C8.95447 1.86417 9.60984 1.94845 10.2019 2.11701C10.7981 2.28557 11.3289 2.5247 11.7944 2.83438C12.2599 3.14406 12.6519 3.5145 12.9704 3.94571C13.293 4.37299 13.5359 4.85123 13.6993 5.38044C13.8667 5.90572 13.9504 6.46629 13.9504 7.06213C13.9504 7.91278 13.9055 8.61054 13.8156 9.15543C13.7299 9.70031 13.5808 10.1041 13.3685 10.3667C13.1603 10.6294 12.8704 10.7607 12.4988 10.7607C12.1844 10.7607 11.9414 10.6529 11.7699 10.4373C11.6025 10.2217 11.5188 9.95904 11.5188 9.64935V4.8826C11.5188 4.50156 11.197 4.19267 10.8001 4.19267H10.698C10.3192 4.19267 10.012 4.48752 10.012 4.85124H9.93242C9.87117 4.67875 9.72009 4.51999 9.47918 4.37495C9.24235 4.22991 8.94426 4.12211 8.58493 4.05155C8.2256 3.98099 7.83156 3.96923 7.40282 4.01627C6.96182 4.06723 6.54328 4.19071 6.1472 4.38671C5.75112 4.58271 5.39996 4.84927 5.09371 5.1864C4.79155 5.5196 4.55268 5.91748 4.37709 6.38005C4.20151 6.83869 4.11372 7.3581 4.11372 7.93826C4.11372 8.54194 4.1913 9.09075 4.34647 9.58467C4.50163 10.0786 4.72417 10.5059 5.01409 10.8665C5.30809 11.2272 5.66129 11.5094 6.0737 11.7133C6.48612 11.9171 6.94957 12.0288 7.46407 12.0484C7.92956 12.068 8.33789 12.021 8.68906 11.9073C9.0443 11.7897 9.33626 11.6329 9.56492 11.4369C9.79359 11.237 9.95692 11.0214 10.0549 10.7901H10.1284C10.1774 11.1037 10.3163 11.3624 10.5449 11.5662C10.7736 11.7662 11.0512 11.9112 11.3779 12.0014C11.7046 12.0915 12.0414 12.1307 12.3885 12.119C13.0419 12.1072 13.5727 11.9602 13.981 11.678C14.3934 11.3918 14.7078 11.0116 14.9243 10.5372C15.1448 10.059 15.2958 9.52587 15.3775 8.93787C15.4592 8.34594 15.5 7.7403 15.5 7.12093C15.5 6.23501 15.3448 5.39416 15.0345 4.59839C14.7242 3.80263 14.2628 3.09702 13.6503 2.48158C13.0419 1.86613 12.2905 1.38201 11.3963 1.0292C10.502 0.676401 9.46897 0.5 8.29706 0.5C7.07207 0.5 5.97775 0.672481 5.01409 1.01744C4.05043 1.36241 3.23173 1.86221 2.55798 2.51686C1.88832 3.16758 1.37791 3.95551 1.02675 4.88064C0.675582 5.80576 0.5 6.84849 0.5 8.00882C0.5 9.20051 0.67354 10.2609 1.02062 11.1899C1.3677 12.119 1.87607 12.903 2.54573 13.5419C3.21539 14.1848 4.03818 14.6709 5.01409 15.0002ZM9.09943 10.302C8.77685 10.5059 8.35014 10.6078 7.81931 10.6078C7.2844 10.6078 6.85974 10.4784 6.54532 10.2197C6.23499 9.961 6.01041 9.62387 5.87158 9.20835C5.73683 8.78891 5.66742 8.34202 5.66333 7.8677C5.66742 7.4169 5.75317 7.00725 5.92058 6.63877C6.09208 6.27029 6.33912 5.97824 6.6617 5.76264C6.98836 5.54704 7.3824 5.43924 7.84381 5.43924C8.34606 5.43924 8.75643 5.51764 9.07493 5.67444C9.39751 5.82732 9.63434 6.08213 9.78542 6.43885C9.94059 6.79165 10.0202 7.26597 10.0243 7.86182C10.0243 8.47334 9.9508 8.98295 9.8038 9.39063C9.66088 9.79439 9.42609 10.0982 9.09943 10.302Z" fill="#AAAAAA"/>
</svg>
