<svg width="16" height="16" viewBox="0 0 16 16" fill="none" xmlns="http://www.w3.org/2000/svg">
<path d="M5.85441 12.8225C5.62528 13.0592 5.25379 13.0592 5.02465 12.8225L0.614566 8.28566C0.461811 8.12789 0.461812 7.8721 0.614566 7.71434L5.02465 3.17749C5.25379 2.94084 5.62528 2.94084 5.85441 3.17749C6.08355 3.41414 6.08355 3.79783 5.85441 4.03448L1.9975 8L5.85442 11.9655C6.08355 12.2022 6.08355 12.5859 5.85441 12.8225Z" fill="#AAAAAA"/>
<path d="M10.1459 12.8225C10.375 13.0592 10.7465 13.0592 10.9756 12.8225L15.3857 8.28566C15.5385 8.12789 15.5385 7.8721 15.3857 7.71434L10.9756 3.17749C10.7465 2.94084 10.375 2.94084 10.1459 3.17749C9.91674 3.41414 9.91674 3.79783 10.1459 4.03448L14.0028 8L10.1459 11.9655C9.91673 12.2022 9.91674 12.5859 10.1459 12.8225Z" fill="#AAAAAA"/>
</svg>
