<svg width="16" height="16" viewBox="0 0 16 16" fill="none" xmlns="http://www.w3.org/2000/svg">
<path d="M3 1V4H4V5H1V4H2V2H1V1H3Z" fill="#AAAAAA"/>
<path d="M6 3.5C6 3.22386 6.22386 3 6.5 3H14.5C14.7761 3 15 3.22386 15 3.5C15 3.77614 14.7761 4 14.5 4H6.5C6.22386 4 6 3.77614 6 3.5Z" fill="#AAAAAA"/>
<path d="M6 8.5C6 8.22386 6.22386 8 6.5 8H14.5C14.7761 8 15 8.22386 15 8.5C15 8.77614 14.7761 9 14.5 9H6.5C6.22386 9 6 8.77614 6 8.5Z" fill="#AAAAAA"/>
<path d="M6.5 13C6.22386 13 6 13.2239 6 13.5C6 13.7761 6.22386 14 6.5 14H14.5C14.7761 14 15 13.7761 15 13.5C15 13.2239 14.7761 13 14.5 13H6.5Z" fill="#AAAAAA"/>
<path d="M4 6H1V7H2.5L1 10H4V9H2.5L4 6Z" fill="#AAAAAA"/>
<path d="M4 11V15H1V14H3V13.5H2V12.5H3V12H1V11H4Z" fill="#AAAAAA"/>
</svg>
