<svg width="16" height="16" viewBox="0 0 16 16" fill="none" xmlns="http://www.w3.org/2000/svg">
<path d="M6.55172 1.75C4.78905 1.75 3.40517 3.33487 3.40517 5.23077C3.40517 5.80198 3.52965 6.34236 3.75121 6.81956L3.8184 6.96429H5.46823L5.16662 6.56387C4.8974 6.20647 4.73276 5.74186 4.73276 5.23077C4.73276 4.06807 5.57221 3.17308 6.55172 3.17308H11.5172C11.9088 3.17308 12.181 2.82814 12.181 2.46154C12.181 2.09494 11.9088 1.75 11.5172 1.75H6.55172Z" fill="#AAAAAA"/>
<path d="M2.41379 7.75C2.03899 7.75 1.75 8.06215 1.75 8.42857C1.75 8.79499 2.03899 9.10714 2.41379 9.10714H10.9994L11.2472 9.43613C11.5164 9.79353 11.681 10.2581 11.681 10.7692C11.681 11.9319 10.8416 12.8269 9.86207 12.8269H4.89655C4.50497 12.8269 4.23276 13.1719 4.23276 13.5385C4.23276 13.9051 4.50497 14.25 4.89655 14.25H9.86207C11.6247 14.25 13.0086 12.6651 13.0086 10.7692C13.0086 10.198 12.8841 9.65764 12.6626 9.18044L12.6286 9.10714H13.5862C13.961 9.10714 14.25 8.79499 14.25 8.42857C14.25 8.06215 13.961 7.75 13.5862 7.75H2.41379Z" fill="#AAAAAA"/>
</svg>
