<svg width="16" height="16" viewBox="0 0 16 16" fill="none" xmlns="http://www.w3.org/2000/svg">
<path d="M2.75 1.75C2.75 1.33579 3.08579 1 3.5 1C3.91421 1 4.25 1.33579 4.25 1.75V6.25C4.25 7.59807 4.55301 8.7905 5.16698 9.6389C5.7732 10.4766 6.69672 11 8 11C9.30328 11 10.2268 10.4766 10.833 9.6389C11.447 8.7905 11.75 7.59807 11.75 6.25V1.75C11.75 1.33579 12.0858 1 12.5 1C12.9142 1 13.25 1.33579 13.25 1.75V6.25C13.25 7.94558 12.8189 9.50414 11.9408 10.645C11.0566 11.7937 9.73274 12.5 8 12.5C6.26726 12.5 4.94339 11.7937 4.05925 10.645C3.18106 9.50414 2.75 7.94558 2.75 6.25V1.75Z" fill="#AAAAAA"/>
<path d="M1.75 14.75C1.75 14.3358 2.08579 14 2.5 14H13.5C13.9142 14 14.25 14.3358 14.25 14.75C14.25 15.1642 13.9142 15.5 13.5 15.5H2.5C2.08579 15.5 1.75 15.1642 1.75 14.75Z" fill="#AAAAAA"/>
</svg>
