<svg width="10" height="10" viewBox="0 0 10 10" fill="none" xmlns="http://www.w3.org/2000/svg">
<path d="M2.89076 5.55901C2.89076 6.11801 3.03221 6.56832 3.31513 6.90994C3.60084 7.25155 3.98319 7.42236 4.46218 7.42236C4.70028 7.42236 4.92577 7.34627 5.13866 7.1941C5.35154 7.04193 5.52521 6.83851 5.65966 6.58385C5.76611 6.8354 5.93978 7.03882 6.18067 7.1941C6.42157 7.34627 6.70308 7.42236 7.02521 7.42236C7.71989 7.42236 8.30532 7.14286 8.78151 6.58385C9.2605 6.02484 9.5 5.29503 9.5 4.39441C9.5 3.30745 9.10084 2.38665 8.30252 1.63199C7.5042 0.877329 6.45938 0.5 5.16807 0.5C3.90476 0.5 2.81092 0.970497 1.88655 1.91149C0.962185 2.85248 0.5 3.97516 0.5 5.2795C0.5 6.58385 0.922969 7.61335 1.76891 8.36801C2.61485 9.12267 3.61625 9.5 4.77311 9.5C5.13725 9.5 5.44258 9.46429 5.68908 9.39286C5.93557 9.32143 6.15126 9.21739 6.33613 9.08075V8.13043C6.16527 8.24224 5.95238 8.34006 5.69748 8.42391C5.44538 8.50776 5.13725 8.54969 4.77311 8.54969C3.91317 8.54969 3.19748 8.26708 2.62605 7.70186C2.05462 7.13665 1.76891 6.33075 1.76891 5.28416C1.76891 4.22516 2.09384 3.32143 2.7437 2.57298C3.39636 1.82453 4.20448 1.45031 5.16807 1.45031C6.14286 1.45031 6.89916 1.74689 7.43698 2.34006C7.97479 2.93012 8.2437 3.61646 8.2437 4.39907C8.2437 5.06366 8.13585 5.60093 7.92017 6.01087C7.70728 6.4177 7.42997 6.62112 7.08824 6.62112C6.90616 6.62112 6.76891 6.56056 6.67647 6.43944C6.58683 6.31522 6.56583 6.09938 6.61345 5.79193L7.07983 3.01553H6.29832C6.16947 2.89441 6.007 2.78261 5.81092 2.68012C5.61765 2.57453 5.40056 2.52174 5.15966 2.52174C4.56863 2.52174 4.04202 2.80901 3.57983 3.38354C3.12045 3.95497 2.89076 4.68012 2.89076 5.55901ZM4.05042 5.55901C4.05042 4.93478 4.16106 4.41615 4.38235 4.00311C4.60364 3.59006 4.88375 3.38354 5.22269 3.38354C5.33193 3.38354 5.43978 3.40062 5.54622 3.43478C5.65546 3.46584 5.7507 3.51398 5.83193 3.57919L5.53361 5.47981C5.46919 5.86801 5.35714 6.13975 5.19748 6.29503C5.03782 6.44721 4.85994 6.52329 4.66387 6.52329C4.46499 6.52329 4.31233 6.44255 4.20588 6.28106C4.10224 6.11646 4.05042 5.87578 4.05042 5.55901Z" fill="#333333"/>
</svg>
