<svg width="22" height="22" viewBox="0 0 22 22" fill="none" xmlns="http://www.w3.org/2000/svg">
<path d="M14.6664 2.00003C14.6664 3.10458 15.6044 4.00002 16.7617 4.00002C17.9189 4.00002 18.8569 3.10458 18.8569 2.00003C18.8569 0.895444 17.9189 0 16.7617 0C15.6044 0 14.6664 0.895444 14.6664 2.00003Z" fill="#AAAAAA"/>
<path d="M15.7143 11.0052V16H19.381C19.9596 16 20.4286 15.5523 20.4286 15.0001V13.5001C20.4286 13.2239 20.6631 13.0001 20.9524 13.0001C21.5311 13.0001 22 12.5523 22 12.0001V8.00019C21.9999 6.3434 19.6548 5.00017 16.7619 5.00017C14.6107 5.00017 12.7622 5.7429 11.9559 6.80504C12.0269 6.83244 12.0972 6.86049 12.1668 6.88917C12.2286 6.91459 12.2896 6.9405 12.3501 6.96693C12.5896 7.07154 12.8194 7.18385 13.0386 7.30345C14.5213 8.11219 15.7144 9.38181 15.7144 11.0001L15.7143 11.0052Z" fill="#AAAAAA"/>
<path d="M7.33321 6.00011C9.06897 6.00011 10.4761 4.65694 10.4761 3.00008C10.4761 1.34323 9.06897 6.1035e-05 7.33321 6.1035e-05C5.59745 6.1035e-05 4.19035 1.34323 4.19035 3.00008C4.19035 4.65694 5.59745 6.00011 7.33321 6.00011Z" fill="#AAAAAA"/>
<path d="M14.6668 11.0001L14.6667 11.024V17.1759C14.6667 17.9323 14.0765 18.5704 13.2901 18.6643L13.0303 18.6953C12.7681 18.7265 12.5714 18.9393 12.5714 19.1914V21C12.5714 21.5523 12.1024 22 11.5238 22H3.14286C2.56431 22 2.09524 21.5523 2.09524 21V19.1914C2.09524 18.9393 1.89855 18.7265 1.63639 18.6953L1.37654 18.6643C0.590181 18.5704 0 17.9323 0 17.1759V11.0001C0.000127883 8.79102 3.28327 7.0001 7.33333 7.0001C11.3835 7.0001 14.6668 8.79096 14.6668 11.0001Z" fill="#AAAAAA"/>
</svg>
