<svg width="28" height="24" viewBox="0 0 28 24" fill="none" xmlns="http://www.w3.org/2000/svg">
<path d="M17.1848 17.7453C17.1848 18.4907 17.3756 19.0911 17.7573 19.5466C18.1427 20.0021 18.6633 20.2298 19.3191 20.2298C19.6267 20.2298 19.9194 20.1304 20.1973 19.9317C20.4752 19.7288 20.6994 19.4555 20.8698 19.1118C21.0032 19.4472 21.2256 19.7184 21.5368 19.9255C21.8518 20.1284 22.2186 20.2298 22.6373 20.2298C23.5822 20.2298 24.3789 19.8571 25.0273 19.1118C25.6758 18.3665 26 17.3934 26 16.1925C26 14.9917 25.2785 13.3383 24.3993 12.5093C23.3321 11.5031 21.937 11 20.214 11C18.5317 11 17.0755 11.6273 15.8453 12.882C14.6151 14.1366 14 15.6335 14 17.3727C14 19.1118 14.5632 20.4845 15.6897 21.4907C16.8198 22.4969 18.1593 23 19.7082 23C20.1677 23 20.5512 22.9524 20.8587 22.8571C21.0731 22.7915 21.2682 22.7053 21.4439 22.5984C21.5928 22.5079 21.6702 22.3394 21.6702 22.1652V21.9656C21.6702 21.5892 21.2264 21.3392 20.8698 21.4596L-nan -nanL20.8698 21.4596C20.5549 21.5714 20.1677 21.6273 19.7082 21.6273C18.604 21.6273 17.6869 21.2588 16.9569 20.5217C16.227 19.7888 15.862 18.7433 15.862 17.3851C15.862 15.9979 16.2788 14.8157 17.1126 13.8385C17.9463 12.8571 18.9801 12.3665 20.214 12.3665C21.4627 12.3665 22.4317 12.7516 23.1209 13.5217C23.8138 14.2878 24.1603 15.1822 24.1603 16.205C24.1603 17.0663 24.0324 17.7619 23.7767 18.2919C23.5211 18.8219 23.1894 19.087 22.7818 19.087C22.5706 19.087 22.4113 19.0104 22.3038 18.8571C22.2001 18.7039 22.1742 18.4369 22.226 18.0559L22.7231 14.9326C22.7714 14.629 22.5368 14.354 22.2293 14.354H21.6369C21.4738 14.1884 21.2682 14.0373 21.0199 13.9006C20.7754 13.764 20.4956 13.6957 20.1806 13.6957C19.3988 13.6957 18.704 14.0745 18.0963 14.8323C17.4887 15.5901 17.1848 16.5611 17.1848 17.7453ZM18.8578 17.7391C18.8578 16.94 18.9893 16.2733 19.2524 15.7391C19.5192 15.205 19.8546 14.9379 20.2585 14.9379C20.3918 14.9379 20.5252 14.9607 20.6586 15.0062C20.792 15.0476 20.9088 15.1097 21.0088 15.1925L20.6753 17.5901C20.5938 18.0994 20.453 18.4555 20.2529 18.6584C20.0528 18.8571 19.8305 18.9565 19.5859 18.9565C19.3488 18.9565 19.1672 18.8551 19.0412 18.6522C18.9189 18.4451 18.8578 18.1408 18.8578 17.7391Z" fill="white"/>
<path d="M10.3077 9.23077C12.8567 9.23077 14.9231 7.16439 14.9231 4.61539C14.9231 2.06638 12.8567 0 10.3077 0C7.75869 0 5.69231 2.06638 5.69231 4.61539C5.69231 7.16439 7.75869 9.23077 10.3077 9.23077Z" fill="#AAAAAA"/>
<path d="M5.69231 11.0769C3.6531 11.0769 2 12.73 2 14.7692C2 16.8084 3.6531 18.4615 5.69231 18.4615H12.1538C12.1538 18.4615 11.7658 15.9703 12.6154 13.8462C13.465 11.722 15 11.0769 15 11.0769H5.69231Z" fill="#AAAAAA"/>
</svg>
