<svg width="28" height="20" viewBox="0 0 28 20" fill="none" xmlns="http://www.w3.org/2000/svg">
<path fill-rule="evenodd" clip-rule="evenodd" d="M26.9311 11.3609C27.1043 11.138 26.931 10.8283 26.6332 10.8283H22.9513L23.8084 6.80612C23.9578 6.10574 22.976 5.70066 22.5068 6.26903L16.0752 14.0605C15.8921 14.2822 16.0641 14.6011 16.3668 14.6011H20.0224L19.1288 19.2052C18.9915 19.9123 19.9917 20.2997 20.4455 19.7152L26.9311 11.3609Z" fill="#FF9F2F"/>
<path d="M3.76471 19.4501C3.76471 19.939 4.2716 20.1839 4.56805 19.8382L9.41177 14.1896H14.0014C14.0158 13.7036 14.1836 13.2103 14.5328 12.7873L20 6.16413V4.3903C20 1.9656 18.3145 0 16.2353 0H3.76471C1.68552 0 0 1.9656 0 4.3903V9.79927C0 12.224 1.68552 14.1896 3.76471 14.1896L3.76471 19.4501Z" fill="#AAAAAA"/>
</svg>
