<svg width="28" height="21" viewBox="0 0 28 21" fill="none" xmlns="http://www.w3.org/2000/svg">
<path d="M7.99984 4.90914C9.42 4.90914 10.5712 3.81018 10.5712 2.45457C10.5712 1.09896 9.42 0 7.99984 0C6.57969 0 5.42844 1.09896 5.42844 2.45457C5.42844 3.81018 6.57969 4.90914 7.99984 4.90914Z" fill="#AAAAAA"/>
<path d="M14 9.00008L13.9999 9.0196V14.053C13.9999 14.6719 13.517 15.194 12.8737 15.2707L12.661 15.2961C12.4465 15.3217 12.2856 15.4957 12.2856 15.7021V17.1818C12.2856 17.6337 11.9018 18 11.4285 18H4.57141C4.09806 18 3.71427 17.6337 3.71427 17.1818V15.7021C3.71427 15.4957 3.55335 15.3217 3.33886 15.2961L3.12625 15.2707C2.48287 15.194 2 14.6719 2 14.053V9.00008C2.0001 7.19262 4.68629 5.72732 7.99995 5.72732C11.3137 5.72732 14 7.19257 14 9.00008Z" fill="#AAAAAA"/>
<path fill-rule="evenodd" clip-rule="evenodd" d="M26.2417 6.16217C26.2881 6.09391 26.2381 6.00188 26.1555 6.00331H20.2257C20.046 6.00644 19.8813 6.20662 19.7919 6.36204L16.0137 12.9306C15.9747 12.9984 16.0238 13.083 16.1022 13.083H18.9231C18.9924 13.083 19.0416 13.1505 19.0201 13.2163L16.8519 19.8695C16.8192 19.9698 16.9424 20.0474 17.0192 19.9749L26.9679 10.5816C27.0349 10.5184 26.99 10.4059 26.8977 10.4059H23.5511C23.4693 10.4059 23.4207 10.3146 23.4666 10.2471L26.2417 6.16217Z" fill="#FFA02F"/>
</svg>
