<svg width="28" height="24" viewBox="0 0 28 24" fill="none" xmlns="http://www.w3.org/2000/svg">
<path d="M10.3077 9.23077C12.8567 9.23077 14.9231 7.16439 14.9231 4.61539C14.9231 2.06638 12.8567 0 10.3077 0C7.75869 0 5.69231 2.06638 5.69231 4.61539C5.69231 7.16439 7.75869 9.23077 10.3077 9.23077Z" fill="#AAAAAA"/>
<path d="M5.69231 11.0769C3.6531 11.0769 2 12.73 2 14.7692C2 16.8084 3.6531 18.4615 5.69231 18.4615H12.5627C12.145 17.6421 11.9021 16.7259 11.9021 15.7409C11.9021 13.8475 12.7404 12.26 14.042 11.0769H5.69231Z" fill="#AAAAAA"/>
<path fill-rule="evenodd" clip-rule="evenodd" d="M15.8151 23.2578C15.5221 23.4531 15.136 23.2194 15.1667 22.8655L15.4834 19.208C14.4051 18.2912 13.7482 17.0751 13.7482 15.7409C13.7482 12.887 16.7539 10.5734 20.4615 10.5734C24.1692 10.5734 27.1748 12.887 27.1748 15.7409C27.1748 18.5949 24.1692 20.9085 20.4615 20.9085C20.1116 20.9085 19.768 20.8879 19.4326 20.8482L15.8151 23.2578Z" fill="white"/>
</svg>
