<svg width="28" height="24" viewBox="0 0 28 24" fill="none" xmlns="http://www.w3.org/2000/svg">
<path fill-rule="evenodd" clip-rule="evenodd" d="M16.9122 22.5668C17.7615 22.8556 18.7347 23 19.8318 23C20.2423 23 20.6581 22.9694 21.0792 22.9083C21.5039 22.8471 21.8967 22.769 22.2577 22.6739C22.3885 22.6397 22.51 22.6053 22.6222 22.5707C22.9204 22.4788 23.0621 22.1689 22.9668 21.8825L22.9581 21.8564C22.8508 21.5343 22.4854 21.3574 22.1467 21.4501L22.0878 21.4661C21.7905 21.551 21.4508 21.6258 21.0686 21.6903C20.6864 21.7583 20.2971 21.7922 19.9008 21.7922C19.009 21.7922 18.2216 21.675 17.5386 21.4406C16.8556 21.2096 16.2823 20.8699 15.8187 20.4214C15.3551 19.973 15.0048 19.4226 14.7677 18.7703C14.5306 18.1146 14.412 17.3638 14.412 16.5178C14.412 15.7059 14.527 14.9737 14.757 14.3214C14.9906 13.6658 15.3321 13.1035 15.7815 12.6347C16.2345 12.1658 16.7901 11.8074 17.4483 11.5594C18.1066 11.308 18.8586 11.1823 19.7044 11.1823C20.3272 11.1823 20.8952 11.2553 21.4083 11.4014C21.925 11.5475 22.3851 11.7547 22.7885 12.0231C23.1919 12.2915 23.5316 12.6126 23.8077 12.9863C24.0872 13.3566 24.2978 13.7711 24.4394 14.2297C24.5845 14.685 24.657 15.1708 24.657 15.6872C24.657 16.4244 24.6181 17.0291 24.5402 17.5014C24.4659 17.9736 24.3367 18.3235 24.1527 18.5512C23.9722 18.7788 23.721 18.8926 23.3989 18.8926C23.1264 18.8926 22.9159 18.7992 22.7673 18.6123C22.6222 18.4255 22.5496 18.1978 22.5496 17.9294V13.7982C22.5496 13.468 22.2708 13.2003 21.9268 13.2003H21.8383C21.51 13.2003 21.2438 13.4559 21.2438 13.7711H21.1748C21.1217 13.6216 20.9907 13.484 20.782 13.3583C20.5767 13.2326 20.3184 13.1392 20.0069 13.078C19.6955 13.0169 19.354 13.0067 18.9824 13.0474C18.6002 13.0916 18.2375 13.1986 17.8942 13.3685C17.551 13.5384 17.2466 13.7694 16.9812 14.0615C16.7193 14.3503 16.5123 14.6952 16.3601 15.096C16.208 15.4935 16.1319 15.9437 16.1319 16.4465C16.1319 16.9697 16.1991 17.4453 16.3336 17.8734C16.4681 18.3015 16.661 18.6718 16.9122 18.9843C17.167 19.2969 17.4731 19.5415 17.8305 19.7182C18.188 19.8948 18.5896 19.9916 19.0355 20.0086C19.439 20.0256 19.7928 19.9848 20.0972 19.8863C20.4051 19.7844 20.6581 19.6485 20.8563 19.4786C21.0544 19.3054 21.196 19.1185 21.2809 18.9181H21.3446C21.3871 19.1899 21.5074 19.4141 21.7056 19.5907C21.9038 19.764 22.1444 19.8897 22.4275 19.9679C22.7106 20.046 23.0026 20.08 23.3034 20.0698C23.8696 20.0596 24.3297 19.9322 24.6835 19.6876C25.041 19.4396 25.3135 19.11 25.501 18.6989C25.6921 18.2845 25.8231 17.8224 25.8938 17.3128C25.9646 16.7998 26 16.2749 26 15.7381C26 14.9703 25.8655 14.2416 25.5966 13.5519C25.3276 12.8623 24.9277 12.2508 24.3969 11.7174C23.8696 11.184 23.2185 10.7644 22.4434 10.4586C21.6684 10.1529 20.7731 10 19.7575 10C18.6958 10 17.7474 10.1495 16.9122 10.4485C16.077 10.7474 15.3675 11.1806 14.7836 11.7479C14.2032 12.3119 13.7609 12.9948 13.4565 13.7966C13.1522 14.5983 13 15.502 13 16.5076C13 17.5404 13.1504 18.4594 13.4512 19.2646C13.752 20.0698 14.1926 20.7492 14.773 21.303C15.3533 21.8602 16.0664 22.2815 16.9122 22.5668ZM20.4528 18.4951C20.1733 18.6718 19.8035 18.7601 19.3434 18.7601C18.8798 18.7601 18.5118 18.648 18.2393 18.4238C17.9703 18.1995 17.7757 17.9074 17.6554 17.5472C17.5386 17.1837 17.4784 16.7964 17.4749 16.3853C17.4784 15.9946 17.5527 15.6396 17.6978 15.3203C17.8465 15.0009 18.0606 14.7478 18.3401 14.561C18.6232 14.3741 18.9647 14.2807 19.3646 14.2807C19.7999 14.2807 20.1556 14.3486 20.4316 14.4845C20.7112 14.617 20.9164 14.8378 21.0474 15.147C21.1818 15.4528 21.2509 15.8638 21.2544 16.3802C21.2544 16.9102 21.1907 17.3519 21.0633 17.7052C20.9394 18.0551 20.7359 18.3184 20.4528 18.4951Z" fill="white"/>
<path d="M14.9231 4.61539C14.9231 7.16439 12.8567 9.23077 10.3077 9.23077C7.75869 9.23077 5.69231 7.16439 5.69231 4.61539C5.69231 2.06638 7.75869 0 10.3077 0C12.8567 0 14.9231 2.06638 14.9231 4.61539Z" fill="#AAAAAA"/>
<path d="M2 14.7692C2 12.73 3.6531 11.0769 5.69231 11.0769H13.6186C12.3034 12.5025 11.5 14.4075 11.5 16.5C11.5 17.1768 11.584 17.8339 11.7422 18.4615H5.69231C3.6531 18.4615 2 16.8084 2 14.7692Z" fill="#AAAAAA"/>
</svg>
