<svg width="28" height="20" viewBox="0 0 28 20" fill="none" xmlns="http://www.w3.org/2000/svg">
<path fill-rule="evenodd" clip-rule="evenodd" d="M20.9636 8.13547L22.49 9.68131C22.7593 9.95403 22.7593 10.3953 22.49 10.6681C22.2196 10.9419 21.7804 10.9419 21.51 10.6681L18.3194 7.43672L21.51 4.20538C21.7804 3.93154 22.2196 3.93154 22.49 4.20538C22.7593 4.47809 22.7593 4.91941 22.49 5.19213L20.9636 6.73797H25.5057C26.8852 6.73797 28 7.86995 28 9.26203V15.6506C28 16.5387 27.2886 17.262 26.4069 17.262C26.0228 17.262 25.7149 16.9473 25.7149 16.5633C25.7149 16.1793 26.0228 15.8645 26.4069 15.8645C26.5205 15.8645 26.6161 15.7707 26.6161 15.6506V9.26203C26.6161 8.63793 26.1171 8.13547 25.5057 8.13547H20.9636ZM24.6806 16.5633L21.49 19.7946C21.2196 20.0685 20.7804 20.0685 20.51 19.7946C20.2407 19.5219 20.2407 19.0806 20.51 18.8079L22.0364 17.262H17.4943C16.1148 17.262 15 16.1301 15 14.738V8.34938C15 7.46134 15.7114 6.73797 16.5931 6.73797C16.9772 6.73797 17.2851 7.05273 17.2851 7.43672C17.2851 7.82071 16.9772 8.13547 16.5931 8.13547C16.4795 8.13547 16.3839 8.22932 16.3839 8.34938V14.738C16.3839 15.3621 16.8829 15.8645 17.4943 15.8645H22.0364L20.51 14.3187C20.2407 14.046 20.2407 13.6047 20.51 13.3319C20.7804 13.0581 21.2196 13.0581 21.49 13.3319L24.6806 16.5633Z" fill="#66E205"/>
<path d="M10.5712 2.45457C10.5712 3.81018 9.42 4.90914 7.99984 4.90914C6.57969 4.90914 5.42844 3.81018 5.42844 2.45457C5.42844 1.09896 6.57969 0 7.99984 0C9.42 0 10.5712 1.09896 10.5712 2.45457Z" fill="#AAAAAA"/>
<path d="M13.1491 7.31906C13.052 7.6466 13 7.99266 13 8.34938V14.738C13 14.9086 13.0095 15.0772 13.0279 15.2432C12.9777 15.2552 12.9262 15.2645 12.8737 15.2707L12.661 15.2961C12.4465 15.3217 12.2856 15.4957 12.2856 15.7021V17.1818C12.2856 17.6337 11.9018 18 11.4285 18H4.57141C4.09806 18 3.71427 17.6337 3.71427 17.1818V15.7021C3.71427 15.4957 3.55335 15.3217 3.33886 15.2961L3.12625 15.2707C2.48287 15.194 2 14.6719 2 14.053V9.00008C2.0001 7.19262 4.68629 5.72732 7.99995 5.72732C10.1869 5.72732 12.1005 6.3655 13.1491 7.31906Z" fill="#AAAAAA"/>
</svg>
