<svg width="28" height="24" viewBox="0 0 28 24" fill="none" xmlns="http://www.w3.org/2000/svg">
<path d="M10.3077 9.23077C12.8567 9.23077 14.9231 7.16439 14.9231 4.61539C14.9231 2.06638 12.8567 0 10.3077 0C7.75869 0 5.69231 2.06638 5.69231 4.61539C5.69231 7.16439 7.75869 9.23077 10.3077 9.23077Z" fill="#AAAAAA"/>
<path d="M5.69231 11.0769C3.6531 11.0769 2 12.73 2 14.7692C2 16.8084 3.6531 18.4615 5.69231 18.4615H13.4966C13.2623 18.1254 13.0222 17.735 12.8118 17.3012C12.4265 16.5073 12.0662 15.4147 12.1727 14.1708C12.2693 13.0429 12.7343 11.9821 13.5669 11.0769H5.69231Z" fill="#AAAAAA"/>
<path fill-rule="evenodd" clip-rule="evenodd" d="M16.0232 18.5943L16.0225 18.5936C16.014 18.5857 16.0023 18.5746 15.9877 18.5605C15.9585 18.5323 15.9176 18.4921 15.8674 18.4408C15.7671 18.3384 15.6292 18.191 15.4735 18.0067C15.1646 17.641 14.7737 17.1155 14.4727 16.4953C14.1731 15.8779 13.9437 15.1272 14.0122 14.3283C14.0823 13.5087 14.4606 12.7061 15.2575 12.0023C16.0412 11.3103 16.8288 11.0324 17.584 11.0826C18.3229 11.1318 18.9428 11.4893 19.4189 11.8932C19.8144 12.2288 20.1354 12.6171 20.3736 12.9506C20.6118 12.6171 20.9328 12.2288 21.3283 11.8932C21.8044 11.4893 22.4243 11.1318 23.1632 11.0826C23.9184 11.0324 24.7061 11.3103 25.4898 12.0023C26.256 12.6789 26.682 13.3956 26.8453 14.1165C27.0079 14.8346 26.8958 15.495 26.6911 16.0374C26.488 16.5756 26.1884 17.0132 25.9474 17.3112C25.8256 17.4618 25.7154 17.5809 25.634 17.6638C25.5933 17.7054 25.5595 17.7381 25.5348 17.7614C25.5251 17.7706 25.5167 17.7783 25.5099 17.7846L20.7049 22.7356C20.5236 22.9224 20.2237 22.9224 20.0424 22.7356L16.0232 18.5943Z" fill="#F800C1"/>
</svg>
