<svg width="28" height="20" viewBox="0 0 28 20" fill="none" xmlns="http://www.w3.org/2000/svg">
<path d="M10.5712 2.45457C10.5712 3.81018 9.42 4.90914 7.99984 4.90914C6.57969 4.90914 5.42844 3.81018 5.42844 2.45457C5.42844 1.09896 6.57969 0 7.99984 0C9.42 0 10.5712 1.09896 10.5712 2.45457Z" fill="#AAAAAA"/>
<path d="M13.1271 7.29921C12.4658 8.19096 12.0566 9.28154 12.0021 10.4596L12 10.5V10.7295L12 10.75C12.0026 11.2818 12.1048 11.7755 12.1647 12.0651C12.1727 12.1037 12.18 12.1387 12.1861 12.1697C12.3617 13.0532 12.7523 14.075 13.3528 15.1183C13.209 15.197 13.0471 15.25 12.8737 15.2707L12.661 15.2961C12.4465 15.3217 12.2856 15.4957 12.2856 15.7021V17.1818C12.2856 17.6337 11.9018 18 11.4285 18H4.57141C4.09806 18 3.71427 17.6337 3.71427 17.1818V15.7021C3.71427 15.4957 3.55335 15.3217 3.33886 15.2961L3.12625 15.2707C2.48287 15.194 2 14.6719 2 14.053V9.00008C2.0001 7.19262 4.68629 5.72732 7.99995 5.72732C10.1717 5.72732 12.0739 6.35665 13.1271 7.29921Z" fill="#AAAAAA"/>
<path d="M16.275 15.8087C18.725 18.2951 21 20 21 20C21 20 23.275 18.2951 25.725 15.8087C26.958 14.3489 27.6421 12.8376 27.8522 11.7799C27.93 11.4399 28 11.0942 28 10.7295C28 10.6927 27.9995 10.6561 27.9984 10.6196C28 10.5752 28 10.5519 28 10.5519C27.9087 8.5746 26.296 7 24.325 7C22.856 7 21.5882 8.08783 21 9.35207C20.4118 8.08783 19.144 7 17.675 7C15.704 7 14.0913 8.5746 14 10.5519C14 10.5519 14 10.5752 14.0016 10.6196C14.0005 10.6561 14 10.6927 14 10.7295C14 11.0942 14.0767 11.4221 14.1478 11.7799C14.3579 12.8376 15.042 14.3489 16.275 15.8087Z" fill="#BC1870"/>
</svg>
