<svg width="28" height="20" viewBox="0 0 28 20" fill="none" xmlns="http://www.w3.org/2000/svg">
<path d="M9.71429 13.2857L2.85714 20V13.0418C1.19258 12.4535 0 10.866 0 9V4.28571C0 1.91878 1.91878 0 4.28571 0H15.7143C17.9852 0 19.8436 1.76628 19.9906 4H17C14.2386 4 12 6.23858 12 9V13C12 13.0959 12.0027 13.1912 12.008 13.2857H9.71429Z" fill="#AAAAAA"/>
<path fill-rule="evenodd" clip-rule="evenodd" d="M26 20L21.2 16H17C15.3431 16 14 14.6569 14 13V9C14 7.34315 15.3431 6 17 6H25C26.6569 6 28 7.34315 28 9V13C28 14.3062 27.1652 15.4175 26 15.8293V20Z" fill="white"/>
</svg>
