<svg width="30" height="22" viewBox="0 0 30 22" fill="none" xmlns="http://www.w3.org/2000/svg">
<path fill-rule="evenodd" clip-rule="evenodd" d="M2.85714 20L9.71429 14.2857H15.7143C18.0812 14.2857 20 12.3669 20 10V4.28571C20 1.91878 18.0812 0 15.7143 0H4.28571C1.91878 0 0 1.91878 0 4.28571V10C0 11.866 1.19258 13.4535 2.85714 14.0418V20Z" fill="#AAAAAA"/>
<circle cx="22" cy="14" r="8" fill="#1E1E1E"/>
<path d="M19.1848 14.7453C19.1848 15.4907 19.3756 16.0911 19.7573 16.5466C20.1427 17.0021 20.6633 17.2298 21.3191 17.2298C21.6267 17.2298 21.9194 17.1304 22.1973 16.9317C22.4752 16.7288 22.6994 16.4555 22.8698 16.1118C23.0032 16.4472 23.2256 16.7184 23.5368 16.9255C23.8518 17.1284 24.2186 17.2298 24.6373 17.2298C25.5822 17.2298 26.3789 16.8571 27.0273 16.1118C27.6758 15.3665 28 14.3934 28 13.1925C28 11.9917 27.2785 10.3383 26.3993 9.50932C25.3321 8.50311 23.937 8 22.214 8C20.5317 8 19.0755 8.62733 17.8453 9.88199C16.6151 11.1366 16 12.6335 16 14.3727C16 16.1118 16.5632 17.4845 17.6897 18.4907C18.8198 19.4969 20.1593 20 21.7082 20C22.1677 20 22.5512 19.9524 22.8587 19.8571C23.0731 19.7915 23.2682 19.7053 23.4439 19.5984C23.5928 19.5079 23.6702 19.3394 23.6702 19.1652V18.9656C23.6702 18.5892 23.2264 18.3392 22.8698 18.4596C22.5549 18.5714 22.1677 18.6273 21.7082 18.6273C20.604 18.6273 19.6869 18.2588 18.9569 17.5217C18.227 16.7888 17.862 15.7433 17.862 14.3851C17.862 12.9979 18.2788 11.8157 19.1126 10.8385C19.9463 9.85714 20.9801 9.36646 22.214 9.36646C23.4627 9.36646 24.4317 9.75155 25.1209 10.5217C25.8138 11.2878 26.1603 12.1822 26.1603 13.205C26.1603 14.0663 26.0324 14.7619 25.7767 15.2919C25.5211 15.8219 25.1894 16.087 24.7818 16.087C24.5706 16.087 24.4113 16.0104 24.3038 15.8571C24.2001 15.7039 24.1742 15.4369 24.226 15.0559L24.7231 11.9326C24.7714 11.629 24.5368 11.354 24.2293 11.354H23.6369C23.4738 11.1884 23.2682 11.0373 23.0199 10.9006C22.7754 10.764 22.4956 10.6957 22.1806 10.6957C21.3988 10.6957 20.704 11.0745 20.0963 11.8323C19.4887 12.5901 19.1848 13.5611 19.1848 14.7453ZM20.8578 14.7391C20.8578 13.94 20.9893 13.2733 21.2524 12.7391C21.5192 12.205 21.8546 11.9379 22.2585 11.9379C22.3918 11.9379 22.5252 11.9607 22.6586 12.0062C22.792 12.0476 22.9088 12.1097 23.0088 12.1925L22.6753 14.5901C22.5938 15.0994 22.453 15.4555 22.2529 15.6584C22.0528 15.8571 21.8305 15.9565 21.5859 15.9565C21.3488 15.9565 21.1672 15.8551 21.0412 15.6522C20.9189 15.4451 20.8578 15.1408 20.8578 14.7391Z" fill="white"/>
</svg>
