<svg width="28" height="20" viewBox="0 0 28 20" fill="none" xmlns="http://www.w3.org/2000/svg">
<path d="M9.71429 13.2857L2.85714 20V13.0418C1.19258 12.4535 0 10.866 0 9V4.28571C0 1.91878 1.91878 0 4.28571 0H15.7143C17.6576 0 19.2988 1.29341 19.824 3.06633L17.8611 5.05438C17.4856 4.85299 17.055 4.73797 16.5931 4.73797C14.5822 4.73797 13 6.38149 13 8.34938V13.2857H9.71429Z" fill="#AAAAAA"/>
<path fill-rule="evenodd" clip-rule="evenodd" d="M20.9636 8.13547L22.49 9.68131C22.7593 9.95403 22.7593 10.3953 22.49 10.6681C22.2196 10.9419 21.7804 10.9419 21.51 10.6681L18.3194 7.43672L21.51 4.20538C21.7804 3.93154 22.2196 3.93154 22.49 4.20538C22.7593 4.47809 22.7593 4.91941 22.49 5.19213L20.9636 6.73797H25.5057C26.8852 6.73797 28 7.86995 28 9.26203V15.6506C28 16.5387 27.2886 17.262 26.4069 17.262C26.0228 17.262 25.7149 16.9473 25.7149 16.5633C25.7149 16.1793 26.0228 15.8645 26.4069 15.8645C26.5205 15.8645 26.6161 15.7707 26.6161 15.6506V9.26203C26.6161 8.63793 26.1171 8.13547 25.5057 8.13547H20.9636ZM24.6806 16.5633L21.49 19.7946C21.2196 20.0685 20.7804 20.0685 20.51 19.7946C20.2407 19.5219 20.2407 19.0806 20.51 18.8079L22.0364 17.262H17.4943C16.1148 17.262 15 16.1301 15 14.738V8.34938C15 7.46134 15.7114 6.73797 16.5931 6.73797C16.9772 6.73797 17.2851 7.05273 17.2851 7.43672C17.2851 7.82071 16.9772 8.13547 16.5931 8.13547C16.4795 8.13547 16.3839 8.22932 16.3839 8.34938V14.738C16.3839 15.3621 16.8829 15.8645 17.4943 15.8645H22.0364L20.51 14.3187C20.2407 14.046 20.2407 13.6047 20.51 13.3319C20.7804 13.0581 21.2196 13.0581 21.49 13.3319L24.6806 16.5633Z" fill="#66E205"/>
</svg>
