<svg width="28" height="20" viewBox="0 0 28 20" fill="none" xmlns="http://www.w3.org/2000/svg">
<path d="M10.5712 2.45457C10.5712 3.81018 9.42 4.90914 7.99984 4.90914C6.57969 4.90914 5.42844 3.81018 5.42844 2.45457C5.42844 1.09896 6.57969 0 7.99984 0C9.42 0 10.5712 1.09896 10.5712 2.45457Z" fill="#AAAAAA"/>
<path d="M12.4935 6.8313C12.1773 7.48732 12 8.22296 12 9V13C12 13.8363 12.2053 14.6246 12.5683 15.3173C12.4018 15.3748 12.2856 15.5268 12.2856 15.7021V17.1818C12.2856 17.6337 11.9018 18 11.4285 18H4.57141C4.09806 18 3.71427 17.6337 3.71427 17.1818V15.7021C3.71427 15.4957 3.55335 15.3217 3.33886 15.2961L3.12625 15.2707C2.48287 15.194 2 14.6719 2 14.053V9.00008C2.0001 7.19262 4.68629 5.72732 7.99995 5.72732C9.78851 5.72732 11.3943 6.15417 12.4935 6.8313Z" fill="#AAAAAA"/>
<path fill-rule="evenodd" clip-rule="evenodd" d="M26 20L21.2 16H17C15.3431 16 14 14.6569 14 13V9C14 7.34315 15.3431 6 17 6H25C26.6569 6 28 7.34315 28 9V13C28 14.3062 27.1652 15.4175 26 15.8293V20Z" fill="white"/>
</svg>
