<svg width="28" height="20" viewBox="0 0 28 20" fill="none" xmlns="http://www.w3.org/2000/svg">
<path d="M9.71429 13.2857L2.85714 20V13.0418C1.19258 12.4535 0 10.866 0 9V4.28571C0 1.91878 1.91878 0 4.28571 0H15.7143C18.0812 0 20 1.91878 20 4.28571V5.55972C19.3103 5.21128 18.5293 5 17.675 5C14.6124 5 12.1495 7.43498 12.0028 10.4449H12V10.7295C12 11.2691 12.104 11.7718 12.1647 12.0651C12.1727 12.1037 12.18 12.1387 12.1861 12.1697C12.2562 12.5222 12.3604 12.8966 12.4986 13.2857H9.71429Z" fill="#AAAAAA"/>
<path d="M16.275 15.8087C18.725 18.2951 21 20 21 20C21 20 23.275 18.2951 25.725 15.8087C26.958 14.3489 27.6421 12.8376 27.8522 11.7799C27.93 11.4399 28 11.0942 28 10.7295C28 10.6927 27.9995 10.6561 27.9984 10.6196C28 10.5752 28 10.5519 28 10.5519C27.9087 8.5746 26.296 7 24.325 7C22.856 7 21.5882 8.08783 21 9.35207C20.4118 8.08783 19.144 7 17.675 7C15.704 7 14.0913 8.5746 14 10.5519C14 10.5519 14 10.5752 14.0016 10.6196C14.0005 10.6561 14 10.6927 14 10.7295C14 11.0942 14.0767 11.4221 14.1478 11.7799C14.3579 12.8376 15.042 14.3489 16.275 15.8087Z" fill="#BC1870"/>
</svg>
