<svg width="28" height="20" viewBox="0 0 28 20" fill="none" xmlns="http://www.w3.org/2000/svg">
<path d="M7.99984 4.90914C9.42 4.90914 10.5712 3.81018 10.5712 2.45457C10.5712 1.09896 9.42 0 7.99984 0C6.57969 0 5.42844 1.09896 5.42844 2.45457C5.42844 3.81018 6.57969 4.90914 7.99984 4.90914Z" fill="#AAAAAA"/>
<path d="M14 9.00008L13.9999 9.0196V14.053C13.9999 14.6719 13.517 15.194 12.8737 15.2707L12.661 15.2961C12.4465 15.3217 12.2856 15.4957 12.2856 15.7021V17.1818C12.2856 17.6337 11.9018 18 11.4285 18H4.57141C4.09806 18 3.71427 17.6337 3.71427 17.1818V15.7021C3.71427 15.4957 3.55335 15.3217 3.33886 15.2961L3.12625 15.2707C2.48287 15.194 2 14.6719 2 14.053V9.00008C2.0001 7.19262 4.68629 5.72732 7.99995 5.72732C11.3137 5.72732 14 7.19257 14 9.00008Z" fill="#AAAAAA"/>
<path fill-rule="evenodd" clip-rule="evenodd" d="M26.9311 11.3609C27.1043 11.138 26.931 10.8283 26.6332 10.8283H22.9513L23.8084 6.80612C23.9578 6.10574 22.976 5.70066 22.5068 6.26903L16.0752 14.0605C15.8921 14.2822 16.0641 14.6011 16.3668 14.6011H20.0224L19.1288 19.2052C18.9915 19.9123 19.9917 20.2997 20.4455 19.7152L26.9311 11.3609Z" fill="#FF9F2F"/>
</svg>
