<svg width="28" height="24" viewBox="0 0 28 24" fill="none" xmlns="http://www.w3.org/2000/svg">
<path fill-rule="evenodd" clip-rule="evenodd" d="M18.9122 22.5668C19.7615 22.8556 20.7347 23 21.8318 23C22.2423 23 22.6581 22.9694 23.0792 22.9083C23.5039 22.8471 23.8967 22.769 24.2577 22.6739C24.3885 22.6397 24.51 22.6053 24.6222 22.5707C24.9204 22.4788 25.0621 22.1689 24.9668 21.8825L24.9581 21.8564C24.8508 21.5343 24.4854 21.3574 24.1467 21.4501L24.0878 21.4661C23.7905 21.551 23.4508 21.6258 23.0686 21.6903C22.6864 21.7583 22.2971 21.7922 21.9008 21.7922C21.009 21.7922 20.2216 21.675 19.5386 21.4406C18.8556 21.2096 18.2823 20.8699 17.8187 20.4214C17.3551 19.973 17.0048 19.4226 16.7677 18.7703C16.5306 18.1146 16.412 17.3638 16.412 16.5178C16.412 15.7059 16.527 14.9737 16.757 14.3214C16.9906 13.6658 17.3321 13.1035 17.7815 12.6347C18.2345 12.1658 18.7901 11.8074 19.4483 11.5594C20.1066 11.308 20.8586 11.1823 21.7044 11.1823C22.3272 11.1823 22.8952 11.2553 23.4083 11.4014C23.925 11.5475 24.3851 11.7547 24.7885 12.0231C25.1919 12.2915 25.5316 12.6126 25.8077 12.9863C26.0872 13.3566 26.2978 13.7711 26.4394 14.2297C26.5845 14.685 26.657 15.1708 26.657 15.6872C26.657 16.4244 26.6181 17.0291 26.5402 17.5014C26.4659 17.9736 26.3367 18.3235 26.1527 18.5512C25.9722 18.7788 25.721 18.8926 25.3989 18.8926C25.1264 18.8926 24.9159 18.7992 24.7673 18.6123C24.6222 18.4255 24.5496 18.1978 24.5496 17.9294V13.7982C24.5496 13.468 24.2708 13.2003 23.9268 13.2003H23.8383C23.51 13.2003 23.2438 13.4559 23.2438 13.7711H23.1748C23.1217 13.6216 22.9907 13.484 22.782 13.3583C22.5767 13.2326 22.3184 13.1392 22.0069 13.078C21.6955 13.0169 21.354 13.0067 20.9824 13.0474C20.6002 13.0916 20.2375 13.1986 19.8942 13.3685C19.551 13.5384 19.2466 13.7694 18.9812 14.0615C18.7193 14.3503 18.5123 14.6952 18.3601 15.096C18.208 15.4935 18.1319 15.9437 18.1319 16.4465C18.1319 16.9697 18.1991 17.4453 18.3336 17.8734C18.4681 18.3015 18.661 18.6718 18.9122 18.9843C19.167 19.2969 19.4731 19.5415 19.8305 19.7182C20.188 19.8948 20.5896 19.9916 21.0355 20.0086C21.439 20.0256 21.7928 19.9848 22.0972 19.8863C22.4051 19.7844 22.6581 19.6485 22.8563 19.4786C23.0544 19.3054 23.196 19.1185 23.2809 18.9181H23.3446C23.3871 19.1899 23.5074 19.4141 23.7056 19.5907C23.9038 19.764 24.1444 19.8897 24.4275 19.9679C24.7106 20.046 25.0026 20.08 25.3034 20.0698C25.8696 20.0596 26.3297 19.9322 26.6835 19.6876C27.041 19.4396 27.3135 19.11 27.501 18.6989C27.6921 18.2845 27.8231 17.8224 27.8938 17.3128C27.9646 16.7998 28 16.2749 28 15.7381C28 14.9703 27.8655 14.2416 27.5966 13.5519C27.3276 12.8623 26.9277 12.2508 26.3969 11.7174C25.8696 11.184 25.2185 10.7644 24.4434 10.4586C23.6684 10.1529 22.7731 10 21.7575 10C20.6958 10 19.7474 10.1495 18.9122 10.4485C18.077 10.7474 17.3675 11.1806 16.7836 11.7479C16.2032 12.3119 15.7609 12.9948 15.4565 13.7966C15.1522 14.5983 15 15.502 15 16.5076C15 17.5404 15.1504 18.4594 15.4512 19.2646C15.752 20.0698 16.1926 20.7492 16.773 21.303C17.3533 21.8602 18.0664 22.2815 18.9122 22.5668ZM22.4528 18.4951C22.1733 18.6718 21.8035 18.7601 21.3434 18.7601C20.8798 18.7601 20.5118 18.648 20.2393 18.4238C19.9703 18.1995 19.7757 17.9074 19.6554 17.5472C19.5386 17.1837 19.4784 16.7964 19.4749 16.3853C19.4784 15.9946 19.5527 15.6396 19.6978 15.3203C19.8465 15.0009 20.0606 14.7478 20.3401 14.561C20.6232 14.3741 20.9647 14.2807 21.3646 14.2807C21.7999 14.2807 22.1556 14.3486 22.4316 14.4845C22.7112 14.617 22.9164 14.8378 23.0474 15.147C23.1818 15.4528 23.2509 15.8638 23.2544 16.3802C23.2544 16.9102 23.1907 17.3519 23.0633 17.7052C22.9394 18.0551 22.7359 18.3184 22.4528 18.4951Z" fill="white"/>
<path d="M4.56805 21.8382C4.2716 22.1839 3.76471 21.939 3.76471 21.4501L3.76471 16.1896C1.68552 16.1896 0 14.224 0 11.7993V6.3903C0 3.9656 1.68552 2 3.76471 2H16.2353C18.3145 2 20 3.9656 20 6.3903V8.6404C16.3972 9.32382 13.6496 12.4231 13.5059 16.1896H9.41177L4.56805 21.8382Z" fill="#AAAAAA"/>
</svg>
