<svg width="28" height="20" viewBox="0 0 28 20" fill="none" xmlns="http://www.w3.org/2000/svg">
<path fill-rule="evenodd" clip-rule="evenodd" d="M11.6457 5.16934L13.6026 7.10164C13.9478 7.44253 13.9478 7.99419 13.6026 8.33508C13.2559 8.67738 12.6928 8.67738 12.3462 8.33508L8.25564 4.2959L12.3462 0.256723C12.6928 -0.0855744 13.2559 -0.0855744 13.6026 0.256723C13.9478 0.597614 13.9478 1.14927 13.6026 1.49016L11.6457 3.42246H20.8022C22.5707 3.42246 24 4.83743 24 6.57754V14.5633C24 15.6733 23.088 16.5775 21.9576 16.5775C21.4652 16.5775 21.0704 16.1841 21.0704 15.7041C21.0704 15.2241 21.4652 14.8307 21.9576 14.8307C22.1032 14.8307 22.2258 14.7133 22.2258 14.5633V6.57754C22.2258 5.79742 21.586 5.16934 20.8022 5.16934H11.6457ZM19.7444 15.7041L15.6538 19.7433C15.3072 20.0856 14.7441 20.0856 14.3974 19.7433C14.0522 19.4024 14.0522 18.8507 14.3974 18.5098L16.3543 16.5775H7.19776C5.42925 16.5775 4 15.1626 4 13.4225V5.43672C4 4.32667 4.912 3.42246 6.04244 3.42246C6.53482 3.42246 6.92956 3.81591 6.92956 4.2959C6.92956 4.77589 6.53482 5.16934 6.04244 5.16934C5.89675 5.16934 5.77424 5.28666 5.77424 5.43672V13.4225C5.77424 14.2026 6.41401 14.8307 7.19776 14.8307H16.3543L14.3974 12.8984C14.0522 12.5575 14.0522 12.0058 14.3974 11.6649C14.7441 11.3226 15.3072 11.3226 15.6538 11.6649L19.7444 15.7041Z" fill="#66E205"/>
</svg>
