<svg width="20" height="18" viewBox="0 0 20 18" fill="none" xmlns="http://www.w3.org/2000/svg">
<path fill-rule="evenodd" clip-rule="evenodd" d="M13.5004 0.731969C15.1425 -0.394708 17.3728 -0.203294 18.7901 1.18595C20.2074 2.5752 20.4027 4.76131 19.2532 6.37085L12.1736 16.2843C10.9378 18.0147 8.40764 18.2319 6.88389 16.7383L2.92343 12.8563C1.39968 11.3627 1.62122 8.8827 3.38659 7.67142L13.5004 0.731969ZM11.4384 12.3953C10.3105 13.5008 8.48196 13.5008 7.35412 12.3953C6.22629 11.2898 6.22629 9.49743 7.35412 8.39194C8.48196 7.28645 10.3105 7.28645 11.4384 8.39194C12.5662 9.49743 12.5662 11.2898 11.4384 12.3953Z" fill="white"/>
<path d="M5.72025 17.1993L2.45286 13.9967L0.340665 16.067C-0.387067 16.7803 0.12834 18 1.15751 18L4.42491 18C4.73128 18 5.02511 17.8807 5.24176 17.6684L5.72025 17.1993Z" fill="white"/>
</svg>
