<svg width="20" height="20" viewBox="0 0 20 20" fill="none" xmlns="http://www.w3.org/2000/svg">
<path d="M6.18765 6.83767C6.51503 7.10061 7 6.8666 7 6.44569V4.47826H15C16.6569 4.47826 18 5.82671 18 7.49012V11.2599C18 11.6016 17.9433 11.93 17.8389 12.2362C17.7624 12.4605 17.8139 12.7168 17.9984 12.8649L18.8223 13.5266C19.0571 13.7153 19.4056 13.655 19.5328 13.3814C19.8326 12.737 20 12.0181 20 11.2599V7.49012C20 4.71778 17.7614 2.47035 15 2.47035H7V0.502919C7 0.0820082 6.51503 -0.152 6.18765 0.110941L2.48804 3.08233C2.23784 3.28328 2.23784 3.66533 2.48804 3.86628L6.18765 6.83767Z" fill="#66E205"/>
<path d="M1.1777 6.47335C0.942861 6.28474 0.594444 6.34501 0.467192 6.61857C0.167429 7.26301 0 7.98193 0 8.74012V12.5099C0 15.2822 2.23858 17.5296 5 17.5296H13V19.4971C13 19.918 13.485 20.152 13.8123 19.8891L17.512 16.9177C17.7622 16.7167 17.7622 16.3347 17.512 16.1337L13.8123 13.1623C13.485 12.8994 13 13.1334 13 13.5543V15.5217H5C3.34315 15.5217 2 14.1733 2 12.5099V8.74012C2 8.39841 2.05668 8.06998 2.16112 7.76381C2.23764 7.5395 2.18607 7.28324 2.00165 7.13512L1.1777 6.47335Z" fill="#66E205"/>
</svg>
