<svg width="22" height="20" viewBox="0 0 22 20" fill="none" xmlns="http://www.w3.org/2000/svg">
<path fill-rule="evenodd" clip-rule="evenodd" d="M3.44433 12.529L3.44303 12.5278C3.42861 12.5146 3.4087 12.4961 3.38383 12.4726C3.3341 12.4257 3.26443 12.3587 3.17899 12.2732C3.00835 12.1025 2.77348 11.8569 2.50841 11.5496C1.98264 10.9402 1.31707 10.0643 0.804758 9.03059C0.294761 8.00159 -0.0957605 6.75052 0.0206911 5.41906C0.140163 4.05307 0.784059 2.71533 2.14073 1.54239C3.47484 0.388945 4.81567 -0.0741596 6.10133 0.00954861C7.35914 0.0914431 8.4146 0.687282 9.22498 1.36045C9.89837 1.91982 10.4449 2.56707 10.8503 3.12282C11.2558 2.56707 11.8023 1.91983 12.4756 1.36046C13.286 0.687281 14.3414 0.0914414 15.5993 0.00954724C16.8849 -0.0741597 18.2258 0.388937 19.56 1.54236C20.8644 2.67003 21.5896 3.86443 21.8675 5.06594C22.1444 6.26281 21.9536 7.3635 21.6052 8.26743C21.2594 9.16441 20.7493 9.89381 20.3391 10.3905C20.1317 10.6414 19.9441 10.84 19.8056 10.9782C19.7362 11.0474 19.6787 11.102 19.6367 11.1408C19.62 11.1561 19.6058 11.1691 19.5942 11.1795L11.2055 19.6418C11.0099 19.8391 10.6909 19.8391 10.4953 19.6418L3.44433 12.529Z" fill="#F800C1"/>
</svg>
