<svg width="28" height="20" viewBox="0 0 28 20" fill="none" xmlns="http://www.w3.org/2000/svg">
<path fill-rule="evenodd" clip-rule="evenodd" d="M21.3688 0.407631C21.4937 0.241597 21.379 0 21.1752 0H12.1286C11.7961 0 11.4863 0.173923 11.3057 0.461937L5.53967 9.65901C5.43425 9.82715 5.55127 10.0489 5.74541 10.0489H9.872C10.0428 10.0489 10.1612 10.2247 10.1016 10.3898L6.68279 19.8631C6.64782 19.96 6.7598 20.0421 6.83707 19.9763L22.4106 6.6984C22.5876 6.54749 22.4841 6.25091 22.2545 6.25091H17.4729C17.2692 6.25091 17.1545 6.00932 17.2794 5.84328L21.3688 0.407631Z" fill="#AAAAAA"/>
<path fill-rule="evenodd" clip-rule="evenodd" d="M21.3688 0.407631C21.4937 0.241597 21.379 0 21.1752 0H12.1286C11.7961 0 11.4863 0.173923 11.3057 0.461937L5.53967 9.65901C5.43425 9.82715 5.55127 10.0489 5.74541 10.0489H9.872C10.0428 10.0489 10.1612 10.2247 10.1016 10.3898L6.68279 19.8631C6.64782 19.96 6.7598 20.0421 6.83707 19.9763L22.4106 6.6984C22.5876 6.54749 22.4841 6.25091 22.2545 6.25091H17.4729C17.2692 6.25091 17.1545 6.00932 17.2794 5.84328L21.3688 0.407631Z" fill="#FFA02F"/>
</svg>
