<svg width="28" height="20" viewBox="0 0 28 20" fill="none" xmlns="http://www.w3.org/2000/svg">
<path d="M6.575 13.5519C10.425 17.377 14 20 14 20C14 20 17.575 17.377 21.425 13.5519C23.3626 11.306 24.4375 8.98091 24.7678 7.3537C24.89 6.8306 25 6.29883 25 5.7377C25 5.68114 24.9992 5.62471 24.9975 5.56854C25 5.50037 25 5.46448 25 5.46448C24.8565 2.42246 22.3223 0 19.225 0C16.9165 0 14.9244 1.67358 14 3.61856C13.0756 1.67358 11.0835 0 8.775 0C5.67773 0 3.14354 2.42246 3 5.46448C3 5.46448 3 5.50037 3.00245 5.56854C3.00081 5.62471 3 5.68114 3 5.7377C3 6.29883 3.12049 6.80328 3.2322 7.3537C3.56245 8.98091 4.63738 11.306 6.575 13.5519Z" fill="#BC1870"/>
</svg>
