<svg width="28" height="24" viewBox="0 0 28 24" fill="none" xmlns="http://www.w3.org/2000/svg">
<path fill-rule="evenodd" clip-rule="evenodd" d="M16.1918 17.1439L16.191 17.1431C16.1818 17.1345 16.1692 17.1225 16.1533 17.1072C16.1217 17.0767 16.0774 17.0332 16.023 16.9776C15.9144 16.8666 15.7649 16.707 15.5963 16.5073C15.2617 16.1111 14.8381 15.5418 14.5121 14.8699C14.1876 14.201 13.9391 13.3878 14.0132 12.5224C14.0892 11.6345 14.4989 10.765 15.3623 10.0026C16.2113 9.25281 17.0645 8.9518 17.8827 9.00621C18.6831 9.05944 19.3547 9.44673 19.8704 9.88429C20.299 10.2479 20.6467 10.6686 20.9048 11.0298C21.1628 10.6686 21.5105 10.2479 21.939 9.8843C22.4547 9.44673 23.1264 9.05944 23.9268 9.00621C24.745 8.9518 25.5982 9.25281 26.4473 10.0025C27.2773 10.7355 27.7388 11.5119 27.9157 12.2929C28.0919 13.0708 27.9705 13.7863 27.7487 14.3738C27.5287 14.9569 27.2041 15.431 26.943 15.7538C26.8111 15.9169 26.6917 16.046 26.6035 16.1358C26.5594 16.1808 26.5228 16.2163 26.4961 16.2415C26.4855 16.2515 26.4764 16.2599 26.4691 16.2667L21.2636 21.6303C21.0672 21.8327 20.7424 21.8327 20.546 21.6303L16.1918 17.1439Z" fill="#CA077C"/>
<path d="M3.76471 21.4501C3.76471 21.939 4.2716 22.1839 4.56805 21.8382L9.41177 16.1896H12.946C12.8658 16.046 12.7876 15.897 12.7128 15.743C12.2955 14.8829 11.9051 13.6993 12.0205 12.3518C12.1434 10.9169 12.8165 9.58253 14.0385 8.50343C15.1998 7.47783 16.5588 6.91374 18.0154 7.01061C18.7745 7.06109 19.4387 7.28359 20 7.57317V6.3903C20 3.9656 18.3145 2 16.2353 2H3.76471C1.68552 2 0 3.9656 0 6.3903V11.7993C0 14.224 1.68552 16.1896 3.76471 16.1896L3.76471 21.4501Z" fill="#808080"/>
</svg>
