<svg width="28" height="24" viewBox="0 0 28 24" fill="none" xmlns="http://www.w3.org/2000/svg">
<path d="M19.9501 11.4701C20.212 11.6805 20.6 11.4933 20.6 11.1566V9.58261H24C25.3255 9.58261 26.4 10.6614 26.4 11.9921V15.0079C26.4 15.2813 26.3547 15.544 26.2711 15.7889C26.2099 15.9684 26.2511 16.1734 26.3987 16.2919L27.0578 16.8213C27.2457 16.9722 27.5244 16.924 27.6262 16.7051C27.8661 16.1896 28 15.6145 28 15.0079V11.9921C28 9.77422 26.2091 7.97628 24 7.97628H20.6V6.40233C20.6 6.06561 20.212 5.8784 19.9501 6.08875L16.9904 8.46586C16.7903 8.62663 16.7903 8.93226 16.9904 9.09303L19.9501 11.4701Z" fill="#52CE0A"/>
<path d="M15.9422 11.1787C15.7543 11.0278 15.4756 11.076 15.3738 11.2949C15.1339 11.8104 15 12.3855 15 12.9921V16.0079C15 18.2258 16.7909 20.0237 19 20.0237H22.4V21.5977C22.4 21.9344 22.788 22.1216 23.0499 21.9112L26.0096 19.5341C26.2097 19.3734 26.2097 19.0677 26.0096 18.907L23.0499 16.5299C22.788 16.3195 22.4 16.5067 22.4 16.8434V18.4174H19C17.6745 18.4174 16.6 17.3386 16.6 16.0079V12.9921C16.6 12.7187 16.6453 12.456 16.7289 12.2111C16.7901 12.0316 16.7489 11.8266 16.6013 11.7081L15.9422 11.1787Z" fill="#52CE0A"/>
<path d="M3.76471 21.4501C3.76471 21.939 4.2716 22.1839 4.56805 21.8382L9.41177 16.1896H13.0027C13.0009 16.1292 13 16.0687 13 16.0079V12.9921C13 12.0884 13.2001 11.2258 13.5603 10.4513C13.8488 9.83123 14.32 9.43618 14.85 9.24149V9C14.78 8.23294 15.0763 7.43804 15.738 6.90654L18.6977 4.52943C18.9368 4.33743 19.1926 4.20053 19.4548 4.11335C18.7944 2.84633 17.5996 2 16.2353 2H3.76471C1.68552 2 0 3.9656 0 6.3903V11.7993C0 14.224 1.68552 16.1896 3.76471 16.1896L3.76471 21.4501Z" fill="#808080"/>
</svg>
