<svg width="28" height="24" viewBox="0 0 28 24" fill="none" xmlns="http://www.w3.org/2000/svg">
<path fill-rule="evenodd" clip-rule="evenodd" d="M26.9311 13.3609C27.1043 13.138 26.931 12.8283 26.6332 12.8283H22.9513L23.8084 8.80612C23.9578 8.10574 22.976 7.70066 22.5068 8.26903L16.0752 16.0605C15.8921 16.2822 16.0641 16.6011 16.3668 16.6011H20.0224L19.1288 21.2052C18.9915 21.9123 19.9917 22.2997 20.4455 21.7152L26.9311 13.3609Z" fill="#FF9F2F"/>
<path d="M3.76471 21.4501C3.76471 21.939 4.2716 22.1839 4.56805 21.8382L9.41177 16.1896H14.0014C14.0158 15.7036 14.1836 15.2103 14.5328 14.7873L20 8.16413V6.3903C20 3.9656 18.3145 2 16.2353 2H3.76471C1.68552 2 0 3.9656 0 6.3903V11.7993C0 14.224 1.68552 16.1896 3.76471 16.1896L3.76471 21.4501Z" fill="#808080"/>
</svg>
