<svg width="28" height="24" viewBox="0 0 28 24" fill="none" xmlns="http://www.w3.org/2000/svg">
<path d="M3.76471 21.4501C3.76471 21.939 4.2716 22.1839 4.56805 21.8382L9.41177 16.1896H12.1672C12.0572 15.754 12 15.3057 12 14.8595V11.0732C12 8.57085 13.7979 6 16.6353 6H19.9853C19.816 3.75813 18.2017 2 16.2353 2H3.76471C1.68552 2 0 3.9656 0 6.3903V11.7993C0 14.224 1.68552 16.1896 3.76471 16.1896L3.76471 21.4501Z" fill="#808080"/>
<path fill-rule="evenodd" clip-rule="evenodd" d="M24.8024 21.8867C25.0099 22.1287 25.3647 21.9573 25.3647 21.6151L25.3647 17.9327C26.8201 17.9327 28 16.5568 28 14.8595V11.0732C28 9.37592 26.8201 8 25.3647 8H16.6353C15.1799 8 14 9.37592 14 11.0732V14.8595C14 16.5568 15.1799 17.9327 16.6353 17.9327H21.4118L24.8024 21.8867Z" fill="#111111"/>
</svg>
