<svg width="28" height="24" viewBox="0 0 28 24" fill="none" xmlns="http://www.w3.org/2000/svg">
<path fill-rule="evenodd" clip-rule="evenodd" d="M25.9307 14.8862C26.105 14.651 25.9306 14.3243 25.6307 14.3243H21.923L22.7861 10.0812C22.9365 9.34232 21.9479 8.91499 21.4754 9.51459L14.9988 17.7341C14.8145 17.9681 14.9876 18.3044 15.2925 18.3044H18.9736L18.0738 23.1615C17.9355 23.9075 18.9427 24.3162 19.3996 23.6996L25.9307 14.8862Z" fill="#FFA02F"/>
<path d="M10.3077 9.23077C12.8567 9.23077 14.9231 7.16439 14.9231 4.61539C14.9231 2.06638 12.8567 0 10.3077 0C7.75869 0 5.69231 2.06638 5.69231 4.61539C5.69231 7.16439 7.75869 9.23077 10.3077 9.23077Z" fill="#666666"/>
<path d="M5.69231 11.0769C3.6531 11.0769 2 12.73 2 14.7692C2 16.8084 3.6531 18.4615 5.69231 18.4615H13.1279C12.9734 17.8654 13.0743 17.1937 13.5488 16.5915L17.2461 11.8991C16.6117 11.385 15.8033 11.0769 14.9231 11.0769H5.69231Z" fill="#666666"/>
</svg>
