<svg width="28" height="24" viewBox="0 0 28 24" fill="none" xmlns="http://www.w3.org/2000/svg">
<path d="M18.0302 14.5985C18.239 14.7662 18.5483 14.617 18.5483 14.3486V13.0938H23.6504C24.707 13.0938 25.5636 13.9538 25.5636 15.0146V17.4189C25.5636 17.6368 25.5275 17.8462 25.4609 18.0415C25.4121 18.1846 25.445 18.348 25.5626 18.4425L26.0881 18.8645C26.2378 18.9848 26.4601 18.9464 26.5412 18.7719C26.7324 18.3609 26.8392 17.9024 26.8392 17.4189V15.0146C26.8392 13.2466 25.4115 11.8132 23.6504 11.8132H18.5483V10.5585C18.5483 10.29 18.239 10.1408 18.0302 10.3085L15.6707 12.2035C15.5111 12.3317 15.5111 12.5753 15.6707 12.7035L18.0302 14.5985Z" fill="#52CE0A"/>
<path d="M14.835 14.3662C14.6852 14.2459 14.463 14.2843 14.3819 14.4588C14.1907 14.8698 14.0839 15.3283 14.0839 15.8118V18.2161C14.0839 19.9842 15.5116 21.4175 17.2727 21.4175H22.3748V22.6722C22.3748 22.9407 22.6841 23.0899 22.8929 22.9222L25.2524 21.0272C25.412 20.899 25.412 20.6554 25.2524 20.5272L22.8929 18.6322C22.6841 18.4645 22.3748 18.6137 22.3748 18.8822V20.1369H17.2727C16.2161 20.1369 15.3594 19.2769 15.3594 18.2161V15.8118C15.3594 15.5939 15.3956 15.3845 15.4622 15.1892C15.511 15.0461 15.4781 14.8827 15.3605 14.7882L14.835 14.3662Z" fill="#52CE0A"/>
<path d="M10.3077 9.23077C12.8567 9.23077 14.9231 7.16439 14.9231 4.61539C14.9231 2.06638 12.8567 0 10.3077 0C7.75869 0 5.69231 2.06638 5.69231 4.61539C5.69231 7.16439 7.75869 9.23077 10.3077 9.23077Z" fill="#666666"/>
<path d="M5.69231 11.0769C3.6531 11.0769 2 12.73 2 14.7692C2 16.8084 3.6531 18.4615 5.69231 18.4615H12.1538C12.1538 18.4615 11.7658 15.9703 12.6154 13.8462C13.5385 11.5385 14 11.0769 14 11.0769H5.69231Z" fill="#666666"/>
</svg>
