<svg width="28" height="24" viewBox="0 0 28 24" fill="none" xmlns="http://www.w3.org/2000/svg">
<path fill-rule="evenodd" clip-rule="evenodd" d="M6.44433 14.529L6.44303 14.5278C6.42861 14.5146 6.4087 14.4961 6.38383 14.4726C6.3341 14.4257 6.26443 14.3587 6.17899 14.2732C6.00835 14.1025 5.77348 13.8569 5.50841 13.5496C4.98264 12.9402 4.31707 12.0643 3.80476 11.0306C3.29476 10.0016 2.90424 8.75052 3.02069 7.41906C3.14016 6.05307 3.78406 4.71533 5.14073 3.54239C6.47484 2.38894 7.81567 1.92584 9.10133 2.00955C10.3591 2.09144 11.4146 2.68728 12.225 3.36045C12.8984 3.91982 13.4449 4.56707 13.8503 5.12282C14.2558 4.56707 14.8023 3.91983 15.4756 3.36046C16.286 2.68728 17.3414 2.09144 18.5993 2.00955C19.8849 1.92584 21.2258 2.38894 22.56 3.54236C23.8644 4.67003 24.5896 5.86443 24.8675 7.06594C25.1444 8.26281 24.9536 9.3635 24.6052 10.2674C24.2594 11.1644 23.7493 11.8938 23.3391 12.3905C23.1317 12.6414 22.9441 12.84 22.8056 12.9782C22.7362 13.0474 22.6787 13.102 22.6367 13.1408C22.62 13.1561 22.6058 13.1691 22.5942 13.1795L14.2055 21.6418C14.0099 21.8391 13.6909 21.8391 13.4953 21.6418L6.44433 14.529Z" fill="#CA077C"/>
</svg>
