<svg width="28" height="24" viewBox="0 0 28 24" fill="none" xmlns="http://www.w3.org/2000/svg">
<path d="M10.1877 8.83767C10.515 9.10061 11 8.8666 11 8.44569V6.47826H19C20.6569 6.47826 22 7.82671 22 9.49012V13.2599C22 13.6016 21.9433 13.93 21.8389 14.2362C21.7624 14.4605 21.8139 14.7168 21.9984 14.8649L22.8223 15.5266C23.0571 15.7153 23.4056 15.655 23.5328 15.3814C23.8326 14.737 24 14.0181 24 13.2599V9.49012C24 6.71778 21.7614 4.47035 19 4.47035H11V2.50292C11 2.08201 10.515 1.848 10.1877 2.11094L6.48804 5.08233C6.23784 5.28328 6.23784 5.66533 6.48804 5.86628L10.1877 8.83767Z" fill="#52CE0A"/>
<path d="M5.1777 8.47335C4.94286 8.28474 4.59444 8.34501 4.46719 8.61857C4.16743 9.26301 4 9.98193 4 10.7401V14.5099C4 17.2822 6.23858 19.5296 9 19.5296H17V21.4971C17 21.918 17.485 22.152 17.8123 21.8891L21.512 18.9177C21.7622 18.7167 21.7622 18.3347 21.512 18.1337L17.8123 15.1623C17.485 14.8994 17 15.1334 17 15.5543V17.5217H9C7.34315 17.5217 6 16.1733 6 14.5099V10.7401C6 10.3984 6.05668 10.07 6.16112 9.76381C6.23764 9.5395 6.18607 9.28324 6.00165 9.13512L5.1777 8.47335Z" fill="#52CE0A"/>
</svg>
