<svg width="28" height="24" viewBox="0 0 28 24" fill="none" xmlns="http://www.w3.org/2000/svg">
<path d="M23.4999 8.89751C23.906 8.89751 24.1422 9.33996 23.9061 9.65844L15.062 21.5932C14.4432 22.4282 13.0794 21.8747 13.2665 20.8646L14.4851 14.2872H9.50018C9.08741 14.2872 8.8529 13.8318 9.10258 13.5149L17.8729 2.38433C18.5127 1.57238 19.8515 2.15105 19.6479 3.1516L18.479 8.89751H23.4999Z" fill="#FFA02F"/>
<path d="M6 6.875C6 6.39172 6.39172 6 6.875 6H10.625C11.1083 6 11.5 6.39172 11.5 6.875C11.5 7.35828 11.1083 7.75 10.625 7.75H6.875C6.39172 7.75 6 7.35828 6 6.875Z" fill="#FFA02F"/>
<path d="M4.875 11C4.39172 11 4 11.3917 4 11.875C4 12.3583 4.39172 12.75 4.875 12.75H7.125C7.60828 12.75 8 12.3583 8 11.875C8 11.3917 7.60828 11 7.125 11H4.875Z" fill="#FFA02F"/>
<path d="M5 16.875C5 16.3917 5.39172 16 5.875 16H10.125C10.6083 16 11 16.3917 11 16.875C11 17.3583 10.6083 17.75 10.125 17.75H5.875C5.39172 17.75 5 17.3583 5 16.875Z" fill="#FFA02F"/>
</svg>
