<svg width="28" height="24" viewBox="0 0 28 24" fill="none" xmlns="http://www.w3.org/2000/svg">
<path fill-rule="evenodd" clip-rule="evenodd" d="M17.5004 3.73197C19.1425 2.60529 21.3728 2.79671 22.7901 4.18595C24.2074 5.5752 24.4027 7.76131 23.2532 9.37085L16.1736 19.2843C14.9378 21.0147 12.4076 21.2319 10.8839 19.7383L6.92343 15.8563C5.39968 14.3627 5.62122 11.8827 7.38659 10.6714L17.5004 3.73197ZM15.4384 15.3953C14.3105 16.5008 12.482 16.5008 11.3541 15.3953C10.2263 14.2898 10.2263 12.4974 11.3541 11.3919C12.482 10.2864 14.3105 10.2864 15.4384 11.3919C16.5662 12.4974 16.5662 14.2898 15.4384 15.3953Z" fill="#111111"/>
<path d="M9.72025 20.1993L6.45286 16.9967L4.34067 19.067C3.61293 19.7803 4.12834 21 5.15751 21L8.42491 21C8.73128 21 9.02511 20.8807 9.24176 20.6684L9.72025 20.1993Z" fill="#111111"/>
</svg>
