<svg width="28" height="20" viewBox="0 0 28 20" fill="none" xmlns="http://www.w3.org/2000/svg">
<path d="M15.2379 3.63638C14.1859 3.63638 13.3331 2.82234 13.3331 1.8182C13.3331 0.81404 14.1859 0 15.2379 0C16.2899 0 17.1426 0.81404 17.1426 1.8182C17.1426 2.82234 16.2899 3.63638 15.2379 3.63638Z" fill="#AAAAAA"/>
<path d="M14.2857 11.8881V10.0048L14.2858 10.0001C14.2858 8.52892 13.2011 7.37472 11.8533 6.6395C11.654 6.53077 11.4451 6.42868 11.2273 6.33357C11.1723 6.30955 11.1169 6.28599 11.0607 6.26288C10.9975 6.2368 10.9335 6.21131 10.869 6.1864C11.602 5.22082 13.2824 4.54561 15.2381 4.54561C17.1658 4.54561 18.8259 5.20168 19.575 6.14519C18.5864 6.47862 17.8744 7.41349 17.8744 8.51465V10.8593H16.1763C15.3393 10.8593 14.6711 11.2861 14.2857 11.8881Z" fill="#AAAAAA"/>
<path d="M6.66655 5.45464C8.24451 5.45464 9.52369 4.23358 9.52369 2.72735C9.52369 1.22112 8.24451 5.54864e-05 6.66655 5.54864e-05C5.08859 5.54864e-05 3.80941 1.22112 3.80941 2.72735C3.80941 4.23358 5.08859 5.45464 6.66655 5.45464Z" fill="#AAAAAA"/>
<path d="M13.3333 10.0218L13.3335 10.0001C13.3335 7.99178 10.3487 6.36373 6.66667 6.36373C2.98479 6.36373 0.000116257 7.99184 0 10.0001V15.6144C0 16.3021 0.536529 16.8822 1.2514 16.9675L1.48763 16.9957C1.72596 17.0241 1.90476 17.2175 1.90476 17.4467V19.0909C1.90476 19.593 2.33119 20 2.85714 20H10.4762C11.0021 20 11.4286 19.593 11.4286 19.0909V17.4467C11.4286 17.2175 11.6074 17.0241 11.8457 16.9957L12.0819 16.9675C12.7968 16.8822 13.3333 16.3021 13.3333 15.6144V10.0218Z" fill="#AAAAAA"/>
<path d="M19.6987 12.8593V8.51465C19.6987 8.23851 19.9225 8.01465 20.1987 8.01465H23.4487C23.7249 8.01465 23.9487 8.23851 23.9487 8.51465V12.8593H27.647C27.8619 12.8593 27.9767 13.1126 27.8349 13.2742L22.0117 19.9122C21.9121 20.0257 21.7354 20.0257 21.6358 19.9122L15.8126 13.2742C15.6708 13.1126 15.7855 12.8593 16.0005 12.8593H19.6987Z" fill="#E20505"/>
</svg>
